<?xml version="1.0" standalone="no"?>
 <!DOCTYPE svg PUBLIC "-//W3C//DTD SVG 1.1//EN" 
 "http://www.w3.org/Graphics/SVG/1.1/DTD/svg11.dtd"> 
<svg
  xmlns:svg="http://www.w3.org/2000/svg"
  xmlns="http://www.w3.org/2000/svg"
  xmlns:xlink="http://www.w3.org/1999/xlink"
  version="1.1"
  width="29.700220cm" height="21.000720cm" viewBox="0 0 116930 82680">
<title>SVG Picture created as biym-board-gpio.svg date 2022/11/21 12:46:18 </title>
  <desc>Picture generated by Eeschema-SVG </desc>
<g style="fill:#000000; fill-opacity:1.000000;stroke:#000000; stroke-opacity:1.000000;
stroke-linecap:round; stroke-linejoin:round;"
 transform="translate(0 0) scale(1 1)">
</g>
<g style="fill:#840000; fill-opacity:0.0; 
stroke:#840000; stroke-width:0.000000; stroke-opacity:1; 
stroke-linecap:round; stroke-linejoin:round;">
</g>
<g style="fill:#840000; fill-opacity:0.0; 
stroke:#840000; stroke-width:60.000000; stroke-opacity:1; 
stroke-linecap:round; stroke-linejoin:round;">
<rect x="69685.905512" y="65357.165354" width="42519.685039" height="12598.425197" rx="0.000000" />
<rect x="3937.007874" y="3937.007874" width="109055.984252" height="74805.984252" rx="0.000000" />
<rect x="4724.409449" y="4724.409449" width="107481.181102" height="73231.181102" rx="0.000000" />
<path d="M23622 4724
L23622 3937
" />
<path d="M43307 4724
L43307 3937
" />
<path d="M62992 4724
L62992 3937
" />
<path d="M82677 4724
L82677 3937
" />
<path d="M102362 4724
L102362 3937
" />
<text x="13779.527559" y="4586.614173"
textLength="549.960630" font-size="682.401575" lengthAdjust="spacingAndGlyphs"
text-anchor="start" opacity="0">1</text>
<g class="stroked-text"><desc>1</desc>
<path d="M14199 4562
L13907 4562
" />
<path d="M14053 4562
L14053 4050
L14004 4123
L13955 4172
L13907 4196
" />
</g><text x="33464.566929" y="4586.614173"
textLength="547.440945" font-size="682.401575" lengthAdjust="spacingAndGlyphs"
text-anchor="start" opacity="0">2</text>
<g class="stroked-text"><desc>2</desc>
<path d="M33592 4099
L33616 4074
L33665 4050
L33787 4050
L33835 4074
L33860 4099
L33884 4147
L33884 4196
L33860 4269
L33567 4562
L33884 4562
" />
</g><text x="53149.606299" y="4586.614173"
textLength="547.440945" font-size="682.401575" lengthAdjust="spacingAndGlyphs"
text-anchor="start" opacity="0">3</text>
<g class="stroked-text"><desc>3</desc>
<path d="M53252 4050
L53569 4050
L53398 4245
L53472 4245
L53520 4269
L53545 4294
L53569 4342
L53569 4464
L53545 4513
L53520 4537
L53472 4562
L53325 4562
L53277 4537
L53252 4513
" />
</g><text x="72834.645669" y="4586.614173"
textLength="547.440945" font-size="682.401575" lengthAdjust="spacingAndGlyphs"
text-anchor="start" opacity="0">4</text>
<g class="stroked-text"><desc>4</desc>
<path d="M73205 4221
L73205 4562
" />
<path d="M73083 4026
L72962 4391
L73278 4391
" />
</g><text x="92519.685039" y="4586.614173"
textLength="547.440945" font-size="682.401575" lengthAdjust="spacingAndGlyphs"
text-anchor="start" opacity="0">5</text>
<g class="stroked-text"><desc>5</desc>
<path d="M92915 4050
L92671 4050
L92647 4294
L92671 4269
L92720 4245
L92842 4245
L92890 4269
L92915 4294
L92939 4342
L92939 4464
L92915 4513
L92890 4537
L92842 4562
L92720 4562
L92671 4537
L92647 4513
" />
</g><text x="112204.724409" y="4586.614173"
textLength="547.440945" font-size="682.401575" lengthAdjust="spacingAndGlyphs"
text-anchor="start" opacity="0">6</text>
<g class="stroked-text"><desc>6</desc>
<path d="M112575 4050
L112478 4050
L112429 4074
L112405 4099
L112356 4172
L112332 4269
L112332 4464
L112356 4513
L112380 4537
L112429 4562
L112527 4562
L112575 4537
L112600 4513
L112624 4464
L112624 4342
L112600 4294
L112575 4269
L112527 4245
L112429 4245
L112380 4269
L112356 4294
L112332 4342
" />
</g><path d="M23622 77955
L23622 78742
" />
<path d="M43307 77955
L43307 78742
" />
<path d="M62992 77955
L62992 78742
" />
<path d="M82677 77955
L82677 78742
" />
<path d="M102362 77955
L102362 78742
" />
<text x="13779.527559" y="78605.196850"
textLength="547.440945" font-size="682.401575" lengthAdjust="spacingAndGlyphs"
text-anchor="start" opacity="0">1</text>
<g class="stroked-text"><desc>1</desc>
<path d="M14199 78580
L13907 78580
" />
<path d="M14053 78580
L14053 78068
L14004 78142
L13955 78190
L13907 78215
" />
</g><text x="33464.566929" y="78605.196850"
textLength="547.440945" font-size="682.401575" lengthAdjust="spacingAndGlyphs"
text-anchor="start" opacity="0">2</text>
<g class="stroked-text"><desc>2</desc>
<path d="M33592 78117
L33616 78093
L33665 78068
L33787 78068
L33835 78093
L33860 78117
L33884 78166
L33884 78215
L33860 78288
L33567 78580
L33884 78580
" />
</g><text x="53149.606299" y="78605.196850"
textLength="547.440945" font-size="682.401575" lengthAdjust="spacingAndGlyphs"
text-anchor="start" opacity="0">3</text>
<g class="stroked-text"><desc>3</desc>
<path d="M53252 78068
L53569 78068
L53398 78263
L53472 78263
L53520 78288
L53545 78312
L53569 78361
L53569 78483
L53545 78532
L53520 78556
L53472 78580
L53325 78580
L53277 78556
L53252 78532
" />
</g><text x="72834.645669" y="78605.196850"
textLength="547.440945" font-size="682.401575" lengthAdjust="spacingAndGlyphs"
text-anchor="start" opacity="0">4</text>
<g class="stroked-text"><desc>4</desc>
<path d="M73205 78239
L73205 78580
" />
<path d="M73083 78044
L72962 78410
L73278 78410
" />
</g><text x="92519.685039" y="78605.196850"
textLength="547.440945" font-size="682.401575" lengthAdjust="spacingAndGlyphs"
text-anchor="start" opacity="0">5</text>
<g class="stroked-text"><desc>5</desc>
<path d="M92915 78068
L92671 78068
L92647 78312
L92671 78288
L92720 78263
L92842 78263
L92890 78288
L92915 78312
L92939 78361
L92939 78483
L92915 78532
L92890 78556
L92842 78580
L92720 78580
L92671 78556
L92647 78532
" />
</g><text x="112204.724409" y="78605.196850"
textLength="547.440945" font-size="682.401575" lengthAdjust="spacingAndGlyphs"
text-anchor="start" opacity="0">6</text>
<g class="stroked-text"><desc>6</desc>
<path d="M112575 78068
L112478 78068
L112429 78093
L112405 78117
L112356 78190
L112332 78288
L112332 78483
L112356 78532
L112380 78556
L112429 78580
L112527 78580
L112575 78556
L112600 78532
L112624 78483
L112624 78361
L112600 78312
L112575 78288
L112527 78263
L112429 78263
L112380 78288
L112356 78312
L112332 78361
" />
</g><path d="M3937 23622
L4724 23622
" />
<path d="M3937 43307
L4724 43307
" />
<path d="M3937 62992
L4724 62992
" />
<text x="4330.708661" y="14035.433071"
textLength="498.700787" font-size="682.401575" lengthAdjust="spacingAndGlyphs"
text-anchor="middle" opacity="0">A</text>
<g class="stroked-text"><desc>A</desc>
<path d="M4208 13864
L4452 13864
" />
<path d="M4160 14011
L4330 13499
L4501 14011
" />
</g><text x="4330.708661" y="33720.472441"
textLength="571.811024" font-size="682.401575" lengthAdjust="spacingAndGlyphs"
text-anchor="middle" opacity="0">B</text>
<g class="stroked-text"><desc>B</desc>
<path d="M4367 33427
L4440 33452
L4464 33476
L4489 33525
L4489 33598
L4464 33647
L4440 33671
L4391 33696
L4196 33696
L4196 33184
L4367 33184
L4415 33208
L4440 33233
L4464 33281
L4464 33330
L4440 33379
L4415 33403
L4367 33427
L4196 33427
" />
</g><text x="4330.708661" y="53405.511811"
textLength="571.811024" font-size="682.401575" lengthAdjust="spacingAndGlyphs"
text-anchor="middle" opacity="0">C</text>
<g class="stroked-text"><desc>C</desc>
<path d="M4489 53332
L4464 53356
L4391 53381
L4342 53381
L4269 53356
L4221 53307
L4196 53259
L4172 53161
L4172 53088
L4196 52991
L4221 52942
L4269 52893
L4342 52869
L4391 52869
L4464 52893
L4489 52918
" />
</g><text x="4330.708661" y="73090.551181"
textLength="571.811024" font-size="682.401575" lengthAdjust="spacingAndGlyphs"
text-anchor="middle" opacity="0">D</text>
<g class="stroked-text"><desc>D</desc>
<path d="M4196 73066
L4196 72554
L4318 72554
L4391 72578
L4440 72627
L4464 72676
L4489 72773
L4489 72846
L4464 72944
L4440 72993
L4391 73041
L4318 73066
L4196 73066
" />
</g><path d="M112992 23622
L112205 23622
" />
<path d="M112992 43307
L112205 43307
" />
<path d="M112992 62992
L112205 62992
" />
<text x="112599.291339" y="14035.433071"
textLength="498.700787" font-size="682.401575" lengthAdjust="spacingAndGlyphs"
text-anchor="middle" opacity="0">A</text>
<g class="stroked-text"><desc>A</desc>
<path d="M112477 13864
L112721 13864
" />
<path d="M112428 14011
L112599 13499
L112769 14011
" />
</g><text x="112599.291339" y="33720.472441"
textLength="571.811024" font-size="682.401575" lengthAdjust="spacingAndGlyphs"
text-anchor="middle" opacity="0">B</text>
<g class="stroked-text"><desc>B</desc>
<path d="M112635 33427
L112708 33452
L112733 33476
L112757 33525
L112757 33598
L112733 33647
L112708 33671
L112660 33696
L112465 33696
L112465 33184
L112635 33184
L112684 33208
L112708 33233
L112733 33281
L112733 33330
L112708 33379
L112684 33403
L112635 33427
L112465 33427
" />
</g><text x="112599.291339" y="53405.511811"
textLength="571.811024" font-size="682.401575" lengthAdjust="spacingAndGlyphs"
text-anchor="middle" opacity="0">C</text>
<g class="stroked-text"><desc>C</desc>
<path d="M112757 53332
L112733 53356
L112660 53381
L112611 53381
L112538 53356
L112489 53307
L112465 53259
L112440 53161
L112440 53088
L112465 52991
L112489 52942
L112538 52893
L112611 52869
L112660 52869
L112733 52893
L112757 52918
" />
</g><text x="112599.291339" y="73090.551181"
textLength="571.811024" font-size="682.401575" lengthAdjust="spacingAndGlyphs"
text-anchor="middle" opacity="0">D</text>
<g class="stroked-text"><desc>D</desc>
<path d="M112465 73066
L112465 72554
L112587 72554
L112660 72578
L112708 72627
L112733 72676
L112757 72773
L112757 72846
L112733 72944
L112708 72993
L112660 73041
L112587 73066
L112465 73066
" />
</g><text x="78741.023622" y="76321.732283"
textLength="8721.417323" font-size="787.401575" lengthAdjust="spacingAndGlyphs"
text-anchor="start" opacity="0">Date: 2022-11-20</text>
<g class="stroked-text"><desc>Date: 2022-11-20</desc>
<path d="M78911 76293
L78911 75703
L79052 75703
L79136 75731
L79192 75787
L79220 75843
L79249 75956
L79249 76040
L79220 76152
L79192 76209
L79136 76265
L79052 76293
L78911 76293
" />
<path d="M79755 76293
L79755 75984
L79727 75928
L79670 75899
L79558 75899
L79502 75928
" />
<path d="M79755 76265
L79699 76293
L79558 76293
L79502 76265
L79474 76209
L79474 76152
L79502 76096
L79558 76068
L79699 76068
L79755 76040
" />
<path d="M79952 75899
L80177 75899
" />
<path d="M80036 75703
L80036 76209
L80064 76265
L80120 76293
L80177 76293
" />
<path d="M80598 76265
L80542 76293
L80430 76293
L80373 76265
L80345 76209
L80345 75984
L80373 75928
L80430 75899
L80542 75899
L80598 75928
L80627 75984
L80627 76040
L80345 76096
" />
<path d="M80880 76237
L80908 76265
L80880 76293
L80852 76265
L80880 76237
L80880 76293
" />
<path d="M80880 75928
L80908 75956
L80880 75984
L80852 75956
L80880 75928
L80880 75984
" />
<path d="M81583 75759
L81611 75731
L81667 75703
L81808 75703
L81864 75731
L81892 75759
L81920 75815
L81920 75871
L81892 75956
L81555 76293
L81920 76293
" />
<path d="M82286 75703
L82342 75703
L82398 75731
L82426 75759
L82454 75815
L82483 75928
L82483 76068
L82454 76181
L82426 76237
L82398 76265
L82342 76293
L82286 76293
L82229 76265
L82201 76237
L82173 76181
L82145 76068
L82145 75928
L82173 75815
L82201 75759
L82229 75731
L82286 75703
" />
<path d="M82708 75759
L82736 75731
L82792 75703
L82932 75703
L82989 75731
L83017 75759
L83045 75815
L83045 75871
L83017 75956
L82679 76293
L83045 76293
" />
<path d="M83270 75759
L83298 75731
L83354 75703
L83495 75703
L83551 75731
L83579 75759
L83607 75815
L83607 75871
L83579 75956
L83242 76293
L83607 76293
" />
<path d="M83860 76068
L84310 76068
" />
<path d="M84901 76293
L84564 76293
" />
<path d="M84732 76293
L84732 75703
L84676 75787
L84620 75843
L84564 75871
" />
<path d="M85463 76293
L85126 76293
" />
<path d="M85295 76293
L85295 75703
L85238 75787
L85182 75843
L85126 75871
" />
<path d="M85717 76068
L86166 76068
" />
<path d="M86420 75759
L86448 75731
L86504 75703
L86645 75703
L86701 75731
L86729 75759
L86757 75815
L86757 75871
L86729 75956
L86391 76293
L86757 76293
" />
<path d="M87123 75703
L87179 75703
L87235 75731
L87263 75759
L87291 75815
L87319 75928
L87319 76068
L87291 76181
L87263 76237
L87235 76265
L87179 76293
L87123 76293
L87066 76265
L87038 76237
L87010 76181
L86982 76068
L86982 75928
L87010 75815
L87038 75759
L87066 75731
L87123 75703
" />
</g><path d="M69685 76577
L112205 76577
" />
<text x="70079.606299" y="77424.094488"
textLength="11449.212598" font-size="787.401575" lengthAdjust="spacingAndGlyphs"
text-anchor="start" opacity="0">KiCad E.D.A.  kicad 6.0.9</text>
<g class="stroked-text"><desc>KiCad E.D.A.  kicad 6.0.9</desc>
<path d="M70250 77395
L70250 76805
" />
<path d="M70587 77395
L70334 77058
" />
<path d="M70587 76805
L70250 77142
" />
<path d="M70840 77395
L70840 77002
" />
<path d="M70840 76805
L70812 76833
L70840 76861
L70868 76833
L70840 76805
L70840 76861
" />
<path d="M71459 77339
L71431 77367
L71346 77395
L71290 77395
L71206 77367
L71150 77311
L71121 77255
L71093 77142
L71093 77058
L71121 76946
L71150 76889
L71206 76833
L71290 76805
L71346 76805
L71431 76833
L71459 76861
" />
<path d="M71965 77395
L71965 77086
L71937 77030
L71881 77002
L71768 77002
L71712 77030
" />
<path d="M71965 77367
L71909 77395
L71768 77395
L71712 77367
L71684 77311
L71684 77255
L71712 77199
L71768 77170
L71909 77170
L71965 77142
" />
<path d="M72499 77395
L72499 76805
" />
<path d="M72499 77367
L72443 77395
L72331 77395
L72274 77367
L72246 77339
L72218 77283
L72218 77114
L72246 77058
L72274 77030
L72331 77002
L72443 77002
L72499 77030
" />
<path d="M73231 77086
L73427 77086
" />
<path d="M73512 77395
L73231 77395
L73231 76805
L73512 76805
" />
<path d="M73765 77339
L73793 77367
L73765 77395
L73737 77367
L73765 77339
L73765 77395
" />
<path d="M74046 77395
L74046 76805
L74187 76805
L74271 76833
L74327 76889
L74355 76946
L74384 77058
L74384 77142
L74355 77255
L74327 77311
L74271 77367
L74187 77395
L74046 77395
" />
<path d="M74637 77339
L74665 77367
L74637 77395
L74609 77367
L74637 77339
L74637 77395
" />
<path d="M74890 77227
L75171 77227
" />
<path d="M74834 77395
L75030 76805
L75227 77395
" />
<path d="M75424 77339
L75452 77367
L75424 77395
L75396 77367
L75424 77339
L75424 77395
" />
<path d="M76605 77395
L76605 76805
" />
<path d="M76661 77170
L76830 77395
" />
<path d="M76830 77002
L76605 77227
" />
<path d="M77083 77395
L77083 77002
" />
<path d="M77083 76805
L77055 76833
L77083 76861
L77111 76833
L77083 76805
L77083 76861
" />
<path d="M77618 77367
L77561 77395
L77449 77395
L77393 77367
L77364 77339
L77336 77283
L77336 77114
L77364 77058
L77393 77030
L77449 77002
L77561 77002
L77618 77030
" />
<path d="M78124 77395
L78124 77086
L78096 77030
L78039 77002
L77927 77002
L77871 77030
" />
<path d="M78124 77367
L78067 77395
L77927 77395
L77871 77367
L77842 77311
L77842 77255
L77871 77199
L77927 77170
L78067 77170
L78124 77142
" />
<path d="M78658 77395
L78658 76805
" />
<path d="M78658 77367
L78602 77395
L78489 77395
L78433 77367
L78405 77339
L78377 77283
L78377 77114
L78405 77058
L78433 77030
L78489 77002
L78602 77002
L78658 77030
" />
<path d="M79642 76805
L79530 76805
L79474 76833
L79445 76861
L79389 76946
L79361 77058
L79361 77283
L79389 77339
L79417 77367
L79474 77395
L79586 77395
L79642 77367
L79670 77339
L79699 77283
L79699 77142
L79670 77086
L79642 77058
L79586 77030
L79474 77030
L79417 77058
L79389 77086
L79361 77142
" />
<path d="M79952 77339
L79980 77367
L79952 77395
L79923 77367
L79952 77339
L79952 77395
" />
<path d="M80345 76805
L80402 76805
L80458 76833
L80486 76861
L80514 76917
L80542 77030
L80542 77170
L80514 77283
L80486 77339
L80458 77367
L80402 77395
L80345 77395
L80289 77367
L80261 77339
L80233 77283
L80205 77170
L80205 77030
L80233 76917
L80261 76861
L80289 76833
L80345 76805
" />
<path d="M80795 77339
L80823 77367
L80795 77395
L80767 77367
L80795 77339
L80795 77395
" />
<path d="M81105 77395
L81217 77395
L81273 77367
L81301 77339
L81358 77255
L81386 77142
L81386 76917
L81358 76861
L81330 76833
L81273 76805
L81161 76805
L81105 76833
L81076 76861
L81048 76917
L81048 77058
L81076 77114
L81105 77142
L81161 77170
L81273 77170
L81330 77142
L81358 77114
L81386 77058
" />
</g><path d="M69685 75396
L112205 75396
" />
</g>
<g style="fill:#840000; fill-opacity:0.0; 
stroke:#840000; stroke-width:118.110236; stroke-opacity:1; 
stroke-linecap:round; stroke-linejoin:round;">
<text x="103544.173228" y="76321.732283"
textLength="3743.897638" font-size="787.401575" lengthAdjust="spacingAndGlyphs"
text-anchor="start" opacity="0">Rev: 1.2</text>
<g class="stroked-text"><desc>Rev: 1.2</desc>
<path d="M104098 76293
L103902 76012
" />
<path d="M103761 76293
L103761 75703
L103986 75703
L104042 75731
L104070 75759
L104098 75815
L104098 75899
L104070 75956
L104042 75984
L103986 76012
L103761 76012
" />
<path d="M104577 76265
L104520 76293
L104408 76293
L104352 76265
L104323 76209
L104323 75984
L104352 75928
L104408 75899
L104520 75899
L104577 75928
L104605 75984
L104605 76040
L104323 76096
" />
<path d="M104802 75899
L104942 76293
L105083 75899
" />
<path d="M105308 76237
L105336 76265
L105308 76293
L105280 76265
L105308 76237
L105308 76293
" />
<path d="M105308 75928
L105336 75956
L105308 75984
L105280 75956
L105308 75928
L105308 75984
" />
<path d="M106348 76293
L106011 76293
" />
<path d="M106180 76293
L106180 75703
L106123 75787
L106067 75843
L106011 75871
" />
<path d="M106601 76237
L106629 76265
L106601 76293
L106573 76265
L106601 76237
L106601 76293
" />
<path d="M106854 75759
L106883 75731
L106939 75703
L107079 75703
L107136 75731
L107164 75759
L107192 75815
L107192 75871
L107164 75956
L106826 76293
L107192 76293
" />
</g></g>
<g style="fill:#840000; fill-opacity:0.0; 
stroke:#840000; stroke-width:60.000000; stroke-opacity:1; 
stroke-linecap:round; stroke-linejoin:round;">
<text x="70079.606299" y="76321.732283"
textLength="3781.220472" font-size="787.401575" lengthAdjust="spacingAndGlyphs"
text-anchor="start" opacity="0">Size: A4</text>
<g class="stroked-text"><desc>Size: A4</desc>
<path d="M70222 76265
L70306 76293
L70447 76293
L70503 76265
L70531 76237
L70559 76181
L70559 76124
L70531 76068
L70503 76040
L70447 76012
L70334 75984
L70278 75956
L70250 75928
L70222 75871
L70222 75815
L70250 75759
L70278 75731
L70334 75703
L70475 75703
L70559 75731
" />
<path d="M70812 76293
L70812 75899
" />
<path d="M70812 75703
L70784 75731
L70812 75759
L70840 75731
L70812 75703
L70812 75759
" />
<path d="M71037 75899
L71346 75899
L71037 76293
L71346 76293
" />
<path d="M71796 76265
L71740 76293
L71628 76293
L71571 76265
L71543 76209
L71543 75984
L71571 75928
L71628 75899
L71740 75899
L71796 75928
L71825 75984
L71825 76040
L71543 76096
" />
<path d="M72078 76237
L72106 76265
L72078 76293
L72049 76265
L72078 76237
L72078 76293
" />
<path d="M72078 75928
L72106 75956
L72078 75984
L72049 75956
L72078 75928
L72078 75984
" />
<path d="M72781 76124
L73062 76124
" />
<path d="M72724 76293
L72921 75703
L73118 76293
" />
<path d="M73568 75899
L73568 76293
" />
<path d="M73427 75674
L73287 76096
L73652 76096
" />
</g><text x="103544.173228" y="77424.094488"
textLength="3912.637795" font-size="787.401575" lengthAdjust="spacingAndGlyphs"
text-anchor="start" opacity="0">Id: 7/10</text>
<g class="stroked-text"><desc>Id: 7/10</desc>
<path d="M103714 77395
L103714 76805
" />
<path d="M104249 77395
L104249 76805
" />
<path d="M104249 77367
L104192 77395
L104080 77395
L104024 77367
L103995 77339
L103967 77283
L103967 77114
L103995 77058
L104024 77030
L104080 77002
L104192 77002
L104249 77030
" />
<path d="M104530 77339
L104558 77367
L104530 77395
L104502 77367
L104530 77339
L104530 77395
" />
<path d="M104530 77030
L104558 77058
L104530 77086
L104502 77058
L104530 77030
L104530 77086
" />
<path d="M105205 76805
L105598 76805
L105345 77395
" />
<path d="M106245 76777
L105739 77536
" />
<path d="M106751 77395
L106414 77395
" />
<path d="M106583 77395
L106583 76805
L106526 76889
L106470 76946
L106414 76974
" />
<path d="M107117 76805
L107173 76805
L107229 76833
L107258 76861
L107286 76917
L107314 77030
L107314 77170
L107286 77283
L107258 77339
L107229 77367
L107173 77395
L107117 77395
L107061 77367
L107033 77339
L107004 77283
L106976 77170
L106976 77030
L107004 76917
L107033 76861
L107061 76833
L107117 76805
" />
</g><path d="M69685 73821
L112205 73821
" />
</g>
<g style="fill:#840000; fill-opacity:0.0; 
stroke:#840000; stroke-width:157.480315; stroke-opacity:1; 
stroke-linecap:round; stroke-linejoin:round;">
<text x="70079.606299" y="74924.094488"
textLength="14241.692913" font-size="1049.842520" lengthAdjust="spacingAndGlyphs"
text-anchor="start" opacity="0">Title: biym-board-gpio</text>
<g class="stroked-text"><desc>Title: biym-board-gpio</desc>
<path d="M70360 74099
L70810 74099
" />
<path d="M70486 74886
L70585 74099
" />
<path d="M70974 74886
L71039 74361
" />
<path d="M71072 74099
L71030 74136
L71063 74174
L71105 74136
L71072 74099
L71063 74174
" />
<path d="M71302 74361
L71602 74361
" />
<path d="M71447 74099
L71363 74774
L71391 74849
L71461 74886
L71536 74886
" />
<path d="M71911 74886
L71841 74849
L71812 74774
L71897 74099
" />
<path d="M72516 74849
L72436 74886
L72286 74886
L72216 74849
L72187 74774
L72225 74474
L72272 74399
L72352 74361
L72501 74361
L72572 74399
L72600 74474
L72591 74549
L72206 74624
" />
<path d="M72895 74811
L72928 74849
L72886 74886
L72853 74849
L72895 74811
L72886 74886
" />
<path d="M72947 74399
L72980 74436
L72937 74474
L72905 74436
L72947 74399
L72937 74474
" />
<path d="M73861 74886
L73959 74099
" />
<path d="M73922 74399
L74001 74361
L74151 74361
L74222 74399
L74254 74436
L74282 74511
L74254 74736
L74207 74811
L74165 74849
L74086 74886
L73936 74886
L73865 74849
" />
<path d="M74573 74886
L74639 74361
" />
<path d="M74672 74099
L74629 74136
L74662 74174
L74704 74136
L74672 74099
L74662 74174
" />
<path d="M74939 74361
L75061 74886
" />
<path d="M75314 74361
L75061 74886
L74962 75074
L74920 75111
L74840 75149
" />
<path d="M75548 74886
L75614 74361
" />
<path d="M75604 74436
L75646 74399
L75726 74361
L75839 74361
L75909 74399
L75937 74474
L75885 74886
" />
<path d="M75937 74474
L75984 74399
L76064 74361
L76176 74361
L76246 74399
L76274 74474
L76223 74886
" />
<path d="M76635 74586
L77235 74586
" />
<path d="M77573 74886
L77671 74099
" />
<path d="M77634 74399
L77713 74361
L77863 74361
L77934 74399
L77966 74436
L77995 74511
L77966 74736
L77920 74811
L77877 74849
L77798 74886
L77648 74886
L77577 74849
" />
<path d="M78398 74886
L78327 74849
L78295 74811
L78266 74736
L78295 74511
L78341 74436
L78384 74399
L78463 74361
L78576 74361
L78646 74399
L78679 74436
L78707 74511
L78679 74736
L78632 74811
L78590 74849
L78510 74886
L78398 74886
" />
<path d="M79335 74886
L79387 74474
L79358 74399
L79288 74361
L79138 74361
L79058 74399
" />
<path d="M79340 74849
L79260 74886
L79073 74886
L79002 74849
L78974 74774
L78983 74699
L79030 74624
L79110 74586
L79297 74586
L79377 74549
" />
<path d="M79710 74886
L79776 74361
" />
<path d="M79757 74511
L79804 74436
L79846 74399
L79926 74361
L80001 74361
" />
<path d="M80535 74886
L80633 74099
" />
<path d="M80540 74849
L80460 74886
L80310 74886
L80240 74849
L80207 74811
L80179 74736
L80207 74511
L80254 74436
L80296 74399
L80375 74361
L80525 74361
L80596 74399
" />
<path d="M80947 74586
L81547 74586
" />
<path d="M82288 74361
L82208 74999
L82161 75074
L82119 75111
L82039 75149
L81927 75149
L81857 75111
" />
<path d="M82227 74849
L82147 74886
L81997 74886
L81927 74849
L81894 74811
L81866 74736
L81894 74511
L81941 74436
L81983 74399
L82063 74361
L82213 74361
L82283 74399
" />
<path d="M82663 74361
L82564 75149
" />
<path d="M82658 74399
L82738 74361
L82888 74361
L82958 74399
L82991 74436
L83019 74511
L82991 74736
L82944 74811
L82902 74849
L82822 74886
L82672 74886
L82602 74849
" />
<path d="M83310 74886
L83375 74361
" />
<path d="M83408 74099
L83366 74136
L83399 74174
L83441 74136
L83408 74099
L83399 74174
" />
<path d="M83797 74886
L83727 74849
L83694 74811
L83666 74736
L83694 74511
L83741 74436
L83783 74399
L83863 74361
L83975 74361
L84045 74399
L84078 74436
L84106 74511
L84078 74736
L84031 74811
L83989 74849
L83909 74886
L83797 74886
" />
</g></g>
<g style="fill:#840000; fill-opacity:0.0; 
stroke:#840000; stroke-width:60.000000; stroke-opacity:1; 
stroke-linecap:round; stroke-linejoin:round;">
<text x="70079.606299" y="73408.346457"
textLength="9006.732283" font-size="787.401575" lengthAdjust="spacingAndGlyphs"
text-anchor="start" opacity="0">File: gpio.kicad_sch</text>
<g class="stroked-text"><desc>File: gpio.kicad_sch</desc>
<path d="M70447 73070
L70250 73070
" />
<path d="M70250 73380
L70250 72789
L70531 72789
" />
<path d="M70756 73380
L70756 72986
" />
<path d="M70756 72789
L70728 72817
L70756 72845
L70784 72817
L70756 72789
L70756 72845
" />
<path d="M71121 73380
L71065 73352
L71037 73295
L71037 72789
" />
<path d="M71571 73352
L71515 73380
L71403 73380
L71346 73352
L71318 73295
L71318 73070
L71346 73014
L71403 72986
L71515 72986
L71571 73014
L71600 73070
L71600 73127
L71318 73183
" />
<path d="M71853 73323
L71881 73352
L71853 73380
L71825 73352
L71853 73323
L71853 73380
" />
<path d="M71853 73014
L71881 73042
L71853 73070
L71825 73042
L71853 73014
L71853 73070
" />
<path d="M72837 72986
L72837 73464
L72809 73520
L72781 73548
L72724 73577
L72640 73577
L72584 73548
" />
<path d="M72837 73352
L72781 73380
L72668 73380
L72612 73352
L72584 73323
L72556 73267
L72556 73098
L72584 73042
L72612 73014
L72668 72986
L72781 72986
L72837 73014
" />
<path d="M73118 72986
L73118 73577
" />
<path d="M73118 73014
L73174 72986
L73287 72986
L73343 73014
L73371 73042
L73399 73098
L73399 73267
L73371 73323
L73343 73352
L73287 73380
L73174 73380
L73118 73352
" />
<path d="M73652 73380
L73652 72986
" />
<path d="M73652 72789
L73624 72817
L73652 72845
L73681 72817
L73652 72789
L73652 72845
" />
<path d="M74018 73380
L73962 73352
L73934 73323
L73905 73267
L73905 73098
L73934 73042
L73962 73014
L74018 72986
L74102 72986
L74159 73014
L74187 73042
L74215 73098
L74215 73267
L74187 73323
L74159 73352
L74102 73380
L74018 73380
" />
<path d="M74468 73323
L74496 73352
L74468 73380
L74440 73352
L74468 73323
L74468 73380
" />
<path d="M74749 73380
L74749 72789
" />
<path d="M74805 73155
L74974 73380
" />
<path d="M74974 72986
L74749 73211
" />
<path d="M75227 73380
L75227 72986
" />
<path d="M75227 72789
L75199 72817
L75227 72845
L75255 72817
L75227 72789
L75227 72845
" />
<path d="M75762 73352
L75705 73380
L75593 73380
L75537 73352
L75508 73323
L75480 73267
L75480 73098
L75508 73042
L75537 73014
L75593 72986
L75705 72986
L75762 73014
" />
<path d="M76268 73380
L76268 73070
L76240 73014
L76183 72986
L76071 72986
L76015 73014
" />
<path d="M76268 73352
L76211 73380
L76071 73380
L76015 73352
L75986 73295
L75986 73239
L76015 73183
L76071 73155
L76211 73155
L76268 73127
" />
<path d="M76802 73380
L76802 72789
" />
<path d="M76802 73352
L76746 73380
L76633 73380
L76577 73352
L76549 73323
L76521 73267
L76521 73098
L76549 73042
L76577 73014
L76633 72986
L76746 72986
L76802 73014
" />
<path d="M76943 73436
L77393 73436
" />
<path d="M77505 73352
L77561 73380
L77674 73380
L77730 73352
L77758 73295
L77758 73267
L77730 73211
L77674 73183
L77589 73183
L77533 73155
L77505 73098
L77505 73070
L77533 73014
L77589 72986
L77674 72986
L77730 73014
" />
<path d="M78264 73352
L78208 73380
L78096 73380
L78039 73352
L78011 73323
L77983 73267
L77983 73098
L78011 73042
L78039 73014
L78096 72986
L78208 72986
L78264 73014
" />
<path d="M78517 73380
L78517 72789
" />
<path d="M78771 73380
L78771 73070
L78742 73014
L78686 72986
L78602 72986
L78546 73014
L78517 73042
" />
</g><path d="M69685 71459
L112205 71459
" />
<text x="70079.606299" y="72345.354331"
textLength="6359.212598" font-size="787.401575" lengthAdjust="spacingAndGlyphs"
text-anchor="start" opacity="0">Sheet: /gpio/</text>
<g class="stroked-text"><desc>Sheet: /gpio/</desc>
<path d="M70222 72289
L70306 72317
L70447 72317
L70503 72289
L70531 72260
L70559 72204
L70559 72148
L70531 72092
L70503 72064
L70447 72035
L70334 72007
L70278 71979
L70250 71951
L70222 71895
L70222 71839
L70250 71782
L70278 71754
L70334 71726
L70475 71726
L70559 71754
" />
<path d="M70812 72317
L70812 71726
" />
<path d="M71065 72317
L71065 72007
L71037 71951
L70981 71923
L70897 71923
L70840 71951
L70812 71979
" />
<path d="M71571 72289
L71515 72317
L71403 72317
L71346 72289
L71318 72232
L71318 72007
L71346 71951
L71403 71923
L71515 71923
L71571 71951
L71600 72007
L71600 72064
L71318 72120
" />
<path d="M72078 72289
L72021 72317
L71909 72317
L71853 72289
L71825 72232
L71825 72007
L71853 71951
L71909 71923
L72021 71923
L72078 71951
L72106 72007
L72106 72064
L71825 72120
" />
<path d="M72274 71923
L72499 71923
" />
<path d="M72359 71726
L72359 72232
L72387 72289
L72443 72317
L72499 72317
" />
<path d="M72696 72260
L72724 72289
L72696 72317
L72668 72289
L72696 72260
L72696 72317
" />
<path d="M72696 71951
L72724 71979
L72696 72007
L72668 71979
L72696 71951
L72696 72007
" />
<path d="M73849 71698
L73343 72457
" />
<path d="M74299 71923
L74299 72401
L74271 72457
L74243 72485
L74187 72514
L74102 72514
L74046 72485
" />
<path d="M74299 72289
L74243 72317
L74130 72317
L74074 72289
L74046 72260
L74018 72204
L74018 72035
L74046 71979
L74074 71951
L74130 71923
L74243 71923
L74299 71951
" />
<path d="M74580 71923
L74580 72514
" />
<path d="M74580 71951
L74637 71923
L74749 71923
L74805 71951
L74834 71979
L74862 72035
L74862 72204
L74834 72260
L74805 72289
L74749 72317
L74637 72317
L74580 72289
" />
<path d="M75115 72317
L75115 71923
" />
<path d="M75115 71726
L75087 71754
L75115 71782
L75143 71754
L75115 71726
L75115 71782
" />
<path d="M75480 72317
L75424 72289
L75396 72260
L75368 72204
L75368 72035
L75396 71979
L75424 71951
L75480 71923
L75565 71923
L75621 71951
L75649 71979
L75677 72035
L75677 72204
L75649 72260
L75621 72289
L75565 72317
L75480 72317
" />
<path d="M76352 71698
L75846 72457
" />
</g></g>
<g style="fill:#840000; fill-opacity:0.0; 
stroke:#840000; stroke-width:118.110236; stroke-opacity:1; 
stroke-linecap:round; stroke-linejoin:round;">
<text x="70079.606299" y="71164.251969"
textLength="6499.803150" font-size="787.401575" lengthAdjust="spacingAndGlyphs"
text-anchor="start" opacity="0">Peter Polidoro</text>
<g class="stroked-text"><desc>Peter Polidoro</desc>
<path d="M70296 71136
L70296 70545
L70521 70545
L70578 70573
L70606 70601
L70634 70658
L70634 70742
L70606 70798
L70578 70826
L70521 70854
L70296 70854
" />
<path d="M71112 71107
L71056 71136
L70943 71136
L70887 71107
L70859 71051
L70859 70826
L70887 70770
L70943 70742
L71056 70742
L71112 70770
L71140 70826
L71140 70883
L70859 70939
" />
<path d="M71309 70742
L71534 70742
" />
<path d="M71393 70545
L71393 71051
L71421 71107
L71478 71136
L71534 71136
" />
<path d="M71956 71107
L71899 71136
L71787 71136
L71731 71107
L71703 71051
L71703 70826
L71731 70770
L71787 70742
L71899 70742
L71956 70770
L71984 70826
L71984 70883
L71703 70939
" />
<path d="M72237 71136
L72237 70742
" />
<path d="M72237 70854
L72265 70798
L72293 70770
L72349 70742
L72406 70742
" />
<path d="M73052 71136
L73052 70545
L73277 70545
L73334 70573
L73362 70601
L73390 70658
L73390 70742
L73362 70798
L73334 70826
L73277 70854
L73052 70854
" />
<path d="M73727 71136
L73671 71107
L73643 71079
L73615 71023
L73615 70854
L73643 70798
L73671 70770
L73727 70742
L73812 70742
L73868 70770
L73896 70798
L73924 70854
L73924 71023
L73896 71079
L73868 71107
L73812 71136
L73727 71136
" />
<path d="M74262 71136
L74205 71107
L74177 71051
L74177 70545
" />
<path d="M74487 71136
L74487 70742
" />
<path d="M74487 70545
L74458 70573
L74487 70601
L74515 70573
L74487 70545
L74487 70601
" />
<path d="M75021 71136
L75021 70545
" />
<path d="M75021 71107
L74965 71136
L74852 71136
L74796 71107
L74768 71079
L74740 71023
L74740 70854
L74768 70798
L74796 70770
L74852 70742
L74965 70742
L75021 70770
" />
<path d="M75386 71136
L75330 71107
L75302 71079
L75274 71023
L75274 70854
L75302 70798
L75330 70770
L75386 70742
L75471 70742
L75527 70770
L75555 70798
L75583 70854
L75583 71023
L75555 71079
L75527 71107
L75471 71136
L75386 71136
" />
<path d="M75836 71136
L75836 70742
" />
<path d="M75836 70854
L75865 70798
L75893 70770
L75949 70742
L76005 70742
" />
<path d="M76286 71136
L76230 71107
L76202 71079
L76174 71023
L76174 70854
L76202 70798
L76230 70770
L76286 70742
L76371 70742
L76427 70770
L76455 70798
L76483 70854
L76483 71023
L76455 71079
L76427 71107
L76371 71136
L76286 71136
" />
</g></g>
<g style="fill:#840000; fill-opacity:0.0; 
stroke:#840000; stroke-width:60.000000; stroke-opacity:1; 
stroke-linecap:round; stroke-linejoin:round;">
<text x="70079.606299" y="69983.149606"
textLength="153.543307" font-size="787.401575" lengthAdjust="spacingAndGlyphs"
text-anchor="start" opacity="0"></text>
<g class="stroked-text"><desc></desc>
</g><text x="70079.606299" y="68802.047244"
textLength="60.000000" font-size="787.401575" lengthAdjust="spacingAndGlyphs"
text-anchor="start" opacity="0"></text>
<g class="stroked-text"><desc></desc>
</g><text x="70079.606299" y="67620.944882"
textLength="60.000000" font-size="787.401575" lengthAdjust="spacingAndGlyphs"
text-anchor="start" opacity="0"></text>
<g class="stroked-text"><desc></desc>
</g><text x="70079.606299" y="66439.842520"
textLength="60.000000" font-size="787.401575" lengthAdjust="spacingAndGlyphs"
text-anchor="start" opacity="0"></text>
<g class="stroked-text"><desc></desc>
</g><path d="M77559 75396
L77559 76577
" />
<path d="M102756 75396
L102756 77955
" />
<g >
<rect x="55500.000000" y="35500.000000" width="1000.000000" height="3000.000000" rx="0.000000" />
<path style="fill:#840000; fill-opacity:0.0; 
stroke:#840000; stroke-width:60.000000; stroke-opacity:1; 
stroke-linecap:round; stroke-linejoin:round;fill:none"
d="M 55500.000000,36000.000000
55660.000000,36000.000000
" /> 
<path style="fill:#840000; fill-opacity:0.0; 
stroke:#840000; stroke-width:60.000000; stroke-opacity:1; 
stroke-linecap:round; stroke-linejoin:round;fill:none"
d="M 55500.000000,37000.000000
55660.000000,37000.000000
" /> 
<path style="fill:#840000; fill-opacity:0.0; 
stroke:#840000; stroke-width:60.000000; stroke-opacity:1; 
stroke-linecap:round; stroke-linejoin:round;fill:none"
d="M 55500.000000,38000.000000
55660.000000,38000.000000
" /> 
</g>
<g style="fill:#840000; fill-opacity:1.0; 
stroke:#840000; stroke-width:60.000000; stroke-opacity:1; 
stroke-linecap:round; stroke-linejoin:round;">
<rect x="55660.000000" y="35950.000000" width="340.000000" height="100.000000" rx="0.000000" />
<rect x="55660.000000" y="36950.000000" width="340.000000" height="100.000000" rx="0.000000" />
<rect x="55660.000000" y="37950.000000" width="340.000000" height="100.000000" rx="0.000000" />
</g>
<g style="fill:#840000; fill-opacity:0.0; 
stroke:#840000; stroke-width:60.000000; stroke-opacity:1; 
stroke-linecap:round; stroke-linejoin:round;">
<path d="M55500 38000
L54000 38000
" />
</g>
<g style="fill:#A90000; fill-opacity:0.0; 
stroke:#A90000; stroke-width:60.000000; stroke-opacity:1; 
stroke-linecap:round; stroke-linejoin:round;">
<text x="54750.000000" y="37900.000000"
textLength="536.181102" font-size="666.653543" lengthAdjust="spacingAndGlyphs"
text-anchor="middle" opacity="0">1</text>
<g class="stroked-text"><desc>1</desc>
<path d="M54892 37876
L54607 37876
" />
<path d="M54750 37876
L54750 37376
L54702 37447
L54654 37495
L54607 37519
" />
</g></g>
<g style="fill:#840000; fill-opacity:0.0; 
stroke:#840000; stroke-width:60.000000; stroke-opacity:1; 
stroke-linecap:round; stroke-linejoin:round;">
<path d="M55500 37000
L54000 37000
" />
</g>
<g style="fill:#A90000; fill-opacity:0.0; 
stroke:#A90000; stroke-width:60.000000; stroke-opacity:1; 
stroke-linecap:round; stroke-linejoin:round;">
<text x="54750.000000" y="36900.000000"
textLength="536.181102" font-size="666.653543" lengthAdjust="spacingAndGlyphs"
text-anchor="middle" opacity="0">2</text>
<g class="stroked-text"><desc>2</desc>
<path d="M54607 36423
L54630 36400
L54678 36376
L54797 36376
L54845 36400
L54869 36423
L54892 36471
L54892 36519
L54869 36590
L54583 36876
L54892 36876
" />
</g></g>
<g style="fill:#840000; fill-opacity:0.0; 
stroke:#840000; stroke-width:60.000000; stroke-opacity:1; 
stroke-linecap:round; stroke-linejoin:round;">
<path d="M55500 36000
L54000 36000
" />
</g>
<g style="fill:#A90000; fill-opacity:0.0; 
stroke:#A90000; stroke-width:60.000000; stroke-opacity:1; 
stroke-linecap:round; stroke-linejoin:round;">
<text x="54750.000000" y="35900.000000"
textLength="536.181102" font-size="666.653543" lengthAdjust="spacingAndGlyphs"
text-anchor="middle" opacity="0">3</text>
<g class="stroked-text"><desc>3</desc>
<path d="M54583 35376
L54892 35376
L54726 35566
L54797 35566
L54845 35590
L54869 35614
L54892 35661
L54892 35780
L54869 35828
L54845 35852
L54797 35876
L54654 35876
L54607 35852
L54583 35828
" />
</g></g>
<g style="fill:#006464; fill-opacity:0.0; 
stroke:#006464; stroke-width:60.000000; stroke-opacity:1; 
stroke-linecap:round; stroke-linejoin:round;">
<text x="55999.960630" y="35250.000000"
textLength="917.125984" font-size="666.653543" lengthAdjust="spacingAndGlyphs"
text-anchor="middle" opacity="0">J6</text>
<g class="stroked-text"><desc>J6</desc>
<path d="M55833 34726
L55833 35083
L55809 35154
L55761 35202
L55690 35226
L55642 35226
" />
<path d="M56285 34726
L56190 34726
L56142 34750
L56118 34773
L56071 34845
L56047 34940
L56047 35130
L56071 35178
L56095 35202
L56142 35226
L56238 35226
L56285 35202
L56309 35178
L56333 35130
L56333 35011
L56309 34964
L56285 34940
L56238 34916
L56142 34916
L56095 34940
L56071 34964
L56047 35011
" />
</g><text x="56000.000000" y="39250.000000"
textLength="14321.889764" font-size="666.653543" lengthAdjust="spacingAndGlyphs"
text-anchor="middle" opacity="0">HEADER_01X03_JST_ZH_SMD_VERTICAL</text>
<g class="stroked-text"><desc>HEADER_01X03_JST_ZH_SMD_VERTICAL</desc>
<path d="M48988 39226
L48988 38726
" />
<path d="M48988 38964
L49273 38964
" />
<path d="M49273 39226
L49273 38726
" />
<path d="M49511 38964
L49678 38964
" />
<path d="M49750 39226
L49511 39226
L49511 38726
L49750 38726
" />
<path d="M49940 39083
L50178 39083
" />
<path d="M49892 39226
L50059 38726
L50226 39226
" />
<path d="M50392 39226
L50392 38726
L50511 38726
L50583 38750
L50630 38797
L50654 38845
L50678 38940
L50678 39011
L50654 39107
L50630 39154
L50583 39202
L50511 39226
L50392 39226
" />
<path d="M50892 38964
L51059 38964
" />
<path d="M51130 39226
L50892 39226
L50892 38726
L51130 38726
" />
<path d="M51630 39226
L51464 38988
" />
<path d="M51345 39226
L51345 38726
L51535 38726
L51583 38750
L51607 38773
L51630 38821
L51630 38892
L51607 38940
L51583 38964
L51535 38988
L51345 38988
" />
<path d="M51726 39273
L52107 39273
" />
<path d="M52321 38726
L52369 38726
L52416 38750
L52440 38773
L52464 38821
L52488 38916
L52488 39035
L52464 39130
L52440 39178
L52416 39202
L52369 39226
L52321 39226
L52273 39202
L52250 39178
L52226 39130
L52202 39035
L52202 38916
L52226 38821
L52250 38773
L52273 38750
L52321 38726
" />
<path d="M52964 39226
L52678 39226
" />
<path d="M52821 39226
L52821 38726
L52773 38797
L52726 38845
L52678 38869
" />
<path d="M53130 38726
L53464 39226
" />
<path d="M53464 38726
L53130 39226
" />
<path d="M53750 38726
L53797 38726
L53845 38750
L53869 38773
L53892 38821
L53916 38916
L53916 39035
L53892 39130
L53869 39178
L53845 39202
L53797 39226
L53750 39226
L53702 39202
L53678 39178
L53654 39130
L53630 39035
L53630 38916
L53654 38821
L53678 38773
L53702 38750
L53750 38726
" />
<path d="M54083 38726
L54392 38726
L54226 38916
L54297 38916
L54345 38940
L54369 38964
L54392 39011
L54392 39130
L54369 39178
L54345 39202
L54297 39226
L54154 39226
L54107 39202
L54083 39178
" />
<path d="M54488 39273
L54869 39273
" />
<path d="M55130 38726
L55130 39083
L55107 39154
L55059 39202
L54988 39226
L54940 39226
" />
<path d="M55345 39202
L55416 39226
L55535 39226
L55583 39202
L55607 39178
L55630 39130
L55630 39083
L55607 39035
L55583 39011
L55535 38988
L55440 38964
L55392 38940
L55369 38916
L55345 38869
L55345 38821
L55369 38773
L55392 38750
L55440 38726
L55559 38726
L55630 38750
" />
<path d="M55773 38726
L56059 38726
" />
<path d="M55916 39226
L55916 38726
" />
<path d="M56107 39273
L56488 39273
" />
<path d="M56559 38726
L56892 38726
L56559 39226
L56892 39226
" />
<path d="M57083 39226
L57083 38726
" />
<path d="M57083 38964
L57369 38964
" />
<path d="M57369 39226
L57369 38726
" />
<path d="M57488 39273
L57869 39273
" />
<path d="M57964 39202
L58035 39226
L58154 39226
L58202 39202
L58226 39178
L58250 39130
L58250 39083
L58226 39035
L58202 39011
L58154 38988
L58059 38964
L58011 38940
L57988 38916
L57964 38869
L57964 38821
L57988 38773
L58011 38750
L58059 38726
L58178 38726
L58250 38750
" />
<path d="M58464 39226
L58464 38726
L58630 39083
L58797 38726
L58797 39226
" />
<path d="M59035 39226
L59035 38726
L59154 38726
L59226 38750
L59273 38797
L59297 38845
L59321 38940
L59321 39011
L59297 39107
L59273 39154
L59226 39202
L59154 39226
L59035 39226
" />
<path d="M59416 39273
L59797 39273
" />
<path d="M59845 38726
L60011 39226
L60178 38726
" />
<path d="M60345 38964
L60511 38964
" />
<path d="M60583 39226
L60345 39226
L60345 38726
L60583 38726
" />
<path d="M61083 39226
L60916 38988
" />
<path d="M60797 39226
L60797 38726
L60988 38726
L61035 38750
L61059 38773
L61083 38821
L61083 38892
L61059 38940
L61035 38964
L60988 38988
L60797 38988
" />
<path d="M61226 38726
L61511 38726
" />
<path d="M61369 39226
L61369 38726
" />
<path d="M61678 39226
L61678 38726
" />
<path d="M62202 39178
L62178 39202
L62107 39226
L62059 39226
L61988 39202
L61940 39154
L61916 39107
L61892 39011
L61892 38940
L61916 38845
L61940 38797
L61988 38750
L62059 38726
L62107 38726
L62178 38750
L62202 38773
" />
<path d="M62392 39083
L62630 39083
" />
<path d="M62345 39226
L62511 38726
L62678 39226
" />
<path d="M63083 39226
L62845 39226
L62845 38726
" />
</g></g>
</g>
<g style="fill:#006464; fill-opacity:0.0; 
stroke:#006464; stroke-width:62.519685; stroke-opacity:1; 
stroke-linecap:round; stroke-linejoin:round;">
</g>
<g style="fill:#006464; fill-opacity:0.0; 
stroke:#006464; stroke-width:60.000000; stroke-opacity:1; 
stroke-linecap:round; stroke-linejoin:round;">
</g>
<g style="fill:#725600; fill-opacity:0.0; 
stroke:#725600; stroke-width:60.000000; stroke-opacity:1; 
stroke-linecap:round; stroke-linejoin:round;">
<text x="52425.000000" y="38250.000000"
textLength="2679.055118" font-size="666.653543" lengthAdjust="spacingAndGlyphs"
text-anchor="end" opacity="0">GPIO_0</text>
<g class="stroked-text"><desc>GPIO_0</desc>
<path d="M50156 37750
L50109 37726
L50037 37726
L49966 37750
L49918 37797
L49895 37845
L49871 37940
L49871 38011
L49895 38107
L49918 38154
L49966 38202
L50037 38226
L50085 38226
L50156 38202
L50180 38178
L50180 38011
L50085 38011
" />
<path d="M50395 38226
L50395 37726
L50585 37726
L50633 37750
L50656 37773
L50680 37821
L50680 37892
L50656 37940
L50633 37964
L50585 37988
L50395 37988
" />
<path d="M50895 38226
L50895 37726
" />
<path d="M51228 37726
L51323 37726
L51371 37750
L51418 37797
L51442 37892
L51442 38059
L51418 38154
L51371 38202
L51323 38226
L51228 38226
L51180 38202
L51133 38154
L51109 38059
L51109 37892
L51133 37797
L51180 37750
L51228 37726
" />
<path d="M51537 38273
L51918 38273
" />
<path d="M52133 37726
L52180 37726
L52228 37750
L52252 37773
L52275 37821
L52299 37916
L52299 38035
L52275 38130
L52252 38178
L52228 38202
L52180 38226
L52133 38226
L52085 38202
L52061 38178
L52037 38130
L52014 38035
L52014 37916
L52037 37821
L52061 37773
L52085 37750
L52133 37726
" />
</g><path style="fill:#725600; fill-opacity:0.0; 
stroke:#725600; stroke-width:60.000000; stroke-opacity:1; 
stroke-linecap:round; stroke-linejoin:round;fill:none"
d="M 53000.000000,38000.000000
52750.000000,37750.000000
52500.000000,37750.000000
52500.000000,38250.000000
52750.000000,38250.000000
Z" /> 
</g>
<g style="fill:#725600; fill-opacity:0.0; 
stroke:#725600; stroke-width:62.519685; stroke-opacity:1; 
stroke-linecap:round; stroke-linejoin:round;">
</g>
<g style="fill:#725600; fill-opacity:0.0; 
stroke:#725600; stroke-width:60.000000; stroke-opacity:1; 
stroke-linecap:round; stroke-linejoin:round;">
<text x="52425.000000" y="37250.000000"
textLength="1583.818898" font-size="666.653543" lengthAdjust="spacingAndGlyphs"
text-anchor="end" opacity="0">GND</text>
<g class="stroked-text"><desc>GND</desc>
<path d="M51252 36750
L51204 36726
L51133 36726
L51061 36750
L51014 36797
L50990 36845
L50966 36940
L50966 37011
L50990 37107
L51014 37154
L51061 37202
L51133 37226
L51180 37226
L51252 37202
L51275 37178
L51275 37011
L51180 37011
" />
<path d="M51490 37226
L51490 36726
L51775 37226
L51775 36726
" />
<path d="M52014 37226
L52014 36726
L52133 36726
L52204 36750
L52252 36797
L52275 36845
L52299 36940
L52299 37011
L52275 37107
L52252 37154
L52204 37202
L52133 37226
L52014 37226
" />
</g><path style="fill:#725600; fill-opacity:0.0; 
stroke:#725600; stroke-width:60.000000; stroke-opacity:1; 
stroke-linecap:round; stroke-linejoin:round;fill:none"
d="M 53000.000000,36750.000000
52500.000000,36750.000000
52500.000000,37250.000000
53000.000000,37250.000000
Z" /> 
</g>
<g style="fill:#725600; fill-opacity:0.0; 
stroke:#725600; stroke-width:62.519685; stroke-opacity:1; 
stroke-linecap:round; stroke-linejoin:round;">
</g>
<g style="fill:#725600; fill-opacity:0.0; 
stroke:#725600; stroke-width:60.000000; stroke-opacity:1; 
stroke-linecap:round; stroke-linejoin:round;">
<text x="52425.000000" y="36250.000000"
textLength="2679.055118" font-size="666.653543" lengthAdjust="spacingAndGlyphs"
text-anchor="end" opacity="0">GPIO_1</text>
<g class="stroked-text"><desc>GPIO_1</desc>
<path d="M50156 35750
L50109 35726
L50037 35726
L49966 35750
L49918 35797
L49895 35845
L49871 35940
L49871 36011
L49895 36107
L49918 36154
L49966 36202
L50037 36226
L50085 36226
L50156 36202
L50180 36178
L50180 36011
L50085 36011
" />
<path d="M50395 36226
L50395 35726
L50585 35726
L50633 35750
L50656 35773
L50680 35821
L50680 35892
L50656 35940
L50633 35964
L50585 35988
L50395 35988
" />
<path d="M50895 36226
L50895 35726
" />
<path d="M51228 35726
L51323 35726
L51371 35750
L51418 35797
L51442 35892
L51442 36059
L51418 36154
L51371 36202
L51323 36226
L51228 36226
L51180 36202
L51133 36154
L51109 36059
L51109 35892
L51133 35797
L51180 35750
L51228 35726
" />
<path d="M51537 36273
L51918 36273
" />
<path d="M52299 36226
L52014 36226
" />
<path d="M52156 36226
L52156 35726
L52109 35797
L52061 35845
L52014 35869
" />
</g><path style="fill:#725600; fill-opacity:0.0; 
stroke:#725600; stroke-width:60.000000; stroke-opacity:1; 
stroke-linecap:round; stroke-linejoin:round;fill:none"
d="M 53000.000000,36000.000000
52750.000000,35750.000000
52500.000000,35750.000000
52500.000000,36250.000000
52750.000000,36250.000000
Z" /> 
</g>
<g style="fill:#009600; fill-opacity:0.0; 
stroke:#009600; stroke-width:60.000000; stroke-opacity:1; 
stroke-linecap:round; stroke-linejoin:round;">
<path d="M53000 37000
L54000 37000
" />
<path d="M53000 38000
L54000 38000
" />
<path d="M53000 36000
L54000 36000
" />
</g> 
</svg>
