<?xml version="1.0" standalone="no"?>
 <!DOCTYPE svg PUBLIC "-//W3C//DTD SVG 1.1//EN" 
 "http://www.w3.org/Graphics/SVG/1.1/DTD/svg11.dtd"> 
<svg
  xmlns:svg="http://www.w3.org/2000/svg"
  xmlns="http://www.w3.org/2000/svg"
  xmlns:xlink="http://www.w3.org/1999/xlink"
  version="1.1"
  width="29.700220cm" height="21.000720cm" viewBox="0 0 116930 82680">
<title>SVG Picture created as biym-board-power.svg date 2022/11/21 12:46:18 </title>
  <desc>Picture generated by Eeschema-SVG </desc>
<g style="fill:#000000; fill-opacity:1.000000;stroke:#000000; stroke-opacity:1.000000;
stroke-linecap:round; stroke-linejoin:round;"
 transform="translate(0 0) scale(1 1)">
</g>
<g style="fill:#840000; fill-opacity:0.0; 
stroke:#840000; stroke-width:0.000000; stroke-opacity:1; 
stroke-linecap:round; stroke-linejoin:round;">
</g>
<g style="fill:#840000; fill-opacity:0.0; 
stroke:#840000; stroke-width:60.000000; stroke-opacity:1; 
stroke-linecap:round; stroke-linejoin:round;">
<rect x="69685.905512" y="65357.165354" width="42519.685039" height="12598.425197" rx="0.000000" />
<rect x="3937.007874" y="3937.007874" width="109055.984252" height="74805.984252" rx="0.000000" />
<rect x="4724.409449" y="4724.409449" width="107481.181102" height="73231.181102" rx="0.000000" />
<path d="M23622 4724
L23622 3937
" />
<path d="M43307 4724
L43307 3937
" />
<path d="M62992 4724
L62992 3937
" />
<path d="M82677 4724
L82677 3937
" />
<path d="M102362 4724
L102362 3937
" />
<text x="13779.527559" y="4586.614173"
textLength="549.960630" font-size="682.401575" lengthAdjust="spacingAndGlyphs"
text-anchor="start" opacity="0">1</text>
<g class="stroked-text"><desc>1</desc>
<path d="M14199 4562
L13907 4562
" />
<path d="M14053 4562
L14053 4050
L14004 4123
L13955 4172
L13907 4196
" />
</g><text x="33464.566929" y="4586.614173"
textLength="547.440945" font-size="682.401575" lengthAdjust="spacingAndGlyphs"
text-anchor="start" opacity="0">2</text>
<g class="stroked-text"><desc>2</desc>
<path d="M33592 4099
L33616 4074
L33665 4050
L33787 4050
L33835 4074
L33860 4099
L33884 4147
L33884 4196
L33860 4269
L33567 4562
L33884 4562
" />
</g><text x="53149.606299" y="4586.614173"
textLength="547.440945" font-size="682.401575" lengthAdjust="spacingAndGlyphs"
text-anchor="start" opacity="0">3</text>
<g class="stroked-text"><desc>3</desc>
<path d="M53252 4050
L53569 4050
L53398 4245
L53472 4245
L53520 4269
L53545 4294
L53569 4342
L53569 4464
L53545 4513
L53520 4537
L53472 4562
L53325 4562
L53277 4537
L53252 4513
" />
</g><text x="72834.645669" y="4586.614173"
textLength="547.440945" font-size="682.401575" lengthAdjust="spacingAndGlyphs"
text-anchor="start" opacity="0">4</text>
<g class="stroked-text"><desc>4</desc>
<path d="M73205 4221
L73205 4562
" />
<path d="M73083 4026
L72962 4391
L73278 4391
" />
</g><text x="92519.685039" y="4586.614173"
textLength="547.440945" font-size="682.401575" lengthAdjust="spacingAndGlyphs"
text-anchor="start" opacity="0">5</text>
<g class="stroked-text"><desc>5</desc>
<path d="M92915 4050
L92671 4050
L92647 4294
L92671 4269
L92720 4245
L92842 4245
L92890 4269
L92915 4294
L92939 4342
L92939 4464
L92915 4513
L92890 4537
L92842 4562
L92720 4562
L92671 4537
L92647 4513
" />
</g><text x="112204.724409" y="4586.614173"
textLength="547.440945" font-size="682.401575" lengthAdjust="spacingAndGlyphs"
text-anchor="start" opacity="0">6</text>
<g class="stroked-text"><desc>6</desc>
<path d="M112575 4050
L112478 4050
L112429 4074
L112405 4099
L112356 4172
L112332 4269
L112332 4464
L112356 4513
L112380 4537
L112429 4562
L112527 4562
L112575 4537
L112600 4513
L112624 4464
L112624 4342
L112600 4294
L112575 4269
L112527 4245
L112429 4245
L112380 4269
L112356 4294
L112332 4342
" />
</g><path d="M23622 77955
L23622 78742
" />
<path d="M43307 77955
L43307 78742
" />
<path d="M62992 77955
L62992 78742
" />
<path d="M82677 77955
L82677 78742
" />
<path d="M102362 77955
L102362 78742
" />
<text x="13779.527559" y="78605.196850"
textLength="547.440945" font-size="682.401575" lengthAdjust="spacingAndGlyphs"
text-anchor="start" opacity="0">1</text>
<g class="stroked-text"><desc>1</desc>
<path d="M14199 78580
L13907 78580
" />
<path d="M14053 78580
L14053 78068
L14004 78142
L13955 78190
L13907 78215
" />
</g><text x="33464.566929" y="78605.196850"
textLength="547.440945" font-size="682.401575" lengthAdjust="spacingAndGlyphs"
text-anchor="start" opacity="0">2</text>
<g class="stroked-text"><desc>2</desc>
<path d="M33592 78117
L33616 78093
L33665 78068
L33787 78068
L33835 78093
L33860 78117
L33884 78166
L33884 78215
L33860 78288
L33567 78580
L33884 78580
" />
</g><text x="53149.606299" y="78605.196850"
textLength="547.440945" font-size="682.401575" lengthAdjust="spacingAndGlyphs"
text-anchor="start" opacity="0">3</text>
<g class="stroked-text"><desc>3</desc>
<path d="M53252 78068
L53569 78068
L53398 78263
L53472 78263
L53520 78288
L53545 78312
L53569 78361
L53569 78483
L53545 78532
L53520 78556
L53472 78580
L53325 78580
L53277 78556
L53252 78532
" />
</g><text x="72834.645669" y="78605.196850"
textLength="547.440945" font-size="682.401575" lengthAdjust="spacingAndGlyphs"
text-anchor="start" opacity="0">4</text>
<g class="stroked-text"><desc>4</desc>
<path d="M73205 78239
L73205 78580
" />
<path d="M73083 78044
L72962 78410
L73278 78410
" />
</g><text x="92519.685039" y="78605.196850"
textLength="547.440945" font-size="682.401575" lengthAdjust="spacingAndGlyphs"
text-anchor="start" opacity="0">5</text>
<g class="stroked-text"><desc>5</desc>
<path d="M92915 78068
L92671 78068
L92647 78312
L92671 78288
L92720 78263
L92842 78263
L92890 78288
L92915 78312
L92939 78361
L92939 78483
L92915 78532
L92890 78556
L92842 78580
L92720 78580
L92671 78556
L92647 78532
" />
</g><text x="112204.724409" y="78605.196850"
textLength="547.440945" font-size="682.401575" lengthAdjust="spacingAndGlyphs"
text-anchor="start" opacity="0">6</text>
<g class="stroked-text"><desc>6</desc>
<path d="M112575 78068
L112478 78068
L112429 78093
L112405 78117
L112356 78190
L112332 78288
L112332 78483
L112356 78532
L112380 78556
L112429 78580
L112527 78580
L112575 78556
L112600 78532
L112624 78483
L112624 78361
L112600 78312
L112575 78288
L112527 78263
L112429 78263
L112380 78288
L112356 78312
L112332 78361
" />
</g><path d="M3937 23622
L4724 23622
" />
<path d="M3937 43307
L4724 43307
" />
<path d="M3937 62992
L4724 62992
" />
<text x="4330.708661" y="14035.433071"
textLength="498.700787" font-size="682.401575" lengthAdjust="spacingAndGlyphs"
text-anchor="middle" opacity="0">A</text>
<g class="stroked-text"><desc>A</desc>
<path d="M4208 13864
L4452 13864
" />
<path d="M4160 14011
L4330 13499
L4501 14011
" />
</g><text x="4330.708661" y="33720.472441"
textLength="571.811024" font-size="682.401575" lengthAdjust="spacingAndGlyphs"
text-anchor="middle" opacity="0">B</text>
<g class="stroked-text"><desc>B</desc>
<path d="M4367 33427
L4440 33452
L4464 33476
L4489 33525
L4489 33598
L4464 33647
L4440 33671
L4391 33696
L4196 33696
L4196 33184
L4367 33184
L4415 33208
L4440 33233
L4464 33281
L4464 33330
L4440 33379
L4415 33403
L4367 33427
L4196 33427
" />
</g><text x="4330.708661" y="53405.511811"
textLength="571.811024" font-size="682.401575" lengthAdjust="spacingAndGlyphs"
text-anchor="middle" opacity="0">C</text>
<g class="stroked-text"><desc>C</desc>
<path d="M4489 53332
L4464 53356
L4391 53381
L4342 53381
L4269 53356
L4221 53307
L4196 53259
L4172 53161
L4172 53088
L4196 52991
L4221 52942
L4269 52893
L4342 52869
L4391 52869
L4464 52893
L4489 52918
" />
</g><text x="4330.708661" y="73090.551181"
textLength="571.811024" font-size="682.401575" lengthAdjust="spacingAndGlyphs"
text-anchor="middle" opacity="0">D</text>
<g class="stroked-text"><desc>D</desc>
<path d="M4196 73066
L4196 72554
L4318 72554
L4391 72578
L4440 72627
L4464 72676
L4489 72773
L4489 72846
L4464 72944
L4440 72993
L4391 73041
L4318 73066
L4196 73066
" />
</g><path d="M112992 23622
L112205 23622
" />
<path d="M112992 43307
L112205 43307
" />
<path d="M112992 62992
L112205 62992
" />
<text x="112599.291339" y="14035.433071"
textLength="498.700787" font-size="682.401575" lengthAdjust="spacingAndGlyphs"
text-anchor="middle" opacity="0">A</text>
<g class="stroked-text"><desc>A</desc>
<path d="M112477 13864
L112721 13864
" />
<path d="M112428 14011
L112599 13499
L112769 14011
" />
</g><text x="112599.291339" y="33720.472441"
textLength="571.811024" font-size="682.401575" lengthAdjust="spacingAndGlyphs"
text-anchor="middle" opacity="0">B</text>
<g class="stroked-text"><desc>B</desc>
<path d="M112635 33427
L112708 33452
L112733 33476
L112757 33525
L112757 33598
L112733 33647
L112708 33671
L112660 33696
L112465 33696
L112465 33184
L112635 33184
L112684 33208
L112708 33233
L112733 33281
L112733 33330
L112708 33379
L112684 33403
L112635 33427
L112465 33427
" />
</g><text x="112599.291339" y="53405.511811"
textLength="571.811024" font-size="682.401575" lengthAdjust="spacingAndGlyphs"
text-anchor="middle" opacity="0">C</text>
<g class="stroked-text"><desc>C</desc>
<path d="M112757 53332
L112733 53356
L112660 53381
L112611 53381
L112538 53356
L112489 53307
L112465 53259
L112440 53161
L112440 53088
L112465 52991
L112489 52942
L112538 52893
L112611 52869
L112660 52869
L112733 52893
L112757 52918
" />
</g><text x="112599.291339" y="73090.551181"
textLength="571.811024" font-size="682.401575" lengthAdjust="spacingAndGlyphs"
text-anchor="middle" opacity="0">D</text>
<g class="stroked-text"><desc>D</desc>
<path d="M112465 73066
L112465 72554
L112587 72554
L112660 72578
L112708 72627
L112733 72676
L112757 72773
L112757 72846
L112733 72944
L112708 72993
L112660 73041
L112587 73066
L112465 73066
" />
</g><text x="78741.023622" y="76321.732283"
textLength="8721.417323" font-size="787.401575" lengthAdjust="spacingAndGlyphs"
text-anchor="start" opacity="0">Date: 2022-11-20</text>
<g class="stroked-text"><desc>Date: 2022-11-20</desc>
<path d="M78911 76293
L78911 75703
L79052 75703
L79136 75731
L79192 75787
L79220 75843
L79249 75956
L79249 76040
L79220 76152
L79192 76209
L79136 76265
L79052 76293
L78911 76293
" />
<path d="M79755 76293
L79755 75984
L79727 75928
L79670 75899
L79558 75899
L79502 75928
" />
<path d="M79755 76265
L79699 76293
L79558 76293
L79502 76265
L79474 76209
L79474 76152
L79502 76096
L79558 76068
L79699 76068
L79755 76040
" />
<path d="M79952 75899
L80177 75899
" />
<path d="M80036 75703
L80036 76209
L80064 76265
L80120 76293
L80177 76293
" />
<path d="M80598 76265
L80542 76293
L80430 76293
L80373 76265
L80345 76209
L80345 75984
L80373 75928
L80430 75899
L80542 75899
L80598 75928
L80627 75984
L80627 76040
L80345 76096
" />
<path d="M80880 76237
L80908 76265
L80880 76293
L80852 76265
L80880 76237
L80880 76293
" />
<path d="M80880 75928
L80908 75956
L80880 75984
L80852 75956
L80880 75928
L80880 75984
" />
<path d="M81583 75759
L81611 75731
L81667 75703
L81808 75703
L81864 75731
L81892 75759
L81920 75815
L81920 75871
L81892 75956
L81555 76293
L81920 76293
" />
<path d="M82286 75703
L82342 75703
L82398 75731
L82426 75759
L82454 75815
L82483 75928
L82483 76068
L82454 76181
L82426 76237
L82398 76265
L82342 76293
L82286 76293
L82229 76265
L82201 76237
L82173 76181
L82145 76068
L82145 75928
L82173 75815
L82201 75759
L82229 75731
L82286 75703
" />
<path d="M82708 75759
L82736 75731
L82792 75703
L82932 75703
L82989 75731
L83017 75759
L83045 75815
L83045 75871
L83017 75956
L82679 76293
L83045 76293
" />
<path d="M83270 75759
L83298 75731
L83354 75703
L83495 75703
L83551 75731
L83579 75759
L83607 75815
L83607 75871
L83579 75956
L83242 76293
L83607 76293
" />
<path d="M83860 76068
L84310 76068
" />
<path d="M84901 76293
L84564 76293
" />
<path d="M84732 76293
L84732 75703
L84676 75787
L84620 75843
L84564 75871
" />
<path d="M85463 76293
L85126 76293
" />
<path d="M85295 76293
L85295 75703
L85238 75787
L85182 75843
L85126 75871
" />
<path d="M85717 76068
L86166 76068
" />
<path d="M86420 75759
L86448 75731
L86504 75703
L86645 75703
L86701 75731
L86729 75759
L86757 75815
L86757 75871
L86729 75956
L86391 76293
L86757 76293
" />
<path d="M87123 75703
L87179 75703
L87235 75731
L87263 75759
L87291 75815
L87319 75928
L87319 76068
L87291 76181
L87263 76237
L87235 76265
L87179 76293
L87123 76293
L87066 76265
L87038 76237
L87010 76181
L86982 76068
L86982 75928
L87010 75815
L87038 75759
L87066 75731
L87123 75703
" />
</g><path d="M69685 76577
L112205 76577
" />
<text x="70079.606299" y="77424.094488"
textLength="11449.212598" font-size="787.401575" lengthAdjust="spacingAndGlyphs"
text-anchor="start" opacity="0">KiCad E.D.A.  kicad 6.0.9</text>
<g class="stroked-text"><desc>KiCad E.D.A.  kicad 6.0.9</desc>
<path d="M70250 77395
L70250 76805
" />
<path d="M70587 77395
L70334 77058
" />
<path d="M70587 76805
L70250 77142
" />
<path d="M70840 77395
L70840 77002
" />
<path d="M70840 76805
L70812 76833
L70840 76861
L70868 76833
L70840 76805
L70840 76861
" />
<path d="M71459 77339
L71431 77367
L71346 77395
L71290 77395
L71206 77367
L71150 77311
L71121 77255
L71093 77142
L71093 77058
L71121 76946
L71150 76889
L71206 76833
L71290 76805
L71346 76805
L71431 76833
L71459 76861
" />
<path d="M71965 77395
L71965 77086
L71937 77030
L71881 77002
L71768 77002
L71712 77030
" />
<path d="M71965 77367
L71909 77395
L71768 77395
L71712 77367
L71684 77311
L71684 77255
L71712 77199
L71768 77170
L71909 77170
L71965 77142
" />
<path d="M72499 77395
L72499 76805
" />
<path d="M72499 77367
L72443 77395
L72331 77395
L72274 77367
L72246 77339
L72218 77283
L72218 77114
L72246 77058
L72274 77030
L72331 77002
L72443 77002
L72499 77030
" />
<path d="M73231 77086
L73427 77086
" />
<path d="M73512 77395
L73231 77395
L73231 76805
L73512 76805
" />
<path d="M73765 77339
L73793 77367
L73765 77395
L73737 77367
L73765 77339
L73765 77395
" />
<path d="M74046 77395
L74046 76805
L74187 76805
L74271 76833
L74327 76889
L74355 76946
L74384 77058
L74384 77142
L74355 77255
L74327 77311
L74271 77367
L74187 77395
L74046 77395
" />
<path d="M74637 77339
L74665 77367
L74637 77395
L74609 77367
L74637 77339
L74637 77395
" />
<path d="M74890 77227
L75171 77227
" />
<path d="M74834 77395
L75030 76805
L75227 77395
" />
<path d="M75424 77339
L75452 77367
L75424 77395
L75396 77367
L75424 77339
L75424 77395
" />
<path d="M76605 77395
L76605 76805
" />
<path d="M76661 77170
L76830 77395
" />
<path d="M76830 77002
L76605 77227
" />
<path d="M77083 77395
L77083 77002
" />
<path d="M77083 76805
L77055 76833
L77083 76861
L77111 76833
L77083 76805
L77083 76861
" />
<path d="M77618 77367
L77561 77395
L77449 77395
L77393 77367
L77364 77339
L77336 77283
L77336 77114
L77364 77058
L77393 77030
L77449 77002
L77561 77002
L77618 77030
" />
<path d="M78124 77395
L78124 77086
L78096 77030
L78039 77002
L77927 77002
L77871 77030
" />
<path d="M78124 77367
L78067 77395
L77927 77395
L77871 77367
L77842 77311
L77842 77255
L77871 77199
L77927 77170
L78067 77170
L78124 77142
" />
<path d="M78658 77395
L78658 76805
" />
<path d="M78658 77367
L78602 77395
L78489 77395
L78433 77367
L78405 77339
L78377 77283
L78377 77114
L78405 77058
L78433 77030
L78489 77002
L78602 77002
L78658 77030
" />
<path d="M79642 76805
L79530 76805
L79474 76833
L79445 76861
L79389 76946
L79361 77058
L79361 77283
L79389 77339
L79417 77367
L79474 77395
L79586 77395
L79642 77367
L79670 77339
L79699 77283
L79699 77142
L79670 77086
L79642 77058
L79586 77030
L79474 77030
L79417 77058
L79389 77086
L79361 77142
" />
<path d="M79952 77339
L79980 77367
L79952 77395
L79923 77367
L79952 77339
L79952 77395
" />
<path d="M80345 76805
L80402 76805
L80458 76833
L80486 76861
L80514 76917
L80542 77030
L80542 77170
L80514 77283
L80486 77339
L80458 77367
L80402 77395
L80345 77395
L80289 77367
L80261 77339
L80233 77283
L80205 77170
L80205 77030
L80233 76917
L80261 76861
L80289 76833
L80345 76805
" />
<path d="M80795 77339
L80823 77367
L80795 77395
L80767 77367
L80795 77339
L80795 77395
" />
<path d="M81105 77395
L81217 77395
L81273 77367
L81301 77339
L81358 77255
L81386 77142
L81386 76917
L81358 76861
L81330 76833
L81273 76805
L81161 76805
L81105 76833
L81076 76861
L81048 76917
L81048 77058
L81076 77114
L81105 77142
L81161 77170
L81273 77170
L81330 77142
L81358 77114
L81386 77058
" />
</g><path d="M69685 75396
L112205 75396
" />
</g>
<g style="fill:#840000; fill-opacity:0.0; 
stroke:#840000; stroke-width:118.110236; stroke-opacity:1; 
stroke-linecap:round; stroke-linejoin:round;">
<text x="103544.173228" y="76321.732283"
textLength="3743.897638" font-size="787.401575" lengthAdjust="spacingAndGlyphs"
text-anchor="start" opacity="0">Rev: 1.2</text>
<g class="stroked-text"><desc>Rev: 1.2</desc>
<path d="M104098 76293
L103902 76012
" />
<path d="M103761 76293
L103761 75703
L103986 75703
L104042 75731
L104070 75759
L104098 75815
L104098 75899
L104070 75956
L104042 75984
L103986 76012
L103761 76012
" />
<path d="M104577 76265
L104520 76293
L104408 76293
L104352 76265
L104323 76209
L104323 75984
L104352 75928
L104408 75899
L104520 75899
L104577 75928
L104605 75984
L104605 76040
L104323 76096
" />
<path d="M104802 75899
L104942 76293
L105083 75899
" />
<path d="M105308 76237
L105336 76265
L105308 76293
L105280 76265
L105308 76237
L105308 76293
" />
<path d="M105308 75928
L105336 75956
L105308 75984
L105280 75956
L105308 75928
L105308 75984
" />
<path d="M106348 76293
L106011 76293
" />
<path d="M106180 76293
L106180 75703
L106123 75787
L106067 75843
L106011 75871
" />
<path d="M106601 76237
L106629 76265
L106601 76293
L106573 76265
L106601 76237
L106601 76293
" />
<path d="M106854 75759
L106883 75731
L106939 75703
L107079 75703
L107136 75731
L107164 75759
L107192 75815
L107192 75871
L107164 75956
L106826 76293
L107192 76293
" />
</g></g>
<g style="fill:#840000; fill-opacity:0.0; 
stroke:#840000; stroke-width:60.000000; stroke-opacity:1; 
stroke-linecap:round; stroke-linejoin:round;">
<text x="70079.606299" y="76321.732283"
textLength="3781.220472" font-size="787.401575" lengthAdjust="spacingAndGlyphs"
text-anchor="start" opacity="0">Size: A4</text>
<g class="stroked-text"><desc>Size: A4</desc>
<path d="M70222 76265
L70306 76293
L70447 76293
L70503 76265
L70531 76237
L70559 76181
L70559 76124
L70531 76068
L70503 76040
L70447 76012
L70334 75984
L70278 75956
L70250 75928
L70222 75871
L70222 75815
L70250 75759
L70278 75731
L70334 75703
L70475 75703
L70559 75731
" />
<path d="M70812 76293
L70812 75899
" />
<path d="M70812 75703
L70784 75731
L70812 75759
L70840 75731
L70812 75703
L70812 75759
" />
<path d="M71037 75899
L71346 75899
L71037 76293
L71346 76293
" />
<path d="M71796 76265
L71740 76293
L71628 76293
L71571 76265
L71543 76209
L71543 75984
L71571 75928
L71628 75899
L71740 75899
L71796 75928
L71825 75984
L71825 76040
L71543 76096
" />
<path d="M72078 76237
L72106 76265
L72078 76293
L72049 76265
L72078 76237
L72078 76293
" />
<path d="M72078 75928
L72106 75956
L72078 75984
L72049 75956
L72078 75928
L72078 75984
" />
<path d="M72781 76124
L73062 76124
" />
<path d="M72724 76293
L72921 75703
L73118 76293
" />
<path d="M73568 75899
L73568 76293
" />
<path d="M73427 75674
L73287 76096
L73652 76096
" />
</g><text x="103544.173228" y="77424.094488"
textLength="3912.637795" font-size="787.401575" lengthAdjust="spacingAndGlyphs"
text-anchor="start" opacity="0">Id: 2/10</text>
<g class="stroked-text"><desc>Id: 2/10</desc>
<path d="M103714 77395
L103714 76805
" />
<path d="M104249 77395
L104249 76805
" />
<path d="M104249 77367
L104192 77395
L104080 77395
L104024 77367
L103995 77339
L103967 77283
L103967 77114
L103995 77058
L104024 77030
L104080 77002
L104192 77002
L104249 77030
" />
<path d="M104530 77339
L104558 77367
L104530 77395
L104502 77367
L104530 77339
L104530 77395
" />
<path d="M104530 77030
L104558 77058
L104530 77086
L104502 77058
L104530 77030
L104530 77086
" />
<path d="M105233 76861
L105261 76833
L105317 76805
L105458 76805
L105514 76833
L105542 76861
L105570 76917
L105570 76974
L105542 77058
L105205 77395
L105570 77395
" />
<path d="M106245 76777
L105739 77536
" />
<path d="M106751 77395
L106414 77395
" />
<path d="M106583 77395
L106583 76805
L106526 76889
L106470 76946
L106414 76974
" />
<path d="M107117 76805
L107173 76805
L107229 76833
L107258 76861
L107286 76917
L107314 77030
L107314 77170
L107286 77283
L107258 77339
L107229 77367
L107173 77395
L107117 77395
L107061 77367
L107033 77339
L107004 77283
L106976 77170
L106976 77030
L107004 76917
L107033 76861
L107061 76833
L107117 76805
" />
</g><path d="M69685 73821
L112205 73821
" />
</g>
<g style="fill:#840000; fill-opacity:0.0; 
stroke:#840000; stroke-width:157.480315; stroke-opacity:1; 
stroke-linecap:round; stroke-linejoin:round;">
<text x="70079.606299" y="74924.094488"
textLength="15141.614173" font-size="1049.842520" lengthAdjust="spacingAndGlyphs"
text-anchor="start" opacity="0">Title: biym-board-power</text>
<g class="stroked-text"><desc>Title: biym-board-power</desc>
<path d="M70360 74099
L70810 74099
" />
<path d="M70486 74886
L70585 74099
" />
<path d="M70974 74886
L71039 74361
" />
<path d="M71072 74099
L71030 74136
L71063 74174
L71105 74136
L71072 74099
L71063 74174
" />
<path d="M71302 74361
L71602 74361
" />
<path d="M71447 74099
L71363 74774
L71391 74849
L71461 74886
L71536 74886
" />
<path d="M71911 74886
L71841 74849
L71812 74774
L71897 74099
" />
<path d="M72516 74849
L72436 74886
L72286 74886
L72216 74849
L72187 74774
L72225 74474
L72272 74399
L72352 74361
L72501 74361
L72572 74399
L72600 74474
L72591 74549
L72206 74624
" />
<path d="M72895 74811
L72928 74849
L72886 74886
L72853 74849
L72895 74811
L72886 74886
" />
<path d="M72947 74399
L72980 74436
L72937 74474
L72905 74436
L72947 74399
L72937 74474
" />
<path d="M73861 74886
L73959 74099
" />
<path d="M73922 74399
L74001 74361
L74151 74361
L74222 74399
L74254 74436
L74282 74511
L74254 74736
L74207 74811
L74165 74849
L74086 74886
L73936 74886
L73865 74849
" />
<path d="M74573 74886
L74639 74361
" />
<path d="M74672 74099
L74629 74136
L74662 74174
L74704 74136
L74672 74099
L74662 74174
" />
<path d="M74939 74361
L75061 74886
" />
<path d="M75314 74361
L75061 74886
L74962 75074
L74920 75111
L74840 75149
" />
<path d="M75548 74886
L75614 74361
" />
<path d="M75604 74436
L75646 74399
L75726 74361
L75839 74361
L75909 74399
L75937 74474
L75885 74886
" />
<path d="M75937 74474
L75984 74399
L76064 74361
L76176 74361
L76246 74399
L76274 74474
L76223 74886
" />
<path d="M76635 74586
L77235 74586
" />
<path d="M77573 74886
L77671 74099
" />
<path d="M77634 74399
L77713 74361
L77863 74361
L77934 74399
L77966 74436
L77995 74511
L77966 74736
L77920 74811
L77877 74849
L77798 74886
L77648 74886
L77577 74849
" />
<path d="M78398 74886
L78327 74849
L78295 74811
L78266 74736
L78295 74511
L78341 74436
L78384 74399
L78463 74361
L78576 74361
L78646 74399
L78679 74436
L78707 74511
L78679 74736
L78632 74811
L78590 74849
L78510 74886
L78398 74886
" />
<path d="M79335 74886
L79387 74474
L79358 74399
L79288 74361
L79138 74361
L79058 74399
" />
<path d="M79340 74849
L79260 74886
L79073 74886
L79002 74849
L78974 74774
L78983 74699
L79030 74624
L79110 74586
L79297 74586
L79377 74549
" />
<path d="M79710 74886
L79776 74361
" />
<path d="M79757 74511
L79804 74436
L79846 74399
L79926 74361
L80001 74361
" />
<path d="M80535 74886
L80633 74099
" />
<path d="M80540 74849
L80460 74886
L80310 74886
L80240 74849
L80207 74811
L80179 74736
L80207 74511
L80254 74436
L80296 74399
L80375 74361
L80525 74361
L80596 74399
" />
<path d="M80947 74586
L81547 74586
" />
<path d="M81950 74361
L81852 75149
" />
<path d="M81946 74399
L82025 74361
L82175 74361
L82246 74399
L82278 74436
L82307 74511
L82278 74736
L82232 74811
L82189 74849
L82110 74886
L81960 74886
L81889 74849
" />
<path d="M82710 74886
L82639 74849
L82606 74811
L82578 74736
L82606 74511
L82653 74436
L82696 74399
L82775 74361
L82888 74361
L82958 74399
L82991 74436
L83019 74511
L82991 74736
L82944 74811
L82902 74849
L82822 74886
L82710 74886
" />
<path d="M83300 74361
L83385 74886
L83581 74511
L83684 74886
L83900 74361
" />
<path d="M84439 74849
L84359 74886
L84209 74886
L84139 74849
L84111 74774
L84148 74474
L84195 74399
L84275 74361
L84425 74361
L84495 74399
L84523 74474
L84514 74549
L84130 74624
" />
<path d="M84809 74886
L84875 74361
" />
<path d="M84856 74511
L84903 74436
L84945 74399
L85025 74361
L85100 74361
" />
</g></g>
<g style="fill:#840000; fill-opacity:0.0; 
stroke:#840000; stroke-width:60.000000; stroke-opacity:1; 
stroke-linecap:round; stroke-linejoin:round;">
<text x="70079.606299" y="73408.346457"
textLength="9681.653543" font-size="787.401575" lengthAdjust="spacingAndGlyphs"
text-anchor="start" opacity="0">File: power.kicad_sch</text>
<g class="stroked-text"><desc>File: power.kicad_sch</desc>
<path d="M70447 73070
L70250 73070
" />
<path d="M70250 73380
L70250 72789
L70531 72789
" />
<path d="M70756 73380
L70756 72986
" />
<path d="M70756 72789
L70728 72817
L70756 72845
L70784 72817
L70756 72789
L70756 72845
" />
<path d="M71121 73380
L71065 73352
L71037 73295
L71037 72789
" />
<path d="M71571 73352
L71515 73380
L71403 73380
L71346 73352
L71318 73295
L71318 73070
L71346 73014
L71403 72986
L71515 72986
L71571 73014
L71600 73070
L71600 73127
L71318 73183
" />
<path d="M71853 73323
L71881 73352
L71853 73380
L71825 73352
L71853 73323
L71853 73380
" />
<path d="M71853 73014
L71881 73042
L71853 73070
L71825 73042
L71853 73014
L71853 73070
" />
<path d="M72584 72986
L72584 73577
" />
<path d="M72584 73014
L72640 72986
L72752 72986
L72809 73014
L72837 73042
L72865 73098
L72865 73267
L72837 73323
L72809 73352
L72752 73380
L72640 73380
L72584 73352
" />
<path d="M73202 73380
L73146 73352
L73118 73323
L73090 73267
L73090 73098
L73118 73042
L73146 73014
L73202 72986
L73287 72986
L73343 73014
L73371 73042
L73399 73098
L73399 73267
L73371 73323
L73343 73352
L73287 73380
L73202 73380
" />
<path d="M73596 72986
L73709 73380
L73821 73098
L73934 73380
L74046 72986
" />
<path d="M74496 73352
L74440 73380
L74327 73380
L74271 73352
L74243 73295
L74243 73070
L74271 73014
L74327 72986
L74440 72986
L74496 73014
L74524 73070
L74524 73127
L74243 73183
" />
<path d="M74777 73380
L74777 72986
" />
<path d="M74777 73098
L74805 73042
L74834 73014
L74890 72986
L74946 72986
" />
<path d="M75143 73323
L75171 73352
L75143 73380
L75115 73352
L75143 73323
L75143 73380
" />
<path d="M75424 73380
L75424 72789
" />
<path d="M75480 73155
L75649 73380
" />
<path d="M75649 72986
L75424 73211
" />
<path d="M75902 73380
L75902 72986
" />
<path d="M75902 72789
L75874 72817
L75902 72845
L75930 72817
L75902 72789
L75902 72845
" />
<path d="M76436 73352
L76380 73380
L76268 73380
L76211 73352
L76183 73323
L76155 73267
L76155 73098
L76183 73042
L76211 73014
L76268 72986
L76380 72986
L76436 73014
" />
<path d="M76943 73380
L76943 73070
L76915 73014
L76858 72986
L76746 72986
L76690 73014
" />
<path d="M76943 73352
L76886 73380
L76746 73380
L76690 73352
L76661 73295
L76661 73239
L76690 73183
L76746 73155
L76886 73155
L76943 73127
" />
<path d="M77477 73380
L77477 72789
" />
<path d="M77477 73352
L77421 73380
L77308 73380
L77252 73352
L77224 73323
L77196 73267
L77196 73098
L77224 73042
L77252 73014
L77308 72986
L77421 72986
L77477 73014
" />
<path d="M77618 73436
L78067 73436
" />
<path d="M78180 73352
L78236 73380
L78349 73380
L78405 73352
L78433 73295
L78433 73267
L78405 73211
L78349 73183
L78264 73183
L78208 73155
L78180 73098
L78180 73070
L78208 73014
L78264 72986
L78349 72986
L78405 73014
" />
<path d="M78939 73352
L78883 73380
L78771 73380
L78714 73352
L78686 73323
L78658 73267
L78658 73098
L78686 73042
L78714 73014
L78771 72986
L78883 72986
L78939 73014
" />
<path d="M79192 73380
L79192 72789
" />
<path d="M79445 73380
L79445 73070
L79417 73014
L79361 72986
L79277 72986
L79220 73014
L79192 73042
" />
</g><path d="M69685 71459
L112205 71459
" />
<text x="70079.606299" y="72345.354331"
textLength="7034.133858" font-size="787.401575" lengthAdjust="spacingAndGlyphs"
text-anchor="start" opacity="0">Sheet: /power/</text>
<g class="stroked-text"><desc>Sheet: /power/</desc>
<path d="M70222 72289
L70306 72317
L70447 72317
L70503 72289
L70531 72260
L70559 72204
L70559 72148
L70531 72092
L70503 72064
L70447 72035
L70334 72007
L70278 71979
L70250 71951
L70222 71895
L70222 71839
L70250 71782
L70278 71754
L70334 71726
L70475 71726
L70559 71754
" />
<path d="M70812 72317
L70812 71726
" />
<path d="M71065 72317
L71065 72007
L71037 71951
L70981 71923
L70897 71923
L70840 71951
L70812 71979
" />
<path d="M71571 72289
L71515 72317
L71403 72317
L71346 72289
L71318 72232
L71318 72007
L71346 71951
L71403 71923
L71515 71923
L71571 71951
L71600 72007
L71600 72064
L71318 72120
" />
<path d="M72078 72289
L72021 72317
L71909 72317
L71853 72289
L71825 72232
L71825 72007
L71853 71951
L71909 71923
L72021 71923
L72078 71951
L72106 72007
L72106 72064
L71825 72120
" />
<path d="M72274 71923
L72499 71923
" />
<path d="M72359 71726
L72359 72232
L72387 72289
L72443 72317
L72499 72317
" />
<path d="M72696 72260
L72724 72289
L72696 72317
L72668 72289
L72696 72260
L72696 72317
" />
<path d="M72696 71951
L72724 71979
L72696 72007
L72668 71979
L72696 71951
L72696 72007
" />
<path d="M73849 71698
L73343 72457
" />
<path d="M74046 71923
L74046 72514
" />
<path d="M74046 71951
L74102 71923
L74215 71923
L74271 71951
L74299 71979
L74327 72035
L74327 72204
L74299 72260
L74271 72289
L74215 72317
L74102 72317
L74046 72289
" />
<path d="M74665 72317
L74609 72289
L74580 72260
L74552 72204
L74552 72035
L74580 71979
L74609 71951
L74665 71923
L74749 71923
L74805 71951
L74834 71979
L74862 72035
L74862 72204
L74834 72260
L74805 72289
L74749 72317
L74665 72317
" />
<path d="M75058 71923
L75171 72317
L75283 72035
L75396 72317
L75508 71923
" />
<path d="M75958 72289
L75902 72317
L75790 72317
L75733 72289
L75705 72232
L75705 72007
L75733 71951
L75790 71923
L75902 71923
L75958 71951
L75986 72007
L75986 72064
L75705 72120
" />
<path d="M76240 72317
L76240 71923
" />
<path d="M76240 72035
L76268 71979
L76296 71951
L76352 71923
L76408 71923
" />
<path d="M77027 71698
L76521 72457
" />
</g></g>
<g style="fill:#840000; fill-opacity:0.0; 
stroke:#840000; stroke-width:118.110236; stroke-opacity:1; 
stroke-linecap:round; stroke-linejoin:round;">
<text x="70079.606299" y="71164.251969"
textLength="6499.803150" font-size="787.401575" lengthAdjust="spacingAndGlyphs"
text-anchor="start" opacity="0">Peter Polidoro</text>
<g class="stroked-text"><desc>Peter Polidoro</desc>
<path d="M70296 71136
L70296 70545
L70521 70545
L70578 70573
L70606 70601
L70634 70658
L70634 70742
L70606 70798
L70578 70826
L70521 70854
L70296 70854
" />
<path d="M71112 71107
L71056 71136
L70943 71136
L70887 71107
L70859 71051
L70859 70826
L70887 70770
L70943 70742
L71056 70742
L71112 70770
L71140 70826
L71140 70883
L70859 70939
" />
<path d="M71309 70742
L71534 70742
" />
<path d="M71393 70545
L71393 71051
L71421 71107
L71478 71136
L71534 71136
" />
<path d="M71956 71107
L71899 71136
L71787 71136
L71731 71107
L71703 71051
L71703 70826
L71731 70770
L71787 70742
L71899 70742
L71956 70770
L71984 70826
L71984 70883
L71703 70939
" />
<path d="M72237 71136
L72237 70742
" />
<path d="M72237 70854
L72265 70798
L72293 70770
L72349 70742
L72406 70742
" />
<path d="M73052 71136
L73052 70545
L73277 70545
L73334 70573
L73362 70601
L73390 70658
L73390 70742
L73362 70798
L73334 70826
L73277 70854
L73052 70854
" />
<path d="M73727 71136
L73671 71107
L73643 71079
L73615 71023
L73615 70854
L73643 70798
L73671 70770
L73727 70742
L73812 70742
L73868 70770
L73896 70798
L73924 70854
L73924 71023
L73896 71079
L73868 71107
L73812 71136
L73727 71136
" />
<path d="M74262 71136
L74205 71107
L74177 71051
L74177 70545
" />
<path d="M74487 71136
L74487 70742
" />
<path d="M74487 70545
L74458 70573
L74487 70601
L74515 70573
L74487 70545
L74487 70601
" />
<path d="M75021 71136
L75021 70545
" />
<path d="M75021 71107
L74965 71136
L74852 71136
L74796 71107
L74768 71079
L74740 71023
L74740 70854
L74768 70798
L74796 70770
L74852 70742
L74965 70742
L75021 70770
" />
<path d="M75386 71136
L75330 71107
L75302 71079
L75274 71023
L75274 70854
L75302 70798
L75330 70770
L75386 70742
L75471 70742
L75527 70770
L75555 70798
L75583 70854
L75583 71023
L75555 71079
L75527 71107
L75471 71136
L75386 71136
" />
<path d="M75836 71136
L75836 70742
" />
<path d="M75836 70854
L75865 70798
L75893 70770
L75949 70742
L76005 70742
" />
<path d="M76286 71136
L76230 71107
L76202 71079
L76174 71023
L76174 70854
L76202 70798
L76230 70770
L76286 70742
L76371 70742
L76427 70770
L76455 70798
L76483 70854
L76483 71023
L76455 71079
L76427 71107
L76371 71136
L76286 71136
" />
</g></g>
<g style="fill:#840000; fill-opacity:0.0; 
stroke:#840000; stroke-width:60.000000; stroke-opacity:1; 
stroke-linecap:round; stroke-linejoin:round;">
<text x="70079.606299" y="69983.149606"
textLength="153.543307" font-size="787.401575" lengthAdjust="spacingAndGlyphs"
text-anchor="start" opacity="0"></text>
<g class="stroked-text"><desc></desc>
</g><text x="70079.606299" y="68802.047244"
textLength="60.000000" font-size="787.401575" lengthAdjust="spacingAndGlyphs"
text-anchor="start" opacity="0"></text>
<g class="stroked-text"><desc></desc>
</g><text x="70079.606299" y="67620.944882"
textLength="60.000000" font-size="787.401575" lengthAdjust="spacingAndGlyphs"
text-anchor="start" opacity="0"></text>
<g class="stroked-text"><desc></desc>
</g><text x="70079.606299" y="66439.842520"
textLength="60.000000" font-size="787.401575" lengthAdjust="spacingAndGlyphs"
text-anchor="start" opacity="0"></text>
<g class="stroked-text"><desc></desc>
</g><path d="M77559 75396
L77559 76577
" />
<path d="M102756 75396
L102756 77955
" />
</g>
<g style="fill:#FFFFFF; fill-opacity:0.0; 
stroke:#FFFFFF; stroke-width:60.000000; stroke-opacity:1; 
stroke-linecap:round; stroke-linejoin:round;">
</g>
<g style="fill:#FFFFFF; fill-opacity:1.0; 
stroke:#FFFFFF; stroke-width:0.039370; stroke-opacity:1; 
stroke-linecap:round; stroke-linejoin:round;">
<rect x="53500.000000" y="25500.000000" width="8000.000000" height="5000.000000" rx="0.000000" />
</g>
<g style="fill:#840000; fill-opacity:1.0; 
stroke:#840000; stroke-width:0.039370; stroke-opacity:1; 
stroke-linecap:round; stroke-linejoin:round;">
</g>
<g style="fill:#840000; fill-opacity:0.0; 
stroke:#840000; stroke-width:60.000000; stroke-opacity:1; 
stroke-linecap:round; stroke-linejoin:round;">
<rect x="53500.000000" y="25500.000000" width="8000.000000" height="5000.000000" rx="0.000000" />
</g>
<g style="fill:#006464; fill-opacity:0.0; 
stroke:#006464; stroke-width:60.000000; stroke-opacity:1; 
stroke-linecap:round; stroke-linejoin:round;">
<text x="60925.000000" y="26750.000000"
textLength="3845.708661" font-size="666.653543" lengthAdjust="spacingAndGlyphs"
text-anchor="end" opacity="0">VBOOSTED</text>
<g class="stroked-text"><desc>VBOOSTED</desc>
<path d="M57156 26226
L57323 26726
L57490 26226
" />
<path d="M57823 26464
L57895 26488
L57918 26511
L57942 26559
L57942 26630
L57918 26678
L57895 26702
L57847 26726
L57656 26726
L57656 26226
L57823 26226
L57871 26250
L57895 26273
L57918 26321
L57918 26369
L57895 26416
L57871 26440
L57823 26464
L57656 26464
" />
<path d="M58252 26226
L58347 26226
L58395 26250
L58442 26297
L58466 26392
L58466 26559
L58442 26654
L58395 26702
L58347 26726
L58252 26726
L58204 26702
L58156 26654
L58133 26559
L58133 26392
L58156 26297
L58204 26250
L58252 26226
" />
<path d="M58775 26226
L58871 26226
L58918 26250
L58966 26297
L58990 26392
L58990 26559
L58966 26654
L58918 26702
L58871 26726
L58775 26726
L58728 26702
L58680 26654
L58656 26559
L58656 26392
L58680 26297
L58728 26250
L58775 26226
" />
<path d="M59180 26702
L59252 26726
L59371 26726
L59418 26702
L59442 26678
L59466 26630
L59466 26583
L59442 26535
L59418 26511
L59371 26488
L59275 26464
L59228 26440
L59204 26416
L59180 26369
L59180 26321
L59204 26273
L59228 26250
L59275 26226
L59395 26226
L59466 26250
" />
<path d="M59609 26226
L59895 26226
" />
<path d="M59752 26726
L59752 26226
" />
<path d="M60061 26464
L60228 26464
" />
<path d="M60299 26726
L60061 26726
L60061 26226
L60299 26226
" />
<path d="M60514 26726
L60514 26226
L60633 26226
L60704 26250
L60752 26297
L60775 26345
L60799 26440
L60799 26511
L60775 26607
L60752 26654
L60704 26702
L60633 26726
L60514 26726
" />
</g><path style="fill:#006464; fill-opacity:0.0; 
stroke:#006464; stroke-width:60.000000; stroke-opacity:1; 
stroke-linecap:round; stroke-linejoin:round;fill:none"
d="M 61500.000000,26500.000000
61250.000000,26250.000000
61000.000000,26250.000000
61000.000000,26750.000000
61250.000000,26750.000000
Z" /> 
<text x="54075.000000" y="26750.000000"
textLength="1250.472441" font-size="666.653543" lengthAdjust="spacingAndGlyphs"
text-anchor="start" opacity="0">VIN</text>
<g class="stroked-text"><desc>VIN</desc>
<path d="M54152 26226
L54319 26726
L54485 26226
" />
<path d="M54652 26726
L54652 26226
" />
<path d="M54890 26726
L54890 26226
L55176 26726
L55176 26226
" />
</g><path style="fill:#006464; fill-opacity:0.0; 
stroke:#006464; stroke-width:60.000000; stroke-opacity:1; 
stroke-linecap:round; stroke-linejoin:round;fill:none"
d="M 53500.000000,26250.000000
54000.000000,26250.000000
54000.000000,26750.000000
53500.000000,26750.000000
Z" /> 
<text x="54075.000000" y="27750.000000"
textLength="1583.818898" font-size="666.653543" lengthAdjust="spacingAndGlyphs"
text-anchor="start" opacity="0">GND</text>
<g class="stroked-text"><desc>GND</desc>
<path d="M54485 27250
L54438 27226
L54366 27226
L54295 27250
L54247 27297
L54224 27345
L54200 27440
L54200 27511
L54224 27607
L54247 27654
L54295 27702
L54366 27726
L54414 27726
L54485 27702
L54509 27678
L54509 27511
L54414 27511
" />
<path d="M54724 27726
L54724 27226
L55009 27726
L55009 27226
" />
<path d="M55247 27726
L55247 27226
L55366 27226
L55438 27250
L55485 27297
L55509 27345
L55533 27440
L55533 27511
L55509 27607
L55485 27654
L55438 27702
L55366 27726
L55247 27726
" />
</g><path style="fill:#006464; fill-opacity:0.0; 
stroke:#006464; stroke-width:60.000000; stroke-opacity:1; 
stroke-linecap:round; stroke-linejoin:round;fill:none"
d="M 53500.000000,27250.000000
54000.000000,27250.000000
54000.000000,27750.000000
53500.000000,27750.000000
Z" /> 
<text x="54075.000000" y="29750.000000"
textLength="2821.889764" font-size="666.653543" lengthAdjust="spacingAndGlyphs"
text-anchor="start" opacity="0">ENABLE</text>
<g class="stroked-text"><desc>ENABLE</desc>
<path d="M54224 29464
L54390 29464
" />
<path d="M54462 29726
L54224 29726
L54224 29226
L54462 29226
" />
<path d="M54676 29726
L54676 29226
L54962 29726
L54962 29226
" />
<path d="M55176 29583
L55414 29583
" />
<path d="M55128 29726
L55295 29226
L55462 29726
" />
<path d="M55795 29464
L55866 29488
L55890 29511
L55914 29559
L55914 29630
L55890 29678
L55866 29702
L55819 29726
L55628 29726
L55628 29226
L55795 29226
L55843 29250
L55866 29273
L55890 29321
L55890 29369
L55866 29416
L55843 29440
L55795 29464
L55628 29464
" />
<path d="M56366 29726
L56128 29726
L56128 29226
" />
<path d="M56533 29464
L56700 29464
" />
<path d="M56771 29726
L56533 29726
L56533 29226
L56771 29226
" />
</g><path style="fill:#006464; fill-opacity:0.0; 
stroke:#006464; stroke-width:60.000000; stroke-opacity:1; 
stroke-linecap:round; stroke-linejoin:round;fill:none"
d="M 54000.000000,29500.000000
53750.000000,29250.000000
53500.000000,29250.000000
53500.000000,29750.000000
53750.000000,29750.000000
Z" /> 
<text x="55436.023622" y="25067.322835"
textLength="3869.527559" font-size="666.653543" lengthAdjust="spacingAndGlyphs"
text-anchor="middle" opacity="0">boost-led</text>
<g class="stroked-text"><desc>boost-led</desc>
<path d="M53650 25043
L53650 24543
" />
<path d="M53650 24733
L53697 24710
L53793 24710
L53840 24733
L53864 24757
L53888 24805
L53888 24948
L53864 24995
L53840 25019
L53793 25043
L53697 25043
L53650 25019
" />
<path d="M54174 25043
L54126 25019
L54102 24995
L54078 24948
L54078 24805
L54102 24757
L54126 24733
L54174 24710
L54245 24710
L54293 24733
L54316 24757
L54340 24805
L54340 24948
L54316 24995
L54293 25019
L54245 25043
L54174 25043
" />
<path d="M54626 25043
L54578 25019
L54555 24995
L54531 24948
L54531 24805
L54555 24757
L54578 24733
L54626 24710
L54697 24710
L54745 24733
L54769 24757
L54793 24805
L54793 24948
L54769 24995
L54745 25019
L54697 25043
L54626 25043
" />
<path d="M54983 25019
L55031 25043
L55126 25043
L55174 25019
L55197 24972
L55197 24948
L55174 24900
L55126 24876
L55055 24876
L55007 24853
L54983 24805
L54983 24781
L55007 24733
L55055 24710
L55126 24710
L55174 24733
" />
<path d="M55340 24710
L55531 24710
" />
<path d="M55412 24543
L55412 24972
L55436 25019
L55483 25043
L55531 25043
" />
<path d="M55697 24853
L56078 24853
" />
<path d="M56388 25043
L56340 25019
L56316 24972
L56316 24543
" />
<path d="M56769 25019
L56721 25043
L56626 25043
L56578 25019
L56555 24972
L56555 24781
L56578 24733
L56626 24710
L56721 24710
L56769 24733
L56793 24781
L56793 24829
L56555 24876
" />
<path d="M57221 25043
L57221 24543
" />
<path d="M57221 25019
L57174 25043
L57078 25043
L57031 25019
L57007 24995
L56983 24948
L56983 24805
L57007 24757
L57031 24733
L57078 24710
L57174 24710
L57221 24733
" />
</g></g>
<g style="fill:#725600; fill-opacity:0.0; 
stroke:#725600; stroke-width:60.000000; stroke-opacity:1; 
stroke-linecap:round; stroke-linejoin:round;">
<text x="57483.622047" y="31382.637795"
textLength="7964.763780" font-size="666.653543" lengthAdjust="spacingAndGlyphs"
text-anchor="middle" opacity="0">File: boost.kicad_sch</text>
<g class="stroked-text"><desc>File: boost.kicad_sch</desc>
<path d="M53816 31096
L53650 31096
" />
<path d="M53650 31358
L53650 30858
L53888 30858
" />
<path d="M54078 31358
L54078 31025
" />
<path d="M54078 30858
L54055 30882
L54078 30906
L54102 30882
L54078 30858
L54078 30906
" />
<path d="M54388 31358
L54340 31335
L54316 31287
L54316 30858
" />
<path d="M54769 31335
L54721 31358
L54626 31358
L54578 31335
L54555 31287
L54555 31096
L54578 31049
L54626 31025
L54721 31025
L54769 31049
L54793 31096
L54793 31144
L54555 31192
" />
<path d="M55007 31311
L55031 31335
L55007 31358
L54983 31335
L55007 31311
L55007 31358
" />
<path d="M55007 31049
L55031 31073
L55007 31096
L54983 31073
L55007 31049
L55007 31096
" />
<path d="M55626 31358
L55626 30858
" />
<path d="M55626 31049
L55674 31025
L55769 31025
L55816 31049
L55840 31073
L55864 31120
L55864 31263
L55840 31311
L55816 31335
L55769 31358
L55674 31358
L55626 31335
" />
<path d="M56150 31358
L56102 31335
L56078 31311
L56055 31263
L56055 31120
L56078 31073
L56102 31049
L56150 31025
L56221 31025
L56269 31049
L56293 31073
L56316 31120
L56316 31263
L56293 31311
L56269 31335
L56221 31358
L56150 31358
" />
<path d="M56602 31358
L56555 31335
L56531 31311
L56507 31263
L56507 31120
L56531 31073
L56555 31049
L56602 31025
L56674 31025
L56721 31049
L56745 31073
L56769 31120
L56769 31263
L56745 31311
L56721 31335
L56674 31358
L56602 31358
" />
<path d="M56959 31335
L57007 31358
L57102 31358
L57150 31335
L57174 31287
L57174 31263
L57150 31215
L57102 31192
L57031 31192
L56983 31168
L56959 31120
L56959 31096
L56983 31049
L57031 31025
L57102 31025
L57150 31049
" />
<path d="M57316 31025
L57507 31025
" />
<path d="M57388 30858
L57388 31287
L57412 31335
L57459 31358
L57507 31358
" />
<path d="M57674 31311
L57697 31335
L57674 31358
L57650 31335
L57674 31311
L57674 31358
" />
<path d="M57912 31358
L57912 30858
" />
<path d="M57959 31168
L58102 31358
" />
<path d="M58102 31025
L57912 31215
" />
<path d="M58316 31358
L58316 31025
" />
<path d="M58316 30858
L58293 30882
L58316 30906
L58340 30882
L58316 30858
L58316 30906
" />
<path d="M58769 31335
L58721 31358
L58626 31358
L58578 31335
L58555 31311
L58531 31263
L58531 31120
L58555 31073
L58578 31049
L58626 31025
L58721 31025
L58769 31049
" />
<path d="M59197 31358
L59197 31096
L59174 31049
L59126 31025
L59031 31025
L58983 31049
" />
<path d="M59197 31335
L59150 31358
L59031 31358
L58983 31335
L58959 31287
L58959 31239
L58983 31192
L59031 31168
L59150 31168
L59197 31144
" />
<path d="M59650 31358
L59650 30858
" />
<path d="M59650 31335
L59602 31358
L59507 31358
L59459 31335
L59435 31311
L59412 31263
L59412 31120
L59435 31073
L59459 31049
L59507 31025
L59602 31025
L59650 31049
" />
<path d="M59769 31406
L60150 31406
" />
<path d="M60245 31335
L60293 31358
L60388 31358
L60435 31335
L60459 31287
L60459 31263
L60435 31215
L60388 31192
L60316 31192
L60269 31168
L60245 31120
L60245 31096
L60269 31049
L60316 31025
L60388 31025
L60435 31049
" />
<path d="M60888 31335
L60840 31358
L60745 31358
L60697 31335
L60674 31311
L60650 31263
L60650 31120
L60674 31073
L60697 31049
L60745 31025
L60840 31025
L60888 31049
" />
<path d="M61102 31358
L61102 30858
" />
<path d="M61316 31358
L61316 31096
L61293 31049
L61245 31025
L61174 31025
L61126 31049
L61102 31073
" />
</g></g>
<g style="fill:#FFFFFF; fill-opacity:0.0; 
stroke:#FFFFFF; stroke-width:60.000000; stroke-opacity:1; 
stroke-linecap:round; stroke-linejoin:round;">
</g>
<g style="fill:#FFFFFF; fill-opacity:1.0; 
stroke:#FFFFFF; stroke-width:0.039370; stroke-opacity:1; 
stroke-linecap:round; stroke-linejoin:round;">
<rect x="53500.000000" y="37500.000000" width="8000.000000" height="5000.000000" rx="0.000000" />
</g>
<g style="fill:#840000; fill-opacity:1.0; 
stroke:#840000; stroke-width:0.039370; stroke-opacity:1; 
stroke-linecap:round; stroke-linejoin:round;">
</g>
<g style="fill:#840000; fill-opacity:0.0; 
stroke:#840000; stroke-width:60.000000; stroke-opacity:1; 
stroke-linecap:round; stroke-linejoin:round;">
<rect x="53500.000000" y="37500.000000" width="8000.000000" height="5000.000000" rx="0.000000" />
</g>
<g style="fill:#006464; fill-opacity:0.0; 
stroke:#006464; stroke-width:60.000000; stroke-opacity:1; 
stroke-linecap:round; stroke-linejoin:round;">
<text x="60925.000000" y="38750.000000"
textLength="3845.708661" font-size="666.653543" lengthAdjust="spacingAndGlyphs"
text-anchor="end" opacity="0">VBOOSTED</text>
<g class="stroked-text"><desc>VBOOSTED</desc>
<path d="M57156 38226
L57323 38726
L57490 38226
" />
<path d="M57823 38464
L57895 38488
L57918 38511
L57942 38559
L57942 38630
L57918 38678
L57895 38702
L57847 38726
L57656 38726
L57656 38226
L57823 38226
L57871 38250
L57895 38273
L57918 38321
L57918 38369
L57895 38416
L57871 38440
L57823 38464
L57656 38464
" />
<path d="M58252 38226
L58347 38226
L58395 38250
L58442 38297
L58466 38392
L58466 38559
L58442 38654
L58395 38702
L58347 38726
L58252 38726
L58204 38702
L58156 38654
L58133 38559
L58133 38392
L58156 38297
L58204 38250
L58252 38226
" />
<path d="M58775 38226
L58871 38226
L58918 38250
L58966 38297
L58990 38392
L58990 38559
L58966 38654
L58918 38702
L58871 38726
L58775 38726
L58728 38702
L58680 38654
L58656 38559
L58656 38392
L58680 38297
L58728 38250
L58775 38226
" />
<path d="M59180 38702
L59252 38726
L59371 38726
L59418 38702
L59442 38678
L59466 38630
L59466 38583
L59442 38535
L59418 38511
L59371 38488
L59275 38464
L59228 38440
L59204 38416
L59180 38369
L59180 38321
L59204 38273
L59228 38250
L59275 38226
L59395 38226
L59466 38250
" />
<path d="M59609 38226
L59895 38226
" />
<path d="M59752 38726
L59752 38226
" />
<path d="M60061 38464
L60228 38464
" />
<path d="M60299 38726
L60061 38726
L60061 38226
L60299 38226
" />
<path d="M60514 38726
L60514 38226
L60633 38226
L60704 38250
L60752 38297
L60775 38345
L60799 38440
L60799 38511
L60775 38607
L60752 38654
L60704 38702
L60633 38726
L60514 38726
" />
</g><path style="fill:#006464; fill-opacity:0.0; 
stroke:#006464; stroke-width:60.000000; stroke-opacity:1; 
stroke-linecap:round; stroke-linejoin:round;fill:none"
d="M 61500.000000,38500.000000
61250.000000,38250.000000
61000.000000,38250.000000
61000.000000,38750.000000
61250.000000,38750.000000
Z" /> 
<text x="54075.000000" y="38750.000000"
textLength="1250.472441" font-size="666.653543" lengthAdjust="spacingAndGlyphs"
text-anchor="start" opacity="0">VIN</text>
<g class="stroked-text"><desc>VIN</desc>
<path d="M54152 38226
L54319 38726
L54485 38226
" />
<path d="M54652 38726
L54652 38226
" />
<path d="M54890 38726
L54890 38226
L55176 38726
L55176 38226
" />
</g><path style="fill:#006464; fill-opacity:0.0; 
stroke:#006464; stroke-width:60.000000; stroke-opacity:1; 
stroke-linecap:round; stroke-linejoin:round;fill:none"
d="M 53500.000000,38250.000000
54000.000000,38250.000000
54000.000000,38750.000000
53500.000000,38750.000000
Z" /> 
<text x="54075.000000" y="39750.000000"
textLength="1583.818898" font-size="666.653543" lengthAdjust="spacingAndGlyphs"
text-anchor="start" opacity="0">GND</text>
<g class="stroked-text"><desc>GND</desc>
<path d="M54485 39250
L54438 39226
L54366 39226
L54295 39250
L54247 39297
L54224 39345
L54200 39440
L54200 39511
L54224 39607
L54247 39654
L54295 39702
L54366 39726
L54414 39726
L54485 39702
L54509 39678
L54509 39511
L54414 39511
" />
<path d="M54724 39726
L54724 39226
L55009 39726
L55009 39226
" />
<path d="M55247 39726
L55247 39226
L55366 39226
L55438 39250
L55485 39297
L55509 39345
L55533 39440
L55533 39511
L55509 39607
L55485 39654
L55438 39702
L55366 39726
L55247 39726
" />
</g><path style="fill:#006464; fill-opacity:0.0; 
stroke:#006464; stroke-width:60.000000; stroke-opacity:1; 
stroke-linecap:round; stroke-linejoin:round;fill:none"
d="M 53500.000000,39250.000000
54000.000000,39250.000000
54000.000000,39750.000000
53500.000000,39750.000000
Z" /> 
<text x="54075.000000" y="41750.000000"
textLength="2821.889764" font-size="666.653543" lengthAdjust="spacingAndGlyphs"
text-anchor="start" opacity="0">ENABLE</text>
<g class="stroked-text"><desc>ENABLE</desc>
<path d="M54224 41464
L54390 41464
" />
<path d="M54462 41726
L54224 41726
L54224 41226
L54462 41226
" />
<path d="M54676 41726
L54676 41226
L54962 41726
L54962 41226
" />
<path d="M55176 41583
L55414 41583
" />
<path d="M55128 41726
L55295 41226
L55462 41726
" />
<path d="M55795 41464
L55866 41488
L55890 41511
L55914 41559
L55914 41630
L55890 41678
L55866 41702
L55819 41726
L55628 41726
L55628 41226
L55795 41226
L55843 41250
L55866 41273
L55890 41321
L55890 41369
L55866 41416
L55843 41440
L55795 41464
L55628 41464
" />
<path d="M56366 41726
L56128 41726
L56128 41226
" />
<path d="M56533 41464
L56700 41464
" />
<path d="M56771 41726
L56533 41726
L56533 41226
L56771 41226
" />
</g><path style="fill:#006464; fill-opacity:0.0; 
stroke:#006464; stroke-width:60.000000; stroke-opacity:1; 
stroke-linecap:round; stroke-linejoin:round;fill:none"
d="M 54000.000000,41500.000000
53750.000000,41250.000000
53500.000000,41250.000000
53500.000000,41750.000000
53750.000000,41750.000000
Z" /> 
<text x="55852.677165" y="37067.322835"
textLength="4702.874016" font-size="666.653543" lengthAdjust="spacingAndGlyphs"
text-anchor="middle" opacity="0">boost-servo</text>
<g class="stroked-text"><desc>boost-servo</desc>
<path d="M53650 37043
L53650 36543
" />
<path d="M53650 36733
L53697 36710
L53793 36710
L53840 36733
L53864 36757
L53888 36805
L53888 36948
L53864 36995
L53840 37019
L53793 37043
L53697 37043
L53650 37019
" />
<path d="M54174 37043
L54126 37019
L54102 36995
L54078 36948
L54078 36805
L54102 36757
L54126 36733
L54174 36710
L54245 36710
L54293 36733
L54316 36757
L54340 36805
L54340 36948
L54316 36995
L54293 37019
L54245 37043
L54174 37043
" />
<path d="M54626 37043
L54578 37019
L54555 36995
L54531 36948
L54531 36805
L54555 36757
L54578 36733
L54626 36710
L54697 36710
L54745 36733
L54769 36757
L54793 36805
L54793 36948
L54769 36995
L54745 37019
L54697 37043
L54626 37043
" />
<path d="M54983 37019
L55031 37043
L55126 37043
L55174 37019
L55197 36972
L55197 36948
L55174 36900
L55126 36876
L55055 36876
L55007 36853
L54983 36805
L54983 36781
L55007 36733
L55055 36710
L55126 36710
L55174 36733
" />
<path d="M55340 36710
L55531 36710
" />
<path d="M55412 36543
L55412 36972
L55435 37019
L55483 37043
L55531 37043
" />
<path d="M55697 36853
L56078 36853
" />
<path d="M56293 37019
L56340 37043
L56435 37043
L56483 37019
L56507 36972
L56507 36948
L56483 36900
L56435 36876
L56364 36876
L56316 36853
L56293 36805
L56293 36781
L56316 36733
L56364 36710
L56435 36710
L56483 36733
" />
<path d="M56912 37019
L56864 37043
L56769 37043
L56721 37019
L56697 36972
L56697 36781
L56721 36733
L56769 36710
L56864 36710
L56912 36733
L56935 36781
L56935 36829
L56697 36876
" />
<path d="M57150 37043
L57150 36710
" />
<path d="M57150 36805
L57174 36757
L57197 36733
L57245 36710
L57293 36710
" />
<path d="M57412 36710
L57531 37043
L57650 36710
" />
<path d="M57912 37043
L57864 37019
L57840 36995
L57816 36948
L57816 36805
L57840 36757
L57864 36733
L57912 36710
L57983 36710
L58031 36733
L58055 36757
L58078 36805
L58078 36948
L58055 36995
L58031 37019
L57983 37043
L57912 37043
" />
</g></g>
<g style="fill:#725600; fill-opacity:0.0; 
stroke:#725600; stroke-width:60.000000; stroke-opacity:1; 
stroke-linecap:round; stroke-linejoin:round;">
<text x="57483.622047" y="43382.637795"
textLength="7964.763780" font-size="666.653543" lengthAdjust="spacingAndGlyphs"
text-anchor="middle" opacity="0">File: boost.kicad_sch</text>
<g class="stroked-text"><desc>File: boost.kicad_sch</desc>
<path d="M53816 43096
L53650 43096
" />
<path d="M53650 43358
L53650 42858
L53888 42858
" />
<path d="M54078 43358
L54078 43025
" />
<path d="M54078 42858
L54055 42882
L54078 42906
L54102 42882
L54078 42858
L54078 42906
" />
<path d="M54388 43358
L54340 43335
L54316 43287
L54316 42858
" />
<path d="M54769 43335
L54721 43358
L54626 43358
L54578 43335
L54555 43287
L54555 43096
L54578 43049
L54626 43025
L54721 43025
L54769 43049
L54793 43096
L54793 43144
L54555 43192
" />
<path d="M55007 43311
L55031 43335
L55007 43358
L54983 43335
L55007 43311
L55007 43358
" />
<path d="M55007 43049
L55031 43073
L55007 43096
L54983 43073
L55007 43049
L55007 43096
" />
<path d="M55626 43358
L55626 42858
" />
<path d="M55626 43049
L55674 43025
L55769 43025
L55816 43049
L55840 43073
L55864 43120
L55864 43263
L55840 43311
L55816 43335
L55769 43358
L55674 43358
L55626 43335
" />
<path d="M56150 43358
L56102 43335
L56078 43311
L56055 43263
L56055 43120
L56078 43073
L56102 43049
L56150 43025
L56221 43025
L56269 43049
L56293 43073
L56316 43120
L56316 43263
L56293 43311
L56269 43335
L56221 43358
L56150 43358
" />
<path d="M56602 43358
L56555 43335
L56531 43311
L56507 43263
L56507 43120
L56531 43073
L56555 43049
L56602 43025
L56674 43025
L56721 43049
L56745 43073
L56769 43120
L56769 43263
L56745 43311
L56721 43335
L56674 43358
L56602 43358
" />
<path d="M56959 43335
L57007 43358
L57102 43358
L57150 43335
L57174 43287
L57174 43263
L57150 43215
L57102 43192
L57031 43192
L56983 43168
L56959 43120
L56959 43096
L56983 43049
L57031 43025
L57102 43025
L57150 43049
" />
<path d="M57316 43025
L57507 43025
" />
<path d="M57388 42858
L57388 43287
L57412 43335
L57459 43358
L57507 43358
" />
<path d="M57674 43311
L57697 43335
L57674 43358
L57650 43335
L57674 43311
L57674 43358
" />
<path d="M57912 43358
L57912 42858
" />
<path d="M57959 43168
L58102 43358
" />
<path d="M58102 43025
L57912 43215
" />
<path d="M58316 43358
L58316 43025
" />
<path d="M58316 42858
L58293 42882
L58316 42906
L58340 42882
L58316 42858
L58316 42906
" />
<path d="M58769 43335
L58721 43358
L58626 43358
L58578 43335
L58555 43311
L58531 43263
L58531 43120
L58555 43073
L58578 43049
L58626 43025
L58721 43025
L58769 43049
" />
<path d="M59197 43358
L59197 43096
L59174 43049
L59126 43025
L59031 43025
L58983 43049
" />
<path d="M59197 43335
L59150 43358
L59031 43358
L58983 43335
L58959 43287
L58959 43239
L58983 43192
L59031 43168
L59150 43168
L59197 43144
" />
<path d="M59650 43358
L59650 42858
" />
<path d="M59650 43335
L59602 43358
L59507 43358
L59459 43335
L59435 43311
L59412 43263
L59412 43120
L59435 43073
L59459 43049
L59507 43025
L59602 43025
L59650 43049
" />
<path d="M59769 43406
L60150 43406
" />
<path d="M60245 43335
L60293 43358
L60388 43358
L60435 43335
L60459 43287
L60459 43263
L60435 43215
L60388 43192
L60316 43192
L60269 43168
L60245 43120
L60245 43096
L60269 43049
L60316 43025
L60388 43025
L60435 43049
" />
<path d="M60888 43335
L60840 43358
L60745 43358
L60697 43335
L60674 43311
L60650 43263
L60650 43120
L60674 43073
L60697 43049
L60745 43025
L60840 43025
L60888 43049
" />
<path d="M61102 43358
L61102 42858
" />
<path d="M61316 43358
L61316 43096
L61293 43049
L61245 43025
L61174 43025
L61126 43049
L61102 43073
" />
</g><g >
</g>
<g style="fill:#840000; fill-opacity:0.0; 
stroke:#840000; stroke-width:60.000000; stroke-opacity:1; 
stroke-linecap:round; stroke-linejoin:round;">
<rect x="86000.000000" y="26500.000000" width="1000.000000" height="2000.000000" rx="0.000000" />
<path style="fill:#840000; fill-opacity:0.0; 
stroke:#840000; stroke-width:60.000000; stroke-opacity:1; 
stroke-linecap:round; stroke-linejoin:round;fill:none"
d="M 86000.000000,27000.000000
86160.000000,27000.000000
" /> 
<path style="fill:#840000; fill-opacity:0.0; 
stroke:#840000; stroke-width:60.000000; stroke-opacity:1; 
stroke-linecap:round; stroke-linejoin:round;fill:none"
d="M 86000.000000,28000.000000
86160.000000,28000.000000
" /> 
</g>
<g style="fill:#840000; fill-opacity:1.0; 
stroke:#840000; stroke-width:60.000000; stroke-opacity:1; 
stroke-linecap:round; stroke-linejoin:round;">
<rect x="86160.000000" y="26950.000000" width="340.000000" height="100.000000" rx="0.000000" />
<rect x="86160.000000" y="27950.000000" width="340.000000" height="100.000000" rx="0.000000" />
</g>
<g style="fill:#840000; fill-opacity:0.0; 
stroke:#840000; stroke-width:60.000000; stroke-opacity:1; 
stroke-linecap:round; stroke-linejoin:round;">
<path d="M86000 28000
L84500 28000
" />
</g>
<g style="fill:#A90000; fill-opacity:0.0; 
stroke:#A90000; stroke-width:60.000000; stroke-opacity:1; 
stroke-linecap:round; stroke-linejoin:round;">
<text x="85250.000000" y="27900.000000"
textLength="536.181102" font-size="666.653543" lengthAdjust="spacingAndGlyphs"
text-anchor="middle" opacity="0">1</text>
<g class="stroked-text"><desc>1</desc>
<path d="M85392 27876
L85107 27876
" />
<path d="M85250 27876
L85250 27376
L85202 27447
L85154 27495
L85107 27519
" />
</g></g>
<g style="fill:#840000; fill-opacity:0.0; 
stroke:#840000; stroke-width:60.000000; stroke-opacity:1; 
stroke-linecap:round; stroke-linejoin:round;">
<path d="M86000 27000
L84500 27000
" />
</g>
<g style="fill:#A90000; fill-opacity:0.0; 
stroke:#A90000; stroke-width:60.000000; stroke-opacity:1; 
stroke-linecap:round; stroke-linejoin:round;">
<text x="85250.000000" y="26900.000000"
textLength="536.181102" font-size="666.653543" lengthAdjust="spacingAndGlyphs"
text-anchor="middle" opacity="0">2</text>
<g class="stroked-text"><desc>2</desc>
<path d="M85107 26423
L85130 26400
L85178 26376
L85297 26376
L85345 26400
L85369 26423
L85392 26471
L85392 26519
L85369 26590
L85083 26876
L85392 26876
" />
</g></g>
<g style="fill:#006464; fill-opacity:0.0; 
stroke:#006464; stroke-width:60.000000; stroke-opacity:1; 
stroke-linecap:round; stroke-linejoin:round;">
<text x="86499.960630" y="26250.000000"
textLength="917.125984" font-size="666.653543" lengthAdjust="spacingAndGlyphs"
text-anchor="middle" opacity="0">J1</text>
<g class="stroked-text"><desc>J1</desc>
<path d="M86333 25726
L86333 26083
L86309 26154
L86261 26202
L86190 26226
L86142 26226
" />
<path d="M86833 26226
L86547 26226
" />
<path d="M86690 26226
L86690 25726
L86642 25797
L86595 25845
L86547 25869
" />
</g><text x="86500.000000" y="29250.000000"
textLength="14321.889764" font-size="666.653543" lengthAdjust="spacingAndGlyphs"
text-anchor="middle" opacity="0">HEADER_01X02_JST_ZH_SMD_VERTICAL</text>
<g class="stroked-text"><desc>HEADER_01X02_JST_ZH_SMD_VERTICAL</desc>
<path d="M79488 29226
L79488 28726
" />
<path d="M79488 28964
L79773 28964
" />
<path d="M79773 29226
L79773 28726
" />
<path d="M80011 28964
L80178 28964
" />
<path d="M80250 29226
L80011 29226
L80011 28726
L80250 28726
" />
<path d="M80440 29083
L80678 29083
" />
<path d="M80392 29226
L80559 28726
L80726 29226
" />
<path d="M80892 29226
L80892 28726
L81011 28726
L81083 28750
L81130 28797
L81154 28845
L81178 28940
L81178 29011
L81154 29107
L81130 29154
L81083 29202
L81011 29226
L80892 29226
" />
<path d="M81392 28964
L81559 28964
" />
<path d="M81630 29226
L81392 29226
L81392 28726
L81630 28726
" />
<path d="M82130 29226
L81964 28988
" />
<path d="M81845 29226
L81845 28726
L82035 28726
L82083 28750
L82107 28773
L82130 28821
L82130 28892
L82107 28940
L82083 28964
L82035 28988
L81845 28988
" />
<path d="M82226 29273
L82607 29273
" />
<path d="M82821 28726
L82869 28726
L82916 28750
L82940 28773
L82964 28821
L82988 28916
L82988 29035
L82964 29130
L82940 29178
L82916 29202
L82869 29226
L82821 29226
L82773 29202
L82750 29178
L82726 29130
L82702 29035
L82702 28916
L82726 28821
L82750 28773
L82773 28750
L82821 28726
" />
<path d="M83464 29226
L83178 29226
" />
<path d="M83321 29226
L83321 28726
L83273 28797
L83226 28845
L83178 28869
" />
<path d="M83630 28726
L83964 29226
" />
<path d="M83964 28726
L83630 29226
" />
<path d="M84250 28726
L84297 28726
L84345 28750
L84369 28773
L84392 28821
L84416 28916
L84416 29035
L84392 29130
L84369 29178
L84345 29202
L84297 29226
L84250 29226
L84202 29202
L84178 29178
L84154 29130
L84130 29035
L84130 28916
L84154 28821
L84178 28773
L84202 28750
L84250 28726
" />
<path d="M84607 28773
L84630 28750
L84678 28726
L84797 28726
L84845 28750
L84869 28773
L84892 28821
L84892 28869
L84869 28940
L84583 29226
L84892 29226
" />
<path d="M84988 29273
L85369 29273
" />
<path d="M85630 28726
L85630 29083
L85607 29154
L85559 29202
L85488 29226
L85440 29226
" />
<path d="M85845 29202
L85916 29226
L86035 29226
L86083 29202
L86107 29178
L86130 29130
L86130 29083
L86107 29035
L86083 29011
L86035 28988
L85940 28964
L85892 28940
L85869 28916
L85845 28869
L85845 28821
L85869 28773
L85892 28750
L85940 28726
L86059 28726
L86130 28750
" />
<path d="M86273 28726
L86559 28726
" />
<path d="M86416 29226
L86416 28726
" />
<path d="M86607 29273
L86988 29273
" />
<path d="M87059 28726
L87392 28726
L87059 29226
L87392 29226
" />
<path d="M87583 29226
L87583 28726
" />
<path d="M87583 28964
L87869 28964
" />
<path d="M87869 29226
L87869 28726
" />
<path d="M87988 29273
L88369 29273
" />
<path d="M88464 29202
L88535 29226
L88654 29226
L88702 29202
L88726 29178
L88750 29130
L88750 29083
L88726 29035
L88702 29011
L88654 28988
L88559 28964
L88511 28940
L88488 28916
L88464 28869
L88464 28821
L88488 28773
L88511 28750
L88559 28726
L88678 28726
L88750 28750
" />
<path d="M88964 29226
L88964 28726
L89130 29083
L89297 28726
L89297 29226
" />
<path d="M89535 29226
L89535 28726
L89654 28726
L89726 28750
L89773 28797
L89797 28845
L89821 28940
L89821 29011
L89797 29107
L89773 29154
L89726 29202
L89654 29226
L89535 29226
" />
<path d="M89916 29273
L90297 29273
" />
<path d="M90345 28726
L90511 29226
L90678 28726
" />
<path d="M90845 28964
L91011 28964
" />
<path d="M91083 29226
L90845 29226
L90845 28726
L91083 28726
" />
<path d="M91583 29226
L91416 28988
" />
<path d="M91297 29226
L91297 28726
L91488 28726
L91535 28750
L91559 28773
L91583 28821
L91583 28892
L91559 28940
L91535 28964
L91488 28988
L91297 28988
" />
<path d="M91726 28726
L92011 28726
" />
<path d="M91869 29226
L91869 28726
" />
<path d="M92178 29226
L92178 28726
" />
<path d="M92702 29178
L92678 29202
L92607 29226
L92559 29226
L92488 29202
L92440 29154
L92416 29107
L92392 29011
L92392 28940
L92416 28845
L92440 28797
L92488 28750
L92559 28726
L92607 28726
L92678 28750
L92702 28773
" />
<path d="M92892 29083
L93130 29083
" />
<path d="M92845 29226
L93011 28726
L93178 29226
" />
<path d="M93583 29226
L93345 29226
L93345 28726
" />
</g></g>
</g>
<g style="fill:#006464; fill-opacity:0.0; 
stroke:#006464; stroke-width:62.519685; stroke-opacity:1; 
stroke-linecap:round; stroke-linejoin:round;">
</g>
<g style="fill:#006464; fill-opacity:0.0; 
stroke:#006464; stroke-width:60.000000; stroke-opacity:1; 
stroke-linecap:round; stroke-linejoin:round;">
</g>
<g style="fill:#725600; fill-opacity:0.0; 
stroke:#725600; stroke-width:60.000000; stroke-opacity:1; 
stroke-linecap:round; stroke-linejoin:round;">
<text x="63075.000000" y="38750.000000"
textLength="2869.527559" font-size="666.653543" lengthAdjust="spacingAndGlyphs"
text-anchor="start" opacity="0">VSERVO</text>
<g class="stroked-text"><desc>VSERVO</desc>
<path d="M63152 38226
L63319 38726
L63485 38226
" />
<path d="M63628 38702
L63700 38726
L63819 38726
L63866 38702
L63890 38678
L63914 38630
L63914 38583
L63890 38535
L63866 38511
L63819 38488
L63724 38464
L63676 38440
L63652 38416
L63628 38369
L63628 38321
L63652 38273
L63676 38250
L63724 38226
L63843 38226
L63914 38250
" />
<path d="M64128 38464
L64295 38464
" />
<path d="M64366 38726
L64128 38726
L64128 38226
L64366 38226
" />
<path d="M64866 38726
L64700 38488
" />
<path d="M64581 38726
L64581 38226
L64771 38226
L64819 38250
L64843 38273
L64866 38321
L64866 38392
L64843 38440
L64819 38464
L64771 38488
L64581 38488
" />
<path d="M65009 38226
L65176 38726
L65343 38226
" />
<path d="M65605 38226
L65700 38226
L65747 38250
L65795 38297
L65819 38392
L65819 38559
L65795 38654
L65747 38702
L65700 38726
L65605 38726
L65557 38702
L65509 38654
L65485 38559
L65485 38392
L65509 38297
L65557 38250
L65605 38226
" />
</g><path style="fill:#725600; fill-opacity:0.0; 
stroke:#725600; stroke-width:60.000000; stroke-opacity:1; 
stroke-linecap:round; stroke-linejoin:round;fill:none"
d="M 62500.000000,38250.000000
63000.000000,38250.000000
63000.000000,38750.000000
62500.000000,38750.000000
Z" /> 
</g>
<g style="fill:#725600; fill-opacity:0.0; 
stroke:#725600; stroke-width:62.519685; stroke-opacity:1; 
stroke-linecap:round; stroke-linejoin:round;">
</g>
<g style="fill:#725600; fill-opacity:0.0; 
stroke:#725600; stroke-width:60.000000; stroke-opacity:1; 
stroke-linecap:round; stroke-linejoin:round;">
<text x="63075.000000" y="26750.000000"
textLength="1845.708661" font-size="666.653543" lengthAdjust="spacingAndGlyphs"
text-anchor="start" opacity="0">VLED</text>
<g class="stroked-text"><desc>VLED</desc>
<path d="M63152 26226
L63319 26726
L63485 26226
" />
<path d="M63890 26726
L63652 26726
L63652 26226
" />
<path d="M64057 26464
L64224 26464
" />
<path d="M64295 26726
L64057 26726
L64057 26226
L64295 26226
" />
<path d="M64509 26726
L64509 26226
L64628 26226
L64700 26250
L64747 26297
L64771 26345
L64795 26440
L64795 26511
L64771 26607
L64747 26654
L64700 26702
L64628 26726
L64509 26726
" />
</g><path style="fill:#725600; fill-opacity:0.0; 
stroke:#725600; stroke-width:60.000000; stroke-opacity:1; 
stroke-linecap:round; stroke-linejoin:round;fill:none"
d="M 62500.000000,26250.000000
63000.000000,26250.000000
63000.000000,26750.000000
62500.000000,26750.000000
Z" /> 
</g>
<g style="fill:#725600; fill-opacity:0.0; 
stroke:#725600; stroke-width:62.519685; stroke-opacity:1; 
stroke-linecap:round; stroke-linejoin:round;">
</g>
<g style="fill:#725600; fill-opacity:0.0; 
stroke:#725600; stroke-width:60.000000; stroke-opacity:1; 
stroke-linecap:round; stroke-linejoin:round;">
<text x="35925.000000" y="26750.000000"
textLength="3560.000000" font-size="666.653543" lengthAdjust="spacingAndGlyphs"
text-anchor="end" opacity="0">VBATTERY</text>
<g class="stroked-text"><desc>VBATTERY</desc>
<path d="M32442 26226
L32609 26726
L32775 26226
" />
<path d="M33109 26464
L33180 26488
L33204 26511
L33228 26559
L33228 26630
L33204 26678
L33180 26702
L33133 26726
L32942 26726
L32942 26226
L33109 26226
L33156 26250
L33180 26273
L33204 26321
L33204 26369
L33180 26416
L33156 26440
L33109 26464
L32942 26464
" />
<path d="M33418 26583
L33656 26583
" />
<path d="M33371 26726
L33537 26226
L33704 26726
" />
<path d="M33799 26226
L34085 26226
" />
<path d="M33942 26726
L33942 26226
" />
<path d="M34180 26226
L34466 26226
" />
<path d="M34323 26726
L34323 26226
" />
<path d="M34633 26464
L34799 26464
" />
<path d="M34871 26726
L34633 26726
L34633 26226
L34871 26226
" />
<path d="M35371 26726
L35204 26488
" />
<path d="M35085 26726
L35085 26226
L35275 26226
L35323 26250
L35347 26273
L35371 26321
L35371 26392
L35347 26440
L35323 26464
L35275 26488
L35085 26488
" />
<path d="M35680 26488
L35680 26726
" />
<path d="M35514 26226
L35680 26488
L35847 26226
" />
</g><path style="fill:#725600; fill-opacity:0.0; 
stroke:#725600; stroke-width:60.000000; stroke-opacity:1; 
stroke-linecap:round; stroke-linejoin:round;fill:none"
d="M 36500.000000,26250.000000
36000.000000,26250.000000
36000.000000,26750.000000
36500.000000,26750.000000
Z" /> 
</g>
<g style="fill:#725600; fill-opacity:0.0; 
stroke:#725600; stroke-width:62.519685; stroke-opacity:1; 
stroke-linecap:round; stroke-linejoin:round;">
</g>
<g style="fill:#725600; fill-opacity:0.0; 
stroke:#725600; stroke-width:60.000000; stroke-opacity:1; 
stroke-linecap:round; stroke-linejoin:round;">
<text x="35925.000000" y="27750.000000"
textLength="1583.818898" font-size="666.653543" lengthAdjust="spacingAndGlyphs"
text-anchor="end" opacity="0">GND</text>
<g class="stroked-text"><desc>GND</desc>
<path d="M34752 27250
L34704 27226
L34633 27226
L34561 27250
L34514 27297
L34490 27345
L34466 27440
L34466 27511
L34490 27607
L34514 27654
L34561 27702
L34633 27726
L34680 27726
L34752 27702
L34775 27678
L34775 27511
L34680 27511
" />
<path d="M34990 27726
L34990 27226
L35275 27726
L35275 27226
" />
<path d="M35514 27726
L35514 27226
L35633 27226
L35704 27250
L35752 27297
L35775 27345
L35799 27440
L35799 27511
L35775 27607
L35752 27654
L35704 27702
L35633 27726
L35514 27726
" />
</g><path style="fill:#725600; fill-opacity:0.0; 
stroke:#725600; stroke-width:60.000000; stroke-opacity:1; 
stroke-linecap:round; stroke-linejoin:round;fill:none"
d="M 36500.000000,27250.000000
36000.000000,27250.000000
36000.000000,27750.000000
36500.000000,27750.000000
Z" /> 
</g>
<g style="fill:#725600; fill-opacity:0.0; 
stroke:#725600; stroke-width:62.519685; stroke-opacity:1; 
stroke-linecap:round; stroke-linejoin:round;">
</g>
<g style="fill:#725600; fill-opacity:0.0; 
stroke:#725600; stroke-width:60.000000; stroke-opacity:1; 
stroke-linecap:round; stroke-linejoin:round;">
<text x="82925.000000" y="27250.000000"
textLength="4679.055118" font-size="666.653543" lengthAdjust="spacingAndGlyphs"
text-anchor="end" opacity="0">~{DISABLE_ALL}</text>
<g class="stroked-text"><desc>~{DISABLE_ALL}</desc>
<path d="M78275 26585
L78775 26585
" />
<path d="M78395 27226
L78395 26726
L78514 26726
L78585 26750
L78633 26797
L78656 26845
L78680 26940
L78680 27011
L78656 27107
L78633 27154
L78585 27202
L78514 27226
L78395 27226
" />
<path d="M78775 26585
L79014 26585
" />
<path d="M78895 27226
L78895 26726
" />
<path d="M79014 26585
L79490 26585
" />
<path d="M79109 27202
L79180 27226
L79299 27226
L79347 27202
L79371 27178
L79395 27130
L79395 27083
L79371 27035
L79347 27011
L79299 26988
L79204 26964
L79156 26940
L79133 26916
L79109 26869
L79109 26821
L79133 26773
L79156 26750
L79204 26726
L79323 26726
L79395 26750
" />
<path d="M79490 26585
L79918 26585
" />
<path d="M79585 27083
L79823 27083
" />
<path d="M79537 27226
L79704 26726
L79871 27226
" />
<path d="M79918 26585
L80418 26585
" />
<path d="M80204 26964
L80275 26988
L80299 27011
L80323 27059
L80323 27130
L80299 27178
L80275 27202
L80228 27226
L80037 27226
L80037 26726
L80204 26726
L80252 26750
L80275 26773
L80299 26821
L80299 26869
L80275 26916
L80252 26940
L80204 26964
L80037 26964
" />
<path d="M80418 26585
L80823 26585
" />
<path d="M80775 27226
L80537 27226
L80537 26726
" />
<path d="M80823 26585
L81275 26585
" />
<path d="M80942 26964
L81109 26964
" />
<path d="M81180 27226
L80942 27226
L80942 26726
L81180 26726
" />
<path d="M81275 26585
L81656 26585
" />
<path d="M81275 27273
L81656 27273
" />
<path d="M81656 26585
L82085 26585
" />
<path d="M81752 27083
L81990 27083
" />
<path d="M81704 27226
L81871 26726
L82037 27226
" />
<path d="M82085 26585
L82490 26585
" />
<path d="M82442 27226
L82204 27226
L82204 26726
" />
<path d="M82490 26585
L82895 26585
" />
<path d="M82847 27226
L82609 27226
L82609 26726
" />
</g><path style="fill:#725600; fill-opacity:0.0; 
stroke:#725600; stroke-width:60.000000; stroke-opacity:1; 
stroke-linecap:round; stroke-linejoin:round;fill:none"
d="M 83000.000000,27000.000000
83250.000000,27250.000000
83500.000000,27250.000000
83500.000000,26750.000000
83250.000000,26750.000000
Z" /> 
</g>
<g style="fill:#725600; fill-opacity:0.0; 
stroke:#725600; stroke-width:62.519685; stroke-opacity:1; 
stroke-linecap:round; stroke-linejoin:round;">
</g>
<g style="fill:#725600; fill-opacity:0.0; 
stroke:#725600; stroke-width:60.000000; stroke-opacity:1; 
stroke-linecap:round; stroke-linejoin:round;">
<text x="51925.000000" y="29750.000000"
textLength="4560.000000" font-size="666.653543" lengthAdjust="spacingAndGlyphs"
text-anchor="end" opacity="0">ENABLE_LED</text>
<g class="stroked-text"><desc>ENABLE_LED</desc>
<path d="M47514 29464
L47680 29464
" />
<path d="M47752 29726
L47514 29726
L47514 29226
L47752 29226
" />
<path d="M47966 29726
L47966 29226
L48252 29726
L48252 29226
" />
<path d="M48466 29583
L48704 29583
" />
<path d="M48418 29726
L48585 29226
L48752 29726
" />
<path d="M49085 29464
L49156 29488
L49180 29511
L49204 29559
L49204 29630
L49180 29678
L49156 29702
L49109 29726
L48918 29726
L48918 29226
L49085 29226
L49133 29250
L49156 29273
L49180 29321
L49180 29369
L49156 29416
L49133 29440
L49085 29464
L48918 29464
" />
<path d="M49656 29726
L49418 29726
L49418 29226
" />
<path d="M49823 29464
L49990 29464
" />
<path d="M50061 29726
L49823 29726
L49823 29226
L50061 29226
" />
<path d="M50156 29773
L50537 29773
" />
<path d="M50895 29726
L50656 29726
L50656 29226
" />
<path d="M51061 29464
L51228 29464
" />
<path d="M51299 29726
L51061 29726
L51061 29226
L51299 29226
" />
<path d="M51514 29726
L51514 29226
L51633 29226
L51704 29250
L51752 29297
L51775 29345
L51799 29440
L51799 29511
L51775 29607
L51752 29654
L51704 29702
L51633 29726
L51514 29726
" />
</g><path style="fill:#725600; fill-opacity:0.0; 
stroke:#725600; stroke-width:60.000000; stroke-opacity:1; 
stroke-linecap:round; stroke-linejoin:round;fill:none"
d="M 52500.000000,29500.000000
52250.000000,29250.000000
52000.000000,29250.000000
52000.000000,29750.000000
52250.000000,29750.000000
Z" /> 
</g>
<g style="fill:#725600; fill-opacity:0.0; 
stroke:#725600; stroke-width:62.519685; stroke-opacity:1; 
stroke-linecap:round; stroke-linejoin:round;">
</g>
<g style="fill:#725600; fill-opacity:0.0; 
stroke:#725600; stroke-width:60.000000; stroke-opacity:1; 
stroke-linecap:round; stroke-linejoin:round;">
<text x="51925.000000" y="41750.000000"
textLength="5583.818898" font-size="666.653543" lengthAdjust="spacingAndGlyphs"
text-anchor="end" opacity="0">ENABLE_SERVO</text>
<g class="stroked-text"><desc>ENABLE_SERVO</desc>
<path d="M46490 41464
L46656 41464
" />
<path d="M46728 41726
L46490 41726
L46490 41226
L46728 41226
" />
<path d="M46942 41726
L46942 41226
L47228 41726
L47228 41226
" />
<path d="M47442 41583
L47680 41583
" />
<path d="M47395 41726
L47561 41226
L47728 41726
" />
<path d="M48061 41464
L48133 41488
L48156 41511
L48180 41559
L48180 41630
L48156 41678
L48133 41702
L48085 41726
L47895 41726
L47895 41226
L48061 41226
L48109 41250
L48133 41273
L48156 41321
L48156 41369
L48133 41416
L48109 41440
L48061 41464
L47895 41464
" />
<path d="M48633 41726
L48395 41726
L48395 41226
" />
<path d="M48799 41464
L48966 41464
" />
<path d="M49037 41726
L48799 41726
L48799 41226
L49037 41226
" />
<path d="M49133 41773
L49514 41773
" />
<path d="M49609 41702
L49680 41726
L49799 41726
L49847 41702
L49871 41678
L49895 41630
L49895 41583
L49871 41535
L49847 41511
L49799 41488
L49704 41464
L49656 41440
L49633 41416
L49609 41369
L49609 41321
L49633 41273
L49656 41250
L49704 41226
L49823 41226
L49895 41250
" />
<path d="M50109 41464
L50275 41464
" />
<path d="M50347 41726
L50109 41726
L50109 41226
L50347 41226
" />
<path d="M50847 41726
L50680 41488
" />
<path d="M50561 41726
L50561 41226
L50752 41226
L50799 41250
L50823 41273
L50847 41321
L50847 41392
L50823 41440
L50799 41464
L50752 41488
L50561 41488
" />
<path d="M50990 41226
L51156 41726
L51323 41226
" />
<path d="M51585 41226
L51680 41226
L51728 41250
L51775 41297
L51799 41392
L51799 41559
L51775 41654
L51728 41702
L51680 41726
L51585 41726
L51537 41702
L51490 41654
L51466 41559
L51466 41392
L51490 41297
L51537 41250
L51585 41226
" />
</g><path style="fill:#725600; fill-opacity:0.0; 
stroke:#725600; stroke-width:60.000000; stroke-opacity:1; 
stroke-linecap:round; stroke-linejoin:round;fill:none"
d="M 52500.000000,41500.000000
52250.000000,41250.000000
52000.000000,41250.000000
52000.000000,41750.000000
52250.000000,41750.000000
Z" /> 
</g>
<g style="fill:#725600; fill-opacity:0.0; 
stroke:#725600; stroke-width:62.519685; stroke-opacity:1; 
stroke-linecap:round; stroke-linejoin:round;">
</g>
<g style="fill:#725600; fill-opacity:0.0; 
stroke:#725600; stroke-width:60.000000; stroke-opacity:1; 
stroke-linecap:round; stroke-linejoin:round;">
</g>
<g style="fill:#0F0F0F; fill-opacity:0.0; 
stroke:#0F0F0F; stroke-width:60.000000; stroke-opacity:1; 
stroke-linecap:round; stroke-linejoin:round;">
<text x="52500.000000" y="39362.480315"
textLength="1583.818898" font-size="666.653543" lengthAdjust="spacingAndGlyphs"
text-anchor="end" opacity="0">GND</text>
<g class="stroked-text"><desc>GND</desc>
<path d="M51327 38862
L51279 38838
L51208 38838
L51136 38862
L51089 38910
L51065 38957
L51041 39052
L51041 39124
L51065 39219
L51089 39267
L51136 39314
L51208 39338
L51255 39338
L51327 39314
L51350 39291
L51350 39124
L51255 39124
" />
<path d="M51565 39338
L51565 38838
L51850 39338
L51850 38838
" />
<path d="M52089 39338
L52089 38838
L52208 38838
L52279 38862
L52327 38910
L52350 38957
L52374 39052
L52374 39124
L52350 39219
L52327 39267
L52279 39314
L52208 39338
L52089 39338
" />
</g></g>
<g style="fill:#0F0F0F; fill-opacity:0.0; 
stroke:#0F0F0F; stroke-width:62.519685; stroke-opacity:1; 
stroke-linecap:round; stroke-linejoin:round;">
</g>
<g style="fill:#0F0F0F; fill-opacity:0.0; 
stroke:#0F0F0F; stroke-width:60.000000; stroke-opacity:1; 
stroke-linecap:round; stroke-linejoin:round;">
<text x="37500.000000" y="27362.480315"
textLength="1583.818898" font-size="666.653543" lengthAdjust="spacingAndGlyphs"
text-anchor="start" opacity="0">GND</text>
<g class="stroked-text"><desc>GND</desc>
<path d="M37910 26862
L37863 26838
L37791 26838
L37720 26862
L37672 26910
L37649 26957
L37625 27052
L37625 27124
L37649 27219
L37672 27267
L37720 27314
L37791 27338
L37839 27338
L37910 27314
L37934 27291
L37934 27124
L37839 27124
" />
<path d="M38149 27338
L38149 26838
L38434 27338
L38434 26838
" />
<path d="M38672 27338
L38672 26838
L38791 26838
L38863 26862
L38910 26910
L38934 26957
L38958 27052
L38958 27124
L38934 27219
L38910 27267
L38863 27314
L38791 27338
L38672 27338
" />
</g></g>
<g style="fill:#0F0F0F; fill-opacity:0.0; 
stroke:#0F0F0F; stroke-width:62.519685; stroke-opacity:1; 
stroke-linecap:round; stroke-linejoin:round;">
</g>
<g style="fill:#0F0F0F; fill-opacity:0.0; 
stroke:#0F0F0F; stroke-width:60.000000; stroke-opacity:1; 
stroke-linecap:round; stroke-linejoin:round;">
<text x="52500.000000" y="38362.480315"
textLength="3560.000000" font-size="666.653543" lengthAdjust="spacingAndGlyphs"
text-anchor="end" opacity="0">VBATTERY</text>
<g class="stroked-text"><desc>VBATTERY</desc>
<path d="M49017 37838
L49184 38338
L49350 37838
" />
<path d="M49684 38076
L49755 38100
L49779 38124
L49803 38171
L49803 38243
L49779 38291
L49755 38314
L49708 38338
L49517 38338
L49517 37838
L49684 37838
L49731 37862
L49755 37886
L49779 37933
L49779 37981
L49755 38029
L49731 38052
L49684 38076
L49517 38076
" />
<path d="M49993 38195
L50231 38195
" />
<path d="M49946 38338
L50112 37838
L50279 38338
" />
<path d="M50374 37838
L50660 37838
" />
<path d="M50517 38338
L50517 37838
" />
<path d="M50755 37838
L51041 37838
" />
<path d="M50898 38338
L50898 37838
" />
<path d="M51208 38076
L51374 38076
" />
<path d="M51446 38338
L51208 38338
L51208 37838
L51446 37838
" />
<path d="M51946 38338
L51779 38100
" />
<path d="M51660 38338
L51660 37838
L51850 37838
L51898 37862
L51922 37886
L51946 37933
L51946 38005
L51922 38052
L51898 38076
L51850 38100
L51660 38100
" />
<path d="M52255 38100
L52255 38338
" />
<path d="M52089 37838
L52255 38100
L52422 37838
" />
</g></g>
<g style="fill:#0F0F0F; fill-opacity:0.0; 
stroke:#0F0F0F; stroke-width:62.519685; stroke-opacity:1; 
stroke-linecap:round; stroke-linejoin:round;">
</g>
<g style="fill:#0F0F0F; fill-opacity:0.0; 
stroke:#0F0F0F; stroke-width:60.000000; stroke-opacity:1; 
stroke-linecap:round; stroke-linejoin:round;">
<text x="83500.000000" y="27862.480315"
textLength="1583.818898" font-size="666.653543" lengthAdjust="spacingAndGlyphs"
text-anchor="end" opacity="0">GND</text>
<g class="stroked-text"><desc>GND</desc>
<path d="M82327 27362
L82279 27338
L82208 27338
L82136 27362
L82089 27410
L82065 27457
L82041 27552
L82041 27624
L82065 27719
L82089 27767
L82136 27814
L82208 27838
L82255 27838
L82327 27814
L82350 27791
L82350 27624
L82255 27624
" />
<path d="M82565 27838
L82565 27338
L82850 27838
L82850 27338
" />
<path d="M83089 27838
L83089 27338
L83208 27338
L83279 27362
L83327 27410
L83350 27457
L83374 27552
L83374 27624
L83350 27719
L83327 27767
L83279 27814
L83208 27838
L83089 27838
" />
</g></g>
<g style="fill:#0F0F0F; fill-opacity:0.0; 
stroke:#0F0F0F; stroke-width:62.519685; stroke-opacity:1; 
stroke-linecap:round; stroke-linejoin:round;">
</g>
<g style="fill:#0F0F0F; fill-opacity:0.0; 
stroke:#0F0F0F; stroke-width:60.000000; stroke-opacity:1; 
stroke-linecap:round; stroke-linejoin:round;">
<text x="52500.000000" y="26362.480315"
textLength="3560.000000" font-size="666.653543" lengthAdjust="spacingAndGlyphs"
text-anchor="end" opacity="0">VBATTERY</text>
<g class="stroked-text"><desc>VBATTERY</desc>
<path d="M49017 25838
L49184 26338
L49350 25838
" />
<path d="M49684 26076
L49755 26100
L49779 26124
L49803 26171
L49803 26243
L49779 26291
L49755 26314
L49708 26338
L49517 26338
L49517 25838
L49684 25838
L49731 25862
L49755 25886
L49779 25933
L49779 25981
L49755 26029
L49731 26052
L49684 26076
L49517 26076
" />
<path d="M49993 26195
L50231 26195
" />
<path d="M49946 26338
L50112 25838
L50279 26338
" />
<path d="M50374 25838
L50660 25838
" />
<path d="M50517 26338
L50517 25838
" />
<path d="M50755 25838
L51041 25838
" />
<path d="M50898 26338
L50898 25838
" />
<path d="M51208 26076
L51374 26076
" />
<path d="M51446 26338
L51208 26338
L51208 25838
L51446 25838
" />
<path d="M51946 26338
L51779 26100
" />
<path d="M51660 26338
L51660 25838
L51850 25838
L51898 25862
L51922 25886
L51946 25933
L51946 26005
L51922 26052
L51898 26076
L51850 26100
L51660 26100
" />
<path d="M52255 26100
L52255 26338
" />
<path d="M52089 25838
L52255 26100
L52422 25838
" />
</g></g>
<g style="fill:#0F0F0F; fill-opacity:0.0; 
stroke:#0F0F0F; stroke-width:62.519685; stroke-opacity:1; 
stroke-linecap:round; stroke-linejoin:round;">
</g>
<g style="fill:#0F0F0F; fill-opacity:0.0; 
stroke:#0F0F0F; stroke-width:60.000000; stroke-opacity:1; 
stroke-linecap:round; stroke-linejoin:round;">
<text x="37500.000000" y="26362.480315"
textLength="3560.000000" font-size="666.653543" lengthAdjust="spacingAndGlyphs"
text-anchor="start" opacity="0">VBATTERY</text>
<g class="stroked-text"><desc>VBATTERY</desc>
<path d="M37577 25838
L37744 26338
L37910 25838
" />
<path d="M38244 26076
L38315 26100
L38339 26124
L38363 26171
L38363 26243
L38339 26291
L38315 26314
L38268 26338
L38077 26338
L38077 25838
L38244 25838
L38291 25862
L38315 25886
L38339 25933
L38339 25981
L38315 26029
L38291 26052
L38244 26076
L38077 26076
" />
<path d="M38553 26195
L38791 26195
" />
<path d="M38506 26338
L38672 25838
L38839 26338
" />
<path d="M38934 25838
L39220 25838
" />
<path d="M39077 26338
L39077 25838
" />
<path d="M39315 25838
L39601 25838
" />
<path d="M39458 26338
L39458 25838
" />
<path d="M39768 26076
L39934 26076
" />
<path d="M40006 26338
L39768 26338
L39768 25838
L40006 25838
" />
<path d="M40506 26338
L40339 26100
" />
<path d="M40220 26338
L40220 25838
L40410 25838
L40458 25862
L40482 25886
L40506 25933
L40506 26005
L40482 26052
L40458 26076
L40410 26100
L40220 26100
" />
<path d="M40815 26100
L40815 26338
" />
<path d="M40649 25838
L40815 26100
L40982 25838
" />
</g></g>
<g style="fill:#0F0F0F; fill-opacity:0.0; 
stroke:#0F0F0F; stroke-width:62.519685; stroke-opacity:1; 
stroke-linecap:round; stroke-linejoin:round;">
</g>
<g style="fill:#0F0F0F; fill-opacity:0.0; 
stroke:#0F0F0F; stroke-width:60.000000; stroke-opacity:1; 
stroke-linecap:round; stroke-linejoin:round;">
<text x="52500.000000" y="27362.480315"
textLength="1583.818898" font-size="666.653543" lengthAdjust="spacingAndGlyphs"
text-anchor="end" opacity="0">GND</text>
<g class="stroked-text"><desc>GND</desc>
<path d="M51327 26862
L51279 26838
L51208 26838
L51136 26862
L51089 26910
L51065 26957
L51041 27052
L51041 27124
L51065 27219
L51089 27267
L51136 27314
L51208 27338
L51255 27338
L51327 27314
L51350 27291
L51350 27124
L51255 27124
" />
<path d="M51565 27338
L51565 26838
L51850 27338
L51850 26838
" />
<path d="M52089 27338
L52089 26838
L52208 26838
L52279 26862
L52327 26910
L52350 26957
L52374 27052
L52374 27124
L52350 27219
L52327 27267
L52279 27314
L52208 27338
L52089 27338
" />
</g></g>
<g style="fill:#009600; fill-opacity:0.0; 
stroke:#009600; stroke-width:60.000000; stroke-opacity:1; 
stroke-linecap:round; stroke-linejoin:round;">
<path d="M52500 38500
L53500 38500
" />
<path d="M52500 26500
L53500 26500
" />
<path d="M52500 41500
L53500 41500
" />
<path d="M52500 39500
L53500 39500
" />
<path d="M36500 26500
L37500 26500
" />
<path d="M36500 27500
L37500 27500
" />
<path d="M52500 29500
L53500 29500
" />
<path d="M84500 27000
L83500 27000
" />
<path d="M61500 38500
L62500 38500
" />
<path d="M52500 27500
L53500 27500
" />
<path d="M61500 26500
L62500 26500
" />
<path d="M84500 28000
L83500 28000
" />
</g> 
</svg>
