<?xml version="1.0" encoding="UTF-8" standalone="no"?>
<svg
   version="1.1"
   width="7.0820236cm"
   height="7.0199995cm"
   viewBox="0 0 70820236 70199998"
   id="svg5024"
   sodipodi:docname="biym-board-User_Drawings.svg"
   xmlns:inkscape="http://www.inkscape.org/namespaces/inkscape"
   xmlns:sodipodi="http://sodipodi.sourceforge.net/DTD/sodipodi-0.dtd"
   xmlns="http://www.w3.org/2000/svg"
   xmlns:svg="http://www.w3.org/2000/svg">
  <defs
     id="defs5028" />
  <sodipodi:namedview
     id="namedview5026"
     pagecolor="#ffffff"
     bordercolor="#000000"
     borderopacity="0.25"
     inkscape:showpageshadow="2"
     inkscape:pageopacity="0.0"
     inkscape:pagecheckerboard="0"
     inkscape:deskcolor="#d1d1d1"
     inkscape:document-units="cm" />
  <title
     id="title4298">SVG Picture created as biym-board-User_Drawings.svg date 2022/11/22 11:01:14 </title>
  <desc
     id="desc4300">Picture generated by PCBNEW </desc>
  <g
     style="fill:#000000;fill-opacity:1;stroke:#000000;stroke-linecap:round;stroke-linejoin:round;stroke-opacity:1"
     id="g4302"
     transform="translate(-104279760,-64900000)" />
  <g
     style="fill:#000000;fill-opacity:0;stroke:#000000;stroke-width:0;stroke-linecap:round;stroke-linejoin:round;stroke-opacity:1"
     id="g4304"
     transform="translate(-104279760,-64900000)" />
  <g
     style="fill:#000000;fill-opacity:0;stroke:#000000;stroke-width:250000;stroke-linecap:round;stroke-linejoin:round;stroke-opacity:1"
     id="g4330"
     transform="translate(-104279760,-64900000)">
    <text
       x="146000000"
       y="94250000"
       textLength="5495833"
       font-size="1.33333e+06px"
       lengthAdjust="spacingAndGlyphs"
       text-anchor="middle"
       opacity="0"
       id="text4306">12 mm</text>
    <g
       class="stroked-text"
       id="g4328">
      <desc
         id="desc4308">12 mm</desc>
      <path
         d="m 144095240,94202380 h -571430"
         id="path4310" />
      <path
         d="m 143809520,94202380 v -1000000 l -95230,142858 -95240,95238 -95240,47619"
         id="path4312" />
      <path
         d="m 144476190,93297619 47620,-47619 95240,-47620 h 238090 l 95240,47620 47620,47619 47620,95238 v 95238 l -47620,142857 -571430,571428 h 619050"
         id="path4314" />
      <path
         d="m 146238100,94202380 v -666666"
         id="path4316" />
      <path
         d="m 146238100,93630952 47610,-47619 95240,-47619 h 142860 l 95240,47619 47620,95238 v 523809"
         id="path4318" />
      <path
         d="m 146666670,93678571 47620,-95238 95230,-47619 h 142860 l 95240,47619 47620,95238 v 523809"
         id="path4320" />
      <path
         d="m 147571430,94202380 v -666666"
         id="path4322" />
      <path
         d="m 147571430,93630952 47620,-47619 95240,-47619 h 142850 l 95240,47619 47620,95238 v 523809"
         id="path4324" />
      <path
         d="m 148000000,93678571 47620,-95238 95240,-47619 h 142850 l 95240,47619 47620,95238 v 523809"
         id="path4326" />
    </g>
  </g>
  <g
     style="fill:#000000;fill-opacity:0;stroke:#000000;stroke-width:200000;stroke-linecap:round;stroke-linejoin:round;stroke-opacity:1"
     id="g4334"
     transform="translate(-104279760,-64900000)">
    <path
       d="M 152000000,85500000 V 95586420"
       id="path4332" />
  </g>
  <g
     style="fill:#000000;fill-opacity:1;stroke:#000000;stroke-width:1;stroke-linecap:round;stroke-linejoin:round;stroke-opacity:1"
     id="g4338"
     transform="translate(-104279760,-64900000)">
    <circle
       cx="140000000"
       cy="95000000"
       r="100000"
       id="circle4336" />
  </g>
  <g
     style="fill:#000000;fill-opacity:1;stroke:#000000;stroke-width:200000;stroke-linecap:round;stroke-linejoin:round;stroke-opacity:1"
     id="g4340"
     transform="translate(-104279760,-64900000)" />
  <g
     style="fill:#000000;fill-opacity:0;stroke:#000000;stroke-width:200000;stroke-linecap:round;stroke-linejoin:round;stroke-opacity:1"
     id="g4354"
     transform="translate(-104279760,-64900000)">
    <path
       d="M 152000000,95000000 H 140000000"
       id="path4342" />
    <path
       d="M 152000000,95000000 H 140000000"
       id="path4344" />
    <path
       d="m 152000000,95000000 -1108760,-577186"
       id="path4346" />
    <path
       d="m 152000000,95000000 -1108760,577186"
       id="path4348" />
    <path
       d="m 140000000,95000000 1108760,577186"
       id="path4350" />
    <path
       d="m 140000000,95000000 1108760,-577186"
       id="path4352" />
  </g>
  <g
     style="fill:#000000;fill-opacity:0;stroke:#000000;stroke-width:250000;stroke-linecap:round;stroke-linejoin:round;stroke-opacity:1"
     id="g4376"
     transform="translate(-104279760,-64900000)">
    <text
       x="145080000"
       y="90340000"
       textLength="4705952"
       font-size="1.33333e+06px"
       lengthAdjust="spacingAndGlyphs"
       text-anchor="middle"
       opacity="0"
       id="text4356">2 mm</text>
    <g
       class="stroked-text"
       id="g4374">
      <desc
         id="desc4358">2 mm</desc>
      <path
         d="m 143080000,89387619 47620,-47619 95240,-47620 h 238090 l 95240,47620 47620,47619 47620,95238 v 95238 l -47620,142857 -571430,571428 h 619050"
         id="path4360" />
      <path
         d="m 144841900,90292380 v -666666"
         id="path4362" />
      <path
         d="m 144841900,89720952 47620,-47619 95240,-47619 h 142860 l 95240,47619 47620,95238 v 523809"
         id="path4364" />
      <path
         d="m 145270480,89768571 47620,-95238 95230,-47619 h 142860 l 95240,47619 47620,95238 v 523809"
         id="path4366" />
      <path
         d="m 146175240,90292380 v -666666"
         id="path4368" />
      <path
         d="m 146175240,89720952 47620,-47619 95240,-47619 h 142850 l 95240,47619 47620,95238 v 523809"
         id="path4370" />
      <path
         d="m 146603810,89768571 47620,-95238 95240,-47619 h 142850 l 95240,47619 47620,95238 v 523809"
         id="path4372" />
    </g>
  </g>
  <g
     style="fill:#000000;fill-opacity:0;stroke:#000000;stroke-width:200000;stroke-linecap:round;stroke-linejoin:round;stroke-opacity:1"
     id="g4394"
     transform="translate(-104279760,-64900000)">
    <path
       d="m 142000000,85500000 v 4926420"
       id="path4378" />
    <path
       d="M 140000000,90426420 V 85500000"
       id="path4380" />
    <path
       d="m 142000000,89840000 h -2000000"
       id="path4382" />
    <path
       d="m 142000000,89840000 h -2000000"
       id="path4384" />
    <path
       d="m 142000000,89840000 -1108760,-577186"
       id="path4386" />
    <path
       d="m 142000000,89840000 -1108760,577186"
       id="path4388" />
    <path
       d="m 140000000,89840000 1108760,577186"
       id="path4390" />
    <path
       d="m 140000000,89840000 1108760,-577186"
       id="path4392" />
  </g>
  <g
     style="fill:#000000;fill-opacity:0;stroke:#000000;stroke-width:250000;stroke-linecap:round;stroke-linejoin:round;stroke-opacity:1"
     id="g4422"
     transform="translate(-104279760,-64900000)">
    <g
       transform="rotate(-90,168750000,107500000)"
       id="g4398">
      <text
         x="168750000"
         y="108000000"
         textLength="5658333"
         font-size="1.33333e+06px"
         lengthAdjust="spacingAndGlyphs"
         text-anchor="middle"
         opacity="0"
         id="text4396">15 mm</text>
    </g>
    <g
       class="stroked-text"
       id="g4420">
      <desc
         id="desc4400">15 mm</desc>
      <path
         d="m 169202380,109404760 v 571430"
         id="path4402" />
      <path
         d="m 169202380,109690480 h -1000000 l 142860,95230 95240,95240 47620,95240"
         id="path4404" />
      <path
         d="m 168202380,108500000 v 476190 l 476190,47620 -47620,-47620 -47620,-95240 v -238090 l 47620,-95240 47620,-47620 95240,-47620 h 238090 l 95240,47620 47620,47620 47620,95240 v 238090 l -47620,95240 -47620,47620"
         id="path4406" />
      <path
         d="m 169202380,107261900 h -666670"
         id="path4408" />
      <path
         d="m 168630950,107261900 -47620,-47610 -47620,-95240 v -142860 l 47620,-95240 95240,-47620 h 523810"
         id="path4410" />
      <path
         d="m 168678570,106833330 -95240,-47620 -47620,-95230 v -142860 l 47620,-95240 95240,-47620 h 523810"
         id="path4412" />
      <path
         d="m 169202380,105928570 h -666670"
         id="path4414" />
      <path
         d="m 168630950,105928570 -47620,-47620 -47620,-95240 v -142850 l 47620,-95240 95240,-47620 h 523810"
         id="path4416" />
      <path
         d="m 168678570,105500000 -95240,-47620 -47620,-95240 v -142850 l 47620,-95240 95240,-47620 h 523810"
         id="path4418" />
    </g>
  </g>
  <g
     style="fill:#000000;fill-opacity:0;stroke:#000000;stroke-width:200000;stroke-linecap:round;stroke-linejoin:round;stroke-opacity:1"
     id="g4440"
     transform="translate(-104279760,-64900000)">
    <path
       d="m 140500000,115000000 h 30086420"
       id="path4424" />
    <path
       d="M 170586420,100000000 H 140500000"
       id="path4426" />
    <path
       d="M 170000000,115000000 V 100000000"
       id="path4428" />
    <path
       d="M 170000000,115000000 V 100000000"
       id="path4430" />
    <path
       d="m 170000000,115000000 577190,-1108760"
       id="path4432" />
    <path
       d="m 170000000,115000000 -577190,-1108760"
       id="path4434" />
    <path
       d="m 170000000,100000000 -577190,1108760"
       id="path4436" />
    <path
       d="m 170000000,100000000 577190,1108760"
       id="path4438" />
  </g>
  <g
     style="fill:#000000;fill-opacity:0;stroke:#000000;stroke-width:250000;stroke-linecap:round;stroke-linejoin:round;stroke-opacity:1"
     id="g4466"
     transform="translate(-104279760,-64900000)">
    <text
       x="145000000"
       y="109410000"
       textLength="5658333"
       font-size="1.33333e+06px"
       lengthAdjust="spacingAndGlyphs"
       text-anchor="middle"
       opacity="0"
       id="text4442">10 mm</text>
    <g
       class="stroked-text"
       id="g4464">
      <desc
         id="desc4444">10 mm</desc>
      <path
         d="m 143095240,109362380 h -571430"
         id="path4446" />
      <path
         d="m 142809520,109362380 v -1000000 l -95230,142860 -95240,95240 -95240,47620"
         id="path4448" />
      <path
         d="m 143714290,108362380 h 95230 l 95240,47620 47620,47620 47620,95240 47620,190470 v 238100 l -47620,190470 -47620,95240 -47620,47620 -95240,47620 h -95230 l -95240,-47620 -47620,-47620 -47620,-95240 -47620,-190470 v -238100 l 47620,-190470 47620,-95240 47620,-47620 95240,-47620"
         id="path4450" />
      <path
         d="m 145238100,109362380 v -666670"
         id="path4452" />
      <path
         d="m 145238100,108790950 47610,-47620 95240,-47620 h 142860 l 95240,47620 47620,95240 v 523810"
         id="path4454" />
      <path
         d="m 145666670,108838570 47620,-95240 95230,-47620 h 142860 l 95240,47620 47620,95240 v 523810"
         id="path4456" />
      <path
         d="m 146571430,109362380 v -666670"
         id="path4458" />
      <path
         d="m 146571430,108790950 47620,-47620 95240,-47620 h 142850 l 95240,47620 47620,95240 v 523810"
         id="path4460" />
      <path
         d="m 147000000,108838570 47620,-95240 95240,-47620 h 142850 l 95240,47620 47620,95240 v 523810"
         id="path4462" />
    </g>
  </g>
  <g
     style="fill:#000000;fill-opacity:0;stroke:#000000;stroke-width:200000;stroke-linecap:round;stroke-linejoin:round;stroke-opacity:1"
     id="g4484"
     transform="translate(-104279760,-64900000)">
    <path
       d="m 150000000,114700000 v -5126420"
       id="path4468" />
    <path
       d="m 140000000,109573580 v 4926420"
       id="path4470" />
    <path
       d="M 150000000,110160000 H 140000000"
       id="path4472" />
    <path
       d="M 150000000,110160000 H 140000000"
       id="path4474" />
    <path
       d="m 150000000,110160000 -1108760,-577190"
       id="path4476" />
    <path
       d="m 150000000,110160000 -1108760,577190"
       id="path4478" />
    <path
       d="m 140000000,110160000 1108760,577190"
       id="path4480" />
    <path
       d="m 140000000,110160000 1108760,-577190"
       id="path4482" />
  </g>
  <g
     style="fill:#000000;fill-opacity:0;stroke:#000000;stroke-width:250000;stroke-linecap:round;stroke-linejoin:round;stroke-opacity:1"
     id="g4510"
     transform="translate(-104279760,-64900000)">
    <text
       x="135000000"
       y="109410000"
       textLength="5658333"
       font-size="1.33333e+06px"
       lengthAdjust="spacingAndGlyphs"
       text-anchor="middle"
       opacity="0"
       id="text4486">10 mm</text>
    <g
       class="stroked-text"
       id="g4508">
      <desc
         id="desc4488">10 mm</desc>
      <path
         d="m 133095240,109362380 h -571430"
         id="path4490" />
      <path
         d="m 132809520,109362380 v -1000000 l -95230,142860 -95240,95240 -95240,47620"
         id="path4492" />
      <path
         d="m 133714290,108362380 h 95230 l 95240,47620 47620,47620 47620,95240 47620,190470 v 238100 l -47620,190470 -47620,95240 -47620,47620 -95240,47620 h -95230 l -95240,-47620 -47620,-47620 -47620,-95240 -47620,-190470 v -238100 l 47620,-190470 47620,-95240 47620,-47620 95240,-47620"
         id="path4494" />
      <path
         d="m 135238100,109362380 v -666670"
         id="path4496" />
      <path
         d="m 135238100,108790950 47610,-47620 95240,-47620 h 142860 l 95240,47620 47620,95240 v 523810"
         id="path4498" />
      <path
         d="m 135666670,108838570 47620,-95240 95230,-47620 h 142860 l 95240,47620 47620,95240 v 523810"
         id="path4500" />
      <path
         d="m 136571430,109362380 v -666670"
         id="path4502" />
      <path
         d="m 136571430,108790950 47620,-47620 95240,-47620 h 142850 l 95240,47620 47620,95240 v 523810"
         id="path4504" />
      <path
         d="m 137000000,108838570 47620,-95240 95240,-47620 h 142850 l 95240,47620 47620,95240 v 523810"
         id="path4506" />
    </g>
  </g>
  <g
     style="fill:#000000;fill-opacity:0;stroke:#000000;stroke-width:200000;stroke-linecap:round;stroke-linejoin:round;stroke-opacity:1"
     id="g4528"
     transform="translate(-104279760,-64900000)">
    <path
       d="m 130000000,114500000 v -4926420"
       id="path4512" />
    <path
       d="m 140000000,109573580 v 3426420"
       id="path4514" />
    <path
       d="m 130000000,110160000 h 10000000"
       id="path4516" />
    <path
       d="m 130000000,110160000 h 10000000"
       id="path4518" />
    <path
       d="m 130000000,110160000 1108760,577190"
       id="path4520" />
    <path
       d="m 130000000,110160000 1108760,-577190"
       id="path4522" />
    <path
       d="m 140000000,110160000 -1108760,-577190"
       id="path4524" />
    <path
       d="m 140000000,110160000 -1108760,577190"
       id="path4526" />
  </g>
  <g
     style="fill:#000000;fill-opacity:0;stroke:#000000;stroke-width:250000;stroke-linecap:round;stroke-linejoin:round;stroke-opacity:1"
     id="g4550"
     transform="translate(-104279760,-64900000)">
    <text
       x="136000000"
       y="89090000"
       textLength="4705952"
       font-size="1.33333e+06px"
       lengthAdjust="spacingAndGlyphs"
       text-anchor="middle"
       opacity="0"
       id="text4530">8 mm</text>
    <g
       class="stroked-text"
       id="g4548">
      <desc
         id="desc4532">8 mm</desc>
      <path
         d="m 134190480,88470952 -95240,-47619 -47620,-47619 -47620,-95238 v -47619 l 47620,-95238 47620,-47619 95240,-47620 h 190470 l 95240,47620 47620,47619 47620,95238 v 47619 l -47620,95238 -47620,47619 -95240,47619 h -190470 l -95240,47619 -47620,47619 -47620,95238 v 190476 l 47620,95238 47620,47619 95240,47619 h 190470 l 95240,-47619 47620,-47619 47620,-95238 v -190476 l -47620,-95238 -47620,-47619 -95240,-47619"
         id="path4534" />
      <path
         d="m 135761900,89042380 v -666666"
         id="path4536" />
      <path
         d="m 135761900,88470952 47620,-47619 95240,-47619 h 142860 l 95240,47619 47620,95238 v 523809"
         id="path4538" />
      <path
         d="m 136190480,88518571 47620,-95238 95230,-47619 h 142860 l 95240,47619 47620,95238 v 523809"
         id="path4540" />
      <path
         d="m 137095240,89042380 v -666666"
         id="path4542" />
      <path
         d="m 137095240,88470952 47620,-47619 95240,-47619 h 142850 l 95240,47619 47620,95238 v 523809"
         id="path4544" />
      <path
         d="m 137523810,88518571 47620,-95238 95240,-47619 h 142850 l 95240,47619 47620,95238 v 523809"
         id="path4546" />
    </g>
  </g>
  <g
     style="fill:#000000;fill-opacity:0;stroke:#000000;stroke-width:200000;stroke-linecap:round;stroke-linejoin:round;stroke-opacity:1"
     id="g4568"
     transform="translate(-104279760,-64900000)">
    <path
       d="m 132000000,85500000 v 4926420"
       id="path4552" />
    <path
       d="M 140000000,90426420 V 88500000"
       id="path4554" />
    <path
       d="m 132000000,89840000 h 8000000"
       id="path4556" />
    <path
       d="m 132000000,89840000 h 8000000"
       id="path4558" />
    <path
       d="m 132000000,89840000 1108760,577186"
       id="path4560" />
    <path
       d="m 132000000,89840000 1108760,-577186"
       id="path4562" />
    <path
       d="m 140000000,89840000 -1108760,-577186"
       id="path4564" />
    <path
       d="m 140000000,89840000 -1108760,577186"
       id="path4566" />
  </g>
  <g
     style="fill:#000000;fill-opacity:0;stroke:#000000;stroke-width:250000;stroke-linecap:round;stroke-linejoin:round;stroke-opacity:1"
     id="g4596"
     transform="translate(-104279760,-64900000)">
    <g
       transform="rotate(-90,168750000,92500000)"
       id="g4572">
      <text
         x="168750000"
         y="93000000"
         textLength="5658333"
         font-size="1.33333e+06px"
         lengthAdjust="spacingAndGlyphs"
         text-anchor="middle"
         opacity="0"
         id="text4570">15 mm</text>
    </g>
    <g
       class="stroked-text"
       id="g4594">
      <desc
         id="desc4574">15 mm</desc>
      <path
         d="m 169202380,94404761 v 571429"
         id="path4576" />
      <path
         d="m 169202380,94690476 h -1000000 l 142860,95238 95240,95238 47620,95238"
         id="path4578" />
      <path
         d="m 168202380,93500000 v 476190 l 476190,47619 -47620,-47619 -47620,-95238 v -238095 l 47620,-95238 47620,-47619 95240,-47620 h 238090 l 95240,47620 47620,47619 47620,95238 v 238095 l -47620,95238 -47620,47619"
         id="path4580" />
      <path
         d="m 169202380,92261904 h -666670"
         id="path4582" />
      <path
         d="m 168630950,92261904 -47620,-47619 -47620,-95238 v -142857 l 47620,-95238 95240,-47619 h 523810"
         id="path4584" />
      <path
         d="m 168678570,91833333 -95240,-47619 -47620,-95238 v -142857 l 47620,-95239 95240,-47619 h 523810"
         id="path4586" />
      <path
         d="m 169202380,90928571 h -666670"
         id="path4588" />
      <path
         d="m 168630950,90928571 -47620,-47619 -47620,-95238 v -142857 l 47620,-95238 95240,-47619 h 523810"
         id="path4590" />
      <path
         d="m 168678570,90500000 -95240,-47620 -47620,-95238 v -142857 l 47620,-95238 95240,-47619 h 523810"
         id="path4592" />
    </g>
  </g>
  <g
     style="fill:#000000;fill-opacity:0;stroke:#000000;stroke-width:200000;stroke-linecap:round;stroke-linejoin:round;stroke-opacity:1"
     id="g4614"
     transform="translate(-104279760,-64900000)">
    <path
       d="m 142500000,85000000 h 28086420"
       id="path4598" />
    <path
       d="M 170586420,100000000 H 140500000"
       id="path4600" />
    <path
       d="m 170000000,85000000 v 15000000"
       id="path4602" />
    <path
       d="m 170000000,85000000 v 15000000"
       id="path4604" />
    <path
       d="m 170000000,85000000 -577190,1108764"
       id="path4606" />
    <path
       d="m 170000000,85000000 577190,1108764"
       id="path4608" />
    <path
       d="m 170000000,100000000 577190,-1108764"
       id="path4610" />
    <path
       d="m 170000000,100000000 -577190,-1108764"
       id="path4612" />
  </g>
  <g
     style="fill:#000000;fill-opacity:0;stroke:#000000;stroke-width:250000;stroke-linecap:round;stroke-linejoin:round;stroke-opacity:1"
     id="g4642"
     transform="translate(-104279760,-64900000)">
    <g
       transform="rotate(-90,105000000,95000000)"
       id="g4618">
      <text
         x="105000000"
         y="95500000"
         textLength="5658333"
         font-size="1.33333e+06px"
         lengthAdjust="spacingAndGlyphs"
         text-anchor="middle"
         opacity="0"
         id="text4616">34 mm</text>
    </g>
    <g
       class="stroked-text"
       id="g4640">
      <desc
         id="desc4620">34 mm</desc>
      <path
         d="m 104452380,97523809 v -619048 l 380950,333334 v -142857 l 47620,-95238 47620,-47620 95240,-47619 h 238090 l 95240,47619 47620,47620 47620,95238 v 285714 l -47620,95238 -47620,47619"
         id="path4622" />
      <path
         d="m 104785710,96047619 h 666670"
         id="path4624" />
      <path
         d="m 104404760,96285714 714290,238095 v -619048"
         id="path4626" />
      <path
         d="m 105452380,94761904 h -666670"
         id="path4628" />
      <path
         d="m 104880950,94761904 -47620,-47619 -47620,-95238 v -142857 l 47620,-95238 95240,-47619 h 523810"
         id="path4630" />
      <path
         d="m 104928570,94333333 -95240,-47619 -47620,-95238 v -142857 l 47620,-95239 95240,-47619 h 523810"
         id="path4632" />
      <path
         d="m 105452380,93428571 h -666670"
         id="path4634" />
      <path
         d="m 104880950,93428571 -47620,-47619 -47620,-95238 v -142857 l 47620,-95238 95240,-47619 h 523810"
         id="path4636" />
      <path
         d="m 104928570,93000000 -95240,-47620 -47620,-95238 v -142857 l 47620,-95238 95240,-47619 h 523810"
         id="path4638" />
    </g>
  </g>
  <g
     style="fill:#000000;fill-opacity:0;stroke:#000000;stroke-width:200000;stroke-linecap:round;stroke-linejoin:round;stroke-opacity:1"
     id="g4660"
     transform="translate(-104279760,-64900000)">
    <path
       d="M 124100000,83000000 H 104413580"
       id="path4644" />
    <path
       d="m 104413580,117000000 h 19686420"
       id="path4646" />
    <path
       d="m 105000000,83000000 v 8708333"
       id="path4648" />
    <path
       d="m 105000000,98291666 v 18708334"
       id="path4650" />
    <path
       d="m 105000000,83000000 -577190,1108764"
       id="path4652" />
    <path
       d="m 105000000,83000000 577190,1108764"
       id="path4654" />
    <path
       d="m 105000000,117000000 577190,-1108760"
       id="path4656" />
    <path
       d="m 105000000,117000000 -577190,-1108760"
       id="path4658" />
  </g>
  <g
     style="fill:#000000;fill-opacity:0;stroke:#000000;stroke-width:250000;stroke-linecap:round;stroke-linejoin:round;stroke-opacity:1"
     id="g4688"
     transform="translate(-104279760,-64900000)">
    <text
       x="130000000"
       y="75500000"
       textLength="7086905"
       font-size="1.33333e+06px"
       lengthAdjust="spacingAndGlyphs"
       text-anchor="middle"
       opacity="0"
       id="text4662">50.8 mm</text>
    <g
       class="stroked-text"
       id="g4686">
      <desc
         id="desc4664">50.8 mm</desc>
      <path
         d="m 127333330,74452380 h -476190 l -47620,476191 47620,-47619 95240,-47619 h 238100 l 95230,47619 47620,47619 47620,95238 v 238095 l -47620,95238 -47620,47619 -95230,47619 h -238100 l -95240,-47619 -47620,-47619"
         id="path4666" />
      <path
         d="m 128000000,74452380 h 95240 l 95240,47620 47620,47619 47610,95238 47620,190476 v 238095 l -47620,190476 -47610,95238 -47620,47619 -95240,47619 h -95240 l -95240,-47619 -47620,-47619 -47620,-95238 -47620,-190476 v -238095 l 47620,-190476 47620,-95238 47620,-47619 95240,-47620"
         id="path4668" />
      <path
         d="m 128761900,75357142 47620,47619 -47620,47619 -47610,-47619 47610,-47619 v 95238"
         id="path4670" />
      <path
         d="m 129380950,74880952 -95240,-47619 -47610,-47619 -47620,-95238 v -47619 l 47620,-95238 47610,-47619 95240,-47620 h 190480 l 95240,47620 47620,47619 47610,95238 v 47619 l -47610,95238 -47620,47619 -95240,47619 h -190480 l -95240,47619 -47610,47619 -47620,95238 v 190476 l 47620,95238 47610,47619 95240,47619 h 190480 l 95240,-47619 47620,-47619 47610,-95238 v -190476 l -47610,-95238 -47620,-47619 -95240,-47619"
         id="path4672" />
      <path
         d="m 130952380,75452380 v -666666"
         id="path4674" />
      <path
         d="m 130952380,74880952 47620,-47619 95240,-47619 h 142860 l 95230,47619 47620,95238 v 523809"
         id="path4676" />
      <path
         d="m 131380950,74928571 47620,-95238 95240,-47619 h 142860 l 95230,47619 47620,95238 v 523809"
         id="path4678" />
      <path
         d="m 132285710,75452380 v -666666"
         id="path4680" />
      <path
         d="m 132285710,74880952 47620,-47619 95240,-47619 h 142860 l 95240,47619 47620,95238 v 523809"
         id="path4682" />
      <path
         d="m 132714290,74928571 47610,-95238 95240,-47619 h 142860 l 95240,47619 47620,95238 v 523809"
         id="path4684" />
    </g>
  </g>
  <g
     style="fill:#000000;fill-opacity:0;stroke:#000000;stroke-width:200000;stroke-linecap:round;stroke-linejoin:round;stroke-opacity:1"
     id="g4706"
     transform="translate(-104279760,-64900000)">
    <path
       d="M 114600000,92500000 V 74413580"
       id="path4690" />
    <path
       d="M 165400000,74413580 V 92500000"
       id="path4692" />
    <path
       d="m 114600000,75000000 h 11394050"
       id="path4694" />
    <path
       d="m 134005950,75000000 h 31394050"
       id="path4696" />
    <path
       d="m 114600000,75000000 1108760,577186"
       id="path4698" />
    <path
       d="m 114600000,75000000 1108760,-577186"
       id="path4700" />
    <path
       d="m 165400000,75000000 -1108760,-577186"
       id="path4702" />
    <path
       d="m 165400000,75000000 -1108760,577186"
       id="path4704" />
  </g>
  <g
     style="fill:#000000;fill-opacity:0;stroke:#000000;stroke-width:250000;stroke-linecap:round;stroke-linejoin:round;stroke-opacity:1"
     id="g4736"
     transform="translate(-104279760,-64900000)">
    <text
       x="128570000"
       y="80500000"
       textLength="8039286"
       font-size="1.33333e+06px"
       lengthAdjust="spacingAndGlyphs"
       text-anchor="middle"
       opacity="0"
       id="text4708">22.86 mm</text>
    <g
       class="stroked-text"
       id="g4734">
      <desc
         id="desc4710">22.86 mm</desc>
      <path
         d="m 124903330,79547619 47620,-47619 95240,-47620 h 238100 l 95230,47620 47620,47619 47620,95238 v 95238 l -47620,142857 -571430,571428 h 619050"
         id="path4712" />
      <path
         d="m 125855710,79547619 47620,-47619 95240,-47620 h 238100 l 95230,47620 47620,47619 47620,95238 v 95238 l -47620,142857 -571420,571428 h 619040"
         id="path4714" />
      <path
         d="m 126855710,80357142 47620,47619 -47620,47619 -47610,-47619 47610,-47619 v 95238"
         id="path4716" />
      <path
         d="m 127474760,79880952 -95240,-47619 -47620,-47619 -47610,-95238 v -47619 l 47610,-95238 47620,-47619 95240,-47620 h 190480 l 95240,47620 47620,47619 47610,95238 v 47619 l -47610,95238 -47620,47619 -95240,47619 h -190480 l -95240,47619 -47620,47619 -47610,95238 v 190476 l 47610,95238 47620,47619 95240,47619 h 190480 l 95240,-47619 47620,-47619 47610,-95238 v -190476 l -47610,-95238 -47620,-47619 -95240,-47619"
         id="path4718" />
      <path
         d="m 128712860,79452380 h -190480 l -95240,47620 -47620,47619 -95230,142857 -47620,190476 v 380952 l 47620,95238 47610,47619 95240,47619 h 190480 l 95240,-47619 47620,-47619 47620,-95238 v -238095 l -47620,-95238 -47620,-47619 -95240,-47619 h -190480 l -95240,47619 -47610,47619 -47620,95238"
         id="path4720" />
      <path
         d="m 129998570,80452380 v -666666"
         id="path4722" />
      <path
         d="m 129998570,79880952 47620,-47619 95240,-47619 h 142860 l 95230,47619 47620,95238 v 523809"
         id="path4724" />
      <path
         d="m 130427140,79928571 47620,-95238 95240,-47619 h 142860 l 95240,47619 47610,95238 v 523809"
         id="path4726" />
      <path
         d="m 131331900,80452380 v -666666"
         id="path4728" />
      <path
         d="m 131331900,79880952 47620,-47619 95240,-47619 h 142860 l 95240,47619 47620,95238 v 523809"
         id="path4730" />
      <path
         d="m 131760480,79928571 47620,-95238 95230,-47619 h 142860 l 95240,47619 47620,95238 v 523809"
         id="path4732" />
    </g>
  </g>
  <g
     style="fill:#000000;fill-opacity:0;stroke:#000000;stroke-width:200000;stroke-linecap:round;stroke-linejoin:round;stroke-opacity:1"
     id="g4754"
     transform="translate(-104279760,-64900000)">
    <path
       d="M 117140000,90610000 V 79413580"
       id="path4738" />
    <path
       d="M 140000000,79413580 V 90610000"
       id="path4740" />
    <path
       d="m 117140000,80000000 h 6947860"
       id="path4742" />
    <path
       d="m 133052140,80000000 h 6947860"
       id="path4744" />
    <path
       d="m 117140000,80000000 1108760,577186"
       id="path4746" />
    <path
       d="m 117140000,80000000 1108760,-577186"
       id="path4748" />
    <path
       d="m 140000000,80000000 -1108760,-577186"
       id="path4750" />
    <path
       d="m 140000000,80000000 -1108760,577186"
       id="path4752" />
  </g>
  <g
     style="fill:#000000;fill-opacity:0;stroke:#000000;stroke-width:250000;stroke-linecap:round;stroke-linejoin:round;stroke-opacity:1"
     id="g4784"
     transform="translate(-104279760,-64900000)">
    <g
       transform="rotate(-90,108750000,95555000)"
       id="g4758">
      <text
         x="108750000"
         y="96055000"
         textLength="7086905"
         font-size="1.33333e+06px"
         lengthAdjust="spacingAndGlyphs"
         text-anchor="middle"
         opacity="0"
         id="text4756">8.89 mm</text>
    </g>
    <g
       class="stroked-text"
       id="g4782">
      <desc
         id="desc4760">8.89 mm</desc>
      <path
         d="m 108630950,98555000 -47620,95238 -47620,47619 -95230,47619 h -47620 l -95240,-47619 -47620,-47619 -47620,-95238 v -190477 l 47620,-95238 47620,-47619 95240,-47619 h 47620 l 95230,47619 47620,47619 47620,95238 v 190477 l 47620,95238 47620,47619 95240,47619 h 190470 l 95240,-47619 47620,-47619 47620,-95238 v -190477 l -47620,-95238 -47620,-47619 -95240,-47619 h -190470 l -95240,47619 -47620,47619 -47620,95238"
         id="path4762" />
      <path
         d="m 109107140,97745476 47620,-47619 47620,47619 -47620,47619 -47620,-47619 h 95240"
         id="path4764" />
      <path
         d="m 108630950,97126428 -47620,95238 -47620,47619 -95230,47619 h -47620 l -95240,-47619 -47620,-47619 -47620,-95238 v -190476 l 47620,-95238 47620,-47619 95240,-47619 h 47620 l 95230,47619 47620,47619 47620,95238 v 190476 l 47620,95238 47620,47619 95240,47619 h 190470 l 95240,-47619 47620,-47619 47620,-95238 v -190476 l -47620,-95238 -47620,-47619 -95240,-47619 h -190470 l -95240,47619 -47620,47619 -47620,95238"
         id="path4766" />
      <path
         d="m 109202380,96269285 v -190476 l -47620,-95238 -47620,-47619 -142850,-95238 -190480,-47619 h -380950 l -95240,47619 -47620,47619 -47620,95238 v 190476 l 47620,95238 47620,47619 95240,47619 h 238090 l 95240,-47619 47620,-47619 47620,-95238 v -190476 l -47620,-95238 -47620,-47619 -95240,-47619"
         id="path4768" />
      <path
         d="m 109202380,94602619 h -666670"
         id="path4770" />
      <path
         d="m 108630950,94602619 -47620,-47619 -47620,-95239 v -142857 l 47620,-95238 95240,-47619 h 523810"
         id="path4772" />
      <path
         d="m 108678570,94174047 -95240,-47619 -47620,-95238 v -142857 l 47620,-95238 95240,-47619 h 523810"
         id="path4774" />
      <path
         d="m 109202380,93269285 h -666670"
         id="path4776" />
      <path
         d="m 108630950,93269285 -47620,-47619 -47620,-95238 v -142857 l 47620,-95238 95240,-47619 h 523810"
         id="path4778" />
      <path
         d="m 108678570,92840714 -95240,-47619 -47620,-95238 v -142857 l 47620,-95239 95240,-47619 h 523810"
         id="path4780" />
    </g>
  </g>
  <g
     style="fill:#000000;fill-opacity:0;stroke:#000000;stroke-width:200000;stroke-linecap:round;stroke-linejoin:round;stroke-opacity:1"
     id="g4788"
     transform="translate(-104279760,-64900000)">
    <path
       d="m 116640000,91110000 h -7226420"
       id="path4786" />
  </g>
  <g
     style="fill:#000000;fill-opacity:1;stroke:#000000;stroke-width:1;stroke-linecap:round;stroke-linejoin:round;stroke-opacity:1"
     id="g4792"
     transform="translate(-104279760,-64900000)">
    <circle
       cx="110000000"
       cy="100000000"
       r="100000"
       id="circle4790" />
  </g>
  <g
     style="fill:#000000;fill-opacity:1;stroke:#000000;stroke-width:200000;stroke-linecap:round;stroke-linejoin:round;stroke-opacity:1"
     id="g4794"
     transform="translate(-104279760,-64900000)" />
  <g
     style="fill:#000000;fill-opacity:0;stroke:#000000;stroke-width:200000;stroke-linecap:round;stroke-linejoin:round;stroke-opacity:1"
     id="g4808"
     transform="translate(-104279760,-64900000)">
    <path
       d="m 110000000,91110000 v 8890000"
       id="path4796" />
    <path
       d="m 110000000,91110000 v 8890000"
       id="path4798" />
    <path
       d="m 110000000,91110000 -577190,1108764"
       id="path4800" />
    <path
       d="m 110000000,91110000 577190,1108764"
       id="path4802" />
    <path
       d="m 110000000,100000000 577190,-1108764"
       id="path4804" />
    <path
       d="m 110000000,100000000 -577190,-1108764"
       id="path4806" />
  </g>
  <g
     style="fill:#000000;fill-opacity:0;stroke:#000000;stroke-width:100000;stroke-linecap:round;stroke-linejoin:round;stroke-opacity:1"
     id="g4826"
     transform="translate(-104279760,-64900000)">
    <path
       d="m 124600000,117000000 h 30800000"
       id="path4810" />
    <path
       d="m 155400000,117000000 a 10000000,10000000 0 0 0 10000000,-10000000"
       id="path4812" />
    <path
       d="m 124600000,83000000 h 30800000"
       id="path4814" />
    <path
       d="m 114600000,107000000 a 10000000,10000000 0 0 0 10000000,10000000"
       id="path4816" />
    <path
       d="m 165400000,93000000 v 14000000"
       id="path4818" />
    <path
       d="m 114600000,93000000 v 14000000"
       id="path4820" />
    <path
       d="M 124600000,83000000 A 10000000,10000000 0 0 0 114600000,93000000"
       id="path4822" />
    <path
       d="M 165400000,93000000 A 10000000,10000000 0 0 0 155400000,83000000"
       id="path4824" />
  </g>
  <g
     style="fill:#000000;fill-opacity:0;stroke:#000000;stroke-width:200000;stroke-linecap:round;stroke-linejoin:round;stroke-opacity:1"
     id="g5022"
     transform="translate(-104279760,-64900000)">
    <path
       d="M 175000000,100000000 H 105000000"
       id="path4828" />
    <path
       d="M 140000000,135000000 V 65000000"
       id="path4830" />
    <path
       d="m 162860000,107620000 v 2540000"
       id="path4832" />
    <path
       d="m 161590000,91110000 h 2540000"
       id="path4834" />
    <path
       d="m 161590000,108890000 h 2540000"
       id="path4836" />
    <path
       d="m 115870000,91110000 h 2540000"
       id="path4838" />
    <path
       d="m 117140000,107620000 v 2540000"
       id="path4840" />
    <path
       d="m 117140000,89840000 v 2540000"
       id="path4842" />
    <path
       d="m 115870000,108890000 h 2540000"
       id="path4844" />
    <path
       d="m 162860000,89840000 v 2540000"
       id="path4846" />
    <circle
       cx="162860000"
       cy="91110000"
       r="1270000"
       id="circle4848" />
    <circle
       cx="162860000"
       cy="108890000"
       r="1270000"
       id="circle4850" />
    <circle
       cx="117140000"
       cy="91110000"
       r="1270000"
       id="circle4852" />
    <circle
       cx="117140000"
       cy="108890000"
       r="1270000"
       id="circle4854" />
    <path
       d="m 144500000,115000000 h -9000000"
       id="path4856" />
    <path
       d="m 140000000,117250000 v -3750000"
       id="path4858" />
    <path
       d="m 144500000,117250000 h -9000000"
       id="path4860" />
    <path
       d="m 135500000,117250000 v -3750000"
       id="path4862" />
    <path
       d="m 135500000,113500000 h 9000000"
       id="path4864" />
    <path
       d="m 144500000,113500000 v 3750000"
       id="path4866" />
    <path
       d="m 138250000,85000000 h 7500000"
       id="path4868" />
    <path
       d="m 142000000,82750000 v 3750000"
       id="path4870" />
    <path
       d="m 138250000,82750000 h 7500000"
       id="path4872" />
    <path
       d="m 145750000,82750000 v 3750000"
       id="path4874" />
    <path
       d="m 145750000,86500000 h -7500000"
       id="path4876" />
    <path
       d="M 138250000,86500000 V 82750000"
       id="path4878" />
    <path
       d="m 133750000,115000000 h -7500000"
       id="path4880" />
    <path
       d="m 130000000,117250000 v -3750000"
       id="path4882" />
    <path
       d="m 133750000,117250000 h -7500000"
       id="path4884" />
    <path
       d="m 126250000,117250000 v -3750000"
       id="path4886" />
    <path
       d="m 126250000,113500000 h 7500000"
       id="path4888" />
    <path
       d="m 133750000,113500000 v 3750000"
       id="path4890" />
    <path
       d="m 153750000,115000000 h -7500000"
       id="path4892" />
    <path
       d="m 150000000,117250000 v -3750000"
       id="path4894" />
    <path
       d="m 153750000,117250000 h -7500000"
       id="path4896" />
    <path
       d="m 146250000,117250000 v -3750000"
       id="path4898" />
    <path
       d="m 146250000,113500000 h 7500000"
       id="path4900" />
    <path
       d="m 153750000,113500000 v 3750000"
       id="path4902" />
    <path
       d="m 148250000,85000000 h 7500000"
       id="path4904" />
    <path
       d="m 152000000,82750000 v 3750000"
       id="path4906" />
    <path
       d="m 148250000,82750000 h 7500000"
       id="path4908" />
    <path
       d="m 155750000,82750000 v 3750000"
       id="path4910" />
    <path
       d="m 155750000,86500000 h -7500000"
       id="path4912" />
    <path
       d="M 148250000,86500000 V 82750000"
       id="path4914" />
    <path
       d="m 132000000,82750000 v 3750000"
       id="path4916" />
    <path
       d="m 129000000,85000000 h 6000000"
       id="path4918" />
    <path
       d="m 129000000,82750000 h 6000000"
       id="path4920" />
    <path
       d="m 135000000,82750000 v 3750000"
       id="path4922" />
    <path
       d="m 135000000,86500000 h -6000000"
       id="path4924" />
    <path
       d="M 129000000,86500000 V 82750000"
       id="path4926" />
    <g
       id="g4928" />
    <g
       id="g4930" />
    <g
       id="g4932" />
    <g
       id="g4934" />
    <g
       id="g4936" />
    <g
       id="g4938" />
    <g
       id="g4940" />
    <g
       id="g4942" />
    <g
       id="g4944" />
    <g
       id="g4946" />
    <g
       id="g4948" />
    <g
       id="g4950" />
    <g
       id="g4952" />
    <g
       id="g4954" />
    <g
       id="g4956" />
    <g
       id="g4958" />
    <g
       id="g4960" />
    <g
       id="g4962" />
    <g
       id="g4964" />
    <g
       id="g4966" />
    <g
       id="g4968" />
    <g
       id="g4970" />
    <g
       id="g4972" />
    <g
       id="g4974" />
    <g
       id="g4976" />
    <g
       id="g4978" />
    <g
       id="g4980" />
    <g
       id="g4982" />
    <g
       id="g4984" />
    <g
       id="g4986" />
    <g
       id="g4988" />
    <g
       id="g4990" />
    <g
       id="g4992" />
    <g
       id="g4994" />
    <g
       id="g4996" />
    <g
       id="g4998" />
    <g
       id="g5000" />
    <g
       id="g5002" />
    <g
       id="g5004" />
    <g
       id="g5006" />
    <g
       id="g5008" />
    <g
       id="g5010" />
    <g
       id="g5012" />
    <g
       id="g5014" />
    <g
       id="g5016" />
    <g
       id="g5018" />
    <g
       id="g5020" />
  </g>
</svg>
