<?xml version="1.0" encoding="UTF-8" standalone="no"?>
<svg
   version="1.1"
   width="5.0899997cm"
   height="3.4099998cm"
   viewBox="0 0 50899997 34100000"
   id="svg666"
   sodipodi:docname="biym-board-B_Silkscreen.svg"
   xmlns:inkscape="http://www.inkscape.org/namespaces/inkscape"
   xmlns:sodipodi="http://sodipodi.sourceforge.net/DTD/sodipodi-0.dtd"
   xmlns="http://www.w3.org/2000/svg"
   xmlns:svg="http://www.w3.org/2000/svg">
  <defs
     id="defs670" />
  <sodipodi:namedview
     id="namedview668"
     pagecolor="#ffffff"
     bordercolor="#000000"
     borderopacity="0.25"
     inkscape:showpageshadow="2"
     inkscape:pageopacity="0.0"
     inkscape:pagecheckerboard="0"
     inkscape:deskcolor="#d1d1d1"
     inkscape:document-units="cm" />
  <title
     id="title2">SVG Picture created as biym-board-B_Silkscreen.svg date 2022/11/22 11:01:14 </title>
  <desc
     id="desc4">Picture generated by PCBNEW </desc>
  <g
     style="fill:#000000;fill-opacity:1;stroke:#000000;stroke-linecap:round;stroke-linejoin:round;stroke-opacity:1"
     id="g6"
     transform="translate(-114550000,-82950000)" />
  <g
     style="fill:#000000;fill-opacity:0;stroke:#000000;stroke-width:0;stroke-linecap:round;stroke-linejoin:round;stroke-opacity:1"
     id="g8"
     transform="translate(-114550000,-82950000)" />
  <g
     style="fill:#000000;fill-opacity:0;stroke:#000000;stroke-width:150000;stroke-linecap:round;stroke-linejoin:round;stroke-opacity:1"
     id="g58"
     transform="translate(-114550000,-82950000)">
    <path
       d="m 126250000,113500000 h 7500000"
       id="path10" />
    <path
       d="m 133750000,113500000 v 3000000"
       id="path12" />
    <path
       d="m 133750000,116500000 h -7500000"
       id="path14" />
    <path
       d="m 126250000,116500000 v -3000000"
       id="path16" />
    <path
       d="m 137500000,97500000 h 5000000"
       id="path18" />
    <path
       d="m 142500000,97500000 v 5000000"
       id="path20" />
    <path
       d="m 142500000,102500000 h -5000000"
       id="path22" />
    <path
       d="M 137500000,102500000 V 97500000"
       id="path24" />
    <path
       d="m 135500000,113500000 h 9000000"
       id="path26" />
    <path
       d="m 144500000,113500000 v 3000000"
       id="path28" />
    <path
       d="m 144500000,116500000 h -9000000"
       id="path30" />
    <path
       d="m 135500000,116500000 v -3000000"
       id="path32" />
    <path
       d="m 129000000,83500000 h 6000000"
       id="path34" />
    <path
       d="m 135000000,83500000 v 3000000"
       id="path36" />
    <path
       d="m 135000000,86500000 h -6000000"
       id="path38" />
    <path
       d="M 129000000,86500000 V 83500000"
       id="path40" />
    <path
       d="m 138250000,83500000 h 7500000"
       id="path42" />
    <path
       d="m 145750000,83500000 v 3000000"
       id="path44" />
    <path
       d="m 145750000,86500000 h -7500000"
       id="path46" />
    <path
       d="M 138250000,86500000 V 83500000"
       id="path48" />
    <path
       d="m 146250000,113500000 h 7500000"
       id="path50" />
    <path
       d="m 153750000,113500000 v 3000000"
       id="path52" />
    <path
       d="m 153750000,116500000 h -7500000"
       id="path54" />
    <path
       d="m 146250000,116500000 v -3000000"
       id="path56" />
  </g>
  <g
     style="fill:#000000;fill-opacity:1;stroke:#000000;stroke-width:1;stroke-linecap:round;stroke-linejoin:round;stroke-opacity:1"
     id="g62"
     transform="translate(-114550000,-82950000)">
    <circle
       cx="140000000"
       cy="100000000"
       r="1200000"
       id="circle60" />
  </g>
  <g
     style="fill:#000000;fill-opacity:1;stroke:#000000;stroke-width:150000;stroke-linecap:round;stroke-linejoin:round;stroke-opacity:1"
     id="g64"
     transform="translate(-114550000,-82950000)" />
  <g
     style="fill:#000000;fill-opacity:0;stroke:#000000;stroke-width:150000;stroke-linecap:round;stroke-linejoin:round;stroke-opacity:1"
     id="g82"
     transform="translate(-114550000,-82950000)">
    <path
       d="m 148250000,83500000 h 7500000"
       id="path66" />
    <path
       d="m 155750000,83500000 v 3000000"
       id="path68" />
    <path
       d="m 155750000,86500000 h -7500000"
       id="path70" />
    <path
       d="M 148250000,86500000 V 83500000"
       id="path72" />
    <path
       d="m 123750000,98500000 h -3000000"
       id="path74" />
    <path
       d="m 120750000,98500000 v 3000000"
       id="path76" />
    <path
       d="m 120750000,101500000 h 3000000"
       id="path78" />
    <path
       d="M 123750000,101500000 V 98500000"
       id="path80" />
  </g>
  <g
     style="fill:#000000;fill-opacity:0;stroke:#000000;stroke-width:100000;stroke-linecap:round;stroke-linejoin:round;stroke-opacity:1"
     id="g100"
     transform="translate(-114550000,-82950000)">
    <path
       d="m 124600000,117000000 h 30800000"
       id="path84" />
    <path
       d="m 155400000,117000000 a 10000000,10000000 0 0 0 10000000,-10000000"
       id="path86" />
    <path
       d="m 124600000,83000000 h 30800000"
       id="path88" />
    <path
       d="m 114600000,107000000 a 10000000,10000000 0 0 0 10000000,10000000"
       id="path90" />
    <path
       d="m 165400000,93000000 v 14000000"
       id="path92" />
    <path
       d="m 114600000,93000000 v 14000000"
       id="path94" />
    <path
       d="M 124600000,83000000 A 10000000,10000000 0 0 0 114600000,93000000"
       id="path96" />
    <path
       d="M 165400000,93000000 A 10000000,10000000 0 0 0 155400000,83000000"
       id="path98" />
  </g>
  <g
     style="fill:#000000;fill-opacity:0;stroke:#000000;stroke-width:125000;stroke-linecap:round;stroke-linejoin:round;stroke-opacity:1"
     id="g236"
     transform="translate(-114550000,-82950000)">
    <text
       x="140000000"
       y="114750000"
       transform="matrix(-1,0,0,1,280000000,0)"
       textLength="1194643"
       font-size="666666px"
       lengthAdjust="spacingAndGlyphs"
       text-anchor="middle"
       opacity="0"
       id="text102">LED</text>
    <g
       class="stroked-text"
       id="g114">
      <desc
         id="desc104">LED</desc>
      <path
         d="m 140321430,114726190 h 238090 v -500000"
         id="path106" />
      <path
         d="m 140154760,114464290 h -166660"
         id="path108" />
      <path
         d="m 139916670,114726190 h 238090 v -500000 h -238090"
         id="path110" />
      <path
         d="m 139702380,114726190 v -500000 h -119050 l -71430,23810 -47610,47620 -23810,47620 -23810,95240 v 71420 l 23810,95240 23810,47620 47610,47620 71430,23810 h 119050"
         id="path112" />
    </g>
    <text
       x="130000000"
       y="114750000"
       transform="matrix(-1,0,0,1,260000000,0)"
       textLength="2456548"
       font-size="666666px"
       lengthAdjust="spacingAndGlyphs"
       text-anchor="middle"
       opacity="0"
       id="text116">DRIVER</text>
    <g
       class="stroked-text"
       id="g138">
      <desc
         id="desc118">DRIVER</desc>
      <path
         d="m 131190480,114726190 v -500000 h -119050 l -71430,23810 -47620,47620 -23810,47620 -23810,95240 v 71420 l 23810,95240 23810,47620 47620,47620 71430,23810 h 119050"
         id="path120" />
      <path
         d="m 130404760,114726190 166670,-238090"
         id="path122" />
      <path
         d="m 130690480,114726190 v -500000 h -190480 l -47620,23810 -23810,23810 -23810,47620 v 71430 l 23810,47620 23810,23810 47620,23810 h 190480"
         id="path124" />
      <path
         d="m 130190480,114726190 v -500000"
         id="path126" />
      <path
         d="m 130023810,114226190 -166670,500000 -166660,-500000"
         id="path128" />
      <path
         d="m 129523810,114464290 h -166670"
         id="path130" />
      <path
         d="m 129285710,114726190 h 238100 v -500000 h -238100"
         id="path132" />
      <path
         d="m 128785710,114726190 166670,-238090"
         id="path134" />
      <path
         d="m 129071430,114726190 v -500000 h -190480 l -47620,23810 -23810,23810 -23810,47620 v 71430 l 23810,47620 23810,23810 47620,23810 h 190480"
         id="path136" />
    </g>
    <text
       x="132000000"
       y="85347504"
       transform="matrix(-1,0,0,1,264000000,0)"
       textLength="2385119"
       font-size="666666px"
       lengthAdjust="spacingAndGlyphs"
       text-anchor="middle"
       opacity="0"
       id="text140">POWER</text>
    <g
       class="stroked-text"
       id="g158">
      <desc
         id="desc142">POWER</desc>
      <path
         d="m 133154760,85323690 v -500000 h -190470 l -47620,23810 -23810,23809 -23810,47619 v 71429 l 23810,47619 23810,23809 47620,23810 h 190470"
         id="path144" />
      <path
         d="m 132559520,84823690 h -95230 l -47620,23810 -47620,47619 -23810,95238 v 166666 l 23810,95238 47620,47619 47620,23810 h 95230 l 47620,-23810 47620,-47619 23810,-95238 v -166666 l -23810,-95238 -47620,-47619 -47620,-23810"
         id="path146" />
      <path
         d="m 132178570,84823690 -119050,500000 -95230,-357143 -95240,357143 -119050,-500000"
         id="path148" />
      <path
         d="m 131559520,85061785 h -166660"
         id="path150" />
      <path
         d="m 131321430,85323690 h 238090 v -500000 h -238090"
         id="path152" />
      <path
         d="m 130821430,85323690 166670,-238095"
         id="path154" />
      <path
         d="m 131107140,85323690 v -500000 h -190470 l -47620,23810 -23810,23809 -23810,47619 v 71429 l 23810,47619 23810,23809 47620,23810 h 190470"
         id="path156" />
    </g>
    <text
       x="132000000"
       y="86152496"
       transform="matrix(-1,0,0,1,264000000,0)"
       textLength="2527976"
       font-size="666666px"
       lengthAdjust="spacingAndGlyphs"
       text-anchor="middle"
       opacity="0"
       id="text160">SWITCH</text>
    <g
       class="stroked-text"
       id="g182">
      <desc
         id="desc162">SWITCH</desc>
      <path
         d="m 133250000,86104880 -71430,23810 h -119050 l -47620,-23810 -23800,-23809 -23810,-47619 v -47619 l 23810,-47619 23800,-23810 47620,-23809 95240,-23810 47620,-23809 23810,-23810 23810,-47619 v -47619 l -23810,-47619 -23810,-23809 -47620,-23810 h -119050 l -71420,23810"
         id="path164" />
      <path
         d="m 132797620,85628690 -119050,500000 -95240,-357143 -95230,357143 -119050,-500000"
         id="path166" />
      <path
         d="m 132178570,86128690 v -500000"
         id="path168" />
      <path
         d="m 132011900,85628690 h -285710"
         id="path170" />
      <path
         d="m 131869050,86128690 v -500000"
         id="path172" />
      <path
         d="m 131273810,86081071 23810,23809 71430,23810 h 47620 l 71430,-23810 47610,-47619 23810,-47619 23810,-95238 v -71428 l -23810,-95238 -23810,-47619 -47610,-47619 -71430,-23810 h -47620 l -71430,23810 -23810,23809"
         id="path174" />
      <path
         d="m 131059520,86128690 v -500000"
         id="path176" />
      <path
         d="m 131059520,85866785 h -285710"
         id="path178" />
      <path
         d="m 130773810,86128690 v -500000"
         id="path180" />
    </g>
    <text
       x="122250000"
       y="98250000"
       transform="matrix(-1,0,0,1,244500000,0)"
       textLength="2456548"
       font-size="666666px"
       lengthAdjust="spacingAndGlyphs"
       text-anchor="middle"
       opacity="0"
       id="text184">DRIVER</text>
    <g
       class="stroked-text"
       id="g206">
      <desc
         id="desc186">DRIVER</desc>
      <path
         d="m 123440480,98226190 v -500000 h -119050 l -71430,23810 -47620,47619 -23810,47619 -23810,95238 v 71428 l 23810,95238 23810,47619 47620,47619 71430,23810 h 119050"
         id="path188" />
      <path
         d="m 122654760,98226190 166670,-238095"
         id="path190" />
      <path
         d="m 122940480,98226190 v -500000 h -190480 l -47620,23810 -23810,23809 -23810,47619 v 71429 l 23810,47619 23810,23809 47620,23810 h 190480"
         id="path192" />
      <path
         d="m 122440480,98226190 v -500000"
         id="path194" />
      <path
         d="m 122273810,97726190 -166670,500000 -166660,-500000"
         id="path196" />
      <path
         d="m 121773810,97964285 h -166670"
         id="path198" />
      <path
         d="m 121535710,98226190 h 238100 v -500000 h -238100"
         id="path200" />
      <path
         d="m 121035710,98226190 166670,-238095"
         id="path202" />
      <path
         d="m 121321430,98226190 v -500000 h -190480 l -47620,23810 -23810,23809 -23810,47619 v 71429 l 23810,47619 23810,23809 47620,23810 h 190480"
         id="path204" />
    </g>
    <text
       x="152000000"
       y="85347504"
       transform="matrix(-1,0,0,1,304000000,0)"
       textLength="2218452"
       font-size="666666px"
       lengthAdjust="spacingAndGlyphs"
       text-anchor="middle"
       opacity="0"
       id="text208">SERVO</text>
    <g
       class="stroked-text"
       id="g226">
      <desc
         id="desc210">SERVO</desc>
      <path
         d="m 153095240,85299880 -71430,23810 h -119050 l -47620,-23810 -23810,-23809 -23810,-47619 v -47619 l 23810,-47619 23810,-23810 47620,-23809 95240,-23810 47620,-23809 23810,-23810 23810,-47619 v -47619 l -23810,-47619 -23810,-23809 -47620,-23810 h -119050 l -71430,23810"
         id="path212" />
      <path
         d="m 152595240,85061785 h -166670"
         id="path214" />
      <path
         d="m 152357140,85323690 h 238100 v -500000 h -238100"
         id="path216" />
      <path
         d="m 151857140,85323690 166670,-238095"
         id="path218" />
      <path
         d="m 152142860,85323690 v -500000 h -190480 l -47620,23810 -23810,23809 -23810,47619 v 71429 l 23810,47619 23810,23809 47620,23810 h 190480"
         id="path220" />
      <path
         d="m 151714290,84823690 -166670,500000 -166670,-500000"
         id="path222" />
      <path
         d="m 151119050,84823690 h -95240 l -47620,23810 -47620,47619 -23810,95238 v 166666 l 23810,95238 47620,47619 47620,23810 h 95240 l 47620,-23810 47620,-47619 23810,-95238 v -166666 l -23810,-95238 -47620,-47619 -47620,-23810"
         id="path224" />
    </g>
    <text
       x="152000000"
       y="86152496"
       transform="matrix(-1,0,0,1,304000000,0)"
       textLength="313690"
       font-size="666666px"
       lengthAdjust="spacingAndGlyphs"
       text-anchor="middle"
       opacity="0"
       id="text228">0</text>
    <g
       class="stroked-text"
       id="g234">
      <desc
         id="desc230">0</desc>
      <path
         d="m 152023810,85628690 h -47620 l -47620,23810 -23810,23809 -23810,47619 -23810,95238 v 119048 l 23810,95238 23810,47619 23810,23809 47620,23810 h 47620 l 47620,-23810 23810,-23809 23810,-47619 23810,-95238 v -119048 l -23810,-95238 -23810,-47619 -23810,-23809 -47620,-23810"
         id="path232" />
    </g>
  </g>
  <g
     style="fill:#000000;fill-opacity:0;stroke:#000000;stroke-width:100000;stroke-linecap:round;stroke-linejoin:round;stroke-opacity:1"
     id="g498"
     transform="translate(-114550000,-82950000)">
    <text
       x="140000000"
       y="93446752"
       transform="matrix(-1,0,0,1,280000000,0)"
       textLength="4313690"
       font-size="666666px"
       lengthAdjust="spacingAndGlyphs"
       text-anchor="middle"
       opacity="0"
       id="text238">biym-board</text>
    <g
       class="stroked-text"
       id="g280">
      <desc
         id="desc240">biym-board</desc>
      <path
         d="m 142119050,93420559 v -550000"
         id="path242" />
      <path
         d="m 142119050,93080083 -47620,-26191 h -95240 l -47620,26191 -23810,26190 -23810,52381 v 157143 l 23810,52381 23810,26191 47620,26190 h 95240 l 47620,-26190"
         id="path244" />
      <path
         d="m 141666670,93420559 v -366667"
         id="path246" />
      <path
         d="m 141666670,92870559 23810,26191 -23810,26190 -23810,-26190 23810,-26191 v 52381"
         id="path248" />
      <path
         d="m 141476190,93053892 -119050,366667"
         id="path250" />
      <path
         d="m 141238100,93053892 119040,366667 47620,130952 23810,26191 47620,26190"
         id="path252" />
      <path
         d="m 141047620,93420559 v -366667"
         id="path254" />
      <path
         d="m 141047620,93106273 -23810,-26190 -47620,-26191 h -71430 l -47620,26191 -23810,52381 v 288095"
         id="path256" />
      <path
         d="m 140833330,93132464 -23810,-52381 -47620,-26191 h -71420 l -47620,26191 -23810,52381 v 288095"
         id="path258" />
      <path
         d="m 140380950,93211035 h -380950"
         id="path260" />
      <path
         d="m 139761900,93420559 v -550000"
         id="path262" />
      <path
         d="m 139761900,93080083 -47610,-26191 h -95240 l -47620,26191 -23810,26190 -23810,52381 v 157143 l 23810,52381 23810,26191 47620,26190 h 95240 l 47610,-26190"
         id="path264" />
      <path
         d="m 139238100,93420559 47610,-26190 23810,-26191 23810,-52381 v -157143 l -23810,-52381 -23810,-26190 -47610,-26191 h -71430 l -47620,26191 -23810,26190 -23810,52381 v 157143 l 23810,52381 23810,26191 47620,26190 h 71430"
         id="path266" />
      <path
         d="m 138642860,93420559 v -288095 l 23810,-52381 47620,-26191 h 95230 l 47620,26191"
         id="path268" />
      <path
         d="m 138642860,93394369 47620,26190 h 119040 l 47620,-26190 23810,-52381 v -52381 l -23810,-52381 -47620,-26191 h -119040 l -47620,-26190"
         id="path270" />
      <path
         d="m 138404760,93420559 v -366667"
         id="path272" />
      <path
         d="m 138404760,93158654 -23810,-52381 -23810,-26190 -47620,-26191 h -47620"
         id="path274" />
      <path
         d="m 137880950,93420559 v -550000"
         id="path276" />
      <path
         d="m 137880950,93394369 47620,26190 h 95240 l 47620,-26190 23810,-26191 23810,-52381 v -157143 l -23810,-52381 -23810,-26190 -47620,-26191 h -95240 l -47620,26191"
         id="path278" />
    </g>
    <text
       x="140000000"
       y="94332248"
       transform="matrix(-1,0,0,1,280000000,0)"
       textLength="4250952"
       font-size="666666px"
       lengthAdjust="spacingAndGlyphs"
       text-anchor="middle"
       opacity="0"
       id="text282">v1.2 11/22</text>
    <g
       class="stroked-text"
       id="g310">
      <desc
         id="desc284">v1.2 11/22</desc>
      <path
         d="m 142119050,93939392 -119050,366667 -119050,-366667"
         id="path286" />
      <path
         d="m 141428570,94306059 h 285720"
         id="path288" />
      <path
         d="m 141571430,94306059 v -550000 l 47620,78571 47620,52381 47620,26191"
         id="path290" />
      <path
         d="m 141214290,94253678 -23810,26191 23810,26190 23810,-26190 -23810,-26191 v 52381"
         id="path292" />
      <path
         d="m 141000000,93808440 -23810,-26190 -47620,-26191 h -119050 l -47620,26191 -23800,26190 -23810,52381 v 52381 l 23810,78571 285710,314286 h -309520"
         id="path294" />
      <path
         d="m 139857140,94306059 h 285720"
         id="path296" />
      <path
         d="m 140000000,94306059 v -550000 l 47620,78571 47620,52381 47620,26191"
         id="path298" />
      <path
         d="m 139380950,94306059 h 285720"
         id="path300" />
      <path
         d="m 139523810,94306059 v -550000 l 47620,78571 47620,52381 47620,26191"
         id="path302" />
      <path
         d="m 138809520,93729869 428580,707142"
         id="path304" />
      <path
         d="m 138666670,93808440 -23810,-26190 -47620,-26191 h -119050 l -47620,26191 -23810,26190 -23810,52381 v 52381 l 23810,78571 285720,314286 h -309530"
         id="path306" />
      <path
         d="m 138190480,93808440 -23810,-26190 -47620,-26191 h -119050 l -47620,26191 -23810,26190 -23810,52381 v 52381 l 23810,78571 285720,314286 h -309530"
         id="path308" />
    </g>
    <text
       x="140000000"
       y="95217752"
       transform="matrix(-1,0,0,1,280000000,0)"
       textLength="6417619"
       font-size="666666px"
       lengthAdjust="spacingAndGlyphs"
       text-anchor="middle"
       opacity="0"
       id="text312">peter@polidoro.io</text>
    <g
       class="stroked-text"
       id="g368">
      <desc
         id="desc314">peter@polidoro.io</desc>
      <path
         d="m 143154760,94824892 v 550000"
         id="path316" />
      <path
         d="m 143154760,94851083 -47620,-26191 h -95240 l -47610,26191 -23810,26190 -23810,52381 v 157143 l 23810,52381 23810,26191 47610,26190 h 95240 l 47620,-26190"
         id="path318" />
      <path
         d="m 142511900,95165369 47620,26190 h 95240 l 47620,-26190 23810,-52381 v -209524 l -23810,-52381 -47620,-26191 h -95240 l -47620,26191 -23800,52381 v 52381 l 238090,52381"
         id="path320" />
      <path
         d="m 142345240,94824892 h -190480"
         id="path322" />
      <path
         d="m 142273810,94641559 v 471429 l -23810,52381 -47620,26190 h -47620"
         id="path324" />
      <path
         d="m 141797620,95165369 47620,26190 h 95240 l 47620,-26190 23800,-52381 v -209524 l -23800,-52381 -47620,-26191 h -95240 l -47620,26191 -23810,52381 v 52381 l 238090,52381"
         id="path326" />
      <path
         d="m 141559520,95191559 v -366667"
         id="path328" />
      <path
         d="m 141559520,94929654 -23810,-52381 -23810,-26190 -47610,-26191 h -47620"
         id="path330" />
      <path
         d="m 140940480,94929654 23810,-26190 47610,-26191 h 47620 l 47620,26191 23810,26190 23810,52381 v 52381 l -23810,52381 -23810,26191 -47620,26190 h -47620 l -47610,-26190 -23810,-26191"
         id="path332" />
      <path
         d="m 140940480,94877273 v 209524 l -23810,26191 h -23810 l -47620,-26191 -23810,-52381 v -130952 l 47620,-78572 71430,-52381 95230,-26190 95240,26190 71430,52381 47620,78572 23810,104762 -23810,104762 -47620,78571 -71430,52381 -95240,26190 -95230,-26190 -71430,-52381"
         id="path334" />
      <path
         d="m 140607140,94824892 v 550000"
         id="path336" />
      <path
         d="m 140607140,94851083 -47620,-26191 h -95230 l -47620,26191 -23810,26190 -23810,52381 v 157143 l 23810,52381 23810,26191 47620,26190 h 95230 l 47620,-26190"
         id="path338" />
      <path
         d="m 140083330,95191559 47620,-26190 23810,-26191 23810,-52381 v -157143 l -23810,-52381 -23810,-26190 -47620,-26191 h -71430 l -47610,26191 -23810,26190 -23810,52381 v 157143 l 23810,52381 23810,26191 47610,26190 h 71430"
         id="path340" />
      <path
         d="m 139630950,95191559 47620,-26190 23810,-52381 v -471429"
         id="path342" />
      <path
         d="m 139440480,95191559 v -366667"
         id="path344" />
      <path
         d="m 139440480,94641559 23810,26191 -23810,26190 -23810,-26190 23810,-26191 v 52381"
         id="path346" />
      <path
         d="m 138988100,95191559 v -550000"
         id="path348" />
      <path
         d="m 138988100,95165369 47610,26190 h 95240 l 47620,-26190 23810,-26191 23810,-52381 v -157143 l -23810,-52381 -23810,-26190 -47620,-26191 h -95240 l -47610,26191"
         id="path350" />
      <path
         d="m 138678570,95191559 47620,-26190 23810,-26191 23810,-52381 v -157143 l -23810,-52381 -23810,-26190 -47620,-26191 h -71430 l -47620,26191 -23810,26190 -23810,52381 v 157143 l 23810,52381 23810,26191 47620,26190 h 71430"
         id="path352" />
      <path
         d="m 138297620,95191559 v -366667"
         id="path354" />
      <path
         d="m 138297620,94929654 -23810,-52381 -23810,-26190 -47620,-26191 h -47620"
         id="path356" />
      <path
         d="m 137916670,95191559 47620,-26190 23810,-26191 23800,-52381 v -157143 l -23800,-52381 -23810,-26190 -47620,-26191 h -71430 l -47620,26191 -23810,26190 -23810,52381 v 157143 l 23810,52381 23810,26191 47620,26190 h 71430"
         id="path358" />
      <path
         d="m 137535710,95139178 -23810,26191 23810,26190 23810,-26190 -23810,-26191 v 52381"
         id="path360" />
      <path
         d="m 137297620,95191559 v -366667"
         id="path362" />
      <path
         d="m 137297620,94641559 23810,26191 -23810,26190 -23810,-26190 23810,-26191 v 52381"
         id="path364" />
      <path
         d="m 136988100,95191559 47610,-26190 23810,-26191 23810,-52381 v -157143 l -23810,-52381 -23810,-26190 -47610,-26191 h -71430 l -47620,26191 -23810,26190 -23810,52381 v 157143 l 23810,52381 23810,26191 47620,26190 h 71430"
         id="path366" />
    </g>
    <text
       x="140000000"
       y="96103248"
       transform="matrix(-1,0,0,1,280000000,0)"
       textLength="14417619"
       font-size="666666px"
       lengthAdjust="spacingAndGlyphs"
       text-anchor="middle"
       opacity="0"
       id="text370">https://github.com/biym/biym-board</text>
    <g
       class="stroked-text"
       id="g496">
      <desc
         id="desc372">https://github.com/biym/biym-board</desc>
      <path
         d="m 147154760,96077059 v -550000"
         id="path374" />
      <path
         d="m 146940480,96077059 v -288095 l 23810,-52381 47610,-26191 h 71430 l 47620,26191 23810,26190"
         id="path376" />
      <path
         d="m 146773810,95710392 h -190480"
         id="path378" />
      <path
         d="m 146702380,95527059 v 471429 l -23810,52381 -47620,26190 h -47620"
         id="path380" />
      <path
         d="m 146488100,95710392 h -190480"
         id="path382" />
      <path
         d="m 146416670,95527059 v 471429 l -23810,52381 -47620,26190 h -47620"
         id="path384" />
      <path
         d="m 146130950,95710392 v 550000"
         id="path386" />
      <path
         d="m 146130950,95736583 -47620,-26191 h -95230 l -47620,26191 -23810,26190 -23810,52381 v 157143 l 23810,52381 23810,26191 47620,26190 h 95230 l 47620,-26190"
         id="path388" />
      <path
         d="m 145702380,96050869 -47620,26190 h -95240 l -47620,-26190 -23800,-52381 v -26191 l 23800,-52381 47620,-26190 h 71430 l 47620,-26191 23810,-52381 v -26190 l -23810,-52381 -47620,-26191 h -71430 l -47620,26191"
         id="path390" />
      <path
         d="m 145273810,96024678 -23810,26191 23810,26190 23810,-26190 -23810,-26191 v 52381"
         id="path392" />
      <path
         d="m 145273810,95736583 -23810,26190 23810,26191 23810,-26191 -23810,-26190 v 52381"
         id="path394" />
      <path
         d="m 144678570,95500869 428570,707142"
         id="path396" />
      <path
         d="m 144154760,95500869 428570,707142"
         id="path398" />
      <path
         d="m 143773810,95710392 v 445238 l 23810,52381 23810,26191 47620,26190 h 71430 l 47620,-26190"
         id="path400" />
      <path
         d="m 143773810,96050869 47620,26190 h 95240 l 47620,-26190 23810,-26191 23800,-52381 v -157143 l -23800,-52381 -23810,-26190 -47620,-26191 h -95240 l -47620,26191"
         id="path402" />
      <path
         d="m 143535710,96077059 v -366667"
         id="path404" />
      <path
         d="m 143535710,95527059 23810,26191 -23810,26190 -23810,-26190 23810,-26191 v 52381"
         id="path406" />
      <path
         d="m 143369050,95710392 h -190480"
         id="path408" />
      <path
         d="m 143297620,95527059 v 471429 l -23810,52381 -47620,26190 h -47620"
         id="path410" />
      <path
         d="m 143011900,96077059 v -550000"
         id="path412" />
      <path
         d="m 142797620,96077059 v -288095 l 23810,-52381 47620,-26191 h 71430 l 47620,26191 23800,26190"
         id="path414" />
      <path
         d="m 142345240,95710392 v 366667"
         id="path416" />
      <path
         d="m 142559520,95710392 v 288096 l -23810,52381 -47610,26190 h -71430 l -47620,-26190 -23810,-26191"
         id="path418" />
      <path
         d="m 142107140,96077059 v -550000"
         id="path420" />
      <path
         d="m 142107140,95736583 -47620,-26191 h -95230 l -47620,26191 -23810,26190 -23810,52381 v 157143 l 23810,52381 23810,26191 47620,26190 h 95230 l 47620,-26190"
         id="path422" />
      <path
         d="m 141654760,96024678 -23810,26191 23810,26190 23810,-26190 -23810,-26191 v 52381"
         id="path424" />
      <path
         d="m 141202380,96050869 47620,26190 h 95240 l 47620,-26190 23810,-26191 23810,-52381 v -157143 l -23810,-52381 -23810,-26190 -47620,-26191 h -95240 l -47620,26191"
         id="path426" />
      <path
         d="m 140916670,96077059 47620,-26190 23810,-26191 23800,-52381 v -157143 l -23800,-52381 -23810,-26190 -47620,-26191 h -71430 l -47620,26191 -23810,26190 -23810,52381 v 157143 l 23810,52381 23810,26191 47620,26190 h 71430"
         id="path428" />
      <path
         d="m 140535710,96077059 v -366667"
         id="path430" />
      <path
         d="m 140535710,95762773 -23810,-26190 -47610,-26191 h -71430 l -47620,26191 -23810,52381 v 288095"
         id="path432" />
      <path
         d="m 140321430,95788964 -23810,-52381 -47620,-26191 h -71430 l -47620,26191 -23810,52381 v 288095"
         id="path434" />
      <path
         d="m 139511900,95500869 428580,707142"
         id="path436" />
      <path
         d="m 139345240,96077059 v -550000"
         id="path438" />
      <path
         d="m 139345240,95736583 -47620,-26191 h -95240 l -47620,26191 -23810,26190 -23810,52381 v 157143 l 23810,52381 23810,26191 47620,26190 h 95240 l 47620,-26190"
         id="path440" />
      <path
         d="m 138892860,96077059 v -366667"
         id="path442" />
      <path
         d="m 138892860,95527059 23810,26191 -23810,26190 -23810,-26190 23810,-26191 v 52381"
         id="path444" />
      <path
         d="m 138702380,95710392 -119050,366667"
         id="path446" />
      <path
         d="m 138464290,95710392 119040,366667 47620,130952 23810,26191 47620,26190"
         id="path448" />
      <path
         d="m 138273810,96077059 v -366667"
         id="path450" />
      <path
         d="m 138273810,95762773 -23810,-26190 -47620,-26191 h -71430 l -47620,26191 -23810,52381 v 288095"
         id="path452" />
      <path
         d="m 138059520,95788964 -23810,-52381 -47610,-26191 h -71430 l -47620,26191 -23810,52381 v 288095"
         id="path454" />
      <path
         d="m 137250000,95500869 428570,707142"
         id="path456" />
      <path
         d="m 137083330,96077059 v -550000"
         id="path458" />
      <path
         d="m 137083330,95736583 -47620,-26191 h -95230 l -47620,26191 -23810,26190 -23810,52381 v 157143 l 23810,52381 23810,26191 47620,26190 h 95230 l 47620,-26190"
         id="path460" />
      <path
         d="m 136630950,96077059 v -366667"
         id="path462" />
      <path
         d="m 136630950,95527059 23810,26191 -23810,26190 -23810,-26190 23810,-26191 v 52381"
         id="path464" />
      <path
         d="m 136440480,95710392 -119050,366667"
         id="path466" />
      <path
         d="m 136202380,95710392 119050,366667 47620,130952 23810,26191 47620,26190"
         id="path468" />
      <path
         d="m 136011900,96077059 v -366667"
         id="path470" />
      <path
         d="m 136011900,95762773 -23800,-26190 -47620,-26191 h -71430 l -47620,26191 -23810,52381 v 288095"
         id="path472" />
      <path
         d="m 135797620,95788964 -23810,-52381 -47620,-26191 h -71430 l -47620,26191 -23810,52381 v 288095"
         id="path474" />
      <path
         d="m 135345240,95867535 h -380950"
         id="path476" />
      <path
         d="m 134726190,96077059 v -550000"
         id="path478" />
      <path
         d="m 134726190,95736583 -47620,-26191 h -95240 l -47620,26191 -23810,26190 -23800,52381 v 157143 l 23800,52381 23810,26191 47620,26190 h 95240 l 47620,-26190"
         id="path480" />
      <path
         d="m 134202380,96077059 47620,-26190 23810,-26191 23810,-52381 v -157143 l -23810,-52381 -23810,-26190 -47620,-26191 h -71430 l -47620,26191 -23810,26190 -23810,52381 v 157143 l 23810,52381 23810,26191 47620,26190 h 71430"
         id="path482" />
      <path
         d="m 133607140,96077059 v -288095 l 23810,-52381 47620,-26191 h 95240 l 47620,26191"
         id="path484" />
      <path
         d="m 133607140,96050869 47620,26190 h 119050 l 47620,-26190 23810,-52381 v -52381 l -23810,-52381 -47620,-26191 h -119050 l -47620,-26190"
         id="path486" />
      <path
         d="m 133369050,96077059 v -366667"
         id="path488" />
      <path
         d="m 133369050,95815154 -23810,-52381 -23810,-26190 -47620,-26191 h -47620"
         id="path490" />
      <path
         d="m 132845240,96077059 v -550000"
         id="path492" />
      <path
         d="m 132845240,96050869 47620,26190 h 95240 l 47610,-26190 23810,-26191 23810,-52381 v -157143 l -23810,-52381 -23810,-26190 -47610,-26191 h -95240 l -47620,26191"
         id="path494" />
    </g>
  </g>
  <g
     style="fill:#000000;fill-opacity:0;stroke:#000000;stroke-width:125000;stroke-linecap:round;stroke-linejoin:round;stroke-opacity:1"
     id="g664"
     transform="translate(-114550000,-82950000)">
    <text
       x="142000000"
       y="85347504"
       transform="matrix(-1,0,0,1,284000000,0)"
       textLength="2250952"
       font-size="666666px"
       lengthAdjust="spacingAndGlyphs"
       text-anchor="middle"
       opacity="0"
       id="text500">SERVO</text>
    <g
       class="stroked-text"
       id="g518">
      <desc
         id="desc502">SERVO</desc>
      <path
         d="m 143095240,85299880 -71430,23810 h -119050 l -47620,-23810 -23810,-23809 -23810,-47619 v -47619 l 23810,-47619 23810,-23810 47620,-23809 95240,-23810 47620,-23809 23810,-23810 23810,-47619 v -47619 l -23810,-47619 -23810,-23809 -47620,-23810 h -119050 l -71430,23810"
         id="path504" />
      <path
         d="m 142595240,85061785 h -166670"
         id="path506" />
      <path
         d="m 142357140,85323690 h 238100 v -500000 h -238100"
         id="path508" />
      <path
         d="m 141857140,85323690 166670,-238095"
         id="path510" />
      <path
         d="m 142142860,85323690 v -500000 h -190480 l -47620,23810 -23810,23809 -23810,47619 v 71429 l 23810,47619 23810,23809 47620,23810 h 190480"
         id="path512" />
      <path
         d="m 141714290,84823690 -166670,500000 -166670,-500000"
         id="path514" />
      <path
         d="m 141119050,84823690 h -95240 l -47620,23810 -47620,47619 -23810,95238 v 166666 l 23810,95238 47620,47619 47620,23810 h 95240 l 47620,-23810 47620,-47619 23810,-95238 v -166666 l -23810,-95238 -47620,-47619 -47620,-23810"
         id="path516" />
    </g>
    <text
       x="142000000"
       y="86152496"
       transform="matrix(-1,0,0,1,284000000,0)"
       textLength="313690"
       font-size="666666px"
       lengthAdjust="spacingAndGlyphs"
       text-anchor="middle"
       opacity="0"
       id="text520">1</text>
    <g
       class="stroked-text"
       id="g528">
      <desc
         id="desc522">1</desc>
      <path
         d="m 141857140,86128690 h 285720"
         id="path524" />
      <path
         d="m 142000000,86128690 v -500000 l 47620,71429 47620,47619 47620,23809"
         id="path526" />
    </g>
    <text
       x="150000000"
       y="114750000"
       transform="matrix(-1,0,0,1,300000000,0)"
       textLength="1599405"
       font-size="666666px"
       lengthAdjust="spacingAndGlyphs"
       text-anchor="middle"
       opacity="0"
       id="text530">GPIO</text>
    <g
       class="stroked-text"
       id="g542">
      <desc
         id="desc532">GPIO</desc>
      <path
         d="m 150500000,114250000 47620,-23810 h 71430 l 71430,23810 47620,47620 23800,47620 23810,95240 v 71420 l -23810,95240 -23800,47620 -47620,47620 -71430,23810 h -47620 l -71430,-23810 -23810,-23810 v -166670 h 95240"
         id="path534" />
      <path
         d="m 150261900,114726190 v -500000 h -190470 l -47620,23810 -23810,23810 -23810,47620 v 71430 l 23810,47620 23810,23810 47620,23810 h 190470"
         id="path536" />
      <path
         d="m 149761900,114726190 v -500000"
         id="path538" />
      <path
         d="m 149428570,114226190 h -95240 l -47620,23810 -47610,47620 -23810,95240 v 166660 l 23810,95240 47610,47620 47620,23810 h 95240 l 47620,-23810 47620,-47620 23810,-95240 v -166660 l -23810,-95240 -47620,-47620 -47620,-23810"
         id="path540" />
    </g>
    <text
       x="140000000"
       y="98500000"
       transform="matrix(-1,0,0,1,280000000,0)"
       textLength="3289881"
       font-size="666666px"
       lengthAdjust="spacingAndGlyphs"
       text-anchor="middle"
       opacity="0"
       id="text544">ENCODER</text>
    <g
       class="stroked-text"
       id="g568">
      <desc
         id="desc546">ENCODER</desc>
      <path
         d="m 141607140,98214285 h -166660"
         id="path548" />
      <path
         d="m 141369050,98476190 h 238090 v -500000 h -238090"
         id="path550" />
      <path
         d="m 141154760,98476190 v -500000 l -285710,500000 v -500000"
         id="path552" />
      <path
         d="m 140345240,98428571 23810,23809 71430,23810 h 47620 l 71420,-23810 47620,-47619 23810,-47619 23810,-95238 v -71428 l -23810,-95238 -23810,-47619 -47620,-47619 -71420,-23810 h -47620 l -71430,23810 -23810,23809"
         id="path554" />
      <path
         d="m 140035710,97976190 h -95230 l -47620,23810 -47620,47619 -23810,95238 v 166666 l 23810,95238 47620,47619 47620,23810 h 95230 l 47620,-23810 47620,-47619 23810,-95238 v -166666 l -23810,-95238 -47620,-47619 -47620,-23810"
         id="path556" />
      <path
         d="m 139607140,98476190 v -500000 h -119040 l -71430,23810 -47620,47619 -23810,47619 -23810,95238 v 71428 l 23810,95238 23810,47619 47620,47619 71430,23810 h 119040"
         id="path558" />
      <path
         d="m 139107140,98214285 h -166660"
         id="path560" />
      <path
         d="m 138869050,98476190 h 238090 v -500000 h -238090"
         id="path562" />
      <path
         d="m 138369050,98476190 166660,-238095"
         id="path564" />
      <path
         d="m 138654760,98476190 v -500000 h -190470 l -47620,23810 -23810,23809 -23810,47619 v 71429 l 23810,47619 23810,23809 47620,23810 h 190470"
         id="path566" />
    </g>
    <g
       id="g570" />
    <g
       id="g572" />
    <g
       id="g574" />
    <g
       id="g576" />
    <g
       id="g578" />
    <g
       id="g580" />
    <g
       id="g582" />
    <g
       id="g584" />
    <g
       id="g586" />
    <g
       id="g588" />
    <g
       id="g590" />
    <g
       id="g592" />
    <g
       id="g594" />
    <g
       id="g596" />
    <g
       id="g598" />
    <g
       id="g600" />
    <g
       id="g602" />
    <g
       id="g604" />
    <g
       id="g606" />
    <g
       id="g608" />
    <g
       id="g610" />
    <g
       id="g612" />
    <g
       id="g614" />
    <g
       id="g616" />
    <g
       id="g618" />
    <g
       id="g620" />
    <g
       id="g622" />
    <g
       id="g624" />
    <g
       id="g626" />
    <g
       id="g628" />
    <g
       id="g630" />
    <g
       id="g632" />
    <g
       id="g634" />
    <g
       id="g636" />
    <g
       id="g638" />
    <g
       id="g640" />
    <g
       id="g642" />
    <g
       id="g644" />
    <g
       id="g646" />
    <g
       id="g648" />
    <g
       id="g650" />
    <g
       id="g652" />
    <g
       id="g654" />
    <g
       id="g656" />
    <g
       id="g658" />
    <g
       id="g660" />
    <g
       id="g662" />
  </g>
</svg>
