<?xml version="1.0" standalone="no"?>
 <!DOCTYPE svg PUBLIC "-//W3C//DTD SVG 1.1//EN" 
 "http://www.w3.org/Graphics/SVG/1.1/DTD/svg11.dtd"> 
<svg
  xmlns:svg="http://www.w3.org/2000/svg"
  xmlns="http://www.w3.org/2000/svg"
  xmlns:xlink="http://www.w3.org/1999/xlink"
  version="1.1"
  width="29.700220cm" height="21.000720cm" viewBox="0 0 297002200 210007200">
<title>SVG Picture created as biym-board-User_Drawings.svg date 2022/12/06 09:23:59 </title>
  <desc>Picture generated by PCBNEW </desc>
<g style="fill:#000000; fill-opacity:1.000000;stroke:#000000; stroke-opacity:1.000000;
stroke-linecap:round; stroke-linejoin:round;"
 transform="translate(0 0) scale(1 1)">
</g>
<g style="fill:#000000; fill-opacity:0.0; 
stroke:#000000; stroke-width:0.000000; stroke-opacity:1; 
stroke-linecap:round; stroke-linejoin:round;">
</g>
<g style="fill:#000000; fill-opacity:0.0; 
stroke:#000000; stroke-width:250000.000000; stroke-opacity:1; 
stroke-linecap:round; stroke-linejoin:round;">
<text x="147000000.000000" y="95500000.000000"
textLength="5593333.000000" font-size="1333333.000000" lengthAdjust="spacingAndGlyphs"
text-anchor="middle" opacity="0">10 mm</text>
<g class="stroked-text"><desc>10 mm</desc>
<path d="M145095238 95452380
L144523809 95452380
" />
<path d="M144809523 95452380
L144809523 94452380
L144714285 94595238
L144619047 94690476
L144523809 94738095
" />
<path d="M145714285 94452380
L145809523 94452380
L145904761 94500000
L145952380 94547619
L146000000 94642857
L146047619 94833333
L146047619 95071428
L146000000 95261904
L145952380 95357142
L145904761 95404761
L145809523 95452380
L145714285 95452380
L145619047 95404761
L145571428 95357142
L145523809 95261904
L145476190 95071428
L145476190 94833333
L145523809 94642857
L145571428 94547619
L145619047 94500000
L145714285 94452380
" />
<path d="M147238095 95452380
L147238095 94785714
" />
<path d="M147238095 94880952
L147285714 94833333
L147380952 94785714
L147523809 94785714
L147619047 94833333
L147666666 94928571
L147666666 95452380
" />
<path d="M147666666 94928571
L147714285 94833333
L147809523 94785714
L147952380 94785714
L148047619 94833333
L148095238 94928571
L148095238 95452380
" />
<path d="M148571428 95452380
L148571428 94785714
" />
<path d="M148571428 94880952
L148619047 94833333
L148714285 94785714
L148857142 94785714
L148952380 94833333
L149000000 94928571
L149000000 95452380
" />
<path d="M149000000 94928571
L149047619 94833333
L149142857 94785714
L149285714 94785714
L149380952 94833333
L149428571 94928571
L149428571 95452380
" />
</g></g>
<g style="fill:#000000; fill-opacity:0.0; 
stroke:#000000; stroke-width:200000.000000; stroke-opacity:1; 
stroke-linecap:round; stroke-linejoin:round;">
<path d="M152000000 85500000
L152000000 95586420
" />
<path d="M142000000 95586420
L142000000 85125000
" />
<path d="M152000000 95000000
L150291667 95000000
" />
<path d="M143708334 95000000
L142000000 95000000
" />
<path d="M152000000 95000000
L150891236 94422814
" />
<path d="M152000000 95000000
L150891236 95577186
" />
<path d="M142000000 95000000
L143108764 95577186
" />
<path d="M142000000 95000000
L143108764 94422814
" />
</g>
<g style="fill:#000000; fill-opacity:0.0; 
stroke:#000000; stroke-width:250000.000000; stroke-opacity:1; 
stroke-linecap:round; stroke-linejoin:round;">
<text x="137000000.000000" y="95500000.000000"
textLength="5658333.000000" font-size="1333333.000000" lengthAdjust="spacingAndGlyphs"
text-anchor="middle" opacity="0">10 mm</text>
<g class="stroked-text"><desc>10 mm</desc>
<path d="M135095238 95452380
L134523809 95452380
" />
<path d="M134809523 95452380
L134809523 94452380
L134714285 94595238
L134619047 94690476
L134523809 94738095
" />
<path d="M135714285 94452380
L135809523 94452380
L135904761 94500000
L135952380 94547619
L136000000 94642857
L136047619 94833333
L136047619 95071428
L136000000 95261904
L135952380 95357142
L135904761 95404761
L135809523 95452380
L135714285 95452380
L135619047 95404761
L135571428 95357142
L135523809 95261904
L135476190 95071428
L135476190 94833333
L135523809 94642857
L135571428 94547619
L135619047 94500000
L135714285 94452380
" />
<path d="M137238095 95452380
L137238095 94785714
" />
<path d="M137238095 94880952
L137285714 94833333
L137380952 94785714
L137523809 94785714
L137619047 94833333
L137666666 94928571
L137666666 95452380
" />
<path d="M137666666 94928571
L137714285 94833333
L137809523 94785714
L137952380 94785714
L138047619 94833333
L138095238 94928571
L138095238 95452380
" />
<path d="M138571428 95452380
L138571428 94785714
" />
<path d="M138571428 94880952
L138619047 94833333
L138714285 94785714
L138857142 94785714
L138952380 94833333
L139000000 94928571
L139000000 95452380
" />
<path d="M139000000 94928571
L139047619 94833333
L139142857 94785714
L139285714 94785714
L139380952 94833333
L139428571 94928571
L139428571 95452380
" />
</g></g>
<g style="fill:#000000; fill-opacity:0.0; 
stroke:#000000; stroke-width:200000.000000; stroke-opacity:1; 
stroke-linecap:round; stroke-linejoin:round;">
<path d="M132000000 85500000
L132000000 95586420
" />
<path d="M142000000 95586420
L142000000 85500000
" />
<path d="M132000000 95000000
L133708334 95000000
" />
<path d="M140291667 95000000
L142000000 95000000
" />
<path d="M132000000 95000000
L133108764 95577186
" />
<path d="M132000000 95000000
L133108764 94422814
" />
<path d="M142000000 95000000
L140891236 94422814
" />
<path d="M142000000 95000000
L140891236 95577186
" />
</g>
<g style="fill:#000000; fill-opacity:0.0; 
stroke:#000000; stroke-width:250000.000000; stroke-opacity:1; 
stroke-linecap:round; stroke-linejoin:round;">
<text x="136000000.000000" y="90340000.000000"
textLength="4705952.000000" font-size="1333333.000000" lengthAdjust="spacingAndGlyphs"
text-anchor="middle" opacity="0">8 mm</text>
<g class="stroked-text"><desc>8 mm</desc>
<path d="M134190476 89720952
L134095238 89673333
L134047619 89625714
L134000000 89530476
L134000000 89482857
L134047619 89387619
L134095238 89340000
L134190476 89292380
L134380952 89292380
L134476190 89340000
L134523809 89387619
L134571428 89482857
L134571428 89530476
L134523809 89625714
L134476190 89673333
L134380952 89720952
L134190476 89720952
L134095238 89768571
L134047619 89816190
L134000000 89911428
L134000000 90101904
L134047619 90197142
L134095238 90244761
L134190476 90292380
L134380952 90292380
L134476190 90244761
L134523809 90197142
L134571428 90101904
L134571428 89911428
L134523809 89816190
L134476190 89768571
L134380952 89720952
" />
<path d="M135761904 90292380
L135761904 89625714
" />
<path d="M135761904 89720952
L135809523 89673333
L135904761 89625714
L136047619 89625714
L136142857 89673333
L136190476 89768571
L136190476 90292380
" />
<path d="M136190476 89768571
L136238095 89673333
L136333333 89625714
L136476190 89625714
L136571428 89673333
L136619047 89768571
L136619047 90292380
" />
<path d="M137095238 90292380
L137095238 89625714
" />
<path d="M137095238 89720952
L137142857 89673333
L137238095 89625714
L137380952 89625714
L137476190 89673333
L137523809 89768571
L137523809 90292380
" />
<path d="M137523809 89768571
L137571428 89673333
L137666666 89625714
L137809523 89625714
L137904761 89673333
L137952380 89768571
L137952380 90292380
" />
</g></g>
<g style="fill:#000000; fill-opacity:0.0; 
stroke:#000000; stroke-width:200000.000000; stroke-opacity:1; 
stroke-linecap:round; stroke-linejoin:round;">
<path d="M132000000 85500000
L132000000 90426420
" />
<path d="M140000000 90426420
L140000000 80500000
" />
<path d="M132000000 89840000
L133184524 89840000
" />
<path d="M138815476 89840000
L140000000 89840000
" />
<path d="M132000000 89840000
L133108764 90417186
" />
<path d="M132000000 89840000
L133108764 89262814
" />
<path d="M140000000 89840000
L138891236 89262814
" />
<path d="M140000000 89840000
L138891236 90417186
" />
</g>
<g style="fill:#000000; fill-opacity:0.0; 
stroke:#000000; stroke-width:250000.000000; stroke-opacity:1; 
stroke-linecap:round; stroke-linejoin:round;">
<text x="145000000.000000" y="110660000.000000"
textLength="5658333.000000" font-size="1333333.000000" lengthAdjust="spacingAndGlyphs"
text-anchor="middle" opacity="0">10 mm</text>
<g class="stroked-text"><desc>10 mm</desc>
<path d="M143095238 110612380
L142523809 110612380
" />
<path d="M142809523 110612380
L142809523 109612380
L142714285 109755238
L142619047 109850476
L142523809 109898095
" />
<path d="M143714285 109612380
L143809523 109612380
L143904761 109660000
L143952380 109707619
L144000000 109802857
L144047619 109993333
L144047619 110231428
L144000000 110421904
L143952380 110517142
L143904761 110564761
L143809523 110612380
L143714285 110612380
L143619047 110564761
L143571428 110517142
L143523809 110421904
L143476190 110231428
L143476190 109993333
L143523809 109802857
L143571428 109707619
L143619047 109660000
L143714285 109612380
" />
<path d="M145238095 110612380
L145238095 109945714
" />
<path d="M145238095 110040952
L145285714 109993333
L145380952 109945714
L145523809 109945714
L145619047 109993333
L145666666 110088571
L145666666 110612380
" />
<path d="M145666666 110088571
L145714285 109993333
L145809523 109945714
L145952380 109945714
L146047619 109993333
L146095238 110088571
L146095238 110612380
" />
<path d="M146571428 110612380
L146571428 109945714
" />
<path d="M146571428 110040952
L146619047 109993333
L146714285 109945714
L146857142 109945714
L146952380 109993333
L147000000 110088571
L147000000 110612380
" />
<path d="M147000000 110088571
L147047619 109993333
L147142857 109945714
L147285714 109945714
L147380952 109993333
L147428571 110088571
L147428571 110612380
" />
</g></g>
<g style="fill:#000000; fill-opacity:0.0; 
stroke:#000000; stroke-width:200000.000000; stroke-opacity:1; 
stroke-linecap:round; stroke-linejoin:round;">
<path d="M140000000 114500000
L140000000 109573580
" />
<path d="M150000000 109573580
L150000000 114500000
" />
<path d="M140000000 110160000
L141708334 110160000
" />
<path d="M148291667 110160000
L150000000 110160000
" />
<path d="M140000000 110160000
L141108764 110737186
" />
<path d="M140000000 110160000
L141108764 109582814
" />
<path d="M150000000 110160000
L148891236 109582814
" />
<path d="M150000000 110160000
L148891236 110737186
" />
</g>
<g style="fill:#000000; fill-opacity:0.0; 
stroke:#000000; stroke-width:250000.000000; stroke-opacity:1; 
stroke-linecap:round; stroke-linejoin:round;">
<text x="135000000.000000" y="110660000.000000"
textLength="5658333.000000" font-size="1333333.000000" lengthAdjust="spacingAndGlyphs"
text-anchor="middle" opacity="0">10 mm</text>
<g class="stroked-text"><desc>10 mm</desc>
<path d="M133095238 110612380
L132523809 110612380
" />
<path d="M132809523 110612380
L132809523 109612380
L132714285 109755238
L132619047 109850476
L132523809 109898095
" />
<path d="M133714285 109612380
L133809523 109612380
L133904761 109660000
L133952380 109707619
L134000000 109802857
L134047619 109993333
L134047619 110231428
L134000000 110421904
L133952380 110517142
L133904761 110564761
L133809523 110612380
L133714285 110612380
L133619047 110564761
L133571428 110517142
L133523809 110421904
L133476190 110231428
L133476190 109993333
L133523809 109802857
L133571428 109707619
L133619047 109660000
L133714285 109612380
" />
<path d="M135238095 110612380
L135238095 109945714
" />
<path d="M135238095 110040952
L135285714 109993333
L135380952 109945714
L135523809 109945714
L135619047 109993333
L135666666 110088571
L135666666 110612380
" />
<path d="M135666666 110088571
L135714285 109993333
L135809523 109945714
L135952380 109945714
L136047619 109993333
L136095238 110088571
L136095238 110612380
" />
<path d="M136571428 110612380
L136571428 109945714
" />
<path d="M136571428 110040952
L136619047 109993333
L136714285 109945714
L136857142 109945714
L136952380 109993333
L137000000 110088571
L137000000 110612380
" />
<path d="M137000000 110088571
L137047619 109993333
L137142857 109945714
L137285714 109945714
L137380952 109993333
L137428571 110088571
L137428571 110612380
" />
</g></g>
<g style="fill:#000000; fill-opacity:0.0; 
stroke:#000000; stroke-width:200000.000000; stroke-opacity:1; 
stroke-linecap:round; stroke-linejoin:round;">
<path d="M130000000 114500000
L130000000 109573580
" />
<path d="M140000000 109573580
L140000000 114875000
" />
<path d="M130000000 110160000
L131708334 110160000
" />
<path d="M138291667 110160000
L140000000 110160000
" />
<path d="M130000000 110160000
L131108764 110737186
" />
<path d="M130000000 110160000
L131108764 109582814
" />
<path d="M140000000 110160000
L138891236 109582814
" />
<path d="M140000000 110160000
L138891236 110737186
" />
</g>
<g style="fill:#000000; fill-opacity:0.0; 
stroke:#000000; stroke-width:250000.000000; stroke-opacity:1; 
stroke-linecap:round; stroke-linejoin:round;">
<g transform="rotate(-90.000000 172000000.000000 104445000.000000)">
<text x="172000000.000000" y="104945000.000000"
textLength="7086905.000000" font-size="1333333.000000" lengthAdjust="spacingAndGlyphs"
text-anchor="middle" opacity="0">8.89 mm</text>
</g>
<g class="stroked-text"><desc>8.89 mm</desc>
<path d="M171880952 107445000
L171833333 107540238
L171785714 107587857
L171690476 107635476
L171642857 107635476
L171547619 107587857
L171500000 107540238
L171452380 107445000
L171452380 107254523
L171500000 107159285
L171547619 107111666
L171642857 107064047
L171690476 107064047
L171785714 107111666
L171833333 107159285
L171880952 107254523
L171880952 107445000
L171928571 107540238
L171976190 107587857
L172071428 107635476
L172261904 107635476
L172357142 107587857
L172404761 107540238
L172452380 107445000
L172452380 107254523
L172404761 107159285
L172357142 107111666
L172261904 107064047
L172071428 107064047
L171976190 107111666
L171928571 107159285
L171880952 107254523
" />
<path d="M172357142 106635476
L172404761 106587857
L172452380 106635476
L172404761 106683095
L172357142 106635476
L172452380 106635476
" />
<path d="M171880952 106016428
L171833333 106111666
L171785714 106159285
L171690476 106206904
L171642857 106206904
L171547619 106159285
L171500000 106111666
L171452380 106016428
L171452380 105825952
L171500000 105730714
L171547619 105683095
L171642857 105635476
L171690476 105635476
L171785714 105683095
L171833333 105730714
L171880952 105825952
L171880952 106016428
L171928571 106111666
L171976190 106159285
L172071428 106206904
L172261904 106206904
L172357142 106159285
L172404761 106111666
L172452380 106016428
L172452380 105825952
L172404761 105730714
L172357142 105683095
L172261904 105635476
L172071428 105635476
L171976190 105683095
L171928571 105730714
L171880952 105825952
" />
<path d="M172452380 105159285
L172452380 104968809
L172404761 104873571
L172357142 104825952
L172214285 104730714
L172023809 104683095
L171642857 104683095
L171547619 104730714
L171500000 104778333
L171452380 104873571
L171452380 105064047
L171500000 105159285
L171547619 105206904
L171642857 105254523
L171880952 105254523
L171976190 105206904
L172023809 105159285
L172071428 105064047
L172071428 104873571
L172023809 104778333
L171976190 104730714
L171880952 104683095
" />
<path d="M172452380 103492619
L171785714 103492619
" />
<path d="M171880952 103492619
L171833333 103445000
L171785714 103349761
L171785714 103206904
L171833333 103111666
L171928571 103064047
L172452380 103064047
" />
<path d="M171928571 103064047
L171833333 103016428
L171785714 102921190
L171785714 102778333
L171833333 102683095
L171928571 102635476
L172452380 102635476
" />
<path d="M172452380 102159285
L171785714 102159285
" />
<path d="M171880952 102159285
L171833333 102111666
L171785714 102016428
L171785714 101873571
L171833333 101778333
L171928571 101730714
L172452380 101730714
" />
<path d="M171928571 101730714
L171833333 101683095
L171785714 101587857
L171785714 101445000
L171833333 101349761
L171928571 101302142
L172452380 101302142
" />
</g></g>
<g style="fill:#000000; fill-opacity:0.0; 
stroke:#000000; stroke-width:200000.000000; stroke-opacity:1; 
stroke-linecap:round; stroke-linejoin:round;">
<path d="M163360000 108890000
L170586420 108890000
" />
<path d="M170586420 100000000
L163360000 100000000
" />
<path d="M170000000 108890000
L170000000 100000000
" />
<path d="M170000000 108890000
L170000000 100000000
" />
<path d="M170000000 108890000
L170577186 107781236
" />
<path d="M170000000 108890000
L169422814 107781236
" />
<path d="M170000000 100000000
L169422814 101108764
" />
<path d="M170000000 100000000
L170577186 101108764
" />
</g>
<g style="fill:#000000; fill-opacity:0.0; 
stroke:#000000; stroke-width:250000.000000; stroke-opacity:1; 
stroke-linecap:round; stroke-linejoin:round;">
<g transform="rotate(-90.000000 172000000.000000 95555000.000000)">
<text x="172000000.000000" y="96055000.000000"
textLength="7086905.000000" font-size="1333333.000000" lengthAdjust="spacingAndGlyphs"
text-anchor="middle" opacity="0">8.89 mm</text>
</g>
<g class="stroked-text"><desc>8.89 mm</desc>
<path d="M171880952 98555000
L171833333 98650238
L171785714 98697857
L171690476 98745476
L171642857 98745476
L171547619 98697857
L171500000 98650238
L171452380 98555000
L171452380 98364523
L171500000 98269285
L171547619 98221666
L171642857 98174047
L171690476 98174047
L171785714 98221666
L171833333 98269285
L171880952 98364523
L171880952 98555000
L171928571 98650238
L171976190 98697857
L172071428 98745476
L172261904 98745476
L172357142 98697857
L172404761 98650238
L172452380 98555000
L172452380 98364523
L172404761 98269285
L172357142 98221666
L172261904 98174047
L172071428 98174047
L171976190 98221666
L171928571 98269285
L171880952 98364523
" />
<path d="M172357142 97745476
L172404761 97697857
L172452380 97745476
L172404761 97793095
L172357142 97745476
L172452380 97745476
" />
<path d="M171880952 97126428
L171833333 97221666
L171785714 97269285
L171690476 97316904
L171642857 97316904
L171547619 97269285
L171500000 97221666
L171452380 97126428
L171452380 96935952
L171500000 96840714
L171547619 96793095
L171642857 96745476
L171690476 96745476
L171785714 96793095
L171833333 96840714
L171880952 96935952
L171880952 97126428
L171928571 97221666
L171976190 97269285
L172071428 97316904
L172261904 97316904
L172357142 97269285
L172404761 97221666
L172452380 97126428
L172452380 96935952
L172404761 96840714
L172357142 96793095
L172261904 96745476
L172071428 96745476
L171976190 96793095
L171928571 96840714
L171880952 96935952
" />
<path d="M172452380 96269285
L172452380 96078809
L172404761 95983571
L172357142 95935952
L172214285 95840714
L172023809 95793095
L171642857 95793095
L171547619 95840714
L171500000 95888333
L171452380 95983571
L171452380 96174047
L171500000 96269285
L171547619 96316904
L171642857 96364523
L171880952 96364523
L171976190 96316904
L172023809 96269285
L172071428 96174047
L172071428 95983571
L172023809 95888333
L171976190 95840714
L171880952 95793095
" />
<path d="M172452380 94602619
L171785714 94602619
" />
<path d="M171880952 94602619
L171833333 94555000
L171785714 94459761
L171785714 94316904
L171833333 94221666
L171928571 94174047
L172452380 94174047
" />
<path d="M171928571 94174047
L171833333 94126428
L171785714 94031190
L171785714 93888333
L171833333 93793095
L171928571 93745476
L172452380 93745476
" />
<path d="M172452380 93269285
L171785714 93269285
" />
<path d="M171880952 93269285
L171833333 93221666
L171785714 93126428
L171785714 92983571
L171833333 92888333
L171928571 92840714
L172452380 92840714
" />
<path d="M171928571 92840714
L171833333 92793095
L171785714 92697857
L171785714 92555000
L171833333 92459761
L171928571 92412142
L172452380 92412142
" />
</g></g>
<g style="fill:#000000; fill-opacity:0.0; 
stroke:#000000; stroke-width:200000.000000; stroke-opacity:1; 
stroke-linecap:round; stroke-linejoin:round;">
<path d="M163360000 91110000
L170586420 91110000
" />
<path d="M170586420 100000000
L163360000 100000000
" />
<path d="M170000000 91110000
L170000000 100000000
" />
<path d="M170000000 91110000
L170000000 100000000
" />
<path d="M170000000 91110000
L169422814 92218764
" />
<path d="M170000000 91110000
L170577186 92218764
" />
<path d="M170000000 100000000
L170577186 98891236
" />
<path d="M170000000 100000000
L169422814 98891236
" />
</g>
<g style="fill:#000000; fill-opacity:0.0; 
stroke:#000000; stroke-width:250000.000000; stroke-opacity:1; 
stroke-linecap:round; stroke-linejoin:round;">
<text x="151430000.000000" y="120500000.000000"
textLength="8039286.000000" font-size="1333333.000000" lengthAdjust="spacingAndGlyphs"
text-anchor="middle" opacity="0">22.86 mm</text>
<g class="stroked-text"><desc>22.86 mm</desc>
<path d="M147763333 119547619
L147810952 119500000
L147906190 119452380
L148144285 119452380
L148239523 119500000
L148287142 119547619
L148334761 119642857
L148334761 119738095
L148287142 119880952
L147715714 120452380
L148334761 120452380
" />
<path d="M148715714 119547619
L148763333 119500000
L148858571 119452380
L149096666 119452380
L149191904 119500000
L149239523 119547619
L149287142 119642857
L149287142 119738095
L149239523 119880952
L148668095 120452380
L149287142 120452380
" />
<path d="M149715714 120357142
L149763333 120404761
L149715714 120452380
L149668095 120404761
L149715714 120357142
L149715714 120452380
" />
<path d="M150334761 119880952
L150239523 119833333
L150191904 119785714
L150144285 119690476
L150144285 119642857
L150191904 119547619
L150239523 119500000
L150334761 119452380
L150525238 119452380
L150620476 119500000
L150668095 119547619
L150715714 119642857
L150715714 119690476
L150668095 119785714
L150620476 119833333
L150525238 119880952
L150334761 119880952
L150239523 119928571
L150191904 119976190
L150144285 120071428
L150144285 120261904
L150191904 120357142
L150239523 120404761
L150334761 120452380
L150525238 120452380
L150620476 120404761
L150668095 120357142
L150715714 120261904
L150715714 120071428
L150668095 119976190
L150620476 119928571
L150525238 119880952
" />
<path d="M151572857 119452380
L151382380 119452380
L151287142 119500000
L151239523 119547619
L151144285 119690476
L151096666 119880952
L151096666 120261904
L151144285 120357142
L151191904 120404761
L151287142 120452380
L151477619 120452380
L151572857 120404761
L151620476 120357142
L151668095 120261904
L151668095 120023809
L151620476 119928571
L151572857 119880952
L151477619 119833333
L151287142 119833333
L151191904 119880952
L151144285 119928571
L151096666 120023809
" />
<path d="M152858571 120452380
L152858571 119785714
" />
<path d="M152858571 119880952
L152906190 119833333
L153001428 119785714
L153144285 119785714
L153239523 119833333
L153287142 119928571
L153287142 120452380
" />
<path d="M153287142 119928571
L153334761 119833333
L153430000 119785714
L153572857 119785714
L153668095 119833333
L153715714 119928571
L153715714 120452380
" />
<path d="M154191904 120452380
L154191904 119785714
" />
<path d="M154191904 119880952
L154239523 119833333
L154334761 119785714
L154477619 119785714
L154572857 119833333
L154620476 119928571
L154620476 120452380
" />
<path d="M154620476 119928571
L154668095 119833333
L154763333 119785714
L154906190 119785714
L155001428 119833333
L155049047 119928571
L155049047 120452380
" />
</g></g>
<g style="fill:#000000; fill-opacity:0.0; 
stroke:#000000; stroke-width:200000.000000; stroke-opacity:1; 
stroke-linecap:round; stroke-linejoin:round;">
<path d="M140000000 100500000
L140000000 120586420
" />
<path d="M162860000 120586420
L162860000 109390000
" />
<path d="M140000000 120000000
L146947857 120000000
" />
<path d="M155912143 120000000
L162860000 120000000
" />
<path d="M140000000 120000000
L141108764 120577186
" />
<path d="M140000000 120000000
L141108764 119422814
" />
<path d="M162860000 120000000
L161751236 119422814
" />
<path d="M162860000 120000000
L161751236 120577186
" />
</g>
<g style="fill:#000000; fill-opacity:0.0; 
stroke:#000000; stroke-width:250000.000000; stroke-opacity:1; 
stroke-linecap:round; stroke-linejoin:round;">
<text x="128570000.000000" y="120500000.000000"
textLength="8039286.000000" font-size="1333333.000000" lengthAdjust="spacingAndGlyphs"
text-anchor="middle" opacity="0">22.86 mm</text>
<g class="stroked-text"><desc>22.86 mm</desc>
<path d="M124903333 119547619
L124950952 119500000
L125046190 119452380
L125284285 119452380
L125379523 119500000
L125427142 119547619
L125474761 119642857
L125474761 119738095
L125427142 119880952
L124855714 120452380
L125474761 120452380
" />
<path d="M125855714 119547619
L125903333 119500000
L125998571 119452380
L126236666 119452380
L126331904 119500000
L126379523 119547619
L126427142 119642857
L126427142 119738095
L126379523 119880952
L125808095 120452380
L126427142 120452380
" />
<path d="M126855714 120357142
L126903333 120404761
L126855714 120452380
L126808095 120404761
L126855714 120357142
L126855714 120452380
" />
<path d="M127474761 119880952
L127379523 119833333
L127331904 119785714
L127284285 119690476
L127284285 119642857
L127331904 119547619
L127379523 119500000
L127474761 119452380
L127665238 119452380
L127760476 119500000
L127808095 119547619
L127855714 119642857
L127855714 119690476
L127808095 119785714
L127760476 119833333
L127665238 119880952
L127474761 119880952
L127379523 119928571
L127331904 119976190
L127284285 120071428
L127284285 120261904
L127331904 120357142
L127379523 120404761
L127474761 120452380
L127665238 120452380
L127760476 120404761
L127808095 120357142
L127855714 120261904
L127855714 120071428
L127808095 119976190
L127760476 119928571
L127665238 119880952
" />
<path d="M128712857 119452380
L128522380 119452380
L128427142 119500000
L128379523 119547619
L128284285 119690476
L128236666 119880952
L128236666 120261904
L128284285 120357142
L128331904 120404761
L128427142 120452380
L128617619 120452380
L128712857 120404761
L128760476 120357142
L128808095 120261904
L128808095 120023809
L128760476 119928571
L128712857 119880952
L128617619 119833333
L128427142 119833333
L128331904 119880952
L128284285 119928571
L128236666 120023809
" />
<path d="M129998571 120452380
L129998571 119785714
" />
<path d="M129998571 119880952
L130046190 119833333
L130141428 119785714
L130284285 119785714
L130379523 119833333
L130427142 119928571
L130427142 120452380
" />
<path d="M130427142 119928571
L130474761 119833333
L130570000 119785714
L130712857 119785714
L130808095 119833333
L130855714 119928571
L130855714 120452380
" />
<path d="M131331904 120452380
L131331904 119785714
" />
<path d="M131331904 119880952
L131379523 119833333
L131474761 119785714
L131617619 119785714
L131712857 119833333
L131760476 119928571
L131760476 120452380
" />
<path d="M131760476 119928571
L131808095 119833333
L131903333 119785714
L132046190 119785714
L132141428 119833333
L132189047 119928571
L132189047 120452380
" />
</g></g>
<g style="fill:#000000; fill-opacity:0.0; 
stroke:#000000; stroke-width:200000.000000; stroke-opacity:1; 
stroke-linecap:round; stroke-linejoin:round;">
<path d="M140000000 100500000
L140000000 120586420
" />
<path d="M117140000 120586420
L117140000 109390000
" />
<path d="M140000000 120000000
L133052143 120000000
" />
<path d="M124087857 120000000
L117140000 120000000
" />
<path d="M140000000 120000000
L138891236 119422814
" />
<path d="M140000000 120000000
L138891236 120577186
" />
<path d="M117140000 120000000
L118248764 120577186
" />
<path d="M117140000 120000000
L118248764 119422814
" />
</g>
<g style="fill:#000000; fill-opacity:0.0; 
stroke:#000000; stroke-width:250000.000000; stroke-opacity:1; 
stroke-linecap:round; stroke-linejoin:round;">
<text x="135000000.000000" y="75500000.000000"
textLength="7086905.000000" font-size="1333333.000000" lengthAdjust="spacingAndGlyphs"
text-anchor="middle" opacity="0">50.8 mm</text>
<g class="stroked-text"><desc>50.8 mm</desc>
<path d="M132333333 74452380
L131857142 74452380
L131809523 74928571
L131857142 74880952
L131952380 74833333
L132190476 74833333
L132285714 74880952
L132333333 74928571
L132380952 75023809
L132380952 75261904
L132333333 75357142
L132285714 75404761
L132190476 75452380
L131952380 75452380
L131857142 75404761
L131809523 75357142
" />
<path d="M133000000 74452380
L133095238 74452380
L133190476 74500000
L133238095 74547619
L133285714 74642857
L133333333 74833333
L133333333 75071428
L133285714 75261904
L133238095 75357142
L133190476 75404761
L133095238 75452380
L133000000 75452380
L132904761 75404761
L132857142 75357142
L132809523 75261904
L132761904 75071428
L132761904 74833333
L132809523 74642857
L132857142 74547619
L132904761 74500000
L133000000 74452380
" />
<path d="M133761904 75357142
L133809523 75404761
L133761904 75452380
L133714285 75404761
L133761904 75357142
L133761904 75452380
" />
<path d="M134380952 74880952
L134285714 74833333
L134238095 74785714
L134190476 74690476
L134190476 74642857
L134238095 74547619
L134285714 74500000
L134380952 74452380
L134571428 74452380
L134666666 74500000
L134714285 74547619
L134761904 74642857
L134761904 74690476
L134714285 74785714
L134666666 74833333
L134571428 74880952
L134380952 74880952
L134285714 74928571
L134238095 74976190
L134190476 75071428
L134190476 75261904
L134238095 75357142
L134285714 75404761
L134380952 75452380
L134571428 75452380
L134666666 75404761
L134714285 75357142
L134761904 75261904
L134761904 75071428
L134714285 74976190
L134666666 74928571
L134571428 74880952
" />
<path d="M135952380 75452380
L135952380 74785714
" />
<path d="M135952380 74880952
L136000000 74833333
L136095238 74785714
L136238095 74785714
L136333333 74833333
L136380952 74928571
L136380952 75452380
" />
<path d="M136380952 74928571
L136428571 74833333
L136523809 74785714
L136666666 74785714
L136761904 74833333
L136809523 74928571
L136809523 75452380
" />
<path d="M137285714 75452380
L137285714 74785714
" />
<path d="M137285714 74880952
L137333333 74833333
L137428571 74785714
L137571428 74785714
L137666666 74833333
L137714285 74928571
L137714285 75452380
" />
<path d="M137714285 74928571
L137761904 74833333
L137857142 74785714
L138000000 74785714
L138095238 74833333
L138142857 74928571
L138142857 75452380
" />
</g></g>
<g style="fill:#000000; fill-opacity:0.0; 
stroke:#000000; stroke-width:200000.000000; stroke-opacity:1; 
stroke-linecap:round; stroke-linejoin:round;">
<path d="M114600000 99500000
L114600000 74413580
" />
<path d="M165400000 74413580
L165400000 99500000
" />
<path d="M114600000 75000000
L130994048 75000000
" />
<path d="M139005953 75000000
L165400000 75000000
" />
<path d="M114600000 75000000
L115708764 75577186
" />
<path d="M114600000 75000000
L115708764 74422814
" />
<path d="M165400000 75000000
L164291236 74422814
" />
<path d="M165400000 75000000
L164291236 75577186
" />
</g>
<g style="fill:#000000; fill-opacity:0.0; 
stroke:#000000; stroke-width:250000.000000; stroke-opacity:1; 
stroke-linecap:round; stroke-linejoin:round;">
<text x="127300000.000000" y="80500000.000000"
textLength="7086905.000000" font-size="1333333.000000" lengthAdjust="spacingAndGlyphs"
text-anchor="middle" opacity="0">25.4 mm</text>
<g class="stroked-text"><desc>25.4 mm</desc>
<path d="M124109523 79547619
L124157142 79500000
L124252380 79452380
L124490476 79452380
L124585714 79500000
L124633333 79547619
L124680952 79642857
L124680952 79738095
L124633333 79880952
L124061904 80452380
L124680952 80452380
" />
<path d="M125585714 79452380
L125109523 79452380
L125061904 79928571
L125109523 79880952
L125204761 79833333
L125442857 79833333
L125538095 79880952
L125585714 79928571
L125633333 80023809
L125633333 80261904
L125585714 80357142
L125538095 80404761
L125442857 80452380
L125204761 80452380
L125109523 80404761
L125061904 80357142
" />
<path d="M126061904 80357142
L126109523 80404761
L126061904 80452380
L126014285 80404761
L126061904 80357142
L126061904 80452380
" />
<path d="M126966666 79785714
L126966666 80452380
" />
<path d="M126728571 79404761
L126490476 80119047
L127109523 80119047
" />
<path d="M128252380 80452380
L128252380 79785714
" />
<path d="M128252380 79880952
L128300000 79833333
L128395238 79785714
L128538095 79785714
L128633333 79833333
L128680952 79928571
L128680952 80452380
" />
<path d="M128680952 79928571
L128728571 79833333
L128823809 79785714
L128966666 79785714
L129061904 79833333
L129109523 79928571
L129109523 80452380
" />
<path d="M129585714 80452380
L129585714 79785714
" />
<path d="M129585714 79880952
L129633333 79833333
L129728571 79785714
L129871428 79785714
L129966666 79833333
L130014285 79928571
L130014285 80452380
" />
<path d="M130014285 79928571
L130061904 79833333
L130157142 79785714
L130300000 79785714
L130395238 79833333
L130442857 79928571
L130442857 80452380
" />
</g></g>
<g style="fill:#000000; fill-opacity:0.0; 
stroke:#000000; stroke-width:200000.000000; stroke-opacity:1; 
stroke-linecap:round; stroke-linejoin:round;">
<path d="M140000000 99500000
L140000000 79413580
" />
<path d="M114600000 79413580
L114600000 99500000
" />
<path d="M140000000 80000000
L131305953 80000000
" />
<path d="M123294048 80000000
L114600000 80000000
" />
<path d="M140000000 80000000
L138891236 79422814
" />
<path d="M140000000 80000000
L138891236 80577186
" />
<path d="M114600000 80000000
L115708764 80577186
" />
<path d="M114600000 80000000
L115708764 79422814
" />
<path d="M140000000 130000000
L140000000 70000000
" />
<path d="M110000000 100000000
L170000000 100000000
" />
</g>
<g style="fill:#000000; fill-opacity:0.0; 
stroke:#000000; stroke-width:250000.000000; stroke-opacity:1; 
stroke-linecap:round; stroke-linejoin:round;">
<g transform="rotate(-90.000000 105000000.000000 100000000.000000)">
<text x="105000000.000000" y="100500000.000000"
textLength="5658333.000000" font-size="1333333.000000" lengthAdjust="spacingAndGlyphs"
text-anchor="middle" opacity="0">34 mm</text>
</g>
<g class="stroked-text"><desc>34 mm</desc>
<path d="M104452380 102523809
L104452380 101904761
L104833333 102238095
L104833333 102095238
L104880952 102000000
L104928571 101952380
L105023809 101904761
L105261904 101904761
L105357142 101952380
L105404761 102000000
L105452380 102095238
L105452380 102380952
L105404761 102476190
L105357142 102523809
" />
<path d="M104785714 101047619
L105452380 101047619
" />
<path d="M104404761 101285714
L105119047 101523809
L105119047 100904761
" />
<path d="M105452380 99761904
L104785714 99761904
" />
<path d="M104880952 99761904
L104833333 99714285
L104785714 99619047
L104785714 99476190
L104833333 99380952
L104928571 99333333
L105452380 99333333
" />
<path d="M104928571 99333333
L104833333 99285714
L104785714 99190476
L104785714 99047619
L104833333 98952380
L104928571 98904761
L105452380 98904761
" />
<path d="M105452380 98428571
L104785714 98428571
" />
<path d="M104880952 98428571
L104833333 98380952
L104785714 98285714
L104785714 98142857
L104833333 98047619
L104928571 98000000
L105452380 98000000
" />
<path d="M104928571 98000000
L104833333 97952380
L104785714 97857142
L104785714 97714285
L104833333 97619047
L104928571 97571428
L105452380 97571428
" />
</g></g>
<g style="fill:#000000; fill-opacity:0.0; 
stroke:#000000; stroke-width:200000.000000; stroke-opacity:1; 
stroke-linecap:round; stroke-linejoin:round;">
<path d="M124100000 117000000
L104413580 117000000
" />
<path d="M104413580 83000000
L124100000 83000000
" />
<path d="M105000000 117000000
L105000000 103291666
" />
<path d="M105000000 96708333
L105000000 83000000
" />
<path d="M105000000 117000000
L105577186 115891236
" />
<path d="M105000000 117000000
L104422814 115891236
" />
<path d="M105000000 83000000
L104422814 84108764
" />
<path d="M105000000 83000000
L105577186 84108764
" />
</g>
<g style="fill:#000000; fill-opacity:0.0; 
stroke:#000000; stroke-width:250000.000000; stroke-opacity:1; 
stroke-linecap:round; stroke-linejoin:round;">
<g transform="rotate(-90.000000 110000000.000000 91500000.000000)">
<text x="110000000.000000" y="92000000.000000"
textLength="5658333.000000" font-size="1333333.000000" lengthAdjust="spacingAndGlyphs"
text-anchor="middle" opacity="0">17 mm</text>
</g>
<g class="stroked-text"><desc>17 mm</desc>
<path d="M110452380 93404761
L110452380 93976190
" />
<path d="M110452380 93690476
L109452380 93690476
L109595238 93785714
L109690476 93880952
L109738095 93976190
" />
<path d="M109452380 93071428
L109452380 92404761
L110452380 92833333
" />
<path d="M110452380 91261904
L109785714 91261904
" />
<path d="M109880952 91261904
L109833333 91214285
L109785714 91119047
L109785714 90976190
L109833333 90880952
L109928571 90833333
L110452380 90833333
" />
<path d="M109928571 90833333
L109833333 90785714
L109785714 90690476
L109785714 90547619
L109833333 90452380
L109928571 90404761
L110452380 90404761
" />
<path d="M110452380 89928571
L109785714 89928571
" />
<path d="M109880952 89928571
L109833333 89880952
L109785714 89785714
L109785714 89642857
L109833333 89547619
L109928571 89500000
L110452380 89500000
" />
<path d="M109928571 89500000
L109833333 89452380
L109785714 89357142
L109785714 89214285
L109833333 89119047
L109928571 89071428
L110452380 89071428
" />
</g></g>
<g style="fill:#000000; fill-opacity:0.0; 
stroke:#000000; stroke-width:200000.000000; stroke-opacity:1; 
stroke-linecap:round; stroke-linejoin:round;">
<path d="M139500000 100000000
L109413580 100000000
" />
<path d="M109413580 83000000
L124100000 83000000
" />
<path d="M110000000 100000000
L110000000 94791666
" />
<path d="M110000000 88208333
L110000000 83000000
" />
<path d="M110000000 100000000
L110577186 98891236
" />
<path d="M110000000 100000000
L109422814 98891236
" />
<path d="M110000000 83000000
L109422814 84108764
" />
<path d="M110000000 83000000
L110577186 84108764
" />
</g>
<g style="fill:#000000; fill-opacity:0.0; 
stroke:#000000; stroke-width:100000.000000; stroke-opacity:1; 
stroke-linecap:round; stroke-linejoin:round;">
<path d="M124600000 117000000
L155400000 117000000
" />
<path d="M155400000.000000 117000000.000000 A10000000.000000 10000000.000000 0.0 0 0 165400000.000000 107000000.000000" />
<path d="M124600000 83000000
L155400000 83000000
" />
<path d="M114600000.000000 107000000.000000 A10000000.000000 10000000.000000 0.0 0 0 124600000.000000 117000000.000000" />
<path d="M165400000 93000000
L165400000 107000000
" />
<path d="M114600000 93000000
L114600000 107000000
" />
<path d="M124600000.000000 83000000.000000 A10000000.000000 10000000.000000 0.0 0 0 114600000.000000 93000000.000000" />
<path d="M165400000.000000 93000000.000000 A10000000.000000 10000000.000000 0.0 0 0 155400000.000000 83000000.000000" />
</g>
<g style="fill:#000000; fill-opacity:0.0; 
stroke:#000000; stroke-width:200000.000000; stroke-opacity:1; 
stroke-linecap:round; stroke-linejoin:round;">
<path d="M117140000 107620000
L117140000 110160000
" />
<path d="M117140000 89840000
L117140000 92380000
" />
<path d="M161590000 91110000
L164130000 91110000
" />
<path d="M161590000 108890000
L164130000 108890000
" />
<path d="M115870000 91110000
L118410000 91110000
" />
<path d="M162860000 89840000
L162860000 92380000
" />
<path d="M162860000 107620000
L162860000 110160000
" />
<path d="M115870000 108890000
L118410000 108890000
" />
<circle cx="162860000.000000" cy="108890000.000000" r="1270000.000000" /> 
<circle cx="117140000.000000" cy="108890000.000000" r="1270000.000000" /> 
<circle cx="162860000.000000" cy="91110000.000000" r="1270000.000000" /> 
<circle cx="117140000.000000" cy="91110000.000000" r="1270000.000000" /> 
<path d="M132000000 82750000
L132000000 86500000
" />
<path d="M129000000 85000000
L135000000 85000000
" />
<path d="M129000000 82750000
L135000000 82750000
" />
<path d="M135000000 82750000
L135000000 86500000
" />
<path d="M135000000 86500000
L129000000 86500000
" />
<path d="M129000000 86500000
L129000000 82750000
" />
<path d="M142000000 82750000
L142000000 86500000
" />
<path d="M138250000 85000000
L145750000 85000000
" />
<path d="M138250000 82750000
L145750000 82750000
" />
<path d="M145750000 82750000
L145750000 86500000
" />
<path d="M145750000 86500000
L138250000 86500000
" />
<path d="M138250000 86500000
L138250000 82750000
" />
<path d="M130000000 117250000
L130000000 113500000
" />
<path d="M133750000 115000000
L126250000 115000000
" />
<path d="M133750000 117250000
L126250000 117250000
" />
<path d="M126250000 117250000
L126250000 113500000
" />
<path d="M126250000 113500000
L133750000 113500000
" />
<path d="M133750000 113500000
L133750000 117250000
" />
<path d="M153750000 115000000
L146250000 115000000
" />
<path d="M150000000 117250000
L150000000 113500000
" />
<path d="M153750000 117250000
L146250000 117250000
" />
<path d="M146250000 117250000
L146250000 113500000
" />
<path d="M146250000 113500000
L153750000 113500000
" />
<path d="M153750000 113500000
L153750000 117250000
" />
<path d="M140000000 117250000
L140000000 113500000
" />
<path d="M144500000 115000000
L135500000 115000000
" />
<path d="M144500000 117250000
L135500000 117250000
" />
<path d="M135500000 117250000
L135500000 113500000
" />
<path d="M135500000 113500000
L144500000 113500000
" />
<path d="M144500000 113500000
L144500000 117250000
" />
<path d="M152000000 82750000
L152000000 86500000
" />
<path d="M148250000 85000000
L155750000 85000000
" />
<path d="M148250000 82750000
L155750000 82750000
" />
<path d="M155750000 82750000
L155750000 86500000
" />
<path d="M155750000 86500000
L148250000 86500000
" />
<path d="M148250000 86500000
L148250000 82750000
" />
<g >
</g>
<g >
</g>
<g >
</g>
<g >
</g>
<g >
</g>
<g >
</g>
<g >
</g>
<g >
</g>
<g >
</g>
<g >
</g>
<g >
</g>
<g >
</g>
<g >
</g>
<g >
</g>
<g >
</g>
<g >
</g>
<g >
</g>
<g >
</g>
<g >
</g>
<g >
</g>
<g >
</g>
<g >
</g>
<g >
</g>
<g >
</g>
<g >
</g>
<g >
</g>
<g >
</g>
<g >
</g>
<g >
</g>
<g >
</g>
<g >
</g>
<g >
</g>
<g >
</g>
<g >
</g>
<g >
</g>
<g >
</g>
<g >
</g>
<g >
</g>
<g >
</g>
<g >
</g>
<g >
</g>
<g >
</g>
<g >
</g>
<g >
</g>
<g >
</g>
<g >
</g>
<g >
</g>
</g> 
</svg>
