<?xml version="1.0" standalone="no"?>
 <!DOCTYPE svg PUBLIC "-//W3C//DTD SVG 1.1//EN" 
 "http://www.w3.org/Graphics/SVG/1.1/DTD/svg11.dtd"> 
<svg
  xmlns:svg="http://www.w3.org/2000/svg"
  xmlns="http://www.w3.org/2000/svg"
  xmlns:xlink="http://www.w3.org/1999/xlink"
  version="1.1"
  width="29.700220cm" height="21.000720cm" viewBox="0 0 297002200 210007200">
<title>SVG Picture created as biym-board-User_Drawings.svg date 2022/11/21 12:48:26 </title>
  <desc>Picture generated by PCBNEW </desc>
<g style="fill:#000000; fill-opacity:1.000000;stroke:#000000; stroke-opacity:1.000000;
stroke-linecap:round; stroke-linejoin:round;"
 transform="translate(0 0) scale(1 1)">
</g>
<g style="fill:#000000; fill-opacity:0.0; 
stroke:#000000; stroke-width:0.000000; stroke-opacity:1; 
stroke-linecap:round; stroke-linejoin:round;">
</g>
<g style="fill:#000000; fill-opacity:0.0; 
stroke:#000000; stroke-width:100000.000000; stroke-opacity:1; 
stroke-linecap:round; stroke-linejoin:round;">
<path d="M124600000 117000000
L155400000 117000000
" />
<path d="M155400000.000000 117000000.000000 A10000000.000000 10000000.000000 0.0 0 0 165400000.000000 107000000.000000" />
<path d="M124600000 83000000
L155400000 83000000
" />
<path d="M114600000.000000 107000000.000000 A10000000.000000 10000000.000000 0.0 0 0 124600000.000000 117000000.000000" />
<path d="M165400000 93000000
L165400000 107000000
" />
<path d="M114600000 93000000
L114600000 107000000
" />
<path d="M124600000.000000 83000000.000000 A10000000.000000 10000000.000000 0.0 0 0 114600000.000000 93000000.000000" />
<path d="M165400000.000000 93000000.000000 A10000000.000000 10000000.000000 0.0 0 0 155400000.000000 83000000.000000" />
</g>
<g style="fill:#000000; fill-opacity:0.0; 
stroke:#000000; stroke-width:150000.000000; stroke-opacity:1; 
stroke-linecap:round; stroke-linejoin:round;">
<path d="M117140000 100000000
L162860000 100000000
" />
<path d="M140000000 77140000
L140000000 122860000
" />
<text x="152700000.000000" y="77350000.000000"
textLength="9781548.000000" font-size="1333333.000000" lengthAdjust="spacingAndGlyphs"
text-anchor="middle" opacity="0">25.4000 mm</text>
<g class="stroked-text"><desc>25.4000 mm</desc>
<path d="M148080952 76397619
L148128571 76350000
L148223809 76302380
L148461904 76302380
L148557142 76350000
L148604761 76397619
L148652380 76492857
L148652380 76588095
L148604761 76730952
L148033333 77302380
L148652380 77302380
" />
<path d="M149557142 76302380
L149080952 76302380
L149033333 76778571
L149080952 76730952
L149176190 76683333
L149414285 76683333
L149509523 76730952
L149557142 76778571
L149604761 76873809
L149604761 77111904
L149557142 77207142
L149509523 77254761
L149414285 77302380
L149176190 77302380
L149080952 77254761
L149033333 77207142
" />
<path d="M150033333 77207142
L150080952 77254761
L150033333 77302380
L149985714 77254761
L150033333 77207142
L150033333 77302380
" />
<path d="M150938095 76635714
L150938095 77302380
" />
<path d="M150700000 76254761
L150461904 76969047
L151080952 76969047
" />
<path d="M151652380 76302380
L151747619 76302380
L151842857 76350000
L151890476 76397619
L151938095 76492857
L151985714 76683333
L151985714 76921428
L151938095 77111904
L151890476 77207142
L151842857 77254761
L151747619 77302380
L151652380 77302380
L151557142 77254761
L151509523 77207142
L151461904 77111904
L151414285 76921428
L151414285 76683333
L151461904 76492857
L151509523 76397619
L151557142 76350000
L151652380 76302380
" />
<path d="M152604761 76302380
L152700000 76302380
L152795238 76350000
L152842857 76397619
L152890476 76492857
L152938095 76683333
L152938095 76921428
L152890476 77111904
L152842857 77207142
L152795238 77254761
L152700000 77302380
L152604761 77302380
L152509523 77254761
L152461904 77207142
L152414285 77111904
L152366666 76921428
L152366666 76683333
L152414285 76492857
L152461904 76397619
L152509523 76350000
L152604761 76302380
" />
<path d="M153557142 76302380
L153652380 76302380
L153747619 76350000
L153795238 76397619
L153842857 76492857
L153890476 76683333
L153890476 76921428
L153842857 77111904
L153795238 77207142
L153747619 77254761
L153652380 77302380
L153557142 77302380
L153461904 77254761
L153414285 77207142
L153366666 77111904
L153319047 76921428
L153319047 76683333
L153366666 76492857
L153414285 76397619
L153461904 76350000
L153557142 76302380
" />
<path d="M155080952 77302380
L155080952 76635714
" />
<path d="M155080952 76730952
L155128571 76683333
L155223809 76635714
L155366666 76635714
L155461904 76683333
L155509523 76778571
L155509523 77302380
" />
<path d="M155509523 76778571
L155557142 76683333
L155652380 76635714
L155795238 76635714
L155890476 76683333
L155938095 76778571
L155938095 77302380
" />
<path d="M156414285 77302380
L156414285 76635714
" />
<path d="M156414285 76730952
L156461904 76683333
L156557142 76635714
L156700000 76635714
L156795238 76683333
L156842857 76778571
L156842857 77302380
" />
<path d="M156842857 76778571
L156890476 76683333
L156985714 76635714
L157128571 76635714
L157223809 76683333
L157271428 76778571
L157271428 77302380
" />
</g><path d="M140000000 99500000
L140000000 77413580
" />
<path d="M165400000 77413580
L165400000 98500000
" />
<path d="M140000000 78000000
L165400000 78000000
" />
<path d="M140000000 78000000
L165400000 78000000
" />
<path d="M140000000 78000000
L141126504 78586421
" />
<path d="M140000000 78000000
L141126504 77413579
" />
<path d="M165400000 78000000
L164273496 77413579
" />
<path d="M165400000 78000000
L164273496 78586421
" />
<text x="140000000.000000" y="119350000.000000"
textLength="9814048.000000" font-size="1333333.000000" lengthAdjust="spacingAndGlyphs"
text-anchor="middle" opacity="0">50.8000 mm</text>
<g class="stroked-text"><desc>50.8000 mm</desc>
<path d="M135904761 118302380
L135428571 118302380
L135380952 118778571
L135428571 118730952
L135523809 118683333
L135761904 118683333
L135857142 118730952
L135904761 118778571
L135952380 118873809
L135952380 119111904
L135904761 119207142
L135857142 119254761
L135761904 119302380
L135523809 119302380
L135428571 119254761
L135380952 119207142
" />
<path d="M136571428 118302380
L136666666 118302380
L136761904 118350000
L136809523 118397619
L136857142 118492857
L136904761 118683333
L136904761 118921428
L136857142 119111904
L136809523 119207142
L136761904 119254761
L136666666 119302380
L136571428 119302380
L136476190 119254761
L136428571 119207142
L136380952 119111904
L136333333 118921428
L136333333 118683333
L136380952 118492857
L136428571 118397619
L136476190 118350000
L136571428 118302380
" />
<path d="M137333333 119207142
L137380952 119254761
L137333333 119302380
L137285714 119254761
L137333333 119207142
L137333333 119302380
" />
<path d="M137952380 118730952
L137857142 118683333
L137809523 118635714
L137761904 118540476
L137761904 118492857
L137809523 118397619
L137857142 118350000
L137952380 118302380
L138142857 118302380
L138238095 118350000
L138285714 118397619
L138333333 118492857
L138333333 118540476
L138285714 118635714
L138238095 118683333
L138142857 118730952
L137952380 118730952
L137857142 118778571
L137809523 118826190
L137761904 118921428
L137761904 119111904
L137809523 119207142
L137857142 119254761
L137952380 119302380
L138142857 119302380
L138238095 119254761
L138285714 119207142
L138333333 119111904
L138333333 118921428
L138285714 118826190
L138238095 118778571
L138142857 118730952
" />
<path d="M138952380 118302380
L139047619 118302380
L139142857 118350000
L139190476 118397619
L139238095 118492857
L139285714 118683333
L139285714 118921428
L139238095 119111904
L139190476 119207142
L139142857 119254761
L139047619 119302380
L138952380 119302380
L138857142 119254761
L138809523 119207142
L138761904 119111904
L138714285 118921428
L138714285 118683333
L138761904 118492857
L138809523 118397619
L138857142 118350000
L138952380 118302380
" />
<path d="M139904761 118302380
L140000000 118302380
L140095238 118350000
L140142857 118397619
L140190476 118492857
L140238095 118683333
L140238095 118921428
L140190476 119111904
L140142857 119207142
L140095238 119254761
L140000000 119302380
L139904761 119302380
L139809523 119254761
L139761904 119207142
L139714285 119111904
L139666666 118921428
L139666666 118683333
L139714285 118492857
L139761904 118397619
L139809523 118350000
L139904761 118302380
" />
<path d="M140857142 118302380
L140952380 118302380
L141047619 118350000
L141095238 118397619
L141142857 118492857
L141190476 118683333
L141190476 118921428
L141142857 119111904
L141095238 119207142
L141047619 119254761
L140952380 119302380
L140857142 119302380
L140761904 119254761
L140714285 119207142
L140666666 119111904
L140619047 118921428
L140619047 118683333
L140666666 118492857
L140714285 118397619
L140761904 118350000
L140857142 118302380
" />
<path d="M142380952 119302380
L142380952 118635714
" />
<path d="M142380952 118730952
L142428571 118683333
L142523809 118635714
L142666666 118635714
L142761904 118683333
L142809523 118778571
L142809523 119302380
" />
<path d="M142809523 118778571
L142857142 118683333
L142952380 118635714
L143095238 118635714
L143190476 118683333
L143238095 118778571
L143238095 119302380
" />
<path d="M143714285 119302380
L143714285 118635714
" />
<path d="M143714285 118730952
L143761904 118683333
L143857142 118635714
L144000000 118635714
L144095238 118683333
L144142857 118778571
L144142857 119302380
" />
<path d="M144142857 118778571
L144190476 118683333
L144285714 118635714
L144428571 118635714
L144523809 118683333
L144571428 118778571
L144571428 119302380
" />
</g><path d="M114600000 106500000
L114600000 120586420
" />
<path d="M165400000 120586420
L165400000 100500000
" />
<path d="M114600000 120000000
L165400000 120000000
" />
<path d="M114600000 120000000
L165400000 120000000
" />
<path d="M114600000 120000000
L115726504 120586421
" />
<path d="M114600000 120000000
L115726504 119413579
" />
<path d="M165400000 120000000
L164273496 119413579
" />
<path d="M165400000 120000000
L164273496 120586421
" />
<g transform="rotate(-90.000000 110850000.000000 100000000.000000)">
<text x="110850000.000000" y="100500000.000000"
textLength="9814048.000000" font-size="1333333.000000" lengthAdjust="spacingAndGlyphs"
text-anchor="middle" opacity="0">34.0000 mm</text>
</g>
<g class="stroked-text"><desc>34.0000 mm</desc>
<path d="M110302380 104666666
L110302380 104047619
L110683333 104380952
L110683333 104238095
L110730952 104142857
L110778571 104095238
L110873809 104047619
L111111904 104047619
L111207142 104095238
L111254761 104142857
L111302380 104238095
L111302380 104523809
L111254761 104619047
L111207142 104666666
" />
<path d="M110635714 103190476
L111302380 103190476
" />
<path d="M110254761 103428571
L110969047 103666666
L110969047 103047619
" />
<path d="M111207142 102666666
L111254761 102619047
L111302380 102666666
L111254761 102714285
L111207142 102666666
L111302380 102666666
" />
<path d="M110302380 102000000
L110302380 101904761
L110350000 101809523
L110397619 101761904
L110492857 101714285
L110683333 101666666
L110921428 101666666
L111111904 101714285
L111207142 101761904
L111254761 101809523
L111302380 101904761
L111302380 102000000
L111254761 102095238
L111207142 102142857
L111111904 102190476
L110921428 102238095
L110683333 102238095
L110492857 102190476
L110397619 102142857
L110350000 102095238
L110302380 102000000
" />
<path d="M110302380 101047619
L110302380 100952380
L110350000 100857142
L110397619 100809523
L110492857 100761904
L110683333 100714285
L110921428 100714285
L111111904 100761904
L111207142 100809523
L111254761 100857142
L111302380 100952380
L111302380 101047619
L111254761 101142857
L111207142 101190476
L111111904 101238095
L110921428 101285714
L110683333 101285714
L110492857 101238095
L110397619 101190476
L110350000 101142857
L110302380 101047619
" />
<path d="M110302380 100095238
L110302380 100000000
L110350000 99904761
L110397619 99857142
L110492857 99809523
L110683333 99761904
L110921428 99761904
L111111904 99809523
L111207142 99857142
L111254761 99904761
L111302380 100000000
L111302380 100095238
L111254761 100190476
L111207142 100238095
L111111904 100285714
L110921428 100333333
L110683333 100333333
L110492857 100285714
L110397619 100238095
L110350000 100190476
L110302380 100095238
" />
<path d="M110302380 99142857
L110302380 99047619
L110350000 98952380
L110397619 98904761
L110492857 98857142
L110683333 98809523
L110921428 98809523
L111111904 98857142
L111207142 98904761
L111254761 98952380
L111302380 99047619
L111302380 99142857
L111254761 99238095
L111207142 99285714
L111111904 99333333
L110921428 99380952
L110683333 99380952
L110492857 99333333
L110397619 99285714
L110350000 99238095
L110302380 99142857
" />
<path d="M111302380 97619047
L110635714 97619047
" />
<path d="M110730952 97619047
L110683333 97571428
L110635714 97476190
L110635714 97333333
L110683333 97238095
L110778571 97190476
L111302380 97190476
" />
<path d="M110778571 97190476
L110683333 97142857
L110635714 97047619
L110635714 96904761
L110683333 96809523
L110778571 96761904
L111302380 96761904
" />
<path d="M111302380 96285714
L110635714 96285714
" />
<path d="M110730952 96285714
L110683333 96238095
L110635714 96142857
L110635714 96000000
L110683333 95904761
L110778571 95857142
L111302380 95857142
" />
<path d="M110778571 95857142
L110683333 95809523
L110635714 95714285
L110635714 95571428
L110683333 95476190
L110778571 95428571
L111302380 95428571
" />
</g><path d="M124500000 83000000
L111413580 83000000
" />
<path d="M111413580 117000000
L124500000 117000000
" />
<path d="M112000000 83000000
L112000000 117000000
" />
<path d="M112000000 83000000
L112000000 117000000
" />
<path d="M112000000 83000000
L111413579 84126504
" />
<path d="M112000000 83000000
L112586421 84126504
" />
<path d="M112000000 117000000
L112586421 115873496
" />
<path d="M112000000 117000000
L111413579 115873496
" />
<g transform="rotate(-90.000000 166850000.000000 95555000.000000)">
<text x="166850000.000000" y="96055000.000000"
textLength="8861667.000000" font-size="1333333.000000" lengthAdjust="spacingAndGlyphs"
text-anchor="middle" opacity="0">8.8900 mm</text>
</g>
<g class="stroked-text"><desc>8.8900 mm</desc>
<path d="M166730952 99507380
L166683333 99602619
L166635714 99650238
L166540476 99697857
L166492857 99697857
L166397619 99650238
L166350000 99602619
L166302380 99507380
L166302380 99316904
L166350000 99221666
L166397619 99174047
L166492857 99126428
L166540476 99126428
L166635714 99174047
L166683333 99221666
L166730952 99316904
L166730952 99507380
L166778571 99602619
L166826190 99650238
L166921428 99697857
L167111904 99697857
L167207142 99650238
L167254761 99602619
L167302380 99507380
L167302380 99316904
L167254761 99221666
L167207142 99174047
L167111904 99126428
L166921428 99126428
L166826190 99174047
L166778571 99221666
L166730952 99316904
" />
<path d="M167207142 98697857
L167254761 98650238
L167302380 98697857
L167254761 98745476
L167207142 98697857
L167302380 98697857
" />
<path d="M166730952 98078809
L166683333 98174047
L166635714 98221666
L166540476 98269285
L166492857 98269285
L166397619 98221666
L166350000 98174047
L166302380 98078809
L166302380 97888333
L166350000 97793095
L166397619 97745476
L166492857 97697857
L166540476 97697857
L166635714 97745476
L166683333 97793095
L166730952 97888333
L166730952 98078809
L166778571 98174047
L166826190 98221666
L166921428 98269285
L167111904 98269285
L167207142 98221666
L167254761 98174047
L167302380 98078809
L167302380 97888333
L167254761 97793095
L167207142 97745476
L167111904 97697857
L166921428 97697857
L166826190 97745476
L166778571 97793095
L166730952 97888333
" />
<path d="M167302380 97221666
L167302380 97031190
L167254761 96935952
L167207142 96888333
L167064285 96793095
L166873809 96745476
L166492857 96745476
L166397619 96793095
L166350000 96840714
L166302380 96935952
L166302380 97126428
L166350000 97221666
L166397619 97269285
L166492857 97316904
L166730952 97316904
L166826190 97269285
L166873809 97221666
L166921428 97126428
L166921428 96935952
L166873809 96840714
L166826190 96793095
L166730952 96745476
" />
<path d="M166302380 96126428
L166302380 96031190
L166350000 95935952
L166397619 95888333
L166492857 95840714
L166683333 95793095
L166921428 95793095
L167111904 95840714
L167207142 95888333
L167254761 95935952
L167302380 96031190
L167302380 96126428
L167254761 96221666
L167207142 96269285
L167111904 96316904
L166921428 96364523
L166683333 96364523
L166492857 96316904
L166397619 96269285
L166350000 96221666
L166302380 96126428
" />
<path d="M166302380 95174047
L166302380 95078809
L166350000 94983571
L166397619 94935952
L166492857 94888333
L166683333 94840714
L166921428 94840714
L167111904 94888333
L167207142 94935952
L167254761 94983571
L167302380 95078809
L167302380 95174047
L167254761 95269285
L167207142 95316904
L167111904 95364523
L166921428 95412142
L166683333 95412142
L166492857 95364523
L166397619 95316904
L166350000 95269285
L166302380 95174047
" />
<path d="M167302380 93650238
L166635714 93650238
" />
<path d="M166730952 93650238
L166683333 93602619
L166635714 93507380
L166635714 93364523
L166683333 93269285
L166778571 93221666
L167302380 93221666
" />
<path d="M166778571 93221666
L166683333 93174047
L166635714 93078809
L166635714 92935952
L166683333 92840714
L166778571 92793095
L167302380 92793095
" />
<path d="M167302380 92316904
L166635714 92316904
" />
<path d="M166730952 92316904
L166683333 92269285
L166635714 92174047
L166635714 92031190
L166683333 91935952
L166778571 91888333
L167302380 91888333
" />
<path d="M166778571 91888333
L166683333 91840714
L166635714 91745476
L166635714 91602619
L166683333 91507380
L166778571 91459761
L167302380 91459761
" />
</g><path d="M140500000 100000000
L168586420 100000000
" />
<path d="M168586420 91110000
L140500000 91110000
" />
<path d="M168000000 100000000
L168000000 91110000
" />
<path d="M168000000 100000000
L168000000 91110000
" />
<path d="M168000000 100000000
L168586421 98873496
" />
<path d="M168000000 100000000
L167413579 98873496
" />
<path d="M168000000 91110000
L167413579 92236504
" />
<path d="M168000000 91110000
L168586421 92236504
" />
<g transform="rotate(-90.000000 169850000.000000 91500000.000000)">
<text x="169850000.000000" y="92000000.000000"
textLength="9814048.000000" font-size="1333333.000000" lengthAdjust="spacingAndGlyphs"
text-anchor="middle" opacity="0">17.0000 mm</text>
</g>
<g class="stroked-text"><desc>17.0000 mm</desc>
<path d="M170302380 95547619
L170302380 96119047
" />
<path d="M170302380 95833333
L169302380 95833333
L169445238 95928571
L169540476 96023809
L169588095 96119047
" />
<path d="M169302380 95214285
L169302380 94547619
L170302380 94976190
" />
<path d="M170207142 94166666
L170254761 94119047
L170302380 94166666
L170254761 94214285
L170207142 94166666
L170302380 94166666
" />
<path d="M169302380 93500000
L169302380 93404761
L169350000 93309523
L169397619 93261904
L169492857 93214285
L169683333 93166666
L169921428 93166666
L170111904 93214285
L170207142 93261904
L170254761 93309523
L170302380 93404761
L170302380 93500000
L170254761 93595238
L170207142 93642857
L170111904 93690476
L169921428 93738095
L169683333 93738095
L169492857 93690476
L169397619 93642857
L169350000 93595238
L169302380 93500000
" />
<path d="M169302380 92547619
L169302380 92452380
L169350000 92357142
L169397619 92309523
L169492857 92261904
L169683333 92214285
L169921428 92214285
L170111904 92261904
L170207142 92309523
L170254761 92357142
L170302380 92452380
L170302380 92547619
L170254761 92642857
L170207142 92690476
L170111904 92738095
L169921428 92785714
L169683333 92785714
L169492857 92738095
L169397619 92690476
L169350000 92642857
L169302380 92547619
" />
<path d="M169302380 91595238
L169302380 91500000
L169350000 91404761
L169397619 91357142
L169492857 91309523
L169683333 91261904
L169921428 91261904
L170111904 91309523
L170207142 91357142
L170254761 91404761
L170302380 91500000
L170302380 91595238
L170254761 91690476
L170207142 91738095
L170111904 91785714
L169921428 91833333
L169683333 91833333
L169492857 91785714
L169397619 91738095
L169350000 91690476
L169302380 91595238
" />
<path d="M169302380 90642857
L169302380 90547619
L169350000 90452380
L169397619 90404761
L169492857 90357142
L169683333 90309523
L169921428 90309523
L170111904 90357142
L170207142 90404761
L170254761 90452380
L170302380 90547619
L170302380 90642857
L170254761 90738095
L170207142 90785714
L170111904 90833333
L169921428 90880952
L169683333 90880952
L169492857 90833333
L169397619 90785714
L169350000 90738095
L169302380 90642857
" />
<path d="M170302380 89119047
L169635714 89119047
" />
<path d="M169730952 89119047
L169683333 89071428
L169635714 88976190
L169635714 88833333
L169683333 88738095
L169778571 88690476
L170302380 88690476
" />
<path d="M169778571 88690476
L169683333 88642857
L169635714 88547619
L169635714 88404761
L169683333 88309523
L169778571 88261904
L170302380 88261904
" />
<path d="M170302380 87785714
L169635714 87785714
" />
<path d="M169730952 87785714
L169683333 87738095
L169635714 87642857
L169635714 87500000
L169683333 87404761
L169778571 87357142
L170302380 87357142
" />
<path d="M169778571 87357142
L169683333 87309523
L169635714 87214285
L169635714 87071428
L169683333 86976190
L169778571 86928571
L170302380 86928571
" />
</g><path d="M140500000 100000000
L171586420 100000000
" />
<path d="M171586420 83000000
L140500000 83000000
" />
<path d="M171000000 100000000
L171000000 83000000
" />
<path d="M171000000 100000000
L171000000 83000000
" />
<path d="M171000000 100000000
L171586421 98873496
" />
<path d="M171000000 100000000
L170413579 98873496
" />
<path d="M171000000 83000000
L170413579 84126504
" />
<path d="M171000000 83000000
L171586421 84126504
" />
<text x="151430000.000000" y="80350000.000000"
textLength="9814048.000000" font-size="1333333.000000" lengthAdjust="spacingAndGlyphs"
text-anchor="middle" opacity="0">22.8600 mm</text>
<g class="stroked-text"><desc>22.8600 mm</desc>
<path d="M146810952 79397619
L146858571 79350000
L146953809 79302380
L147191904 79302380
L147287142 79350000
L147334761 79397619
L147382380 79492857
L147382380 79588095
L147334761 79730952
L146763333 80302380
L147382380 80302380
" />
<path d="M147763333 79397619
L147810952 79350000
L147906190 79302380
L148144285 79302380
L148239523 79350000
L148287142 79397619
L148334761 79492857
L148334761 79588095
L148287142 79730952
L147715714 80302380
L148334761 80302380
" />
<path d="M148763333 80207142
L148810952 80254761
L148763333 80302380
L148715714 80254761
L148763333 80207142
L148763333 80302380
" />
<path d="M149382380 79730952
L149287142 79683333
L149239523 79635714
L149191904 79540476
L149191904 79492857
L149239523 79397619
L149287142 79350000
L149382380 79302380
L149572857 79302380
L149668095 79350000
L149715714 79397619
L149763333 79492857
L149763333 79540476
L149715714 79635714
L149668095 79683333
L149572857 79730952
L149382380 79730952
L149287142 79778571
L149239523 79826190
L149191904 79921428
L149191904 80111904
L149239523 80207142
L149287142 80254761
L149382380 80302380
L149572857 80302380
L149668095 80254761
L149715714 80207142
L149763333 80111904
L149763333 79921428
L149715714 79826190
L149668095 79778571
L149572857 79730952
" />
<path d="M150620476 79302380
L150430000 79302380
L150334761 79350000
L150287142 79397619
L150191904 79540476
L150144285 79730952
L150144285 80111904
L150191904 80207142
L150239523 80254761
L150334761 80302380
L150525238 80302380
L150620476 80254761
L150668095 80207142
L150715714 80111904
L150715714 79873809
L150668095 79778571
L150620476 79730952
L150525238 79683333
L150334761 79683333
L150239523 79730952
L150191904 79778571
L150144285 79873809
" />
<path d="M151334761 79302380
L151430000 79302380
L151525238 79350000
L151572857 79397619
L151620476 79492857
L151668095 79683333
L151668095 79921428
L151620476 80111904
L151572857 80207142
L151525238 80254761
L151430000 80302380
L151334761 80302380
L151239523 80254761
L151191904 80207142
L151144285 80111904
L151096666 79921428
L151096666 79683333
L151144285 79492857
L151191904 79397619
L151239523 79350000
L151334761 79302380
" />
<path d="M152287142 79302380
L152382380 79302380
L152477619 79350000
L152525238 79397619
L152572857 79492857
L152620476 79683333
L152620476 79921428
L152572857 80111904
L152525238 80207142
L152477619 80254761
L152382380 80302380
L152287142 80302380
L152191904 80254761
L152144285 80207142
L152096666 80111904
L152049047 79921428
L152049047 79683333
L152096666 79492857
L152144285 79397619
L152191904 79350000
L152287142 79302380
" />
<path d="M153810952 80302380
L153810952 79635714
" />
<path d="M153810952 79730952
L153858571 79683333
L153953809 79635714
L154096666 79635714
L154191904 79683333
L154239523 79778571
L154239523 80302380
" />
<path d="M154239523 79778571
L154287142 79683333
L154382380 79635714
L154525238 79635714
L154620476 79683333
L154668095 79778571
L154668095 80302380
" />
<path d="M155144285 80302380
L155144285 79635714
" />
<path d="M155144285 79730952
L155191904 79683333
L155287142 79635714
L155430000 79635714
L155525238 79683333
L155572857 79778571
L155572857 80302380
" />
<path d="M155572857 79778571
L155620476 79683333
L155715714 79635714
L155858571 79635714
L155953809 79683333
L156001428 79778571
L156001428 80302380
" />
</g><path d="M140000000 99500000
L140000000 80413580
" />
<path d="M162860000 80413580
L162860000 90610000
" />
<path d="M140000000 81000000
L162860000 81000000
" />
<path d="M140000000 81000000
L162860000 81000000
" />
<path d="M140000000 81000000
L141126504 81586421
" />
<path d="M140000000 81000000
L141126504 80413579
" />
<path d="M162860000 81000000
L161733496 80413579
" />
<path d="M162860000 81000000
L161733496 81586421
" />
<g >
</g>
<g >
</g>
<g >
</g>
<g >
</g>
<g >
</g>
<g >
</g>
<g >
</g>
<g >
</g>
<g >
</g>
<g >
</g>
<g >
</g>
<g >
</g>
<g >
</g>
<g >
</g>
<g >
</g>
<g >
</g>
<g >
</g>
<g >
</g>
<g >
</g>
<g >
</g>
<g >
</g>
<g >
</g>
<g >
</g>
<g >
</g>
<g >
</g>
<g >
</g>
<g >
</g>
<g >
</g>
<g >
</g>
<g >
</g>
<g >
</g>
<g >
</g>
<g >
</g>
<g >
</g>
<g >
</g>
<g >
</g>
<g >
</g>
<g >
</g>
<g >
</g>
<g >
</g>
<g >
</g>
<g >
</g>
<g >
</g>
<g >
</g>
<g >
</g>
<g >
</g>
<g >
</g>
</g> 
</svg>
