<?xml version="1.0" standalone="no"?>
 <!DOCTYPE svg PUBLIC "-//W3C//DTD SVG 1.1//EN" 
 "http://www.w3.org/Graphics/SVG/1.1/DTD/svg11.dtd"> 
<svg
  xmlns:svg="http://www.w3.org/2000/svg"
  xmlns="http://www.w3.org/2000/svg"
  xmlns:xlink="http://www.w3.org/1999/xlink"
  version="1.1"
  width="29.700220cm" height="21.000720cm" viewBox="0 0 297002200 210007200">
<title>SVG Picture created as biym-board-B_Silkscreen.svg date 2022/11/22 11:01:14 </title>
  <desc>Picture generated by PCBNEW </desc>
<g style="fill:#000000; fill-opacity:1.000000;stroke:#000000; stroke-opacity:1.000000;
stroke-linecap:round; stroke-linejoin:round;"
 transform="translate(0 0) scale(1 1)">
</g>
<g style="fill:#000000; fill-opacity:0.0; 
stroke:#000000; stroke-width:0.000000; stroke-opacity:1; 
stroke-linecap:round; stroke-linejoin:round;">
</g>
<g style="fill:#000000; fill-opacity:0.0; 
stroke:#000000; stroke-width:150000.000000; stroke-opacity:1; 
stroke-linecap:round; stroke-linejoin:round;">
<path d="M126250000 113500000
L133750000 113500000
" />
<path d="M133750000 113500000
L133750000 116500000
" />
<path d="M133750000 116500000
L126250000 116500000
" />
<path d="M126250000 116500000
L126250000 113500000
" />
<path d="M137500000 97500000
L142500000 97500000
" />
<path d="M142500000 97500000
L142500000 102500000
" />
<path d="M142500000 102500000
L137500000 102500000
" />
<path d="M137500000 102500000
L137500000 97500000
" />
<path d="M135500000 113500000
L144500000 113500000
" />
<path d="M144500000 113500000
L144500000 116500000
" />
<path d="M144500000 116500000
L135500000 116500000
" />
<path d="M135500000 116500000
L135500000 113500000
" />
<path d="M129000000 83500000
L135000000 83500000
" />
<path d="M135000000 83500000
L135000000 86500000
" />
<path d="M135000000 86500000
L129000000 86500000
" />
<path d="M129000000 86500000
L129000000 83500000
" />
<path d="M138250000 83500000
L145750000 83500000
" />
<path d="M145750000 83500000
L145750000 86500000
" />
<path d="M145750000 86500000
L138250000 86500000
" />
<path d="M138250000 86500000
L138250000 83500000
" />
<path d="M146250000 113500000
L153750000 113500000
" />
<path d="M153750000 113500000
L153750000 116500000
" />
<path d="M153750000 116500000
L146250000 116500000
" />
<path d="M146250000 116500000
L146250000 113500000
" />
</g>
<g style="fill:#000000; fill-opacity:1.0; 
stroke:#000000; stroke-width:1.000000; stroke-opacity:1; 
stroke-linecap:round; stroke-linejoin:round;">
<circle cx="140000000.000000" cy="100000000.000000" r="1200000.000000" /> 
</g>
<g style="fill:#000000; fill-opacity:1.0; 
stroke:#000000; stroke-width:150000.000000; stroke-opacity:1; 
stroke-linecap:round; stroke-linejoin:round;">
</g>
<g style="fill:#000000; fill-opacity:0.0; 
stroke:#000000; stroke-width:150000.000000; stroke-opacity:1; 
stroke-linecap:round; stroke-linejoin:round;">
<path d="M148250000 83500000
L155750000 83500000
" />
<path d="M155750000 83500000
L155750000 86500000
" />
<path d="M155750000 86500000
L148250000 86500000
" />
<path d="M148250000 86500000
L148250000 83500000
" />
<path d="M123750000 98500000
L120750000 98500000
" />
<path d="M120750000 98500000
L120750000 101500000
" />
<path d="M120750000 101500000
L123750000 101500000
" />
<path d="M123750000 101500000
L123750000 98500000
" />
</g>
<g style="fill:#000000; fill-opacity:0.0; 
stroke:#000000; stroke-width:100000.000000; stroke-opacity:1; 
stroke-linecap:round; stroke-linejoin:round;">
<path d="M124600000 117000000
L155400000 117000000
" />
<path d="M155400000.000000 117000000.000000 A10000000.000000 10000000.000000 0.0 0 0 165400000.000000 107000000.000000" />
<path d="M124600000 83000000
L155400000 83000000
" />
<path d="M114600000.000000 107000000.000000 A10000000.000000 10000000.000000 0.0 0 0 124600000.000000 117000000.000000" />
<path d="M165400000 93000000
L165400000 107000000
" />
<path d="M114600000 93000000
L114600000 107000000
" />
<path d="M124600000.000000 83000000.000000 A10000000.000000 10000000.000000 0.0 0 0 114600000.000000 93000000.000000" />
<path d="M165400000.000000 93000000.000000 A10000000.000000 10000000.000000 0.0 0 0 155400000.000000 83000000.000000" />
</g>
<g style="fill:#000000; fill-opacity:0.0; 
stroke:#000000; stroke-width:125000.000000; stroke-opacity:1; 
stroke-linecap:round; stroke-linejoin:round;">
<text x="140000000.000000" y="114750000.000000"
transform="scale(-1 1) translate(-280000000.000000 0)"
textLength="1194643.000000" font-size="666666.000000" lengthAdjust="spacingAndGlyphs"
text-anchor="middle" opacity="0">LED</text>
<g class="stroked-text"><desc>LED</desc>
<path d="M140321428 114726190
L140559523 114726190
L140559523 114226190
" />
<path d="M140154761 114464285
L139988095 114464285
" />
<path d="M139916666 114726190
L140154761 114726190
L140154761 114226190
L139916666 114226190
" />
<path d="M139702380 114726190
L139702380 114226190
L139583333 114226190
L139511904 114250000
L139464285 114297619
L139440476 114345238
L139416666 114440476
L139416666 114511904
L139440476 114607142
L139464285 114654761
L139511904 114702380
L139583333 114726190
L139702380 114726190
" />
</g><text x="130000000.000000" y="114750000.000000"
transform="scale(-1 1) translate(-260000000.000000 0)"
textLength="2456548.000000" font-size="666666.000000" lengthAdjust="spacingAndGlyphs"
text-anchor="middle" opacity="0">DRIVER</text>
<g class="stroked-text"><desc>DRIVER</desc>
<path d="M131190476 114726190
L131190476 114226190
L131071428 114226190
L131000000 114250000
L130952380 114297619
L130928571 114345238
L130904761 114440476
L130904761 114511904
L130928571 114607142
L130952380 114654761
L131000000 114702380
L131071428 114726190
L131190476 114726190
" />
<path d="M130404761 114726190
L130571428 114488095
" />
<path d="M130690476 114726190
L130690476 114226190
L130500000 114226190
L130452380 114250000
L130428571 114273809
L130404761 114321428
L130404761 114392857
L130428571 114440476
L130452380 114464285
L130500000 114488095
L130690476 114488095
" />
<path d="M130190476 114726190
L130190476 114226190
" />
<path d="M130023809 114226190
L129857142 114726190
L129690476 114226190
" />
<path d="M129523809 114464285
L129357142 114464285
" />
<path d="M129285714 114726190
L129523809 114726190
L129523809 114226190
L129285714 114226190
" />
<path d="M128785714 114726190
L128952380 114488095
" />
<path d="M129071428 114726190
L129071428 114226190
L128880952 114226190
L128833333 114250000
L128809523 114273809
L128785714 114321428
L128785714 114392857
L128809523 114440476
L128833333 114464285
L128880952 114488095
L129071428 114488095
" />
</g><text x="132000000.000000" y="85347500.000000"
transform="scale(-1 1) translate(-264000000.000000 0)"
textLength="2385119.000000" font-size="666666.000000" lengthAdjust="spacingAndGlyphs"
text-anchor="middle" opacity="0">POWER</text>
<g class="stroked-text"><desc>POWER</desc>
<path d="M133154761 85323690
L133154761 84823690
L132964285 84823690
L132916666 84847500
L132892857 84871309
L132869047 84918928
L132869047 84990357
L132892857 85037976
L132916666 85061785
L132964285 85085595
L133154761 85085595
" />
<path d="M132559523 84823690
L132464285 84823690
L132416666 84847500
L132369047 84895119
L132345238 84990357
L132345238 85157023
L132369047 85252261
L132416666 85299880
L132464285 85323690
L132559523 85323690
L132607142 85299880
L132654761 85252261
L132678571 85157023
L132678571 84990357
L132654761 84895119
L132607142 84847500
L132559523 84823690
" />
<path d="M132178571 84823690
L132059523 85323690
L131964285 84966547
L131869047 85323690
L131750000 84823690
" />
<path d="M131559523 85061785
L131392857 85061785
" />
<path d="M131321428 85323690
L131559523 85323690
L131559523 84823690
L131321428 84823690
" />
<path d="M130821428 85323690
L130988095 85085595
" />
<path d="M131107142 85323690
L131107142 84823690
L130916666 84823690
L130869047 84847500
L130845238 84871309
L130821428 84918928
L130821428 84990357
L130845238 85037976
L130869047 85061785
L130916666 85085595
L131107142 85085595
" />
</g><text x="132000000.000000" y="86152500.000000"
transform="scale(-1 1) translate(-264000000.000000 0)"
textLength="2527976.000000" font-size="666666.000000" lengthAdjust="spacingAndGlyphs"
text-anchor="middle" opacity="0">SWITCH</text>
<g class="stroked-text"><desc>SWITCH</desc>
<path d="M133250000 86104880
L133178571 86128690
L133059523 86128690
L133011904 86104880
L132988095 86081071
L132964285 86033452
L132964285 85985833
L132988095 85938214
L133011904 85914404
L133059523 85890595
L133154761 85866785
L133202380 85842976
L133226190 85819166
L133250000 85771547
L133250000 85723928
L133226190 85676309
L133202380 85652500
L133154761 85628690
L133035714 85628690
L132964285 85652500
" />
<path d="M132797619 85628690
L132678571 86128690
L132583333 85771547
L132488095 86128690
L132369047 85628690
" />
<path d="M132178571 86128690
L132178571 85628690
" />
<path d="M132011904 85628690
L131726190 85628690
" />
<path d="M131869047 86128690
L131869047 85628690
" />
<path d="M131273809 86081071
L131297619 86104880
L131369047 86128690
L131416666 86128690
L131488095 86104880
L131535714 86057261
L131559523 86009642
L131583333 85914404
L131583333 85842976
L131559523 85747738
L131535714 85700119
L131488095 85652500
L131416666 85628690
L131369047 85628690
L131297619 85652500
L131273809 85676309
" />
<path d="M131059523 86128690
L131059523 85628690
" />
<path d="M131059523 85866785
L130773809 85866785
" />
<path d="M130773809 86128690
L130773809 85628690
" />
</g><text x="122250000.000000" y="98250000.000000"
transform="scale(-1 1) translate(-244500000.000000 0)"
textLength="2456548.000000" font-size="666666.000000" lengthAdjust="spacingAndGlyphs"
text-anchor="middle" opacity="0">DRIVER</text>
<g class="stroked-text"><desc>DRIVER</desc>
<path d="M123440476 98226190
L123440476 97726190
L123321428 97726190
L123250000 97750000
L123202380 97797619
L123178571 97845238
L123154761 97940476
L123154761 98011904
L123178571 98107142
L123202380 98154761
L123250000 98202380
L123321428 98226190
L123440476 98226190
" />
<path d="M122654761 98226190
L122821428 97988095
" />
<path d="M122940476 98226190
L122940476 97726190
L122750000 97726190
L122702380 97750000
L122678571 97773809
L122654761 97821428
L122654761 97892857
L122678571 97940476
L122702380 97964285
L122750000 97988095
L122940476 97988095
" />
<path d="M122440476 98226190
L122440476 97726190
" />
<path d="M122273809 97726190
L122107142 98226190
L121940476 97726190
" />
<path d="M121773809 97964285
L121607142 97964285
" />
<path d="M121535714 98226190
L121773809 98226190
L121773809 97726190
L121535714 97726190
" />
<path d="M121035714 98226190
L121202380 97988095
" />
<path d="M121321428 98226190
L121321428 97726190
L121130952 97726190
L121083333 97750000
L121059523 97773809
L121035714 97821428
L121035714 97892857
L121059523 97940476
L121083333 97964285
L121130952 97988095
L121321428 97988095
" />
</g><text x="152000000.000000" y="85347500.000000"
transform="scale(-1 1) translate(-304000000.000000 0)"
textLength="2218452.000000" font-size="666666.000000" lengthAdjust="spacingAndGlyphs"
text-anchor="middle" opacity="0">SERVO</text>
<g class="stroked-text"><desc>SERVO</desc>
<path d="M153095238 85299880
L153023809 85323690
L152904761 85323690
L152857142 85299880
L152833333 85276071
L152809523 85228452
L152809523 85180833
L152833333 85133214
L152857142 85109404
L152904761 85085595
L153000000 85061785
L153047619 85037976
L153071428 85014166
L153095238 84966547
L153095238 84918928
L153071428 84871309
L153047619 84847500
L153000000 84823690
L152880952 84823690
L152809523 84847500
" />
<path d="M152595238 85061785
L152428571 85061785
" />
<path d="M152357142 85323690
L152595238 85323690
L152595238 84823690
L152357142 84823690
" />
<path d="M151857142 85323690
L152023809 85085595
" />
<path d="M152142857 85323690
L152142857 84823690
L151952380 84823690
L151904761 84847500
L151880952 84871309
L151857142 84918928
L151857142 84990357
L151880952 85037976
L151904761 85061785
L151952380 85085595
L152142857 85085595
" />
<path d="M151714285 84823690
L151547619 85323690
L151380952 84823690
" />
<path d="M151119047 84823690
L151023809 84823690
L150976190 84847500
L150928571 84895119
L150904761 84990357
L150904761 85157023
L150928571 85252261
L150976190 85299880
L151023809 85323690
L151119047 85323690
L151166666 85299880
L151214285 85252261
L151238095 85157023
L151238095 84990357
L151214285 84895119
L151166666 84847500
L151119047 84823690
" />
</g><text x="152000000.000000" y="86152500.000000"
transform="scale(-1 1) translate(-304000000.000000 0)"
textLength="313690.000000" font-size="666666.000000" lengthAdjust="spacingAndGlyphs"
text-anchor="middle" opacity="0">0</text>
<g class="stroked-text"><desc>0</desc>
<path d="M152023809 85628690
L151976190 85628690
L151928571 85652500
L151904761 85676309
L151880952 85723928
L151857142 85819166
L151857142 85938214
L151880952 86033452
L151904761 86081071
L151928571 86104880
L151976190 86128690
L152023809 86128690
L152071428 86104880
L152095238 86081071
L152119047 86033452
L152142857 85938214
L152142857 85819166
L152119047 85723928
L152095238 85676309
L152071428 85652500
L152023809 85628690
" />
</g></g>
<g style="fill:#000000; fill-opacity:0.0; 
stroke:#000000; stroke-width:100000.000000; stroke-opacity:1; 
stroke-linecap:round; stroke-linejoin:round;">
<text x="140000000.000000" y="93446750.000000"
transform="scale(-1 1) translate(-280000000.000000 0)"
textLength="4313690.000000" font-size="666666.000000" lengthAdjust="spacingAndGlyphs"
text-anchor="middle" opacity="0">biym-board</text>
<g class="stroked-text"><desc>biym-board</desc>
<path d="M142119047 93420559
L142119047 92870559
" />
<path d="M142119047 93080083
L142071428 93053892
L141976190 93053892
L141928571 93080083
L141904761 93106273
L141880952 93158654
L141880952 93315797
L141904761 93368178
L141928571 93394369
L141976190 93420559
L142071428 93420559
L142119047 93394369
" />
<path d="M141666666 93420559
L141666666 93053892
" />
<path d="M141666666 92870559
L141690476 92896750
L141666666 92922940
L141642857 92896750
L141666666 92870559
L141666666 92922940
" />
<path d="M141476190 93053892
L141357142 93420559
" />
<path d="M141238095 93053892
L141357142 93420559
L141404761 93551511
L141428571 93577702
L141476190 93603892
" />
<path d="M141047619 93420559
L141047619 93053892
" />
<path d="M141047619 93106273
L141023809 93080083
L140976190 93053892
L140904761 93053892
L140857142 93080083
L140833333 93132464
L140833333 93420559
" />
<path d="M140833333 93132464
L140809523 93080083
L140761904 93053892
L140690476 93053892
L140642857 93080083
L140619047 93132464
L140619047 93420559
" />
<path d="M140380952 93211035
L140000000 93211035
" />
<path d="M139761904 93420559
L139761904 92870559
" />
<path d="M139761904 93080083
L139714285 93053892
L139619047 93053892
L139571428 93080083
L139547619 93106273
L139523809 93158654
L139523809 93315797
L139547619 93368178
L139571428 93394369
L139619047 93420559
L139714285 93420559
L139761904 93394369
" />
<path d="M139238095 93420559
L139285714 93394369
L139309523 93368178
L139333333 93315797
L139333333 93158654
L139309523 93106273
L139285714 93080083
L139238095 93053892
L139166666 93053892
L139119047 93080083
L139095238 93106273
L139071428 93158654
L139071428 93315797
L139095238 93368178
L139119047 93394369
L139166666 93420559
L139238095 93420559
" />
<path d="M138642857 93420559
L138642857 93132464
L138666666 93080083
L138714285 93053892
L138809523 93053892
L138857142 93080083
" />
<path d="M138642857 93394369
L138690476 93420559
L138809523 93420559
L138857142 93394369
L138880952 93341988
L138880952 93289607
L138857142 93237226
L138809523 93211035
L138690476 93211035
L138642857 93184845
" />
<path d="M138404761 93420559
L138404761 93053892
" />
<path d="M138404761 93158654
L138380952 93106273
L138357142 93080083
L138309523 93053892
L138261904 93053892
" />
<path d="M137880952 93420559
L137880952 92870559
" />
<path d="M137880952 93394369
L137928571 93420559
L138023809 93420559
L138071428 93394369
L138095238 93368178
L138119047 93315797
L138119047 93158654
L138095238 93106273
L138071428 93080083
L138023809 93053892
L137928571 93053892
L137880952 93080083
" />
</g><text x="140000000.000000" y="94332250.000000"
transform="scale(-1 1) translate(-280000000.000000 0)"
textLength="4250952.000000" font-size="666666.000000" lengthAdjust="spacingAndGlyphs"
text-anchor="middle" opacity="0">v1.2 11/22</text>
<g class="stroked-text"><desc>v1.2 11/22</desc>
<path d="M142119047 93939392
L142000000 94306059
L141880952 93939392
" />
<path d="M141428571 94306059
L141714285 94306059
" />
<path d="M141571428 94306059
L141571428 93756059
L141619047 93834630
L141666666 93887011
L141714285 93913202
" />
<path d="M141214285 94253678
L141190476 94279869
L141214285 94306059
L141238095 94279869
L141214285 94253678
L141214285 94306059
" />
<path d="M141000000 93808440
L140976190 93782250
L140928571 93756059
L140809523 93756059
L140761904 93782250
L140738095 93808440
L140714285 93860821
L140714285 93913202
L140738095 93991773
L141023809 94306059
L140714285 94306059
" />
<path d="M139857142 94306059
L140142857 94306059
" />
<path d="M140000000 94306059
L140000000 93756059
L140047619 93834630
L140095238 93887011
L140142857 93913202
" />
<path d="M139380952 94306059
L139666666 94306059
" />
<path d="M139523809 94306059
L139523809 93756059
L139571428 93834630
L139619047 93887011
L139666666 93913202
" />
<path d="M138809523 93729869
L139238095 94437011
" />
<path d="M138666666 93808440
L138642857 93782250
L138595238 93756059
L138476190 93756059
L138428571 93782250
L138404761 93808440
L138380952 93860821
L138380952 93913202
L138404761 93991773
L138690476 94306059
L138380952 94306059
" />
<path d="M138190476 93808440
L138166666 93782250
L138119047 93756059
L138000000 93756059
L137952380 93782250
L137928571 93808440
L137904761 93860821
L137904761 93913202
L137928571 93991773
L138214285 94306059
L137904761 94306059
" />
</g><text x="140000000.000000" y="95217750.000000"
transform="scale(-1 1) translate(-280000000.000000 0)"
textLength="6417619.000000" font-size="666666.000000" lengthAdjust="spacingAndGlyphs"
text-anchor="middle" opacity="0">peter@polidoro.io</text>
<g class="stroked-text"><desc>peter@polidoro.io</desc>
<path d="M143154761 94824892
L143154761 95374892
" />
<path d="M143154761 94851083
L143107142 94824892
L143011904 94824892
L142964285 94851083
L142940476 94877273
L142916666 94929654
L142916666 95086797
L142940476 95139178
L142964285 95165369
L143011904 95191559
L143107142 95191559
L143154761 95165369
" />
<path d="M142511904 95165369
L142559523 95191559
L142654761 95191559
L142702380 95165369
L142726190 95112988
L142726190 94903464
L142702380 94851083
L142654761 94824892
L142559523 94824892
L142511904 94851083
L142488095 94903464
L142488095 94955845
L142726190 95008226
" />
<path d="M142345238 94824892
L142154761 94824892
" />
<path d="M142273809 94641559
L142273809 95112988
L142250000 95165369
L142202380 95191559
L142154761 95191559
" />
<path d="M141797619 95165369
L141845238 95191559
L141940476 95191559
L141988095 95165369
L142011904 95112988
L142011904 94903464
L141988095 94851083
L141940476 94824892
L141845238 94824892
L141797619 94851083
L141773809 94903464
L141773809 94955845
L142011904 95008226
" />
<path d="M141559523 95191559
L141559523 94824892
" />
<path d="M141559523 94929654
L141535714 94877273
L141511904 94851083
L141464285 94824892
L141416666 94824892
" />
<path d="M140940476 94929654
L140964285 94903464
L141011904 94877273
L141059523 94877273
L141107142 94903464
L141130952 94929654
L141154761 94982035
L141154761 95034416
L141130952 95086797
L141107142 95112988
L141059523 95139178
L141011904 95139178
L140964285 95112988
L140940476 95086797
" />
<path d="M140940476 94877273
L140940476 95086797
L140916666 95112988
L140892857 95112988
L140845238 95086797
L140821428 95034416
L140821428 94903464
L140869047 94824892
L140940476 94772511
L141035714 94746321
L141130952 94772511
L141202380 94824892
L141250000 94903464
L141273809 95008226
L141250000 95112988
L141202380 95191559
L141130952 95243940
L141035714 95270130
L140940476 95243940
L140869047 95191559
" />
<path d="M140607142 94824892
L140607142 95374892
" />
<path d="M140607142 94851083
L140559523 94824892
L140464285 94824892
L140416666 94851083
L140392857 94877273
L140369047 94929654
L140369047 95086797
L140392857 95139178
L140416666 95165369
L140464285 95191559
L140559523 95191559
L140607142 95165369
" />
<path d="M140083333 95191559
L140130952 95165369
L140154761 95139178
L140178571 95086797
L140178571 94929654
L140154761 94877273
L140130952 94851083
L140083333 94824892
L140011904 94824892
L139964285 94851083
L139940476 94877273
L139916666 94929654
L139916666 95086797
L139940476 95139178
L139964285 95165369
L140011904 95191559
L140083333 95191559
" />
<path d="M139630952 95191559
L139678571 95165369
L139702380 95112988
L139702380 94641559
" />
<path d="M139440476 95191559
L139440476 94824892
" />
<path d="M139440476 94641559
L139464285 94667750
L139440476 94693940
L139416666 94667750
L139440476 94641559
L139440476 94693940
" />
<path d="M138988095 95191559
L138988095 94641559
" />
<path d="M138988095 95165369
L139035714 95191559
L139130952 95191559
L139178571 95165369
L139202380 95139178
L139226190 95086797
L139226190 94929654
L139202380 94877273
L139178571 94851083
L139130952 94824892
L139035714 94824892
L138988095 94851083
" />
<path d="M138678571 95191559
L138726190 95165369
L138750000 95139178
L138773809 95086797
L138773809 94929654
L138750000 94877273
L138726190 94851083
L138678571 94824892
L138607142 94824892
L138559523 94851083
L138535714 94877273
L138511904 94929654
L138511904 95086797
L138535714 95139178
L138559523 95165369
L138607142 95191559
L138678571 95191559
" />
<path d="M138297619 95191559
L138297619 94824892
" />
<path d="M138297619 94929654
L138273809 94877273
L138250000 94851083
L138202380 94824892
L138154761 94824892
" />
<path d="M137916666 95191559
L137964285 95165369
L137988095 95139178
L138011904 95086797
L138011904 94929654
L137988095 94877273
L137964285 94851083
L137916666 94824892
L137845238 94824892
L137797619 94851083
L137773809 94877273
L137750000 94929654
L137750000 95086797
L137773809 95139178
L137797619 95165369
L137845238 95191559
L137916666 95191559
" />
<path d="M137535714 95139178
L137511904 95165369
L137535714 95191559
L137559523 95165369
L137535714 95139178
L137535714 95191559
" />
<path d="M137297619 95191559
L137297619 94824892
" />
<path d="M137297619 94641559
L137321428 94667750
L137297619 94693940
L137273809 94667750
L137297619 94641559
L137297619 94693940
" />
<path d="M136988095 95191559
L137035714 95165369
L137059523 95139178
L137083333 95086797
L137083333 94929654
L137059523 94877273
L137035714 94851083
L136988095 94824892
L136916666 94824892
L136869047 94851083
L136845238 94877273
L136821428 94929654
L136821428 95086797
L136845238 95139178
L136869047 95165369
L136916666 95191559
L136988095 95191559
" />
</g><text x="140000000.000000" y="96103250.000000"
transform="scale(-1 1) translate(-280000000.000000 0)"
textLength="14417619.000000" font-size="666666.000000" lengthAdjust="spacingAndGlyphs"
text-anchor="middle" opacity="0">https://github.com/biym/biym-board</text>
<g class="stroked-text"><desc>https://github.com/biym/biym-board</desc>
<path d="M147154761 96077059
L147154761 95527059
" />
<path d="M146940476 96077059
L146940476 95788964
L146964285 95736583
L147011904 95710392
L147083333 95710392
L147130952 95736583
L147154761 95762773
" />
<path d="M146773809 95710392
L146583333 95710392
" />
<path d="M146702380 95527059
L146702380 95998488
L146678571 96050869
L146630952 96077059
L146583333 96077059
" />
<path d="M146488095 95710392
L146297619 95710392
" />
<path d="M146416666 95527059
L146416666 95998488
L146392857 96050869
L146345238 96077059
L146297619 96077059
" />
<path d="M146130952 95710392
L146130952 96260392
" />
<path d="M146130952 95736583
L146083333 95710392
L145988095 95710392
L145940476 95736583
L145916666 95762773
L145892857 95815154
L145892857 95972297
L145916666 96024678
L145940476 96050869
L145988095 96077059
L146083333 96077059
L146130952 96050869
" />
<path d="M145702380 96050869
L145654761 96077059
L145559523 96077059
L145511904 96050869
L145488095 95998488
L145488095 95972297
L145511904 95919916
L145559523 95893726
L145630952 95893726
L145678571 95867535
L145702380 95815154
L145702380 95788964
L145678571 95736583
L145630952 95710392
L145559523 95710392
L145511904 95736583
" />
<path d="M145273809 96024678
L145250000 96050869
L145273809 96077059
L145297619 96050869
L145273809 96024678
L145273809 96077059
" />
<path d="M145273809 95736583
L145250000 95762773
L145273809 95788964
L145297619 95762773
L145273809 95736583
L145273809 95788964
" />
<path d="M144678571 95500869
L145107142 96208011
" />
<path d="M144154761 95500869
L144583333 96208011
" />
<path d="M143773809 95710392
L143773809 96155630
L143797619 96208011
L143821428 96234202
L143869047 96260392
L143940476 96260392
L143988095 96234202
" />
<path d="M143773809 96050869
L143821428 96077059
L143916666 96077059
L143964285 96050869
L143988095 96024678
L144011904 95972297
L144011904 95815154
L143988095 95762773
L143964285 95736583
L143916666 95710392
L143821428 95710392
L143773809 95736583
" />
<path d="M143535714 96077059
L143535714 95710392
" />
<path d="M143535714 95527059
L143559523 95553250
L143535714 95579440
L143511904 95553250
L143535714 95527059
L143535714 95579440
" />
<path d="M143369047 95710392
L143178571 95710392
" />
<path d="M143297619 95527059
L143297619 95998488
L143273809 96050869
L143226190 96077059
L143178571 96077059
" />
<path d="M143011904 96077059
L143011904 95527059
" />
<path d="M142797619 96077059
L142797619 95788964
L142821428 95736583
L142869047 95710392
L142940476 95710392
L142988095 95736583
L143011904 95762773
" />
<path d="M142345238 95710392
L142345238 96077059
" />
<path d="M142559523 95710392
L142559523 95998488
L142535714 96050869
L142488095 96077059
L142416666 96077059
L142369047 96050869
L142345238 96024678
" />
<path d="M142107142 96077059
L142107142 95527059
" />
<path d="M142107142 95736583
L142059523 95710392
L141964285 95710392
L141916666 95736583
L141892857 95762773
L141869047 95815154
L141869047 95972297
L141892857 96024678
L141916666 96050869
L141964285 96077059
L142059523 96077059
L142107142 96050869
" />
<path d="M141654761 96024678
L141630952 96050869
L141654761 96077059
L141678571 96050869
L141654761 96024678
L141654761 96077059
" />
<path d="M141202380 96050869
L141250000 96077059
L141345238 96077059
L141392857 96050869
L141416666 96024678
L141440476 95972297
L141440476 95815154
L141416666 95762773
L141392857 95736583
L141345238 95710392
L141250000 95710392
L141202380 95736583
" />
<path d="M140916666 96077059
L140964285 96050869
L140988095 96024678
L141011904 95972297
L141011904 95815154
L140988095 95762773
L140964285 95736583
L140916666 95710392
L140845238 95710392
L140797619 95736583
L140773809 95762773
L140750000 95815154
L140750000 95972297
L140773809 96024678
L140797619 96050869
L140845238 96077059
L140916666 96077059
" />
<path d="M140535714 96077059
L140535714 95710392
" />
<path d="M140535714 95762773
L140511904 95736583
L140464285 95710392
L140392857 95710392
L140345238 95736583
L140321428 95788964
L140321428 96077059
" />
<path d="M140321428 95788964
L140297619 95736583
L140250000 95710392
L140178571 95710392
L140130952 95736583
L140107142 95788964
L140107142 96077059
" />
<path d="M139511904 95500869
L139940476 96208011
" />
<path d="M139345238 96077059
L139345238 95527059
" />
<path d="M139345238 95736583
L139297619 95710392
L139202380 95710392
L139154761 95736583
L139130952 95762773
L139107142 95815154
L139107142 95972297
L139130952 96024678
L139154761 96050869
L139202380 96077059
L139297619 96077059
L139345238 96050869
" />
<path d="M138892857 96077059
L138892857 95710392
" />
<path d="M138892857 95527059
L138916666 95553250
L138892857 95579440
L138869047 95553250
L138892857 95527059
L138892857 95579440
" />
<path d="M138702380 95710392
L138583333 96077059
" />
<path d="M138464285 95710392
L138583333 96077059
L138630952 96208011
L138654761 96234202
L138702380 96260392
" />
<path d="M138273809 96077059
L138273809 95710392
" />
<path d="M138273809 95762773
L138250000 95736583
L138202380 95710392
L138130952 95710392
L138083333 95736583
L138059523 95788964
L138059523 96077059
" />
<path d="M138059523 95788964
L138035714 95736583
L137988095 95710392
L137916666 95710392
L137869047 95736583
L137845238 95788964
L137845238 96077059
" />
<path d="M137250000 95500869
L137678571 96208011
" />
<path d="M137083333 96077059
L137083333 95527059
" />
<path d="M137083333 95736583
L137035714 95710392
L136940476 95710392
L136892857 95736583
L136869047 95762773
L136845238 95815154
L136845238 95972297
L136869047 96024678
L136892857 96050869
L136940476 96077059
L137035714 96077059
L137083333 96050869
" />
<path d="M136630952 96077059
L136630952 95710392
" />
<path d="M136630952 95527059
L136654761 95553250
L136630952 95579440
L136607142 95553250
L136630952 95527059
L136630952 95579440
" />
<path d="M136440476 95710392
L136321428 96077059
" />
<path d="M136202380 95710392
L136321428 96077059
L136369047 96208011
L136392857 96234202
L136440476 96260392
" />
<path d="M136011904 96077059
L136011904 95710392
" />
<path d="M136011904 95762773
L135988095 95736583
L135940476 95710392
L135869047 95710392
L135821428 95736583
L135797619 95788964
L135797619 96077059
" />
<path d="M135797619 95788964
L135773809 95736583
L135726190 95710392
L135654761 95710392
L135607142 95736583
L135583333 95788964
L135583333 96077059
" />
<path d="M135345238 95867535
L134964285 95867535
" />
<path d="M134726190 96077059
L134726190 95527059
" />
<path d="M134726190 95736583
L134678571 95710392
L134583333 95710392
L134535714 95736583
L134511904 95762773
L134488095 95815154
L134488095 95972297
L134511904 96024678
L134535714 96050869
L134583333 96077059
L134678571 96077059
L134726190 96050869
" />
<path d="M134202380 96077059
L134250000 96050869
L134273809 96024678
L134297619 95972297
L134297619 95815154
L134273809 95762773
L134250000 95736583
L134202380 95710392
L134130952 95710392
L134083333 95736583
L134059523 95762773
L134035714 95815154
L134035714 95972297
L134059523 96024678
L134083333 96050869
L134130952 96077059
L134202380 96077059
" />
<path d="M133607142 96077059
L133607142 95788964
L133630952 95736583
L133678571 95710392
L133773809 95710392
L133821428 95736583
" />
<path d="M133607142 96050869
L133654761 96077059
L133773809 96077059
L133821428 96050869
L133845238 95998488
L133845238 95946107
L133821428 95893726
L133773809 95867535
L133654761 95867535
L133607142 95841345
" />
<path d="M133369047 96077059
L133369047 95710392
" />
<path d="M133369047 95815154
L133345238 95762773
L133321428 95736583
L133273809 95710392
L133226190 95710392
" />
<path d="M132845238 96077059
L132845238 95527059
" />
<path d="M132845238 96050869
L132892857 96077059
L132988095 96077059
L133035714 96050869
L133059523 96024678
L133083333 95972297
L133083333 95815154
L133059523 95762773
L133035714 95736583
L132988095 95710392
L132892857 95710392
L132845238 95736583
" />
</g></g>
<g style="fill:#000000; fill-opacity:0.0; 
stroke:#000000; stroke-width:125000.000000; stroke-opacity:1; 
stroke-linecap:round; stroke-linejoin:round;">
<text x="142000000.000000" y="85347500.000000"
transform="scale(-1 1) translate(-284000000.000000 0)"
textLength="2250952.000000" font-size="666666.000000" lengthAdjust="spacingAndGlyphs"
text-anchor="middle" opacity="0">SERVO</text>
<g class="stroked-text"><desc>SERVO</desc>
<path d="M143095238 85299880
L143023809 85323690
L142904761 85323690
L142857142 85299880
L142833333 85276071
L142809523 85228452
L142809523 85180833
L142833333 85133214
L142857142 85109404
L142904761 85085595
L143000000 85061785
L143047619 85037976
L143071428 85014166
L143095238 84966547
L143095238 84918928
L143071428 84871309
L143047619 84847500
L143000000 84823690
L142880952 84823690
L142809523 84847500
" />
<path d="M142595238 85061785
L142428571 85061785
" />
<path d="M142357142 85323690
L142595238 85323690
L142595238 84823690
L142357142 84823690
" />
<path d="M141857142 85323690
L142023809 85085595
" />
<path d="M142142857 85323690
L142142857 84823690
L141952380 84823690
L141904761 84847500
L141880952 84871309
L141857142 84918928
L141857142 84990357
L141880952 85037976
L141904761 85061785
L141952380 85085595
L142142857 85085595
" />
<path d="M141714285 84823690
L141547619 85323690
L141380952 84823690
" />
<path d="M141119047 84823690
L141023809 84823690
L140976190 84847500
L140928571 84895119
L140904761 84990357
L140904761 85157023
L140928571 85252261
L140976190 85299880
L141023809 85323690
L141119047 85323690
L141166666 85299880
L141214285 85252261
L141238095 85157023
L141238095 84990357
L141214285 84895119
L141166666 84847500
L141119047 84823690
" />
</g><text x="142000000.000000" y="86152500.000000"
transform="scale(-1 1) translate(-284000000.000000 0)"
textLength="313690.000000" font-size="666666.000000" lengthAdjust="spacingAndGlyphs"
text-anchor="middle" opacity="0">1</text>
<g class="stroked-text"><desc>1</desc>
<path d="M141857142 86128690
L142142857 86128690
" />
<path d="M142000000 86128690
L142000000 85628690
L142047619 85700119
L142095238 85747738
L142142857 85771547
" />
</g><text x="150000000.000000" y="114750000.000000"
transform="scale(-1 1) translate(-300000000.000000 0)"
textLength="1599405.000000" font-size="666666.000000" lengthAdjust="spacingAndGlyphs"
text-anchor="middle" opacity="0">GPIO</text>
<g class="stroked-text"><desc>GPIO</desc>
<path d="M150500000 114250000
L150547619 114226190
L150619047 114226190
L150690476 114250000
L150738095 114297619
L150761904 114345238
L150785714 114440476
L150785714 114511904
L150761904 114607142
L150738095 114654761
L150690476 114702380
L150619047 114726190
L150571428 114726190
L150500000 114702380
L150476190 114678571
L150476190 114511904
L150571428 114511904
" />
<path d="M150261904 114726190
L150261904 114226190
L150071428 114226190
L150023809 114250000
L150000000 114273809
L149976190 114321428
L149976190 114392857
L150000000 114440476
L150023809 114464285
L150071428 114488095
L150261904 114488095
" />
<path d="M149761904 114726190
L149761904 114226190
" />
<path d="M149428571 114226190
L149333333 114226190
L149285714 114250000
L149238095 114297619
L149214285 114392857
L149214285 114559523
L149238095 114654761
L149285714 114702380
L149333333 114726190
L149428571 114726190
L149476190 114702380
L149523809 114654761
L149547619 114559523
L149547619 114392857
L149523809 114297619
L149476190 114250000
L149428571 114226190
" />
</g><text x="140000000.000000" y="98500000.000000"
transform="scale(-1 1) translate(-280000000.000000 0)"
textLength="3289881.000000" font-size="666666.000000" lengthAdjust="spacingAndGlyphs"
text-anchor="middle" opacity="0">ENCODER</text>
<g class="stroked-text"><desc>ENCODER</desc>
<path d="M141607142 98214285
L141440476 98214285
" />
<path d="M141369047 98476190
L141607142 98476190
L141607142 97976190
L141369047 97976190
" />
<path d="M141154761 98476190
L141154761 97976190
L140869047 98476190
L140869047 97976190
" />
<path d="M140345238 98428571
L140369047 98452380
L140440476 98476190
L140488095 98476190
L140559523 98452380
L140607142 98404761
L140630952 98357142
L140654761 98261904
L140654761 98190476
L140630952 98095238
L140607142 98047619
L140559523 98000000
L140488095 97976190
L140440476 97976190
L140369047 98000000
L140345238 98023809
" />
<path d="M140035714 97976190
L139940476 97976190
L139892857 98000000
L139845238 98047619
L139821428 98142857
L139821428 98309523
L139845238 98404761
L139892857 98452380
L139940476 98476190
L140035714 98476190
L140083333 98452380
L140130952 98404761
L140154761 98309523
L140154761 98142857
L140130952 98047619
L140083333 98000000
L140035714 97976190
" />
<path d="M139607142 98476190
L139607142 97976190
L139488095 97976190
L139416666 98000000
L139369047 98047619
L139345238 98095238
L139321428 98190476
L139321428 98261904
L139345238 98357142
L139369047 98404761
L139416666 98452380
L139488095 98476190
L139607142 98476190
" />
<path d="M139107142 98214285
L138940476 98214285
" />
<path d="M138869047 98476190
L139107142 98476190
L139107142 97976190
L138869047 97976190
" />
<path d="M138369047 98476190
L138535714 98238095
" />
<path d="M138654761 98476190
L138654761 97976190
L138464285 97976190
L138416666 98000000
L138392857 98023809
L138369047 98071428
L138369047 98142857
L138392857 98190476
L138416666 98214285
L138464285 98238095
L138654761 98238095
" />
</g><g >
</g>
<g >
</g>
<g >
</g>
<g >
</g>
<g >
</g>
<g >
</g>
<g >
</g>
<g >
</g>
<g >
</g>
<g >
</g>
<g >
</g>
<g >
</g>
<g >
</g>
<g >
</g>
<g >
</g>
<g >
</g>
<g >
</g>
<g >
</g>
<g >
</g>
<g >
</g>
<g >
</g>
<g >
</g>
<g >
</g>
<g >
</g>
<g >
</g>
<g >
</g>
<g >
</g>
<g >
</g>
<g >
</g>
<g >
</g>
<g >
</g>
<g >
</g>
<g >
</g>
<g >
</g>
<g >
</g>
<g >
</g>
<g >
</g>
<g >
</g>
<g >
</g>
<g >
</g>
<g >
</g>
<g >
</g>
<g >
</g>
<g >
</g>
<g >
</g>
<g >
</g>
<g >
</g>
</g> 
</svg>
