<?xml version="1.0" standalone="no"?>
 <!DOCTYPE svg PUBLIC "-//W3C//DTD SVG 1.1//EN" 
 "http://www.w3.org/Graphics/SVG/1.1/DTD/svg11.dtd"> 
<svg
  xmlns:svg="http://www.w3.org/2000/svg"
  xmlns="http://www.w3.org/2000/svg"
  xmlns:xlink="http://www.w3.org/1999/xlink"
  version="1.1"
  width="29.700220cm" height="21.000720cm" viewBox="0 0 297002200 210007200">
<title>SVG Picture created as biym-board-User_Drawings.svg date 2022/11/22 11:01:14 </title>
  <desc>Picture generated by PCBNEW </desc>
<g style="fill:#000000; fill-opacity:1.000000;stroke:#000000; stroke-opacity:1.000000;
stroke-linecap:round; stroke-linejoin:round;"
 transform="translate(0 0) scale(1 1)">
</g>
<g style="fill:#000000; fill-opacity:0.0; 
stroke:#000000; stroke-width:0.000000; stroke-opacity:1; 
stroke-linecap:round; stroke-linejoin:round;">
</g>
<g style="fill:#000000; fill-opacity:0.0; 
stroke:#000000; stroke-width:250000.000000; stroke-opacity:1; 
stroke-linecap:round; stroke-linejoin:round;">
<text x="146000000.000000" y="94250000.000000"
textLength="5495833.000000" font-size="1333333.000000" lengthAdjust="spacingAndGlyphs"
text-anchor="middle" opacity="0">12 mm</text>
<g class="stroked-text"><desc>12 mm</desc>
<path d="M144095238 94202380
L143523809 94202380
" />
<path d="M143809523 94202380
L143809523 93202380
L143714285 93345238
L143619047 93440476
L143523809 93488095
" />
<path d="M144476190 93297619
L144523809 93250000
L144619047 93202380
L144857142 93202380
L144952380 93250000
L145000000 93297619
L145047619 93392857
L145047619 93488095
L145000000 93630952
L144428571 94202380
L145047619 94202380
" />
<path d="M146238095 94202380
L146238095 93535714
" />
<path d="M146238095 93630952
L146285714 93583333
L146380952 93535714
L146523809 93535714
L146619047 93583333
L146666666 93678571
L146666666 94202380
" />
<path d="M146666666 93678571
L146714285 93583333
L146809523 93535714
L146952380 93535714
L147047619 93583333
L147095238 93678571
L147095238 94202380
" />
<path d="M147571428 94202380
L147571428 93535714
" />
<path d="M147571428 93630952
L147619047 93583333
L147714285 93535714
L147857142 93535714
L147952380 93583333
L148000000 93678571
L148000000 94202380
" />
<path d="M148000000 93678571
L148047619 93583333
L148142857 93535714
L148285714 93535714
L148380952 93583333
L148428571 93678571
L148428571 94202380
" />
</g></g>
<g style="fill:#000000; fill-opacity:0.0; 
stroke:#000000; stroke-width:200000.000000; stroke-opacity:1; 
stroke-linecap:round; stroke-linejoin:round;">
<path d="M152000000 85500000
L152000000 95586420
" />
</g>
<g style="fill:#000000; fill-opacity:1.0; 
stroke:#000000; stroke-width:1.000000; stroke-opacity:1; 
stroke-linecap:round; stroke-linejoin:round;">
<circle cx="140000000.000000" cy="95000000.000000" r="100000.000000" /> 
</g>
<g style="fill:#000000; fill-opacity:1.0; 
stroke:#000000; stroke-width:200000.000000; stroke-opacity:1; 
stroke-linecap:round; stroke-linejoin:round;">
</g>
<g style="fill:#000000; fill-opacity:0.0; 
stroke:#000000; stroke-width:200000.000000; stroke-opacity:1; 
stroke-linecap:round; stroke-linejoin:round;">
<path d="M152000000 95000000
L140000000 95000000
" />
<path d="M152000000 95000000
L140000000 95000000
" />
<path d="M152000000 95000000
L150891236 94422814
" />
<path d="M152000000 95000000
L150891236 95577186
" />
<path d="M140000000 95000000
L141108764 95577186
" />
<path d="M140000000 95000000
L141108764 94422814
" />
</g>
<g style="fill:#000000; fill-opacity:0.0; 
stroke:#000000; stroke-width:250000.000000; stroke-opacity:1; 
stroke-linecap:round; stroke-linejoin:round;">
<text x="145080000.000000" y="90340000.000000"
textLength="4705952.000000" font-size="1333333.000000" lengthAdjust="spacingAndGlyphs"
text-anchor="middle" opacity="0">2 mm</text>
<g class="stroked-text"><desc>2 mm</desc>
<path d="M143080000 89387619
L143127619 89340000
L143222857 89292380
L143460952 89292380
L143556190 89340000
L143603809 89387619
L143651428 89482857
L143651428 89578095
L143603809 89720952
L143032380 90292380
L143651428 90292380
" />
<path d="M144841904 90292380
L144841904 89625714
" />
<path d="M144841904 89720952
L144889523 89673333
L144984761 89625714
L145127619 89625714
L145222857 89673333
L145270476 89768571
L145270476 90292380
" />
<path d="M145270476 89768571
L145318095 89673333
L145413333 89625714
L145556190 89625714
L145651428 89673333
L145699047 89768571
L145699047 90292380
" />
<path d="M146175238 90292380
L146175238 89625714
" />
<path d="M146175238 89720952
L146222857 89673333
L146318095 89625714
L146460952 89625714
L146556190 89673333
L146603809 89768571
L146603809 90292380
" />
<path d="M146603809 89768571
L146651428 89673333
L146746666 89625714
L146889523 89625714
L146984761 89673333
L147032380 89768571
L147032380 90292380
" />
</g></g>
<g style="fill:#000000; fill-opacity:0.0; 
stroke:#000000; stroke-width:200000.000000; stroke-opacity:1; 
stroke-linecap:round; stroke-linejoin:round;">
<path d="M142000000 85500000
L142000000 90426420
" />
<path d="M140000000 90426420
L140000000 85500000
" />
<path d="M142000000 89840000
L140000000 89840000
" />
<path d="M142000000 89840000
L140000000 89840000
" />
<path d="M142000000 89840000
L140891236 89262814
" />
<path d="M142000000 89840000
L140891236 90417186
" />
<path d="M140000000 89840000
L141108764 90417186
" />
<path d="M140000000 89840000
L141108764 89262814
" />
</g>
<g style="fill:#000000; fill-opacity:0.0; 
stroke:#000000; stroke-width:250000.000000; stroke-opacity:1; 
stroke-linecap:round; stroke-linejoin:round;">
<g transform="rotate(-90.000000 168750000.000000 107500000.000000)">
<text x="168750000.000000" y="108000000.000000"
textLength="5658333.000000" font-size="1333333.000000" lengthAdjust="spacingAndGlyphs"
text-anchor="middle" opacity="0">15 mm</text>
</g>
<g class="stroked-text"><desc>15 mm</desc>
<path d="M169202380 109404761
L169202380 109976190
" />
<path d="M169202380 109690476
L168202380 109690476
L168345238 109785714
L168440476 109880952
L168488095 109976190
" />
<path d="M168202380 108500000
L168202380 108976190
L168678571 109023809
L168630952 108976190
L168583333 108880952
L168583333 108642857
L168630952 108547619
L168678571 108500000
L168773809 108452380
L169011904 108452380
L169107142 108500000
L169154761 108547619
L169202380 108642857
L169202380 108880952
L169154761 108976190
L169107142 109023809
" />
<path d="M169202380 107261904
L168535714 107261904
" />
<path d="M168630952 107261904
L168583333 107214285
L168535714 107119047
L168535714 106976190
L168583333 106880952
L168678571 106833333
L169202380 106833333
" />
<path d="M168678571 106833333
L168583333 106785714
L168535714 106690476
L168535714 106547619
L168583333 106452380
L168678571 106404761
L169202380 106404761
" />
<path d="M169202380 105928571
L168535714 105928571
" />
<path d="M168630952 105928571
L168583333 105880952
L168535714 105785714
L168535714 105642857
L168583333 105547619
L168678571 105500000
L169202380 105500000
" />
<path d="M168678571 105500000
L168583333 105452380
L168535714 105357142
L168535714 105214285
L168583333 105119047
L168678571 105071428
L169202380 105071428
" />
</g></g>
<g style="fill:#000000; fill-opacity:0.0; 
stroke:#000000; stroke-width:200000.000000; stroke-opacity:1; 
stroke-linecap:round; stroke-linejoin:round;">
<path d="M140500000 115000000
L170586420 115000000
" />
<path d="M170586420 100000000
L140500000 100000000
" />
<path d="M170000000 115000000
L170000000 100000000
" />
<path d="M170000000 115000000
L170000000 100000000
" />
<path d="M170000000 115000000
L170577186 113891236
" />
<path d="M170000000 115000000
L169422814 113891236
" />
<path d="M170000000 100000000
L169422814 101108764
" />
<path d="M170000000 100000000
L170577186 101108764
" />
</g>
<g style="fill:#000000; fill-opacity:0.0; 
stroke:#000000; stroke-width:250000.000000; stroke-opacity:1; 
stroke-linecap:round; stroke-linejoin:round;">
<text x="145000000.000000" y="109410000.000000"
textLength="5658333.000000" font-size="1333333.000000" lengthAdjust="spacingAndGlyphs"
text-anchor="middle" opacity="0">10 mm</text>
<g class="stroked-text"><desc>10 mm</desc>
<path d="M143095238 109362380
L142523809 109362380
" />
<path d="M142809523 109362380
L142809523 108362380
L142714285 108505238
L142619047 108600476
L142523809 108648095
" />
<path d="M143714285 108362380
L143809523 108362380
L143904761 108410000
L143952380 108457619
L144000000 108552857
L144047619 108743333
L144047619 108981428
L144000000 109171904
L143952380 109267142
L143904761 109314761
L143809523 109362380
L143714285 109362380
L143619047 109314761
L143571428 109267142
L143523809 109171904
L143476190 108981428
L143476190 108743333
L143523809 108552857
L143571428 108457619
L143619047 108410000
L143714285 108362380
" />
<path d="M145238095 109362380
L145238095 108695714
" />
<path d="M145238095 108790952
L145285714 108743333
L145380952 108695714
L145523809 108695714
L145619047 108743333
L145666666 108838571
L145666666 109362380
" />
<path d="M145666666 108838571
L145714285 108743333
L145809523 108695714
L145952380 108695714
L146047619 108743333
L146095238 108838571
L146095238 109362380
" />
<path d="M146571428 109362380
L146571428 108695714
" />
<path d="M146571428 108790952
L146619047 108743333
L146714285 108695714
L146857142 108695714
L146952380 108743333
L147000000 108838571
L147000000 109362380
" />
<path d="M147000000 108838571
L147047619 108743333
L147142857 108695714
L147285714 108695714
L147380952 108743333
L147428571 108838571
L147428571 109362380
" />
</g></g>
<g style="fill:#000000; fill-opacity:0.0; 
stroke:#000000; stroke-width:200000.000000; stroke-opacity:1; 
stroke-linecap:round; stroke-linejoin:round;">
<path d="M150000000 114700000
L150000000 109573580
" />
<path d="M140000000 109573580
L140000000 114500000
" />
<path d="M150000000 110160000
L140000000 110160000
" />
<path d="M150000000 110160000
L140000000 110160000
" />
<path d="M150000000 110160000
L148891236 109582814
" />
<path d="M150000000 110160000
L148891236 110737186
" />
<path d="M140000000 110160000
L141108764 110737186
" />
<path d="M140000000 110160000
L141108764 109582814
" />
</g>
<g style="fill:#000000; fill-opacity:0.0; 
stroke:#000000; stroke-width:250000.000000; stroke-opacity:1; 
stroke-linecap:round; stroke-linejoin:round;">
<text x="135000000.000000" y="109410000.000000"
textLength="5658333.000000" font-size="1333333.000000" lengthAdjust="spacingAndGlyphs"
text-anchor="middle" opacity="0">10 mm</text>
<g class="stroked-text"><desc>10 mm</desc>
<path d="M133095238 109362380
L132523809 109362380
" />
<path d="M132809523 109362380
L132809523 108362380
L132714285 108505238
L132619047 108600476
L132523809 108648095
" />
<path d="M133714285 108362380
L133809523 108362380
L133904761 108410000
L133952380 108457619
L134000000 108552857
L134047619 108743333
L134047619 108981428
L134000000 109171904
L133952380 109267142
L133904761 109314761
L133809523 109362380
L133714285 109362380
L133619047 109314761
L133571428 109267142
L133523809 109171904
L133476190 108981428
L133476190 108743333
L133523809 108552857
L133571428 108457619
L133619047 108410000
L133714285 108362380
" />
<path d="M135238095 109362380
L135238095 108695714
" />
<path d="M135238095 108790952
L135285714 108743333
L135380952 108695714
L135523809 108695714
L135619047 108743333
L135666666 108838571
L135666666 109362380
" />
<path d="M135666666 108838571
L135714285 108743333
L135809523 108695714
L135952380 108695714
L136047619 108743333
L136095238 108838571
L136095238 109362380
" />
<path d="M136571428 109362380
L136571428 108695714
" />
<path d="M136571428 108790952
L136619047 108743333
L136714285 108695714
L136857142 108695714
L136952380 108743333
L137000000 108838571
L137000000 109362380
" />
<path d="M137000000 108838571
L137047619 108743333
L137142857 108695714
L137285714 108695714
L137380952 108743333
L137428571 108838571
L137428571 109362380
" />
</g></g>
<g style="fill:#000000; fill-opacity:0.0; 
stroke:#000000; stroke-width:200000.000000; stroke-opacity:1; 
stroke-linecap:round; stroke-linejoin:round;">
<path d="M130000000 114500000
L130000000 109573580
" />
<path d="M140000000 109573580
L140000000 113000000
" />
<path d="M130000000 110160000
L140000000 110160000
" />
<path d="M130000000 110160000
L140000000 110160000
" />
<path d="M130000000 110160000
L131108764 110737186
" />
<path d="M130000000 110160000
L131108764 109582814
" />
<path d="M140000000 110160000
L138891236 109582814
" />
<path d="M140000000 110160000
L138891236 110737186
" />
</g>
<g style="fill:#000000; fill-opacity:0.0; 
stroke:#000000; stroke-width:250000.000000; stroke-opacity:1; 
stroke-linecap:round; stroke-linejoin:round;">
<text x="136000000.000000" y="89090000.000000"
textLength="4705952.000000" font-size="1333333.000000" lengthAdjust="spacingAndGlyphs"
text-anchor="middle" opacity="0">8 mm</text>
<g class="stroked-text"><desc>8 mm</desc>
<path d="M134190476 88470952
L134095238 88423333
L134047619 88375714
L134000000 88280476
L134000000 88232857
L134047619 88137619
L134095238 88090000
L134190476 88042380
L134380952 88042380
L134476190 88090000
L134523809 88137619
L134571428 88232857
L134571428 88280476
L134523809 88375714
L134476190 88423333
L134380952 88470952
L134190476 88470952
L134095238 88518571
L134047619 88566190
L134000000 88661428
L134000000 88851904
L134047619 88947142
L134095238 88994761
L134190476 89042380
L134380952 89042380
L134476190 88994761
L134523809 88947142
L134571428 88851904
L134571428 88661428
L134523809 88566190
L134476190 88518571
L134380952 88470952
" />
<path d="M135761904 89042380
L135761904 88375714
" />
<path d="M135761904 88470952
L135809523 88423333
L135904761 88375714
L136047619 88375714
L136142857 88423333
L136190476 88518571
L136190476 89042380
" />
<path d="M136190476 88518571
L136238095 88423333
L136333333 88375714
L136476190 88375714
L136571428 88423333
L136619047 88518571
L136619047 89042380
" />
<path d="M137095238 89042380
L137095238 88375714
" />
<path d="M137095238 88470952
L137142857 88423333
L137238095 88375714
L137380952 88375714
L137476190 88423333
L137523809 88518571
L137523809 89042380
" />
<path d="M137523809 88518571
L137571428 88423333
L137666666 88375714
L137809523 88375714
L137904761 88423333
L137952380 88518571
L137952380 89042380
" />
</g></g>
<g style="fill:#000000; fill-opacity:0.0; 
stroke:#000000; stroke-width:200000.000000; stroke-opacity:1; 
stroke-linecap:round; stroke-linejoin:round;">
<path d="M132000000 85500000
L132000000 90426420
" />
<path d="M140000000 90426420
L140000000 88500000
" />
<path d="M132000000 89840000
L140000000 89840000
" />
<path d="M132000000 89840000
L140000000 89840000
" />
<path d="M132000000 89840000
L133108764 90417186
" />
<path d="M132000000 89840000
L133108764 89262814
" />
<path d="M140000000 89840000
L138891236 89262814
" />
<path d="M140000000 89840000
L138891236 90417186
" />
</g>
<g style="fill:#000000; fill-opacity:0.0; 
stroke:#000000; stroke-width:250000.000000; stroke-opacity:1; 
stroke-linecap:round; stroke-linejoin:round;">
<g transform="rotate(-90.000000 168750000.000000 92500000.000000)">
<text x="168750000.000000" y="93000000.000000"
textLength="5658333.000000" font-size="1333333.000000" lengthAdjust="spacingAndGlyphs"
text-anchor="middle" opacity="0">15 mm</text>
</g>
<g class="stroked-text"><desc>15 mm</desc>
<path d="M169202380 94404761
L169202380 94976190
" />
<path d="M169202380 94690476
L168202380 94690476
L168345238 94785714
L168440476 94880952
L168488095 94976190
" />
<path d="M168202380 93500000
L168202380 93976190
L168678571 94023809
L168630952 93976190
L168583333 93880952
L168583333 93642857
L168630952 93547619
L168678571 93500000
L168773809 93452380
L169011904 93452380
L169107142 93500000
L169154761 93547619
L169202380 93642857
L169202380 93880952
L169154761 93976190
L169107142 94023809
" />
<path d="M169202380 92261904
L168535714 92261904
" />
<path d="M168630952 92261904
L168583333 92214285
L168535714 92119047
L168535714 91976190
L168583333 91880952
L168678571 91833333
L169202380 91833333
" />
<path d="M168678571 91833333
L168583333 91785714
L168535714 91690476
L168535714 91547619
L168583333 91452380
L168678571 91404761
L169202380 91404761
" />
<path d="M169202380 90928571
L168535714 90928571
" />
<path d="M168630952 90928571
L168583333 90880952
L168535714 90785714
L168535714 90642857
L168583333 90547619
L168678571 90500000
L169202380 90500000
" />
<path d="M168678571 90500000
L168583333 90452380
L168535714 90357142
L168535714 90214285
L168583333 90119047
L168678571 90071428
L169202380 90071428
" />
</g></g>
<g style="fill:#000000; fill-opacity:0.0; 
stroke:#000000; stroke-width:200000.000000; stroke-opacity:1; 
stroke-linecap:round; stroke-linejoin:round;">
<path d="M142500000 85000000
L170586420 85000000
" />
<path d="M170586420 100000000
L140500000 100000000
" />
<path d="M170000000 85000000
L170000000 100000000
" />
<path d="M170000000 85000000
L170000000 100000000
" />
<path d="M170000000 85000000
L169422814 86108764
" />
<path d="M170000000 85000000
L170577186 86108764
" />
<path d="M170000000 100000000
L170577186 98891236
" />
<path d="M170000000 100000000
L169422814 98891236
" />
</g>
<g style="fill:#000000; fill-opacity:0.0; 
stroke:#000000; stroke-width:250000.000000; stroke-opacity:1; 
stroke-linecap:round; stroke-linejoin:round;">
<g transform="rotate(-90.000000 105000000.000000 95000000.000000)">
<text x="105000000.000000" y="95500000.000000"
textLength="5658333.000000" font-size="1333333.000000" lengthAdjust="spacingAndGlyphs"
text-anchor="middle" opacity="0">34 mm</text>
</g>
<g class="stroked-text"><desc>34 mm</desc>
<path d="M104452380 97523809
L104452380 96904761
L104833333 97238095
L104833333 97095238
L104880952 97000000
L104928571 96952380
L105023809 96904761
L105261904 96904761
L105357142 96952380
L105404761 97000000
L105452380 97095238
L105452380 97380952
L105404761 97476190
L105357142 97523809
" />
<path d="M104785714 96047619
L105452380 96047619
" />
<path d="M104404761 96285714
L105119047 96523809
L105119047 95904761
" />
<path d="M105452380 94761904
L104785714 94761904
" />
<path d="M104880952 94761904
L104833333 94714285
L104785714 94619047
L104785714 94476190
L104833333 94380952
L104928571 94333333
L105452380 94333333
" />
<path d="M104928571 94333333
L104833333 94285714
L104785714 94190476
L104785714 94047619
L104833333 93952380
L104928571 93904761
L105452380 93904761
" />
<path d="M105452380 93428571
L104785714 93428571
" />
<path d="M104880952 93428571
L104833333 93380952
L104785714 93285714
L104785714 93142857
L104833333 93047619
L104928571 93000000
L105452380 93000000
" />
<path d="M104928571 93000000
L104833333 92952380
L104785714 92857142
L104785714 92714285
L104833333 92619047
L104928571 92571428
L105452380 92571428
" />
</g></g>
<g style="fill:#000000; fill-opacity:0.0; 
stroke:#000000; stroke-width:200000.000000; stroke-opacity:1; 
stroke-linecap:round; stroke-linejoin:round;">
<path d="M124100000 83000000
L104413580 83000000
" />
<path d="M104413580 117000000
L124100000 117000000
" />
<path d="M105000000 83000000
L105000000 91708333
" />
<path d="M105000000 98291666
L105000000 117000000
" />
<path d="M105000000 83000000
L104422814 84108764
" />
<path d="M105000000 83000000
L105577186 84108764
" />
<path d="M105000000 117000000
L105577186 115891236
" />
<path d="M105000000 117000000
L104422814 115891236
" />
</g>
<g style="fill:#000000; fill-opacity:0.0; 
stroke:#000000; stroke-width:250000.000000; stroke-opacity:1; 
stroke-linecap:round; stroke-linejoin:round;">
<text x="130000000.000000" y="75500000.000000"
textLength="7086905.000000" font-size="1333333.000000" lengthAdjust="spacingAndGlyphs"
text-anchor="middle" opacity="0">50.8 mm</text>
<g class="stroked-text"><desc>50.8 mm</desc>
<path d="M127333333 74452380
L126857142 74452380
L126809523 74928571
L126857142 74880952
L126952380 74833333
L127190476 74833333
L127285714 74880952
L127333333 74928571
L127380952 75023809
L127380952 75261904
L127333333 75357142
L127285714 75404761
L127190476 75452380
L126952380 75452380
L126857142 75404761
L126809523 75357142
" />
<path d="M128000000 74452380
L128095238 74452380
L128190476 74500000
L128238095 74547619
L128285714 74642857
L128333333 74833333
L128333333 75071428
L128285714 75261904
L128238095 75357142
L128190476 75404761
L128095238 75452380
L128000000 75452380
L127904761 75404761
L127857142 75357142
L127809523 75261904
L127761904 75071428
L127761904 74833333
L127809523 74642857
L127857142 74547619
L127904761 74500000
L128000000 74452380
" />
<path d="M128761904 75357142
L128809523 75404761
L128761904 75452380
L128714285 75404761
L128761904 75357142
L128761904 75452380
" />
<path d="M129380952 74880952
L129285714 74833333
L129238095 74785714
L129190476 74690476
L129190476 74642857
L129238095 74547619
L129285714 74500000
L129380952 74452380
L129571428 74452380
L129666666 74500000
L129714285 74547619
L129761904 74642857
L129761904 74690476
L129714285 74785714
L129666666 74833333
L129571428 74880952
L129380952 74880952
L129285714 74928571
L129238095 74976190
L129190476 75071428
L129190476 75261904
L129238095 75357142
L129285714 75404761
L129380952 75452380
L129571428 75452380
L129666666 75404761
L129714285 75357142
L129761904 75261904
L129761904 75071428
L129714285 74976190
L129666666 74928571
L129571428 74880952
" />
<path d="M130952380 75452380
L130952380 74785714
" />
<path d="M130952380 74880952
L131000000 74833333
L131095238 74785714
L131238095 74785714
L131333333 74833333
L131380952 74928571
L131380952 75452380
" />
<path d="M131380952 74928571
L131428571 74833333
L131523809 74785714
L131666666 74785714
L131761904 74833333
L131809523 74928571
L131809523 75452380
" />
<path d="M132285714 75452380
L132285714 74785714
" />
<path d="M132285714 74880952
L132333333 74833333
L132428571 74785714
L132571428 74785714
L132666666 74833333
L132714285 74928571
L132714285 75452380
" />
<path d="M132714285 74928571
L132761904 74833333
L132857142 74785714
L133000000 74785714
L133095238 74833333
L133142857 74928571
L133142857 75452380
" />
</g></g>
<g style="fill:#000000; fill-opacity:0.0; 
stroke:#000000; stroke-width:200000.000000; stroke-opacity:1; 
stroke-linecap:round; stroke-linejoin:round;">
<path d="M114600000 92500000
L114600000 74413580
" />
<path d="M165400000 74413580
L165400000 92500000
" />
<path d="M114600000 75000000
L125994048 75000000
" />
<path d="M134005953 75000000
L165400000 75000000
" />
<path d="M114600000 75000000
L115708764 75577186
" />
<path d="M114600000 75000000
L115708764 74422814
" />
<path d="M165400000 75000000
L164291236 74422814
" />
<path d="M165400000 75000000
L164291236 75577186
" />
</g>
<g style="fill:#000000; fill-opacity:0.0; 
stroke:#000000; stroke-width:250000.000000; stroke-opacity:1; 
stroke-linecap:round; stroke-linejoin:round;">
<text x="128570000.000000" y="80500000.000000"
textLength="8039286.000000" font-size="1333333.000000" lengthAdjust="spacingAndGlyphs"
text-anchor="middle" opacity="0">22.86 mm</text>
<g class="stroked-text"><desc>22.86 mm</desc>
<path d="M124903333 79547619
L124950952 79500000
L125046190 79452380
L125284285 79452380
L125379523 79500000
L125427142 79547619
L125474761 79642857
L125474761 79738095
L125427142 79880952
L124855714 80452380
L125474761 80452380
" />
<path d="M125855714 79547619
L125903333 79500000
L125998571 79452380
L126236666 79452380
L126331904 79500000
L126379523 79547619
L126427142 79642857
L126427142 79738095
L126379523 79880952
L125808095 80452380
L126427142 80452380
" />
<path d="M126855714 80357142
L126903333 80404761
L126855714 80452380
L126808095 80404761
L126855714 80357142
L126855714 80452380
" />
<path d="M127474761 79880952
L127379523 79833333
L127331904 79785714
L127284285 79690476
L127284285 79642857
L127331904 79547619
L127379523 79500000
L127474761 79452380
L127665238 79452380
L127760476 79500000
L127808095 79547619
L127855714 79642857
L127855714 79690476
L127808095 79785714
L127760476 79833333
L127665238 79880952
L127474761 79880952
L127379523 79928571
L127331904 79976190
L127284285 80071428
L127284285 80261904
L127331904 80357142
L127379523 80404761
L127474761 80452380
L127665238 80452380
L127760476 80404761
L127808095 80357142
L127855714 80261904
L127855714 80071428
L127808095 79976190
L127760476 79928571
L127665238 79880952
" />
<path d="M128712857 79452380
L128522380 79452380
L128427142 79500000
L128379523 79547619
L128284285 79690476
L128236666 79880952
L128236666 80261904
L128284285 80357142
L128331904 80404761
L128427142 80452380
L128617619 80452380
L128712857 80404761
L128760476 80357142
L128808095 80261904
L128808095 80023809
L128760476 79928571
L128712857 79880952
L128617619 79833333
L128427142 79833333
L128331904 79880952
L128284285 79928571
L128236666 80023809
" />
<path d="M129998571 80452380
L129998571 79785714
" />
<path d="M129998571 79880952
L130046190 79833333
L130141428 79785714
L130284285 79785714
L130379523 79833333
L130427142 79928571
L130427142 80452380
" />
<path d="M130427142 79928571
L130474761 79833333
L130570000 79785714
L130712857 79785714
L130808095 79833333
L130855714 79928571
L130855714 80452380
" />
<path d="M131331904 80452380
L131331904 79785714
" />
<path d="M131331904 79880952
L131379523 79833333
L131474761 79785714
L131617619 79785714
L131712857 79833333
L131760476 79928571
L131760476 80452380
" />
<path d="M131760476 79928571
L131808095 79833333
L131903333 79785714
L132046190 79785714
L132141428 79833333
L132189047 79928571
L132189047 80452380
" />
</g></g>
<g style="fill:#000000; fill-opacity:0.0; 
stroke:#000000; stroke-width:200000.000000; stroke-opacity:1; 
stroke-linecap:round; stroke-linejoin:round;">
<path d="M117140000 90610000
L117140000 79413580
" />
<path d="M140000000 79413580
L140000000 90610000
" />
<path d="M117140000 80000000
L124087857 80000000
" />
<path d="M133052143 80000000
L140000000 80000000
" />
<path d="M117140000 80000000
L118248764 80577186
" />
<path d="M117140000 80000000
L118248764 79422814
" />
<path d="M140000000 80000000
L138891236 79422814
" />
<path d="M140000000 80000000
L138891236 80577186
" />
</g>
<g style="fill:#000000; fill-opacity:0.0; 
stroke:#000000; stroke-width:250000.000000; stroke-opacity:1; 
stroke-linecap:round; stroke-linejoin:round;">
<g transform="rotate(-90.000000 108750000.000000 95555000.000000)">
<text x="108750000.000000" y="96055000.000000"
textLength="7086905.000000" font-size="1333333.000000" lengthAdjust="spacingAndGlyphs"
text-anchor="middle" opacity="0">8.89 mm</text>
</g>
<g class="stroked-text"><desc>8.89 mm</desc>
<path d="M108630952 98555000
L108583333 98650238
L108535714 98697857
L108440476 98745476
L108392857 98745476
L108297619 98697857
L108250000 98650238
L108202380 98555000
L108202380 98364523
L108250000 98269285
L108297619 98221666
L108392857 98174047
L108440476 98174047
L108535714 98221666
L108583333 98269285
L108630952 98364523
L108630952 98555000
L108678571 98650238
L108726190 98697857
L108821428 98745476
L109011904 98745476
L109107142 98697857
L109154761 98650238
L109202380 98555000
L109202380 98364523
L109154761 98269285
L109107142 98221666
L109011904 98174047
L108821428 98174047
L108726190 98221666
L108678571 98269285
L108630952 98364523
" />
<path d="M109107142 97745476
L109154761 97697857
L109202380 97745476
L109154761 97793095
L109107142 97745476
L109202380 97745476
" />
<path d="M108630952 97126428
L108583333 97221666
L108535714 97269285
L108440476 97316904
L108392857 97316904
L108297619 97269285
L108250000 97221666
L108202380 97126428
L108202380 96935952
L108250000 96840714
L108297619 96793095
L108392857 96745476
L108440476 96745476
L108535714 96793095
L108583333 96840714
L108630952 96935952
L108630952 97126428
L108678571 97221666
L108726190 97269285
L108821428 97316904
L109011904 97316904
L109107142 97269285
L109154761 97221666
L109202380 97126428
L109202380 96935952
L109154761 96840714
L109107142 96793095
L109011904 96745476
L108821428 96745476
L108726190 96793095
L108678571 96840714
L108630952 96935952
" />
<path d="M109202380 96269285
L109202380 96078809
L109154761 95983571
L109107142 95935952
L108964285 95840714
L108773809 95793095
L108392857 95793095
L108297619 95840714
L108250000 95888333
L108202380 95983571
L108202380 96174047
L108250000 96269285
L108297619 96316904
L108392857 96364523
L108630952 96364523
L108726190 96316904
L108773809 96269285
L108821428 96174047
L108821428 95983571
L108773809 95888333
L108726190 95840714
L108630952 95793095
" />
<path d="M109202380 94602619
L108535714 94602619
" />
<path d="M108630952 94602619
L108583333 94555000
L108535714 94459761
L108535714 94316904
L108583333 94221666
L108678571 94174047
L109202380 94174047
" />
<path d="M108678571 94174047
L108583333 94126428
L108535714 94031190
L108535714 93888333
L108583333 93793095
L108678571 93745476
L109202380 93745476
" />
<path d="M109202380 93269285
L108535714 93269285
" />
<path d="M108630952 93269285
L108583333 93221666
L108535714 93126428
L108535714 92983571
L108583333 92888333
L108678571 92840714
L109202380 92840714
" />
<path d="M108678571 92840714
L108583333 92793095
L108535714 92697857
L108535714 92555000
L108583333 92459761
L108678571 92412142
L109202380 92412142
" />
</g></g>
<g style="fill:#000000; fill-opacity:0.0; 
stroke:#000000; stroke-width:200000.000000; stroke-opacity:1; 
stroke-linecap:round; stroke-linejoin:round;">
<path d="M116640000 91110000
L109413580 91110000
" />
</g>
<g style="fill:#000000; fill-opacity:1.0; 
stroke:#000000; stroke-width:1.000000; stroke-opacity:1; 
stroke-linecap:round; stroke-linejoin:round;">
<circle cx="110000000.000000" cy="100000000.000000" r="100000.000000" /> 
</g>
<g style="fill:#000000; fill-opacity:1.0; 
stroke:#000000; stroke-width:200000.000000; stroke-opacity:1; 
stroke-linecap:round; stroke-linejoin:round;">
</g>
<g style="fill:#000000; fill-opacity:0.0; 
stroke:#000000; stroke-width:200000.000000; stroke-opacity:1; 
stroke-linecap:round; stroke-linejoin:round;">
<path d="M110000000 91110000
L110000000 100000000
" />
<path d="M110000000 91110000
L110000000 100000000
" />
<path d="M110000000 91110000
L109422814 92218764
" />
<path d="M110000000 91110000
L110577186 92218764
" />
<path d="M110000000 100000000
L110577186 98891236
" />
<path d="M110000000 100000000
L109422814 98891236
" />
</g>
<g style="fill:#000000; fill-opacity:0.0; 
stroke:#000000; stroke-width:100000.000000; stroke-opacity:1; 
stroke-linecap:round; stroke-linejoin:round;">
<path d="M124600000 117000000
L155400000 117000000
" />
<path d="M155400000.000000 117000000.000000 A10000000.000000 10000000.000000 0.0 0 0 165400000.000000 107000000.000000" />
<path d="M124600000 83000000
L155400000 83000000
" />
<path d="M114600000.000000 107000000.000000 A10000000.000000 10000000.000000 0.0 0 0 124600000.000000 117000000.000000" />
<path d="M165400000 93000000
L165400000 107000000
" />
<path d="M114600000 93000000
L114600000 107000000
" />
<path d="M124600000.000000 83000000.000000 A10000000.000000 10000000.000000 0.0 0 0 114600000.000000 93000000.000000" />
<path d="M165400000.000000 93000000.000000 A10000000.000000 10000000.000000 0.0 0 0 155400000.000000 83000000.000000" />
</g>
<g style="fill:#000000; fill-opacity:0.0; 
stroke:#000000; stroke-width:200000.000000; stroke-opacity:1; 
stroke-linecap:round; stroke-linejoin:round;">
<path d="M175000000 100000000
L105000000 100000000
" />
<path d="M140000000 135000000
L140000000 65000000
" />
<path d="M162860000 107620000
L162860000 110160000
" />
<path d="M161590000 91110000
L164130000 91110000
" />
<path d="M161590000 108890000
L164130000 108890000
" />
<path d="M115870000 91110000
L118410000 91110000
" />
<path d="M117140000 107620000
L117140000 110160000
" />
<path d="M117140000 89840000
L117140000 92380000
" />
<path d="M115870000 108890000
L118410000 108890000
" />
<path d="M162860000 89840000
L162860000 92380000
" />
<circle cx="162860000.000000" cy="91110000.000000" r="1270000.000000" /> 
<circle cx="162860000.000000" cy="108890000.000000" r="1270000.000000" /> 
<circle cx="117140000.000000" cy="91110000.000000" r="1270000.000000" /> 
<circle cx="117140000.000000" cy="108890000.000000" r="1270000.000000" /> 
<path d="M144500000 115000000
L135500000 115000000
" />
<path d="M140000000 117250000
L140000000 113500000
" />
<path d="M144500000 117250000
L135500000 117250000
" />
<path d="M135500000 117250000
L135500000 113500000
" />
<path d="M135500000 113500000
L144500000 113500000
" />
<path d="M144500000 113500000
L144500000 117250000
" />
<path d="M138250000 85000000
L145750000 85000000
" />
<path d="M142000000 82750000
L142000000 86500000
" />
<path d="M138250000 82750000
L145750000 82750000
" />
<path d="M145750000 82750000
L145750000 86500000
" />
<path d="M145750000 86500000
L138250000 86500000
" />
<path d="M138250000 86500000
L138250000 82750000
" />
<path d="M133750000 115000000
L126250000 115000000
" />
<path d="M130000000 117250000
L130000000 113500000
" />
<path d="M133750000 117250000
L126250000 117250000
" />
<path d="M126250000 117250000
L126250000 113500000
" />
<path d="M126250000 113500000
L133750000 113500000
" />
<path d="M133750000 113500000
L133750000 117250000
" />
<path d="M153750000 115000000
L146250000 115000000
" />
<path d="M150000000 117250000
L150000000 113500000
" />
<path d="M153750000 117250000
L146250000 117250000
" />
<path d="M146250000 117250000
L146250000 113500000
" />
<path d="M146250000 113500000
L153750000 113500000
" />
<path d="M153750000 113500000
L153750000 117250000
" />
<path d="M148250000 85000000
L155750000 85000000
" />
<path d="M152000000 82750000
L152000000 86500000
" />
<path d="M148250000 82750000
L155750000 82750000
" />
<path d="M155750000 82750000
L155750000 86500000
" />
<path d="M155750000 86500000
L148250000 86500000
" />
<path d="M148250000 86500000
L148250000 82750000
" />
<path d="M132000000 82750000
L132000000 86500000
" />
<path d="M129000000 85000000
L135000000 85000000
" />
<path d="M129000000 82750000
L135000000 82750000
" />
<path d="M135000000 82750000
L135000000 86500000
" />
<path d="M135000000 86500000
L129000000 86500000
" />
<path d="M129000000 86500000
L129000000 82750000
" />
<g >
</g>
<g >
</g>
<g >
</g>
<g >
</g>
<g >
</g>
<g >
</g>
<g >
</g>
<g >
</g>
<g >
</g>
<g >
</g>
<g >
</g>
<g >
</g>
<g >
</g>
<g >
</g>
<g >
</g>
<g >
</g>
<g >
</g>
<g >
</g>
<g >
</g>
<g >
</g>
<g >
</g>
<g >
</g>
<g >
</g>
<g >
</g>
<g >
</g>
<g >
</g>
<g >
</g>
<g >
</g>
<g >
</g>
<g >
</g>
<g >
</g>
<g >
</g>
<g >
</g>
<g >
</g>
<g >
</g>
<g >
</g>
<g >
</g>
<g >
</g>
<g >
</g>
<g >
</g>
<g >
</g>
<g >
</g>
<g >
</g>
<g >
</g>
<g >
</g>
<g >
</g>
<g >
</g>
</g> 
</svg>
