<?xml version="1.0" encoding="utf-8"?>
<!-- Generator: Adobe Illustrator 15.1.0, SVG Export Plug-In  -->
<!DOCTYPE svg PUBLIC "-//W3C//DTD SVG 1.1//EN" "http://www.w3.org/Graphics/SVG/1.1/DTD/svg11.dtd" [
	<!ENTITY ns_flows "http://ns.adobe.com/Flows/1.0/">
]>
<svg version="1.1"
	 xmlns="http://www.w3.org/2000/svg" xmlns:xlink="http://www.w3.org/1999/xlink" xmlns:a="http://ns.adobe.com/AdobeSVGViewerExtensions/3.0/"
	 x="0px" y="0px" width="432px" height="288px" viewBox="-38.93 -7.43 432 288"
	 style="enable-background:new -38.93 -7.43 432 288;" xml:space="preserve">
<style type="text/css">
<![CDATA[
	.st0{fill:none;stroke:#231F20;stroke-width:0.6;stroke-miterlimit:10;}
	.st1{fill:none;stroke:#ED1C24;stroke-width:0.25;stroke-miterlimit:10;}
	.st2{fill:#FAE373;stroke:#231F20;stroke-width:0.5;stroke-miterlimit:10;}
	.st3{fill:#231F20;}
	.st4{fill:none;stroke:#231F20;stroke-width:0.5;stroke-miterlimit:10;}
	.st5{fill:none;stroke:#231F20;stroke-width:0.5;stroke-miterlimit:10;stroke-dasharray:5.6591,5.6591;}
	.st6{font-size:6;}
	.st7{fill:none;stroke:#231F20;stroke-width:0.75;stroke-linecap:round;stroke-linejoin:round;stroke-miterlimit:10;}
	.st8{fill:none;stroke:#231F20;stroke-width:0.5;stroke-miterlimit:10;stroke-dasharray:39.614,5.6591,5.6591,5.6591;}
	.st9{letter-spacing:-1;}
	.st10{letter-spacing:-2;}
	.st11{fill:none;stroke:#231F20;stroke-width:0.75;stroke-miterlimit:10;}
	.st12{font-family:'Helvetica';}
	.st13{font-size:10;}
	.st14{font-size:11;}
	.st15{font-size:18;}
	.st16{font-family:'MyriadPro-Bold';}
]]>
</style>
<defs>
</defs>
<path class="st2" d="M96.71,217.75c0-8.07-6.54-14.62-14.62-14.62c-8.07,0-14.62,6.55-14.62,14.62c0,8.08,6.55,14.62,14.62,14.62
	C90.16,232.37,96.71,225.83,96.71,217.75L96.71,217.75z"/>
<polyline class="st11" points="167.07,194.59 157.17,194.59 154.51,201.89 148.67,201.89 146.02,194.59 110.83,194.59 
	108.18,201.89 102.34,201.89 99.68,194.59 64.5,194.59 61.84,201.89 58.92,201.89 58.92,233.62 61.84,233.62 64.5,240.92 
	99.68,240.92 102.34,233.62 108.18,233.62 110.83,240.92 146.02,240.92 148.67,233.62 154.51,233.62 157.17,240.92 167.07,240.92 
	"/>
<polyline class="st11" points="185.07,194.59 194.9,194.59 197.55,201.89 203.39,201.89 206.05,194.59 241.23,194.59 243.89,201.89 
	249.73,201.89 252.38,194.59 287.57,194.59 290.22,201.89 293.14,201.89 293.14,233.62 290.22,233.62 287.57,240.92 252.38,240.92 
	249.73,233.62 243.89,233.62 241.23,240.92 206.05,240.92 203.39,233.62 197.55,233.62 194.9,240.92 185.07,240.92 "/>
<path class="st4" d="M95.76,217.75c0-7.55-6.12-13.67-13.67-13.67c-7.55,0-13.67,6.12-13.67,13.67c0,7.55,6.12,13.67,13.67,13.67
	C89.64,231.42,95.76,225.3,95.76,217.75L95.76,217.75z"/>
<polyline class="st11" points="167.07,250.51 167.07,224.33 159.17,224.33 174.97,208.53 167.07,208.53 167.07,182.35 "/>
<polyline class="st11" points="185.07,250.51 185.07,224.33 177.17,224.33 192.97,208.53 185.07,208.53 185.07,182.35 "/>
<path class="st4" d="M93.68,217.75c0-6.4-5.19-11.58-11.59-11.58c-6.4,0-11.59,5.18-11.59,11.58c0,6.4,5.19,11.59,11.59,11.59
	C88.49,229.34,93.68,224.15,93.68,217.75L93.68,217.75z"/>
<path class="st4" d="M92.28,217.75c0-5.63-4.57-10.2-10.2-10.2c-5.63,0-10.2,4.57-10.2,10.2c0,5.63,4.56,10.2,10.2,10.2
	C87.72,227.95,92.28,223.38,92.28,217.75L92.28,217.75z"/>
<path class="st2" d="M143.04,217.75c0-8.07-6.54-14.62-14.62-14.62c-8.07,0-14.62,6.55-14.62,14.62c0,8.08,6.55,14.62,14.62,14.62
	C136.5,232.37,143.04,225.83,143.04,217.75L143.04,217.75z"/>
<path class="st4" d="M142.1,217.75c0-7.55-6.12-13.67-13.67-13.67c-7.55,0-13.67,6.12-13.67,13.67c0,7.55,6.12,13.67,13.67,13.67
	C135.97,231.42,142.1,225.3,142.1,217.75L142.1,217.75z"/>
<path class="st4" d="M140.01,217.75c0-6.4-5.19-11.58-11.59-11.58c-6.4,0-11.59,5.18-11.59,11.58c0,6.4,5.19,11.59,11.59,11.59
	C134.82,229.34,140.01,224.15,140.01,217.75L140.01,217.75z"/>
<path class="st4" d="M138.62,217.75c0-5.63-4.57-10.2-10.2-10.2c-5.63,0-10.2,4.57-10.2,10.2c0,5.63,4.56,10.2,10.2,10.2
	C134.06,227.95,138.62,223.38,138.62,217.75L138.62,217.75z"/>
<path class="st2" d="M238.26,217.75c0-8.07-6.54-14.62-14.62-14.62c-8.07,0-14.62,6.55-14.62,14.62c0,8.08,6.54,14.62,14.62,14.62
	C231.71,232.37,238.26,225.83,238.26,217.75L238.26,217.75z"/>
<path class="st4" d="M237.31,217.75c0-7.55-6.12-13.67-13.67-13.67c-7.55,0-13.67,6.12-13.67,13.67c0,7.55,6.12,13.67,13.67,13.67
	C231.19,231.42,237.31,225.3,237.31,217.75L237.31,217.75z"/>
<path class="st4" d="M235.22,217.75c0-6.4-5.19-11.58-11.59-11.58c-6.4,0-11.59,5.18-11.59,11.58c0,6.4,5.19,11.59,11.59,11.59
	C230.04,229.34,235.22,224.15,235.22,217.75L235.22,217.75z"/>
<path class="st4" d="M233.83,217.75c0-5.63-4.57-10.2-10.2-10.2c-5.63,0-10.2,4.57-10.2,10.2c0,5.63,4.56,10.2,10.2,10.2
	C229.27,227.95,233.83,223.38,233.83,217.75L233.83,217.75z"/>
<path class="st2" d="M284.59,217.75c0-8.07-6.54-14.62-14.62-14.62c-8.07,0-14.62,6.55-14.62,14.62c0,8.08,6.54,14.62,14.62,14.62
	C278.05,232.37,284.59,225.83,284.59,217.75L284.59,217.75z"/>
<path class="st4" d="M283.64,217.75c0-7.55-6.12-13.67-13.67-13.67c-7.55,0-13.67,6.12-13.67,13.67c0,7.55,6.12,13.67,13.67,13.67
	C277.52,231.42,283.64,225.3,283.64,217.75L283.64,217.75z"/>
<path class="st4" d="M281.56,217.75c0-6.4-5.19-11.58-11.59-11.58c-6.4,0-11.59,5.18-11.59,11.58c0,6.4,5.19,11.59,11.59,11.59
	C276.37,229.34,281.56,224.15,281.56,217.75L281.56,217.75z"/>
<path class="st4" d="M280.17,217.75c0-5.63-4.57-10.2-10.2-10.2c-5.63,0-10.2,4.57-10.2,10.2c0,5.63,4.56,10.2,10.2,10.2
	C275.6,227.95,280.17,223.38,280.17,217.75L280.17,217.75z"/>
<polygon class="st3" points="114.25,76.22 117.05,74.61 120.5,83.81 "/>
<polyline class="st4" points="116.34,76.62 102.16,52.04 102.08,52.04 83.38,52.04 "/>
<polyline class="st0" points="98.11,129.56 97.59,130.08 97.06,130.88 96.53,131.94 96.26,133.26 96.26,134.32 96.53,135.64 
	97.06,136.7 97.59,137.49 98.11,138.01 "/>
<line class="st0" x1="101.81" y1="130.62" x2="101.81" y2="136.17"/>
<line class="st0" x1="99.96" y1="130.62" x2="103.66" y2="130.62"/>
<polyline class="st0" points="104.72,130.62 106.83,133.26 108.94,130.62 "/>
<line class="st0" x1="106.83" y1="133.26" x2="106.83" y2="136.17"/>
<polyline class="st0" points="110,136.17 110,130.62 112.38,130.62 113.17,130.88 113.43,131.15 113.7,131.67 113.7,132.46 
	113.43,133 113.17,133.26 112.38,133.53 110,133.53 "/>
<polyline class="st0" points="115.54,129.56 116.08,130.08 116.61,130.88 117.13,131.94 117.39,133.26 117.39,134.32 117.13,135.64 
	116.61,136.7 116.08,137.49 115.54,138.01 "/>
<polygon class="st3" points="140.73,153.33 140.73,150.1 131.04,151.72 "/>
<line class="st4" x1="139.73" y1="151.72" x2="150.43" y2="151.72"/>
<polygon class="st3" points="72.17,153.33 72.17,150.1 81.87,151.72 "/>
<line class="st4" x1="73.17" y1="151.72" x2="62.47" y2="151.72"/>
<g>
	<g>
		<line class="st4" x1="94.7" y1="101.34" x2="112.2" y2="101.34"/>
		<line class="st5" x1="117.85" y1="101.34" x2="126.34" y2="101.34"/>
		<line class="st8" x1="129.17" y1="101.34" x2="239.53" y2="101.34"/>
		<line class="st4" x1="242.36" y1="101.34" x2="259.86" y2="101.34"/>
	</g>
</g>
<line class="st4" x1="130.85" y1="93.76" x2="130.85" y2="108.92"/>
<polyline class="st11" points="167.07,135.51 167.07,109.33 159.17,109.33 174.97,93.53 167.07,93.53 167.07,67.35 "/>
<polyline class="st11" points="185.07,135.51 185.07,109.33 177.17,109.33 192.97,93.53 185.07,93.53 185.07,67.35 "/>
<line class="st4" x1="82.12" y1="113.92" x2="82.12" y2="157.72"/>
<line class="st4" x1="130.85" y1="113.92" x2="130.85" y2="157.72"/>
<line class="st4" x1="28.81" y1="207.87" x2="28.81" y2="198.17"/>
<line class="st4" x1="28.81" y1="250.88" x2="28.81" y2="260.57"/>
<polygon class="st3" points="27.2,207.87 30.43,207.87 28.81,217.56 "/>
<polygon class="st3" points="27.2,250.88 30.43,250.88 28.81,241.18 "/>
<line class="st4" x1="328.35" y1="184.66" x2="328.35" y2="174.97"/>
<polygon class="st3" points="326.73,184.66 329.96,184.66 328.35,194.36 "/>
<line class="st4" x1="328.35" y1="250.85" x2="328.35" y2="260.54"/>
<polygon class="st3" points="326.73,250.85 329.96,250.85 328.35,241.15 "/>
<line class="st4" x1="292.57" y1="240.92" x2="334.37" y2="240.92"/>
<line class="st4" x1="292.57" y1="194.59" x2="334.38" y2="194.59"/>
<line class="st4" x1="82.09" y1="217.75" x2="22.81" y2="217.75"/>
<g>
	<path class="st3" d="M19.24,36.1c0.66,0.85,0.9,1.94,0.9,2.83c0,1.71-0.9,4.16-3.85,4.16c-1.16,0-2-0.38-2.6-0.96l-0.88,0.96
		l-0.35-0.31l0.91-0.99c-0.68-0.85-0.94-1.96-0.94-2.86c0-1.71,0.9-4.16,3.85-4.16c1.19,0,2.05,0.4,2.63,0.98l0.89-0.98l0.34,0.33
		L19.24,36.1z M18.22,36.52c-0.46-0.51-1.12-0.8-1.93-0.8c-1.72,0-2.75,1.35-2.75,3.21c0,0.8,0.2,1.51,0.56,2.07L18.22,36.52z
		 M14.4,41.36c0.46,0.5,1.1,0.78,1.89,0.78c1.72,0,2.75-1.35,2.75-3.21c0-0.79-0.19-1.5-0.54-2.02L14.4,41.36z"/>
	<path class="st3" d="M24.34,42.87H23.2v-1.17h1.14V42.87z"/>
	<path class="st3" d="M28.35,43.08c-2.22,0-2.65-2.37-2.65-3.97c0-1.61,0.43-3.97,2.65-3.97c2.22,0,2.65,2.37,2.65,3.97
		C31.01,40.72,30.58,43.08,28.35,43.08z M28.35,36.01c-1.11,0-1.62,1.17-1.62,3.1c0,1.94,0.51,3.1,1.62,3.1
		c1.11,0,1.62-1.17,1.62-3.1C29.97,37.18,29.47,36.01,28.35,36.01z"/>
	<path class="st3" d="M35.83,38.76c1.04,0.44,1.27,1.3,1.27,1.88c0,1.24-0.79,2.44-2.62,2.44c-0.43,0-1.24-0.11-1.86-0.59
		c-0.79-0.63-0.79-1.46-0.79-1.84c0-0.95,0.5-1.55,1.31-1.88c-0.66-0.25-1.04-0.78-1.04-1.51c0-0.8,0.5-2.12,2.34-2.12
		c1.72,0,2.39,1.09,2.39,1.99C36.82,38.24,36.18,38.58,35.83,38.76z M32.86,40.67c0,0.62,0.31,1.54,1.65,1.54
		c0.7,0,1.55-0.25,1.55-1.46c0-1.04-0.73-1.51-1.61-1.51C33.37,39.24,32.86,39.96,32.86,40.67z M35.82,37.16
		c0-0.47-0.31-1.16-1.44-1.16c-1.03,0-1.29,0.72-1.29,1.21c0,0.74,0.65,1.19,1.35,1.19C35.28,38.41,35.82,37.87,35.82,37.16z"/>
	<path class="st3" d="M38.01,37.91c0-2.52,1.84-2.77,2.67-2.77c1.34,0,2.42,0.87,2.42,2.31c0,1.39-0.91,1.97-2.07,2.59l-0.8,0.44
		c-1.06,0.58-1.29,1.19-1.33,1.49h4.2v0.91h-5.29c0.05-1.61,0.78-2.46,1.81-3.07l1.02-0.59c0.83-0.47,1.42-0.79,1.42-1.8
		c0-0.62-0.4-1.4-1.53-1.4c-1.46,0-1.53,1.36-1.56,1.9H38.01z"/>
	<path class="st3" d="M48.26,44.25h1.19v0.78H47.4v-10.1h2.06v0.78h-1.19V44.25z"/>
	<path class="st3" d="M50.24,37.91c0-2.52,1.84-2.77,2.67-2.77c1.34,0,2.42,0.87,2.42,2.31c0,1.39-0.91,1.97-2.07,2.59l-0.8,0.44
		c-1.06,0.58-1.29,1.19-1.33,1.49h4.2v0.91h-5.29c0.05-1.61,0.78-2.46,1.81-3.07l1.02-0.59c0.83-0.47,1.42-0.79,1.42-1.8
		c0-0.62-0.4-1.4-1.53-1.4c-1.46,0-1.53,1.36-1.56,1.9H50.24z"/>
	<path class="st3" d="M56.83,41.71h1.14v1.08c0,1.5-0.92,1.67-1.14,1.71v-0.51c0.46-0.04,0.58-0.59,0.58-1.11h-0.58V41.71z"/>
	<path class="st3" d="M61.99,43.08c-2.22,0-2.65-2.37-2.65-3.97c0-1.61,0.43-3.97,2.65-3.97c2.22,0,2.65,2.37,2.65,3.97
		C64.64,40.72,64.21,43.08,61.99,43.08z M61.99,36.01c-1.11,0-1.62,1.17-1.62,3.1c0,1.94,0.51,3.1,1.62,3.1
		c1.11,0,1.62-1.17,1.62-3.1C63.61,37.18,63.1,36.01,61.99,36.01z"/>
	<path class="st3" d="M69.47,38.76c1.04,0.44,1.27,1.3,1.27,1.88c0,1.24-0.79,2.44-2.62,2.44c-0.43,0-1.24-0.11-1.86-0.59
		c-0.79-0.63-0.79-1.46-0.79-1.84c0-0.95,0.5-1.55,1.31-1.88c-0.66-0.25-1.04-0.78-1.04-1.51c0-0.8,0.5-2.12,2.34-2.12
		c1.72,0,2.39,1.09,2.39,1.99C70.46,38.24,69.81,38.58,69.47,38.76z M66.5,40.67c0,0.62,0.31,1.54,1.65,1.54
		c0.7,0,1.55-0.25,1.55-1.46c0-1.04-0.73-1.51-1.61-1.51C67.01,39.24,66.5,39.96,66.5,40.67z M69.46,37.16
		c0-0.47-0.31-1.16-1.44-1.16c-1.03,0-1.29,0.72-1.29,1.21c0,0.74,0.65,1.19,1.35,1.19C68.92,38.41,69.46,37.87,69.46,37.16z"/>
	<path class="st3" d="M72.66,35.71h-1.19v-0.78h2.06v10.1h-2.06v-0.78h1.19V35.71z"/>
	<path class="st3" d="M14.18,50.49c-0.05-1.22-1.07-1.61-1.96-1.61c-0.67,0-1.8,0.19-1.8,1.39c0,0.67,0.47,0.89,0.94,1l2.26,0.52
		c1.02,0.24,1.79,0.86,1.79,2.11c0,1.87-1.74,2.39-3.09,2.39c-1.46,0-2.04-0.44-2.39-0.76c-0.67-0.6-0.8-1.27-0.8-2h1
		c0,1.43,1.17,1.85,2.18,1.85c0.77,0,2.07-0.2,2.07-1.33c0-0.83-0.38-1.09-1.68-1.4l-1.62-0.37c-0.52-0.12-1.68-0.48-1.68-1.86
		c0-1.23,0.8-2.44,2.72-2.44c2.76,0,3.04,1.65,3.08,2.52H14.18z"/>
	<path class="st3" d="M23.01,48.18v5.13c0,1.62-1.01,2.98-3.18,2.98c-2.12,0-3.04-1.36-3.04-2.84v-5.27h1.07v4.97
		c0,1.72,1.05,2.19,2,2.19c0.98,0,2.08-0.45,2.08-2.17v-4.99H23.01z"/>
	<path class="st3" d="M28.14,51.85h3.47v4.22h-0.69l-0.25-1.02c-0.54,0.75-1.53,1.23-2.61,1.23c-1.35,0-2.01-0.5-2.42-0.89
		c-1.21-1.14-1.24-2.5-1.24-3.33c0-1.93,1.17-4.09,3.74-4.09c1.47,0,3.11,0.84,3.34,2.61h-1.03c-0.34-1.38-1.5-1.66-2.37-1.66
		c-1.42,0-2.58,1.13-2.58,3.2c0,1.61,0.53,3.26,2.63,3.26c0.4,0,1.03-0.04,1.62-0.51c0.69-0.55,0.87-1.25,0.87-2.1h-2.46V51.85z"/>
	<path class="st3" d="M36.7,51.85h3.47v4.22h-0.69l-0.25-1.02c-0.54,0.75-1.53,1.23-2.61,1.23c-1.35,0-2.01-0.5-2.42-0.89
		c-1.21-1.14-1.24-2.5-1.24-3.33c0-1.93,1.17-4.09,3.74-4.09c1.47,0,3.11,0.84,3.34,2.61H39c-0.34-1.38-1.5-1.66-2.37-1.66
		c-1.42,0-2.58,1.13-2.58,3.2c0,1.61,0.53,3.26,2.63,3.26c0.4,0,1.03-0.04,1.62-0.51c0.69-0.55,0.87-1.25,0.87-2.1H36.7V51.85z"/>
	<path class="st3" d="M47.76,56.07h-5.83v-7.9h5.75v0.95h-4.69v2.42h4.32v0.95h-4.32v2.64h4.76V56.07z"/>
	<path class="st3" d="M53.92,50.49c-0.05-1.22-1.07-1.61-1.96-1.61c-0.67,0-1.8,0.19-1.8,1.39c0,0.67,0.47,0.89,0.94,1l2.26,0.52
		c1.02,0.24,1.79,0.86,1.79,2.11c0,1.87-1.74,2.39-3.09,2.39c-1.46,0-2.04-0.44-2.39-0.76c-0.67-0.6-0.8-1.27-0.8-2h1
		c0,1.43,1.17,1.85,2.18,1.85c0.77,0,2.07-0.2,2.07-1.33c0-0.83-0.38-1.09-1.68-1.4l-1.62-0.37c-0.52-0.12-1.68-0.48-1.68-1.86
		c0-1.23,0.8-2.44,2.72-2.44c2.76,0,3.04,1.65,3.08,2.52H53.92z"/>
	<path class="st3" d="M55.81,48.18h6.41v0.95h-2.67v6.95h-1.07v-6.95h-2.67V48.18z"/>
	<path class="st3" d="M69.15,56.07h-5.83v-7.9h5.75v0.95h-4.69v2.42h4.32v0.95h-4.32v2.64h4.76V56.07z"/>
	<path class="st3" d="M70.6,48.18h3.2c2.06,0,3.32,1.56,3.32,3.84c0,1.77-0.77,4.06-3.37,4.06H70.6V48.18z M71.67,55.16h2.07
		c1.39,0,2.29-1.09,2.29-3.08s-0.91-2.99-2.37-2.99h-1.99V55.16z"/>
	<path class="st3" d="M20.73,69.27h-1.07v-7.9h3.55c1.46,0,2.34,0.95,2.34,2.22c0,1.1-0.63,2.34-2.34,2.34h-2.49V69.27z
		 M20.73,65.03h2.12c0.96,0,1.61-0.35,1.61-1.42c0-1-0.68-1.32-1.56-1.32h-2.17V65.03z"/>
	<path class="st3" d="M26.81,66.98l-0.82,2.3h-1.1l2.97-7.9h1.21l2.86,7.9h-1.17l-0.78-2.3H26.81z M29.59,66.03l-1.17-3.48h-0.02
		l-1.27,3.48H29.59z"/>
	<path class="st3" d="M32.96,61.38h3.2c2.06,0,3.32,1.56,3.32,3.84c0,1.77-0.77,4.06-3.37,4.06h-3.16V61.38z M34.03,68.36h2.07
		c1.39,0,2.29-1.09,2.29-3.08s-0.91-2.99-2.37-2.99h-1.99V68.36z"/>
	<path class="st3" d="M48.67,63.69c-0.05-1.22-1.07-1.61-1.96-1.61c-0.67,0-1.8,0.19-1.8,1.39c0,0.67,0.47,0.89,0.94,1l2.26,0.52
		c1.02,0.24,1.79,0.86,1.79,2.11c0,1.87-1.74,2.39-3.09,2.39c-1.46,0-2.04-0.44-2.39-0.76c-0.67-0.6-0.8-1.27-0.8-2h1
		c0,1.43,1.17,1.85,2.18,1.85c0.77,0,2.07-0.2,2.07-1.33c0-0.83-0.38-1.09-1.68-1.4l-1.62-0.37c-0.52-0.12-1.68-0.48-1.68-1.86
		c0-1.23,0.8-2.44,2.72-2.44c2.76,0,3.04,1.65,3.08,2.52H48.67z"/>
	<path class="st3" d="M52.47,69.27h-1.07v-7.9h1.07V69.27z"/>
	<path class="st3" d="M59.93,69.27h-6.22v-0.89l4.84-6.06h-4.48v-0.95h5.85v0.92l-4.86,6.03h4.86V69.27z"/>
	<path class="st3" d="M66.96,69.27h-5.83v-7.9h5.75v0.95H62.2v2.42h4.32v0.95H62.2v2.64h4.76V69.27z"/>
</g>
<line class="st4" x1="59.5" y1="240.92" x2="22.81" y2="240.92"/>
<path class="st7" d="M150.83,101.34c0-11.04-8.95-19.98-19.98-19.98s-19.98,8.95-19.98,19.98s8.95,19.98,19.98,19.98
	S150.83,112.38,150.83,101.34L150.83,101.34z"/>
<line class="st4" x1="223.66" y1="93.76" x2="223.66" y2="108.92"/>
<path class="st7" d="M203.67,101.34c0-11.04,8.95-19.98,19.98-19.98c11.04,0,19.98,8.95,19.98,19.98s-8.95,19.98-19.98,19.98
	C212.62,121.32,203.67,112.38,203.67,101.34L203.67,101.34z"/>
<g>
	<path class="st3" d="M2.1,231.82H0.96v-1.17H2.1V231.82z"/>
	<path class="st3" d="M6.12,232.03c-2.22,0-2.65-2.37-2.65-3.97c0-1.61,0.43-3.97,2.65-3.97c2.22,0,2.65,2.37,2.65,3.97
		C8.77,229.66,8.34,232.03,6.12,232.03z M6.12,224.95c-1.11,0-1.62,1.17-1.62,3.1c0,1.94,0.51,3.1,1.62,3.1
		c1.11,0,1.62-1.17,1.62-3.1C7.73,226.12,7.23,224.95,6.12,224.95z"/>
	<path class="st3" d="M10.79,227.32c0.33-0.25,0.8-0.48,1.5-0.48c1.25,0,2.54,0.88,2.54,2.48c0,0.86-0.39,2.72-2.81,2.72
		c-1.01,0-2.31-0.41-2.5-2.13h1c0.1,0.9,0.77,1.3,1.64,1.3c1,0,1.63-0.8,1.63-1.77c0-1.11-0.76-1.72-1.72-1.72
		c-0.56,0-1.07,0.26-1.43,0.74l-0.84-0.04l0.58-4.15h4v0.95h-3.28L10.79,227.32z"/>
	<path class="st3" d="M18.35,232.03c-2.22,0-2.65-2.37-2.65-3.97c0-1.61,0.43-3.97,2.65-3.97c2.22,0,2.65,2.37,2.65,3.97
		C21,229.66,20.57,232.03,18.35,232.03z M18.35,224.95c-1.11,0-1.62,1.17-1.62,3.1c0,1.94,0.51,3.1,1.62,3.1
		c1.11,0,1.62-1.17,1.62-3.1C19.97,226.12,19.46,224.95,18.35,224.95z"/>
	<path class="st3" d="M25.75,233.19h1.19v0.78h-2.06v-10.1h2.06v0.78h-1.19V233.19z"/>
	<path class="st3" d="M31.19,231.82h-1.03v-5.49h-1.8v-0.77c1.25-0.09,1.77-0.21,2.08-1.47h0.76V231.82z"/>
	<path class="st3" d="M34.32,230.65h1.14v1.08c0,1.5-0.92,1.67-1.14,1.71v-0.51c0.46-0.04,0.58-0.59,0.58-1.11h-0.58V230.65z"/>
	<path class="st3" d="M36.9,226.86c0-2.52,1.84-2.77,2.67-2.77c1.34,0,2.42,0.87,2.42,2.31c0,1.39-0.91,1.97-2.07,2.59l-0.8,0.44
		c-1.06,0.58-1.29,1.19-1.33,1.49H42v0.91H36.7c0.05-1.61,0.78-2.46,1.81-3.07l1.02-0.59c0.83-0.47,1.42-0.79,1.42-1.8
		c0-0.62-0.4-1.4-1.53-1.4c-1.46,0-1.53,1.36-1.56,1.9H36.9z"/>
	<path class="st3" d="M42.94,224.25h5.35v0.85c-0.77,0.8-2.62,3.27-3.18,6.72h-1.07c0.26-2.12,1.67-4.89,3.16-6.62h-4.26V224.25z"/>
	<path class="st3" d="M50.15,224.65h-1.19v-0.78h2.06v10.1h-2.06v-0.78h1.19V224.65z"/>
</g>
<g>
	<path class="st3" d="M302.96,220.39h-1.14v-1.17h1.14V220.39z"/>
	<path class="st3" d="M307.87,220.39h-1.04v-5.49h-1.8v-0.77c1.25-0.09,1.77-0.21,2.08-1.47h0.76V220.39z"/>
	<path class="st3" d="M313.09,220.6c-2.22,0-2.65-2.37-2.65-3.97c0-1.61,0.43-3.97,2.65-3.97c2.22,0,2.65,2.37,2.65,3.97
		C315.74,218.23,315.32,220.6,313.09,220.6z M313.09,213.52c-1.11,0-1.62,1.17-1.62,3.1c0,1.94,0.51,3.1,1.62,3.1
		c1.11,0,1.62-1.17,1.62-3.1C314.71,214.69,314.2,213.52,313.09,213.52z"/>
	<path class="st3" d="M319.21,220.6c-2.22,0-2.65-2.37-2.65-3.97c0-1.61,0.43-3.97,2.65-3.97s2.65,2.37,2.65,3.97
		C321.86,218.23,321.43,220.6,319.21,220.6z M319.21,213.52c-1.11,0-1.62,1.17-1.62,3.1c0,1.94,0.51,3.1,1.62,3.1
		s1.62-1.17,1.62-3.1C320.83,214.69,320.32,213.52,319.21,213.52z"/>
	<path class="st3" d="M326.61,221.76h1.19v0.78h-2.06v-10.1h2.06v0.78h-1.19V221.76z"/>
	<path class="st3" d="M328.59,215.43c0-2.52,1.84-2.77,2.67-2.77c1.34,0,2.42,0.87,2.42,2.31c0,1.39-0.91,1.97-2.07,2.59l-0.8,0.44
		c-1.06,0.58-1.29,1.19-1.33,1.49h4.2v0.91h-5.29c0.05-1.61,0.78-2.46,1.82-3.07l1.02-0.59c0.83-0.47,1.42-0.79,1.42-1.8
		c0-0.62-0.4-1.4-1.53-1.4c-1.46,0-1.53,1.36-1.56,1.9H328.59z"/>
	<path class="st3" d="M335.18,219.22h1.14v1.08c0,1.5-0.92,1.67-1.14,1.71v-0.51c0.46-0.04,0.58-0.59,0.58-1.11h-0.58V219.22z"/>
	<path class="st3" d="M338.9,215.89c0.33-0.25,0.8-0.48,1.5-0.48c1.25,0,2.54,0.88,2.54,2.48c0,0.86-0.38,2.72-2.8,2.72
		c-1.01,0-2.31-0.41-2.5-2.13h1c0.1,0.9,0.77,1.3,1.64,1.3c1,0,1.63-0.8,1.63-1.77c0-1.11-0.76-1.72-1.72-1.72
		c-0.56,0-1.07,0.26-1.43,0.74l-0.84-0.04l0.58-4.15h4v0.95h-3.28L338.9,215.89z"/>
	<path class="st3" d="M348.02,218.51v1.88h-0.97v-1.88h-3.38v-0.95l3.54-4.91h0.8v5.02h1.13v0.84H348.02z M344.56,217.67h2.49v-3.51
		h-0.02L344.56,217.67z"/>
	<path class="st3" d="M351.01,213.23h-1.19v-0.78h2.06v10.1h-2.06v-0.78h1.19V213.23z"/>
</g>
<g>
	<path class="st3" d="M94.27,149.89h1.19v0.78H93.4v-10.1h2.06v0.78h-1.19V149.89z"/>
	<path class="st3" d="M96.25,143.56c0-2.52,1.84-2.77,2.67-2.77c1.34,0,2.42,0.87,2.42,2.31c0,1.39-0.91,1.97-2.07,2.58l-0.8,0.44
		c-1.06,0.58-1.29,1.19-1.33,1.48h4.2v0.91h-5.29c0.05-1.61,0.78-2.46,1.81-3.07l1.02-0.59c0.83-0.47,1.42-0.79,1.42-1.8
		c0-0.62-0.4-1.4-1.53-1.4c-1.46,0-1.53,1.36-1.56,1.9H96.25z"/>
	<path class="st3" d="M102.84,147.35h1.14v1.08c0,1.5-0.92,1.67-1.14,1.71v-0.51c0.46-0.04,0.58-0.59,0.58-1.11h-0.58V147.35z"/>
	<path class="st3" d="M106.55,144.02c0.33-0.25,0.8-0.48,1.5-0.48c1.25,0,2.54,0.88,2.54,2.48c0,0.86-0.39,2.72-2.81,2.72
		c-1.01,0-2.31-0.41-2.5-2.13h1c0.1,0.9,0.77,1.3,1.64,1.3c1,0,1.63-0.8,1.63-1.77c0-1.11-0.76-1.72-1.72-1.72
		c-0.56,0-1.07,0.26-1.43,0.74l-0.84-0.04l0.58-4.15h4v0.95h-3.28L106.55,144.02z"/>
	<path class="st3" d="M115.67,146.64v1.88h-0.97v-1.88h-3.38v-0.95l3.54-4.91h0.8v5.02h1.13v0.84H115.67z M112.22,145.8h2.49v-3.51
		h-0.02L112.22,145.8z"/>
	<path class="st3" d="M118.66,141.36h-1.19v-0.78h2.06v10.1h-2.06v-0.78h1.19V141.36z"/>
	<path class="st3" d="M97.86,161.72h-1.14v-1.17h1.14V161.72z"/>
	<path class="st3" d="M102.77,161.72h-1.03v-5.49h-1.8v-0.77c1.25-0.09,1.77-0.21,2.08-1.47h0.76V161.72z"/>
	<path class="st3" d="M108,161.93c-2.22,0-2.65-2.37-2.65-3.97c0-1.61,0.43-3.97,2.65-3.97c2.22,0,2.65,2.37,2.65,3.97
		C110.65,159.56,110.22,161.93,108,161.93z M108,154.85c-1.11,0-1.62,1.17-1.62,3.1c0,1.94,0.51,3.1,1.62,3.1
		c1.11,0,1.62-1.17,1.62-3.1C109.61,156.02,109.11,154.85,108,154.85z"/>
	<path class="st3" d="M114.11,161.93c-2.22,0-2.65-2.37-2.65-3.97c0-1.61,0.43-3.97,2.65-3.97c2.22,0,2.65,2.37,2.65,3.97
		C116.76,159.56,116.33,161.93,114.11,161.93z M114.11,154.85c-1.11,0-1.62,1.17-1.62,3.1c0,1.94,0.51,3.1,1.62,3.1
		c1.11,0,1.62-1.17,1.62-3.1C115.73,156.02,115.22,154.85,114.11,154.85z"/>
</g>
<g>
	<path class="st3" d="M75.55,12.24C76.27,12.62,77.42,13,78.6,13c1.26,0,1.93-0.52,1.93-1.31c0-0.76-0.58-1.19-2.03-1.69
		c-2.02-0.72-3.35-1.84-3.35-3.6c0-2.07,1.75-3.64,4.59-3.64c1.39,0,2.38,0.27,3.1,0.61l-0.61,2.2c-0.47-0.23-1.35-0.58-2.52-0.58
		c-1.19,0-1.76,0.56-1.76,1.17c0,0.77,0.67,1.12,2.25,1.71c2.14,0.79,3.13,1.91,3.13,3.62c0,2.03-1.55,3.76-4.88,3.76
		c-1.39,0-2.75-0.38-3.44-0.76L75.55,12.24z"/>
	<path class="st3" d="M93.39,12.24c0,1.15,0.04,2.09,0.07,2.83h-2.38l-0.13-1.24h-0.05c-0.34,0.54-1.17,1.44-2.75,1.44
		c-1.8,0-3.1-1.12-3.1-3.84V6.26h2.74V11c0,1.28,0.41,2.05,1.39,2.05c0.76,0,1.21-0.52,1.37-0.95c0.07-0.16,0.11-0.36,0.11-0.59
		V6.26h2.74V12.24z"/>
	<path class="st3" d="M103.92,13.79c0,1.69-0.34,3.08-1.35,3.96c-0.95,0.83-2.27,1.08-3.56,1.08c-1.17,0-2.38-0.23-3.17-0.67
		l0.54-2.09c0.56,0.32,1.51,0.67,2.56,0.67c1.3,0,2.29-0.68,2.29-2.32v-0.56h-0.04c-0.52,0.72-1.37,1.13-2.38,1.13
		c-2.18,0-3.73-1.76-3.73-4.29c0-2.84,1.82-4.65,4-4.65c1.21,0,1.96,0.52,2.41,1.26h0.04l0.09-1.06h2.38
		c-0.04,0.58-0.07,1.31-0.07,2.63V13.79z M101.19,9.84c0-0.16-0.02-0.34-0.05-0.5c-0.2-0.72-0.72-1.21-1.48-1.21
		c-1.01,0-1.8,0.9-1.8,2.5c0,1.31,0.65,2.34,1.78,2.34c0.72,0,1.28-0.47,1.46-1.1c0.07-0.22,0.09-0.5,0.09-0.74V9.84z"/>
	<path class="st3" d="M114.45,13.79c0,1.69-0.34,3.08-1.35,3.96c-0.95,0.83-2.27,1.08-3.56,1.08c-1.17,0-2.38-0.23-3.17-0.67
		l0.54-2.09c0.56,0.32,1.51,0.67,2.56,0.67c1.3,0,2.29-0.68,2.29-2.32v-0.56h-0.04c-0.52,0.72-1.37,1.13-2.38,1.13
		c-2.18,0-3.73-1.76-3.73-4.29c0-2.84,1.82-4.65,4-4.65c1.21,0,1.96,0.52,2.41,1.26h0.04l0.09-1.06h2.38
		c-0.04,0.58-0.07,1.31-0.07,2.63V13.79z M111.72,9.84c0-0.16-0.02-0.34-0.05-0.5c-0.2-0.72-0.72-1.21-1.48-1.21
		c-1.01,0-1.8,0.9-1.8,2.5c0,1.31,0.65,2.34,1.78,2.34c0.72,0,1.28-0.47,1.46-1.1c0.07-0.22,0.09-0.5,0.09-0.74V9.84z"/>
	<path class="st3" d="M118.75,11.54c0.07,1.13,1.21,1.67,2.48,1.67c0.94,0,1.69-0.13,2.43-0.38l0.36,1.85
		c-0.9,0.38-2,0.56-3.19,0.56c-2.99,0-4.7-1.73-4.7-4.48c0-2.23,1.39-4.7,4.45-4.7c2.84,0,3.93,2.21,3.93,4.39
		c0,0.47-0.05,0.88-0.09,1.08H118.75z M121.98,9.66c0-0.67-0.29-1.78-1.55-1.78c-1.15,0-1.62,1.06-1.69,1.78H121.98z"/>
	<path class="st3" d="M126.13,12.69c0.5,0.31,1.55,0.65,2.36,0.65c0.83,0,1.17-0.27,1.17-0.72c0-0.47-0.27-0.68-1.28-1.03
		c-1.84-0.61-2.54-1.6-2.52-2.65c0-1.66,1.4-2.9,3.58-2.9c1.03,0,1.93,0.25,2.47,0.52l-0.47,1.89c-0.4-0.22-1.17-0.5-1.91-0.5
		c-0.67,0-1.04,0.27-1.04,0.7c0,0.43,0.34,0.65,1.42,1.03c1.67,0.58,2.36,1.44,2.38,2.72c0,1.66-1.28,2.86-3.8,2.86
		c-1.15,0-2.18-0.27-2.84-0.63L126.13,12.69z"/>
	<path class="st3" d="M137.02,3.88v2.38h1.96v2.02h-1.96v3.19c0,1.06,0.27,1.55,1.08,1.55c0.38,0,0.56-0.02,0.81-0.07l0.02,2.07
		c-0.34,0.13-1.01,0.23-1.76,0.23c-0.88,0-1.62-0.31-2.07-0.76c-0.5-0.52-0.76-1.37-0.76-2.61v-3.6h-1.17V6.26h1.17V4.62
		L137.02,3.88z"/>
	<path class="st3" d="M142.58,11.54c0.07,1.13,1.21,1.67,2.48,1.67c0.94,0,1.69-0.13,2.43-0.38l0.36,1.85
		c-0.9,0.38-2,0.56-3.19,0.56c-2.99,0-4.7-1.73-4.7-4.48c0-2.23,1.39-4.7,4.45-4.7c2.84,0,3.93,2.21,3.93,4.39
		c0,0.47-0.05,0.88-0.09,1.08H142.58z M145.81,9.66c0-0.67-0.29-1.78-1.55-1.78c-1.15,0-1.62,1.06-1.69,1.78H145.81z"/>
	<path class="st3" d="M158.52,2.28v10.15c0,0.99,0.04,2.03,0.07,2.63h-2.43l-0.11-1.28H156c-0.54,0.97-1.62,1.48-2.75,1.48
		c-2.09,0-3.76-1.78-3.76-4.52c-0.02-2.97,1.84-4.7,3.94-4.7c1.1,0,1.93,0.4,2.32,0.99h0.04V2.28H158.52z M155.78,9.99
		c0-0.14,0-0.34-0.04-0.5c-0.16-0.72-0.76-1.33-1.6-1.33c-1.26,0-1.89,1.12-1.89,2.5c0,1.49,0.74,2.43,1.87,2.43
		c0.79,0,1.44-0.54,1.6-1.31c0.04-0.2,0.05-0.41,0.05-0.63V9.99z"/>
	<path class="st3" d="M164.44,3.09c0.85-0.14,2.03-0.25,3.71-0.25c1.69,0,2.9,0.32,3.71,0.97c0.79,0.61,1.3,1.62,1.3,2.81
		c0,1.19-0.38,2.21-1.12,2.88c-0.94,0.86-2.32,1.28-3.94,1.28c-0.36,0-0.68-0.02-0.94-0.07v4.36h-2.72V3.09z M167.15,8.6
		c0.23,0.05,0.5,0.07,0.92,0.07c1.46,0,2.36-0.74,2.36-1.96c0-1.12-0.77-1.78-2.16-1.78c-0.54,0-0.92,0.04-1.12,0.09V8.6z"/>
	<path class="st3" d="M172.01,13.61c0-0.99,0.67-1.67,1.62-1.67c0.94,0,1.58,0.67,1.6,1.67c0,0.95-0.65,1.66-1.64,1.66
		C172.68,15.26,172.01,14.56,172.01,13.61z"/>
	<path class="st3" d="M185.88,14.74c-0.49,0.23-1.64,0.52-3.1,0.52c-4.2,0-6.36-2.63-6.36-6.09c0-4.14,2.95-6.43,6.63-6.43
		c1.42,0,2.5,0.27,2.99,0.54l-0.58,2.16c-0.54-0.23-1.31-0.45-2.3-0.45c-2.16,0-3.85,1.31-3.85,4.02c0,2.43,1.44,3.96,3.87,3.96
		c0.85,0,1.75-0.16,2.3-0.4L185.88,14.74z"/>
	<path class="st3" d="M187.4,13.61c0-0.99,0.67-1.67,1.62-1.67c0.94,0,1.58,0.67,1.6,1.67c0,0.95-0.65,1.66-1.64,1.66
		C188.07,15.26,187.4,14.56,187.4,13.61z"/>
	<path class="st3" d="M192.37,3.09c0.72-0.13,2.16-0.25,3.55-0.25c1.67,0,2.7,0.16,3.6,0.68c0.85,0.45,1.44,1.28,1.44,2.4
		c0,1.06-0.63,2.05-2,2.57v0.04c1.39,0.36,2.41,1.42,2.41,2.97c0,1.12-0.5,1.98-1.26,2.59c-0.88,0.7-2.36,1.1-4.77,1.1
		c-1.35,0-2.36-0.09-2.97-0.18V3.09z M195.09,7.74h0.9c1.46,0,2.21-0.59,2.21-1.49c0-0.92-0.7-1.4-1.95-1.4
		c-0.61,0-0.95,0.04-1.17,0.07V7.74z M195.09,13.12c0.27,0.04,0.59,0.04,1.06,0.04c1.24,0,2.34-0.49,2.34-1.76
		c0-1.21-1.1-1.69-2.47-1.69h-0.94V13.12z"/>
	<path class="st3" d="M202.68,13.61c0-0.99,0.67-1.67,1.62-1.67c0.94,0,1.58,0.67,1.6,1.67c0,0.95-0.65,1.66-1.64,1.66
		C203.35,15.26,202.68,14.56,202.68,13.61z"/>
	<path class="st3" d="M211.31,2.93h7.4v2.25h-4.66v2.77h4.36v2.23h-4.36v4.88h-2.74V2.93z"/>
	<path class="st3" d="M228.91,10.56c0,3.22-2.29,4.7-4.65,4.7c-2.57,0-4.55-1.69-4.55-4.54c0-2.86,1.87-4.68,4.72-4.68
		C227.11,6.05,228.91,7.9,228.91,10.56z M222.54,10.65c0,1.51,0.63,2.65,1.8,2.65c1.08,0,1.75-1.06,1.75-2.66
		c0-1.3-0.5-2.63-1.75-2.63C223.04,8.01,222.54,9.36,222.54,10.65z"/>
	<path class="st3" d="M239.35,10.56c0,3.22-2.29,4.7-4.65,4.7c-2.57,0-4.55-1.69-4.55-4.54c0-2.86,1.87-4.68,4.72-4.68
		C237.55,6.05,239.35,7.9,239.35,10.56z M232.98,10.65c0,1.51,0.63,2.65,1.8,2.65c1.08,0,1.75-1.06,1.75-2.66
		c0-1.3-0.5-2.63-1.75-2.63C233.48,8.01,232.98,9.36,232.98,10.65z"/>
	<path class="st3" d="M244.1,3.88v2.38h1.96v2.02h-1.96v3.19c0,1.06,0.27,1.55,1.08,1.55c0.38,0,0.56-0.02,0.81-0.07l0.02,2.07
		c-0.34,0.13-1.01,0.23-1.76,0.23c-0.88,0-1.62-0.31-2.07-0.76c-0.5-0.52-0.76-1.37-0.76-2.61v-3.6h-1.17V6.26h1.17V4.62L244.1,3.88
		z"/>
	<path class="st3" d="M247.65,9.21c0-1.15-0.04-2.13-0.07-2.95h2.38l0.13,1.22h0.04c0.65-0.92,1.66-1.42,2.93-1.42
		c1.93,0,3.66,1.67,3.66,4.48c0,3.21-2.04,4.72-4,4.72c-1.06,0-1.89-0.43-2.29-1.01h-0.04v4.38h-2.74V9.21z M250.38,11.28
		c0,0.22,0.02,0.4,0.05,0.58c0.18,0.74,0.81,1.3,1.6,1.3c1.19,0,1.89-0.99,1.89-2.48c0-1.4-0.63-2.47-1.85-2.47
		c-0.78,0-1.46,0.58-1.64,1.39c-0.04,0.14-0.05,0.32-0.05,0.49V11.28z"/>
	<path class="st3" d="M258.41,9.16c0-1.3-0.02-2.14-0.07-2.9h2.34l0.11,1.62h0.07c0.45-1.3,1.51-1.84,2.38-1.84
		c0.25,0,0.38,0.02,0.58,0.05v2.57c-0.22-0.04-0.43-0.07-0.74-0.07c-1.01,0-1.69,0.54-1.87,1.39c-0.04,0.18-0.05,0.4-0.05,0.61v4.47
		h-2.74V9.16z"/>
	<path class="st3" d="M268.08,3.81c0,0.76-0.56,1.37-1.48,1.37c-0.86,0-1.42-0.61-1.42-1.37c0-0.77,0.58-1.37,1.46-1.37
		C267.52,2.44,268.06,3.04,268.08,3.81z M265.25,15.07v-8.8h2.74v8.8H265.25z"/>
	<path class="st3" d="M270.18,9.07c0-1.1-0.04-2.02-0.07-2.81h2.38l0.13,1.22h0.05c0.36-0.58,1.24-1.42,2.72-1.42
		c1.8,0,3.15,1.21,3.15,3.8v5.2h-2.74v-4.88c0-1.13-0.39-1.91-1.39-1.91c-0.76,0-1.21,0.52-1.4,1.03c-0.07,0.18-0.09,0.43-0.09,0.68
		v5.08h-2.74V9.07z"/>
	<path class="st3" d="M283.68,3.88v2.38h1.96v2.02h-1.96v3.19c0,1.06,0.27,1.55,1.08,1.55c0.38,0,0.56-0.02,0.81-0.07l0.02,2.07
		c-0.34,0.13-1.01,0.23-1.76,0.23c-0.88,0-1.62-0.31-2.07-0.76c-0.5-0.52-0.76-1.37-0.76-2.61v-3.6h-1.17V6.26H281V4.62L283.68,3.88
		z"/>
</g>
<path class="st11" d="M252.47,101.33c0-11.03,8.94-19.96,19.96-19.96c11.03,0,19.96,8.94,19.96,19.96
	c0,11.03-8.94,19.97-19.96,19.97C261.41,121.3,252.47,112.36,252.47,101.33z"/>
<line class="st4" x1="272.44" y1="101.33" x2="272.44" y2="93.76"/>
<line class="st4" x1="272.44" y1="101.33" x2="264.86" y2="101.33"/>
<line class="st4" x1="272.44" y1="101.33" x2="272.44" y2="108.91"/>
<line class="st4" x1="272.44" y1="101.33" x2="280.02" y2="101.33"/>
<path class="st11" d="M62.15,101.33c0-11.03,8.94-19.96,19.96-19.96c11.03,0,19.96,8.94,19.96,19.96c0,11.03-8.94,19.97-19.96,19.97
	C71.09,121.3,62.15,112.36,62.15,101.33z"/>
<line class="st4" x1="82.12" y1="101.33" x2="82.12" y2="93.75"/>
<line class="st4" x1="82.12" y1="101.33" x2="74.54" y2="101.33"/>
<line class="st4" x1="82.12" y1="101.33" x2="82.12" y2="108.91"/>
<line class="st4" x1="82.12" y1="101.33" x2="89.7" y2="101.33"/>
</svg>
