M48
; DRILL file {KiCad 6.0.9} date Sun Nov 20 22:10:23 2022
; FORMAT={-:-/ absolute / inch / decimal}
; #@! TF.CreationDate,2022-11-20T22:10:23-05:00
; #@! TF.GenerationSoftware,Kicad,Pcbnew,6.0.9
; #@! TF.FileFunction,MixedPlating,1,2
FMAT,2
INCH
; #@! TA.AperFunction,Plated,PTH,ComponentDrill
T1C0.0118
; #@! TA.AperFunction,Plated,PTH,ViaDrill
T2C0.0157
; #@! TA.AperFunction,Plated,PTH,ViaDrill
T3C0.0197
; #@! TA.AperFunction,Plated,PTH,ComponentDrill
T4C0.1000
%
G90
G05
T1
X4.7843Y-3.937
X4.8118Y-3.9094
X4.8118Y-3.937
X4.8118Y-3.9646
X4.8394Y-3.937
T2
X4.7441Y-3.8386
X4.7835Y-3.7431
X4.8425Y-4.0748
X4.8819Y-4.0748
X4.9213Y-4.0748
X4.9803Y-3.8189
X5.0591Y-4.5669
X5.1181Y-4.5669
X5.1772Y-4.5669
X5.1881Y-3.9673
X5.3653Y-4.4023
X5.4975Y-3.4429
X5.5906Y-3.3071
X5.689Y-3.937
X5.7119Y-4.0975
X5.7235Y-3.891
X5.8071Y-4.2913
X5.8837Y-3.4431
X5.9843Y-3.3071
X5.9938Y-3.7908
X6.092Y-3.7582
X6.1297Y-3.811
X6.1744Y-3.7334
X6.2651Y-3.6254
X6.3386Y-3.6614
T3
X4.6618Y-4.137
X5.1969Y-3.6152
X5.8268Y-3.6811
T4
X4.6118Y-3.587
X4.6118Y-4.287
X6.4118Y-3.587
X6.4118Y-4.287
T0
M30
