<?xml version="1.0" standalone="no"?>
 <!DOCTYPE svg PUBLIC "-//W3C//DTD SVG 1.1//EN" 
 "http://www.w3.org/Graphics/SVG/1.1/DTD/svg11.dtd"> 
<svg
  xmlns:svg="http://www.w3.org/2000/svg"
  xmlns="http://www.w3.org/2000/svg"
  xmlns:xlink="http://www.w3.org/1999/xlink"
  version="1.1"
  width="5.588000cm" height="3.810000cm" viewBox="0 0 55880000 38100000">
<title>SVG Picture created as biym-board-B_Silkscreen.svg date 2022/11/20 22:14:51 </title>
  <desc>Picture generated by PCBNEW </desc>
<g style="fill:#000000; fill-opacity:1.000000;stroke:#000000; stroke-opacity:1.000000;
stroke-linecap:round; stroke-linejoin:round;"
 transform="translate(0 0) scale(1 1)">
</g>
<g style="fill:#000000; fill-opacity:0.0; 
stroke:#000000; stroke-width:0.000000; stroke-opacity:1; 
stroke-linecap:round; stroke-linejoin:round;">
</g>
<g style="fill:#E8B2A7; fill-opacity:0.0; 
stroke:#E8B2A7; stroke-width:0.000000; stroke-opacity:1; 
stroke-linecap:round; stroke-linejoin:round;">
</g>
<g style="fill:#E8B2A7; fill-opacity:0.0; 
stroke:#E8B2A7; stroke-width:150000.000000; stroke-opacity:1; 
stroke-linecap:round; stroke-linejoin:round;">
<path d="M14190000 32550000
L21690000 32550000
" />
<path d="M21690000 32550000
L21690000 35550000
" />
<path d="M21690000 35550000
L14190000 35550000
" />
<path d="M14190000 35550000
L14190000 32550000
" />
<path d="M25440000 16550000
L30440000 16550000
" />
<path d="M30440000 16550000
L30440000 21550000
" />
<path d="M30440000 21550000
L25440000 21550000
" />
<path d="M25440000 21550000
L25440000 16550000
" />
<path d="M23440000 32550000
L32440000 32550000
" />
<path d="M32440000 32550000
L32440000 35550000
" />
<path d="M32440000 35550000
L23440000 35550000
" />
<path d="M23440000 35550000
L23440000 32550000
" />
<path d="M16940000 2550000
L22940000 2550000
" />
<path d="M22940000 2550000
L22940000 5550000
" />
<path d="M22940000 5550000
L16940000 5550000
" />
<path d="M16940000 5550000
L16940000 2550000
" />
<path d="M26190000 2550000
L33690000 2550000
" />
<path d="M33690000 2550000
L33690000 5550000
" />
<path d="M33690000 5550000
L26190000 5550000
" />
<path d="M26190000 5550000
L26190000 2550000
" />
<path d="M34190000 32550000
L41690000 32550000
" />
<path d="M41690000 32550000
L41690000 35550000
" />
<path d="M41690000 35550000
L34190000 35550000
" />
<path d="M34190000 35550000
L34190000 32550000
" />
</g>
<g style="fill:#E8B2A7; fill-opacity:1.0; 
stroke:#E8B2A7; stroke-width:1.000000; stroke-opacity:1; 
stroke-linecap:round; stroke-linejoin:round;">
<circle cx="27940000.000000" cy="19050000.000000" r="1200000.000000" /> 
</g>
<g style="fill:#E8B2A7; fill-opacity:1.0; 
stroke:#E8B2A7; stroke-width:150000.000000; stroke-opacity:1; 
stroke-linecap:round; stroke-linejoin:round;">
</g>
<g style="fill:#E8B2A7; fill-opacity:0.0; 
stroke:#E8B2A7; stroke-width:150000.000000; stroke-opacity:1; 
stroke-linecap:round; stroke-linejoin:round;">
<path d="M36190000 2550000
L43690000 2550000
" />
<path d="M43690000 2550000
L43690000 5550000
" />
<path d="M43690000 5550000
L36190000 5550000
" />
<path d="M36190000 5550000
L36190000 2550000
" />
<path d="M11690000 17550000
L8690000 17550000
" />
<path d="M8690000 17550000
L8690000 20550000
" />
<path d="M8690000 20550000
L11690000 20550000
" />
<path d="M11690000 20550000
L11690000 17550000
" />
</g>
<g style="fill:#E8B2A7; fill-opacity:0.0; 
stroke:#E8B2A7; stroke-width:125000.000000; stroke-opacity:1; 
stroke-linecap:round; stroke-linejoin:round;">
<text x="27940000.000000" y="33800000.000000"
transform="scale(-1 1) translate(-55880000.000000 0)"
textLength="1157143.000000" font-size="666666.000000" lengthAdjust="spacingAndGlyphs"
text-anchor="middle" opacity="0">LED</text>
<g class="stroked-text"><desc>LED</desc>
<path d="M28261428 33776190
L28499523 33776190
L28499523 33276190
" />
<path d="M28094761 33514285
L27928095 33514285
" />
<path d="M27856666 33776190
L28094761 33776190
L28094761 33276190
L27856666 33276190
" />
<path d="M27642380 33776190
L27642380 33276190
L27523333 33276190
L27451904 33300000
L27404285 33347619
L27380476 33395238
L27356666 33490476
L27356666 33561904
L27380476 33657142
L27404285 33704761
L27451904 33752380
L27523333 33776190
L27642380 33776190
" />
</g><text x="17940000.000000" y="33800000.000000"
transform="scale(-1 1) translate(-35880000.000000 0)"
textLength="2456548.000000" font-size="666666.000000" lengthAdjust="spacingAndGlyphs"
text-anchor="middle" opacity="0">DRIVER</text>
<g class="stroked-text"><desc>DRIVER</desc>
<path d="M19130476 33776190
L19130476 33276190
L19011428 33276190
L18940000 33300000
L18892380 33347619
L18868571 33395238
L18844761 33490476
L18844761 33561904
L18868571 33657142
L18892380 33704761
L18940000 33752380
L19011428 33776190
L19130476 33776190
" />
<path d="M18344761 33776190
L18511428 33538095
" />
<path d="M18630476 33776190
L18630476 33276190
L18440000 33276190
L18392380 33300000
L18368571 33323809
L18344761 33371428
L18344761 33442857
L18368571 33490476
L18392380 33514285
L18440000 33538095
L18630476 33538095
" />
<path d="M18130476 33776190
L18130476 33276190
" />
<path d="M17963809 33276190
L17797142 33776190
L17630476 33276190
" />
<path d="M17463809 33514285
L17297142 33514285
" />
<path d="M17225714 33776190
L17463809 33776190
L17463809 33276190
L17225714 33276190
" />
<path d="M16725714 33776190
L16892380 33538095
" />
<path d="M17011428 33776190
L17011428 33276190
L16820952 33276190
L16773333 33300000
L16749523 33323809
L16725714 33371428
L16725714 33442857
L16749523 33490476
L16773333 33514285
L16820952 33538095
L17011428 33538095
" />
</g><text x="19940000.000000" y="4397500.000000"
transform="scale(-1 1) translate(-39880000.000000 0)"
textLength="2385119.000000" font-size="666666.000000" lengthAdjust="spacingAndGlyphs"
text-anchor="middle" opacity="0">POWER</text>
<g class="stroked-text"><desc>POWER</desc>
<path d="M21094761 4373690
L21094761 3873690
L20904285 3873690
L20856666 3897500
L20832857 3921309
L20809047 3968928
L20809047 4040357
L20832857 4087976
L20856666 4111785
L20904285 4135595
L21094761 4135595
" />
<path d="M20499523 3873690
L20404285 3873690
L20356666 3897500
L20309047 3945119
L20285238 4040357
L20285238 4207023
L20309047 4302261
L20356666 4349880
L20404285 4373690
L20499523 4373690
L20547142 4349880
L20594761 4302261
L20618571 4207023
L20618571 4040357
L20594761 3945119
L20547142 3897500
L20499523 3873690
" />
<path d="M20118571 3873690
L19999523 4373690
L19904285 4016547
L19809047 4373690
L19690000 3873690
" />
<path d="M19499523 4111785
L19332857 4111785
" />
<path d="M19261428 4373690
L19499523 4373690
L19499523 3873690
L19261428 3873690
" />
<path d="M18761428 4373690
L18928095 4135595
" />
<path d="M19047142 4373690
L19047142 3873690
L18856666 3873690
L18809047 3897500
L18785238 3921309
L18761428 3968928
L18761428 4040357
L18785238 4087976
L18809047 4111785
L18856666 4135595
L19047142 4135595
" />
</g><text x="19940000.000000" y="5202500.000000"
transform="scale(-1 1) translate(-39880000.000000 0)"
textLength="2527976.000000" font-size="666666.000000" lengthAdjust="spacingAndGlyphs"
text-anchor="middle" opacity="0">SWITCH</text>
<g class="stroked-text"><desc>SWITCH</desc>
<path d="M21190000 5154880
L21118571 5178690
L20999523 5178690
L20951904 5154880
L20928095 5131071
L20904285 5083452
L20904285 5035833
L20928095 4988214
L20951904 4964404
L20999523 4940595
L21094761 4916785
L21142380 4892976
L21166190 4869166
L21190000 4821547
L21190000 4773928
L21166190 4726309
L21142380 4702500
L21094761 4678690
L20975714 4678690
L20904285 4702500
" />
<path d="M20737619 4678690
L20618571 5178690
L20523333 4821547
L20428095 5178690
L20309047 4678690
" />
<path d="M20118571 5178690
L20118571 4678690
" />
<path d="M19951904 4678690
L19666190 4678690
" />
<path d="M19809047 5178690
L19809047 4678690
" />
<path d="M19213809 5131071
L19237619 5154880
L19309047 5178690
L19356666 5178690
L19428095 5154880
L19475714 5107261
L19499523 5059642
L19523333 4964404
L19523333 4892976
L19499523 4797738
L19475714 4750119
L19428095 4702500
L19356666 4678690
L19309047 4678690
L19237619 4702500
L19213809 4726309
" />
<path d="M18999523 5178690
L18999523 4678690
" />
<path d="M18999523 4916785
L18713809 4916785
" />
<path d="M18713809 5178690
L18713809 4678690
" />
</g><text x="10190000.000000" y="17300000.000000"
transform="scale(-1 1) translate(-20380000.000000 0)"
textLength="2456548.000000" font-size="666666.000000" lengthAdjust="spacingAndGlyphs"
text-anchor="middle" opacity="0">DRIVER</text>
<g class="stroked-text"><desc>DRIVER</desc>
<path d="M11380476 17276190
L11380476 16776190
L11261428 16776190
L11190000 16800000
L11142380 16847619
L11118571 16895238
L11094761 16990476
L11094761 17061904
L11118571 17157142
L11142380 17204761
L11190000 17252380
L11261428 17276190
L11380476 17276190
" />
<path d="M10594761 17276190
L10761428 17038095
" />
<path d="M10880476 17276190
L10880476 16776190
L10690000 16776190
L10642380 16800000
L10618571 16823809
L10594761 16871428
L10594761 16942857
L10618571 16990476
L10642380 17014285
L10690000 17038095
L10880476 17038095
" />
<path d="M10380476 17276190
L10380476 16776190
" />
<path d="M10213809 16776190
L10047142 17276190
L9880476 16776190
" />
<path d="M9713809 17014285
L9547142 17014285
" />
<path d="M9475714 17276190
L9713809 17276190
L9713809 16776190
L9475714 16776190
" />
<path d="M8975714 17276190
L9142380 17038095
" />
<path d="M9261428 17276190
L9261428 16776190
L9070952 16776190
L9023333 16800000
L8999523 16823809
L8975714 16871428
L8975714 16942857
L8999523 16990476
L9023333 17014285
L9070952 17038095
L9261428 17038095
" />
</g><text x="39940000.000000" y="4397500.000000"
transform="scale(-1 1) translate(-79880000.000000 0)"
textLength="2218452.000000" font-size="666666.000000" lengthAdjust="spacingAndGlyphs"
text-anchor="middle" opacity="0">SERVO</text>
<g class="stroked-text"><desc>SERVO</desc>
<path d="M41035238 4349880
L40963809 4373690
L40844761 4373690
L40797142 4349880
L40773333 4326071
L40749523 4278452
L40749523 4230833
L40773333 4183214
L40797142 4159404
L40844761 4135595
L40940000 4111785
L40987619 4087976
L41011428 4064166
L41035238 4016547
L41035238 3968928
L41011428 3921309
L40987619 3897500
L40940000 3873690
L40820952 3873690
L40749523 3897500
" />
<path d="M40535238 4111785
L40368571 4111785
" />
<path d="M40297142 4373690
L40535238 4373690
L40535238 3873690
L40297142 3873690
" />
<path d="M39797142 4373690
L39963809 4135595
" />
<path d="M40082857 4373690
L40082857 3873690
L39892380 3873690
L39844761 3897500
L39820952 3921309
L39797142 3968928
L39797142 4040357
L39820952 4087976
L39844761 4111785
L39892380 4135595
L40082857 4135595
" />
<path d="M39654285 3873690
L39487619 4373690
L39320952 3873690
" />
<path d="M39059047 3873690
L38963809 3873690
L38916190 3897500
L38868571 3945119
L38844761 4040357
L38844761 4207023
L38868571 4302261
L38916190 4349880
L38963809 4373690
L39059047 4373690
L39106666 4349880
L39154285 4302261
L39178095 4207023
L39178095 4040357
L39154285 3945119
L39106666 3897500
L39059047 3873690
" />
</g><text x="39940000.000000" y="5202500.000000"
transform="scale(-1 1) translate(-79880000.000000 0)"
textLength="313690.000000" font-size="666666.000000" lengthAdjust="spacingAndGlyphs"
text-anchor="middle" opacity="0">0</text>
<g class="stroked-text"><desc>0</desc>
<path d="M39963809 4678690
L39916190 4678690
L39868571 4702500
L39844761 4726309
L39820952 4773928
L39797142 4869166
L39797142 4988214
L39820952 5083452
L39844761 5131071
L39868571 5154880
L39916190 5178690
L39963809 5178690
L40011428 5154880
L40035238 5131071
L40059047 5083452
L40082857 4988214
L40082857 4869166
L40059047 4773928
L40035238 4726309
L40011428 4702500
L39963809 4678690
" />
</g></g>
<g style="fill:#E8B2A7; fill-opacity:0.0; 
stroke:#E8B2A7; stroke-width:100000.000000; stroke-opacity:1; 
stroke-linecap:round; stroke-linejoin:round;">
<text x="27940000.000000" y="12496750.000000"
transform="scale(-1 1) translate(-55880000.000000 0)"
textLength="4313690.000000" font-size="666666.000000" lengthAdjust="spacingAndGlyphs"
text-anchor="middle" opacity="0">biym-board</text>
<g class="stroked-text"><desc>biym-board</desc>
<path d="M30059047 12470559
L30059047 11920559
" />
<path d="M30059047 12130083
L30011428 12103892
L29916190 12103892
L29868571 12130083
L29844761 12156273
L29820952 12208654
L29820952 12365797
L29844761 12418178
L29868571 12444369
L29916190 12470559
L30011428 12470559
L30059047 12444369
" />
<path d="M29606666 12470559
L29606666 12103892
" />
<path d="M29606666 11920559
L29630476 11946750
L29606666 11972940
L29582857 11946750
L29606666 11920559
L29606666 11972940
" />
<path d="M29416190 12103892
L29297142 12470559
" />
<path d="M29178095 12103892
L29297142 12470559
L29344761 12601511
L29368571 12627702
L29416190 12653892
" />
<path d="M28987619 12470559
L28987619 12103892
" />
<path d="M28987619 12156273
L28963809 12130083
L28916190 12103892
L28844761 12103892
L28797142 12130083
L28773333 12182464
L28773333 12470559
" />
<path d="M28773333 12182464
L28749523 12130083
L28701904 12103892
L28630476 12103892
L28582857 12130083
L28559047 12182464
L28559047 12470559
" />
<path d="M28320952 12261035
L27940000 12261035
" />
<path d="M27701904 12470559
L27701904 11920559
" />
<path d="M27701904 12130083
L27654285 12103892
L27559047 12103892
L27511428 12130083
L27487619 12156273
L27463809 12208654
L27463809 12365797
L27487619 12418178
L27511428 12444369
L27559047 12470559
L27654285 12470559
L27701904 12444369
" />
<path d="M27178095 12470559
L27225714 12444369
L27249523 12418178
L27273333 12365797
L27273333 12208654
L27249523 12156273
L27225714 12130083
L27178095 12103892
L27106666 12103892
L27059047 12130083
L27035238 12156273
L27011428 12208654
L27011428 12365797
L27035238 12418178
L27059047 12444369
L27106666 12470559
L27178095 12470559
" />
<path d="M26582857 12470559
L26582857 12182464
L26606666 12130083
L26654285 12103892
L26749523 12103892
L26797142 12130083
" />
<path d="M26582857 12444369
L26630476 12470559
L26749523 12470559
L26797142 12444369
L26820952 12391988
L26820952 12339607
L26797142 12287226
L26749523 12261035
L26630476 12261035
L26582857 12234845
" />
<path d="M26344761 12470559
L26344761 12103892
" />
<path d="M26344761 12208654
L26320952 12156273
L26297142 12130083
L26249523 12103892
L26201904 12103892
" />
<path d="M25820952 12470559
L25820952 11920559
" />
<path d="M25820952 12444369
L25868571 12470559
L25963809 12470559
L26011428 12444369
L26035238 12418178
L26059047 12365797
L26059047 12208654
L26035238 12156273
L26011428 12130083
L25963809 12103892
L25868571 12103892
L25820952 12130083
" />
</g><text x="27940000.000000" y="13382250.000000"
transform="scale(-1 1) translate(-55880000.000000 0)"
textLength="4250952.000000" font-size="666666.000000" lengthAdjust="spacingAndGlyphs"
text-anchor="middle" opacity="0">v1.2 11/22</text>
<g class="stroked-text"><desc>v1.2 11/22</desc>
<path d="M30059047 12989392
L29940000 13356059
L29820952 12989392
" />
<path d="M29368571 13356059
L29654285 13356059
" />
<path d="M29511428 13356059
L29511428 12806059
L29559047 12884630
L29606666 12937011
L29654285 12963202
" />
<path d="M29154285 13303678
L29130476 13329869
L29154285 13356059
L29178095 13329869
L29154285 13303678
L29154285 13356059
" />
<path d="M28940000 12858440
L28916190 12832250
L28868571 12806059
L28749523 12806059
L28701904 12832250
L28678095 12858440
L28654285 12910821
L28654285 12963202
L28678095 13041773
L28963809 13356059
L28654285 13356059
" />
<path d="M27797142 13356059
L28082857 13356059
" />
<path d="M27940000 13356059
L27940000 12806059
L27987619 12884630
L28035238 12937011
L28082857 12963202
" />
<path d="M27320952 13356059
L27606666 13356059
" />
<path d="M27463809 13356059
L27463809 12806059
L27511428 12884630
L27559047 12937011
L27606666 12963202
" />
<path d="M26749523 12779869
L27178095 13487011
" />
<path d="M26606666 12858440
L26582857 12832250
L26535238 12806059
L26416190 12806059
L26368571 12832250
L26344761 12858440
L26320952 12910821
L26320952 12963202
L26344761 13041773
L26630476 13356059
L26320952 13356059
" />
<path d="M26130476 12858440
L26106666 12832250
L26059047 12806059
L25940000 12806059
L25892380 12832250
L25868571 12858440
L25844761 12910821
L25844761 12963202
L25868571 13041773
L26154285 13356059
L25844761 13356059
" />
</g><text x="27940000.000000" y="14267750.000000"
transform="scale(-1 1) translate(-55880000.000000 0)"
textLength="6417619.000000" font-size="666666.000000" lengthAdjust="spacingAndGlyphs"
text-anchor="middle" opacity="0">peter@polidoro.io</text>
<g class="stroked-text"><desc>peter@polidoro.io</desc>
<path d="M31094761 13874892
L31094761 14424892
" />
<path d="M31094761 13901083
L31047142 13874892
L30951904 13874892
L30904285 13901083
L30880476 13927273
L30856666 13979654
L30856666 14136797
L30880476 14189178
L30904285 14215369
L30951904 14241559
L31047142 14241559
L31094761 14215369
" />
<path d="M30451904 14215369
L30499523 14241559
L30594761 14241559
L30642380 14215369
L30666190 14162988
L30666190 13953464
L30642380 13901083
L30594761 13874892
L30499523 13874892
L30451904 13901083
L30428095 13953464
L30428095 14005845
L30666190 14058226
" />
<path d="M30285238 13874892
L30094761 13874892
" />
<path d="M30213809 13691559
L30213809 14162988
L30190000 14215369
L30142380 14241559
L30094761 14241559
" />
<path d="M29737619 14215369
L29785238 14241559
L29880476 14241559
L29928095 14215369
L29951904 14162988
L29951904 13953464
L29928095 13901083
L29880476 13874892
L29785238 13874892
L29737619 13901083
L29713809 13953464
L29713809 14005845
L29951904 14058226
" />
<path d="M29499523 14241559
L29499523 13874892
" />
<path d="M29499523 13979654
L29475714 13927273
L29451904 13901083
L29404285 13874892
L29356666 13874892
" />
<path d="M28880476 13979654
L28904285 13953464
L28951904 13927273
L28999523 13927273
L29047142 13953464
L29070952 13979654
L29094761 14032035
L29094761 14084416
L29070952 14136797
L29047142 14162988
L28999523 14189178
L28951904 14189178
L28904285 14162988
L28880476 14136797
" />
<path d="M28880476 13927273
L28880476 14136797
L28856666 14162988
L28832857 14162988
L28785238 14136797
L28761428 14084416
L28761428 13953464
L28809047 13874892
L28880476 13822511
L28975714 13796321
L29070952 13822511
L29142380 13874892
L29190000 13953464
L29213809 14058226
L29190000 14162988
L29142380 14241559
L29070952 14293940
L28975714 14320130
L28880476 14293940
L28809047 14241559
" />
<path d="M28547142 13874892
L28547142 14424892
" />
<path d="M28547142 13901083
L28499523 13874892
L28404285 13874892
L28356666 13901083
L28332857 13927273
L28309047 13979654
L28309047 14136797
L28332857 14189178
L28356666 14215369
L28404285 14241559
L28499523 14241559
L28547142 14215369
" />
<path d="M28023333 14241559
L28070952 14215369
L28094761 14189178
L28118571 14136797
L28118571 13979654
L28094761 13927273
L28070952 13901083
L28023333 13874892
L27951904 13874892
L27904285 13901083
L27880476 13927273
L27856666 13979654
L27856666 14136797
L27880476 14189178
L27904285 14215369
L27951904 14241559
L28023333 14241559
" />
<path d="M27570952 14241559
L27618571 14215369
L27642380 14162988
L27642380 13691559
" />
<path d="M27380476 14241559
L27380476 13874892
" />
<path d="M27380476 13691559
L27404285 13717750
L27380476 13743940
L27356666 13717750
L27380476 13691559
L27380476 13743940
" />
<path d="M26928095 14241559
L26928095 13691559
" />
<path d="M26928095 14215369
L26975714 14241559
L27070952 14241559
L27118571 14215369
L27142380 14189178
L27166190 14136797
L27166190 13979654
L27142380 13927273
L27118571 13901083
L27070952 13874892
L26975714 13874892
L26928095 13901083
" />
<path d="M26618571 14241559
L26666190 14215369
L26690000 14189178
L26713809 14136797
L26713809 13979654
L26690000 13927273
L26666190 13901083
L26618571 13874892
L26547142 13874892
L26499523 13901083
L26475714 13927273
L26451904 13979654
L26451904 14136797
L26475714 14189178
L26499523 14215369
L26547142 14241559
L26618571 14241559
" />
<path d="M26237619 14241559
L26237619 13874892
" />
<path d="M26237619 13979654
L26213809 13927273
L26190000 13901083
L26142380 13874892
L26094761 13874892
" />
<path d="M25856666 14241559
L25904285 14215369
L25928095 14189178
L25951904 14136797
L25951904 13979654
L25928095 13927273
L25904285 13901083
L25856666 13874892
L25785238 13874892
L25737619 13901083
L25713809 13927273
L25690000 13979654
L25690000 14136797
L25713809 14189178
L25737619 14215369
L25785238 14241559
L25856666 14241559
" />
<path d="M25475714 14189178
L25451904 14215369
L25475714 14241559
L25499523 14215369
L25475714 14189178
L25475714 14241559
" />
<path d="M25237619 14241559
L25237619 13874892
" />
<path d="M25237619 13691559
L25261428 13717750
L25237619 13743940
L25213809 13717750
L25237619 13691559
L25237619 13743940
" />
<path d="M24928095 14241559
L24975714 14215369
L24999523 14189178
L25023333 14136797
L25023333 13979654
L24999523 13927273
L24975714 13901083
L24928095 13874892
L24856666 13874892
L24809047 13901083
L24785238 13927273
L24761428 13979654
L24761428 14136797
L24785238 14189178
L24809047 14215369
L24856666 14241559
L24928095 14241559
" />
</g><text x="27940000.000000" y="15153250.000000"
transform="scale(-1 1) translate(-55880000.000000 0)"
textLength="14417619.000000" font-size="666666.000000" lengthAdjust="spacingAndGlyphs"
text-anchor="middle" opacity="0">https://github.com/biym/biym-board</text>
<g class="stroked-text"><desc>https://github.com/biym/biym-board</desc>
<path d="M35094761 15127059
L35094761 14577059
" />
<path d="M34880476 15127059
L34880476 14838964
L34904285 14786583
L34951904 14760392
L35023333 14760392
L35070952 14786583
L35094761 14812773
" />
<path d="M34713809 14760392
L34523333 14760392
" />
<path d="M34642380 14577059
L34642380 15048488
L34618571 15100869
L34570952 15127059
L34523333 15127059
" />
<path d="M34428095 14760392
L34237619 14760392
" />
<path d="M34356666 14577059
L34356666 15048488
L34332857 15100869
L34285238 15127059
L34237619 15127059
" />
<path d="M34070952 14760392
L34070952 15310392
" />
<path d="M34070952 14786583
L34023333 14760392
L33928095 14760392
L33880476 14786583
L33856666 14812773
L33832857 14865154
L33832857 15022297
L33856666 15074678
L33880476 15100869
L33928095 15127059
L34023333 15127059
L34070952 15100869
" />
<path d="M33642380 15100869
L33594761 15127059
L33499523 15127059
L33451904 15100869
L33428095 15048488
L33428095 15022297
L33451904 14969916
L33499523 14943726
L33570952 14943726
L33618571 14917535
L33642380 14865154
L33642380 14838964
L33618571 14786583
L33570952 14760392
L33499523 14760392
L33451904 14786583
" />
<path d="M33213809 15074678
L33190000 15100869
L33213809 15127059
L33237619 15100869
L33213809 15074678
L33213809 15127059
" />
<path d="M33213809 14786583
L33190000 14812773
L33213809 14838964
L33237619 14812773
L33213809 14786583
L33213809 14838964
" />
<path d="M32618571 14550869
L33047142 15258011
" />
<path d="M32094761 14550869
L32523333 15258011
" />
<path d="M31713809 14760392
L31713809 15205630
L31737619 15258011
L31761428 15284202
L31809047 15310392
L31880476 15310392
L31928095 15284202
" />
<path d="M31713809 15100869
L31761428 15127059
L31856666 15127059
L31904285 15100869
L31928095 15074678
L31951904 15022297
L31951904 14865154
L31928095 14812773
L31904285 14786583
L31856666 14760392
L31761428 14760392
L31713809 14786583
" />
<path d="M31475714 15127059
L31475714 14760392
" />
<path d="M31475714 14577059
L31499523 14603250
L31475714 14629440
L31451904 14603250
L31475714 14577059
L31475714 14629440
" />
<path d="M31309047 14760392
L31118571 14760392
" />
<path d="M31237619 14577059
L31237619 15048488
L31213809 15100869
L31166190 15127059
L31118571 15127059
" />
<path d="M30951904 15127059
L30951904 14577059
" />
<path d="M30737619 15127059
L30737619 14838964
L30761428 14786583
L30809047 14760392
L30880476 14760392
L30928095 14786583
L30951904 14812773
" />
<path d="M30285238 14760392
L30285238 15127059
" />
<path d="M30499523 14760392
L30499523 15048488
L30475714 15100869
L30428095 15127059
L30356666 15127059
L30309047 15100869
L30285238 15074678
" />
<path d="M30047142 15127059
L30047142 14577059
" />
<path d="M30047142 14786583
L29999523 14760392
L29904285 14760392
L29856666 14786583
L29832857 14812773
L29809047 14865154
L29809047 15022297
L29832857 15074678
L29856666 15100869
L29904285 15127059
L29999523 15127059
L30047142 15100869
" />
<path d="M29594761 15074678
L29570952 15100869
L29594761 15127059
L29618571 15100869
L29594761 15074678
L29594761 15127059
" />
<path d="M29142380 15100869
L29190000 15127059
L29285238 15127059
L29332857 15100869
L29356666 15074678
L29380476 15022297
L29380476 14865154
L29356666 14812773
L29332857 14786583
L29285238 14760392
L29190000 14760392
L29142380 14786583
" />
<path d="M28856666 15127059
L28904285 15100869
L28928095 15074678
L28951904 15022297
L28951904 14865154
L28928095 14812773
L28904285 14786583
L28856666 14760392
L28785238 14760392
L28737619 14786583
L28713809 14812773
L28690000 14865154
L28690000 15022297
L28713809 15074678
L28737619 15100869
L28785238 15127059
L28856666 15127059
" />
<path d="M28475714 15127059
L28475714 14760392
" />
<path d="M28475714 14812773
L28451904 14786583
L28404285 14760392
L28332857 14760392
L28285238 14786583
L28261428 14838964
L28261428 15127059
" />
<path d="M28261428 14838964
L28237619 14786583
L28190000 14760392
L28118571 14760392
L28070952 14786583
L28047142 14838964
L28047142 15127059
" />
<path d="M27451904 14550869
L27880476 15258011
" />
<path d="M27285238 15127059
L27285238 14577059
" />
<path d="M27285238 14786583
L27237619 14760392
L27142380 14760392
L27094761 14786583
L27070952 14812773
L27047142 14865154
L27047142 15022297
L27070952 15074678
L27094761 15100869
L27142380 15127059
L27237619 15127059
L27285238 15100869
" />
<path d="M26832857 15127059
L26832857 14760392
" />
<path d="M26832857 14577059
L26856666 14603250
L26832857 14629440
L26809047 14603250
L26832857 14577059
L26832857 14629440
" />
<path d="M26642380 14760392
L26523333 15127059
" />
<path d="M26404285 14760392
L26523333 15127059
L26570952 15258011
L26594761 15284202
L26642380 15310392
" />
<path d="M26213809 15127059
L26213809 14760392
" />
<path d="M26213809 14812773
L26190000 14786583
L26142380 14760392
L26070952 14760392
L26023333 14786583
L25999523 14838964
L25999523 15127059
" />
<path d="M25999523 14838964
L25975714 14786583
L25928095 14760392
L25856666 14760392
L25809047 14786583
L25785238 14838964
L25785238 15127059
" />
<path d="M25190000 14550869
L25618571 15258011
" />
<path d="M25023333 15127059
L25023333 14577059
" />
<path d="M25023333 14786583
L24975714 14760392
L24880476 14760392
L24832857 14786583
L24809047 14812773
L24785238 14865154
L24785238 15022297
L24809047 15074678
L24832857 15100869
L24880476 15127059
L24975714 15127059
L25023333 15100869
" />
<path d="M24570952 15127059
L24570952 14760392
" />
<path d="M24570952 14577059
L24594761 14603250
L24570952 14629440
L24547142 14603250
L24570952 14577059
L24570952 14629440
" />
<path d="M24380476 14760392
L24261428 15127059
" />
<path d="M24142380 14760392
L24261428 15127059
L24309047 15258011
L24332857 15284202
L24380476 15310392
" />
<path d="M23951904 15127059
L23951904 14760392
" />
<path d="M23951904 14812773
L23928095 14786583
L23880476 14760392
L23809047 14760392
L23761428 14786583
L23737619 14838964
L23737619 15127059
" />
<path d="M23737619 14838964
L23713809 14786583
L23666190 14760392
L23594761 14760392
L23547142 14786583
L23523333 14838964
L23523333 15127059
" />
<path d="M23285238 14917535
L22904285 14917535
" />
<path d="M22666190 15127059
L22666190 14577059
" />
<path d="M22666190 14786583
L22618571 14760392
L22523333 14760392
L22475714 14786583
L22451904 14812773
L22428095 14865154
L22428095 15022297
L22451904 15074678
L22475714 15100869
L22523333 15127059
L22618571 15127059
L22666190 15100869
" />
<path d="M22142380 15127059
L22190000 15100869
L22213809 15074678
L22237619 15022297
L22237619 14865154
L22213809 14812773
L22190000 14786583
L22142380 14760392
L22070952 14760392
L22023333 14786583
L21999523 14812773
L21975714 14865154
L21975714 15022297
L21999523 15074678
L22023333 15100869
L22070952 15127059
L22142380 15127059
" />
<path d="M21547142 15127059
L21547142 14838964
L21570952 14786583
L21618571 14760392
L21713809 14760392
L21761428 14786583
" />
<path d="M21547142 15100869
L21594761 15127059
L21713809 15127059
L21761428 15100869
L21785238 15048488
L21785238 14996107
L21761428 14943726
L21713809 14917535
L21594761 14917535
L21547142 14891345
" />
<path d="M21309047 15127059
L21309047 14760392
" />
<path d="M21309047 14865154
L21285238 14812773
L21261428 14786583
L21213809 14760392
L21166190 14760392
" />
<path d="M20785238 15127059
L20785238 14577059
" />
<path d="M20785238 15100869
L20832857 15127059
L20928095 15127059
L20975714 15100869
L20999523 15074678
L21023333 15022297
L21023333 14865154
L20999523 14812773
L20975714 14786583
L20928095 14760392
L20832857 14760392
L20785238 14786583
" />
</g></g>
<g style="fill:#E8B2A7; fill-opacity:0.0; 
stroke:#E8B2A7; stroke-width:125000.000000; stroke-opacity:1; 
stroke-linecap:round; stroke-linejoin:round;">
<text x="29940000.000000" y="4397500.000000"
transform="scale(-1 1) translate(-59880000.000000 0)"
textLength="2250952.000000" font-size="666666.000000" lengthAdjust="spacingAndGlyphs"
text-anchor="middle" opacity="0">SERVO</text>
<g class="stroked-text"><desc>SERVO</desc>
<path d="M31035238 4349880
L30963809 4373690
L30844761 4373690
L30797142 4349880
L30773333 4326071
L30749523 4278452
L30749523 4230833
L30773333 4183214
L30797142 4159404
L30844761 4135595
L30940000 4111785
L30987619 4087976
L31011428 4064166
L31035238 4016547
L31035238 3968928
L31011428 3921309
L30987619 3897500
L30940000 3873690
L30820952 3873690
L30749523 3897500
" />
<path d="M30535238 4111785
L30368571 4111785
" />
<path d="M30297142 4373690
L30535238 4373690
L30535238 3873690
L30297142 3873690
" />
<path d="M29797142 4373690
L29963809 4135595
" />
<path d="M30082857 4373690
L30082857 3873690
L29892380 3873690
L29844761 3897500
L29820952 3921309
L29797142 3968928
L29797142 4040357
L29820952 4087976
L29844761 4111785
L29892380 4135595
L30082857 4135595
" />
<path d="M29654285 3873690
L29487619 4373690
L29320952 3873690
" />
<path d="M29059047 3873690
L28963809 3873690
L28916190 3897500
L28868571 3945119
L28844761 4040357
L28844761 4207023
L28868571 4302261
L28916190 4349880
L28963809 4373690
L29059047 4373690
L29106666 4349880
L29154285 4302261
L29178095 4207023
L29178095 4040357
L29154285 3945119
L29106666 3897500
L29059047 3873690
" />
</g><text x="29940000.000000" y="5202500.000000"
transform="scale(-1 1) translate(-59880000.000000 0)"
textLength="313690.000000" font-size="666666.000000" lengthAdjust="spacingAndGlyphs"
text-anchor="middle" opacity="0">1</text>
<g class="stroked-text"><desc>1</desc>
<path d="M29797142 5178690
L30082857 5178690
" />
<path d="M29940000 5178690
L29940000 4678690
L29987619 4750119
L30035238 4797738
L30082857 4821547
" />
</g><text x="37940000.000000" y="33800000.000000"
transform="scale(-1 1) translate(-75880000.000000 0)"
textLength="1599405.000000" font-size="666666.000000" lengthAdjust="spacingAndGlyphs"
text-anchor="middle" opacity="0">GPIO</text>
<g class="stroked-text"><desc>GPIO</desc>
<path d="M38440000 33300000
L38487619 33276190
L38559047 33276190
L38630476 33300000
L38678095 33347619
L38701904 33395238
L38725714 33490476
L38725714 33561904
L38701904 33657142
L38678095 33704761
L38630476 33752380
L38559047 33776190
L38511428 33776190
L38440000 33752380
L38416190 33728571
L38416190 33561904
L38511428 33561904
" />
<path d="M38201904 33776190
L38201904 33276190
L38011428 33276190
L37963809 33300000
L37940000 33323809
L37916190 33371428
L37916190 33442857
L37940000 33490476
L37963809 33514285
L38011428 33538095
L38201904 33538095
" />
<path d="M37701904 33776190
L37701904 33276190
" />
<path d="M37368571 33276190
L37273333 33276190
L37225714 33300000
L37178095 33347619
L37154285 33442857
L37154285 33609523
L37178095 33704761
L37225714 33752380
L37273333 33776190
L37368571 33776190
L37416190 33752380
L37463809 33704761
L37487619 33609523
L37487619 33442857
L37463809 33347619
L37416190 33300000
L37368571 33276190
" />
</g><text x="27940000.000000" y="17550000.000000"
transform="scale(-1 1) translate(-55880000.000000 0)"
textLength="3289881.000000" font-size="666666.000000" lengthAdjust="spacingAndGlyphs"
text-anchor="middle" opacity="0">ENCODER</text>
<g class="stroked-text"><desc>ENCODER</desc>
<path d="M29547142 17264285
L29380476 17264285
" />
<path d="M29309047 17526190
L29547142 17526190
L29547142 17026190
L29309047 17026190
" />
<path d="M29094761 17526190
L29094761 17026190
L28809047 17526190
L28809047 17026190
" />
<path d="M28285238 17478571
L28309047 17502380
L28380476 17526190
L28428095 17526190
L28499523 17502380
L28547142 17454761
L28570952 17407142
L28594761 17311904
L28594761 17240476
L28570952 17145238
L28547142 17097619
L28499523 17050000
L28428095 17026190
L28380476 17026190
L28309047 17050000
L28285238 17073809
" />
<path d="M27975714 17026190
L27880476 17026190
L27832857 17050000
L27785238 17097619
L27761428 17192857
L27761428 17359523
L27785238 17454761
L27832857 17502380
L27880476 17526190
L27975714 17526190
L28023333 17502380
L28070952 17454761
L28094761 17359523
L28094761 17192857
L28070952 17097619
L28023333 17050000
L27975714 17026190
" />
<path d="M27547142 17526190
L27547142 17026190
L27428095 17026190
L27356666 17050000
L27309047 17097619
L27285238 17145238
L27261428 17240476
L27261428 17311904
L27285238 17407142
L27309047 17454761
L27356666 17502380
L27428095 17526190
L27547142 17526190
" />
<path d="M27047142 17264285
L26880476 17264285
" />
<path d="M26809047 17526190
L27047142 17526190
L27047142 17026190
L26809047 17026190
" />
<path d="M26309047 17526190
L26475714 17288095
" />
<path d="M26594761 17526190
L26594761 17026190
L26404285 17026190
L26356666 17050000
L26332857 17073809
L26309047 17121428
L26309047 17192857
L26332857 17240476
L26356666 17264285
L26404285 17288095
L26594761 17288095
" />
</g><g >
</g>
<g >
</g>
<g >
</g>
<g >
</g>
<g >
</g>
<g >
</g>
<g >
</g>
<g >
</g>
<g >
</g>
<g >
</g>
<g >
</g>
<g >
</g>
<g >
</g>
<g >
</g>
<g >
</g>
<g >
</g>
<g >
</g>
<g >
</g>
<g >
</g>
<g >
</g>
<g >
</g>
<g >
</g>
<g >
</g>
<g >
</g>
<g >
</g>
<g >
</g>
<g >
</g>
<g >
</g>
<g >
</g>
<g >
</g>
<g >
</g>
<g >
</g>
<g >
</g>
<g >
</g>
<g >
</g>
<g >
</g>
<g >
</g>
<g >
</g>
<g >
</g>
<g >
</g>
<g >
</g>
<g >
</g>
<g >
</g>
<g >
</g>
<g >
</g>
<g >
</g>
<g >
</g>
</g>
<g style="fill:#000000; fill-opacity:0.0; 
stroke:#000000; stroke-width:125000.000000; stroke-opacity:1; 
stroke-linecap:round; stroke-linejoin:round;">
</g>
<g style="fill:#D0D2CD; fill-opacity:0.0; 
stroke:#D0D2CD; stroke-width:125000.000000; stroke-opacity:1; 
stroke-linecap:round; stroke-linejoin:round;">
</g>
<g style="fill:#D0D2CD; fill-opacity:0.0; 
stroke:#D0D2CD; stroke-width:100000.000000; stroke-opacity:1; 
stroke-linecap:round; stroke-linejoin:round;">
<path d="M12540000 36050000
L43340000 36050000
" />
<path d="M43340000.000000 36050000.000000 A10000000.000000 10000000.000000 0.0 0 0 53340000.000000 26050000.000000" />
<path d="M12540000 2050000
L43340000 2050000
" />
<path d="M2540000.000000 26050000.000000 A10000000.000000 10000000.000000 0.0 0 0 12540000.000000 36050000.000000" />
<path d="M53340000 12050000
L53340000 26050000
" />
<path d="M2540000 12050000
L2540000 26050000
" />
<path d="M12540000.000000 2050000.000000 A10000000.000000 10000000.000000 0.0 0 0 2540000.000000 12050000.000000" />
<path d="M53340000.000000 12050000.000000 A10000000.000000 10000000.000000 0.0 0 0 43340000.000000 2050000.000000" />
<g >
</g>
<g >
</g>
<g >
</g>
<g >
</g>
<g >
</g>
<g >
</g>
<g >
</g>
<g >
</g>
<g >
</g>
<g >
</g>
<g >
</g>
<g >
</g>
<g >
</g>
<g >
</g>
<g >
</g>
<g >
</g>
<g >
</g>
<g >
</g>
<g >
</g>
<g >
</g>
<g >
</g>
<g >
</g>
<g >
</g>
<g >
</g>
<g >
</g>
<g >
</g>
<g >
</g>
<g >
</g>
<g >
</g>
<g >
</g>
<g >
</g>
<g >
</g>
<g >
</g>
<g >
</g>
<g >
</g>
<g >
</g>
<g >
</g>
<g >
</g>
<g >
</g>
<g >
</g>
<g >
</g>
<g >
</g>
<g >
</g>
<g >
</g>
<g >
</g>
<g >
</g>
<g >
</g>
</g> 
</svg>
