<?xml version="1.0" standalone="no"?>
 <!DOCTYPE svg PUBLIC "-//W3C//DTD SVG 1.1//EN" 
 "http://www.w3.org/Graphics/SVG/1.1/DTD/svg11.dtd"> 
<svg
  xmlns:svg="http://www.w3.org/2000/svg"
  xmlns="http://www.w3.org/2000/svg"
  xmlns:xlink="http://www.w3.org/1999/xlink"
  version="1.1"
  width="29.700220cm" height="21.000720cm" viewBox="0 0 116930 82680">
<title>SVG Picture created as biym-board-led.svg date 2022/11/20 15:33:12 </title>
  <desc>Picture generated by Eeschema-SVG </desc>
<g style="fill:#000000; fill-opacity:1.000000;stroke:#000000; stroke-opacity:1.000000;
stroke-linecap:round; stroke-linejoin:round;"
 transform="translate(0 0) scale(1 1)">
</g>
<g style="fill:#840000; fill-opacity:0.0; 
stroke:#840000; stroke-width:0.000000; stroke-opacity:1; 
stroke-linecap:round; stroke-linejoin:round;">
</g>
<g style="fill:#840000; fill-opacity:0.0; 
stroke:#840000; stroke-width:60.000000; stroke-opacity:1; 
stroke-linecap:round; stroke-linejoin:round;">
<rect x="69685.905512" y="65357.165354" width="42519.685039" height="12598.425197" rx="0.000000" />
<rect x="3937.007874" y="3937.007874" width="109055.984252" height="74805.984252" rx="0.000000" />
<rect x="4724.409449" y="4724.409449" width="107481.181102" height="73231.181102" rx="0.000000" />
<path d="M23622 4724
L23622 3937
" />
<path d="M43307 4724
L43307 3937
" />
<path d="M62992 4724
L62992 3937
" />
<path d="M82677 4724
L82677 3937
" />
<path d="M102362 4724
L102362 3937
" />
<text x="13779.527559" y="4586.614173"
textLength="549.960630" font-size="682.401575" lengthAdjust="spacingAndGlyphs"
text-anchor="start" opacity="0">1</text>
<g class="stroked-text"><desc>1</desc>
<path d="M14199 4562
L13907 4562
" />
<path d="M14053 4562
L14053 4050
L14004 4123
L13955 4172
L13907 4196
" />
</g><text x="33464.566929" y="4586.614173"
textLength="547.440945" font-size="682.401575" lengthAdjust="spacingAndGlyphs"
text-anchor="start" opacity="0">2</text>
<g class="stroked-text"><desc>2</desc>
<path d="M33592 4099
L33616 4074
L33665 4050
L33787 4050
L33835 4074
L33860 4099
L33884 4147
L33884 4196
L33860 4269
L33567 4562
L33884 4562
" />
</g><text x="53149.606299" y="4586.614173"
textLength="547.440945" font-size="682.401575" lengthAdjust="spacingAndGlyphs"
text-anchor="start" opacity="0">3</text>
<g class="stroked-text"><desc>3</desc>
<path d="M53252 4050
L53569 4050
L53398 4245
L53472 4245
L53520 4269
L53545 4294
L53569 4342
L53569 4464
L53545 4513
L53520 4537
L53472 4562
L53325 4562
L53277 4537
L53252 4513
" />
</g><text x="72834.645669" y="4586.614173"
textLength="547.440945" font-size="682.401575" lengthAdjust="spacingAndGlyphs"
text-anchor="start" opacity="0">4</text>
<g class="stroked-text"><desc>4</desc>
<path d="M73205 4221
L73205 4562
" />
<path d="M73083 4026
L72962 4391
L73278 4391
" />
</g><text x="92519.685039" y="4586.614173"
textLength="547.440945" font-size="682.401575" lengthAdjust="spacingAndGlyphs"
text-anchor="start" opacity="0">5</text>
<g class="stroked-text"><desc>5</desc>
<path d="M92915 4050
L92671 4050
L92647 4294
L92671 4269
L92720 4245
L92842 4245
L92890 4269
L92915 4294
L92939 4342
L92939 4464
L92915 4513
L92890 4537
L92842 4562
L92720 4562
L92671 4537
L92647 4513
" />
</g><text x="112204.724409" y="4586.614173"
textLength="547.440945" font-size="682.401575" lengthAdjust="spacingAndGlyphs"
text-anchor="start" opacity="0">6</text>
<g class="stroked-text"><desc>6</desc>
<path d="M112575 4050
L112478 4050
L112429 4074
L112405 4099
L112356 4172
L112332 4269
L112332 4464
L112356 4513
L112380 4537
L112429 4562
L112527 4562
L112575 4537
L112600 4513
L112624 4464
L112624 4342
L112600 4294
L112575 4269
L112527 4245
L112429 4245
L112380 4269
L112356 4294
L112332 4342
" />
</g><path d="M23622 77955
L23622 78742
" />
<path d="M43307 77955
L43307 78742
" />
<path d="M62992 77955
L62992 78742
" />
<path d="M82677 77955
L82677 78742
" />
<path d="M102362 77955
L102362 78742
" />
<text x="13779.527559" y="78605.196850"
textLength="547.440945" font-size="682.401575" lengthAdjust="spacingAndGlyphs"
text-anchor="start" opacity="0">1</text>
<g class="stroked-text"><desc>1</desc>
<path d="M14199 78580
L13907 78580
" />
<path d="M14053 78580
L14053 78068
L14004 78142
L13955 78190
L13907 78215
" />
</g><text x="33464.566929" y="78605.196850"
textLength="547.440945" font-size="682.401575" lengthAdjust="spacingAndGlyphs"
text-anchor="start" opacity="0">2</text>
<g class="stroked-text"><desc>2</desc>
<path d="M33592 78117
L33616 78093
L33665 78068
L33787 78068
L33835 78093
L33860 78117
L33884 78166
L33884 78215
L33860 78288
L33567 78580
L33884 78580
" />
</g><text x="53149.606299" y="78605.196850"
textLength="547.440945" font-size="682.401575" lengthAdjust="spacingAndGlyphs"
text-anchor="start" opacity="0">3</text>
<g class="stroked-text"><desc>3</desc>
<path d="M53252 78068
L53569 78068
L53398 78263
L53472 78263
L53520 78288
L53545 78312
L53569 78361
L53569 78483
L53545 78532
L53520 78556
L53472 78580
L53325 78580
L53277 78556
L53252 78532
" />
</g><text x="72834.645669" y="78605.196850"
textLength="547.440945" font-size="682.401575" lengthAdjust="spacingAndGlyphs"
text-anchor="start" opacity="0">4</text>
<g class="stroked-text"><desc>4</desc>
<path d="M73205 78239
L73205 78580
" />
<path d="M73083 78044
L72962 78410
L73278 78410
" />
</g><text x="92519.685039" y="78605.196850"
textLength="547.440945" font-size="682.401575" lengthAdjust="spacingAndGlyphs"
text-anchor="start" opacity="0">5</text>
<g class="stroked-text"><desc>5</desc>
<path d="M92915 78068
L92671 78068
L92647 78312
L92671 78288
L92720 78263
L92842 78263
L92890 78288
L92915 78312
L92939 78361
L92939 78483
L92915 78532
L92890 78556
L92842 78580
L92720 78580
L92671 78556
L92647 78532
" />
</g><text x="112204.724409" y="78605.196850"
textLength="547.440945" font-size="682.401575" lengthAdjust="spacingAndGlyphs"
text-anchor="start" opacity="0">6</text>
<g class="stroked-text"><desc>6</desc>
<path d="M112575 78068
L112478 78068
L112429 78093
L112405 78117
L112356 78190
L112332 78288
L112332 78483
L112356 78532
L112380 78556
L112429 78580
L112527 78580
L112575 78556
L112600 78532
L112624 78483
L112624 78361
L112600 78312
L112575 78288
L112527 78263
L112429 78263
L112380 78288
L112356 78312
L112332 78361
" />
</g><path d="M3937 23622
L4724 23622
" />
<path d="M3937 43307
L4724 43307
" />
<path d="M3937 62992
L4724 62992
" />
<text x="4330.708661" y="14035.433071"
textLength="498.700787" font-size="682.401575" lengthAdjust="spacingAndGlyphs"
text-anchor="middle" opacity="0">A</text>
<g class="stroked-text"><desc>A</desc>
<path d="M4208 13864
L4452 13864
" />
<path d="M4160 14011
L4330 13499
L4501 14011
" />
</g><text x="4330.708661" y="33720.472441"
textLength="571.811024" font-size="682.401575" lengthAdjust="spacingAndGlyphs"
text-anchor="middle" opacity="0">B</text>
<g class="stroked-text"><desc>B</desc>
<path d="M4367 33427
L4440 33452
L4464 33476
L4489 33525
L4489 33598
L4464 33647
L4440 33671
L4391 33696
L4196 33696
L4196 33184
L4367 33184
L4415 33208
L4440 33233
L4464 33281
L4464 33330
L4440 33379
L4415 33403
L4367 33427
L4196 33427
" />
</g><text x="4330.708661" y="53405.511811"
textLength="571.811024" font-size="682.401575" lengthAdjust="spacingAndGlyphs"
text-anchor="middle" opacity="0">C</text>
<g class="stroked-text"><desc>C</desc>
<path d="M4489 53332
L4464 53356
L4391 53381
L4342 53381
L4269 53356
L4221 53307
L4196 53259
L4172 53161
L4172 53088
L4196 52991
L4221 52942
L4269 52893
L4342 52869
L4391 52869
L4464 52893
L4489 52918
" />
</g><text x="4330.708661" y="73090.551181"
textLength="571.811024" font-size="682.401575" lengthAdjust="spacingAndGlyphs"
text-anchor="middle" opacity="0">D</text>
<g class="stroked-text"><desc>D</desc>
<path d="M4196 73066
L4196 72554
L4318 72554
L4391 72578
L4440 72627
L4464 72676
L4489 72773
L4489 72846
L4464 72944
L4440 72993
L4391 73041
L4318 73066
L4196 73066
" />
</g><path d="M112992 23622
L112205 23622
" />
<path d="M112992 43307
L112205 43307
" />
<path d="M112992 62992
L112205 62992
" />
<text x="112599.291339" y="14035.433071"
textLength="498.700787" font-size="682.401575" lengthAdjust="spacingAndGlyphs"
text-anchor="middle" opacity="0">A</text>
<g class="stroked-text"><desc>A</desc>
<path d="M112477 13864
L112721 13864
" />
<path d="M112428 14011
L112599 13499
L112769 14011
" />
</g><text x="112599.291339" y="33720.472441"
textLength="571.811024" font-size="682.401575" lengthAdjust="spacingAndGlyphs"
text-anchor="middle" opacity="0">B</text>
<g class="stroked-text"><desc>B</desc>
<path d="M112635 33427
L112708 33452
L112733 33476
L112757 33525
L112757 33598
L112733 33647
L112708 33671
L112660 33696
L112465 33696
L112465 33184
L112635 33184
L112684 33208
L112708 33233
L112733 33281
L112733 33330
L112708 33379
L112684 33403
L112635 33427
L112465 33427
" />
</g><text x="112599.291339" y="53405.511811"
textLength="571.811024" font-size="682.401575" lengthAdjust="spacingAndGlyphs"
text-anchor="middle" opacity="0">C</text>
<g class="stroked-text"><desc>C</desc>
<path d="M112757 53332
L112733 53356
L112660 53381
L112611 53381
L112538 53356
L112489 53307
L112465 53259
L112440 53161
L112440 53088
L112465 52991
L112489 52942
L112538 52893
L112611 52869
L112660 52869
L112733 52893
L112757 52918
" />
</g><text x="112599.291339" y="73090.551181"
textLength="571.811024" font-size="682.401575" lengthAdjust="spacingAndGlyphs"
text-anchor="middle" opacity="0">D</text>
<g class="stroked-text"><desc>D</desc>
<path d="M112465 73066
L112465 72554
L112587 72554
L112660 72578
L112708 72627
L112733 72676
L112757 72773
L112757 72846
L112733 72944
L112708 72993
L112660 73041
L112587 73066
L112465 73066
" />
</g><text x="78741.023622" y="76321.732283"
textLength="8721.417323" font-size="787.401575" lengthAdjust="spacingAndGlyphs"
text-anchor="start" opacity="0">Date: 2022-11-20</text>
<g class="stroked-text"><desc>Date: 2022-11-20</desc>
<path d="M78911 76293
L78911 75703
L79052 75703
L79136 75731
L79192 75787
L79220 75843
L79249 75956
L79249 76040
L79220 76152
L79192 76209
L79136 76265
L79052 76293
L78911 76293
" />
<path d="M79755 76293
L79755 75984
L79727 75928
L79670 75899
L79558 75899
L79502 75928
" />
<path d="M79755 76265
L79699 76293
L79558 76293
L79502 76265
L79474 76209
L79474 76152
L79502 76096
L79558 76068
L79699 76068
L79755 76040
" />
<path d="M79952 75899
L80177 75899
" />
<path d="M80036 75703
L80036 76209
L80064 76265
L80120 76293
L80177 76293
" />
<path d="M80598 76265
L80542 76293
L80430 76293
L80373 76265
L80345 76209
L80345 75984
L80373 75928
L80430 75899
L80542 75899
L80598 75928
L80627 75984
L80627 76040
L80345 76096
" />
<path d="M80880 76237
L80908 76265
L80880 76293
L80852 76265
L80880 76237
L80880 76293
" />
<path d="M80880 75928
L80908 75956
L80880 75984
L80852 75956
L80880 75928
L80880 75984
" />
<path d="M81583 75759
L81611 75731
L81667 75703
L81808 75703
L81864 75731
L81892 75759
L81920 75815
L81920 75871
L81892 75956
L81555 76293
L81920 76293
" />
<path d="M82286 75703
L82342 75703
L82398 75731
L82426 75759
L82454 75815
L82483 75928
L82483 76068
L82454 76181
L82426 76237
L82398 76265
L82342 76293
L82286 76293
L82229 76265
L82201 76237
L82173 76181
L82145 76068
L82145 75928
L82173 75815
L82201 75759
L82229 75731
L82286 75703
" />
<path d="M82708 75759
L82736 75731
L82792 75703
L82932 75703
L82989 75731
L83017 75759
L83045 75815
L83045 75871
L83017 75956
L82679 76293
L83045 76293
" />
<path d="M83270 75759
L83298 75731
L83354 75703
L83495 75703
L83551 75731
L83579 75759
L83607 75815
L83607 75871
L83579 75956
L83242 76293
L83607 76293
" />
<path d="M83860 76068
L84310 76068
" />
<path d="M84901 76293
L84564 76293
" />
<path d="M84732 76293
L84732 75703
L84676 75787
L84620 75843
L84564 75871
" />
<path d="M85463 76293
L85126 76293
" />
<path d="M85295 76293
L85295 75703
L85238 75787
L85182 75843
L85126 75871
" />
<path d="M85717 76068
L86166 76068
" />
<path d="M86420 75759
L86448 75731
L86504 75703
L86645 75703
L86701 75731
L86729 75759
L86757 75815
L86757 75871
L86729 75956
L86391 76293
L86757 76293
" />
<path d="M87123 75703
L87179 75703
L87235 75731
L87263 75759
L87291 75815
L87319 75928
L87319 76068
L87291 76181
L87263 76237
L87235 76265
L87179 76293
L87123 76293
L87066 76265
L87038 76237
L87010 76181
L86982 76068
L86982 75928
L87010 75815
L87038 75759
L87066 75731
L87123 75703
" />
</g><path d="M69685 76577
L112205 76577
" />
<text x="70079.606299" y="77424.094488"
textLength="11449.212598" font-size="787.401575" lengthAdjust="spacingAndGlyphs"
text-anchor="start" opacity="0">KiCad E.D.A.  kicad 6.0.9</text>
<g class="stroked-text"><desc>KiCad E.D.A.  kicad 6.0.9</desc>
<path d="M70250 77395
L70250 76805
" />
<path d="M70587 77395
L70334 77058
" />
<path d="M70587 76805
L70250 77142
" />
<path d="M70840 77395
L70840 77002
" />
<path d="M70840 76805
L70812 76833
L70840 76861
L70868 76833
L70840 76805
L70840 76861
" />
<path d="M71459 77339
L71431 77367
L71346 77395
L71290 77395
L71206 77367
L71150 77311
L71121 77255
L71093 77142
L71093 77058
L71121 76946
L71150 76889
L71206 76833
L71290 76805
L71346 76805
L71431 76833
L71459 76861
" />
<path d="M71965 77395
L71965 77086
L71937 77030
L71881 77002
L71768 77002
L71712 77030
" />
<path d="M71965 77367
L71909 77395
L71768 77395
L71712 77367
L71684 77311
L71684 77255
L71712 77199
L71768 77170
L71909 77170
L71965 77142
" />
<path d="M72499 77395
L72499 76805
" />
<path d="M72499 77367
L72443 77395
L72331 77395
L72274 77367
L72246 77339
L72218 77283
L72218 77114
L72246 77058
L72274 77030
L72331 77002
L72443 77002
L72499 77030
" />
<path d="M73231 77086
L73427 77086
" />
<path d="M73512 77395
L73231 77395
L73231 76805
L73512 76805
" />
<path d="M73765 77339
L73793 77367
L73765 77395
L73737 77367
L73765 77339
L73765 77395
" />
<path d="M74046 77395
L74046 76805
L74187 76805
L74271 76833
L74327 76889
L74355 76946
L74384 77058
L74384 77142
L74355 77255
L74327 77311
L74271 77367
L74187 77395
L74046 77395
" />
<path d="M74637 77339
L74665 77367
L74637 77395
L74609 77367
L74637 77339
L74637 77395
" />
<path d="M74890 77227
L75171 77227
" />
<path d="M74834 77395
L75030 76805
L75227 77395
" />
<path d="M75424 77339
L75452 77367
L75424 77395
L75396 77367
L75424 77339
L75424 77395
" />
<path d="M76605 77395
L76605 76805
" />
<path d="M76661 77170
L76830 77395
" />
<path d="M76830 77002
L76605 77227
" />
<path d="M77083 77395
L77083 77002
" />
<path d="M77083 76805
L77055 76833
L77083 76861
L77111 76833
L77083 76805
L77083 76861
" />
<path d="M77618 77367
L77561 77395
L77449 77395
L77393 77367
L77364 77339
L77336 77283
L77336 77114
L77364 77058
L77393 77030
L77449 77002
L77561 77002
L77618 77030
" />
<path d="M78124 77395
L78124 77086
L78096 77030
L78039 77002
L77927 77002
L77871 77030
" />
<path d="M78124 77367
L78067 77395
L77927 77395
L77871 77367
L77842 77311
L77842 77255
L77871 77199
L77927 77170
L78067 77170
L78124 77142
" />
<path d="M78658 77395
L78658 76805
" />
<path d="M78658 77367
L78602 77395
L78489 77395
L78433 77367
L78405 77339
L78377 77283
L78377 77114
L78405 77058
L78433 77030
L78489 77002
L78602 77002
L78658 77030
" />
<path d="M79642 76805
L79530 76805
L79474 76833
L79445 76861
L79389 76946
L79361 77058
L79361 77283
L79389 77339
L79417 77367
L79474 77395
L79586 77395
L79642 77367
L79670 77339
L79699 77283
L79699 77142
L79670 77086
L79642 77058
L79586 77030
L79474 77030
L79417 77058
L79389 77086
L79361 77142
" />
<path d="M79952 77339
L79980 77367
L79952 77395
L79923 77367
L79952 77339
L79952 77395
" />
<path d="M80345 76805
L80402 76805
L80458 76833
L80486 76861
L80514 76917
L80542 77030
L80542 77170
L80514 77283
L80486 77339
L80458 77367
L80402 77395
L80345 77395
L80289 77367
L80261 77339
L80233 77283
L80205 77170
L80205 77030
L80233 76917
L80261 76861
L80289 76833
L80345 76805
" />
<path d="M80795 77339
L80823 77367
L80795 77395
L80767 77367
L80795 77339
L80795 77395
" />
<path d="M81105 77395
L81217 77395
L81273 77367
L81301 77339
L81358 77255
L81386 77142
L81386 76917
L81358 76861
L81330 76833
L81273 76805
L81161 76805
L81105 76833
L81076 76861
L81048 76917
L81048 77058
L81076 77114
L81105 77142
L81161 77170
L81273 77170
L81330 77142
L81358 77114
L81386 77058
" />
</g><path d="M69685 75396
L112205 75396
" />
</g>
<g style="fill:#840000; fill-opacity:0.0; 
stroke:#840000; stroke-width:118.110236; stroke-opacity:1; 
stroke-linecap:round; stroke-linejoin:round;">
<text x="103544.173228" y="76321.732283"
textLength="3743.897638" font-size="787.401575" lengthAdjust="spacingAndGlyphs"
text-anchor="start" opacity="0">Rev: 1.1</text>
<g class="stroked-text"><desc>Rev: 1.1</desc>
<path d="M104098 76293
L103902 76012
" />
<path d="M103761 76293
L103761 75703
L103986 75703
L104042 75731
L104070 75759
L104098 75815
L104098 75899
L104070 75956
L104042 75984
L103986 76012
L103761 76012
" />
<path d="M104577 76265
L104520 76293
L104408 76293
L104352 76265
L104323 76209
L104323 75984
L104352 75928
L104408 75899
L104520 75899
L104577 75928
L104605 75984
L104605 76040
L104323 76096
" />
<path d="M104802 75899
L104942 76293
L105083 75899
" />
<path d="M105308 76237
L105336 76265
L105308 76293
L105280 76265
L105308 76237
L105308 76293
" />
<path d="M105308 75928
L105336 75956
L105308 75984
L105280 75956
L105308 75928
L105308 75984
" />
<path d="M106348 76293
L106011 76293
" />
<path d="M106180 76293
L106180 75703
L106123 75787
L106067 75843
L106011 75871
" />
<path d="M106601 76237
L106629 76265
L106601 76293
L106573 76265
L106601 76237
L106601 76293
" />
<path d="M107192 76293
L106854 76293
" />
<path d="M107023 76293
L107023 75703
L106967 75787
L106911 75843
L106854 75871
" />
</g></g>
<g style="fill:#840000; fill-opacity:0.0; 
stroke:#840000; stroke-width:60.000000; stroke-opacity:1; 
stroke-linecap:round; stroke-linejoin:round;">
<text x="70079.606299" y="76321.732283"
textLength="3781.220472" font-size="787.401575" lengthAdjust="spacingAndGlyphs"
text-anchor="start" opacity="0">Size: A4</text>
<g class="stroked-text"><desc>Size: A4</desc>
<path d="M70222 76265
L70306 76293
L70447 76293
L70503 76265
L70531 76237
L70559 76181
L70559 76124
L70531 76068
L70503 76040
L70447 76012
L70334 75984
L70278 75956
L70250 75928
L70222 75871
L70222 75815
L70250 75759
L70278 75731
L70334 75703
L70475 75703
L70559 75731
" />
<path d="M70812 76293
L70812 75899
" />
<path d="M70812 75703
L70784 75731
L70812 75759
L70840 75731
L70812 75703
L70812 75759
" />
<path d="M71037 75899
L71346 75899
L71037 76293
L71346 76293
" />
<path d="M71796 76265
L71740 76293
L71628 76293
L71571 76265
L71543 76209
L71543 75984
L71571 75928
L71628 75899
L71740 75899
L71796 75928
L71825 75984
L71825 76040
L71543 76096
" />
<path d="M72078 76237
L72106 76265
L72078 76293
L72049 76265
L72078 76237
L72078 76293
" />
<path d="M72078 75928
L72106 75956
L72078 75984
L72049 75956
L72078 75928
L72078 75984
" />
<path d="M72781 76124
L73062 76124
" />
<path d="M72724 76293
L72921 75703
L73118 76293
" />
<path d="M73568 75899
L73568 76293
" />
<path d="M73427 75674
L73287 76096
L73652 76096
" />
</g><text x="103544.173228" y="77424.094488"
textLength="3912.637795" font-size="787.401575" lengthAdjust="spacingAndGlyphs"
text-anchor="start" opacity="0">Id: 5/10</text>
<g class="stroked-text"><desc>Id: 5/10</desc>
<path d="M103714 77395
L103714 76805
" />
<path d="M104249 77395
L104249 76805
" />
<path d="M104249 77367
L104192 77395
L104080 77395
L104024 77367
L103995 77339
L103967 77283
L103967 77114
L103995 77058
L104024 77030
L104080 77002
L104192 77002
L104249 77030
" />
<path d="M104530 77339
L104558 77367
L104530 77395
L104502 77367
L104530 77339
L104530 77395
" />
<path d="M104530 77030
L104558 77058
L104530 77086
L104502 77058
L104530 77030
L104530 77086
" />
<path d="M105542 76805
L105261 76805
L105233 77086
L105261 77058
L105317 77030
L105458 77030
L105514 77058
L105542 77086
L105570 77142
L105570 77283
L105542 77339
L105514 77367
L105458 77395
L105317 77395
L105261 77367
L105233 77339
" />
<path d="M106245 76777
L105739 77536
" />
<path d="M106751 77395
L106414 77395
" />
<path d="M106583 77395
L106583 76805
L106526 76889
L106470 76946
L106414 76974
" />
<path d="M107117 76805
L107173 76805
L107229 76833
L107258 76861
L107286 76917
L107314 77030
L107314 77170
L107286 77283
L107258 77339
L107229 77367
L107173 77395
L107117 77395
L107061 77367
L107033 77339
L107004 77283
L106976 77170
L106976 77030
L107004 76917
L107033 76861
L107061 76833
L107117 76805
" />
</g><path d="M69685 73821
L112205 73821
" />
</g>
<g style="fill:#840000; fill-opacity:0.0; 
stroke:#840000; stroke-width:157.480315; stroke-opacity:1; 
stroke-linecap:round; stroke-linejoin:round;">
<text x="70079.606299" y="74924.094488"
textLength="13529.291339" font-size="1049.842520" lengthAdjust="spacingAndGlyphs"
text-anchor="start" opacity="0">Title: biym-board-led</text>
<g class="stroked-text"><desc>Title: biym-board-led</desc>
<path d="M70360 74099
L70810 74099
" />
<path d="M70486 74886
L70585 74099
" />
<path d="M70974 74886
L71039 74361
" />
<path d="M71072 74099
L71030 74136
L71063 74174
L71105 74136
L71072 74099
L71063 74174
" />
<path d="M71302 74361
L71602 74361
" />
<path d="M71447 74099
L71363 74774
L71391 74849
L71461 74886
L71536 74886
" />
<path d="M71911 74886
L71841 74849
L71812 74774
L71897 74099
" />
<path d="M72516 74849
L72436 74886
L72286 74886
L72216 74849
L72187 74774
L72225 74474
L72272 74399
L72352 74361
L72501 74361
L72572 74399
L72600 74474
L72591 74549
L72206 74624
" />
<path d="M72895 74811
L72928 74849
L72886 74886
L72853 74849
L72895 74811
L72886 74886
" />
<path d="M72947 74399
L72980 74436
L72937 74474
L72905 74436
L72947 74399
L72937 74474
" />
<path d="M73861 74886
L73959 74099
" />
<path d="M73922 74399
L74001 74361
L74151 74361
L74222 74399
L74254 74436
L74282 74511
L74254 74736
L74207 74811
L74165 74849
L74086 74886
L73936 74886
L73865 74849
" />
<path d="M74573 74886
L74639 74361
" />
<path d="M74672 74099
L74629 74136
L74662 74174
L74704 74136
L74672 74099
L74662 74174
" />
<path d="M74939 74361
L75061 74886
" />
<path d="M75314 74361
L75061 74886
L74962 75074
L74920 75111
L74840 75149
" />
<path d="M75548 74886
L75614 74361
" />
<path d="M75604 74436
L75646 74399
L75726 74361
L75839 74361
L75909 74399
L75937 74474
L75885 74886
" />
<path d="M75937 74474
L75984 74399
L76064 74361
L76176 74361
L76246 74399
L76274 74474
L76223 74886
" />
<path d="M76635 74586
L77235 74586
" />
<path d="M77573 74886
L77671 74099
" />
<path d="M77634 74399
L77713 74361
L77863 74361
L77934 74399
L77966 74436
L77995 74511
L77966 74736
L77920 74811
L77877 74849
L77798 74886
L77648 74886
L77577 74849
" />
<path d="M78398 74886
L78327 74849
L78295 74811
L78266 74736
L78295 74511
L78341 74436
L78384 74399
L78463 74361
L78576 74361
L78646 74399
L78679 74436
L78707 74511
L78679 74736
L78632 74811
L78590 74849
L78510 74886
L78398 74886
" />
<path d="M79335 74886
L79387 74474
L79358 74399
L79288 74361
L79138 74361
L79058 74399
" />
<path d="M79340 74849
L79260 74886
L79073 74886
L79002 74849
L78974 74774
L78983 74699
L79030 74624
L79110 74586
L79297 74586
L79377 74549
" />
<path d="M79710 74886
L79776 74361
" />
<path d="M79757 74511
L79804 74436
L79846 74399
L79926 74361
L80001 74361
" />
<path d="M80535 74886
L80633 74099
" />
<path d="M80540 74849
L80460 74886
L80310 74886
L80240 74849
L80207 74811
L80179 74736
L80207 74511
L80254 74436
L80296 74399
L80375 74361
L80525 74361
L80596 74399
" />
<path d="M80947 74586
L81547 74586
" />
<path d="M81997 74886
L81927 74849
L81899 74774
L81983 74099
" />
<path d="M82602 74849
L82522 74886
L82372 74886
L82302 74849
L82274 74774
L82311 74474
L82358 74399
L82438 74361
L82588 74361
L82658 74399
L82686 74474
L82677 74549
L82292 74624
" />
<path d="M83310 74886
L83408 74099
" />
<path d="M83314 74849
L83235 74886
L83085 74886
L83014 74849
L82981 74811
L82953 74736
L82981 74511
L83028 74436
L83070 74399
L83150 74361
L83300 74361
L83370 74399
" />
</g></g>
<g style="fill:#840000; fill-opacity:0.0; 
stroke:#840000; stroke-width:60.000000; stroke-opacity:1; 
stroke-linecap:round; stroke-linejoin:round;">
<text x="70079.606299" y="73408.346457"
textLength="8472.440945" font-size="787.401575" lengthAdjust="spacingAndGlyphs"
text-anchor="start" opacity="0">File: led.kicad_sch</text>
<g class="stroked-text"><desc>File: led.kicad_sch</desc>
<path d="M70447 73070
L70250 73070
" />
<path d="M70250 73380
L70250 72789
L70531 72789
" />
<path d="M70756 73380
L70756 72986
" />
<path d="M70756 72789
L70728 72817
L70756 72845
L70784 72817
L70756 72789
L70756 72845
" />
<path d="M71121 73380
L71065 73352
L71037 73295
L71037 72789
" />
<path d="M71571 73352
L71515 73380
L71403 73380
L71346 73352
L71318 73295
L71318 73070
L71346 73014
L71403 72986
L71515 72986
L71571 73014
L71600 73070
L71600 73127
L71318 73183
" />
<path d="M71853 73323
L71881 73352
L71853 73380
L71825 73352
L71853 73323
L71853 73380
" />
<path d="M71853 73014
L71881 73042
L71853 73070
L71825 73042
L71853 73014
L71853 73070
" />
<path d="M72668 73380
L72612 73352
L72584 73295
L72584 72789
" />
<path d="M73118 73352
L73062 73380
L72949 73380
L72893 73352
L72865 73295
L72865 73070
L72893 73014
L72949 72986
L73062 72986
L73118 73014
L73146 73070
L73146 73127
L72865 73183
" />
<path d="M73652 73380
L73652 72789
" />
<path d="M73652 73352
L73596 73380
L73484 73380
L73427 73352
L73399 73323
L73371 73267
L73371 73098
L73399 73042
L73427 73014
L73484 72986
L73596 72986
L73652 73014
" />
<path d="M73934 73323
L73962 73352
L73934 73380
L73905 73352
L73934 73323
L73934 73380
" />
<path d="M74215 73380
L74215 72789
" />
<path d="M74271 73155
L74440 73380
" />
<path d="M74440 72986
L74215 73211
" />
<path d="M74693 73380
L74693 72986
" />
<path d="M74693 72789
L74665 72817
L74693 72845
L74721 72817
L74693 72789
L74693 72845
" />
<path d="M75227 73352
L75171 73380
L75058 73380
L75002 73352
L74974 73323
L74946 73267
L74946 73098
L74974 73042
L75002 73014
L75058 72986
L75171 72986
L75227 73014
" />
<path d="M75733 73380
L75733 73070
L75705 73014
L75649 72986
L75537 72986
L75480 73014
" />
<path d="M75733 73352
L75677 73380
L75537 73380
L75480 73352
L75452 73295
L75452 73239
L75480 73183
L75537 73155
L75677 73155
L75733 73127
" />
<path d="M76268 73380
L76268 72789
" />
<path d="M76268 73352
L76211 73380
L76099 73380
L76043 73352
L76015 73323
L75986 73267
L75986 73098
L76015 73042
L76043 73014
L76099 72986
L76211 72986
L76268 73014
" />
<path d="M76408 73436
L76858 73436
" />
<path d="M76971 73352
L77027 73380
L77139 73380
L77196 73352
L77224 73295
L77224 73267
L77196 73211
L77139 73183
L77055 73183
L76999 73155
L76971 73098
L76971 73070
L76999 73014
L77055 72986
L77139 72986
L77196 73014
" />
<path d="M77730 73352
L77674 73380
L77561 73380
L77505 73352
L77477 73323
L77449 73267
L77449 73098
L77477 73042
L77505 73014
L77561 72986
L77674 72986
L77730 73014
" />
<path d="M77983 73380
L77983 72789
" />
<path d="M78236 73380
L78236 73070
L78208 73014
L78152 72986
L78067 72986
L78011 73014
L77983 73042
" />
</g><path d="M69685 71459
L112205 71459
" />
<text x="70079.606299" y="72345.354331"
textLength="5824.921260" font-size="787.401575" lengthAdjust="spacingAndGlyphs"
text-anchor="start" opacity="0">Sheet: /led/</text>
<g class="stroked-text"><desc>Sheet: /led/</desc>
<path d="M70222 72289
L70306 72317
L70447 72317
L70503 72289
L70531 72260
L70559 72204
L70559 72148
L70531 72092
L70503 72064
L70447 72035
L70334 72007
L70278 71979
L70250 71951
L70222 71895
L70222 71839
L70250 71782
L70278 71754
L70334 71726
L70475 71726
L70559 71754
" />
<path d="M70812 72317
L70812 71726
" />
<path d="M71065 72317
L71065 72007
L71037 71951
L70981 71923
L70897 71923
L70840 71951
L70812 71979
" />
<path d="M71571 72289
L71515 72317
L71403 72317
L71346 72289
L71318 72232
L71318 72007
L71346 71951
L71403 71923
L71515 71923
L71571 71951
L71600 72007
L71600 72064
L71318 72120
" />
<path d="M72078 72289
L72021 72317
L71909 72317
L71853 72289
L71825 72232
L71825 72007
L71853 71951
L71909 71923
L72021 71923
L72078 71951
L72106 72007
L72106 72064
L71825 72120
" />
<path d="M72274 71923
L72499 71923
" />
<path d="M72359 71726
L72359 72232
L72387 72289
L72443 72317
L72499 72317
" />
<path d="M72696 72260
L72724 72289
L72696 72317
L72668 72289
L72696 72260
L72696 72317
" />
<path d="M72696 71951
L72724 71979
L72696 72007
L72668 71979
L72696 71951
L72696 72007
" />
<path d="M73849 71698
L73343 72457
" />
<path d="M74130 72317
L74074 72289
L74046 72232
L74046 71726
" />
<path d="M74580 72289
L74524 72317
L74412 72317
L74355 72289
L74327 72232
L74327 72007
L74355 71951
L74412 71923
L74524 71923
L74580 71951
L74609 72007
L74609 72064
L74327 72120
" />
<path d="M75115 72317
L75115 71726
" />
<path d="M75115 72289
L75058 72317
L74946 72317
L74890 72289
L74862 72260
L74834 72204
L74834 72035
L74862 71979
L74890 71951
L74946 71923
L75058 71923
L75115 71951
" />
<path d="M75818 71698
L75312 72457
" />
</g></g>
<g style="fill:#840000; fill-opacity:0.0; 
stroke:#840000; stroke-width:118.110236; stroke-opacity:1; 
stroke-linecap:round; stroke-linejoin:round;">
<text x="70079.606299" y="71164.251969"
textLength="6499.803150" font-size="787.401575" lengthAdjust="spacingAndGlyphs"
text-anchor="start" opacity="0">Peter Polidoro</text>
<g class="stroked-text"><desc>Peter Polidoro</desc>
<path d="M70296 71136
L70296 70545
L70521 70545
L70578 70573
L70606 70601
L70634 70658
L70634 70742
L70606 70798
L70578 70826
L70521 70854
L70296 70854
" />
<path d="M71112 71107
L71056 71136
L70943 71136
L70887 71107
L70859 71051
L70859 70826
L70887 70770
L70943 70742
L71056 70742
L71112 70770
L71140 70826
L71140 70883
L70859 70939
" />
<path d="M71309 70742
L71534 70742
" />
<path d="M71393 70545
L71393 71051
L71421 71107
L71478 71136
L71534 71136
" />
<path d="M71956 71107
L71899 71136
L71787 71136
L71731 71107
L71703 71051
L71703 70826
L71731 70770
L71787 70742
L71899 70742
L71956 70770
L71984 70826
L71984 70883
L71703 70939
" />
<path d="M72237 71136
L72237 70742
" />
<path d="M72237 70854
L72265 70798
L72293 70770
L72349 70742
L72406 70742
" />
<path d="M73052 71136
L73052 70545
L73277 70545
L73334 70573
L73362 70601
L73390 70658
L73390 70742
L73362 70798
L73334 70826
L73277 70854
L73052 70854
" />
<path d="M73727 71136
L73671 71107
L73643 71079
L73615 71023
L73615 70854
L73643 70798
L73671 70770
L73727 70742
L73812 70742
L73868 70770
L73896 70798
L73924 70854
L73924 71023
L73896 71079
L73868 71107
L73812 71136
L73727 71136
" />
<path d="M74262 71136
L74205 71107
L74177 71051
L74177 70545
" />
<path d="M74487 71136
L74487 70742
" />
<path d="M74487 70545
L74458 70573
L74487 70601
L74515 70573
L74487 70545
L74487 70601
" />
<path d="M75021 71136
L75021 70545
" />
<path d="M75021 71107
L74965 71136
L74852 71136
L74796 71107
L74768 71079
L74740 71023
L74740 70854
L74768 70798
L74796 70770
L74852 70742
L74965 70742
L75021 70770
" />
<path d="M75386 71136
L75330 71107
L75302 71079
L75274 71023
L75274 70854
L75302 70798
L75330 70770
L75386 70742
L75471 70742
L75527 70770
L75555 70798
L75583 70854
L75583 71023
L75555 71079
L75527 71107
L75471 71136
L75386 71136
" />
<path d="M75836 71136
L75836 70742
" />
<path d="M75836 70854
L75865 70798
L75893 70770
L75949 70742
L76005 70742
" />
<path d="M76286 71136
L76230 71107
L76202 71079
L76174 71023
L76174 70854
L76202 70798
L76230 70770
L76286 70742
L76371 70742
L76427 70770
L76455 70798
L76483 70854
L76483 71023
L76455 71079
L76427 71107
L76371 71136
L76286 71136
" />
</g></g>
<g style="fill:#840000; fill-opacity:0.0; 
stroke:#840000; stroke-width:60.000000; stroke-opacity:1; 
stroke-linecap:round; stroke-linejoin:round;">
<text x="70079.606299" y="69983.149606"
textLength="153.543307" font-size="787.401575" lengthAdjust="spacingAndGlyphs"
text-anchor="start" opacity="0"></text>
<g class="stroked-text"><desc></desc>
</g><text x="70079.606299" y="68802.047244"
textLength="60.000000" font-size="787.401575" lengthAdjust="spacingAndGlyphs"
text-anchor="start" opacity="0"></text>
<g class="stroked-text"><desc></desc>
</g><text x="70079.606299" y="67620.944882"
textLength="60.000000" font-size="787.401575" lengthAdjust="spacingAndGlyphs"
text-anchor="start" opacity="0"></text>
<g class="stroked-text"><desc></desc>
</g><text x="70079.606299" y="66439.842520"
textLength="60.000000" font-size="787.401575" lengthAdjust="spacingAndGlyphs"
text-anchor="start" opacity="0"></text>
<g class="stroked-text"><desc></desc>
</g><path d="M77559 75396
L77559 76577
" />
<path d="M102756 75396
L102756 77955
" />
<g >
<rect x="57500.000000" y="36500.000000" width="1000.000000" height="4000.000000" rx="0.000000" />
<path style="fill:#840000; fill-opacity:0.0; 
stroke:#840000; stroke-width:60.000000; stroke-opacity:1; 
stroke-linecap:round; stroke-linejoin:round;fill:none"
d="M 57500.000000,37000.000000
57660.000000,37000.000000
" /> 
<path style="fill:#840000; fill-opacity:0.0; 
stroke:#840000; stroke-width:60.000000; stroke-opacity:1; 
stroke-linecap:round; stroke-linejoin:round;fill:none"
d="M 57500.000000,38000.000000
57660.000000,38000.000000
" /> 
<path style="fill:#840000; fill-opacity:0.0; 
stroke:#840000; stroke-width:60.000000; stroke-opacity:1; 
stroke-linecap:round; stroke-linejoin:round;fill:none"
d="M 57500.000000,39000.000000
57660.000000,39000.000000
" /> 
<path style="fill:#840000; fill-opacity:0.0; 
stroke:#840000; stroke-width:60.000000; stroke-opacity:1; 
stroke-linecap:round; stroke-linejoin:round;fill:none"
d="M 57500.000000,40000.000000
57660.000000,40000.000000
" /> 
</g>
<g style="fill:#840000; fill-opacity:1.0; 
stroke:#840000; stroke-width:60.000000; stroke-opacity:1; 
stroke-linecap:round; stroke-linejoin:round;">
<rect x="57660.000000" y="36950.000000" width="340.000000" height="100.000000" rx="0.000000" />
<rect x="57660.000000" y="37950.000000" width="340.000000" height="100.000000" rx="0.000000" />
<rect x="57660.000000" y="38950.000000" width="340.000000" height="100.000000" rx="0.000000" />
<rect x="57660.000000" y="39950.000000" width="340.000000" height="100.000000" rx="0.000000" />
</g>
<g style="fill:#840000; fill-opacity:0.0; 
stroke:#840000; stroke-width:60.000000; stroke-opacity:1; 
stroke-linecap:round; stroke-linejoin:round;">
<path d="M57500 40000
L56000 40000
" />
</g>
<g style="fill:#A90000; fill-opacity:0.0; 
stroke:#A90000; stroke-width:60.000000; stroke-opacity:1; 
stroke-linecap:round; stroke-linejoin:round;">
<text x="56750.000000" y="39900.000000"
textLength="536.181102" font-size="666.653543" lengthAdjust="spacingAndGlyphs"
text-anchor="middle" opacity="0">1</text>
<g class="stroked-text"><desc>1</desc>
<path d="M56892 39876
L56607 39876
" />
<path d="M56750 39876
L56750 39376
L56702 39447
L56654 39495
L56607 39519
" />
</g></g>
<g style="fill:#840000; fill-opacity:0.0; 
stroke:#840000; stroke-width:60.000000; stroke-opacity:1; 
stroke-linecap:round; stroke-linejoin:round;">
<path d="M57500 39000
L56000 39000
" />
</g>
<g style="fill:#A90000; fill-opacity:0.0; 
stroke:#A90000; stroke-width:60.000000; stroke-opacity:1; 
stroke-linecap:round; stroke-linejoin:round;">
<text x="56750.000000" y="38900.000000"
textLength="536.181102" font-size="666.653543" lengthAdjust="spacingAndGlyphs"
text-anchor="middle" opacity="0">2</text>
<g class="stroked-text"><desc>2</desc>
<path d="M56607 38423
L56630 38400
L56678 38376
L56797 38376
L56845 38400
L56869 38423
L56892 38471
L56892 38519
L56869 38590
L56583 38876
L56892 38876
" />
</g></g>
<g style="fill:#840000; fill-opacity:0.0; 
stroke:#840000; stroke-width:60.000000; stroke-opacity:1; 
stroke-linecap:round; stroke-linejoin:round;">
<path d="M57500 38000
L56000 38000
" />
</g>
<g style="fill:#A90000; fill-opacity:0.0; 
stroke:#A90000; stroke-width:60.000000; stroke-opacity:1; 
stroke-linecap:round; stroke-linejoin:round;">
<text x="56750.000000" y="37900.000000"
textLength="536.181102" font-size="666.653543" lengthAdjust="spacingAndGlyphs"
text-anchor="middle" opacity="0">3</text>
<g class="stroked-text"><desc>3</desc>
<path d="M56583 37376
L56892 37376
L56726 37566
L56797 37566
L56845 37590
L56869 37614
L56892 37661
L56892 37780
L56869 37828
L56845 37852
L56797 37876
L56654 37876
L56607 37852
L56583 37828
" />
</g></g>
<g style="fill:#840000; fill-opacity:0.0; 
stroke:#840000; stroke-width:60.000000; stroke-opacity:1; 
stroke-linecap:round; stroke-linejoin:round;">
<path d="M57500 37000
L56000 37000
" />
</g>
<g style="fill:#A90000; fill-opacity:0.0; 
stroke:#A90000; stroke-width:60.000000; stroke-opacity:1; 
stroke-linecap:round; stroke-linejoin:round;">
<text x="56750.000000" y="36900.000000"
textLength="536.181102" font-size="666.653543" lengthAdjust="spacingAndGlyphs"
text-anchor="middle" opacity="0">4</text>
<g class="stroked-text"><desc>4</desc>
<path d="M56845 36542
L56845 36876
" />
<path d="M56726 36352
L56607 36709
L56916 36709
" />
</g></g>
<g style="fill:#006464; fill-opacity:0.0; 
stroke:#006464; stroke-width:60.000000; stroke-opacity:1; 
stroke-linecap:round; stroke-linejoin:round;">
<text x="57999.960630" y="36250.000000"
textLength="917.125984" font-size="666.653543" lengthAdjust="spacingAndGlyphs"
text-anchor="middle" opacity="0">J3</text>
<g class="stroked-text"><desc>J3</desc>
<path d="M57833 35726
L57833 36083
L57809 36154
L57761 36202
L57690 36226
L57642 36226
" />
<path d="M58023 35726
L58333 35726
L58166 35916
L58238 35916
L58285 35940
L58309 35964
L58333 36011
L58333 36130
L58309 36178
L58285 36202
L58238 36226
L58095 36226
L58047 36202
L58023 36178
" />
</g><text x="58000.000000" y="41250.000000"
textLength="14321.889764" font-size="666.653543" lengthAdjust="spacingAndGlyphs"
text-anchor="middle" opacity="0">HEADER_01X04_JST_ZH_SMD_VERTICAL</text>
<g class="stroked-text"><desc>HEADER_01X04_JST_ZH_SMD_VERTICAL</desc>
<path d="M50988 41226
L50988 40726
" />
<path d="M50988 40964
L51273 40964
" />
<path d="M51273 41226
L51273 40726
" />
<path d="M51511 40964
L51678 40964
" />
<path d="M51750 41226
L51511 41226
L51511 40726
L51750 40726
" />
<path d="M51940 41083
L52178 41083
" />
<path d="M51892 41226
L52059 40726
L52226 41226
" />
<path d="M52392 41226
L52392 40726
L52511 40726
L52583 40750
L52630 40797
L52654 40845
L52678 40940
L52678 41011
L52654 41107
L52630 41154
L52583 41202
L52511 41226
L52392 41226
" />
<path d="M52892 40964
L53059 40964
" />
<path d="M53130 41226
L52892 41226
L52892 40726
L53130 40726
" />
<path d="M53630 41226
L53464 40988
" />
<path d="M53345 41226
L53345 40726
L53535 40726
L53583 40750
L53607 40773
L53630 40821
L53630 40892
L53607 40940
L53583 40964
L53535 40988
L53345 40988
" />
<path d="M53726 41273
L54107 41273
" />
<path d="M54321 40726
L54369 40726
L54416 40750
L54440 40773
L54464 40821
L54488 40916
L54488 41035
L54464 41130
L54440 41178
L54416 41202
L54369 41226
L54321 41226
L54273 41202
L54250 41178
L54226 41130
L54202 41035
L54202 40916
L54226 40821
L54250 40773
L54273 40750
L54321 40726
" />
<path d="M54964 41226
L54678 41226
" />
<path d="M54821 41226
L54821 40726
L54773 40797
L54726 40845
L54678 40869
" />
<path d="M55130 40726
L55464 41226
" />
<path d="M55464 40726
L55130 41226
" />
<path d="M55750 40726
L55797 40726
L55845 40750
L55869 40773
L55892 40821
L55916 40916
L55916 41035
L55892 41130
L55869 41178
L55845 41202
L55797 41226
L55750 41226
L55702 41202
L55678 41178
L55654 41130
L55630 41035
L55630 40916
L55654 40821
L55678 40773
L55702 40750
L55750 40726
" />
<path d="M56345 40892
L56345 41226
" />
<path d="M56226 40702
L56107 41059
L56416 41059
" />
<path d="M56488 41273
L56869 41273
" />
<path d="M57130 40726
L57130 41083
L57107 41154
L57059 41202
L56988 41226
L56940 41226
" />
<path d="M57345 41202
L57416 41226
L57535 41226
L57583 41202
L57607 41178
L57630 41130
L57630 41083
L57607 41035
L57583 41011
L57535 40988
L57440 40964
L57392 40940
L57369 40916
L57345 40869
L57345 40821
L57369 40773
L57392 40750
L57440 40726
L57559 40726
L57630 40750
" />
<path d="M57773 40726
L58059 40726
" />
<path d="M57916 41226
L57916 40726
" />
<path d="M58107 41273
L58488 41273
" />
<path d="M58559 40726
L58892 40726
L58559 41226
L58892 41226
" />
<path d="M59083 41226
L59083 40726
" />
<path d="M59083 40964
L59369 40964
" />
<path d="M59369 41226
L59369 40726
" />
<path d="M59488 41273
L59869 41273
" />
<path d="M59964 41202
L60035 41226
L60154 41226
L60202 41202
L60226 41178
L60250 41130
L60250 41083
L60226 41035
L60202 41011
L60154 40988
L60059 40964
L60011 40940
L59988 40916
L59964 40869
L59964 40821
L59988 40773
L60011 40750
L60059 40726
L60178 40726
L60250 40750
" />
<path d="M60464 41226
L60464 40726
L60630 41083
L60797 40726
L60797 41226
" />
<path d="M61035 41226
L61035 40726
L61154 40726
L61226 40750
L61273 40797
L61297 40845
L61321 40940
L61321 41011
L61297 41107
L61273 41154
L61226 41202
L61154 41226
L61035 41226
" />
<path d="M61416 41273
L61797 41273
" />
<path d="M61845 40726
L62011 41226
L62178 40726
" />
<path d="M62345 40964
L62511 40964
" />
<path d="M62583 41226
L62345 41226
L62345 40726
L62583 40726
" />
<path d="M63083 41226
L62916 40988
" />
<path d="M62797 41226
L62797 40726
L62988 40726
L63035 40750
L63059 40773
L63083 40821
L63083 40892
L63059 40940
L63035 40964
L62988 40988
L62797 40988
" />
<path d="M63226 40726
L63511 40726
" />
<path d="M63369 41226
L63369 40726
" />
<path d="M63678 41226
L63678 40726
" />
<path d="M64202 41178
L64178 41202
L64107 41226
L64059 41226
L63988 41202
L63940 41154
L63916 41107
L63892 41011
L63892 40940
L63916 40845
L63940 40797
L63988 40750
L64059 40726
L64107 40726
L64178 40750
L64202 40773
" />
<path d="M64392 41083
L64630 41083
" />
<path d="M64345 41226
L64511 40726
L64678 41226
" />
<path d="M65083 41226
L64845 41226
L64845 40726
" />
</g></g>
</g>
<g style="fill:#006464; fill-opacity:0.0; 
stroke:#006464; stroke-width:62.519685; stroke-opacity:1; 
stroke-linecap:round; stroke-linejoin:round;">
</g>
<g style="fill:#006464; fill-opacity:0.0; 
stroke:#006464; stroke-width:60.000000; stroke-opacity:1; 
stroke-linecap:round; stroke-linejoin:round;">
</g>
<g style="fill:#725600; fill-opacity:0.0; 
stroke:#725600; stroke-width:60.000000; stroke-opacity:1; 
stroke-linecap:round; stroke-linejoin:round;">
<text x="54425.000000" y="39250.000000"
textLength="1274.291339" font-size="666.653543" lengthAdjust="spacingAndGlyphs"
text-anchor="end" opacity="0">SDI</text>
<g class="stroked-text"><desc>SDI</desc>
<path d="M53275 39202
L53347 39226
L53466 39226
L53514 39202
L53537 39178
L53561 39130
L53561 39083
L53537 39035
L53514 39011
L53466 38988
L53371 38964
L53323 38940
L53299 38916
L53275 38869
L53275 38821
L53299 38773
L53323 38750
L53371 38726
L53490 38726
L53561 38750
" />
<path d="M53775 39226
L53775 38726
L53895 38726
L53966 38750
L54014 38797
L54037 38845
L54061 38940
L54061 39011
L54037 39107
L54014 39154
L53966 39202
L53895 39226
L53775 39226
" />
<path d="M54275 39226
L54275 38726
" />
</g><path style="fill:#725600; fill-opacity:0.0; 
stroke:#725600; stroke-width:60.000000; stroke-opacity:1; 
stroke-linecap:round; stroke-linejoin:round;fill:none"
d="M 55000.000000,39000.000000
54750.000000,38750.000000
54500.000000,38750.000000
54500.000000,39250.000000
54750.000000,39250.000000
Z" /> 
</g>
<g style="fill:#725600; fill-opacity:0.0; 
stroke:#725600; stroke-width:62.519685; stroke-opacity:1; 
stroke-linecap:round; stroke-linejoin:round;">
</g>
<g style="fill:#725600; fill-opacity:0.0; 
stroke:#725600; stroke-width:60.000000; stroke-opacity:1; 
stroke-linecap:round; stroke-linejoin:round;">
<text x="54425.000000" y="37250.000000"
textLength="1845.708661" font-size="666.653543" lengthAdjust="spacingAndGlyphs"
text-anchor="end" opacity="0">VLED</text>
<g class="stroked-text"><desc>VLED</desc>
<path d="M52656 36726
L52823 37226
L52990 36726
" />
<path d="M53395 37226
L53156 37226
L53156 36726
" />
<path d="M53561 36964
L53728 36964
" />
<path d="M53799 37226
L53561 37226
L53561 36726
L53799 36726
" />
<path d="M54014 37226
L54014 36726
L54133 36726
L54204 36750
L54252 36797
L54275 36845
L54299 36940
L54299 37011
L54275 37107
L54252 37154
L54204 37202
L54133 37226
L54014 37226
" />
</g><path style="fill:#725600; fill-opacity:0.0; 
stroke:#725600; stroke-width:60.000000; stroke-opacity:1; 
stroke-linecap:round; stroke-linejoin:round;fill:none"
d="M 55000.000000,36750.000000
54500.000000,36750.000000
54500.000000,37250.000000
55000.000000,37250.000000
Z" /> 
</g>
<g style="fill:#725600; fill-opacity:0.0; 
stroke:#725600; stroke-width:62.519685; stroke-opacity:1; 
stroke-linecap:round; stroke-linejoin:round;">
</g>
<g style="fill:#725600; fill-opacity:0.0; 
stroke:#725600; stroke-width:60.000000; stroke-opacity:1; 
stroke-linecap:round; stroke-linejoin:round;">
<text x="54425.000000" y="40250.000000"
textLength="1583.818898" font-size="666.653543" lengthAdjust="spacingAndGlyphs"
text-anchor="end" opacity="0">GND</text>
<g class="stroked-text"><desc>GND</desc>
<path d="M53252 39750
L53204 39726
L53133 39726
L53061 39750
L53014 39797
L52990 39845
L52966 39940
L52966 40011
L52990 40107
L53014 40154
L53061 40202
L53133 40226
L53180 40226
L53252 40202
L53275 40178
L53275 40011
L53180 40011
" />
<path d="M53490 40226
L53490 39726
L53775 40226
L53775 39726
" />
<path d="M54014 40226
L54014 39726
L54133 39726
L54204 39750
L54252 39797
L54275 39845
L54299 39940
L54299 40011
L54275 40107
L54252 40154
L54204 40202
L54133 40226
L54014 40226
" />
</g><path style="fill:#725600; fill-opacity:0.0; 
stroke:#725600; stroke-width:60.000000; stroke-opacity:1; 
stroke-linecap:round; stroke-linejoin:round;fill:none"
d="M 55000.000000,39750.000000
54500.000000,39750.000000
54500.000000,40250.000000
55000.000000,40250.000000
Z" /> 
</g>
<g style="fill:#725600; fill-opacity:0.0; 
stroke:#725600; stroke-width:62.519685; stroke-opacity:1; 
stroke-linecap:round; stroke-linejoin:round;">
</g>
<g style="fill:#725600; fill-opacity:0.0; 
stroke:#725600; stroke-width:60.000000; stroke-opacity:1; 
stroke-linecap:round; stroke-linejoin:round;">
<text x="54425.000000" y="38250.000000"
textLength="1298.110236" font-size="666.653543" lengthAdjust="spacingAndGlyphs"
text-anchor="end" opacity="0">CKI</text>
<g class="stroked-text"><desc>CKI</desc>
<path d="M53561 38178
L53537 38202
L53466 38226
L53418 38226
L53347 38202
L53299 38154
L53275 38107
L53252 38011
L53252 37940
L53275 37845
L53299 37797
L53347 37750
L53418 37726
L53466 37726
L53537 37750
L53561 37773
" />
<path d="M53775 38226
L53775 37726
" />
<path d="M54061 38226
L53847 37940
" />
<path d="M54061 37726
L53775 38011
" />
<path d="M54275 38226
L54275 37726
" />
</g><path style="fill:#725600; fill-opacity:0.0; 
stroke:#725600; stroke-width:60.000000; stroke-opacity:1; 
stroke-linecap:round; stroke-linejoin:round;fill:none"
d="M 55000.000000,38000.000000
54750.000000,37750.000000
54500.000000,37750.000000
54500.000000,38250.000000
54750.000000,38250.000000
Z" /> 
</g>
<g style="fill:#009600; fill-opacity:0.0; 
stroke:#009600; stroke-width:60.000000; stroke-opacity:1; 
stroke-linecap:round; stroke-linejoin:round;">
<path d="M55000 38000
L56000 38000
" />
<path d="M55000 39000
L56000 39000
" />
<path d="M55000 40000
L56000 40000
" />
<path d="M55000 37000
L56000 37000
" />
</g> 
</svg>
