<?xml version="1.0" standalone="no"?>
 <!DOCTYPE svg PUBLIC "-//W3C//DTD SVG 1.1//EN" 
 "http://www.w3.org/Graphics/SVG/1.1/DTD/svg11.dtd"> 
<svg
  xmlns:svg="http://www.w3.org/2000/svg"
  xmlns="http://www.w3.org/2000/svg"
  xmlns:xlink="http://www.w3.org/1999/xlink"
  version="1.1"
  width="29.700220cm" height="21.000720cm" viewBox="0 0 116930 82680">
<title>SVG Picture created as biym-board-power-boost-servo.svg date 2022/11/20 15:33:12 </title>
  <desc>Picture generated by Eeschema-SVG </desc>
<g style="fill:#000000; fill-opacity:1.000000;stroke:#000000; stroke-opacity:1.000000;
stroke-linecap:round; stroke-linejoin:round;"
 transform="translate(0 0) scale(1 1)">
</g>
<g style="fill:#840000; fill-opacity:0.0; 
stroke:#840000; stroke-width:0.000000; stroke-opacity:1; 
stroke-linecap:round; stroke-linejoin:round;">
</g>
<g style="fill:#840000; fill-opacity:0.0; 
stroke:#840000; stroke-width:60.000000; stroke-opacity:1; 
stroke-linecap:round; stroke-linejoin:round;">
<rect x="69685.905512" y="65357.165354" width="42519.685039" height="12598.425197" rx="0.000000" />
<rect x="3937.007874" y="3937.007874" width="109055.984252" height="74805.984252" rx="0.000000" />
<rect x="4724.409449" y="4724.409449" width="107481.181102" height="73231.181102" rx="0.000000" />
<path d="M23622 4724
L23622 3937
" />
<path d="M43307 4724
L43307 3937
" />
<path d="M62992 4724
L62992 3937
" />
<path d="M82677 4724
L82677 3937
" />
<path d="M102362 4724
L102362 3937
" />
<text x="13779.527559" y="4586.614173"
textLength="549.960630" font-size="682.401575" lengthAdjust="spacingAndGlyphs"
text-anchor="start" opacity="0">1</text>
<g class="stroked-text"><desc>1</desc>
<path d="M14199 4562
L13907 4562
" />
<path d="M14053 4562
L14053 4050
L14004 4123
L13955 4172
L13907 4196
" />
</g><text x="33464.566929" y="4586.614173"
textLength="547.440945" font-size="682.401575" lengthAdjust="spacingAndGlyphs"
text-anchor="start" opacity="0">2</text>
<g class="stroked-text"><desc>2</desc>
<path d="M33592 4099
L33616 4074
L33665 4050
L33787 4050
L33835 4074
L33860 4099
L33884 4147
L33884 4196
L33860 4269
L33567 4562
L33884 4562
" />
</g><text x="53149.606299" y="4586.614173"
textLength="547.440945" font-size="682.401575" lengthAdjust="spacingAndGlyphs"
text-anchor="start" opacity="0">3</text>
<g class="stroked-text"><desc>3</desc>
<path d="M53252 4050
L53569 4050
L53398 4245
L53472 4245
L53520 4269
L53545 4294
L53569 4342
L53569 4464
L53545 4513
L53520 4537
L53472 4562
L53325 4562
L53277 4537
L53252 4513
" />
</g><text x="72834.645669" y="4586.614173"
textLength="547.440945" font-size="682.401575" lengthAdjust="spacingAndGlyphs"
text-anchor="start" opacity="0">4</text>
<g class="stroked-text"><desc>4</desc>
<path d="M73205 4221
L73205 4562
" />
<path d="M73083 4026
L72962 4391
L73278 4391
" />
</g><text x="92519.685039" y="4586.614173"
textLength="547.440945" font-size="682.401575" lengthAdjust="spacingAndGlyphs"
text-anchor="start" opacity="0">5</text>
<g class="stroked-text"><desc>5</desc>
<path d="M92915 4050
L92671 4050
L92647 4294
L92671 4269
L92720 4245
L92842 4245
L92890 4269
L92915 4294
L92939 4342
L92939 4464
L92915 4513
L92890 4537
L92842 4562
L92720 4562
L92671 4537
L92647 4513
" />
</g><text x="112204.724409" y="4586.614173"
textLength="547.440945" font-size="682.401575" lengthAdjust="spacingAndGlyphs"
text-anchor="start" opacity="0">6</text>
<g class="stroked-text"><desc>6</desc>
<path d="M112575 4050
L112478 4050
L112429 4074
L112405 4099
L112356 4172
L112332 4269
L112332 4464
L112356 4513
L112380 4537
L112429 4562
L112527 4562
L112575 4537
L112600 4513
L112624 4464
L112624 4342
L112600 4294
L112575 4269
L112527 4245
L112429 4245
L112380 4269
L112356 4294
L112332 4342
" />
</g><path d="M23622 77955
L23622 78742
" />
<path d="M43307 77955
L43307 78742
" />
<path d="M62992 77955
L62992 78742
" />
<path d="M82677 77955
L82677 78742
" />
<path d="M102362 77955
L102362 78742
" />
<text x="13779.527559" y="78605.196850"
textLength="547.440945" font-size="682.401575" lengthAdjust="spacingAndGlyphs"
text-anchor="start" opacity="0">1</text>
<g class="stroked-text"><desc>1</desc>
<path d="M14199 78580
L13907 78580
" />
<path d="M14053 78580
L14053 78068
L14004 78142
L13955 78190
L13907 78215
" />
</g><text x="33464.566929" y="78605.196850"
textLength="547.440945" font-size="682.401575" lengthAdjust="spacingAndGlyphs"
text-anchor="start" opacity="0">2</text>
<g class="stroked-text"><desc>2</desc>
<path d="M33592 78117
L33616 78093
L33665 78068
L33787 78068
L33835 78093
L33860 78117
L33884 78166
L33884 78215
L33860 78288
L33567 78580
L33884 78580
" />
</g><text x="53149.606299" y="78605.196850"
textLength="547.440945" font-size="682.401575" lengthAdjust="spacingAndGlyphs"
text-anchor="start" opacity="0">3</text>
<g class="stroked-text"><desc>3</desc>
<path d="M53252 78068
L53569 78068
L53398 78263
L53472 78263
L53520 78288
L53545 78312
L53569 78361
L53569 78483
L53545 78532
L53520 78556
L53472 78580
L53325 78580
L53277 78556
L53252 78532
" />
</g><text x="72834.645669" y="78605.196850"
textLength="547.440945" font-size="682.401575" lengthAdjust="spacingAndGlyphs"
text-anchor="start" opacity="0">4</text>
<g class="stroked-text"><desc>4</desc>
<path d="M73205 78239
L73205 78580
" />
<path d="M73083 78044
L72962 78410
L73278 78410
" />
</g><text x="92519.685039" y="78605.196850"
textLength="547.440945" font-size="682.401575" lengthAdjust="spacingAndGlyphs"
text-anchor="start" opacity="0">5</text>
<g class="stroked-text"><desc>5</desc>
<path d="M92915 78068
L92671 78068
L92647 78312
L92671 78288
L92720 78263
L92842 78263
L92890 78288
L92915 78312
L92939 78361
L92939 78483
L92915 78532
L92890 78556
L92842 78580
L92720 78580
L92671 78556
L92647 78532
" />
</g><text x="112204.724409" y="78605.196850"
textLength="547.440945" font-size="682.401575" lengthAdjust="spacingAndGlyphs"
text-anchor="start" opacity="0">6</text>
<g class="stroked-text"><desc>6</desc>
<path d="M112575 78068
L112478 78068
L112429 78093
L112405 78117
L112356 78190
L112332 78288
L112332 78483
L112356 78532
L112380 78556
L112429 78580
L112527 78580
L112575 78556
L112600 78532
L112624 78483
L112624 78361
L112600 78312
L112575 78288
L112527 78263
L112429 78263
L112380 78288
L112356 78312
L112332 78361
" />
</g><path d="M3937 23622
L4724 23622
" />
<path d="M3937 43307
L4724 43307
" />
<path d="M3937 62992
L4724 62992
" />
<text x="4330.708661" y="14035.433071"
textLength="498.700787" font-size="682.401575" lengthAdjust="spacingAndGlyphs"
text-anchor="middle" opacity="0">A</text>
<g class="stroked-text"><desc>A</desc>
<path d="M4208 13864
L4452 13864
" />
<path d="M4160 14011
L4330 13499
L4501 14011
" />
</g><text x="4330.708661" y="33720.472441"
textLength="571.811024" font-size="682.401575" lengthAdjust="spacingAndGlyphs"
text-anchor="middle" opacity="0">B</text>
<g class="stroked-text"><desc>B</desc>
<path d="M4367 33427
L4440 33452
L4464 33476
L4489 33525
L4489 33598
L4464 33647
L4440 33671
L4391 33696
L4196 33696
L4196 33184
L4367 33184
L4415 33208
L4440 33233
L4464 33281
L4464 33330
L4440 33379
L4415 33403
L4367 33427
L4196 33427
" />
</g><text x="4330.708661" y="53405.511811"
textLength="571.811024" font-size="682.401575" lengthAdjust="spacingAndGlyphs"
text-anchor="middle" opacity="0">C</text>
<g class="stroked-text"><desc>C</desc>
<path d="M4489 53332
L4464 53356
L4391 53381
L4342 53381
L4269 53356
L4221 53307
L4196 53259
L4172 53161
L4172 53088
L4196 52991
L4221 52942
L4269 52893
L4342 52869
L4391 52869
L4464 52893
L4489 52918
" />
</g><text x="4330.708661" y="73090.551181"
textLength="571.811024" font-size="682.401575" lengthAdjust="spacingAndGlyphs"
text-anchor="middle" opacity="0">D</text>
<g class="stroked-text"><desc>D</desc>
<path d="M4196 73066
L4196 72554
L4318 72554
L4391 72578
L4440 72627
L4464 72676
L4489 72773
L4489 72846
L4464 72944
L4440 72993
L4391 73041
L4318 73066
L4196 73066
" />
</g><path d="M112992 23622
L112205 23622
" />
<path d="M112992 43307
L112205 43307
" />
<path d="M112992 62992
L112205 62992
" />
<text x="112599.291339" y="14035.433071"
textLength="498.700787" font-size="682.401575" lengthAdjust="spacingAndGlyphs"
text-anchor="middle" opacity="0">A</text>
<g class="stroked-text"><desc>A</desc>
<path d="M112477 13864
L112721 13864
" />
<path d="M112428 14011
L112599 13499
L112769 14011
" />
</g><text x="112599.291339" y="33720.472441"
textLength="571.811024" font-size="682.401575" lengthAdjust="spacingAndGlyphs"
text-anchor="middle" opacity="0">B</text>
<g class="stroked-text"><desc>B</desc>
<path d="M112635 33427
L112708 33452
L112733 33476
L112757 33525
L112757 33598
L112733 33647
L112708 33671
L112660 33696
L112465 33696
L112465 33184
L112635 33184
L112684 33208
L112708 33233
L112733 33281
L112733 33330
L112708 33379
L112684 33403
L112635 33427
L112465 33427
" />
</g><text x="112599.291339" y="53405.511811"
textLength="571.811024" font-size="682.401575" lengthAdjust="spacingAndGlyphs"
text-anchor="middle" opacity="0">C</text>
<g class="stroked-text"><desc>C</desc>
<path d="M112757 53332
L112733 53356
L112660 53381
L112611 53381
L112538 53356
L112489 53307
L112465 53259
L112440 53161
L112440 53088
L112465 52991
L112489 52942
L112538 52893
L112611 52869
L112660 52869
L112733 52893
L112757 52918
" />
</g><text x="112599.291339" y="73090.551181"
textLength="571.811024" font-size="682.401575" lengthAdjust="spacingAndGlyphs"
text-anchor="middle" opacity="0">D</text>
<g class="stroked-text"><desc>D</desc>
<path d="M112465 73066
L112465 72554
L112587 72554
L112660 72578
L112708 72627
L112733 72676
L112757 72773
L112757 72846
L112733 72944
L112708 72993
L112660 73041
L112587 73066
L112465 73066
" />
</g><text x="78741.023622" y="76321.732283"
textLength="8721.417323" font-size="787.401575" lengthAdjust="spacingAndGlyphs"
text-anchor="start" opacity="0">Date: 2022-11-20</text>
<g class="stroked-text"><desc>Date: 2022-11-20</desc>
<path d="M78911 76293
L78911 75703
L79052 75703
L79136 75731
L79192 75787
L79220 75843
L79249 75956
L79249 76040
L79220 76152
L79192 76209
L79136 76265
L79052 76293
L78911 76293
" />
<path d="M79755 76293
L79755 75984
L79727 75928
L79670 75899
L79558 75899
L79502 75928
" />
<path d="M79755 76265
L79699 76293
L79558 76293
L79502 76265
L79474 76209
L79474 76152
L79502 76096
L79558 76068
L79699 76068
L79755 76040
" />
<path d="M79952 75899
L80177 75899
" />
<path d="M80036 75703
L80036 76209
L80064 76265
L80120 76293
L80177 76293
" />
<path d="M80598 76265
L80542 76293
L80430 76293
L80373 76265
L80345 76209
L80345 75984
L80373 75928
L80430 75899
L80542 75899
L80598 75928
L80627 75984
L80627 76040
L80345 76096
" />
<path d="M80880 76237
L80908 76265
L80880 76293
L80852 76265
L80880 76237
L80880 76293
" />
<path d="M80880 75928
L80908 75956
L80880 75984
L80852 75956
L80880 75928
L80880 75984
" />
<path d="M81583 75759
L81611 75731
L81667 75703
L81808 75703
L81864 75731
L81892 75759
L81920 75815
L81920 75871
L81892 75956
L81555 76293
L81920 76293
" />
<path d="M82286 75703
L82342 75703
L82398 75731
L82426 75759
L82454 75815
L82483 75928
L82483 76068
L82454 76181
L82426 76237
L82398 76265
L82342 76293
L82286 76293
L82229 76265
L82201 76237
L82173 76181
L82145 76068
L82145 75928
L82173 75815
L82201 75759
L82229 75731
L82286 75703
" />
<path d="M82708 75759
L82736 75731
L82792 75703
L82932 75703
L82989 75731
L83017 75759
L83045 75815
L83045 75871
L83017 75956
L82679 76293
L83045 76293
" />
<path d="M83270 75759
L83298 75731
L83354 75703
L83495 75703
L83551 75731
L83579 75759
L83607 75815
L83607 75871
L83579 75956
L83242 76293
L83607 76293
" />
<path d="M83860 76068
L84310 76068
" />
<path d="M84901 76293
L84564 76293
" />
<path d="M84732 76293
L84732 75703
L84676 75787
L84620 75843
L84564 75871
" />
<path d="M85463 76293
L85126 76293
" />
<path d="M85295 76293
L85295 75703
L85238 75787
L85182 75843
L85126 75871
" />
<path d="M85717 76068
L86166 76068
" />
<path d="M86420 75759
L86448 75731
L86504 75703
L86645 75703
L86701 75731
L86729 75759
L86757 75815
L86757 75871
L86729 75956
L86391 76293
L86757 76293
" />
<path d="M87123 75703
L87179 75703
L87235 75731
L87263 75759
L87291 75815
L87319 75928
L87319 76068
L87291 76181
L87263 76237
L87235 76265
L87179 76293
L87123 76293
L87066 76265
L87038 76237
L87010 76181
L86982 76068
L86982 75928
L87010 75815
L87038 75759
L87066 75731
L87123 75703
" />
</g><path d="M69685 76577
L112205 76577
" />
<text x="70079.606299" y="77424.094488"
textLength="11449.212598" font-size="787.401575" lengthAdjust="spacingAndGlyphs"
text-anchor="start" opacity="0">KiCad E.D.A.  kicad 6.0.9</text>
<g class="stroked-text"><desc>KiCad E.D.A.  kicad 6.0.9</desc>
<path d="M70250 77395
L70250 76805
" />
<path d="M70587 77395
L70334 77058
" />
<path d="M70587 76805
L70250 77142
" />
<path d="M70840 77395
L70840 77002
" />
<path d="M70840 76805
L70812 76833
L70840 76861
L70868 76833
L70840 76805
L70840 76861
" />
<path d="M71459 77339
L71431 77367
L71346 77395
L71290 77395
L71206 77367
L71150 77311
L71121 77255
L71093 77142
L71093 77058
L71121 76946
L71150 76889
L71206 76833
L71290 76805
L71346 76805
L71431 76833
L71459 76861
" />
<path d="M71965 77395
L71965 77086
L71937 77030
L71881 77002
L71768 77002
L71712 77030
" />
<path d="M71965 77367
L71909 77395
L71768 77395
L71712 77367
L71684 77311
L71684 77255
L71712 77199
L71768 77170
L71909 77170
L71965 77142
" />
<path d="M72499 77395
L72499 76805
" />
<path d="M72499 77367
L72443 77395
L72331 77395
L72274 77367
L72246 77339
L72218 77283
L72218 77114
L72246 77058
L72274 77030
L72331 77002
L72443 77002
L72499 77030
" />
<path d="M73231 77086
L73427 77086
" />
<path d="M73512 77395
L73231 77395
L73231 76805
L73512 76805
" />
<path d="M73765 77339
L73793 77367
L73765 77395
L73737 77367
L73765 77339
L73765 77395
" />
<path d="M74046 77395
L74046 76805
L74187 76805
L74271 76833
L74327 76889
L74355 76946
L74384 77058
L74384 77142
L74355 77255
L74327 77311
L74271 77367
L74187 77395
L74046 77395
" />
<path d="M74637 77339
L74665 77367
L74637 77395
L74609 77367
L74637 77339
L74637 77395
" />
<path d="M74890 77227
L75171 77227
" />
<path d="M74834 77395
L75030 76805
L75227 77395
" />
<path d="M75424 77339
L75452 77367
L75424 77395
L75396 77367
L75424 77339
L75424 77395
" />
<path d="M76605 77395
L76605 76805
" />
<path d="M76661 77170
L76830 77395
" />
<path d="M76830 77002
L76605 77227
" />
<path d="M77083 77395
L77083 77002
" />
<path d="M77083 76805
L77055 76833
L77083 76861
L77111 76833
L77083 76805
L77083 76861
" />
<path d="M77618 77367
L77561 77395
L77449 77395
L77393 77367
L77364 77339
L77336 77283
L77336 77114
L77364 77058
L77393 77030
L77449 77002
L77561 77002
L77618 77030
" />
<path d="M78124 77395
L78124 77086
L78096 77030
L78039 77002
L77927 77002
L77871 77030
" />
<path d="M78124 77367
L78067 77395
L77927 77395
L77871 77367
L77842 77311
L77842 77255
L77871 77199
L77927 77170
L78067 77170
L78124 77142
" />
<path d="M78658 77395
L78658 76805
" />
<path d="M78658 77367
L78602 77395
L78489 77395
L78433 77367
L78405 77339
L78377 77283
L78377 77114
L78405 77058
L78433 77030
L78489 77002
L78602 77002
L78658 77030
" />
<path d="M79642 76805
L79530 76805
L79474 76833
L79445 76861
L79389 76946
L79361 77058
L79361 77283
L79389 77339
L79417 77367
L79474 77395
L79586 77395
L79642 77367
L79670 77339
L79699 77283
L79699 77142
L79670 77086
L79642 77058
L79586 77030
L79474 77030
L79417 77058
L79389 77086
L79361 77142
" />
<path d="M79952 77339
L79980 77367
L79952 77395
L79923 77367
L79952 77339
L79952 77395
" />
<path d="M80345 76805
L80402 76805
L80458 76833
L80486 76861
L80514 76917
L80542 77030
L80542 77170
L80514 77283
L80486 77339
L80458 77367
L80402 77395
L80345 77395
L80289 77367
L80261 77339
L80233 77283
L80205 77170
L80205 77030
L80233 76917
L80261 76861
L80289 76833
L80345 76805
" />
<path d="M80795 77339
L80823 77367
L80795 77395
L80767 77367
L80795 77339
L80795 77395
" />
<path d="M81105 77395
L81217 77395
L81273 77367
L81301 77339
L81358 77255
L81386 77142
L81386 76917
L81358 76861
L81330 76833
L81273 76805
L81161 76805
L81105 76833
L81076 76861
L81048 76917
L81048 77058
L81076 77114
L81105 77142
L81161 77170
L81273 77170
L81330 77142
L81358 77114
L81386 77058
" />
</g><path d="M69685 75396
L112205 75396
" />
</g>
<g style="fill:#840000; fill-opacity:0.0; 
stroke:#840000; stroke-width:118.110236; stroke-opacity:1; 
stroke-linecap:round; stroke-linejoin:round;">
<text x="103544.173228" y="76321.732283"
textLength="3743.897638" font-size="787.401575" lengthAdjust="spacingAndGlyphs"
text-anchor="start" opacity="0">Rev: 1.1</text>
<g class="stroked-text"><desc>Rev: 1.1</desc>
<path d="M104098 76293
L103902 76012
" />
<path d="M103761 76293
L103761 75703
L103986 75703
L104042 75731
L104070 75759
L104098 75815
L104098 75899
L104070 75956
L104042 75984
L103986 76012
L103761 76012
" />
<path d="M104577 76265
L104520 76293
L104408 76293
L104352 76265
L104323 76209
L104323 75984
L104352 75928
L104408 75899
L104520 75899
L104577 75928
L104605 75984
L104605 76040
L104323 76096
" />
<path d="M104802 75899
L104942 76293
L105083 75899
" />
<path d="M105308 76237
L105336 76265
L105308 76293
L105280 76265
L105308 76237
L105308 76293
" />
<path d="M105308 75928
L105336 75956
L105308 75984
L105280 75956
L105308 75928
L105308 75984
" />
<path d="M106348 76293
L106011 76293
" />
<path d="M106180 76293
L106180 75703
L106123 75787
L106067 75843
L106011 75871
" />
<path d="M106601 76237
L106629 76265
L106601 76293
L106573 76265
L106601 76237
L106601 76293
" />
<path d="M107192 76293
L106854 76293
" />
<path d="M107023 76293
L107023 75703
L106967 75787
L106911 75843
L106854 75871
" />
</g></g>
<g style="fill:#840000; fill-opacity:0.0; 
stroke:#840000; stroke-width:60.000000; stroke-opacity:1; 
stroke-linecap:round; stroke-linejoin:round;">
<text x="70079.606299" y="76321.732283"
textLength="3781.220472" font-size="787.401575" lengthAdjust="spacingAndGlyphs"
text-anchor="start" opacity="0">Size: A4</text>
<g class="stroked-text"><desc>Size: A4</desc>
<path d="M70222 76265
L70306 76293
L70447 76293
L70503 76265
L70531 76237
L70559 76181
L70559 76124
L70531 76068
L70503 76040
L70447 76012
L70334 75984
L70278 75956
L70250 75928
L70222 75871
L70222 75815
L70250 75759
L70278 75731
L70334 75703
L70475 75703
L70559 75731
" />
<path d="M70812 76293
L70812 75899
" />
<path d="M70812 75703
L70784 75731
L70812 75759
L70840 75731
L70812 75703
L70812 75759
" />
<path d="M71037 75899
L71346 75899
L71037 76293
L71346 76293
" />
<path d="M71796 76265
L71740 76293
L71628 76293
L71571 76265
L71543 76209
L71543 75984
L71571 75928
L71628 75899
L71740 75899
L71796 75928
L71825 75984
L71825 76040
L71543 76096
" />
<path d="M72078 76237
L72106 76265
L72078 76293
L72049 76265
L72078 76237
L72078 76293
" />
<path d="M72078 75928
L72106 75956
L72078 75984
L72049 75956
L72078 75928
L72078 75984
" />
<path d="M72781 76124
L73062 76124
" />
<path d="M72724 76293
L72921 75703
L73118 76293
" />
<path d="M73568 75899
L73568 76293
" />
<path d="M73427 75674
L73287 76096
L73652 76096
" />
</g><text x="103544.173228" y="77424.094488"
textLength="3912.637795" font-size="787.401575" lengthAdjust="spacingAndGlyphs"
text-anchor="start" opacity="0">Id: 9/10</text>
<g class="stroked-text"><desc>Id: 9/10</desc>
<path d="M103714 77395
L103714 76805
" />
<path d="M104249 77395
L104249 76805
" />
<path d="M104249 77367
L104192 77395
L104080 77395
L104024 77367
L103995 77339
L103967 77283
L103967 77114
L103995 77058
L104024 77030
L104080 77002
L104192 77002
L104249 77030
" />
<path d="M104530 77339
L104558 77367
L104530 77395
L104502 77367
L104530 77339
L104530 77395
" />
<path d="M104530 77030
L104558 77058
L104530 77086
L104502 77058
L104530 77030
L104530 77086
" />
<path d="M105289 77395
L105402 77395
L105458 77367
L105486 77339
L105542 77255
L105570 77142
L105570 76917
L105542 76861
L105514 76833
L105458 76805
L105345 76805
L105289 76833
L105261 76861
L105233 76917
L105233 77058
L105261 77114
L105289 77142
L105345 77170
L105458 77170
L105514 77142
L105542 77114
L105570 77058
" />
<path d="M106245 76777
L105739 77536
" />
<path d="M106751 77395
L106414 77395
" />
<path d="M106583 77395
L106583 76805
L106526 76889
L106470 76946
L106414 76974
" />
<path d="M107117 76805
L107173 76805
L107229 76833
L107258 76861
L107286 76917
L107314 77030
L107314 77170
L107286 77283
L107258 77339
L107229 77367
L107173 77395
L107117 77395
L107061 77367
L107033 77339
L107004 77283
L106976 77170
L106976 77030
L107004 76917
L107033 76861
L107061 76833
L107117 76805
" />
</g><path d="M69685 73821
L112205 73821
" />
</g>
<g style="fill:#840000; fill-opacity:0.0; 
stroke:#840000; stroke-width:157.480315; stroke-opacity:1; 
stroke-linecap:round; stroke-linejoin:round;">
<text x="70079.606299" y="74924.094488"
textLength="19341.062992" font-size="1049.842520" lengthAdjust="spacingAndGlyphs"
text-anchor="start" opacity="0">Title: biym-board-power-boost</text>
<g class="stroked-text"><desc>Title: biym-board-power-boost</desc>
<path d="M70360 74099
L70810 74099
" />
<path d="M70486 74886
L70585 74099
" />
<path d="M70974 74886
L71039 74361
" />
<path d="M71072 74099
L71030 74136
L71063 74174
L71105 74136
L71072 74099
L71063 74174
" />
<path d="M71302 74361
L71602 74361
" />
<path d="M71447 74099
L71363 74774
L71391 74849
L71461 74886
L71536 74886
" />
<path d="M71911 74886
L71841 74849
L71812 74774
L71897 74099
" />
<path d="M72516 74849
L72436 74886
L72286 74886
L72216 74849
L72187 74774
L72225 74474
L72272 74399
L72352 74361
L72501 74361
L72572 74399
L72600 74474
L72591 74549
L72206 74624
" />
<path d="M72895 74811
L72928 74849
L72886 74886
L72853 74849
L72895 74811
L72886 74886
" />
<path d="M72947 74399
L72980 74436
L72937 74474
L72905 74436
L72947 74399
L72937 74474
" />
<path d="M73861 74886
L73959 74099
" />
<path d="M73922 74399
L74001 74361
L74151 74361
L74222 74399
L74254 74436
L74282 74511
L74254 74736
L74207 74811
L74165 74849
L74086 74886
L73936 74886
L73865 74849
" />
<path d="M74573 74886
L74639 74361
" />
<path d="M74672 74099
L74629 74136
L74662 74174
L74704 74136
L74672 74099
L74662 74174
" />
<path d="M74939 74361
L75061 74886
" />
<path d="M75314 74361
L75061 74886
L74962 75074
L74920 75111
L74840 75149
" />
<path d="M75548 74886
L75614 74361
" />
<path d="M75604 74436
L75646 74399
L75726 74361
L75839 74361
L75909 74399
L75937 74474
L75885 74886
" />
<path d="M75937 74474
L75984 74399
L76064 74361
L76176 74361
L76246 74399
L76274 74474
L76223 74886
" />
<path d="M76635 74586
L77235 74586
" />
<path d="M77573 74886
L77671 74099
" />
<path d="M77634 74399
L77713 74361
L77863 74361
L77934 74399
L77966 74436
L77995 74511
L77966 74736
L77920 74811
L77877 74849
L77798 74886
L77648 74886
L77577 74849
" />
<path d="M78398 74886
L78327 74849
L78295 74811
L78266 74736
L78295 74511
L78341 74436
L78384 74399
L78463 74361
L78576 74361
L78646 74399
L78679 74436
L78707 74511
L78679 74736
L78632 74811
L78590 74849
L78510 74886
L78398 74886
" />
<path d="M79335 74886
L79387 74474
L79358 74399
L79288 74361
L79138 74361
L79058 74399
" />
<path d="M79340 74849
L79260 74886
L79073 74886
L79002 74849
L78974 74774
L78983 74699
L79030 74624
L79110 74586
L79297 74586
L79377 74549
" />
<path d="M79710 74886
L79776 74361
" />
<path d="M79757 74511
L79804 74436
L79846 74399
L79926 74361
L80001 74361
" />
<path d="M80535 74886
L80633 74099
" />
<path d="M80540 74849
L80460 74886
L80310 74886
L80240 74849
L80207 74811
L80179 74736
L80207 74511
L80254 74436
L80296 74399
L80375 74361
L80525 74361
L80596 74399
" />
<path d="M80947 74586
L81547 74586
" />
<path d="M81950 74361
L81852 75149
" />
<path d="M81946 74399
L82025 74361
L82175 74361
L82246 74399
L82278 74436
L82307 74511
L82278 74736
L82232 74811
L82189 74849
L82110 74886
L81960 74886
L81889 74849
" />
<path d="M82710 74886
L82639 74849
L82606 74811
L82578 74736
L82606 74511
L82653 74436
L82696 74399
L82775 74361
L82888 74361
L82958 74399
L82991 74436
L83019 74511
L82991 74736
L82944 74811
L82902 74849
L82822 74886
L82710 74886
" />
<path d="M83300 74361
L83385 74886
L83581 74511
L83684 74886
L83900 74361
" />
<path d="M84439 74849
L84359 74886
L84209 74886
L84139 74849
L84111 74774
L84148 74474
L84195 74399
L84275 74361
L84425 74361
L84495 74399
L84523 74474
L84514 74549
L84130 74624
" />
<path d="M84809 74886
L84875 74361
" />
<path d="M84856 74511
L84903 74436
L84945 74399
L85025 74361
L85100 74361
" />
<path d="M85334 74586
L85934 74586
" />
<path d="M86272 74886
L86370 74099
" />
<path d="M86333 74399
L86412 74361
L86562 74361
L86633 74399
L86665 74436
L86693 74511
L86665 74736
L86618 74811
L86576 74849
L86497 74886
L86347 74886
L86276 74849
" />
<path d="M87097 74886
L87026 74849
L86993 74811
L86965 74736
L86993 74511
L87040 74436
L87082 74399
L87162 74361
L87275 74361
L87345 74399
L87378 74436
L87406 74511
L87378 74736
L87331 74811
L87289 74849
L87209 74886
L87097 74886
" />
<path d="M87809 74886
L87739 74849
L87706 74811
L87678 74736
L87706 74511
L87753 74436
L87795 74399
L87875 74361
L87987 74361
L88057 74399
L88090 74436
L88118 74511
L88090 74736
L88043 74811
L88001 74849
L87921 74886
L87809 74886
" />
<path d="M88376 74849
L88446 74886
L88596 74886
L88676 74849
L88723 74774
L88728 74736
L88699 74661
L88629 74624
L88517 74624
L88446 74586
L88418 74511
L88423 74474
L88470 74399
L88549 74361
L88662 74361
L88732 74399
" />
<path d="M88999 74361
L89299 74361
" />
<path d="M89145 74099
L89060 74774
L89088 74849
L89159 74886
L89234 74886
" />
</g></g>
<g style="fill:#840000; fill-opacity:0.0; 
stroke:#840000; stroke-width:60.000000; stroke-opacity:1; 
stroke-linecap:round; stroke-linejoin:round;">
<text x="70079.606299" y="73408.346457"
textLength="9541.062992" font-size="787.401575" lengthAdjust="spacingAndGlyphs"
text-anchor="start" opacity="0">File: boost.kicad_sch</text>
<g class="stroked-text"><desc>File: boost.kicad_sch</desc>
<path d="M70447 73070
L70250 73070
" />
<path d="M70250 73380
L70250 72789
L70531 72789
" />
<path d="M70756 73380
L70756 72986
" />
<path d="M70756 72789
L70728 72817
L70756 72845
L70784 72817
L70756 72789
L70756 72845
" />
<path d="M71121 73380
L71065 73352
L71037 73295
L71037 72789
" />
<path d="M71571 73352
L71515 73380
L71403 73380
L71346 73352
L71318 73295
L71318 73070
L71346 73014
L71403 72986
L71515 72986
L71571 73014
L71600 73070
L71600 73127
L71318 73183
" />
<path d="M71853 73323
L71881 73352
L71853 73380
L71825 73352
L71853 73323
L71853 73380
" />
<path d="M71853 73014
L71881 73042
L71853 73070
L71825 73042
L71853 73014
L71853 73070
" />
<path d="M72584 73380
L72584 72789
" />
<path d="M72584 73014
L72640 72986
L72752 72986
L72809 73014
L72837 73042
L72865 73098
L72865 73267
L72837 73323
L72809 73352
L72752 73380
L72640 73380
L72584 73352
" />
<path d="M73202 73380
L73146 73352
L73118 73323
L73090 73267
L73090 73098
L73118 73042
L73146 73014
L73202 72986
L73287 72986
L73343 73014
L73371 73042
L73399 73098
L73399 73267
L73371 73323
L73343 73352
L73287 73380
L73202 73380
" />
<path d="M73737 73380
L73681 73352
L73652 73323
L73624 73267
L73624 73098
L73652 73042
L73681 73014
L73737 72986
L73821 72986
L73877 73014
L73905 73042
L73934 73098
L73934 73267
L73905 73323
L73877 73352
L73821 73380
L73737 73380
" />
<path d="M74159 73352
L74215 73380
L74327 73380
L74384 73352
L74412 73295
L74412 73267
L74384 73211
L74327 73183
L74243 73183
L74187 73155
L74159 73098
L74159 73070
L74187 73014
L74243 72986
L74327 72986
L74384 73014
" />
<path d="M74580 72986
L74805 72986
" />
<path d="M74665 72789
L74665 73295
L74693 73352
L74749 73380
L74805 73380
" />
<path d="M75002 73323
L75030 73352
L75002 73380
L74974 73352
L75002 73323
L75002 73380
" />
<path d="M75283 73380
L75283 72789
" />
<path d="M75340 73155
L75508 73380
" />
<path d="M75508 72986
L75283 73211
" />
<path d="M75762 73380
L75762 72986
" />
<path d="M75762 72789
L75733 72817
L75762 72845
L75790 72817
L75762 72789
L75762 72845
" />
<path d="M76296 73352
L76240 73380
L76127 73380
L76071 73352
L76043 73323
L76015 73267
L76015 73098
L76043 73042
L76071 73014
L76127 72986
L76240 72986
L76296 73014
" />
<path d="M76802 73380
L76802 73070
L76774 73014
L76718 72986
L76605 72986
L76549 73014
" />
<path d="M76802 73352
L76746 73380
L76605 73380
L76549 73352
L76521 73295
L76521 73239
L76549 73183
L76605 73155
L76746 73155
L76802 73127
" />
<path d="M77336 73380
L77336 72789
" />
<path d="M77336 73352
L77280 73380
L77168 73380
L77111 73352
L77083 73323
L77055 73267
L77055 73098
L77083 73042
L77111 73014
L77168 72986
L77280 72986
L77336 73014
" />
<path d="M77477 73436
L77927 73436
" />
<path d="M78039 73352
L78096 73380
L78208 73380
L78264 73352
L78292 73295
L78292 73267
L78264 73211
L78208 73183
L78124 73183
L78067 73155
L78039 73098
L78039 73070
L78067 73014
L78124 72986
L78208 72986
L78264 73014
" />
<path d="M78799 73352
L78742 73380
L78630 73380
L78574 73352
L78546 73323
L78517 73267
L78517 73098
L78546 73042
L78574 73014
L78630 72986
L78742 72986
L78799 73014
" />
<path d="M79052 73380
L79052 72789
" />
<path d="M79305 73380
L79305 73070
L79277 73014
L79220 72986
L79136 72986
L79080 73014
L79052 73042
" />
</g><path d="M69685 71459
L112205 71459
" />
<text x="70079.606299" y="72345.354331"
textLength="13136.496063" font-size="787.401575" lengthAdjust="spacingAndGlyphs"
text-anchor="start" opacity="0">Sheet: /power/boost-servo/</text>
<g class="stroked-text"><desc>Sheet: /power/boost-servo/</desc>
<path d="M70222 72289
L70306 72317
L70447 72317
L70503 72289
L70531 72260
L70559 72204
L70559 72148
L70531 72092
L70503 72064
L70447 72035
L70334 72007
L70278 71979
L70250 71951
L70222 71895
L70222 71839
L70250 71782
L70278 71754
L70334 71726
L70475 71726
L70559 71754
" />
<path d="M70812 72317
L70812 71726
" />
<path d="M71065 72317
L71065 72007
L71037 71951
L70981 71923
L70897 71923
L70840 71951
L70812 71979
" />
<path d="M71571 72289
L71515 72317
L71403 72317
L71346 72289
L71318 72232
L71318 72007
L71346 71951
L71403 71923
L71515 71923
L71571 71951
L71600 72007
L71600 72064
L71318 72120
" />
<path d="M72078 72289
L72021 72317
L71909 72317
L71853 72289
L71825 72232
L71825 72007
L71853 71951
L71909 71923
L72021 71923
L72078 71951
L72106 72007
L72106 72064
L71825 72120
" />
<path d="M72274 71923
L72499 71923
" />
<path d="M72359 71726
L72359 72232
L72387 72289
L72443 72317
L72499 72317
" />
<path d="M72696 72260
L72724 72289
L72696 72317
L72668 72289
L72696 72260
L72696 72317
" />
<path d="M72696 71951
L72724 71979
L72696 72007
L72668 71979
L72696 71951
L72696 72007
" />
<path d="M73849 71698
L73343 72457
" />
<path d="M74046 71923
L74046 72514
" />
<path d="M74046 71951
L74102 71923
L74215 71923
L74271 71951
L74299 71979
L74327 72035
L74327 72204
L74299 72260
L74271 72289
L74215 72317
L74102 72317
L74046 72289
" />
<path d="M74665 72317
L74609 72289
L74580 72260
L74552 72204
L74552 72035
L74580 71979
L74609 71951
L74665 71923
L74749 71923
L74805 71951
L74834 71979
L74862 72035
L74862 72204
L74834 72260
L74805 72289
L74749 72317
L74665 72317
" />
<path d="M75058 71923
L75171 72317
L75283 72035
L75396 72317
L75508 71923
" />
<path d="M75958 72289
L75902 72317
L75790 72317
L75733 72289
L75705 72232
L75705 72007
L75733 71951
L75790 71923
L75902 71923
L75958 71951
L75986 72007
L75986 72064
L75705 72120
" />
<path d="M76240 72317
L76240 71923
" />
<path d="M76240 72035
L76268 71979
L76296 71951
L76352 71923
L76408 71923
" />
<path d="M77027 71698
L76521 72457
" />
<path d="M77224 72317
L77224 71726
" />
<path d="M77224 71951
L77280 71923
L77393 71923
L77449 71951
L77477 71979
L77505 72035
L77505 72204
L77477 72260
L77449 72289
L77393 72317
L77280 72317
L77224 72289
" />
<path d="M77842 72317
L77786 72289
L77758 72260
L77730 72204
L77730 72035
L77758 71979
L77786 71951
L77842 71923
L77927 71923
L77983 71951
L78011 71979
L78039 72035
L78039 72204
L78011 72260
L77983 72289
L77927 72317
L77842 72317
" />
<path d="M78377 72317
L78321 72289
L78292 72260
L78264 72204
L78264 72035
L78292 71979
L78321 71951
L78377 71923
L78461 71923
L78517 71951
L78546 71979
L78574 72035
L78574 72204
L78546 72260
L78517 72289
L78461 72317
L78377 72317
" />
<path d="M78799 72289
L78855 72317
L78967 72317
L79024 72289
L79052 72232
L79052 72204
L79024 72148
L78967 72120
L78883 72120
L78827 72092
L78799 72035
L78799 72007
L78827 71951
L78883 71923
L78967 71923
L79024 71951
" />
<path d="M79220 71923
L79445 71923
" />
<path d="M79305 71726
L79305 72232
L79333 72289
L79389 72317
L79445 72317
" />
<path d="M79642 72092
L80092 72092
" />
<path d="M80345 72289
L80402 72317
L80514 72317
L80570 72289
L80598 72232
L80598 72204
L80570 72148
L80514 72120
L80430 72120
L80373 72092
L80345 72035
L80345 72007
L80373 71951
L80430 71923
L80514 71923
L80570 71951
" />
<path d="M81076 72289
L81020 72317
L80908 72317
L80852 72289
L80823 72232
L80823 72007
L80852 71951
L80908 71923
L81020 71923
L81076 71951
L81105 72007
L81105 72064
L80823 72120
" />
<path d="M81358 72317
L81358 71923
" />
<path d="M81358 72035
L81386 71979
L81414 71951
L81470 71923
L81526 71923
" />
<path d="M81667 71923
L81808 72317
L81948 71923
" />
<path d="M82258 72317
L82201 72289
L82173 72260
L82145 72204
L82145 72035
L82173 71979
L82201 71951
L82258 71923
L82342 71923
L82398 71951
L82426 71979
L82454 72035
L82454 72204
L82426 72260
L82398 72289
L82342 72317
L82258 72317
" />
<path d="M83129 71698
L82623 72457
" />
</g></g>
<g style="fill:#840000; fill-opacity:0.0; 
stroke:#840000; stroke-width:118.110236; stroke-opacity:1; 
stroke-linecap:round; stroke-linejoin:round;">
<text x="70079.606299" y="71164.251969"
textLength="6499.803150" font-size="787.401575" lengthAdjust="spacingAndGlyphs"
text-anchor="start" opacity="0">Peter Polidoro</text>
<g class="stroked-text"><desc>Peter Polidoro</desc>
<path d="M70296 71136
L70296 70545
L70521 70545
L70578 70573
L70606 70601
L70634 70658
L70634 70742
L70606 70798
L70578 70826
L70521 70854
L70296 70854
" />
<path d="M71112 71107
L71056 71136
L70943 71136
L70887 71107
L70859 71051
L70859 70826
L70887 70770
L70943 70742
L71056 70742
L71112 70770
L71140 70826
L71140 70883
L70859 70939
" />
<path d="M71309 70742
L71534 70742
" />
<path d="M71393 70545
L71393 71051
L71421 71107
L71478 71136
L71534 71136
" />
<path d="M71956 71107
L71899 71136
L71787 71136
L71731 71107
L71703 71051
L71703 70826
L71731 70770
L71787 70742
L71899 70742
L71956 70770
L71984 70826
L71984 70883
L71703 70939
" />
<path d="M72237 71136
L72237 70742
" />
<path d="M72237 70854
L72265 70798
L72293 70770
L72349 70742
L72406 70742
" />
<path d="M73052 71136
L73052 70545
L73277 70545
L73334 70573
L73362 70601
L73390 70658
L73390 70742
L73362 70798
L73334 70826
L73277 70854
L73052 70854
" />
<path d="M73727 71136
L73671 71107
L73643 71079
L73615 71023
L73615 70854
L73643 70798
L73671 70770
L73727 70742
L73812 70742
L73868 70770
L73896 70798
L73924 70854
L73924 71023
L73896 71079
L73868 71107
L73812 71136
L73727 71136
" />
<path d="M74262 71136
L74205 71107
L74177 71051
L74177 70545
" />
<path d="M74487 71136
L74487 70742
" />
<path d="M74487 70545
L74458 70573
L74487 70601
L74515 70573
L74487 70545
L74487 70601
" />
<path d="M75021 71136
L75021 70545
" />
<path d="M75021 71107
L74965 71136
L74852 71136
L74796 71107
L74768 71079
L74740 71023
L74740 70854
L74768 70798
L74796 70770
L74852 70742
L74965 70742
L75021 70770
" />
<path d="M75386 71136
L75330 71107
L75302 71079
L75274 71023
L75274 70854
L75302 70798
L75330 70770
L75386 70742
L75471 70742
L75527 70770
L75555 70798
L75583 70854
L75583 71023
L75555 71079
L75527 71107
L75471 71136
L75386 71136
" />
<path d="M75836 71136
L75836 70742
" />
<path d="M75836 70854
L75865 70798
L75893 70770
L75949 70742
L76005 70742
" />
<path d="M76286 71136
L76230 71107
L76202 71079
L76174 71023
L76174 70854
L76202 70798
L76230 70770
L76286 70742
L76371 70742
L76427 70770
L76455 70798
L76483 70854
L76483 71023
L76455 71079
L76427 71107
L76371 71136
L76286 71136
" />
</g></g>
<g style="fill:#840000; fill-opacity:0.0; 
stroke:#840000; stroke-width:60.000000; stroke-opacity:1; 
stroke-linecap:round; stroke-linejoin:round;">
<text x="70079.606299" y="69983.149606"
textLength="153.543307" font-size="787.401575" lengthAdjust="spacingAndGlyphs"
text-anchor="start" opacity="0"></text>
<g class="stroked-text"><desc></desc>
</g><text x="70079.606299" y="68802.047244"
textLength="60.000000" font-size="787.401575" lengthAdjust="spacingAndGlyphs"
text-anchor="start" opacity="0"></text>
<g class="stroked-text"><desc></desc>
</g><text x="70079.606299" y="67620.944882"
textLength="60.000000" font-size="787.401575" lengthAdjust="spacingAndGlyphs"
text-anchor="start" opacity="0"></text>
<g class="stroked-text"><desc></desc>
</g><text x="70079.606299" y="66439.842520"
textLength="60.000000" font-size="787.401575" lengthAdjust="spacingAndGlyphs"
text-anchor="start" opacity="0"></text>
<g class="stroked-text"><desc></desc>
</g><path d="M77559 75396
L77559 76577
" />
<path d="M102756 75396
L102756 77955
" />
<g >
</g>
<g style="fill:#840000; fill-opacity:0.0; 
stroke:#840000; stroke-width:120.000000; stroke-opacity:1; 
stroke-linecap:round; stroke-linejoin:round;">
<rect x="39100.000000" y="44000.000000" width="800.000000" height="3000.000000" rx="0.000000" />
</g>
<g style="fill:#840000; fill-opacity:0.0; 
stroke:#840000; stroke-width:60.000000; stroke-opacity:1; 
stroke-linecap:round; stroke-linejoin:round;">
<path d="M39500 44000
L39500 43000
" />
<path d="M39500 47000
L39500 48000
" />
</g>
<g style="fill:#006464; fill-opacity:0.0; 
stroke:#006464; stroke-width:60.000000; stroke-opacity:1; 
stroke-linecap:round; stroke-linejoin:round;">
<text x="40415.472441" y="45200.000000"
textLength="840.944882" font-size="533.307087" lengthAdjust="spacingAndGlyphs"
text-anchor="middle" opacity="0">R3</text>
<g class="stroked-text"><desc>R3</desc>
<path d="M40348 45180
L40215 44990
" />
<path d="M40120 45180
L40120 44780
L40272 44780
L40310 44800
L40329 44819
L40348 44857
L40348 44914
L40329 44952
L40310 44971
L40272 44990
L40120 44990
" />
<path d="M40482 44780
L40729 44780
L40596 44933
L40653 44933
L40691 44952
L40710 44971
L40729 45009
L40729 45104
L40710 45142
L40691 45161
L40653 45180
L40539 45180
L40501 45161
L40482 45142
" />
</g><text x="40497.322835" y="46150.000000"
textLength="1017.125984" font-size="400.000000" lengthAdjust="spacingAndGlyphs"
text-anchor="middle" opacity="0">5.1k</text>
<g class="stroked-text"><desc>5.1k</desc>
<path d="M40233 45835
L40090 45835
L40075 45978
L40090 45964
L40118 45950
L40190 45950
L40218 45964
L40233 45978
L40247 46007
L40247 46078
L40233 46107
L40218 46121
L40190 46135
L40118 46135
L40090 46121
L40075 46107
" />
<path d="M40375 46107
L40390 46121
L40375 46135
L40361 46121
L40375 46107
L40375 46135
" />
<path d="M40675 46135
L40504 46135
" />
<path d="M40590 46135
L40590 45835
L40561 45878
L40533 45907
L40504 45921
" />
<path d="M40804 46135
L40804 45835
" />
<path d="M40833 46021
L40918 46135
" />
<path d="M40918 45935
L40804 46050
" />
</g></g>
</g>
<g style="fill:#006464; fill-opacity:0.0; 
stroke:#006464; stroke-width:60.000000; stroke-opacity:1; 
stroke-linecap:round; stroke-linejoin:round;">
<g >
</g>
<g style="fill:#840000; fill-opacity:0.0; 
stroke:#840000; stroke-width:60.000000; stroke-opacity:1; 
stroke-linecap:round; stroke-linejoin:round;">
</g>
<g style="fill:#840000; fill-opacity:0.0; 
stroke:#840000; stroke-width:200.000000; stroke-opacity:1; 
stroke-linecap:round; stroke-linejoin:round;">
<path style="fill:#840000; fill-opacity:0.0; 
stroke:#840000; stroke-width:200.000000; stroke-opacity:1; 
stroke-linecap:round; stroke-linejoin:round;fill:none"
d="M 38700.000000,33800.000000
40300.000000,33800.000000
" /> 
<path style="fill:#840000; fill-opacity:0.0; 
stroke:#840000; stroke-width:200.000000; stroke-opacity:1; 
stroke-linecap:round; stroke-linejoin:round;fill:none"
d="M 38700.000000,33200.000000
40300.000000,33200.000000
" /> 
</g>
<g style="fill:#840000; fill-opacity:0.0; 
stroke:#840000; stroke-width:60.000000; stroke-opacity:1; 
stroke-linecap:round; stroke-linejoin:round;">
<path d="M39500 33200
L39500 31500
" />
<path d="M39500 33800
L39500 35500
" />
</g>
<g style="fill:#006464; fill-opacity:0.0; 
stroke:#006464; stroke-width:60.000000; stroke-opacity:1; 
stroke-linecap:round; stroke-linejoin:round;">
<text x="40605.944882" y="32700.000000"
textLength="1221.889764" font-size="533.307087" lengthAdjust="spacingAndGlyphs"
text-anchor="middle" opacity="0">C14</text>
<g class="stroked-text"><desc>C14</desc>
<path d="M40348 32642
L40329 32661
L40272 32680
L40234 32680
L40177 32661
L40139 32623
L40120 32585
L40101 32509
L40101 32452
L40120 32376
L40139 32338
L40177 32300
L40234 32280
L40272 32280
L40329 32300
L40348 32319
" />
<path d="M40729 32680
L40501 32680
" />
<path d="M40615 32680
L40615 32280
L40577 32338
L40539 32376
L40501 32395
" />
<path d="M41072 32414
L41072 32680
" />
<path d="M40977 32261
L40882 32547
L41129 32547
" />
</g><text x="41068.740157" y="33650.000000"
textLength="1160.000000" font-size="400.000000" lengthAdjust="spacingAndGlyphs"
text-anchor="middle" opacity="0">10uF</text>
<g class="stroked-text"><desc>10uF</desc>
<path d="M40747 33635
L40575 33635
" />
<path d="M40661 33635
L40661 33335
L40632 33378
L40604 33407
L40575 33421
" />
<path d="M40932 33335
L40961 33335
L40990 33350
L41004 33364
L41018 33392
L41032 33450
L41032 33521
L41018 33578
L41004 33607
L40990 33621
L40961 33635
L40932 33635
L40904 33621
L40890 33607
L40875 33578
L40861 33521
L40861 33450
L40875 33392
L40890 33364
L40904 33350
L40932 33335
" />
<path d="M41290 33435
L41290 33635
" />
<path d="M41161 33435
L41161 33592
L41175 33621
L41204 33635
L41247 33635
L41275 33621
L41290 33607
" />
<path d="M41532 33478
L41432 33478
" />
<path d="M41432 33635
L41432 33335
L41575 33335
" />
</g></g>
</g>
<g style="fill:#006464; fill-opacity:0.0; 
stroke:#006464; stroke-width:60.000000; stroke-opacity:1; 
stroke-linecap:round; stroke-linejoin:round;">
<g >
</g>
<g style="fill:#840000; fill-opacity:0.0; 
stroke:#840000; stroke-width:60.000000; stroke-opacity:1; 
stroke-linecap:round; stroke-linejoin:round;">
</g>
<g style="fill:#840000; fill-opacity:0.0; 
stroke:#840000; stroke-width:200.000000; stroke-opacity:1; 
stroke-linecap:round; stroke-linejoin:round;">
<path style="fill:#840000; fill-opacity:0.0; 
stroke:#840000; stroke-width:200.000000; stroke-opacity:1; 
stroke-linecap:round; stroke-linejoin:round;fill:none"
d="M 66700.000000,34800.000000
68300.000000,34800.000000
" /> 
<path style="fill:#840000; fill-opacity:0.0; 
stroke:#840000; stroke-width:200.000000; stroke-opacity:1; 
stroke-linecap:round; stroke-linejoin:round;fill:none"
d="M 66700.000000,34200.000000
68300.000000,34200.000000
" /> 
</g>
<g style="fill:#840000; fill-opacity:0.0; 
stroke:#840000; stroke-width:60.000000; stroke-opacity:1; 
stroke-linecap:round; stroke-linejoin:round;">
<path d="M67500 34200
L67500 32500
" />
<path d="M67500 34800
L67500 36500
" />
</g>
<g style="fill:#006464; fill-opacity:0.0; 
stroke:#006464; stroke-width:60.000000; stroke-opacity:1; 
stroke-linecap:round; stroke-linejoin:round;">
<text x="68605.944882" y="33700.000000"
textLength="1221.889764" font-size="533.307087" lengthAdjust="spacingAndGlyphs"
text-anchor="middle" opacity="0">C16</text>
<g class="stroked-text"><desc>C16</desc>
<path d="M68348 33642
L68329 33661
L68272 33680
L68234 33680
L68177 33661
L68139 33623
L68120 33585
L68101 33509
L68101 33452
L68120 33376
L68139 33338
L68177 33300
L68234 33280
L68272 33280
L68329 33300
L68348 33319
" />
<path d="M68729 33680
L68501 33680
" />
<path d="M68615 33680
L68615 33280
L68577 33338
L68539 33376
L68501 33395
" />
<path d="M69072 33280
L68996 33280
L68958 33300
L68939 33319
L68901 33376
L68882 33452
L68882 33604
L68901 33642
L68920 33661
L68958 33680
L69034 33680
L69072 33661
L69091 33642
L69110 33604
L69110 33509
L69091 33471
L69072 33452
L69034 33433
L68958 33433
L68920 33452
L68901 33471
L68882 33509
" />
</g><text x="69068.740157" y="34650.000000"
textLength="1160.000000" font-size="400.000000" lengthAdjust="spacingAndGlyphs"
text-anchor="middle" opacity="0">10uF</text>
<g class="stroked-text"><desc>10uF</desc>
<path d="M68747 34635
L68575 34635
" />
<path d="M68661 34635
L68661 34335
L68632 34378
L68604 34407
L68575 34421
" />
<path d="M68932 34335
L68961 34335
L68990 34350
L69004 34364
L69018 34392
L69032 34450
L69032 34521
L69018 34578
L69004 34607
L68990 34621
L68961 34635
L68932 34635
L68904 34621
L68890 34607
L68875 34578
L68861 34521
L68861 34450
L68875 34392
L68890 34364
L68904 34350
L68932 34335
" />
<path d="M69290 34435
L69290 34635
" />
<path d="M69161 34435
L69161 34592
L69175 34621
L69204 34635
L69247 34635
L69275 34621
L69290 34607
" />
<path d="M69532 34478
L69432 34478
" />
<path d="M69432 34635
L69432 34335
L69575 34335
" />
</g></g>
</g>
<g style="fill:#006464; fill-opacity:0.0; 
stroke:#006464; stroke-width:60.000000; stroke-opacity:1; 
stroke-linecap:round; stroke-linejoin:round;">
<g >
</g>
<g style="fill:#840000; fill-opacity:0.0; 
stroke:#840000; stroke-width:60.000000; stroke-opacity:1; 
stroke-linecap:round; stroke-linejoin:round;">
<rect x="48500.000000" y="38000.000000" width="5000.000000" height="5000.000000" rx="0.000000" />
<path d="M52500 38000
L52500 37000
" />
</g>
<g style="fill:#006464; fill-opacity:0.0; 
stroke:#006464; stroke-width:60.000000; stroke-opacity:1; 
stroke-linecap:round; stroke-linejoin:round;">
<g transform="rotate(-90.000000 52500.000000 38400.000000)">
<text x="52500.000000" y="38650.000000"
textLength="940.944882" font-size="666.653543" lengthAdjust="spacingAndGlyphs"
text-anchor="end" opacity="0">LX</text>
</g>
<g class="stroked-text"><desc>LX</desc>
<path d="M52726 38953
L52726 39191
L52226 39191
" />
<path d="M52226 38834
L52726 38501
" />
<path d="M52226 38501
L52726 38834
" />
</g></g>
<g style="fill:#A90000; fill-opacity:0.0; 
stroke:#A90000; stroke-width:60.000000; stroke-opacity:1; 
stroke-linecap:round; stroke-linejoin:round;">
<g transform="rotate(-90.000000 52400.000000 37500.000000)">
<text x="52400.000000" y="37500.000000"
textLength="536.181102" font-size="666.653543" lengthAdjust="spacingAndGlyphs"
text-anchor="middle" opacity="0">1</text>
</g>
<g class="stroked-text"><desc>1</desc>
<path d="M52376 37357
L52376 37642
" />
<path d="M52376 37500
L51876 37500
L51947 37547
L51995 37595
L52019 37642
" />
</g></g>
<g style="fill:#840000; fill-opacity:0.0; 
stroke:#840000; stroke-width:60.000000; stroke-opacity:1; 
stroke-linecap:round; stroke-linejoin:round;">
<path d="M51000 43000
L51000 44000
" />
</g>
<g style="fill:#006464; fill-opacity:0.0; 
stroke:#006464; stroke-width:60.000000; stroke-opacity:1; 
stroke-linecap:round; stroke-linejoin:round;">
<g transform="rotate(-90.000000 51000.000000 42600.000000)">
<text x="51000.000000" y="42850.000000"
textLength="1583.818898" font-size="666.653543" lengthAdjust="spacingAndGlyphs"
text-anchor="start" opacity="0">GND</text>
</g>
<g class="stroked-text"><desc>GND</desc>
<path d="M50750 42189
L50726 42236
L50726 42308
L50750 42379
L50797 42427
L50845 42450
L50940 42474
L51011 42474
L51107 42450
L51154 42427
L51202 42379
L51226 42308
L51226 42260
L51202 42189
L51178 42165
L51011 42165
L51011 42260
" />
<path d="M51226 41950
L50726 41950
L51226 41665
L50726 41665
" />
<path d="M51226 41427
L50726 41427
L50726 41308
L50750 41236
L50797 41189
L50845 41165
L50940 41141
L51011 41141
L51107 41165
L51154 41189
L51202 41236
L51226 41308
L51226 41427
" />
</g></g>
<g style="fill:#A90000; fill-opacity:0.0; 
stroke:#A90000; stroke-width:60.000000; stroke-opacity:1; 
stroke-linecap:round; stroke-linejoin:round;">
<g transform="rotate(-90.000000 50900.000000 43500.000000)">
<text x="50900.000000" y="43500.000000"
textLength="536.181102" font-size="666.653543" lengthAdjust="spacingAndGlyphs"
text-anchor="middle" opacity="0">2</text>
</g>
<g class="stroked-text"><desc>2</desc>
<path d="M50423 43642
L50400 43619
L50376 43571
L50376 43452
L50400 43404
L50423 43380
L50471 43357
L50519 43357
L50590 43380
L50876 43666
L50876 43357
" />
</g></g>
<g style="fill:#840000; fill-opacity:0.0; 
stroke:#840000; stroke-width:60.000000; stroke-opacity:1; 
stroke-linecap:round; stroke-linejoin:round;">
<path d="M48500 40500
L47500 40500
" />
</g>
<g style="fill:#006464; fill-opacity:0.0; 
stroke:#006464; stroke-width:60.000000; stroke-opacity:1; 
stroke-linecap:round; stroke-linejoin:round;">
<text x="48900.000000" y="40750.000000"
textLength="1012.362205" font-size="666.653543" lengthAdjust="spacingAndGlyphs"
text-anchor="start" opacity="0">CE</text>
<g class="stroked-text"><desc>CE</desc>
<path d="M49334 40678
L49310 40702
L49239 40726
L49191 40726
L49120 40702
L49072 40654
L49049 40607
L49025 40511
L49025 40440
L49049 40345
L49072 40297
L49120 40250
L49191 40226
L49239 40226
L49310 40250
L49334 40273
" />
<path d="M49549 40464
L49715 40464
" />
<path d="M49787 40726
L49549 40726
L49549 40226
L49787 40226
" />
</g></g>
<g style="fill:#A90000; fill-opacity:0.0; 
stroke:#A90000; stroke-width:60.000000; stroke-opacity:1; 
stroke-linecap:round; stroke-linejoin:round;">
<text x="48000.000000" y="40400.000000"
textLength="536.181102" font-size="666.653543" lengthAdjust="spacingAndGlyphs"
text-anchor="middle" opacity="0">3</text>
<g class="stroked-text"><desc>3</desc>
<path d="M47833 39876
L48142 39876
L47976 40066
L48047 40066
L48095 40090
L48119 40114
L48142 40161
L48142 40280
L48119 40328
L48095 40352
L48047 40376
L47904 40376
L47857 40352
L47833 40328
" />
</g></g>
<g style="fill:#840000; fill-opacity:0.0; 
stroke:#840000; stroke-width:60.000000; stroke-opacity:1; 
stroke-linecap:round; stroke-linejoin:round;">
<path d="M49500 38000
L49500 37000
" />
</g>
<g style="fill:#006464; fill-opacity:0.0; 
stroke:#006464; stroke-width:60.000000; stroke-opacity:1; 
stroke-linecap:round; stroke-linejoin:round;">
<g transform="rotate(-90.000000 49500.000000 38400.000000)">
<text x="49500.000000" y="38650.000000"
textLength="1250.472441" font-size="666.653543" lengthAdjust="spacingAndGlyphs"
text-anchor="end" opacity="0">VIN</text>
</g>
<g class="stroked-text"><desc>VIN</desc>
<path d="M49226 39572
L49726 39406
L49226 39239
" />
<path d="M49726 39072
L49226 39072
" />
<path d="M49726 38834
L49226 38834
L49726 38549
L49226 38549
" />
</g></g>
<g style="fill:#A90000; fill-opacity:0.0; 
stroke:#A90000; stroke-width:60.000000; stroke-opacity:1; 
stroke-linecap:round; stroke-linejoin:round;">
<g transform="rotate(-90.000000 49400.000000 37500.000000)">
<text x="49400.000000" y="37500.000000"
textLength="536.181102" font-size="666.653543" lengthAdjust="spacingAndGlyphs"
text-anchor="middle" opacity="0">4</text>
</g>
<g class="stroked-text"><desc>4</desc>
<path d="M49042 37404
L49376 37404
" />
<path d="M48852 37523
L49209 37642
L49209 37333
" />
</g></g>
<g style="fill:#840000; fill-opacity:0.0; 
stroke:#840000; stroke-width:60.000000; stroke-opacity:1; 
stroke-linecap:round; stroke-linejoin:round;">
<path d="M53500 40500
L54500 40500
" />
</g>
<g style="fill:#006464; fill-opacity:0.0; 
stroke:#006464; stroke-width:60.000000; stroke-opacity:1; 
stroke-linecap:round; stroke-linejoin:round;">
<text x="53100.000000" y="40750.000000"
textLength="1917.125984" font-size="666.653543" lengthAdjust="spacingAndGlyphs"
text-anchor="end" opacity="0">VOUT</text>
<g class="stroked-text"><desc>VOUT</desc>
<path d="M51260 40226
L51427 40726
L51593 40226
" />
<path d="M51855 40226
L51950 40226
L51998 40250
L52046 40297
L52070 40392
L52070 40559
L52046 40654
L51998 40702
L51950 40726
L51855 40726
L51808 40702
L51760 40654
L51736 40559
L51736 40392
L51760 40297
L51808 40250
L51855 40226
" />
<path d="M52284 40226
L52284 40630
L52308 40678
L52331 40702
L52379 40726
L52474 40726
L52522 40702
L52546 40678
L52570 40630
L52570 40226
" />
<path d="M52736 40226
L53022 40226
" />
<path d="M52879 40726
L52879 40226
" />
</g></g>
<g style="fill:#A90000; fill-opacity:0.0; 
stroke:#A90000; stroke-width:60.000000; stroke-opacity:1; 
stroke-linecap:round; stroke-linejoin:round;">
<text x="54000.000000" y="40400.000000"
textLength="536.181102" font-size="666.653543" lengthAdjust="spacingAndGlyphs"
text-anchor="middle" opacity="0">5</text>
<g class="stroked-text"><desc>5</desc>
<path d="M54119 39876
L53880 39876
L53857 40114
L53880 40090
L53928 40066
L54047 40066
L54095 40090
L54119 40114
L54142 40161
L54142 40280
L54119 40328
L54095 40352
L54047 40376
L53928 40376
L53880 40352
L53857 40328
" />
</g></g>
<g style="fill:#006464; fill-opacity:0.0; 
stroke:#006464; stroke-width:60.000000; stroke-opacity:1; 
stroke-linecap:round; stroke-linejoin:round;">
<text x="53500.000000" y="37700.000000"
textLength="860.000000" font-size="533.307087" lengthAdjust="spacingAndGlyphs"
text-anchor="middle" opacity="0">U5</text>
<g class="stroked-text"><desc>U5</desc>
<path d="M53195 37280
L53195 37604
L53214 37642
L53233 37661
L53271 37680
L53347 37680
L53385 37661
L53404 37642
L53423 37604
L53423 37280
" />
<path d="M53804 37280
L53614 37280
L53595 37471
L53614 37452
L53652 37433
L53747 37433
L53785 37452
L53804 37471
L53823 37509
L53823 37604
L53804 37642
L53785 37661
L53747 37680
L53652 37680
L53614 37661
L53595 37642
" />
</g><text x="55000.000000" y="43700.000000"
textLength="7164.763780" font-size="533.307087" lengthAdjust="spacingAndGlyphs"
text-anchor="middle" opacity="0">BOOST_5V_RP402N501F</text>
<g class="stroked-text"><desc>BOOST_5V_RP402N501F</desc>
<path d="M51676 43471
L51733 43490
L51752 43509
L51771 43547
L51771 43604
L51752 43642
L51733 43661
L51695 43680
L51542 43680
L51542 43280
L51676 43280
L51714 43300
L51733 43319
L51752 43357
L51752 43395
L51733 43433
L51714 43452
L51676 43471
L51542 43471
" />
<path d="M52019 43280
L52095 43280
L52133 43300
L52171 43338
L52190 43414
L52190 43547
L52171 43623
L52133 43661
L52095 43680
L52019 43680
L51980 43661
L51942 43623
L51923 43547
L51923 43414
L51942 43338
L51980 43300
L52019 43280
" />
<path d="M52438 43280
L52514 43280
L52552 43300
L52590 43338
L52609 43414
L52609 43547
L52590 43623
L52552 43661
L52514 43680
L52438 43680
L52400 43661
L52361 43623
L52342 43547
L52342 43414
L52361 43338
L52400 43300
L52438 43280
" />
<path d="M52761 43661
L52819 43680
L52914 43680
L52952 43661
L52971 43642
L52990 43604
L52990 43566
L52971 43528
L52952 43509
L52914 43490
L52838 43471
L52800 43452
L52780 43433
L52761 43395
L52761 43357
L52780 43319
L52800 43300
L52838 43280
L52933 43280
L52990 43300
" />
<path d="M53104 43280
L53333 43280
" />
<path d="M53219 43680
L53219 43280
" />
<path d="M53371 43719
L53676 43719
" />
<path d="M53961 43280
L53771 43280
L53752 43471
L53771 43452
L53809 43433
L53904 43433
L53942 43452
L53961 43471
L53980 43509
L53980 43604
L53961 43642
L53942 43661
L53904 43680
L53809 43680
L53771 43661
L53752 43642
" />
<path d="M54095 43280
L54228 43680
L54361 43280
" />
<path d="M54400 43719
L54704 43719
" />
<path d="M55028 43680
L54895 43490
" />
<path d="M54800 43680
L54800 43280
L54952 43280
L54990 43300
L55009 43319
L55028 43357
L55028 43414
L55009 43452
L54990 43471
L54952 43490
L54800 43490
" />
<path d="M55200 43680
L55200 43280
L55352 43280
L55390 43300
L55409 43319
L55428 43357
L55428 43414
L55409 43452
L55390 43471
L55352 43490
L55200 43490
" />
<path d="M55771 43414
L55771 43680
" />
<path d="M55676 43261
L55580 43547
L55828 43547
" />
<path d="M56057 43280
L56095 43280
L56133 43300
L56152 43319
L56171 43357
L56190 43433
L56190 43528
L56171 43604
L56152 43642
L56133 43661
L56095 43680
L56057 43680
L56019 43661
L56000 43642
L55980 43604
L55961 43528
L55961 43433
L55980 43357
L56000 43319
L56019 43300
L56057 43280
" />
<path d="M56342 43319
L56361 43300
L56400 43280
L56495 43280
L56533 43300
L56552 43319
L56571 43357
L56571 43395
L56552 43452
L56323 43680
L56571 43680
" />
<path d="M56742 43680
L56742 43280
L56971 43680
L56971 43280
" />
<path d="M57352 43280
L57161 43280
L57142 43471
L57161 43452
L57200 43433
L57295 43433
L57333 43452
L57352 43471
L57371 43509
L57371 43604
L57352 43642
L57333 43661
L57295 43680
L57200 43680
L57161 43661
L57142 43642
" />
<path d="M57619 43280
L57657 43280
L57695 43300
L57714 43319
L57733 43357
L57752 43433
L57752 43528
L57733 43604
L57714 43642
L57695 43661
L57657 43680
L57619 43680
L57580 43661
L57561 43642
L57542 43604
L57523 43528
L57523 43433
L57542 43357
L57561 43319
L57580 43300
L57619 43280
" />
<path d="M58133 43680
L57904 43680
" />
<path d="M58019 43680
L58019 43280
L57980 43338
L57942 43376
L57904 43395
" />
<path d="M58438 43471
L58304 43471
" />
<path d="M58304 43680
L58304 43280
L58495 43280
" />
</g></g>
</g>
<g style="fill:#006464; fill-opacity:0.0; 
stroke:#006464; stroke-width:60.000000; stroke-opacity:1; 
stroke-linecap:round; stroke-linejoin:round;">
<g >
</g>
<g style="fill:#840000; fill-opacity:0.0; 
stroke:#840000; stroke-width:60.000000; stroke-opacity:1; 
stroke-linecap:round; stroke-linejoin:round;">
</g>
<g style="fill:#840000; fill-opacity:0.0; 
stroke:#840000; stroke-width:200.000000; stroke-opacity:1; 
stroke-linecap:round; stroke-linejoin:round;">
<path style="fill:#840000; fill-opacity:0.0; 
stroke:#840000; stroke-width:200.000000; stroke-opacity:1; 
stroke-linecap:round; stroke-linejoin:round;fill:none"
d="M 60200.000000,34800.000000
61800.000000,34800.000000
" /> 
<path style="fill:#840000; fill-opacity:0.0; 
stroke:#840000; stroke-width:200.000000; stroke-opacity:1; 
stroke-linecap:round; stroke-linejoin:round;fill:none"
d="M 60200.000000,34200.000000
61800.000000,34200.000000
" /> 
</g>
<g style="fill:#840000; fill-opacity:0.0; 
stroke:#840000; stroke-width:60.000000; stroke-opacity:1; 
stroke-linecap:round; stroke-linejoin:round;">
<path d="M61000 34200
L61000 32500
" />
<path d="M61000 34800
L61000 36500
" />
</g>
<g style="fill:#006464; fill-opacity:0.0; 
stroke:#006464; stroke-width:60.000000; stroke-opacity:1; 
stroke-linecap:round; stroke-linejoin:round;">
<text x="62105.944882" y="33700.000000"
textLength="1221.889764" font-size="533.307087" lengthAdjust="spacingAndGlyphs"
text-anchor="middle" opacity="0">C15</text>
<g class="stroked-text"><desc>C15</desc>
<path d="M61848 33642
L61829 33661
L61772 33680
L61734 33680
L61677 33661
L61639 33623
L61620 33585
L61601 33509
L61601 33452
L61620 33376
L61639 33338
L61677 33300
L61734 33280
L61772 33280
L61829 33300
L61848 33319
" />
<path d="M62229 33680
L62001 33680
" />
<path d="M62115 33680
L62115 33280
L62077 33338
L62039 33376
L62001 33395
" />
<path d="M62591 33280
L62401 33280
L62382 33471
L62401 33452
L62439 33433
L62534 33433
L62572 33452
L62591 33471
L62610 33509
L62610 33604
L62591 33642
L62572 33661
L62534 33680
L62439 33680
L62401 33661
L62382 33642
" />
</g><text x="62568.740157" y="34650.000000"
textLength="1160.000000" font-size="400.000000" lengthAdjust="spacingAndGlyphs"
text-anchor="middle" opacity="0">10uF</text>
<g class="stroked-text"><desc>10uF</desc>
<path d="M62247 34635
L62075 34635
" />
<path d="M62161 34635
L62161 34335
L62132 34378
L62104 34407
L62075 34421
" />
<path d="M62432 34335
L62461 34335
L62490 34350
L62504 34364
L62518 34392
L62532 34450
L62532 34521
L62518 34578
L62504 34607
L62490 34621
L62461 34635
L62432 34635
L62404 34621
L62390 34607
L62375 34578
L62361 34521
L62361 34450
L62375 34392
L62390 34364
L62404 34350
L62432 34335
" />
<path d="M62790 34435
L62790 34635
" />
<path d="M62661 34435
L62661 34592
L62675 34621
L62704 34635
L62747 34635
L62775 34621
L62790 34607
" />
<path d="M63032 34478
L62932 34478
" />
<path d="M62932 34635
L62932 34335
L63075 34335
" />
</g></g>
</g>
<g style="fill:#006464; fill-opacity:0.0; 
stroke:#006464; stroke-width:60.000000; stroke-opacity:1; 
stroke-linecap:round; stroke-linejoin:round;">
<g >
</g>
<g style="fill:#840000; fill-opacity:0.0; 
stroke:#840000; stroke-width:60.000000; stroke-opacity:1; 
stroke-linecap:round; stroke-linejoin:round;">
<path d="M51999.999619 31999.563668 A250.000000 250.000000 0.0 0 0 51500.000381 31999.563668" />
<path d="M51499.999619 31999.563668 A250.000000 250.000000 0.0 0 0 51000.000381 31999.563668" />
<path d="M50999.999619 31999.563668 A250.000000 250.000000 0.0 0 0 50500.000381 31999.563668" />
<path d="M50499.999619 31999.563668 A250.000000 250.000000 0.0 0 0 50000.000381 31999.563668" />
<path d="M50000 32000
L49500 32000
" />
<path d="M52000 32000
L52500 32000
" />
</g>
<g style="fill:#006464; fill-opacity:0.0; 
stroke:#006464; stroke-width:60.000000; stroke-opacity:1; 
stroke-linecap:round; stroke-linejoin:round;">
<text x="51000.000000" y="31250.000000"
textLength="940.944882" font-size="666.653543" lengthAdjust="spacingAndGlyphs"
text-anchor="middle" opacity="0">L2</text>
<g class="stroked-text"><desc>L2</desc>
<path d="M50916 31226
L50678 31226
L50678 30726
" />
<path d="M51059 30773
L51083 30750
L51130 30726
L51250 30726
L51297 30750
L51321 30773
L51345 30821
L51345 30869
L51321 30940
L51035 31226
L51345 31226
" />
</g><text x="50999.960630" y="32750.000000"
textLength="2226.653543" font-size="666.653543" lengthAdjust="spacingAndGlyphs"
text-anchor="middle" opacity="0">2.2uH</text>
<g class="stroked-text"><desc>2.2uH</desc>
<path d="M50011 32273
L50035 32250
L50083 32226
L50202 32226
L50249 32250
L50273 32273
L50297 32321
L50297 32369
L50273 32440
L49988 32726
L50297 32726
" />
<path d="M50511 32678
L50535 32702
L50511 32726
L50488 32702
L50511 32678
L50511 32726
" />
<path d="M50726 32273
L50749 32250
L50797 32226
L50916 32226
L50964 32250
L50988 32273
L51011 32321
L51011 32369
L50988 32440
L50702 32726
L51011 32726
" />
<path d="M51440 32392
L51440 32726
" />
<path d="M51226 32392
L51226 32654
L51249 32702
L51297 32726
L51368 32726
L51416 32702
L51440 32678
" />
<path d="M51678 32726
L51678 32226
" />
<path d="M51678 32464
L51964 32464
" />
<path d="M51964 32726
L51964 32226
" />
</g></g>
</g>
<g style="fill:#006464; fill-opacity:0.0; 
stroke:#006464; stroke-width:62.519685; stroke-opacity:1; 
stroke-linecap:round; stroke-linejoin:round;">
</g>
<g style="fill:#006464; fill-opacity:0.0; 
stroke:#006464; stroke-width:60.000000; stroke-opacity:1; 
stroke-linecap:round; stroke-linejoin:round;">
</g>
<g style="fill:#725600; fill-opacity:0.0; 
stroke:#725600; stroke-width:60.000000; stroke-opacity:1; 
stroke-linecap:round; stroke-linejoin:round;">
<text x="28925.000000" y="39750.000000"
textLength="1250.472441" font-size="666.653543" lengthAdjust="spacingAndGlyphs"
text-anchor="end" opacity="0">VIN</text>
<g class="stroked-text"><desc>VIN</desc>
<path d="M27752 39226
L27918 39726
L28085 39226
" />
<path d="M28252 39726
L28252 39226
" />
<path d="M28490 39726
L28490 39226
L28775 39726
L28775 39226
" />
</g><path style="fill:#725600; fill-opacity:0.0; 
stroke:#725600; stroke-width:60.000000; stroke-opacity:1; 
stroke-linecap:round; stroke-linejoin:round;fill:none"
d="M 29500.000000,39250.000000
29000.000000,39250.000000
29000.000000,39750.000000
29500.000000,39750.000000
Z" /> 
</g>
<g style="fill:#725600; fill-opacity:0.0; 
stroke:#725600; stroke-width:62.519685; stroke-opacity:1; 
stroke-linecap:round; stroke-linejoin:round;">
</g>
<g style="fill:#725600; fill-opacity:0.0; 
stroke:#725600; stroke-width:60.000000; stroke-opacity:1; 
stroke-linecap:round; stroke-linejoin:round;">
<text x="28925.000000" y="41750.000000"
textLength="2821.889764" font-size="666.653543" lengthAdjust="spacingAndGlyphs"
text-anchor="end" opacity="0">ENABLE</text>
<g class="stroked-text"><desc>ENABLE</desc>
<path d="M26252 41464
L26418 41464
" />
<path d="M26490 41726
L26252 41726
L26252 41226
L26490 41226
" />
<path d="M26704 41726
L26704 41226
L26990 41726
L26990 41226
" />
<path d="M27204 41583
L27442 41583
" />
<path d="M27156 41726
L27323 41226
L27490 41726
" />
<path d="M27823 41464
L27895 41488
L27918 41511
L27942 41559
L27942 41630
L27918 41678
L27895 41702
L27847 41726
L27656 41726
L27656 41226
L27823 41226
L27871 41250
L27895 41273
L27918 41321
L27918 41369
L27895 41416
L27871 41440
L27823 41464
L27656 41464
" />
<path d="M28395 41726
L28156 41726
L28156 41226
" />
<path d="M28561 41464
L28728 41464
" />
<path d="M28799 41726
L28561 41726
L28561 41226
L28799 41226
" />
</g><path style="fill:#725600; fill-opacity:0.0; 
stroke:#725600; stroke-width:60.000000; stroke-opacity:1; 
stroke-linecap:round; stroke-linejoin:round;fill:none"
d="M 29500.000000,41500.000000
29250.000000,41250.000000
29000.000000,41250.000000
29000.000000,41750.000000
29250.000000,41750.000000
Z" /> 
</g>
<g style="fill:#725600; fill-opacity:0.0; 
stroke:#725600; stroke-width:62.519685; stroke-opacity:1; 
stroke-linecap:round; stroke-linejoin:round;">
</g>
<g style="fill:#725600; fill-opacity:0.0; 
stroke:#725600; stroke-width:60.000000; stroke-opacity:1; 
stroke-linecap:round; stroke-linejoin:round;">
<text x="28925.000000" y="40750.000000"
textLength="1583.818898" font-size="666.653543" lengthAdjust="spacingAndGlyphs"
text-anchor="end" opacity="0">GND</text>
<g class="stroked-text"><desc>GND</desc>
<path d="M27752 40250
L27704 40226
L27633 40226
L27561 40250
L27514 40297
L27490 40345
L27466 40440
L27466 40511
L27490 40607
L27514 40654
L27561 40702
L27633 40726
L27680 40726
L27752 40702
L27775 40678
L27775 40511
L27680 40511
" />
<path d="M27990 40726
L27990 40226
L28275 40726
L28275 40226
" />
<path d="M28514 40726
L28514 40226
L28633 40226
L28704 40250
L28752 40297
L28775 40345
L28799 40440
L28799 40511
L28775 40607
L28752 40654
L28704 40702
L28633 40726
L28514 40726
" />
</g><path style="fill:#725600; fill-opacity:0.0; 
stroke:#725600; stroke-width:60.000000; stroke-opacity:1; 
stroke-linecap:round; stroke-linejoin:round;fill:none"
d="M 29500.000000,40250.000000
29000.000000,40250.000000
29000.000000,40750.000000
29500.000000,40750.000000
Z" /> 
</g>
<g style="fill:#725600; fill-opacity:0.0; 
stroke:#725600; stroke-width:62.519685; stroke-opacity:1; 
stroke-linecap:round; stroke-linejoin:round;">
</g>
<g style="fill:#725600; fill-opacity:0.0; 
stroke:#725600; stroke-width:60.000000; stroke-opacity:1; 
stroke-linecap:round; stroke-linejoin:round;">
<text x="78075.000000" y="40750.000000"
textLength="3845.708661" font-size="666.653543" lengthAdjust="spacingAndGlyphs"
text-anchor="start" opacity="0">VBOOSTED</text>
<g class="stroked-text"><desc>VBOOSTED</desc>
<path d="M78152 40226
L78319 40726
L78485 40226
" />
<path d="M78819 40464
L78890 40488
L78914 40511
L78938 40559
L78938 40630
L78914 40678
L78890 40702
L78843 40726
L78652 40726
L78652 40226
L78819 40226
L78866 40250
L78890 40273
L78914 40321
L78914 40369
L78890 40416
L78866 40440
L78819 40464
L78652 40464
" />
<path d="M79247 40226
L79343 40226
L79390 40250
L79438 40297
L79462 40392
L79462 40559
L79438 40654
L79390 40702
L79343 40726
L79247 40726
L79200 40702
L79152 40654
L79128 40559
L79128 40392
L79152 40297
L79200 40250
L79247 40226
" />
<path d="M79771 40226
L79866 40226
L79914 40250
L79962 40297
L79985 40392
L79985 40559
L79962 40654
L79914 40702
L79866 40726
L79771 40726
L79724 40702
L79676 40654
L79652 40559
L79652 40392
L79676 40297
L79724 40250
L79771 40226
" />
<path d="M80176 40702
L80247 40726
L80366 40726
L80414 40702
L80438 40678
L80462 40630
L80462 40583
L80438 40535
L80414 40511
L80366 40488
L80271 40464
L80224 40440
L80200 40416
L80176 40369
L80176 40321
L80200 40273
L80224 40250
L80271 40226
L80390 40226
L80462 40250
" />
<path d="M80605 40226
L80890 40226
" />
<path d="M80747 40726
L80747 40226
" />
<path d="M81057 40464
L81224 40464
" />
<path d="M81295 40726
L81057 40726
L81057 40226
L81295 40226
" />
<path d="M81509 40726
L81509 40226
L81628 40226
L81700 40250
L81747 40297
L81771 40345
L81795 40440
L81795 40511
L81771 40607
L81747 40654
L81700 40702
L81628 40726
L81509 40726
" />
</g><path style="fill:#725600; fill-opacity:0.0; 
stroke:#725600; stroke-width:60.000000; stroke-opacity:1; 
stroke-linecap:round; stroke-linejoin:round;fill:none"
d="M 78000.000000,40500.000000
77750.000000,40250.000000
77500.000000,40250.000000
77500.000000,40750.000000
77750.000000,40750.000000
Z" /> 
</g>
<g style="fill:#725600; fill-opacity:0.0; 
stroke:#725600; stroke-width:62.519685; stroke-opacity:1; 
stroke-linecap:round; stroke-linejoin:round;">
</g>
<g style="fill:#725600; fill-opacity:0.0; 
stroke:#725600; stroke-width:60.000000; stroke-opacity:1; 
stroke-linecap:round; stroke-linejoin:round;">
</g>
<g style="fill:#0F0F0F; fill-opacity:0.0; 
stroke:#0F0F0F; stroke-width:60.000000; stroke-opacity:1; 
stroke-linecap:round; stroke-linejoin:round;">
<text x="76500.000000" y="40362.480315"
textLength="3845.708661" font-size="666.653543" lengthAdjust="spacingAndGlyphs"
text-anchor="end" opacity="0">VBOOSTED</text>
<g class="stroked-text"><desc>VBOOSTED</desc>
<path d="M72731 39838
L72898 40338
L73065 39838
" />
<path d="M73398 40076
L73470 40100
L73493 40124
L73517 40171
L73517 40243
L73493 40291
L73470 40314
L73422 40338
L73231 40338
L73231 39838
L73398 39838
L73446 39862
L73470 39886
L73493 39933
L73493 39981
L73470 40029
L73446 40052
L73398 40076
L73231 40076
" />
<path d="M73827 39838
L73922 39838
L73970 39862
L74017 39910
L74041 40005
L74041 40171
L74017 40267
L73970 40314
L73922 40338
L73827 40338
L73779 40314
L73731 40267
L73708 40171
L73708 40005
L73731 39910
L73779 39862
L73827 39838
" />
<path d="M74350 39838
L74446 39838
L74493 39862
L74541 39910
L74565 40005
L74565 40171
L74541 40267
L74493 40314
L74446 40338
L74350 40338
L74303 40314
L74255 40267
L74231 40171
L74231 40005
L74255 39910
L74303 39862
L74350 39838
" />
<path d="M74755 40314
L74827 40338
L74946 40338
L74993 40314
L75017 40291
L75041 40243
L75041 40195
L75017 40148
L74993 40124
L74946 40100
L74850 40076
L74803 40052
L74779 40029
L74755 39981
L74755 39933
L74779 39886
L74803 39862
L74850 39838
L74970 39838
L75041 39862
" />
<path d="M75184 39838
L75470 39838
" />
<path d="M75327 40338
L75327 39838
" />
<path d="M75636 40076
L75803 40076
" />
<path d="M75874 40338
L75636 40338
L75636 39838
L75874 39838
" />
<path d="M76089 40338
L76089 39838
L76208 39838
L76279 39862
L76327 39910
L76350 39957
L76374 40052
L76374 40124
L76350 40219
L76327 40267
L76279 40314
L76208 40338
L76089 40338
" />
</g></g>
<g style="fill:#0F0F0F; fill-opacity:0.0; 
stroke:#0F0F0F; stroke-width:62.519685; stroke-opacity:1; 
stroke-linecap:round; stroke-linejoin:round;">
</g>
<g style="fill:#0F0F0F; fill-opacity:0.0; 
stroke:#0F0F0F; stroke-width:60.000000; stroke-opacity:1; 
stroke-linecap:round; stroke-linejoin:round;">
<text x="39500.000000" y="41862.480315"
textLength="2821.889764" font-size="666.653543" lengthAdjust="spacingAndGlyphs"
text-anchor="start" opacity="0">ENABLE</text>
<g class="stroked-text"><desc>ENABLE</desc>
<path d="M39649 41576
L39815 41576
" />
<path d="M39887 41838
L39649 41838
L39649 41338
L39887 41338
" />
<path d="M40101 41838
L40101 41338
L40387 41838
L40387 41338
" />
<path d="M40601 41695
L40839 41695
" />
<path d="M40553 41838
L40720 41338
L40887 41838
" />
<path d="M41220 41576
L41291 41600
L41315 41624
L41339 41671
L41339 41743
L41315 41791
L41291 41814
L41244 41838
L41053 41838
L41053 41338
L41220 41338
L41268 41362
L41291 41386
L41315 41433
L41315 41481
L41291 41529
L41268 41552
L41220 41576
L41053 41576
" />
<path d="M41791 41838
L41553 41838
L41553 41338
" />
<path d="M41958 41576
L42125 41576
" />
<path d="M42196 41838
L41958 41838
L41958 41338
L42196 41338
" />
</g></g>
<g style="fill:#0F0F0F; fill-opacity:0.0; 
stroke:#0F0F0F; stroke-width:62.519685; stroke-opacity:1; 
stroke-linecap:round; stroke-linejoin:round;">
</g>
<g style="fill:#0F0F0F; fill-opacity:0.0; 
stroke:#0F0F0F; stroke-width:60.000000; stroke-opacity:1; 
stroke-linecap:round; stroke-linejoin:round;">
<text x="39500.000000" y="48862.480315"
textLength="1583.818898" font-size="666.653543" lengthAdjust="spacingAndGlyphs"
text-anchor="start" opacity="0">GND</text>
<g class="stroked-text"><desc>GND</desc>
<path d="M39910 48362
L39863 48338
L39791 48338
L39720 48362
L39672 48410
L39649 48457
L39625 48552
L39625 48624
L39649 48719
L39672 48767
L39720 48814
L39791 48838
L39839 48838
L39910 48814
L39934 48791
L39934 48624
L39839 48624
" />
<path d="M40149 48838
L40149 48338
L40434 48838
L40434 48338
" />
<path d="M40672 48838
L40672 48338
L40791 48338
L40863 48362
L40910 48410
L40934 48457
L40958 48552
L40958 48624
L40934 48719
L40910 48767
L40863 48814
L40791 48838
L40672 48838
" />
</g></g>
<g style="fill:#0F0F0F; fill-opacity:0.0; 
stroke:#0F0F0F; stroke-width:62.519685; stroke-opacity:1; 
stroke-linecap:round; stroke-linejoin:round;">
</g>
<g style="fill:#0F0F0F; fill-opacity:0.0; 
stroke:#0F0F0F; stroke-width:60.000000; stroke-opacity:1; 
stroke-linecap:round; stroke-linejoin:round;">
<text x="55500.000000" y="40362.480315"
textLength="3845.708661" font-size="666.653543" lengthAdjust="spacingAndGlyphs"
text-anchor="start" opacity="0">VBOOSTED</text>
<g class="stroked-text"><desc>VBOOSTED</desc>
<path d="M55577 39838
L55744 40338
L55910 39838
" />
<path d="M56244 40076
L56315 40100
L56339 40124
L56363 40171
L56363 40243
L56339 40291
L56315 40314
L56268 40338
L56077 40338
L56077 39838
L56244 39838
L56291 39862
L56315 39886
L56339 39933
L56339 39981
L56315 40029
L56291 40052
L56244 40076
L56077 40076
" />
<path d="M56672 39838
L56768 39838
L56815 39862
L56863 39910
L56887 40005
L56887 40171
L56863 40267
L56815 40314
L56768 40338
L56672 40338
L56625 40314
L56577 40267
L56553 40171
L56553 40005
L56577 39910
L56625 39862
L56672 39838
" />
<path d="M57196 39838
L57291 39838
L57339 39862
L57387 39910
L57410 40005
L57410 40171
L57387 40267
L57339 40314
L57291 40338
L57196 40338
L57149 40314
L57101 40267
L57077 40171
L57077 40005
L57101 39910
L57149 39862
L57196 39838
" />
<path d="M57601 40314
L57672 40338
L57791 40338
L57839 40314
L57863 40291
L57887 40243
L57887 40195
L57863 40148
L57839 40124
L57791 40100
L57696 40076
L57649 40052
L57625 40029
L57601 39981
L57601 39933
L57625 39886
L57649 39862
L57696 39838
L57815 39838
L57887 39862
" />
<path d="M58030 39838
L58315 39838
" />
<path d="M58172 40338
L58172 39838
" />
<path d="M58482 40076
L58649 40076
" />
<path d="M58720 40338
L58482 40338
L58482 39838
L58720 39838
" />
<path d="M58934 40338
L58934 39838
L59053 39838
L59125 39862
L59172 39910
L59196 39957
L59220 40052
L59220 40124
L59196 40219
L59172 40267
L59125 40314
L59053 40338
L58934 40338
" />
</g></g>
<g style="fill:#0F0F0F; fill-opacity:0.0; 
stroke:#0F0F0F; stroke-width:62.519685; stroke-opacity:1; 
stroke-linecap:round; stroke-linejoin:round;">
</g>
<g style="fill:#0F0F0F; fill-opacity:0.0; 
stroke:#0F0F0F; stroke-width:60.000000; stroke-opacity:1; 
stroke-linecap:round; stroke-linejoin:round;">
<text x="39500.000000" y="36362.480315"
textLength="1583.818898" font-size="666.653543" lengthAdjust="spacingAndGlyphs"
text-anchor="start" opacity="0">GND</text>
<g class="stroked-text"><desc>GND</desc>
<path d="M39910 35862
L39863 35838
L39791 35838
L39720 35862
L39672 35910
L39649 35957
L39625 36052
L39625 36124
L39649 36219
L39672 36267
L39720 36314
L39791 36338
L39839 36338
L39910 36314
L39934 36291
L39934 36124
L39839 36124
" />
<path d="M40149 36338
L40149 35838
L40434 36338
L40434 35838
" />
<path d="M40672 36338
L40672 35838
L40791 35838
L40863 35862
L40910 35910
L40934 35957
L40958 36052
L40958 36124
L40934 36219
L40910 36267
L40863 36314
L40791 36338
L40672 36338
" />
</g></g>
<g style="fill:#0F0F0F; fill-opacity:0.0; 
stroke:#0F0F0F; stroke-width:62.519685; stroke-opacity:1; 
stroke-linecap:round; stroke-linejoin:round;">
</g>
<g style="fill:#0F0F0F; fill-opacity:0.0; 
stroke:#0F0F0F; stroke-width:60.000000; stroke-opacity:1; 
stroke-linecap:round; stroke-linejoin:round;">
<text x="39500.000000" y="30362.480315"
textLength="1250.472441" font-size="666.653543" lengthAdjust="spacingAndGlyphs"
text-anchor="start" opacity="0">VIN</text>
<g class="stroked-text"><desc>VIN</desc>
<path d="M39577 29838
L39744 30338
L39910 29838
" />
<path d="M40077 30338
L40077 29838
" />
<path d="M40315 30338
L40315 29838
L40601 30338
L40601 29838
" />
</g></g>
<g style="fill:#0F0F0F; fill-opacity:0.0; 
stroke:#0F0F0F; stroke-width:62.519685; stroke-opacity:1; 
stroke-linecap:round; stroke-linejoin:round;">
</g>
<g style="fill:#0F0F0F; fill-opacity:0.0; 
stroke:#0F0F0F; stroke-width:60.000000; stroke-opacity:1; 
stroke-linecap:round; stroke-linejoin:round;">
<text x="49500.000000" y="35862.480315"
textLength="1250.472441" font-size="666.653543" lengthAdjust="spacingAndGlyphs"
text-anchor="end" opacity="0">VIN</text>
<g class="stroked-text"><desc>VIN</desc>
<path d="M48327 35338
L48493 35838
L48660 35338
" />
<path d="M48827 35838
L48827 35338
" />
<path d="M49065 35838
L49065 35338
L49350 35838
L49350 35338
" />
</g></g>
<g style="fill:#0F0F0F; fill-opacity:0.0; 
stroke:#0F0F0F; stroke-width:62.519685; stroke-opacity:1; 
stroke-linecap:round; stroke-linejoin:round;">
</g>
<g style="fill:#0F0F0F; fill-opacity:0.0; 
stroke:#0F0F0F; stroke-width:60.000000; stroke-opacity:1; 
stroke-linecap:round; stroke-linejoin:round;">
<text x="46500.000000" y="40362.480315"
textLength="2821.889764" font-size="666.653543" lengthAdjust="spacingAndGlyphs"
text-anchor="end" opacity="0">ENABLE</text>
<g class="stroked-text"><desc>ENABLE</desc>
<path d="M43827 40076
L43993 40076
" />
<path d="M44065 40338
L43827 40338
L43827 39838
L44065 39838
" />
<path d="M44279 40338
L44279 39838
L44565 40338
L44565 39838
" />
<path d="M44779 40195
L45017 40195
" />
<path d="M44731 40338
L44898 39838
L45065 40338
" />
<path d="M45398 40076
L45470 40100
L45493 40124
L45517 40171
L45517 40243
L45493 40291
L45470 40314
L45422 40338
L45231 40338
L45231 39838
L45398 39838
L45446 39862
L45470 39886
L45493 39933
L45493 39981
L45470 40029
L45446 40052
L45398 40076
L45231 40076
" />
<path d="M45970 40338
L45731 40338
L45731 39838
" />
<path d="M46136 40076
L46303 40076
" />
<path d="M46374 40338
L46136 40338
L46136 39838
L46374 39838
" />
</g></g>
<g style="fill:#0F0F0F; fill-opacity:0.0; 
stroke:#0F0F0F; stroke-width:62.519685; stroke-opacity:1; 
stroke-linecap:round; stroke-linejoin:round;">
</g>
<g style="fill:#0F0F0F; fill-opacity:0.0; 
stroke:#0F0F0F; stroke-width:60.000000; stroke-opacity:1; 
stroke-linecap:round; stroke-linejoin:round;">
<text x="48500.000000" y="31862.480315"
textLength="1250.472441" font-size="666.653543" lengthAdjust="spacingAndGlyphs"
text-anchor="end" opacity="0">VIN</text>
<g class="stroked-text"><desc>VIN</desc>
<path d="M47327 31338
L47493 31838
L47660 31338
" />
<path d="M47827 31838
L47827 31338
" />
<path d="M48065 31838
L48065 31338
L48350 31838
L48350 31338
" />
</g></g>
<g style="fill:#0F0F0F; fill-opacity:0.0; 
stroke:#0F0F0F; stroke-width:62.519685; stroke-opacity:1; 
stroke-linecap:round; stroke-linejoin:round;">
</g>
<g style="fill:#0F0F0F; fill-opacity:0.0; 
stroke:#0F0F0F; stroke-width:60.000000; stroke-opacity:1; 
stroke-linecap:round; stroke-linejoin:round;">
<text x="30500.000000" y="40362.480315"
textLength="1583.818898" font-size="666.653543" lengthAdjust="spacingAndGlyphs"
text-anchor="start" opacity="0">GND</text>
<g class="stroked-text"><desc>GND</desc>
<path d="M30910 39862
L30863 39838
L30791 39838
L30720 39862
L30672 39910
L30649 39957
L30625 40052
L30625 40124
L30649 40219
L30672 40267
L30720 40314
L30791 40338
L30839 40338
L30910 40314
L30934 40291
L30934 40124
L30839 40124
" />
<path d="M31149 40338
L31149 39838
L31434 40338
L31434 39838
" />
<path d="M31672 40338
L31672 39838
L31791 39838
L31863 39862
L31910 39910
L31934 39957
L31958 40052
L31958 40124
L31934 40219
L31910 40267
L31863 40314
L31791 40338
L31672 40338
" />
</g></g>
<g style="fill:#0F0F0F; fill-opacity:0.0; 
stroke:#0F0F0F; stroke-width:62.519685; stroke-opacity:1; 
stroke-linecap:round; stroke-linejoin:round;">
</g>
<g style="fill:#0F0F0F; fill-opacity:0.0; 
stroke:#0F0F0F; stroke-width:60.000000; stroke-opacity:1; 
stroke-linecap:round; stroke-linejoin:round;">
<text x="30500.000000" y="39362.480315"
textLength="1250.472441" font-size="666.653543" lengthAdjust="spacingAndGlyphs"
text-anchor="start" opacity="0">VIN</text>
<g class="stroked-text"><desc>VIN</desc>
<path d="M30577 38838
L30744 39338
L30910 38838
" />
<path d="M31077 39338
L31077 38838
" />
<path d="M31315 39338
L31315 38838
L31601 39338
L31601 38838
" />
</g></g>
<g style="fill:#0F0F0F; fill-opacity:0.0; 
stroke:#0F0F0F; stroke-width:62.519685; stroke-opacity:1; 
stroke-linecap:round; stroke-linejoin:round;">
</g>
<g style="fill:#0F0F0F; fill-opacity:0.0; 
stroke:#0F0F0F; stroke-width:60.000000; stroke-opacity:1; 
stroke-linecap:round; stroke-linejoin:round;">
<text x="30500.000000" y="41362.480315"
textLength="2821.889764" font-size="666.653543" lengthAdjust="spacingAndGlyphs"
text-anchor="start" opacity="0">ENABLE</text>
<g class="stroked-text"><desc>ENABLE</desc>
<path d="M30649 41076
L30815 41076
" />
<path d="M30887 41338
L30649 41338
L30649 40838
L30887 40838
" />
<path d="M31101 41338
L31101 40838
L31387 41338
L31387 40838
" />
<path d="M31601 41195
L31839 41195
" />
<path d="M31553 41338
L31720 40838
L31887 41338
" />
<path d="M32220 41076
L32291 41100
L32315 41124
L32339 41171
L32339 41243
L32315 41291
L32291 41314
L32244 41338
L32053 41338
L32053 40838
L32220 40838
L32268 40862
L32291 40886
L32315 40933
L32315 40981
L32291 41029
L32268 41052
L32220 41076
L32053 41076
" />
<path d="M32791 41338
L32553 41338
L32553 40838
" />
<path d="M32958 41076
L33125 41076
" />
<path d="M33196 41338
L32958 41338
L32958 40838
L33196 40838
" />
</g></g>
<g style="fill:#0F0F0F; fill-opacity:0.0; 
stroke:#0F0F0F; stroke-width:62.519685; stroke-opacity:1; 
stroke-linecap:round; stroke-linejoin:round;">
</g>
<g style="fill:#0F0F0F; fill-opacity:0.0; 
stroke:#0F0F0F; stroke-width:60.000000; stroke-opacity:1; 
stroke-linecap:round; stroke-linejoin:round;">
<text x="52000.000000" y="44862.480315"
textLength="1583.818898" font-size="666.653543" lengthAdjust="spacingAndGlyphs"
text-anchor="start" opacity="0">GND</text>
<g class="stroked-text"><desc>GND</desc>
<path d="M52410 44362
L52363 44338
L52291 44338
L52220 44362
L52172 44410
L52149 44457
L52125 44552
L52125 44624
L52149 44719
L52172 44767
L52220 44814
L52291 44838
L52339 44838
L52410 44814
L52434 44791
L52434 44624
L52339 44624
" />
<path d="M52649 44838
L52649 44338
L52934 44838
L52934 44338
" />
<path d="M53172 44838
L53172 44338
L53291 44338
L53363 44362
L53410 44410
L53434 44457
L53458 44552
L53458 44624
L53434 44719
L53410 44767
L53363 44814
L53291 44838
L53172 44838
" />
</g></g>
<g style="fill:#0F0F0F; fill-opacity:0.0; 
stroke:#0F0F0F; stroke-width:62.519685; stroke-opacity:1; 
stroke-linecap:round; stroke-linejoin:round;">
</g>
<g style="fill:#0F0F0F; fill-opacity:0.0; 
stroke:#0F0F0F; stroke-width:60.000000; stroke-opacity:1; 
stroke-linecap:round; stroke-linejoin:round;">
<text x="67500.000000" y="31362.480315"
textLength="3845.708661" font-size="666.653543" lengthAdjust="spacingAndGlyphs"
text-anchor="start" opacity="0">VBOOSTED</text>
<g class="stroked-text"><desc>VBOOSTED</desc>
<path d="M67577 30838
L67744 31338
L67910 30838
" />
<path d="M68244 31076
L68315 31100
L68339 31124
L68363 31171
L68363 31243
L68339 31291
L68315 31314
L68268 31338
L68077 31338
L68077 30838
L68244 30838
L68291 30862
L68315 30886
L68339 30933
L68339 30981
L68315 31029
L68291 31052
L68244 31076
L68077 31076
" />
<path d="M68672 30838
L68768 30838
L68815 30862
L68863 30910
L68887 31005
L68887 31171
L68863 31267
L68815 31314
L68768 31338
L68672 31338
L68625 31314
L68577 31267
L68553 31171
L68553 31005
L68577 30910
L68625 30862
L68672 30838
" />
<path d="M69196 30838
L69291 30838
L69339 30862
L69387 30910
L69410 31005
L69410 31171
L69387 31267
L69339 31314
L69291 31338
L69196 31338
L69149 31314
L69101 31267
L69077 31171
L69077 31005
L69101 30910
L69149 30862
L69196 30838
" />
<path d="M69601 31314
L69672 31338
L69791 31338
L69839 31314
L69863 31291
L69887 31243
L69887 31195
L69863 31148
L69839 31124
L69791 31100
L69696 31076
L69649 31052
L69625 31029
L69601 30981
L69601 30933
L69625 30886
L69649 30862
L69696 30838
L69815 30838
L69887 30862
" />
<path d="M70030 30838
L70315 30838
" />
<path d="M70172 31338
L70172 30838
" />
<path d="M70482 31076
L70649 31076
" />
<path d="M70720 31338
L70482 31338
L70482 30838
L70720 30838
" />
<path d="M70934 31338
L70934 30838
L71053 30838
L71125 30862
L71172 30910
L71196 30957
L71220 31052
L71220 31124
L71196 31219
L71172 31267
L71125 31314
L71053 31338
L70934 31338
" />
</g></g>
<g style="fill:#0F0F0F; fill-opacity:0.0; 
stroke:#0F0F0F; stroke-width:62.519685; stroke-opacity:1; 
stroke-linecap:round; stroke-linejoin:round;">
</g>
<g style="fill:#0F0F0F; fill-opacity:0.0; 
stroke:#0F0F0F; stroke-width:60.000000; stroke-opacity:1; 
stroke-linecap:round; stroke-linejoin:round;">
<text x="61000.000000" y="31362.480315"
textLength="3845.708661" font-size="666.653543" lengthAdjust="spacingAndGlyphs"
text-anchor="start" opacity="0">VBOOSTED</text>
<g class="stroked-text"><desc>VBOOSTED</desc>
<path d="M61077 30838
L61244 31338
L61410 30838
" />
<path d="M61744 31076
L61815 31100
L61839 31124
L61863 31171
L61863 31243
L61839 31291
L61815 31314
L61768 31338
L61577 31338
L61577 30838
L61744 30838
L61791 30862
L61815 30886
L61839 30933
L61839 30981
L61815 31029
L61791 31052
L61744 31076
L61577 31076
" />
<path d="M62172 30838
L62268 30838
L62315 30862
L62363 30910
L62387 31005
L62387 31171
L62363 31267
L62315 31314
L62268 31338
L62172 31338
L62125 31314
L62077 31267
L62053 31171
L62053 31005
L62077 30910
L62125 30862
L62172 30838
" />
<path d="M62696 30838
L62791 30838
L62839 30862
L62887 30910
L62910 31005
L62910 31171
L62887 31267
L62839 31314
L62791 31338
L62696 31338
L62649 31314
L62601 31267
L62577 31171
L62577 31005
L62601 30910
L62649 30862
L62696 30838
" />
<path d="M63101 31314
L63172 31338
L63291 31338
L63339 31314
L63363 31291
L63387 31243
L63387 31195
L63363 31148
L63339 31124
L63291 31100
L63196 31076
L63149 31052
L63125 31029
L63101 30981
L63101 30933
L63125 30886
L63149 30862
L63196 30838
L63315 30838
L63387 30862
" />
<path d="M63530 30838
L63815 30838
" />
<path d="M63672 31338
L63672 30838
" />
<path d="M63982 31076
L64149 31076
" />
<path d="M64220 31338
L63982 31338
L63982 30838
L64220 30838
" />
<path d="M64434 31338
L64434 30838
L64553 30838
L64625 30862
L64672 30910
L64696 30957
L64720 31052
L64720 31124
L64696 31219
L64672 31267
L64625 31314
L64553 31338
L64434 31338
" />
</g></g>
<g style="fill:#0F0F0F; fill-opacity:0.0; 
stroke:#0F0F0F; stroke-width:62.519685; stroke-opacity:1; 
stroke-linecap:round; stroke-linejoin:round;">
</g>
<g style="fill:#0F0F0F; fill-opacity:0.0; 
stroke:#0F0F0F; stroke-width:60.000000; stroke-opacity:1; 
stroke-linecap:round; stroke-linejoin:round;">
<text x="61000.000000" y="37362.480315"
textLength="1583.818898" font-size="666.653543" lengthAdjust="spacingAndGlyphs"
text-anchor="start" opacity="0">GND</text>
<g class="stroked-text"><desc>GND</desc>
<path d="M61410 36862
L61363 36838
L61291 36838
L61220 36862
L61172 36910
L61149 36957
L61125 37052
L61125 37124
L61149 37219
L61172 37267
L61220 37314
L61291 37338
L61339 37338
L61410 37314
L61434 37291
L61434 37124
L61339 37124
" />
<path d="M61649 37338
L61649 36838
L61934 37338
L61934 36838
" />
<path d="M62172 37338
L62172 36838
L62291 36838
L62363 36862
L62410 36910
L62434 36957
L62458 37052
L62458 37124
L62434 37219
L62410 37267
L62363 37314
L62291 37338
L62172 37338
" />
</g></g>
<g style="fill:#0F0F0F; fill-opacity:0.0; 
stroke:#0F0F0F; stroke-width:62.519685; stroke-opacity:1; 
stroke-linecap:round; stroke-linejoin:round;">
</g>
<g style="fill:#0F0F0F; fill-opacity:0.0; 
stroke:#0F0F0F; stroke-width:60.000000; stroke-opacity:1; 
stroke-linecap:round; stroke-linejoin:round;">
<text x="67500.000000" y="37362.480315"
textLength="1583.818898" font-size="666.653543" lengthAdjust="spacingAndGlyphs"
text-anchor="start" opacity="0">GND</text>
<g class="stroked-text"><desc>GND</desc>
<path d="M67910 36862
L67863 36838
L67791 36838
L67720 36862
L67672 36910
L67649 36957
L67625 37052
L67625 37124
L67649 37219
L67672 37267
L67720 37314
L67791 37338
L67839 37338
L67910 37314
L67934 37291
L67934 37124
L67839 37124
" />
<path d="M68149 37338
L68149 36838
L68434 37338
L68434 36838
" />
<path d="M68672 37338
L68672 36838
L68791 36838
L68863 36862
L68910 36910
L68934 36957
L68958 37052
L68958 37124
L68934 37219
L68910 37267
L68863 37314
L68791 37338
L68672 37338
" />
</g></g>
<g style="fill:#0F0F0F; fill-opacity:0.0; 
stroke:#0F0F0F; stroke-width:62.519685; stroke-opacity:1; 
stroke-linecap:round; stroke-linejoin:round;">
</g>
<g style="fill:#0F0F0F; fill-opacity:0.0; 
stroke:#0F0F0F; stroke-width:60.000000; stroke-opacity:1; 
stroke-linecap:round; stroke-linejoin:round;">
<text x="52500.000000" y="35862.480315"
textLength="940.944882" font-size="666.653543" lengthAdjust="spacingAndGlyphs"
text-anchor="start" opacity="0">LX</text>
<g class="stroked-text"><desc>LX</desc>
<path d="M52887 35838
L52649 35838
L52649 35338
" />
<path d="M53006 35338
L53339 35838
" />
<path d="M53339 35338
L53006 35838
" />
</g></g>
<g style="fill:#0F0F0F; fill-opacity:0.0; 
stroke:#0F0F0F; stroke-width:62.519685; stroke-opacity:1; 
stroke-linecap:round; stroke-linejoin:round;">
</g>
<g style="fill:#0F0F0F; fill-opacity:0.0; 
stroke:#0F0F0F; stroke-width:60.000000; stroke-opacity:1; 
stroke-linecap:round; stroke-linejoin:round;">
<text x="53500.000000" y="31862.480315"
textLength="940.944882" font-size="666.653543" lengthAdjust="spacingAndGlyphs"
text-anchor="start" opacity="0">LX</text>
<g class="stroked-text"><desc>LX</desc>
<path d="M53887 31838
L53649 31838
L53649 31338
" />
<path d="M54006 31338
L54339 31838
" />
<path d="M54339 31338
L54006 31838
" />
</g></g>
<g style="fill:#009600; fill-opacity:0.0; 
stroke:#009600; stroke-width:60.000000; stroke-opacity:1; 
stroke-linecap:round; stroke-linejoin:round;">
<path d="M54500 40500
L55500 40500
" />
<path d="M76500 40500
L77500 40500
" />
<path d="M61000 36500
L61000 37500
" />
<path d="M51000 45000
L52000 45000
" />
<path d="M29500 40500
L30500 40500
" />
<path d="M51000 44000
L51000 45000
" />
<path d="M52500 32000
L53500 32000
" />
<path d="M39500 42000
L39500 43000
" />
<path d="M39500 48000
L39500 49000
" />
<path d="M48500 32000
L49500 32000
" />
<path d="M52500 36000
L52500 37000
" />
<path d="M39500 30500
L39500 31500
" />
<path d="M39500 35500
L39500 36500
" />
<path d="M67500 36500
L67500 37500
" />
<path d="M61000 31500
L61000 32500
" />
<path d="M49500 36000
L49500 37000
" />
<path d="M46500 40500
L47500 40500
" />
<path d="M67500 31500
L67500 32500
" />
<path d="M29500 39500
L30500 39500
" />
<path d="M29500 41500
L30500 41500
" />
</g> 
</svg>
