<?xml version="1.0" standalone="no"?>
 <!DOCTYPE svg PUBLIC "-//W3C//DTD SVG 1.1//EN" 
 "http://www.w3.org/Graphics/SVG/1.1/DTD/svg11.dtd"> 
<svg
  xmlns:svg="http://www.w3.org/2000/svg"
  xmlns="http://www.w3.org/2000/svg"
  xmlns:xlink="http://www.w3.org/1999/xlink"
  version="1.1"
  width="29.700220cm" height="21.000720cm" viewBox="0 0 116930 82680">
<title>SVG Picture created as biym-board-encoder.svg date 2022/11/20 15:33:12 </title>
  <desc>Picture generated by Eeschema-SVG </desc>
<g style="fill:#000000; fill-opacity:1.000000;stroke:#000000; stroke-opacity:1.000000;
stroke-linecap:round; stroke-linejoin:round;"
 transform="translate(0 0) scale(1 1)">
</g>
<g style="fill:#840000; fill-opacity:0.0; 
stroke:#840000; stroke-width:0.000000; stroke-opacity:1; 
stroke-linecap:round; stroke-linejoin:round;">
</g>
<g style="fill:#840000; fill-opacity:0.0; 
stroke:#840000; stroke-width:60.000000; stroke-opacity:1; 
stroke-linecap:round; stroke-linejoin:round;">
<rect x="69685.905512" y="65357.165354" width="42519.685039" height="12598.425197" rx="0.000000" />
<rect x="3937.007874" y="3937.007874" width="109055.984252" height="74805.984252" rx="0.000000" />
<rect x="4724.409449" y="4724.409449" width="107481.181102" height="73231.181102" rx="0.000000" />
<path d="M23622 4724
L23622 3937
" />
<path d="M43307 4724
L43307 3937
" />
<path d="M62992 4724
L62992 3937
" />
<path d="M82677 4724
L82677 3937
" />
<path d="M102362 4724
L102362 3937
" />
<text x="13779.527559" y="4586.614173"
textLength="549.960630" font-size="682.401575" lengthAdjust="spacingAndGlyphs"
text-anchor="start" opacity="0">1</text>
<g class="stroked-text"><desc>1</desc>
<path d="M14199 4562
L13907 4562
" />
<path d="M14053 4562
L14053 4050
L14004 4123
L13955 4172
L13907 4196
" />
</g><text x="33464.566929" y="4586.614173"
textLength="547.440945" font-size="682.401575" lengthAdjust="spacingAndGlyphs"
text-anchor="start" opacity="0">2</text>
<g class="stroked-text"><desc>2</desc>
<path d="M33592 4099
L33616 4074
L33665 4050
L33787 4050
L33835 4074
L33860 4099
L33884 4147
L33884 4196
L33860 4269
L33567 4562
L33884 4562
" />
</g><text x="53149.606299" y="4586.614173"
textLength="547.440945" font-size="682.401575" lengthAdjust="spacingAndGlyphs"
text-anchor="start" opacity="0">3</text>
<g class="stroked-text"><desc>3</desc>
<path d="M53252 4050
L53569 4050
L53398 4245
L53472 4245
L53520 4269
L53545 4294
L53569 4342
L53569 4464
L53545 4513
L53520 4537
L53472 4562
L53325 4562
L53277 4537
L53252 4513
" />
</g><text x="72834.645669" y="4586.614173"
textLength="547.440945" font-size="682.401575" lengthAdjust="spacingAndGlyphs"
text-anchor="start" opacity="0">4</text>
<g class="stroked-text"><desc>4</desc>
<path d="M73205 4221
L73205 4562
" />
<path d="M73083 4026
L72962 4391
L73278 4391
" />
</g><text x="92519.685039" y="4586.614173"
textLength="547.440945" font-size="682.401575" lengthAdjust="spacingAndGlyphs"
text-anchor="start" opacity="0">5</text>
<g class="stroked-text"><desc>5</desc>
<path d="M92915 4050
L92671 4050
L92647 4294
L92671 4269
L92720 4245
L92842 4245
L92890 4269
L92915 4294
L92939 4342
L92939 4464
L92915 4513
L92890 4537
L92842 4562
L92720 4562
L92671 4537
L92647 4513
" />
</g><text x="112204.724409" y="4586.614173"
textLength="547.440945" font-size="682.401575" lengthAdjust="spacingAndGlyphs"
text-anchor="start" opacity="0">6</text>
<g class="stroked-text"><desc>6</desc>
<path d="M112575 4050
L112478 4050
L112429 4074
L112405 4099
L112356 4172
L112332 4269
L112332 4464
L112356 4513
L112380 4537
L112429 4562
L112527 4562
L112575 4537
L112600 4513
L112624 4464
L112624 4342
L112600 4294
L112575 4269
L112527 4245
L112429 4245
L112380 4269
L112356 4294
L112332 4342
" />
</g><path d="M23622 77955
L23622 78742
" />
<path d="M43307 77955
L43307 78742
" />
<path d="M62992 77955
L62992 78742
" />
<path d="M82677 77955
L82677 78742
" />
<path d="M102362 77955
L102362 78742
" />
<text x="13779.527559" y="78605.196850"
textLength="547.440945" font-size="682.401575" lengthAdjust="spacingAndGlyphs"
text-anchor="start" opacity="0">1</text>
<g class="stroked-text"><desc>1</desc>
<path d="M14199 78580
L13907 78580
" />
<path d="M14053 78580
L14053 78068
L14004 78142
L13955 78190
L13907 78215
" />
</g><text x="33464.566929" y="78605.196850"
textLength="547.440945" font-size="682.401575" lengthAdjust="spacingAndGlyphs"
text-anchor="start" opacity="0">2</text>
<g class="stroked-text"><desc>2</desc>
<path d="M33592 78117
L33616 78093
L33665 78068
L33787 78068
L33835 78093
L33860 78117
L33884 78166
L33884 78215
L33860 78288
L33567 78580
L33884 78580
" />
</g><text x="53149.606299" y="78605.196850"
textLength="547.440945" font-size="682.401575" lengthAdjust="spacingAndGlyphs"
text-anchor="start" opacity="0">3</text>
<g class="stroked-text"><desc>3</desc>
<path d="M53252 78068
L53569 78068
L53398 78263
L53472 78263
L53520 78288
L53545 78312
L53569 78361
L53569 78483
L53545 78532
L53520 78556
L53472 78580
L53325 78580
L53277 78556
L53252 78532
" />
</g><text x="72834.645669" y="78605.196850"
textLength="547.440945" font-size="682.401575" lengthAdjust="spacingAndGlyphs"
text-anchor="start" opacity="0">4</text>
<g class="stroked-text"><desc>4</desc>
<path d="M73205 78239
L73205 78580
" />
<path d="M73083 78044
L72962 78410
L73278 78410
" />
</g><text x="92519.685039" y="78605.196850"
textLength="547.440945" font-size="682.401575" lengthAdjust="spacingAndGlyphs"
text-anchor="start" opacity="0">5</text>
<g class="stroked-text"><desc>5</desc>
<path d="M92915 78068
L92671 78068
L92647 78312
L92671 78288
L92720 78263
L92842 78263
L92890 78288
L92915 78312
L92939 78361
L92939 78483
L92915 78532
L92890 78556
L92842 78580
L92720 78580
L92671 78556
L92647 78532
" />
</g><text x="112204.724409" y="78605.196850"
textLength="547.440945" font-size="682.401575" lengthAdjust="spacingAndGlyphs"
text-anchor="start" opacity="0">6</text>
<g class="stroked-text"><desc>6</desc>
<path d="M112575 78068
L112478 78068
L112429 78093
L112405 78117
L112356 78190
L112332 78288
L112332 78483
L112356 78532
L112380 78556
L112429 78580
L112527 78580
L112575 78556
L112600 78532
L112624 78483
L112624 78361
L112600 78312
L112575 78288
L112527 78263
L112429 78263
L112380 78288
L112356 78312
L112332 78361
" />
</g><path d="M3937 23622
L4724 23622
" />
<path d="M3937 43307
L4724 43307
" />
<path d="M3937 62992
L4724 62992
" />
<text x="4330.708661" y="14035.433071"
textLength="498.700787" font-size="682.401575" lengthAdjust="spacingAndGlyphs"
text-anchor="middle" opacity="0">A</text>
<g class="stroked-text"><desc>A</desc>
<path d="M4208 13864
L4452 13864
" />
<path d="M4160 14011
L4330 13499
L4501 14011
" />
</g><text x="4330.708661" y="33720.472441"
textLength="571.811024" font-size="682.401575" lengthAdjust="spacingAndGlyphs"
text-anchor="middle" opacity="0">B</text>
<g class="stroked-text"><desc>B</desc>
<path d="M4367 33427
L4440 33452
L4464 33476
L4489 33525
L4489 33598
L4464 33647
L4440 33671
L4391 33696
L4196 33696
L4196 33184
L4367 33184
L4415 33208
L4440 33233
L4464 33281
L4464 33330
L4440 33379
L4415 33403
L4367 33427
L4196 33427
" />
</g><text x="4330.708661" y="53405.511811"
textLength="571.811024" font-size="682.401575" lengthAdjust="spacingAndGlyphs"
text-anchor="middle" opacity="0">C</text>
<g class="stroked-text"><desc>C</desc>
<path d="M4489 53332
L4464 53356
L4391 53381
L4342 53381
L4269 53356
L4221 53307
L4196 53259
L4172 53161
L4172 53088
L4196 52991
L4221 52942
L4269 52893
L4342 52869
L4391 52869
L4464 52893
L4489 52918
" />
</g><text x="4330.708661" y="73090.551181"
textLength="571.811024" font-size="682.401575" lengthAdjust="spacingAndGlyphs"
text-anchor="middle" opacity="0">D</text>
<g class="stroked-text"><desc>D</desc>
<path d="M4196 73066
L4196 72554
L4318 72554
L4391 72578
L4440 72627
L4464 72676
L4489 72773
L4489 72846
L4464 72944
L4440 72993
L4391 73041
L4318 73066
L4196 73066
" />
</g><path d="M112992 23622
L112205 23622
" />
<path d="M112992 43307
L112205 43307
" />
<path d="M112992 62992
L112205 62992
" />
<text x="112599.291339" y="14035.433071"
textLength="498.700787" font-size="682.401575" lengthAdjust="spacingAndGlyphs"
text-anchor="middle" opacity="0">A</text>
<g class="stroked-text"><desc>A</desc>
<path d="M112477 13864
L112721 13864
" />
<path d="M112428 14011
L112599 13499
L112769 14011
" />
</g><text x="112599.291339" y="33720.472441"
textLength="571.811024" font-size="682.401575" lengthAdjust="spacingAndGlyphs"
text-anchor="middle" opacity="0">B</text>
<g class="stroked-text"><desc>B</desc>
<path d="M112635 33427
L112708 33452
L112733 33476
L112757 33525
L112757 33598
L112733 33647
L112708 33671
L112660 33696
L112465 33696
L112465 33184
L112635 33184
L112684 33208
L112708 33233
L112733 33281
L112733 33330
L112708 33379
L112684 33403
L112635 33427
L112465 33427
" />
</g><text x="112599.291339" y="53405.511811"
textLength="571.811024" font-size="682.401575" lengthAdjust="spacingAndGlyphs"
text-anchor="middle" opacity="0">C</text>
<g class="stroked-text"><desc>C</desc>
<path d="M112757 53332
L112733 53356
L112660 53381
L112611 53381
L112538 53356
L112489 53307
L112465 53259
L112440 53161
L112440 53088
L112465 52991
L112489 52942
L112538 52893
L112611 52869
L112660 52869
L112733 52893
L112757 52918
" />
</g><text x="112599.291339" y="73090.551181"
textLength="571.811024" font-size="682.401575" lengthAdjust="spacingAndGlyphs"
text-anchor="middle" opacity="0">D</text>
<g class="stroked-text"><desc>D</desc>
<path d="M112465 73066
L112465 72554
L112587 72554
L112660 72578
L112708 72627
L112733 72676
L112757 72773
L112757 72846
L112733 72944
L112708 72993
L112660 73041
L112587 73066
L112465 73066
" />
</g><text x="78741.023622" y="76321.732283"
textLength="8721.417323" font-size="787.401575" lengthAdjust="spacingAndGlyphs"
text-anchor="start" opacity="0">Date: 2022-11-20</text>
<g class="stroked-text"><desc>Date: 2022-11-20</desc>
<path d="M78911 76293
L78911 75703
L79052 75703
L79136 75731
L79192 75787
L79220 75843
L79249 75956
L79249 76040
L79220 76152
L79192 76209
L79136 76265
L79052 76293
L78911 76293
" />
<path d="M79755 76293
L79755 75984
L79727 75928
L79670 75899
L79558 75899
L79502 75928
" />
<path d="M79755 76265
L79699 76293
L79558 76293
L79502 76265
L79474 76209
L79474 76152
L79502 76096
L79558 76068
L79699 76068
L79755 76040
" />
<path d="M79952 75899
L80177 75899
" />
<path d="M80036 75703
L80036 76209
L80064 76265
L80120 76293
L80177 76293
" />
<path d="M80598 76265
L80542 76293
L80430 76293
L80373 76265
L80345 76209
L80345 75984
L80373 75928
L80430 75899
L80542 75899
L80598 75928
L80627 75984
L80627 76040
L80345 76096
" />
<path d="M80880 76237
L80908 76265
L80880 76293
L80852 76265
L80880 76237
L80880 76293
" />
<path d="M80880 75928
L80908 75956
L80880 75984
L80852 75956
L80880 75928
L80880 75984
" />
<path d="M81583 75759
L81611 75731
L81667 75703
L81808 75703
L81864 75731
L81892 75759
L81920 75815
L81920 75871
L81892 75956
L81555 76293
L81920 76293
" />
<path d="M82286 75703
L82342 75703
L82398 75731
L82426 75759
L82454 75815
L82483 75928
L82483 76068
L82454 76181
L82426 76237
L82398 76265
L82342 76293
L82286 76293
L82229 76265
L82201 76237
L82173 76181
L82145 76068
L82145 75928
L82173 75815
L82201 75759
L82229 75731
L82286 75703
" />
<path d="M82708 75759
L82736 75731
L82792 75703
L82932 75703
L82989 75731
L83017 75759
L83045 75815
L83045 75871
L83017 75956
L82679 76293
L83045 76293
" />
<path d="M83270 75759
L83298 75731
L83354 75703
L83495 75703
L83551 75731
L83579 75759
L83607 75815
L83607 75871
L83579 75956
L83242 76293
L83607 76293
" />
<path d="M83860 76068
L84310 76068
" />
<path d="M84901 76293
L84564 76293
" />
<path d="M84732 76293
L84732 75703
L84676 75787
L84620 75843
L84564 75871
" />
<path d="M85463 76293
L85126 76293
" />
<path d="M85295 76293
L85295 75703
L85238 75787
L85182 75843
L85126 75871
" />
<path d="M85717 76068
L86166 76068
" />
<path d="M86420 75759
L86448 75731
L86504 75703
L86645 75703
L86701 75731
L86729 75759
L86757 75815
L86757 75871
L86729 75956
L86391 76293
L86757 76293
" />
<path d="M87123 75703
L87179 75703
L87235 75731
L87263 75759
L87291 75815
L87319 75928
L87319 76068
L87291 76181
L87263 76237
L87235 76265
L87179 76293
L87123 76293
L87066 76265
L87038 76237
L87010 76181
L86982 76068
L86982 75928
L87010 75815
L87038 75759
L87066 75731
L87123 75703
" />
</g><path d="M69685 76577
L112205 76577
" />
<text x="70079.606299" y="77424.094488"
textLength="11449.212598" font-size="787.401575" lengthAdjust="spacingAndGlyphs"
text-anchor="start" opacity="0">KiCad E.D.A.  kicad 6.0.9</text>
<g class="stroked-text"><desc>KiCad E.D.A.  kicad 6.0.9</desc>
<path d="M70250 77395
L70250 76805
" />
<path d="M70587 77395
L70334 77058
" />
<path d="M70587 76805
L70250 77142
" />
<path d="M70840 77395
L70840 77002
" />
<path d="M70840 76805
L70812 76833
L70840 76861
L70868 76833
L70840 76805
L70840 76861
" />
<path d="M71459 77339
L71431 77367
L71346 77395
L71290 77395
L71206 77367
L71150 77311
L71121 77255
L71093 77142
L71093 77058
L71121 76946
L71150 76889
L71206 76833
L71290 76805
L71346 76805
L71431 76833
L71459 76861
" />
<path d="M71965 77395
L71965 77086
L71937 77030
L71881 77002
L71768 77002
L71712 77030
" />
<path d="M71965 77367
L71909 77395
L71768 77395
L71712 77367
L71684 77311
L71684 77255
L71712 77199
L71768 77170
L71909 77170
L71965 77142
" />
<path d="M72499 77395
L72499 76805
" />
<path d="M72499 77367
L72443 77395
L72331 77395
L72274 77367
L72246 77339
L72218 77283
L72218 77114
L72246 77058
L72274 77030
L72331 77002
L72443 77002
L72499 77030
" />
<path d="M73231 77086
L73427 77086
" />
<path d="M73512 77395
L73231 77395
L73231 76805
L73512 76805
" />
<path d="M73765 77339
L73793 77367
L73765 77395
L73737 77367
L73765 77339
L73765 77395
" />
<path d="M74046 77395
L74046 76805
L74187 76805
L74271 76833
L74327 76889
L74355 76946
L74384 77058
L74384 77142
L74355 77255
L74327 77311
L74271 77367
L74187 77395
L74046 77395
" />
<path d="M74637 77339
L74665 77367
L74637 77395
L74609 77367
L74637 77339
L74637 77395
" />
<path d="M74890 77227
L75171 77227
" />
<path d="M74834 77395
L75030 76805
L75227 77395
" />
<path d="M75424 77339
L75452 77367
L75424 77395
L75396 77367
L75424 77339
L75424 77395
" />
<path d="M76605 77395
L76605 76805
" />
<path d="M76661 77170
L76830 77395
" />
<path d="M76830 77002
L76605 77227
" />
<path d="M77083 77395
L77083 77002
" />
<path d="M77083 76805
L77055 76833
L77083 76861
L77111 76833
L77083 76805
L77083 76861
" />
<path d="M77618 77367
L77561 77395
L77449 77395
L77393 77367
L77364 77339
L77336 77283
L77336 77114
L77364 77058
L77393 77030
L77449 77002
L77561 77002
L77618 77030
" />
<path d="M78124 77395
L78124 77086
L78096 77030
L78039 77002
L77927 77002
L77871 77030
" />
<path d="M78124 77367
L78067 77395
L77927 77395
L77871 77367
L77842 77311
L77842 77255
L77871 77199
L77927 77170
L78067 77170
L78124 77142
" />
<path d="M78658 77395
L78658 76805
" />
<path d="M78658 77367
L78602 77395
L78489 77395
L78433 77367
L78405 77339
L78377 77283
L78377 77114
L78405 77058
L78433 77030
L78489 77002
L78602 77002
L78658 77030
" />
<path d="M79642 76805
L79530 76805
L79474 76833
L79445 76861
L79389 76946
L79361 77058
L79361 77283
L79389 77339
L79417 77367
L79474 77395
L79586 77395
L79642 77367
L79670 77339
L79699 77283
L79699 77142
L79670 77086
L79642 77058
L79586 77030
L79474 77030
L79417 77058
L79389 77086
L79361 77142
" />
<path d="M79952 77339
L79980 77367
L79952 77395
L79923 77367
L79952 77339
L79952 77395
" />
<path d="M80345 76805
L80402 76805
L80458 76833
L80486 76861
L80514 76917
L80542 77030
L80542 77170
L80514 77283
L80486 77339
L80458 77367
L80402 77395
L80345 77395
L80289 77367
L80261 77339
L80233 77283
L80205 77170
L80205 77030
L80233 76917
L80261 76861
L80289 76833
L80345 76805
" />
<path d="M80795 77339
L80823 77367
L80795 77395
L80767 77367
L80795 77339
L80795 77395
" />
<path d="M81105 77395
L81217 77395
L81273 77367
L81301 77339
L81358 77255
L81386 77142
L81386 76917
L81358 76861
L81330 76833
L81273 76805
L81161 76805
L81105 76833
L81076 76861
L81048 76917
L81048 77058
L81076 77114
L81105 77142
L81161 77170
L81273 77170
L81330 77142
L81358 77114
L81386 77058
" />
</g><path d="M69685 75396
L112205 75396
" />
</g>
<g style="fill:#840000; fill-opacity:0.0; 
stroke:#840000; stroke-width:118.110236; stroke-opacity:1; 
stroke-linecap:round; stroke-linejoin:round;">
<text x="103544.173228" y="76321.732283"
textLength="3743.897638" font-size="787.401575" lengthAdjust="spacingAndGlyphs"
text-anchor="start" opacity="0">Rev: 1.1</text>
<g class="stroked-text"><desc>Rev: 1.1</desc>
<path d="M104098 76293
L103902 76012
" />
<path d="M103761 76293
L103761 75703
L103986 75703
L104042 75731
L104070 75759
L104098 75815
L104098 75899
L104070 75956
L104042 75984
L103986 76012
L103761 76012
" />
<path d="M104577 76265
L104520 76293
L104408 76293
L104352 76265
L104323 76209
L104323 75984
L104352 75928
L104408 75899
L104520 75899
L104577 75928
L104605 75984
L104605 76040
L104323 76096
" />
<path d="M104802 75899
L104942 76293
L105083 75899
" />
<path d="M105308 76237
L105336 76265
L105308 76293
L105280 76265
L105308 76237
L105308 76293
" />
<path d="M105308 75928
L105336 75956
L105308 75984
L105280 75956
L105308 75928
L105308 75984
" />
<path d="M106348 76293
L106011 76293
" />
<path d="M106180 76293
L106180 75703
L106123 75787
L106067 75843
L106011 75871
" />
<path d="M106601 76237
L106629 76265
L106601 76293
L106573 76265
L106601 76237
L106601 76293
" />
<path d="M107192 76293
L106854 76293
" />
<path d="M107023 76293
L107023 75703
L106967 75787
L106911 75843
L106854 75871
" />
</g></g>
<g style="fill:#840000; fill-opacity:0.0; 
stroke:#840000; stroke-width:60.000000; stroke-opacity:1; 
stroke-linecap:round; stroke-linejoin:round;">
<text x="70079.606299" y="76321.732283"
textLength="3781.220472" font-size="787.401575" lengthAdjust="spacingAndGlyphs"
text-anchor="start" opacity="0">Size: A4</text>
<g class="stroked-text"><desc>Size: A4</desc>
<path d="M70222 76265
L70306 76293
L70447 76293
L70503 76265
L70531 76237
L70559 76181
L70559 76124
L70531 76068
L70503 76040
L70447 76012
L70334 75984
L70278 75956
L70250 75928
L70222 75871
L70222 75815
L70250 75759
L70278 75731
L70334 75703
L70475 75703
L70559 75731
" />
<path d="M70812 76293
L70812 75899
" />
<path d="M70812 75703
L70784 75731
L70812 75759
L70840 75731
L70812 75703
L70812 75759
" />
<path d="M71037 75899
L71346 75899
L71037 76293
L71346 76293
" />
<path d="M71796 76265
L71740 76293
L71628 76293
L71571 76265
L71543 76209
L71543 75984
L71571 75928
L71628 75899
L71740 75899
L71796 75928
L71825 75984
L71825 76040
L71543 76096
" />
<path d="M72078 76237
L72106 76265
L72078 76293
L72049 76265
L72078 76237
L72078 76293
" />
<path d="M72078 75928
L72106 75956
L72078 75984
L72049 75956
L72078 75928
L72078 75984
" />
<path d="M72781 76124
L73062 76124
" />
<path d="M72724 76293
L72921 75703
L73118 76293
" />
<path d="M73568 75899
L73568 76293
" />
<path d="M73427 75674
L73287 76096
L73652 76096
" />
</g><text x="103544.173228" y="77424.094488"
textLength="3912.637795" font-size="787.401575" lengthAdjust="spacingAndGlyphs"
text-anchor="start" opacity="0">Id: 4/10</text>
<g class="stroked-text"><desc>Id: 4/10</desc>
<path d="M103714 77395
L103714 76805
" />
<path d="M104249 77395
L104249 76805
" />
<path d="M104249 77367
L104192 77395
L104080 77395
L104024 77367
L103995 77339
L103967 77283
L103967 77114
L103995 77058
L104024 77030
L104080 77002
L104192 77002
L104249 77030
" />
<path d="M104530 77339
L104558 77367
L104530 77395
L104502 77367
L104530 77339
L104530 77395
" />
<path d="M104530 77030
L104558 77058
L104530 77086
L104502 77058
L104530 77030
L104530 77086
" />
<path d="M105514 77002
L105514 77395
" />
<path d="M105373 76777
L105233 77199
L105598 77199
" />
<path d="M106245 76777
L105739 77536
" />
<path d="M106751 77395
L106414 77395
" />
<path d="M106583 77395
L106583 76805
L106526 76889
L106470 76946
L106414 76974
" />
<path d="M107117 76805
L107173 76805
L107229 76833
L107258 76861
L107286 76917
L107314 77030
L107314 77170
L107286 77283
L107258 77339
L107229 77367
L107173 77395
L107117 77395
L107061 77367
L107033 77339
L107004 77283
L106976 77170
L106976 77030
L107004 76917
L107033 76861
L107061 76833
L107117 76805
" />
</g><path d="M69685 73821
L112205 73821
" />
</g>
<g style="fill:#840000; fill-opacity:0.0; 
stroke:#840000; stroke-width:157.480315; stroke-opacity:1; 
stroke-linecap:round; stroke-linejoin:round;">
<text x="70079.606299" y="74924.094488"
textLength="16378.937008" font-size="1049.842520" lengthAdjust="spacingAndGlyphs"
text-anchor="start" opacity="0">Title: biym-board-encoder</text>
<g class="stroked-text"><desc>Title: biym-board-encoder</desc>
<path d="M70360 74099
L70810 74099
" />
<path d="M70486 74886
L70585 74099
" />
<path d="M70974 74886
L71039 74361
" />
<path d="M71072 74099
L71030 74136
L71063 74174
L71105 74136
L71072 74099
L71063 74174
" />
<path d="M71302 74361
L71602 74361
" />
<path d="M71447 74099
L71363 74774
L71391 74849
L71461 74886
L71536 74886
" />
<path d="M71911 74886
L71841 74849
L71812 74774
L71897 74099
" />
<path d="M72516 74849
L72436 74886
L72286 74886
L72216 74849
L72187 74774
L72225 74474
L72272 74399
L72352 74361
L72501 74361
L72572 74399
L72600 74474
L72591 74549
L72206 74624
" />
<path d="M72895 74811
L72928 74849
L72886 74886
L72853 74849
L72895 74811
L72886 74886
" />
<path d="M72947 74399
L72980 74436
L72937 74474
L72905 74436
L72947 74399
L72937 74474
" />
<path d="M73861 74886
L73959 74099
" />
<path d="M73922 74399
L74001 74361
L74151 74361
L74222 74399
L74254 74436
L74282 74511
L74254 74736
L74207 74811
L74165 74849
L74086 74886
L73936 74886
L73865 74849
" />
<path d="M74573 74886
L74639 74361
" />
<path d="M74672 74099
L74629 74136
L74662 74174
L74704 74136
L74672 74099
L74662 74174
" />
<path d="M74939 74361
L75061 74886
" />
<path d="M75314 74361
L75061 74886
L74962 75074
L74920 75111
L74840 75149
" />
<path d="M75548 74886
L75614 74361
" />
<path d="M75604 74436
L75646 74399
L75726 74361
L75839 74361
L75909 74399
L75937 74474
L75885 74886
" />
<path d="M75937 74474
L75984 74399
L76064 74361
L76176 74361
L76246 74399
L76274 74474
L76223 74886
" />
<path d="M76635 74586
L77235 74586
" />
<path d="M77573 74886
L77671 74099
" />
<path d="M77634 74399
L77713 74361
L77863 74361
L77934 74399
L77966 74436
L77995 74511
L77966 74736
L77920 74811
L77877 74849
L77798 74886
L77648 74886
L77577 74849
" />
<path d="M78398 74886
L78327 74849
L78295 74811
L78266 74736
L78295 74511
L78341 74436
L78384 74399
L78463 74361
L78576 74361
L78646 74399
L78679 74436
L78707 74511
L78679 74736
L78632 74811
L78590 74849
L78510 74886
L78398 74886
" />
<path d="M79335 74886
L79387 74474
L79358 74399
L79288 74361
L79138 74361
L79058 74399
" />
<path d="M79340 74849
L79260 74886
L79073 74886
L79002 74849
L78974 74774
L78983 74699
L79030 74624
L79110 74586
L79297 74586
L79377 74549
" />
<path d="M79710 74886
L79776 74361
" />
<path d="M79757 74511
L79804 74436
L79846 74399
L79926 74361
L80001 74361
" />
<path d="M80535 74886
L80633 74099
" />
<path d="M80540 74849
L80460 74886
L80310 74886
L80240 74849
L80207 74811
L80179 74736
L80207 74511
L80254 74436
L80296 74399
L80375 74361
L80525 74361
L80596 74399
" />
<path d="M80947 74586
L81547 74586
" />
<path d="M82189 74849
L82110 74886
L81960 74886
L81889 74849
L81861 74774
L81899 74474
L81946 74399
L82025 74361
L82175 74361
L82246 74399
L82274 74474
L82264 74549
L81880 74624
" />
<path d="M82625 74361
L82560 74886
" />
<path d="M82616 74436
L82658 74399
L82738 74361
L82850 74361
L82920 74399
L82949 74474
L82897 74886
" />
<path d="M83614 74849
L83534 74886
L83385 74886
L83314 74849
L83281 74811
L83253 74736
L83281 74511
L83328 74436
L83370 74399
L83450 74361
L83600 74361
L83670 74399
" />
<path d="M84059 74886
L83989 74849
L83956 74811
L83928 74736
L83956 74511
L84003 74436
L84045 74399
L84125 74361
L84237 74361
L84308 74399
L84341 74436
L84369 74511
L84341 74736
L84294 74811
L84252 74849
L84172 74886
L84059 74886
" />
<path d="M84997 74886
L85095 74099
" />
<path d="M85001 74849
L84922 74886
L84772 74886
L84702 74849
L84669 74811
L84641 74736
L84669 74511
L84716 74436
L84758 74399
L84837 74361
L84987 74361
L85058 74399
" />
<path d="M85676 74849
L85597 74886
L85447 74886
L85376 74849
L85348 74774
L85386 74474
L85433 74399
L85512 74361
L85662 74361
L85733 74399
L85761 74474
L85751 74549
L85367 74624
" />
<path d="M86047 74886
L86112 74361
" />
<path d="M86094 74511
L86140 74436
L86183 74399
L86262 74361
L86337 74361
" />
</g></g>
<g style="fill:#840000; fill-opacity:0.0; 
stroke:#840000; stroke-width:60.000000; stroke-opacity:1; 
stroke-linecap:round; stroke-linejoin:round;">
<text x="70079.606299" y="73408.346457"
textLength="10609.685039" font-size="787.401575" lengthAdjust="spacingAndGlyphs"
text-anchor="start" opacity="0">File: encoder.kicad_sch</text>
<g class="stroked-text"><desc>File: encoder.kicad_sch</desc>
<path d="M70447 73070
L70250 73070
" />
<path d="M70250 73380
L70250 72789
L70531 72789
" />
<path d="M70756 73380
L70756 72986
" />
<path d="M70756 72789
L70728 72817
L70756 72845
L70784 72817
L70756 72789
L70756 72845
" />
<path d="M71121 73380
L71065 73352
L71037 73295
L71037 72789
" />
<path d="M71571 73352
L71515 73380
L71403 73380
L71346 73352
L71318 73295
L71318 73070
L71346 73014
L71403 72986
L71515 72986
L71571 73014
L71600 73070
L71600 73127
L71318 73183
" />
<path d="M71853 73323
L71881 73352
L71853 73380
L71825 73352
L71853 73323
L71853 73380
" />
<path d="M71853 73014
L71881 73042
L71853 73070
L71825 73042
L71853 73014
L71853 73070
" />
<path d="M72809 73352
L72752 73380
L72640 73380
L72584 73352
L72556 73295
L72556 73070
L72584 73014
L72640 72986
L72752 72986
L72809 73014
L72837 73070
L72837 73127
L72556 73183
" />
<path d="M73090 72986
L73090 73380
" />
<path d="M73090 73042
L73118 73014
L73174 72986
L73259 72986
L73315 73014
L73343 73070
L73343 73380
" />
<path d="M73877 73352
L73821 73380
L73709 73380
L73652 73352
L73624 73323
L73596 73267
L73596 73098
L73624 73042
L73652 73014
L73709 72986
L73821 72986
L73877 73014
" />
<path d="M74215 73380
L74159 73352
L74130 73323
L74102 73267
L74102 73098
L74130 73042
L74159 73014
L74215 72986
L74299 72986
L74355 73014
L74384 73042
L74412 73098
L74412 73267
L74384 73323
L74355 73352
L74299 73380
L74215 73380
" />
<path d="M74918 73380
L74918 72789
" />
<path d="M74918 73352
L74862 73380
L74749 73380
L74693 73352
L74665 73323
L74637 73267
L74637 73098
L74665 73042
L74693 73014
L74749 72986
L74862 72986
L74918 73014
" />
<path d="M75424 73352
L75368 73380
L75255 73380
L75199 73352
L75171 73295
L75171 73070
L75199 73014
L75255 72986
L75368 72986
L75424 73014
L75452 73070
L75452 73127
L75171 73183
" />
<path d="M75705 73380
L75705 72986
" />
<path d="M75705 73098
L75733 73042
L75762 73014
L75818 72986
L75874 72986
" />
<path d="M76071 73323
L76099 73352
L76071 73380
L76043 73352
L76071 73323
L76071 73380
" />
<path d="M76352 73380
L76352 72789
" />
<path d="M76408 73155
L76577 73380
" />
<path d="M76577 72986
L76352 73211
" />
<path d="M76830 73380
L76830 72986
" />
<path d="M76830 72789
L76802 72817
L76830 72845
L76858 72817
L76830 72789
L76830 72845
" />
<path d="M77364 73352
L77308 73380
L77196 73380
L77139 73352
L77111 73323
L77083 73267
L77083 73098
L77111 73042
L77139 73014
L77196 72986
L77308 72986
L77364 73014
" />
<path d="M77871 73380
L77871 73070
L77842 73014
L77786 72986
L77674 72986
L77618 73014
" />
<path d="M77871 73352
L77814 73380
L77674 73380
L77618 73352
L77589 73295
L77589 73239
L77618 73183
L77674 73155
L77814 73155
L77871 73127
" />
<path d="M78405 73380
L78405 72789
" />
<path d="M78405 73352
L78349 73380
L78236 73380
L78180 73352
L78152 73323
L78124 73267
L78124 73098
L78152 73042
L78180 73014
L78236 72986
L78349 72986
L78405 73014
" />
<path d="M78546 73436
L78995 73436
" />
<path d="M79108 73352
L79164 73380
L79277 73380
L79333 73352
L79361 73295
L79361 73267
L79333 73211
L79277 73183
L79192 73183
L79136 73155
L79108 73098
L79108 73070
L79136 73014
L79192 72986
L79277 72986
L79333 73014
" />
<path d="M79867 73352
L79811 73380
L79699 73380
L79642 73352
L79614 73323
L79586 73267
L79586 73098
L79614 73042
L79642 73014
L79699 72986
L79811 72986
L79867 73014
" />
<path d="M80120 73380
L80120 72789
" />
<path d="M80373 73380
L80373 73070
L80345 73014
L80289 72986
L80205 72986
L80148 73014
L80120 73042
" />
</g><path d="M69685 71459
L112205 71459
" />
<text x="70079.606299" y="72345.354331"
textLength="7962.125984" font-size="787.401575" lengthAdjust="spacingAndGlyphs"
text-anchor="start" opacity="0">Sheet: /encoder/</text>
<g class="stroked-text"><desc>Sheet: /encoder/</desc>
<path d="M70222 72289
L70306 72317
L70447 72317
L70503 72289
L70531 72260
L70559 72204
L70559 72148
L70531 72092
L70503 72064
L70447 72035
L70334 72007
L70278 71979
L70250 71951
L70222 71895
L70222 71839
L70250 71782
L70278 71754
L70334 71726
L70475 71726
L70559 71754
" />
<path d="M70812 72317
L70812 71726
" />
<path d="M71065 72317
L71065 72007
L71037 71951
L70981 71923
L70897 71923
L70840 71951
L70812 71979
" />
<path d="M71571 72289
L71515 72317
L71403 72317
L71346 72289
L71318 72232
L71318 72007
L71346 71951
L71403 71923
L71515 71923
L71571 71951
L71600 72007
L71600 72064
L71318 72120
" />
<path d="M72078 72289
L72021 72317
L71909 72317
L71853 72289
L71825 72232
L71825 72007
L71853 71951
L71909 71923
L72021 71923
L72078 71951
L72106 72007
L72106 72064
L71825 72120
" />
<path d="M72274 71923
L72499 71923
" />
<path d="M72359 71726
L72359 72232
L72387 72289
L72443 72317
L72499 72317
" />
<path d="M72696 72260
L72724 72289
L72696 72317
L72668 72289
L72696 72260
L72696 72317
" />
<path d="M72696 71951
L72724 71979
L72696 72007
L72668 71979
L72696 71951
L72696 72007
" />
<path d="M73849 71698
L73343 72457
" />
<path d="M74271 72289
L74215 72317
L74102 72317
L74046 72289
L74018 72232
L74018 72007
L74046 71951
L74102 71923
L74215 71923
L74271 71951
L74299 72007
L74299 72064
L74018 72120
" />
<path d="M74552 71923
L74552 72317
" />
<path d="M74552 71979
L74580 71951
L74637 71923
L74721 71923
L74777 71951
L74805 72007
L74805 72317
" />
<path d="M75340 72289
L75283 72317
L75171 72317
L75115 72289
L75087 72260
L75058 72204
L75058 72035
L75087 71979
L75115 71951
L75171 71923
L75283 71923
L75340 71951
" />
<path d="M75677 72317
L75621 72289
L75593 72260
L75565 72204
L75565 72035
L75593 71979
L75621 71951
L75677 71923
L75762 71923
L75818 71951
L75846 71979
L75874 72035
L75874 72204
L75846 72260
L75818 72289
L75762 72317
L75677 72317
" />
<path d="M76380 72317
L76380 71726
" />
<path d="M76380 72289
L76324 72317
L76211 72317
L76155 72289
L76127 72260
L76099 72204
L76099 72035
L76127 71979
L76155 71951
L76211 71923
L76324 71923
L76380 71951
" />
<path d="M76886 72289
L76830 72317
L76718 72317
L76661 72289
L76633 72232
L76633 72007
L76661 71951
L76718 71923
L76830 71923
L76886 71951
L76915 72007
L76915 72064
L76633 72120
" />
<path d="M77168 72317
L77168 71923
" />
<path d="M77168 72035
L77196 71979
L77224 71951
L77280 71923
L77336 71923
" />
<path d="M77955 71698
L77449 72457
" />
</g></g>
<g style="fill:#840000; fill-opacity:0.0; 
stroke:#840000; stroke-width:118.110236; stroke-opacity:1; 
stroke-linecap:round; stroke-linejoin:round;">
<text x="70079.606299" y="71164.251969"
textLength="6499.803150" font-size="787.401575" lengthAdjust="spacingAndGlyphs"
text-anchor="start" opacity="0">Peter Polidoro</text>
<g class="stroked-text"><desc>Peter Polidoro</desc>
<path d="M70296 71136
L70296 70545
L70521 70545
L70578 70573
L70606 70601
L70634 70658
L70634 70742
L70606 70798
L70578 70826
L70521 70854
L70296 70854
" />
<path d="M71112 71107
L71056 71136
L70943 71136
L70887 71107
L70859 71051
L70859 70826
L70887 70770
L70943 70742
L71056 70742
L71112 70770
L71140 70826
L71140 70883
L70859 70939
" />
<path d="M71309 70742
L71534 70742
" />
<path d="M71393 70545
L71393 71051
L71421 71107
L71478 71136
L71534 71136
" />
<path d="M71956 71107
L71899 71136
L71787 71136
L71731 71107
L71703 71051
L71703 70826
L71731 70770
L71787 70742
L71899 70742
L71956 70770
L71984 70826
L71984 70883
L71703 70939
" />
<path d="M72237 71136
L72237 70742
" />
<path d="M72237 70854
L72265 70798
L72293 70770
L72349 70742
L72406 70742
" />
<path d="M73052 71136
L73052 70545
L73277 70545
L73334 70573
L73362 70601
L73390 70658
L73390 70742
L73362 70798
L73334 70826
L73277 70854
L73052 70854
" />
<path d="M73727 71136
L73671 71107
L73643 71079
L73615 71023
L73615 70854
L73643 70798
L73671 70770
L73727 70742
L73812 70742
L73868 70770
L73896 70798
L73924 70854
L73924 71023
L73896 71079
L73868 71107
L73812 71136
L73727 71136
" />
<path d="M74262 71136
L74205 71107
L74177 71051
L74177 70545
" />
<path d="M74487 71136
L74487 70742
" />
<path d="M74487 70545
L74458 70573
L74487 70601
L74515 70573
L74487 70545
L74487 70601
" />
<path d="M75021 71136
L75021 70545
" />
<path d="M75021 71107
L74965 71136
L74852 71136
L74796 71107
L74768 71079
L74740 71023
L74740 70854
L74768 70798
L74796 70770
L74852 70742
L74965 70742
L75021 70770
" />
<path d="M75386 71136
L75330 71107
L75302 71079
L75274 71023
L75274 70854
L75302 70798
L75330 70770
L75386 70742
L75471 70742
L75527 70770
L75555 70798
L75583 70854
L75583 71023
L75555 71079
L75527 71107
L75471 71136
L75386 71136
" />
<path d="M75836 71136
L75836 70742
" />
<path d="M75836 70854
L75865 70798
L75893 70770
L75949 70742
L76005 70742
" />
<path d="M76286 71136
L76230 71107
L76202 71079
L76174 71023
L76174 70854
L76202 70798
L76230 70770
L76286 70742
L76371 70742
L76427 70770
L76455 70798
L76483 70854
L76483 71023
L76455 71079
L76427 71107
L76371 71136
L76286 71136
" />
</g></g>
<g style="fill:#840000; fill-opacity:0.0; 
stroke:#840000; stroke-width:60.000000; stroke-opacity:1; 
stroke-linecap:round; stroke-linejoin:round;">
<text x="70079.606299" y="69983.149606"
textLength="153.543307" font-size="787.401575" lengthAdjust="spacingAndGlyphs"
text-anchor="start" opacity="0"></text>
<g class="stroked-text"><desc></desc>
</g><text x="70079.606299" y="68802.047244"
textLength="60.000000" font-size="787.401575" lengthAdjust="spacingAndGlyphs"
text-anchor="start" opacity="0"></text>
<g class="stroked-text"><desc></desc>
</g><text x="70079.606299" y="67620.944882"
textLength="60.000000" font-size="787.401575" lengthAdjust="spacingAndGlyphs"
text-anchor="start" opacity="0"></text>
<g class="stroked-text"><desc></desc>
</g><text x="70079.606299" y="66439.842520"
textLength="60.000000" font-size="787.401575" lengthAdjust="spacingAndGlyphs"
text-anchor="start" opacity="0"></text>
<g class="stroked-text"><desc></desc>
</g><path d="M77559 75396
L77559 76577
" />
<path d="M102756 75396
L102756 77955
" />
<g >
</g>
<g style="fill:#840000; fill-opacity:0.0; 
stroke:#840000; stroke-width:200.000000; stroke-opacity:1; 
stroke-linecap:round; stroke-linejoin:round;">
<path style="fill:#840000; fill-opacity:0.0; 
stroke:#840000; stroke-width:200.000000; stroke-opacity:1; 
stroke-linecap:round; stroke-linejoin:round;fill:none"
d="M 59200.000000,24300.000000
60800.000000,24300.000000
" /> 
<path style="fill:#840000; fill-opacity:0.0; 
stroke:#840000; stroke-width:200.000000; stroke-opacity:1; 
stroke-linecap:round; stroke-linejoin:round;fill:none"
d="M 59200.000000,23700.000000
60800.000000,23700.000000
" /> 
</g>
<g style="fill:#840000; fill-opacity:0.0; 
stroke:#840000; stroke-width:60.000000; stroke-opacity:1; 
stroke-linecap:round; stroke-linejoin:round;">
<path d="M60000 23700
L60000 22000
" />
<path d="M60000 24300
L60000 26000
" />
</g>
<g style="fill:#006464; fill-opacity:0.0; 
stroke:#006464; stroke-width:60.000000; stroke-opacity:1; 
stroke-linecap:round; stroke-linejoin:round;">
<text x="61415.472441" y="23200.000000"
textLength="840.944882" font-size="533.307087" lengthAdjust="spacingAndGlyphs"
text-anchor="middle" opacity="0">C8</text>
<g class="stroked-text"><desc>C8</desc>
<path d="M61348 23142
L61329 23161
L61272 23180
L61234 23180
L61177 23161
L61139 23123
L61120 23085
L61101 23009
L61101 22952
L61120 22876
L61139 22838
L61177 22800
L61234 22780
L61272 22780
L61329 22800
L61348 22819
" />
<path d="M61577 22952
L61539 22933
L61520 22914
L61501 22876
L61501 22857
L61520 22819
L61539 22800
L61577 22780
L61653 22780
L61691 22800
L61710 22819
L61729 22857
L61729 22876
L61710 22914
L61691 22933
L61653 22952
L61577 22952
L61539 22971
L61520 22990
L61501 23028
L61501 23104
L61520 23142
L61539 23161
L61577 23180
L61653 23180
L61691 23161
L61710 23142
L61729 23104
L61729 23028
L61710 22990
L61691 22971
L61653 22952
" />
</g><text x="61640.196850" y="24150.000000"
textLength="1302.874016" font-size="400.000000" lengthAdjust="spacingAndGlyphs"
text-anchor="middle" opacity="0">0.1uF</text>
<g class="stroked-text"><desc>0.1uF</desc>
<path d="M61147 23835
L61175 23835
L61204 23850
L61218 23864
L61233 23892
L61247 23950
L61247 24021
L61233 24078
L61218 24107
L61204 24121
L61175 24135
L61147 24135
L61118 24121
L61104 24107
L61090 24078
L61075 24021
L61075 23950
L61090 23892
L61104 23864
L61118 23850
L61147 23835
" />
<path d="M61375 24107
L61390 24121
L61375 24135
L61361 24121
L61375 24107
L61375 24135
" />
<path d="M61675 24135
L61504 24135
" />
<path d="M61590 24135
L61590 23835
L61561 23878
L61533 23907
L61504 23921
" />
<path d="M61933 23935
L61933 24135
" />
<path d="M61804 23935
L61804 24092
L61818 24121
L61847 24135
L61890 24135
L61918 24121
L61933 24107
" />
<path d="M62175 23978
L62075 23978
" />
<path d="M62075 24135
L62075 23835
L62218 23835
" />
</g></g>
</g>
<g style="fill:#006464; fill-opacity:0.0; 
stroke:#006464; stroke-width:60.000000; stroke-opacity:1; 
stroke-linecap:round; stroke-linejoin:round;">
<g >
</g>
<g style="fill:#840000; fill-opacity:0.0; 
stroke:#840000; stroke-width:60.000000; stroke-opacity:1; 
stroke-linecap:round; stroke-linejoin:round;">
<rect x="47000.000000" y="32500.000000" width="8000.000000" height="11000.000000" rx="0.000000" />
<path d="M47000 39500
L45000 39500
" />
</g>
<g style="fill:#006464; fill-opacity:0.0; 
stroke:#006464; stroke-width:60.000000; stroke-opacity:1; 
stroke-linecap:round; stroke-linejoin:round;">
<text x="47400.000000" y="39750.000000"
textLength="1036.181102" font-size="666.653543" lengthAdjust="spacingAndGlyphs"
text-anchor="start" opacity="0">~{CS}</text>
<g class="stroked-text"><desc>~{CS}</desc>
<path d="M47430 39085
L47930 39085
" />
<path d="M47834 39678
L47810 39702
L47739 39726
L47691 39726
L47620 39702
L47572 39654
L47549 39607
L47525 39511
L47525 39440
L47549 39345
L47572 39297
L47620 39250
L47691 39226
L47739 39226
L47810 39250
L47834 39273
" />
<path d="M47930 39085
L48406 39085
" />
<path d="M48025 39702
L48096 39726
L48215 39726
L48263 39702
L48287 39678
L48310 39630
L48310 39583
L48287 39535
L48263 39511
L48215 39488
L48120 39464
L48072 39440
L48049 39416
L48025 39369
L48025 39321
L48049 39273
L48072 39250
L48120 39226
L48239 39226
L48310 39250
" />
</g></g>
<g style="fill:#A90000; fill-opacity:0.0; 
stroke:#A90000; stroke-width:60.000000; stroke-opacity:1; 
stroke-linecap:round; stroke-linejoin:round;">
<text x="46000.000000" y="39400.000000"
textLength="536.181102" font-size="666.653543" lengthAdjust="spacingAndGlyphs"
text-anchor="middle" opacity="0">1</text>
<g class="stroked-text"><desc>1</desc>
<path d="M46142 39376
L45857 39376
" />
<path d="M46000 39376
L46000 38876
L45952 38947
L45904 38995
L45857 39019
" />
</g></g>
<g style="fill:#840000; fill-opacity:0.0; 
stroke:#840000; stroke-width:60.000000; stroke-opacity:1; 
stroke-linecap:round; stroke-linejoin:round;">
<path d="M55000 38500
L57000 38500
" />
</g>
<g style="fill:#006464; fill-opacity:0.0; 
stroke:#006464; stroke-width:60.000000; stroke-opacity:1; 
stroke-linecap:round; stroke-linejoin:round;">
<text x="54600.000000" y="38750.000000"
textLength="583.818898" font-size="666.653543" lengthAdjust="spacingAndGlyphs"
text-anchor="end" opacity="0">U</text>
<g class="stroked-text"><desc>U</desc>
<path d="M54165 38226
L54165 38630
L54189 38678
L54212 38702
L54260 38726
L54355 38726
L54403 38702
L54427 38678
L54450 38630
L54450 38226
" />
</g></g>
<g style="fill:#A90000; fill-opacity:0.0; 
stroke:#A90000; stroke-width:60.000000; stroke-opacity:1; 
stroke-linecap:round; stroke-linejoin:round;">
<text x="56000.000000" y="38400.000000"
textLength="1012.362205" font-size="666.653543" lengthAdjust="spacingAndGlyphs"
text-anchor="middle" opacity="0">10</text>
<g class="stroked-text"><desc>10</desc>
<path d="M55904 38376
L55619 38376
" />
<path d="M55761 38376
L55761 37876
L55714 37947
L55666 37995
L55619 38019
" />
<path d="M56214 37876
L56261 37876
L56309 37900
L56333 37923
L56357 37971
L56380 38066
L56380 38185
L56357 38280
L56333 38328
L56309 38352
L56261 38376
L56214 38376
L56166 38352
L56142 38328
L56119 38280
L56095 38185
L56095 38066
L56119 37971
L56142 37923
L56166 37900
L56214 37876
" />
</g></g>
<g style="fill:#840000; fill-opacity:0.0; 
stroke:#840000; stroke-width:60.000000; stroke-opacity:1; 
stroke-linecap:round; stroke-linejoin:round;">
<path d="M50500 32500
L50500 30500
" />
</g>
<g style="fill:#006464; fill-opacity:0.0; 
stroke:#006464; stroke-width:60.000000; stroke-opacity:1; 
stroke-linecap:round; stroke-linejoin:round;">
<g transform="rotate(-90.000000 50500.000000 32900.000000)">
<text x="50500.000000" y="33150.000000"
textLength="1488.582677" font-size="666.653543" lengthAdjust="spacingAndGlyphs"
text-anchor="end" opacity="0">VDD</text>
</g>
<g class="stroked-text"><desc>VDD</desc>
<path d="M50226 34310
L50726 34144
L50226 33977
" />
<path d="M50726 33810
L50226 33810
L50226 33691
L50250 33620
L50297 33572
L50345 33549
L50440 33525
L50511 33525
L50607 33549
L50654 33572
L50702 33620
L50726 33691
L50726 33810
" />
<path d="M50726 33310
L50226 33310
L50226 33191
L50250 33120
L50297 33072
L50345 33049
L50440 33025
L50511 33025
L50607 33049
L50654 33072
L50702 33120
L50726 33191
L50726 33310
" />
</g></g>
<g style="fill:#A90000; fill-opacity:0.0; 
stroke:#A90000; stroke-width:60.000000; stroke-opacity:1; 
stroke-linecap:round; stroke-linejoin:round;">
<g transform="rotate(-90.000000 50400.000000 31500.000000)">
<text x="50400.000000" y="31500.000000"
textLength="1012.362205" font-size="666.653543" lengthAdjust="spacingAndGlyphs"
text-anchor="middle" opacity="0">11</text>
</g>
<g class="stroked-text"><desc>11</desc>
<path d="M50376 31595
L50376 31880
" />
<path d="M50376 31738
L49876 31738
L49947 31785
L49995 31833
L50019 31880
" />
<path d="M50376 31119
L50376 31404
" />
<path d="M50376 31261
L49876 31261
L49947 31309
L49995 31357
L50019 31404
" />
</g></g>
<g style="fill:#840000; fill-opacity:0.0; 
stroke:#840000; stroke-width:60.000000; stroke-opacity:1; 
stroke-linecap:round; stroke-linejoin:round;">
<path d="M51500 32500
L51500 30500
" />
</g>
<g style="fill:#006464; fill-opacity:0.0; 
stroke:#006464; stroke-width:60.000000; stroke-opacity:1; 
stroke-linecap:round; stroke-linejoin:round;">
<g transform="rotate(-90.000000 51500.000000 32900.000000)">
<text x="51500.000000" y="33150.000000"
textLength="2869.527559" font-size="666.653543" lengthAdjust="spacingAndGlyphs"
text-anchor="end" opacity="0">VDD3V3</text>
</g>
<g class="stroked-text"><desc>VDD3V3</desc>
<path d="M51226 35691
L51726 35525
L51226 35358
" />
<path d="M51726 35191
L51226 35191
L51226 35072
L51250 35001
L51297 34953
L51345 34930
L51440 34906
L51511 34906
L51607 34930
L51654 34953
L51702 35001
L51726 35072
L51726 35191
" />
<path d="M51726 34691
L51226 34691
L51226 34572
L51250 34501
L51297 34453
L51345 34430
L51440 34406
L51511 34406
L51607 34430
L51654 34453
L51702 34501
L51726 34572
L51726 34691
" />
<path d="M51226 34239
L51226 33930
L51416 34096
L51416 34025
L51440 33977
L51464 33953
L51511 33930
L51630 33930
L51678 33953
L51702 33977
L51726 34025
L51726 34168
L51702 34215
L51678 34239
" />
<path d="M51226 33787
L51726 33620
L51226 33453
" />
<path d="M51226 33334
L51226 33025
L51416 33191
L51416 33120
L51440 33072
L51464 33049
L51511 33025
L51630 33025
L51678 33049
L51702 33072
L51726 33120
L51726 33263
L51702 33310
L51678 33334
" />
</g></g>
<g style="fill:#A90000; fill-opacity:0.0; 
stroke:#A90000; stroke-width:60.000000; stroke-opacity:1; 
stroke-linecap:round; stroke-linejoin:round;">
<g transform="rotate(-90.000000 51400.000000 31500.000000)">
<text x="51400.000000" y="31500.000000"
textLength="1012.362205" font-size="666.653543" lengthAdjust="spacingAndGlyphs"
text-anchor="middle" opacity="0">12</text>
</g>
<g class="stroked-text"><desc>12</desc>
<path d="M51376 31595
L51376 31880
" />
<path d="M51376 31738
L50876 31738
L50947 31785
L50995 31833
L51019 31880
" />
<path d="M50923 31404
L50900 31380
L50876 31333
L50876 31214
L50900 31166
L50923 31142
L50971 31119
L51019 31119
L51090 31142
L51376 31428
L51376 31119
" />
</g></g>
<g style="fill:#840000; fill-opacity:0.0; 
stroke:#840000; stroke-width:60.000000; stroke-opacity:1; 
stroke-linecap:round; stroke-linejoin:round;">
<path d="M50500 43500
L50500 45500
" />
</g>
<g style="fill:#006464; fill-opacity:0.0; 
stroke:#006464; stroke-width:60.000000; stroke-opacity:1; 
stroke-linecap:round; stroke-linejoin:round;">
<g transform="rotate(-90.000000 50500.000000 43100.000000)">
<text x="50500.000000" y="43350.000000"
textLength="1583.818898" font-size="666.653543" lengthAdjust="spacingAndGlyphs"
text-anchor="start" opacity="0">GND</text>
</g>
<g class="stroked-text"><desc>GND</desc>
<path d="M50250 42689
L50226 42736
L50226 42808
L50250 42879
L50297 42927
L50345 42950
L50440 42974
L50511 42974
L50607 42950
L50654 42927
L50702 42879
L50726 42808
L50726 42760
L50702 42689
L50678 42665
L50511 42665
L50511 42760
" />
<path d="M50726 42450
L50226 42450
L50726 42165
L50226 42165
" />
<path d="M50726 41927
L50226 41927
L50226 41808
L50250 41736
L50297 41689
L50345 41665
L50440 41641
L50511 41641
L50607 41665
L50654 41689
L50702 41736
L50726 41808
L50726 41927
" />
</g></g>
<g style="fill:#A90000; fill-opacity:0.0; 
stroke:#A90000; stroke-width:60.000000; stroke-opacity:1; 
stroke-linecap:round; stroke-linejoin:round;">
<g transform="rotate(-90.000000 50400.000000 44500.000000)">
<text x="50400.000000" y="44500.000000"
textLength="1012.362205" font-size="666.653543" lengthAdjust="spacingAndGlyphs"
text-anchor="middle" opacity="0">13</text>
</g>
<g class="stroked-text"><desc>13</desc>
<path d="M50376 44595
L50376 44880
" />
<path d="M50376 44738
L49876 44738
L49947 44785
L49995 44833
L50019 44880
" />
<path d="M49876 44428
L49876 44119
L50066 44285
L50066 44214
L50090 44166
L50114 44142
L50161 44119
L50280 44119
L50328 44142
L50352 44166
L50376 44214
L50376 44357
L50352 44404
L50328 44428
" />
</g></g>
<g style="fill:#840000; fill-opacity:0.0; 
stroke:#840000; stroke-width:60.000000; stroke-opacity:1; 
stroke-linecap:round; stroke-linejoin:round;">
<path d="M55000 36500
L57000 36500
" />
</g>
<g style="fill:#006464; fill-opacity:0.0; 
stroke:#006464; stroke-width:60.000000; stroke-opacity:1; 
stroke-linecap:round; stroke-linejoin:round;">
<text x="54600.000000" y="36750.000000"
textLength="2464.763780" font-size="666.653543" lengthAdjust="spacingAndGlyphs"
text-anchor="end" opacity="0">I/PWM</text>
<g class="stroked-text"><desc>I/PWM</desc>
<path d="M52284 36726
L52284 36226
" />
<path d="M52879 36202
L52450 36845
" />
<path d="M53046 36726
L53046 36226
L53236 36226
L53284 36250
L53308 36273
L53331 36321
L53331 36392
L53308 36440
L53284 36464
L53236 36488
L53046 36488
" />
<path d="M53498 36226
L53617 36726
L53712 36369
L53808 36726
L53927 36226
" />
<path d="M54117 36726
L54117 36226
L54284 36583
L54450 36226
L54450 36726
" />
</g></g>
<g style="fill:#A90000; fill-opacity:0.0; 
stroke:#A90000; stroke-width:60.000000; stroke-opacity:1; 
stroke-linecap:round; stroke-linejoin:round;">
<text x="56000.000000" y="36400.000000"
textLength="1012.362205" font-size="666.653543" lengthAdjust="spacingAndGlyphs"
text-anchor="middle" opacity="0">14</text>
<g class="stroked-text"><desc>14</desc>
<path d="M55904 36376
L55619 36376
" />
<path d="M55761 36376
L55761 35876
L55714 35947
L55666 35995
L55619 36019
" />
<path d="M56333 36042
L56333 36376
" />
<path d="M56214 35852
L56095 36209
L56404 36209
" />
</g></g>
<g style="fill:#840000; fill-opacity:0.0; 
stroke:#840000; stroke-width:60.000000; stroke-opacity:1; 
stroke-linecap:round; stroke-linejoin:round;">
<path d="M47000 38500
L45000 38500
" />
</g>
<g style="fill:#006464; fill-opacity:0.0; 
stroke:#006464; stroke-width:60.000000; stroke-opacity:1; 
stroke-linecap:round; stroke-linejoin:round;">
<text x="47400.000000" y="38750.000000"
textLength="1464.763780" font-size="666.653543" lengthAdjust="spacingAndGlyphs"
text-anchor="start" opacity="0">CLK</text>
<g class="stroked-text"><desc>CLK</desc>
<path d="M47834 38678
L47810 38702
L47739 38726
L47691 38726
L47620 38702
L47572 38654
L47549 38607
L47525 38511
L47525 38440
L47549 38345
L47572 38297
L47620 38250
L47691 38226
L47739 38226
L47810 38250
L47834 38273
" />
<path d="M48287 38726
L48049 38726
L48049 38226
" />
<path d="M48453 38726
L48453 38226
" />
<path d="M48739 38726
L48525 38440
" />
<path d="M48739 38226
L48453 38511
" />
</g></g>
<g style="fill:#A90000; fill-opacity:0.0; 
stroke:#A90000; stroke-width:60.000000; stroke-opacity:1; 
stroke-linecap:round; stroke-linejoin:round;">
<text x="46000.000000" y="38400.000000"
textLength="536.181102" font-size="666.653543" lengthAdjust="spacingAndGlyphs"
text-anchor="middle" opacity="0">2</text>
<g class="stroked-text"><desc>2</desc>
<path d="M45857 37923
L45880 37900
L45928 37876
L46047 37876
L46095 37900
L46119 37923
L46142 37971
L46142 38019
L46119 38090
L45833 38376
L46142 38376
" />
</g></g>
<g style="fill:#840000; fill-opacity:0.0; 
stroke:#840000; stroke-width:60.000000; stroke-opacity:1; 
stroke-linecap:round; stroke-linejoin:round;">
<path d="M47000 37500
L45000 37500
" />
</g>
<g style="fill:#006464; fill-opacity:0.0; 
stroke:#006464; stroke-width:60.000000; stroke-opacity:1; 
stroke-linecap:round; stroke-linejoin:round;">
<text x="47400.000000" y="37750.000000"
textLength="1869.527559" font-size="666.653543" lengthAdjust="spacingAndGlyphs"
text-anchor="start" opacity="0">MISO</text>
<g class="stroked-text"><desc>MISO</desc>
<path d="M47549 37726
L47549 37226
L47715 37583
L47882 37226
L47882 37726
" />
<path d="M48120 37726
L48120 37226
" />
<path d="M48334 37702
L48406 37726
L48525 37726
L48572 37702
L48596 37678
L48620 37630
L48620 37583
L48596 37535
L48572 37511
L48525 37488
L48430 37464
L48382 37440
L48358 37416
L48334 37369
L48334 37321
L48358 37273
L48382 37250
L48430 37226
L48549 37226
L48620 37250
" />
<path d="M48930 37226
L49025 37226
L49072 37250
L49120 37297
L49144 37392
L49144 37559
L49120 37654
L49072 37702
L49025 37726
L48930 37726
L48882 37702
L48834 37654
L48810 37559
L48810 37392
L48834 37297
L48882 37250
L48930 37226
" />
</g></g>
<g style="fill:#A90000; fill-opacity:0.0; 
stroke:#A90000; stroke-width:60.000000; stroke-opacity:1; 
stroke-linecap:round; stroke-linejoin:round;">
<text x="46000.000000" y="37400.000000"
textLength="536.181102" font-size="666.653543" lengthAdjust="spacingAndGlyphs"
text-anchor="middle" opacity="0">3</text>
<g class="stroked-text"><desc>3</desc>
<path d="M45833 36876
L46142 36876
L45976 37066
L46047 37066
L46095 37090
L46119 37114
L46142 37161
L46142 37280
L46119 37328
L46095 37352
L46047 37376
L45904 37376
L45857 37352
L45833 37328
" />
</g></g>
<g style="fill:#840000; fill-opacity:0.0; 
stroke:#840000; stroke-width:60.000000; stroke-opacity:1; 
stroke-linecap:round; stroke-linejoin:round;">
<path d="M47000 36500
L45000 36500
" />
</g>
<g style="fill:#006464; fill-opacity:0.0; 
stroke:#006464; stroke-width:60.000000; stroke-opacity:1; 
stroke-linecap:round; stroke-linejoin:round;">
<text x="47400.000000" y="36750.000000"
textLength="1869.527559" font-size="666.653543" lengthAdjust="spacingAndGlyphs"
text-anchor="start" opacity="0">MOSI</text>
<g class="stroked-text"><desc>MOSI</desc>
<path d="M47549 36726
L47549 36226
L47715 36583
L47882 36226
L47882 36726
" />
<path d="M48215 36226
L48310 36226
L48358 36250
L48406 36297
L48430 36392
L48430 36559
L48406 36654
L48358 36702
L48310 36726
L48215 36726
L48168 36702
L48120 36654
L48096 36559
L48096 36392
L48120 36297
L48168 36250
L48215 36226
" />
<path d="M48620 36702
L48691 36726
L48810 36726
L48858 36702
L48882 36678
L48906 36630
L48906 36583
L48882 36535
L48858 36511
L48810 36488
L48715 36464
L48668 36440
L48644 36416
L48620 36369
L48620 36321
L48644 36273
L48668 36250
L48715 36226
L48834 36226
L48906 36250
" />
<path d="M49120 36726
L49120 36226
" />
</g></g>
<g style="fill:#A90000; fill-opacity:0.0; 
stroke:#A90000; stroke-width:60.000000; stroke-opacity:1; 
stroke-linecap:round; stroke-linejoin:round;">
<text x="46000.000000" y="36400.000000"
textLength="536.181102" font-size="666.653543" lengthAdjust="spacingAndGlyphs"
text-anchor="middle" opacity="0">4</text>
<g class="stroked-text"><desc>4</desc>
<path d="M46095 36042
L46095 36376
" />
<path d="M45976 35852
L45857 36209
L46166 36209
" />
</g></g>
<g style="fill:#840000; fill-opacity:0.0; 
stroke:#840000; stroke-width:60.000000; stroke-opacity:1; 
stroke-linecap:round; stroke-linejoin:round;">
<path d="M51500 43500
L51500 45500
" />
</g>
<g style="fill:#006464; fill-opacity:0.0; 
stroke:#006464; stroke-width:60.000000; stroke-opacity:1; 
stroke-linecap:round; stroke-linejoin:round;">
<g transform="rotate(-90.000000 51500.000000 43100.000000)">
<text x="51500.000000" y="43350.000000"
textLength="1750.472441" font-size="666.653543" lengthAdjust="spacingAndGlyphs"
text-anchor="start" opacity="0">TEST</text>
</g>
<g class="stroked-text"><desc>TEST</desc>
<path d="M51226 43022
L51226 42736
" />
<path d="M51726 42879
L51226 42879
" />
<path d="M51464 42570
L51464 42403
" />
<path d="M51726 42331
L51726 42570
L51226 42570
L51226 42331
" />
<path d="M51702 42141
L51726 42070
L51726 41950
L51702 41903
L51678 41879
L51630 41855
L51583 41855
L51535 41879
L51511 41903
L51488 41950
L51464 42046
L51440 42093
L51416 42117
L51369 42141
L51321 42141
L51273 42117
L51250 42093
L51226 42046
L51226 41927
L51250 41855
" />
<path d="M51226 41712
L51226 41427
" />
<path d="M51726 41570
L51226 41570
" />
</g></g>
<g style="fill:#A90000; fill-opacity:0.0; 
stroke:#A90000; stroke-width:60.000000; stroke-opacity:1; 
stroke-linecap:round; stroke-linejoin:round;">
<g transform="rotate(-90.000000 51400.000000 44500.000000)">
<text x="51400.000000" y="44500.000000"
textLength="536.181102" font-size="666.653543" lengthAdjust="spacingAndGlyphs"
text-anchor="middle" opacity="0">5</text>
</g>
<g class="stroked-text"><desc>5</desc>
<path d="M50876 44380
L50876 44619
L51114 44642
L51090 44619
L51066 44571
L51066 44452
L51090 44404
L51114 44380
L51161 44357
L51280 44357
L51328 44380
L51352 44404
L51376 44452
L51376 44571
L51352 44619
L51328 44642
" />
</g></g>
<g style="fill:#840000; fill-opacity:0.0; 
stroke:#840000; stroke-width:60.000000; stroke-opacity:1; 
stroke-linecap:round; stroke-linejoin:round;">
<path d="M55000 35500
L57000 35500
" />
</g>
<g style="fill:#006464; fill-opacity:0.0; 
stroke:#006464; stroke-width:60.000000; stroke-opacity:1; 
stroke-linecap:round; stroke-linejoin:round;">
<text x="54600.000000" y="35750.000000"
textLength="560.000000" font-size="666.653543" lengthAdjust="spacingAndGlyphs"
text-anchor="end" opacity="0">B</text>
<g class="stroked-text"><desc>B</desc>
<path d="M54355 35464
L54427 35488
L54450 35511
L54474 35559
L54474 35630
L54450 35678
L54427 35702
L54379 35726
L54189 35726
L54189 35226
L54355 35226
L54403 35250
L54427 35273
L54450 35321
L54450 35369
L54427 35416
L54403 35440
L54355 35464
L54189 35464
" />
</g></g>
<g style="fill:#A90000; fill-opacity:0.0; 
stroke:#A90000; stroke-width:60.000000; stroke-opacity:1; 
stroke-linecap:round; stroke-linejoin:round;">
<text x="56000.000000" y="35400.000000"
textLength="536.181102" font-size="666.653543" lengthAdjust="spacingAndGlyphs"
text-anchor="middle" opacity="0">6</text>
<g class="stroked-text"><desc>6</desc>
<path d="M56095 34876
L56000 34876
L55952 34900
L55928 34923
L55880 34995
L55857 35090
L55857 35280
L55880 35328
L55904 35352
L55952 35376
L56047 35376
L56095 35352
L56119 35328
L56142 35280
L56142 35161
L56119 35114
L56095 35090
L56047 35066
L55952 35066
L55904 35090
L55880 35114
L55857 35161
" />
</g></g>
<g style="fill:#840000; fill-opacity:0.0; 
stroke:#840000; stroke-width:60.000000; stroke-opacity:1; 
stroke-linecap:round; stroke-linejoin:round;">
<path d="M55000 34500
L57000 34500
" />
</g>
<g style="fill:#006464; fill-opacity:0.0; 
stroke:#006464; stroke-width:60.000000; stroke-opacity:1; 
stroke-linecap:round; stroke-linejoin:round;">
<text x="54600.000000" y="34750.000000"
textLength="488.582677" font-size="666.653543" lengthAdjust="spacingAndGlyphs"
text-anchor="end" opacity="0">A</text>
<g class="stroked-text"><desc>A</desc>
<path d="M54236 34583
L54474 34583
" />
<path d="M54189 34726
L54355 34226
L54522 34726
" />
</g></g>
<g style="fill:#A90000; fill-opacity:0.0; 
stroke:#A90000; stroke-width:60.000000; stroke-opacity:1; 
stroke-linecap:round; stroke-linejoin:round;">
<text x="56000.000000" y="34400.000000"
textLength="536.181102" font-size="666.653543" lengthAdjust="spacingAndGlyphs"
text-anchor="middle" opacity="0">7</text>
<g class="stroked-text"><desc>7</desc>
<path d="M55833 33876
L56166 33876
L55952 34376
" />
</g></g>
<g style="fill:#840000; fill-opacity:0.0; 
stroke:#840000; stroke-width:60.000000; stroke-opacity:1; 
stroke-linecap:round; stroke-linejoin:round;">
<path d="M55000 40500
L57000 40500
" />
</g>
<g style="fill:#006464; fill-opacity:0.0; 
stroke:#006464; stroke-width:60.000000; stroke-opacity:1; 
stroke-linecap:round; stroke-linejoin:round;">
<text x="54600.000000" y="40750.000000"
textLength="2798.110236" font-size="666.653543" lengthAdjust="spacingAndGlyphs"
text-anchor="end" opacity="0">W/PWM</text>
<g class="stroked-text"><desc>W/PWM</desc>
<path d="M51903 40226
L52022 40726
L52117 40369
L52212 40726
L52331 40226
" />
<path d="M52879 40202
L52450 40845
" />
<path d="M53046 40726
L53046 40226
L53236 40226
L53284 40250
L53308 40273
L53331 40321
L53331 40392
L53308 40440
L53284 40464
L53236 40488
L53046 40488
" />
<path d="M53498 40226
L53617 40726
L53712 40369
L53808 40726
L53927 40226
" />
<path d="M54117 40726
L54117 40226
L54284 40583
L54450 40226
L54450 40726
" />
</g></g>
<g style="fill:#A90000; fill-opacity:0.0; 
stroke:#A90000; stroke-width:60.000000; stroke-opacity:1; 
stroke-linecap:round; stroke-linejoin:round;">
<text x="56000.000000" y="40400.000000"
textLength="536.181102" font-size="666.653543" lengthAdjust="spacingAndGlyphs"
text-anchor="middle" opacity="0">8</text>
<g class="stroked-text"><desc>8</desc>
<path d="M55952 40090
L55904 40066
L55880 40042
L55857 39995
L55857 39971
L55880 39923
L55904 39900
L55952 39876
L56047 39876
L56095 39900
L56119 39923
L56142 39971
L56142 39995
L56119 40042
L56095 40066
L56047 40090
L55952 40090
L55904 40114
L55880 40138
L55857 40185
L55857 40280
L55880 40328
L55904 40352
L55952 40376
L56047 40376
L56095 40352
L56119 40328
L56142 40280
L56142 40185
L56119 40138
L56095 40114
L56047 40090
" />
</g></g>
<g style="fill:#840000; fill-opacity:0.0; 
stroke:#840000; stroke-width:60.000000; stroke-opacity:1; 
stroke-linecap:round; stroke-linejoin:round;">
<path d="M55000 39500
L57000 39500
" />
</g>
<g style="fill:#006464; fill-opacity:0.0; 
stroke:#006464; stroke-width:60.000000; stroke-opacity:1; 
stroke-linecap:round; stroke-linejoin:round;">
<text x="54600.000000" y="39750.000000"
textLength="488.582677" font-size="666.653543" lengthAdjust="spacingAndGlyphs"
text-anchor="end" opacity="0">V</text>
<g class="stroked-text"><desc>V</desc>
<path d="M54189 39226
L54355 39726
L54522 39226
" />
</g></g>
<g style="fill:#A90000; fill-opacity:0.0; 
stroke:#A90000; stroke-width:60.000000; stroke-opacity:1; 
stroke-linecap:round; stroke-linejoin:round;">
<text x="56000.000000" y="39400.000000"
textLength="536.181102" font-size="666.653543" lengthAdjust="spacingAndGlyphs"
text-anchor="middle" opacity="0">9</text>
<g class="stroked-text"><desc>9</desc>
<path d="M55904 39376
L56000 39376
L56047 39352
L56071 39328
L56119 39257
L56142 39161
L56142 38971
L56119 38923
L56095 38900
L56047 38876
L55952 38876
L55904 38900
L55880 38923
L55857 38971
L55857 39090
L55880 39138
L55904 39161
L55952 39185
L56047 39185
L56095 39161
L56119 39138
L56142 39090
" />
</g></g>
<g style="fill:#006464; fill-opacity:0.0; 
stroke:#006464; stroke-width:60.000000; stroke-opacity:1; 
stroke-linecap:round; stroke-linejoin:round;">
<text x="54637.480315" y="32300.000000"
textLength="1260.000000" font-size="800.000000" lengthAdjust="spacingAndGlyphs"
text-anchor="middle" opacity="0">U2</text>
<g class="stroked-text"><desc>U2</desc>
<path d="M54180 31671
L54180 32157
L54208 32214
L54237 32242
L54294 32271
L54408 32271
L54466 32242
L54494 32214
L54523 32157
L54523 31671
" />
<path d="M54780 31728
L54808 31700
L54866 31671
L55008 31671
L55066 31700
L55094 31728
L55123 31785
L55123 31842
L55094 31928
L54751 32271
L55123 32271
" />
</g><text x="54023.188976" y="44300.000000"
textLength="4031.417323" font-size="800.000000" lengthAdjust="spacingAndGlyphs"
text-anchor="middle" opacity="0">AS5047P</text>
<g class="stroked-text"><desc>AS5047P</desc>
<path d="M52151 44100
L52437 44100
" />
<path d="M52094 44271
L52294 43671
L52494 44271
" />
<path d="M52666 44242
L52751 44271
L52894 44271
L52951 44242
L52980 44214
L53008 44157
L53008 44100
L52980 44042
L52951 44014
L52894 43985
L52780 43957
L52723 43928
L52694 43900
L52666 43842
L52666 43785
L52694 43728
L52723 43700
L52780 43671
L52923 43671
L53008 43700
" />
<path d="M53551 43671
L53266 43671
L53237 43957
L53266 43928
L53323 43900
L53466 43900
L53523 43928
L53551 43957
L53580 44014
L53580 44157
L53551 44214
L53523 44242
L53466 44271
L53323 44271
L53266 44242
L53237 44214
" />
<path d="M53951 43671
L54008 43671
L54066 43700
L54094 43728
L54123 43785
L54151 43900
L54151 44042
L54123 44157
L54094 44214
L54066 44242
L54008 44271
L53951 44271
L53894 44242
L53866 44214
L53837 44157
L53808 44042
L53808 43900
L53837 43785
L53866 43728
L53894 43700
L53951 43671
" />
<path d="M54666 43871
L54666 44271
" />
<path d="M54523 43642
L54380 44071
L54751 44071
" />
<path d="M54923 43671
L55323 43671
L55066 44271
" />
<path d="M55551 44271
L55551 43671
L55780 43671
L55837 43700
L55866 43728
L55894 43785
L55894 43871
L55866 43928
L55837 43957
L55780 43985
L55551 43985
" />
</g></g>
</g>
<g style="fill:#006464; fill-opacity:0.0; 
stroke:#006464; stroke-width:62.519685; stroke-opacity:1; 
stroke-linecap:round; stroke-linejoin:round;">
</g>
<g style="fill:#006464; fill-opacity:0.0; 
stroke:#006464; stroke-width:60.000000; stroke-opacity:1; 
stroke-linecap:round; stroke-linejoin:round;">
</g>
<g style="fill:#725600; fill-opacity:0.0; 
stroke:#725600; stroke-width:60.000000; stroke-opacity:1; 
stroke-linecap:round; stroke-linejoin:round;">
<text x="43425.000000" y="36750.000000"
textLength="1869.527559" font-size="666.653543" lengthAdjust="spacingAndGlyphs"
text-anchor="end" opacity="0">MOSI</text>
<g class="stroked-text"><desc>MOSI</desc>
<path d="M41704 36726
L41704 36226
L41871 36583
L42037 36226
L42037 36726
" />
<path d="M42371 36226
L42466 36226
L42514 36250
L42561 36297
L42585 36392
L42585 36559
L42561 36654
L42514 36702
L42466 36726
L42371 36726
L42323 36702
L42275 36654
L42252 36559
L42252 36392
L42275 36297
L42323 36250
L42371 36226
" />
<path d="M42775 36702
L42847 36726
L42966 36726
L43014 36702
L43037 36678
L43061 36630
L43061 36583
L43037 36535
L43014 36511
L42966 36488
L42871 36464
L42823 36440
L42799 36416
L42775 36369
L42775 36321
L42799 36273
L42823 36250
L42871 36226
L42990 36226
L43061 36250
" />
<path d="M43275 36726
L43275 36226
" />
</g><path style="fill:#725600; fill-opacity:0.0; 
stroke:#725600; stroke-width:60.000000; stroke-opacity:1; 
stroke-linecap:round; stroke-linejoin:round;fill:none"
d="M 44000.000000,36500.000000
43750.000000,36250.000000
43500.000000,36250.000000
43500.000000,36750.000000
43750.000000,36750.000000
Z" /> 
</g>
<g style="fill:#725600; fill-opacity:0.0; 
stroke:#725600; stroke-width:62.519685; stroke-opacity:1; 
stroke-linecap:round; stroke-linejoin:round;">
</g>
<g style="fill:#725600; fill-opacity:0.0; 
stroke:#725600; stroke-width:60.000000; stroke-opacity:1; 
stroke-linecap:round; stroke-linejoin:round;">
<text x="33425.000000" y="30250.000000"
textLength="1583.818898" font-size="666.653543" lengthAdjust="spacingAndGlyphs"
text-anchor="end" opacity="0">GND</text>
<g class="stroked-text"><desc>GND</desc>
<path d="M32252 29750
L32204 29726
L32133 29726
L32061 29750
L32014 29797
L31990 29845
L31966 29940
L31966 30011
L31990 30107
L32014 30154
L32061 30202
L32133 30226
L32180 30226
L32252 30202
L32275 30178
L32275 30011
L32180 30011
" />
<path d="M32490 30226
L32490 29726
L32775 30226
L32775 29726
" />
<path d="M33014 30226
L33014 29726
L33133 29726
L33204 29750
L33252 29797
L33275 29845
L33299 29940
L33299 30011
L33275 30107
L33252 30154
L33204 30202
L33133 30226
L33014 30226
" />
</g><path style="fill:#725600; fill-opacity:0.0; 
stroke:#725600; stroke-width:60.000000; stroke-opacity:1; 
stroke-linecap:round; stroke-linejoin:round;fill:none"
d="M 34000.000000,29750.000000
33500.000000,29750.000000
33500.000000,30250.000000
34000.000000,30250.000000
Z" /> 
</g>
<g style="fill:#725600; fill-opacity:0.0; 
stroke:#725600; stroke-width:62.519685; stroke-opacity:1; 
stroke-linecap:round; stroke-linejoin:round;">
</g>
<g style="fill:#725600; fill-opacity:0.0; 
stroke:#725600; stroke-width:60.000000; stroke-opacity:1; 
stroke-linecap:round; stroke-linejoin:round;">
<text x="33425.000000" y="29250.000000"
textLength="3179.055118" font-size="666.653543" lengthAdjust="spacingAndGlyphs"
text-anchor="end" opacity="0">VDIGITAL</text>
<g class="stroked-text"><desc>VDIGITAL</desc>
<path d="M30323 28726
L30490 29226
L30656 28726
" />
<path d="M30823 29226
L30823 28726
L30942 28726
L31014 28750
L31061 28797
L31085 28845
L31109 28940
L31109 29011
L31085 29107
L31061 29154
L31014 29202
L30942 29226
L30823 29226
" />
<path d="M31323 29226
L31323 28726
" />
<path d="M31823 28750
L31775 28726
L31704 28726
L31633 28750
L31585 28797
L31561 28845
L31537 28940
L31537 29011
L31561 29107
L31585 29154
L31633 29202
L31704 29226
L31752 29226
L31823 29202
L31847 29178
L31847 29011
L31752 29011
" />
<path d="M32061 29226
L32061 28726
" />
<path d="M32228 28726
L32514 28726
" />
<path d="M32371 29226
L32371 28726
" />
<path d="M32656 29083
L32895 29083
" />
<path d="M32609 29226
L32775 28726
L32942 29226
" />
<path d="M33347 29226
L33109 29226
L33109 28726
" />
</g><path style="fill:#725600; fill-opacity:0.0; 
stroke:#725600; stroke-width:60.000000; stroke-opacity:1; 
stroke-linecap:round; stroke-linejoin:round;fill:none"
d="M 34000.000000,28750.000000
33500.000000,28750.000000
33500.000000,29250.000000
34000.000000,29250.000000
Z" /> 
</g>
<g style="fill:#725600; fill-opacity:0.0; 
stroke:#725600; stroke-width:62.519685; stroke-opacity:1; 
stroke-linecap:round; stroke-linejoin:round;">
</g>
<g style="fill:#725600; fill-opacity:0.0; 
stroke:#725600; stroke-width:60.000000; stroke-opacity:1; 
stroke-linecap:round; stroke-linejoin:round;">
<text x="43425.000000" y="37750.000000"
textLength="1869.527559" font-size="666.653543" lengthAdjust="spacingAndGlyphs"
text-anchor="end" opacity="0">MISO</text>
<g class="stroked-text"><desc>MISO</desc>
<path d="M41704 37726
L41704 37226
L41871 37583
L42037 37226
L42037 37726
" />
<path d="M42275 37726
L42275 37226
" />
<path d="M42490 37702
L42561 37726
L42680 37726
L42728 37702
L42752 37678
L42775 37630
L42775 37583
L42752 37535
L42728 37511
L42680 37488
L42585 37464
L42537 37440
L42514 37416
L42490 37369
L42490 37321
L42514 37273
L42537 37250
L42585 37226
L42704 37226
L42775 37250
" />
<path d="M43085 37226
L43180 37226
L43228 37250
L43275 37297
L43299 37392
L43299 37559
L43275 37654
L43228 37702
L43180 37726
L43085 37726
L43037 37702
L42990 37654
L42966 37559
L42966 37392
L42990 37297
L43037 37250
L43085 37226
" />
</g><path style="fill:#725600; fill-opacity:0.0; 
stroke:#725600; stroke-width:60.000000; stroke-opacity:1; 
stroke-linecap:round; stroke-linejoin:round;fill:none"
d="M 43500.000000,37500.000000
43750.000000,37750.000000
44000.000000,37750.000000
44000.000000,37250.000000
43750.000000,37250.000000
Z" /> 
</g>
<g style="fill:#725600; fill-opacity:0.0; 
stroke:#725600; stroke-width:62.519685; stroke-opacity:1; 
stroke-linecap:round; stroke-linejoin:round;">
</g>
<g style="fill:#725600; fill-opacity:0.0; 
stroke:#725600; stroke-width:60.000000; stroke-opacity:1; 
stroke-linecap:round; stroke-linejoin:round;">
<text x="58575.000000" y="34750.000000"
textLength="488.582677" font-size="666.653543" lengthAdjust="spacingAndGlyphs"
text-anchor="start" opacity="0">A</text>
<g class="stroked-text"><desc>A</desc>
<path d="M58700 34583
L58938 34583
" />
<path d="M58652 34726
L58819 34226
L58985 34726
" />
</g><path style="fill:#725600; fill-opacity:0.0; 
stroke:#725600; stroke-width:60.000000; stroke-opacity:1; 
stroke-linecap:round; stroke-linejoin:round;fill:none"
d="M 58500.000000,34500.000000
58250.000000,34250.000000
58000.000000,34250.000000
58000.000000,34750.000000
58250.000000,34750.000000
Z" /> 
</g>
<g style="fill:#725600; fill-opacity:0.0; 
stroke:#725600; stroke-width:62.519685; stroke-opacity:1; 
stroke-linecap:round; stroke-linejoin:round;">
</g>
<g style="fill:#725600; fill-opacity:0.0; 
stroke:#725600; stroke-width:60.000000; stroke-opacity:1; 
stroke-linecap:round; stroke-linejoin:round;">
<text x="58575.000000" y="35750.000000"
textLength="560.000000" font-size="666.653543" lengthAdjust="spacingAndGlyphs"
text-anchor="start" opacity="0">B</text>
<g class="stroked-text"><desc>B</desc>
<path d="M58890 35464
L58962 35488
L58985 35511
L59009 35559
L59009 35630
L58985 35678
L58962 35702
L58914 35726
L58724 35726
L58724 35226
L58890 35226
L58938 35250
L58962 35273
L58985 35321
L58985 35369
L58962 35416
L58938 35440
L58890 35464
L58724 35464
" />
</g><path style="fill:#725600; fill-opacity:0.0; 
stroke:#725600; stroke-width:60.000000; stroke-opacity:1; 
stroke-linecap:round; stroke-linejoin:round;fill:none"
d="M 58500.000000,35500.000000
58250.000000,35250.000000
58000.000000,35250.000000
58000.000000,35750.000000
58250.000000,35750.000000
Z" /> 
</g>
<g style="fill:#725600; fill-opacity:0.0; 
stroke:#725600; stroke-width:62.519685; stroke-opacity:1; 
stroke-linecap:round; stroke-linejoin:round;">
</g>
<g style="fill:#725600; fill-opacity:0.0; 
stroke:#725600; stroke-width:60.000000; stroke-opacity:1; 
stroke-linecap:round; stroke-linejoin:round;">
<text x="43425.000000" y="38750.000000"
textLength="1464.763780" font-size="666.653543" lengthAdjust="spacingAndGlyphs"
text-anchor="end" opacity="0">CLK</text>
<g class="stroked-text"><desc>CLK</desc>
<path d="M42395 38678
L42371 38702
L42299 38726
L42252 38726
L42180 38702
L42133 38654
L42109 38607
L42085 38511
L42085 38440
L42109 38345
L42133 38297
L42180 38250
L42252 38226
L42299 38226
L42371 38250
L42395 38273
" />
<path d="M42847 38726
L42609 38726
L42609 38226
" />
<path d="M43014 38726
L43014 38226
" />
<path d="M43299 38726
L43085 38440
" />
<path d="M43299 38226
L43014 38511
" />
</g><path style="fill:#725600; fill-opacity:0.0; 
stroke:#725600; stroke-width:60.000000; stroke-opacity:1; 
stroke-linecap:round; stroke-linejoin:round;fill:none"
d="M 44000.000000,38500.000000
43750.000000,38250.000000
43500.000000,38250.000000
43500.000000,38750.000000
43750.000000,38750.000000
Z" /> 
</g>
<g style="fill:#725600; fill-opacity:0.0; 
stroke:#725600; stroke-width:62.519685; stroke-opacity:1; 
stroke-linecap:round; stroke-linejoin:round;">
</g>
<g style="fill:#725600; fill-opacity:0.0; 
stroke:#725600; stroke-width:60.000000; stroke-opacity:1; 
stroke-linecap:round; stroke-linejoin:round;">
<text x="43425.000000" y="39750.000000"
textLength="1036.181102" font-size="666.653543" lengthAdjust="spacingAndGlyphs"
text-anchor="end" opacity="0">~{CS}</text>
<g class="stroked-text"><desc>~{CS}</desc>
<path d="M42418 39085
L42918 39085
" />
<path d="M42823 39678
L42799 39702
L42728 39726
L42680 39726
L42609 39702
L42561 39654
L42537 39607
L42514 39511
L42514 39440
L42537 39345
L42561 39297
L42609 39250
L42680 39226
L42728 39226
L42799 39250
L42823 39273
" />
<path d="M42918 39085
L43395 39085
" />
<path d="M43014 39702
L43085 39726
L43204 39726
L43252 39702
L43275 39678
L43299 39630
L43299 39583
L43275 39535
L43252 39511
L43204 39488
L43109 39464
L43061 39440
L43037 39416
L43014 39369
L43014 39321
L43037 39273
L43061 39250
L43109 39226
L43228 39226
L43299 39250
" />
</g><path style="fill:#725600; fill-opacity:0.0; 
stroke:#725600; stroke-width:60.000000; stroke-opacity:1; 
stroke-linecap:round; stroke-linejoin:round;fill:none"
d="M 44000.000000,39500.000000
43750.000000,39250.000000
43500.000000,39250.000000
43500.000000,39750.000000
43750.000000,39750.000000
Z" /> 
</g>
<g style="fill:#725600; fill-opacity:0.0; 
stroke:#725600; stroke-width:62.519685; stroke-opacity:1; 
stroke-linecap:round; stroke-linejoin:round;">
</g>
<g style="fill:#725600; fill-opacity:0.0; 
stroke:#725600; stroke-width:60.000000; stroke-opacity:1; 
stroke-linecap:round; stroke-linejoin:round;">
</g>
<g style="fill:#0F0F0F; fill-opacity:0.0; 
stroke:#0F0F0F; stroke-width:60.000000; stroke-opacity:1; 
stroke-linecap:round; stroke-linejoin:round;">
<text x="35000.000000" y="28862.480315"
textLength="3179.055118" font-size="666.653543" lengthAdjust="spacingAndGlyphs"
text-anchor="start" opacity="0">VDIGITAL</text>
<g class="stroked-text"><desc>VDIGITAL</desc>
<path d="M35077 28338
L35244 28838
L35410 28338
" />
<path d="M35577 28838
L35577 28338
L35696 28338
L35768 28362
L35815 28410
L35839 28457
L35863 28552
L35863 28624
L35839 28719
L35815 28767
L35768 28814
L35696 28838
L35577 28838
" />
<path d="M36077 28838
L36077 28338
" />
<path d="M36577 28362
L36530 28338
L36458 28338
L36387 28362
L36339 28410
L36315 28457
L36291 28552
L36291 28624
L36315 28719
L36339 28767
L36387 28814
L36458 28838
L36506 28838
L36577 28814
L36601 28791
L36601 28624
L36506 28624
" />
<path d="M36815 28838
L36815 28338
" />
<path d="M36982 28338
L37268 28338
" />
<path d="M37125 28838
L37125 28338
" />
<path d="M37410 28695
L37649 28695
" />
<path d="M37363 28838
L37530 28338
L37696 28838
" />
<path d="M38101 28838
L37863 28838
L37863 28338
" />
</g></g>
<g style="fill:#0F0F0F; fill-opacity:0.0; 
stroke:#0F0F0F; stroke-width:62.519685; stroke-opacity:1; 
stroke-linecap:round; stroke-linejoin:round;">
</g>
<g style="fill:#0F0F0F; fill-opacity:0.0; 
stroke:#0F0F0F; stroke-width:60.000000; stroke-opacity:1; 
stroke-linecap:round; stroke-linejoin:round;">
<text x="35000.000000" y="29862.480315"
textLength="1583.818898" font-size="666.653543" lengthAdjust="spacingAndGlyphs"
text-anchor="start" opacity="0">GND</text>
<g class="stroked-text"><desc>GND</desc>
<path d="M35410 29362
L35363 29338
L35291 29338
L35220 29362
L35172 29410
L35149 29457
L35125 29552
L35125 29624
L35149 29719
L35172 29767
L35220 29814
L35291 29838
L35339 29838
L35410 29814
L35434 29791
L35434 29624
L35339 29624
" />
<path d="M35649 29838
L35649 29338
L35934 29838
L35934 29338
" />
<path d="M36172 29838
L36172 29338
L36291 29338
L36363 29362
L36410 29410
L36434 29457
L36458 29552
L36458 29624
L36434 29719
L36410 29767
L36363 29814
L36291 29838
L36172 29838
" />
</g></g>
<g style="fill:#0F0F0F; fill-opacity:0.0; 
stroke:#0F0F0F; stroke-width:62.519685; stroke-opacity:1; 
stroke-linecap:round; stroke-linejoin:round;">
</g>
<g style="fill:#0F0F0F; fill-opacity:0.0; 
stroke:#0F0F0F; stroke-width:60.000000; stroke-opacity:1; 
stroke-linecap:round; stroke-linejoin:round;">
<text x="60000.000000" y="26862.480315"
textLength="1583.818898" font-size="666.653543" lengthAdjust="spacingAndGlyphs"
text-anchor="start" opacity="0">GND</text>
<g class="stroked-text"><desc>GND</desc>
<path d="M60410 26362
L60363 26338
L60291 26338
L60220 26362
L60172 26410
L60149 26457
L60125 26552
L60125 26624
L60149 26719
L60172 26767
L60220 26814
L60291 26838
L60339 26838
L60410 26814
L60434 26791
L60434 26624
L60339 26624
" />
<path d="M60649 26838
L60649 26338
L60934 26838
L60934 26338
" />
<path d="M61172 26838
L61172 26338
L61291 26338
L61363 26362
L61410 26410
L61434 26457
L61458 26552
L61458 26624
L61434 26719
L61410 26767
L61363 26814
L61291 26838
L61172 26838
" />
</g></g>
<g style="fill:#0F0F0F; fill-opacity:0.0; 
stroke:#0F0F0F; stroke-width:62.519685; stroke-opacity:1; 
stroke-linecap:round; stroke-linejoin:round;">
</g>
<g style="fill:#0F0F0F; fill-opacity:0.0; 
stroke:#0F0F0F; stroke-width:60.000000; stroke-opacity:1; 
stroke-linecap:round; stroke-linejoin:round;">
<text x="60000.000000" y="20862.480315"
textLength="3179.055118" font-size="666.653543" lengthAdjust="spacingAndGlyphs"
text-anchor="start" opacity="0">VDIGITAL</text>
<g class="stroked-text"><desc>VDIGITAL</desc>
<path d="M60077 20338
L60244 20838
L60410 20338
" />
<path d="M60577 20838
L60577 20338
L60696 20338
L60768 20362
L60815 20410
L60839 20457
L60863 20552
L60863 20624
L60839 20719
L60815 20767
L60768 20814
L60696 20838
L60577 20838
" />
<path d="M61077 20838
L61077 20338
" />
<path d="M61577 20362
L61530 20338
L61458 20338
L61387 20362
L61339 20410
L61315 20457
L61291 20552
L61291 20624
L61315 20719
L61339 20767
L61387 20814
L61458 20838
L61506 20838
L61577 20814
L61601 20791
L61601 20624
L61506 20624
" />
<path d="M61815 20838
L61815 20338
" />
<path d="M61982 20338
L62268 20338
" />
<path d="M62125 20838
L62125 20338
" />
<path d="M62410 20695
L62649 20695
" />
<path d="M62363 20838
L62530 20338
L62696 20838
" />
<path d="M63101 20838
L62863 20838
L62863 20338
" />
</g></g>
<g style="fill:#0F0F0F; fill-opacity:0.0; 
stroke:#0F0F0F; stroke-width:62.519685; stroke-opacity:1; 
stroke-linecap:round; stroke-linejoin:round;">
</g>
<g style="fill:#0F0F0F; fill-opacity:0.0; 
stroke:#0F0F0F; stroke-width:60.000000; stroke-opacity:1; 
stroke-linecap:round; stroke-linejoin:round;">
<text x="51000.000000" y="28362.480315"
textLength="3179.055118" font-size="666.653543" lengthAdjust="spacingAndGlyphs"
text-anchor="start" opacity="0">VDIGITAL</text>
<g class="stroked-text"><desc>VDIGITAL</desc>
<path d="M51077 27838
L51244 28338
L51410 27838
" />
<path d="M51577 28338
L51577 27838
L51696 27838
L51768 27862
L51815 27910
L51839 27957
L51863 28052
L51863 28124
L51839 28219
L51815 28267
L51768 28314
L51696 28338
L51577 28338
" />
<path d="M52077 28338
L52077 27838
" />
<path d="M52577 27862
L52530 27838
L52458 27838
L52387 27862
L52339 27910
L52315 27957
L52291 28052
L52291 28124
L52315 28219
L52339 28267
L52387 28314
L52458 28338
L52506 28338
L52577 28314
L52601 28291
L52601 28124
L52506 28124
" />
<path d="M52815 28338
L52815 27838
" />
<path d="M52982 27838
L53268 27838
" />
<path d="M53125 28338
L53125 27838
" />
<path d="M53410 28195
L53649 28195
" />
<path d="M53363 28338
L53530 27838
L53696 28338
" />
<path d="M54101 28338
L53863 28338
L53863 27838
" />
</g></g>
<g style="fill:#0F0F0F; fill-opacity:0.0; 
stroke:#0F0F0F; stroke-width:62.519685; stroke-opacity:1; 
stroke-linecap:round; stroke-linejoin:round;">
</g>
<g style="fill:#0F0F0F; fill-opacity:0.0; 
stroke:#0F0F0F; stroke-width:60.000000; stroke-opacity:1; 
stroke-linecap:round; stroke-linejoin:round;">
<text x="51000.000000" y="47362.480315"
textLength="1583.818898" font-size="666.653543" lengthAdjust="spacingAndGlyphs"
text-anchor="start" opacity="0">GND</text>
<g class="stroked-text"><desc>GND</desc>
<path d="M51410 46862
L51363 46838
L51291 46838
L51220 46862
L51172 46910
L51149 46957
L51125 47052
L51125 47124
L51149 47219
L51172 47267
L51220 47314
L51291 47338
L51339 47338
L51410 47314
L51434 47291
L51434 47124
L51339 47124
" />
<path d="M51649 47338
L51649 46838
L51934 47338
L51934 46838
" />
<path d="M52172 47338
L52172 46838
L52291 46838
L52363 46862
L52410 46910
L52434 46957
L52458 47052
L52458 47124
L52434 47219
L52410 47267
L52363 47314
L52291 47338
L52172 47338
" />
</g></g>
<g style="fill:#009600; fill-opacity:0.0; 
stroke:#009600; stroke-width:60.000000; stroke-opacity:1; 
stroke-linecap:round; stroke-linejoin:round;">
<path d="M44000 36500
L45000 36500
" />
<path d="M51000 46500
L51500 46500
" />
<path d="M34000 30000
L35000 30000
" />
<path d="M34000 29000
L35000 29000
" />
<path d="M51500 45500
L51500 46500
" />
<path d="M60000 26000
L60000 27000
" />
<path d="M60000 21000
L60000 22000
" />
<path d="M51000 28500
L51000 29500
" />
<path d="M51500 29500
L51500 30500
" />
<path d="M51000 29500
L51500 29500
" />
<path d="M51000 46500
L51000 47500
" />
<path d="M50500 46500
L51000 46500
" />
<path d="M50500 45500
L50500 46500
" />
<path d="M50500 30500
L50500 29500
" />
<path d="M44000 38500
L45000 38500
" />
<path d="M44000 37500
L45000 37500
" />
<path d="M50500 29500
L51000 29500
" />
<path d="M44000 39500
L45000 39500
" />
<path d="M57000 35500
L58000 35500
" />
<path d="M57000 34500
L58000 34500
" />
</g>
<g style="fill:#000084; fill-opacity:0.0; 
stroke:#000084; stroke-width:60.000000; stroke-opacity:1; 
stroke-linecap:round; stroke-linejoin:round;">
<path d="M56760 40260
L57240 40740
" />
<path d="M57240 40260
L56760 40740
" />
<path d="M56760 36260
L57240 36740
" />
<path d="M57240 36260
L56760 36740
" />
<path d="M56760 38260
L57240 38740
" />
<path d="M57240 38260
L56760 38740
" />
<path d="M56760 39260
L57240 39740
" />
<path d="M57240 39260
L56760 39740
" />
</g>
<g style="fill:#009600; fill-opacity:0.0; 
stroke:#009600; stroke-width:60.000000; stroke-opacity:1; 
stroke-linecap:round; stroke-linejoin:round;">
</g>
<g style="fill:#009600; fill-opacity:1.0; 
stroke:#009600; stroke-width:60.000000; stroke-opacity:1; 
stroke-linecap:round; stroke-linejoin:round;">
<circle cx="51000.000000" cy="46500.000000" r="180.000000" /> 
<circle cx="51000.000000" cy="29500.000000" r="180.000000" /> 
</g> 
</svg>
