%TF.GenerationSoftware,KiCad,Pcbnew,6.0.9*%
%TF.CreationDate,2022-11-20T22:09:47-05:00*%
%TF.ProjectId,biym-board,6269796d-2d62-46f6-9172-642e6b696361,1.2*%
%TF.SameCoordinates,Original*%
%TF.FileFunction,Soldermask,Top*%
%TF.FilePolarity,Negative*%
%FSLAX46Y46*%
G04 Gerber Fmt 4.6, Leading zero omitted, Abs format (unit mm)*
G04 Created by KiCad (PCBNEW 6.0.9) date 2022-11-20 22:09:47*
%MOMM*%
%LPD*%
G01*
G04 APERTURE LIST*
G04 Aperture macros list*
%AMRoundRect*
0 Rectangle with rounded corners*
0 $1 Rounding radius*
0 $2 $3 $4 $5 $6 $7 $8 $9 X,Y pos of 4 corners*
0 Add a 4 corners polygon primitive as box body*
4,1,4,$2,$3,$4,$5,$6,$7,$8,$9,$2,$3,0*
0 Add four circle primitives for the rounded corners*
1,1,$1+$1,$2,$3*
1,1,$1+$1,$4,$5*
1,1,$1+$1,$6,$7*
1,1,$1+$1,$8,$9*
0 Add four rect primitives between the rounded corners*
20,1,$1+$1,$2,$3,$4,$5,0*
20,1,$1+$1,$4,$5,$6,$7,0*
20,1,$1+$1,$6,$7,$8,$9,0*
20,1,$1+$1,$8,$9,$2,$3,0*%
G04 Aperture macros list end*
%ADD10RoundRect,0.520700X0.520700X0.520700X-0.520700X0.520700X-0.520700X-0.520700X0.520700X-0.520700X0*%
%ADD11C,2.082800*%
%ADD12RoundRect,0.520700X-0.520700X-0.520700X0.520700X-0.520700X0.520700X0.520700X-0.520700X0.520700X0*%
%ADD13C,1.000000*%
%ADD14R,0.889000X0.609600*%
%ADD15R,0.700000X0.600000*%
%ADD16R,1.500000X2.300000*%
%ADD17R,0.700000X3.200000*%
%ADD18R,0.609600X0.889000*%
%ADD19RoundRect,0.150000X0.512500X0.150000X-0.512500X0.150000X-0.512500X-0.150000X0.512500X-0.150000X0*%
%ADD20R,0.600000X0.700000*%
%ADD21C,3.175000*%
%ADD22C,3.276600*%
%ADD23RoundRect,0.150000X0.150000X-0.512500X0.150000X0.512500X-0.150000X0.512500X-0.150000X-0.512500X0*%
%ADD24R,0.300000X0.800000*%
%ADD25R,1.000000X3.400000*%
%ADD26RoundRect,0.050000X-0.185000X-0.050000X0.185000X-0.050000X0.185000X0.050000X-0.185000X0.050000X0*%
%ADD27RoundRect,0.050000X-0.050000X-0.185000X0.050000X-0.185000X0.050000X0.185000X-0.050000X0.185000X0*%
%ADD28RoundRect,0.050000X-0.900000X-0.900000X0.900000X-0.900000X0.900000X0.900000X-0.900000X0.900000X0*%
%ADD29R,3.400000X1.000000*%
%ADD30RoundRect,0.100000X0.637500X0.100000X-0.637500X0.100000X-0.637500X-0.100000X0.637500X-0.100000X0*%
G04 APERTURE END LIST*
D10*
%TO.C,P7*%
X138730000Y-89840000D03*
D11*
X136190000Y-89840000D03*
X133650000Y-89840000D03*
X131110000Y-89840000D03*
%TD*%
D10*
%TO.C,P6*%
X148890000Y-89840000D03*
D11*
X146350000Y-89840000D03*
X143810000Y-89840000D03*
X141270000Y-89840000D03*
%TD*%
D10*
%TO.C,P5*%
X159050000Y-89840000D03*
D11*
X156510000Y-89840000D03*
X153970000Y-89840000D03*
X151430000Y-89840000D03*
%TD*%
D12*
%TO.C,P4*%
X151430000Y-110160000D03*
D11*
X153970000Y-110160000D03*
X156510000Y-110160000D03*
X159050000Y-110160000D03*
%TD*%
D12*
%TO.C,P3*%
X141270000Y-110160000D03*
D11*
X143810000Y-110160000D03*
X146350000Y-110160000D03*
X148890000Y-110160000D03*
%TD*%
D12*
%TO.C,P2*%
X131110000Y-110160000D03*
D11*
X133650000Y-110160000D03*
X136190000Y-110160000D03*
X138730000Y-110160000D03*
%TD*%
D12*
%TO.C,P1*%
X120950000Y-110160000D03*
D11*
X123490000Y-110160000D03*
X126030000Y-110160000D03*
X128570000Y-110160000D03*
%TD*%
D13*
%TO.C,FID4*%
X120000000Y-114000000D03*
%TD*%
%TO.C,FID3*%
X160000000Y-114000000D03*
%TD*%
%TO.C,FID2*%
X160000000Y-86000000D03*
%TD*%
%TO.C,FID1*%
X120000000Y-86000000D03*
%TD*%
D14*
%TO.C,C13*%
X146350000Y-98831600D03*
X146350000Y-97358400D03*
%TD*%
D15*
%TO.C,C4*%
X122220000Y-97325000D03*
X122220000Y-96325000D03*
%TD*%
D16*
%TO.C,J1*%
X129200000Y-84550000D03*
X134800000Y-84550000D03*
D17*
X131250000Y-86400000D03*
X132750000Y-86400000D03*
%TD*%
D16*
%TO.C,J5*%
X145550000Y-84550000D03*
X138450000Y-84550000D03*
D17*
X140500000Y-86400000D03*
X142000000Y-86400000D03*
X143500000Y-86400000D03*
%TD*%
D15*
%TO.C,R1*%
X119045000Y-96325000D03*
X119045000Y-97325000D03*
%TD*%
D18*
%TO.C,C14*%
X162123400Y-101905000D03*
X163596600Y-101905000D03*
%TD*%
D16*
%TO.C,J2*%
X126450000Y-115450000D03*
X133550000Y-115450000D03*
D17*
X131500000Y-113600000D03*
X130000000Y-113600000D03*
X128500000Y-113600000D03*
%TD*%
D19*
%TO.C,U4*%
X152567500Y-99045000D03*
X152567500Y-98095000D03*
X152567500Y-97145000D03*
X150292500Y-97145000D03*
X150292500Y-99045000D03*
%TD*%
D20*
%TO.C,C1*%
X120450000Y-103175000D03*
X121450000Y-103175000D03*
%TD*%
D21*
%TO.C,FW1*%
X162860000Y-91110000D03*
D22*
X117140000Y-91110000D03*
D21*
X162860000Y-108890000D03*
D22*
X117140000Y-108890000D03*
%TD*%
D18*
%TO.C,C15*%
X158948400Y-100000000D03*
X160421600Y-100000000D03*
%TD*%
D15*
%TO.C,C2*%
X123490000Y-97325000D03*
X123490000Y-96325000D03*
%TD*%
D14*
%TO.C,C11*%
X150160000Y-95656600D03*
X150160000Y-94183400D03*
%TD*%
D15*
%TO.C,C5*%
X119050000Y-101700000D03*
X119050000Y-100700000D03*
%TD*%
D20*
%TO.C,C7*%
X119545000Y-99365000D03*
X118545000Y-99365000D03*
%TD*%
D18*
%TO.C,C16*%
X158948400Y-98095000D03*
X160421600Y-98095000D03*
%TD*%
D16*
%TO.C,J6*%
X153550000Y-115450000D03*
X146450000Y-115450000D03*
D17*
X151500000Y-113600000D03*
X150000000Y-113600000D03*
X148500000Y-113600000D03*
%TD*%
D20*
%TO.C,R3*%
X162360000Y-104445000D03*
X163360000Y-104445000D03*
%TD*%
D23*
%TO.C,U5*%
X158735000Y-104312500D03*
X159685000Y-104312500D03*
X160635000Y-104312500D03*
X160635000Y-102037500D03*
X158735000Y-102037500D03*
%TD*%
D24*
%TO.C,U3*%
X158530000Y-92735000D03*
X158030000Y-92735000D03*
X157530000Y-92735000D03*
X157030000Y-92735000D03*
X157030000Y-95835000D03*
X157530000Y-95835000D03*
X158030000Y-95835000D03*
X158530000Y-95835000D03*
%TD*%
D25*
%TO.C,L1*%
X150380000Y-101905000D03*
X152480000Y-101905000D03*
%TD*%
D15*
%TO.C,C10*%
X159685000Y-94785000D03*
X159685000Y-93785000D03*
%TD*%
D14*
%TO.C,C12*%
X148255000Y-98831600D03*
X148255000Y-97358400D03*
%TD*%
D15*
%TO.C,C9*%
X155875000Y-94785000D03*
X155875000Y-93785000D03*
%TD*%
%TO.C,C8*%
X135555000Y-100770000D03*
X135555000Y-101770000D03*
%TD*%
%TO.C,R2*%
X152700000Y-95420000D03*
X152700000Y-94420000D03*
%TD*%
D26*
%TO.C,U1*%
X120755000Y-98800000D03*
X120755000Y-99200000D03*
X120755000Y-99600000D03*
X120755000Y-100000000D03*
X120755000Y-100400000D03*
X120755000Y-100800000D03*
X120755000Y-101200000D03*
D27*
X121550000Y-101465000D03*
X121950000Y-101465000D03*
X122350000Y-101465000D03*
X122750000Y-101465000D03*
X123150000Y-101465000D03*
D26*
X123685000Y-101200000D03*
X123685000Y-100800000D03*
X123685000Y-100400000D03*
X123685000Y-100000000D03*
X123685000Y-99600000D03*
X123685000Y-99200000D03*
X123685000Y-98800000D03*
D27*
X123150000Y-98535000D03*
X122750000Y-98535000D03*
X122350000Y-98535000D03*
X121950000Y-98535000D03*
X121550000Y-98535000D03*
D28*
X122220000Y-100000000D03*
%TD*%
D20*
%TO.C,C3*%
X120450000Y-104445000D03*
X121450000Y-104445000D03*
%TD*%
D16*
%TO.C,J3*%
X135700000Y-115450000D03*
X144300000Y-115450000D03*
D17*
X142250000Y-113600000D03*
X140750000Y-113600000D03*
X139250000Y-113600000D03*
X137750000Y-113600000D03*
%TD*%
D16*
%TO.C,J4*%
X155550000Y-84550000D03*
X148450000Y-84550000D03*
D17*
X150500000Y-86400000D03*
X152000000Y-86400000D03*
X153500000Y-86400000D03*
%TD*%
D29*
%TO.C,L2*%
X155875000Y-102125000D03*
X155875000Y-104225000D03*
%TD*%
D15*
%TO.C,C6*%
X125500000Y-98000000D03*
X125500000Y-99000000D03*
%TD*%
D30*
%TO.C,U2*%
X142862500Y-101950000D03*
X142862500Y-101300000D03*
X142862500Y-100650000D03*
X142862500Y-100000000D03*
X142862500Y-99350000D03*
X142862500Y-98700000D03*
X142862500Y-98050000D03*
X137137500Y-98050000D03*
X137137500Y-98700000D03*
X137137500Y-99350000D03*
X137137500Y-100000000D03*
X137137500Y-100650000D03*
X137137500Y-101300000D03*
X137137500Y-101950000D03*
%TD*%
M02*
