%TF.GenerationSoftware,KiCad,Pcbnew,6.0.9*%
%TF.CreationDate,2022-11-20T22:09:46-05:00*%
%TF.ProjectId,biym-board,6269796d-2d62-46f6-9172-642e6b696361,1.2*%
%TF.SameCoordinates,Original*%
%TF.FileFunction,Legend,Bot*%
%TF.FilePolarity,Positive*%
%FSLAX46Y46*%
G04 Gerber Fmt 4.6, Leading zero omitted, Abs format (unit mm)*
G04 Created by KiCad (PCBNEW 6.0.9) date 2022-11-20 22:09:46*
%MOMM*%
%LPD*%
G01*
G04 APERTURE LIST*
%ADD10C,0.150000*%
%ADD11C,1.200000*%
%ADD12C,0.125000*%
%ADD13C,0.100000*%
%ADD14C,3.175000*%
%ADD15C,3.276600*%
G04 APERTURE END LIST*
D10*
X126250000Y-113500000D02*
X133750000Y-113500000D01*
X133750000Y-113500000D02*
X133750000Y-116500000D01*
X133750000Y-116500000D02*
X126250000Y-116500000D01*
X126250000Y-116500000D02*
X126250000Y-113500000D01*
X137500000Y-97500000D02*
X142500000Y-97500000D01*
X142500000Y-97500000D02*
X142500000Y-102500000D01*
X142500000Y-102500000D02*
X137500000Y-102500000D01*
X137500000Y-102500000D02*
X137500000Y-97500000D01*
X135500000Y-113500000D02*
X144500000Y-113500000D01*
X144500000Y-113500000D02*
X144500000Y-116500000D01*
X144500000Y-116500000D02*
X135500000Y-116500000D01*
X135500000Y-116500000D02*
X135500000Y-113500000D01*
X129000000Y-83500000D02*
X135000000Y-83500000D01*
X135000000Y-83500000D02*
X135000000Y-86500000D01*
X135000000Y-86500000D02*
X129000000Y-86500000D01*
X129000000Y-86500000D02*
X129000000Y-83500000D01*
X138250000Y-83500000D02*
X145750000Y-83500000D01*
X145750000Y-83500000D02*
X145750000Y-86500000D01*
X145750000Y-86500000D02*
X138250000Y-86500000D01*
X138250000Y-86500000D02*
X138250000Y-83500000D01*
X146250000Y-113500000D02*
X153750000Y-113500000D01*
X153750000Y-113500000D02*
X153750000Y-116500000D01*
X153750000Y-116500000D02*
X146250000Y-116500000D01*
X146250000Y-116500000D02*
X146250000Y-113500000D01*
D11*
X140600000Y-100000000D02*
G75*
G03*
X140600000Y-100000000I-600000J0D01*
G01*
D10*
X148250000Y-83500000D02*
X155750000Y-83500000D01*
X155750000Y-83500000D02*
X155750000Y-86500000D01*
X155750000Y-86500000D02*
X148250000Y-86500000D01*
X148250000Y-86500000D02*
X148250000Y-83500000D01*
X123750000Y-98500000D02*
X120750000Y-98500000D01*
X120750000Y-98500000D02*
X120750000Y-101500000D01*
X120750000Y-101500000D02*
X123750000Y-101500000D01*
X123750000Y-101500000D02*
X123750000Y-98500000D01*
D12*
X140321428Y-114726190D02*
X140559523Y-114726190D01*
X140559523Y-114226190D01*
X140154761Y-114464285D02*
X139988095Y-114464285D01*
X139916666Y-114726190D02*
X140154761Y-114726190D01*
X140154761Y-114226190D01*
X139916666Y-114226190D01*
X139702380Y-114726190D02*
X139702380Y-114226190D01*
X139583333Y-114226190D01*
X139511904Y-114250000D01*
X139464285Y-114297619D01*
X139440476Y-114345238D01*
X139416666Y-114440476D01*
X139416666Y-114511904D01*
X139440476Y-114607142D01*
X139464285Y-114654761D01*
X139511904Y-114702380D01*
X139583333Y-114726190D01*
X139702380Y-114726190D01*
X131190476Y-114726190D02*
X131190476Y-114226190D01*
X131071428Y-114226190D01*
X131000000Y-114250000D01*
X130952380Y-114297619D01*
X130928571Y-114345238D01*
X130904761Y-114440476D01*
X130904761Y-114511904D01*
X130928571Y-114607142D01*
X130952380Y-114654761D01*
X131000000Y-114702380D01*
X131071428Y-114726190D01*
X131190476Y-114726190D01*
X130404761Y-114726190D02*
X130571428Y-114488095D01*
X130690476Y-114726190D02*
X130690476Y-114226190D01*
X130500000Y-114226190D01*
X130452380Y-114250000D01*
X130428571Y-114273809D01*
X130404761Y-114321428D01*
X130404761Y-114392857D01*
X130428571Y-114440476D01*
X130452380Y-114464285D01*
X130500000Y-114488095D01*
X130690476Y-114488095D01*
X130190476Y-114726190D02*
X130190476Y-114226190D01*
X130023809Y-114226190D02*
X129857142Y-114726190D01*
X129690476Y-114226190D01*
X129523809Y-114464285D02*
X129357142Y-114464285D01*
X129285714Y-114726190D02*
X129523809Y-114726190D01*
X129523809Y-114226190D01*
X129285714Y-114226190D01*
X128785714Y-114726190D02*
X128952380Y-114488095D01*
X129071428Y-114726190D02*
X129071428Y-114226190D01*
X128880952Y-114226190D01*
X128833333Y-114250000D01*
X128809523Y-114273809D01*
X128785714Y-114321428D01*
X128785714Y-114392857D01*
X128809523Y-114440476D01*
X128833333Y-114464285D01*
X128880952Y-114488095D01*
X129071428Y-114488095D01*
X133154761Y-85323690D02*
X133154761Y-84823690D01*
X132964285Y-84823690D01*
X132916666Y-84847500D01*
X132892857Y-84871309D01*
X132869047Y-84918928D01*
X132869047Y-84990357D01*
X132892857Y-85037976D01*
X132916666Y-85061785D01*
X132964285Y-85085595D01*
X133154761Y-85085595D01*
X132559523Y-84823690D02*
X132464285Y-84823690D01*
X132416666Y-84847500D01*
X132369047Y-84895119D01*
X132345238Y-84990357D01*
X132345238Y-85157023D01*
X132369047Y-85252261D01*
X132416666Y-85299880D01*
X132464285Y-85323690D01*
X132559523Y-85323690D01*
X132607142Y-85299880D01*
X132654761Y-85252261D01*
X132678571Y-85157023D01*
X132678571Y-84990357D01*
X132654761Y-84895119D01*
X132607142Y-84847500D01*
X132559523Y-84823690D01*
X132178571Y-84823690D02*
X132059523Y-85323690D01*
X131964285Y-84966547D01*
X131869047Y-85323690D01*
X131750000Y-84823690D01*
X131559523Y-85061785D02*
X131392857Y-85061785D01*
X131321428Y-85323690D02*
X131559523Y-85323690D01*
X131559523Y-84823690D01*
X131321428Y-84823690D01*
X130821428Y-85323690D02*
X130988095Y-85085595D01*
X131107142Y-85323690D02*
X131107142Y-84823690D01*
X130916666Y-84823690D01*
X130869047Y-84847500D01*
X130845238Y-84871309D01*
X130821428Y-84918928D01*
X130821428Y-84990357D01*
X130845238Y-85037976D01*
X130869047Y-85061785D01*
X130916666Y-85085595D01*
X131107142Y-85085595D01*
X133250000Y-86104880D02*
X133178571Y-86128690D01*
X133059523Y-86128690D01*
X133011904Y-86104880D01*
X132988095Y-86081071D01*
X132964285Y-86033452D01*
X132964285Y-85985833D01*
X132988095Y-85938214D01*
X133011904Y-85914404D01*
X133059523Y-85890595D01*
X133154761Y-85866785D01*
X133202380Y-85842976D01*
X133226190Y-85819166D01*
X133250000Y-85771547D01*
X133250000Y-85723928D01*
X133226190Y-85676309D01*
X133202380Y-85652500D01*
X133154761Y-85628690D01*
X133035714Y-85628690D01*
X132964285Y-85652500D01*
X132797619Y-85628690D02*
X132678571Y-86128690D01*
X132583333Y-85771547D01*
X132488095Y-86128690D01*
X132369047Y-85628690D01*
X132178571Y-86128690D02*
X132178571Y-85628690D01*
X132011904Y-85628690D02*
X131726190Y-85628690D01*
X131869047Y-86128690D02*
X131869047Y-85628690D01*
X131273809Y-86081071D02*
X131297619Y-86104880D01*
X131369047Y-86128690D01*
X131416666Y-86128690D01*
X131488095Y-86104880D01*
X131535714Y-86057261D01*
X131559523Y-86009642D01*
X131583333Y-85914404D01*
X131583333Y-85842976D01*
X131559523Y-85747738D01*
X131535714Y-85700119D01*
X131488095Y-85652500D01*
X131416666Y-85628690D01*
X131369047Y-85628690D01*
X131297619Y-85652500D01*
X131273809Y-85676309D01*
X131059523Y-86128690D02*
X131059523Y-85628690D01*
X131059523Y-85866785D02*
X130773809Y-85866785D01*
X130773809Y-86128690D02*
X130773809Y-85628690D01*
X123440476Y-98226190D02*
X123440476Y-97726190D01*
X123321428Y-97726190D01*
X123250000Y-97750000D01*
X123202380Y-97797619D01*
X123178571Y-97845238D01*
X123154761Y-97940476D01*
X123154761Y-98011904D01*
X123178571Y-98107142D01*
X123202380Y-98154761D01*
X123250000Y-98202380D01*
X123321428Y-98226190D01*
X123440476Y-98226190D01*
X122654761Y-98226190D02*
X122821428Y-97988095D01*
X122940476Y-98226190D02*
X122940476Y-97726190D01*
X122750000Y-97726190D01*
X122702380Y-97750000D01*
X122678571Y-97773809D01*
X122654761Y-97821428D01*
X122654761Y-97892857D01*
X122678571Y-97940476D01*
X122702380Y-97964285D01*
X122750000Y-97988095D01*
X122940476Y-97988095D01*
X122440476Y-98226190D02*
X122440476Y-97726190D01*
X122273809Y-97726190D02*
X122107142Y-98226190D01*
X121940476Y-97726190D01*
X121773809Y-97964285D02*
X121607142Y-97964285D01*
X121535714Y-98226190D02*
X121773809Y-98226190D01*
X121773809Y-97726190D01*
X121535714Y-97726190D01*
X121035714Y-98226190D02*
X121202380Y-97988095D01*
X121321428Y-98226190D02*
X121321428Y-97726190D01*
X121130952Y-97726190D01*
X121083333Y-97750000D01*
X121059523Y-97773809D01*
X121035714Y-97821428D01*
X121035714Y-97892857D01*
X121059523Y-97940476D01*
X121083333Y-97964285D01*
X121130952Y-97988095D01*
X121321428Y-97988095D01*
X153095238Y-85299880D02*
X153023809Y-85323690D01*
X152904761Y-85323690D01*
X152857142Y-85299880D01*
X152833333Y-85276071D01*
X152809523Y-85228452D01*
X152809523Y-85180833D01*
X152833333Y-85133214D01*
X152857142Y-85109404D01*
X152904761Y-85085595D01*
X153000000Y-85061785D01*
X153047619Y-85037976D01*
X153071428Y-85014166D01*
X153095238Y-84966547D01*
X153095238Y-84918928D01*
X153071428Y-84871309D01*
X153047619Y-84847500D01*
X153000000Y-84823690D01*
X152880952Y-84823690D01*
X152809523Y-84847500D01*
X152595238Y-85061785D02*
X152428571Y-85061785D01*
X152357142Y-85323690D02*
X152595238Y-85323690D01*
X152595238Y-84823690D01*
X152357142Y-84823690D01*
X151857142Y-85323690D02*
X152023809Y-85085595D01*
X152142857Y-85323690D02*
X152142857Y-84823690D01*
X151952380Y-84823690D01*
X151904761Y-84847500D01*
X151880952Y-84871309D01*
X151857142Y-84918928D01*
X151857142Y-84990357D01*
X151880952Y-85037976D01*
X151904761Y-85061785D01*
X151952380Y-85085595D01*
X152142857Y-85085595D01*
X151714285Y-84823690D02*
X151547619Y-85323690D01*
X151380952Y-84823690D01*
X151119047Y-84823690D02*
X151023809Y-84823690D01*
X150976190Y-84847500D01*
X150928571Y-84895119D01*
X150904761Y-84990357D01*
X150904761Y-85157023D01*
X150928571Y-85252261D01*
X150976190Y-85299880D01*
X151023809Y-85323690D01*
X151119047Y-85323690D01*
X151166666Y-85299880D01*
X151214285Y-85252261D01*
X151238095Y-85157023D01*
X151238095Y-84990357D01*
X151214285Y-84895119D01*
X151166666Y-84847500D01*
X151119047Y-84823690D01*
X152023809Y-85628690D02*
X151976190Y-85628690D01*
X151928571Y-85652500D01*
X151904761Y-85676309D01*
X151880952Y-85723928D01*
X151857142Y-85819166D01*
X151857142Y-85938214D01*
X151880952Y-86033452D01*
X151904761Y-86081071D01*
X151928571Y-86104880D01*
X151976190Y-86128690D01*
X152023809Y-86128690D01*
X152071428Y-86104880D01*
X152095238Y-86081071D01*
X152119047Y-86033452D01*
X152142857Y-85938214D01*
X152142857Y-85819166D01*
X152119047Y-85723928D01*
X152095238Y-85676309D01*
X152071428Y-85652500D01*
X152023809Y-85628690D01*
D13*
X142119047Y-93420559D02*
X142119047Y-92870559D01*
X142119047Y-93080083D02*
X142071428Y-93053892D01*
X141976190Y-93053892D01*
X141928571Y-93080083D01*
X141904761Y-93106273D01*
X141880952Y-93158654D01*
X141880952Y-93315797D01*
X141904761Y-93368178D01*
X141928571Y-93394369D01*
X141976190Y-93420559D01*
X142071428Y-93420559D01*
X142119047Y-93394369D01*
X141666666Y-93420559D02*
X141666666Y-93053892D01*
X141666666Y-92870559D02*
X141690476Y-92896750D01*
X141666666Y-92922940D01*
X141642857Y-92896750D01*
X141666666Y-92870559D01*
X141666666Y-92922940D01*
X141476190Y-93053892D02*
X141357142Y-93420559D01*
X141238095Y-93053892D02*
X141357142Y-93420559D01*
X141404761Y-93551511D01*
X141428571Y-93577702D01*
X141476190Y-93603892D01*
X141047619Y-93420559D02*
X141047619Y-93053892D01*
X141047619Y-93106273D02*
X141023809Y-93080083D01*
X140976190Y-93053892D01*
X140904761Y-93053892D01*
X140857142Y-93080083D01*
X140833333Y-93132464D01*
X140833333Y-93420559D01*
X140833333Y-93132464D02*
X140809523Y-93080083D01*
X140761904Y-93053892D01*
X140690476Y-93053892D01*
X140642857Y-93080083D01*
X140619047Y-93132464D01*
X140619047Y-93420559D01*
X140380952Y-93211035D02*
X140000000Y-93211035D01*
X139761904Y-93420559D02*
X139761904Y-92870559D01*
X139761904Y-93080083D02*
X139714285Y-93053892D01*
X139619047Y-93053892D01*
X139571428Y-93080083D01*
X139547619Y-93106273D01*
X139523809Y-93158654D01*
X139523809Y-93315797D01*
X139547619Y-93368178D01*
X139571428Y-93394369D01*
X139619047Y-93420559D01*
X139714285Y-93420559D01*
X139761904Y-93394369D01*
X139238095Y-93420559D02*
X139285714Y-93394369D01*
X139309523Y-93368178D01*
X139333333Y-93315797D01*
X139333333Y-93158654D01*
X139309523Y-93106273D01*
X139285714Y-93080083D01*
X139238095Y-93053892D01*
X139166666Y-93053892D01*
X139119047Y-93080083D01*
X139095238Y-93106273D01*
X139071428Y-93158654D01*
X139071428Y-93315797D01*
X139095238Y-93368178D01*
X139119047Y-93394369D01*
X139166666Y-93420559D01*
X139238095Y-93420559D01*
X138642857Y-93420559D02*
X138642857Y-93132464D01*
X138666666Y-93080083D01*
X138714285Y-93053892D01*
X138809523Y-93053892D01*
X138857142Y-93080083D01*
X138642857Y-93394369D02*
X138690476Y-93420559D01*
X138809523Y-93420559D01*
X138857142Y-93394369D01*
X138880952Y-93341988D01*
X138880952Y-93289607D01*
X138857142Y-93237226D01*
X138809523Y-93211035D01*
X138690476Y-93211035D01*
X138642857Y-93184845D01*
X138404761Y-93420559D02*
X138404761Y-93053892D01*
X138404761Y-93158654D02*
X138380952Y-93106273D01*
X138357142Y-93080083D01*
X138309523Y-93053892D01*
X138261904Y-93053892D01*
X137880952Y-93420559D02*
X137880952Y-92870559D01*
X137880952Y-93394369D02*
X137928571Y-93420559D01*
X138023809Y-93420559D01*
X138071428Y-93394369D01*
X138095238Y-93368178D01*
X138119047Y-93315797D01*
X138119047Y-93158654D01*
X138095238Y-93106273D01*
X138071428Y-93080083D01*
X138023809Y-93053892D01*
X137928571Y-93053892D01*
X137880952Y-93080083D01*
X142119047Y-93939392D02*
X142000000Y-94306059D01*
X141880952Y-93939392D01*
X141428571Y-94306059D02*
X141714285Y-94306059D01*
X141571428Y-94306059D02*
X141571428Y-93756059D01*
X141619047Y-93834630D01*
X141666666Y-93887011D01*
X141714285Y-93913202D01*
X141214285Y-94253678D02*
X141190476Y-94279869D01*
X141214285Y-94306059D01*
X141238095Y-94279869D01*
X141214285Y-94253678D01*
X141214285Y-94306059D01*
X141000000Y-93808440D02*
X140976190Y-93782250D01*
X140928571Y-93756059D01*
X140809523Y-93756059D01*
X140761904Y-93782250D01*
X140738095Y-93808440D01*
X140714285Y-93860821D01*
X140714285Y-93913202D01*
X140738095Y-93991773D01*
X141023809Y-94306059D01*
X140714285Y-94306059D01*
X139857142Y-94306059D02*
X140142857Y-94306059D01*
X140000000Y-94306059D02*
X140000000Y-93756059D01*
X140047619Y-93834630D01*
X140095238Y-93887011D01*
X140142857Y-93913202D01*
X139380952Y-94306059D02*
X139666666Y-94306059D01*
X139523809Y-94306059D02*
X139523809Y-93756059D01*
X139571428Y-93834630D01*
X139619047Y-93887011D01*
X139666666Y-93913202D01*
X138809523Y-93729869D02*
X139238095Y-94437011D01*
X138666666Y-93808440D02*
X138642857Y-93782250D01*
X138595238Y-93756059D01*
X138476190Y-93756059D01*
X138428571Y-93782250D01*
X138404761Y-93808440D01*
X138380952Y-93860821D01*
X138380952Y-93913202D01*
X138404761Y-93991773D01*
X138690476Y-94306059D01*
X138380952Y-94306059D01*
X138190476Y-93808440D02*
X138166666Y-93782250D01*
X138119047Y-93756059D01*
X138000000Y-93756059D01*
X137952380Y-93782250D01*
X137928571Y-93808440D01*
X137904761Y-93860821D01*
X137904761Y-93913202D01*
X137928571Y-93991773D01*
X138214285Y-94306059D01*
X137904761Y-94306059D01*
X143154761Y-94824892D02*
X143154761Y-95374892D01*
X143154761Y-94851083D02*
X143107142Y-94824892D01*
X143011904Y-94824892D01*
X142964285Y-94851083D01*
X142940476Y-94877273D01*
X142916666Y-94929654D01*
X142916666Y-95086797D01*
X142940476Y-95139178D01*
X142964285Y-95165369D01*
X143011904Y-95191559D01*
X143107142Y-95191559D01*
X143154761Y-95165369D01*
X142511904Y-95165369D02*
X142559523Y-95191559D01*
X142654761Y-95191559D01*
X142702380Y-95165369D01*
X142726190Y-95112988D01*
X142726190Y-94903464D01*
X142702380Y-94851083D01*
X142654761Y-94824892D01*
X142559523Y-94824892D01*
X142511904Y-94851083D01*
X142488095Y-94903464D01*
X142488095Y-94955845D01*
X142726190Y-95008226D01*
X142345238Y-94824892D02*
X142154761Y-94824892D01*
X142273809Y-94641559D02*
X142273809Y-95112988D01*
X142250000Y-95165369D01*
X142202380Y-95191559D01*
X142154761Y-95191559D01*
X141797619Y-95165369D02*
X141845238Y-95191559D01*
X141940476Y-95191559D01*
X141988095Y-95165369D01*
X142011904Y-95112988D01*
X142011904Y-94903464D01*
X141988095Y-94851083D01*
X141940476Y-94824892D01*
X141845238Y-94824892D01*
X141797619Y-94851083D01*
X141773809Y-94903464D01*
X141773809Y-94955845D01*
X142011904Y-95008226D01*
X141559523Y-95191559D02*
X141559523Y-94824892D01*
X141559523Y-94929654D02*
X141535714Y-94877273D01*
X141511904Y-94851083D01*
X141464285Y-94824892D01*
X141416666Y-94824892D01*
X140940476Y-94929654D02*
X140964285Y-94903464D01*
X141011904Y-94877273D01*
X141059523Y-94877273D01*
X141107142Y-94903464D01*
X141130952Y-94929654D01*
X141154761Y-94982035D01*
X141154761Y-95034416D01*
X141130952Y-95086797D01*
X141107142Y-95112988D01*
X141059523Y-95139178D01*
X141011904Y-95139178D01*
X140964285Y-95112988D01*
X140940476Y-95086797D01*
X140940476Y-94877273D02*
X140940476Y-95086797D01*
X140916666Y-95112988D01*
X140892857Y-95112988D01*
X140845238Y-95086797D01*
X140821428Y-95034416D01*
X140821428Y-94903464D01*
X140869047Y-94824892D01*
X140940476Y-94772511D01*
X141035714Y-94746321D01*
X141130952Y-94772511D01*
X141202380Y-94824892D01*
X141250000Y-94903464D01*
X141273809Y-95008226D01*
X141250000Y-95112988D01*
X141202380Y-95191559D01*
X141130952Y-95243940D01*
X141035714Y-95270130D01*
X140940476Y-95243940D01*
X140869047Y-95191559D01*
X140607142Y-94824892D02*
X140607142Y-95374892D01*
X140607142Y-94851083D02*
X140559523Y-94824892D01*
X140464285Y-94824892D01*
X140416666Y-94851083D01*
X140392857Y-94877273D01*
X140369047Y-94929654D01*
X140369047Y-95086797D01*
X140392857Y-95139178D01*
X140416666Y-95165369D01*
X140464285Y-95191559D01*
X140559523Y-95191559D01*
X140607142Y-95165369D01*
X140083333Y-95191559D02*
X140130952Y-95165369D01*
X140154761Y-95139178D01*
X140178571Y-95086797D01*
X140178571Y-94929654D01*
X140154761Y-94877273D01*
X140130952Y-94851083D01*
X140083333Y-94824892D01*
X140011904Y-94824892D01*
X139964285Y-94851083D01*
X139940476Y-94877273D01*
X139916666Y-94929654D01*
X139916666Y-95086797D01*
X139940476Y-95139178D01*
X139964285Y-95165369D01*
X140011904Y-95191559D01*
X140083333Y-95191559D01*
X139630952Y-95191559D02*
X139678571Y-95165369D01*
X139702380Y-95112988D01*
X139702380Y-94641559D01*
X139440476Y-95191559D02*
X139440476Y-94824892D01*
X139440476Y-94641559D02*
X139464285Y-94667750D01*
X139440476Y-94693940D01*
X139416666Y-94667750D01*
X139440476Y-94641559D01*
X139440476Y-94693940D01*
X138988095Y-95191559D02*
X138988095Y-94641559D01*
X138988095Y-95165369D02*
X139035714Y-95191559D01*
X139130952Y-95191559D01*
X139178571Y-95165369D01*
X139202380Y-95139178D01*
X139226190Y-95086797D01*
X139226190Y-94929654D01*
X139202380Y-94877273D01*
X139178571Y-94851083D01*
X139130952Y-94824892D01*
X139035714Y-94824892D01*
X138988095Y-94851083D01*
X138678571Y-95191559D02*
X138726190Y-95165369D01*
X138750000Y-95139178D01*
X138773809Y-95086797D01*
X138773809Y-94929654D01*
X138750000Y-94877273D01*
X138726190Y-94851083D01*
X138678571Y-94824892D01*
X138607142Y-94824892D01*
X138559523Y-94851083D01*
X138535714Y-94877273D01*
X138511904Y-94929654D01*
X138511904Y-95086797D01*
X138535714Y-95139178D01*
X138559523Y-95165369D01*
X138607142Y-95191559D01*
X138678571Y-95191559D01*
X138297619Y-95191559D02*
X138297619Y-94824892D01*
X138297619Y-94929654D02*
X138273809Y-94877273D01*
X138250000Y-94851083D01*
X138202380Y-94824892D01*
X138154761Y-94824892D01*
X137916666Y-95191559D02*
X137964285Y-95165369D01*
X137988095Y-95139178D01*
X138011904Y-95086797D01*
X138011904Y-94929654D01*
X137988095Y-94877273D01*
X137964285Y-94851083D01*
X137916666Y-94824892D01*
X137845238Y-94824892D01*
X137797619Y-94851083D01*
X137773809Y-94877273D01*
X137750000Y-94929654D01*
X137750000Y-95086797D01*
X137773809Y-95139178D01*
X137797619Y-95165369D01*
X137845238Y-95191559D01*
X137916666Y-95191559D01*
X137535714Y-95139178D02*
X137511904Y-95165369D01*
X137535714Y-95191559D01*
X137559523Y-95165369D01*
X137535714Y-95139178D01*
X137535714Y-95191559D01*
X137297619Y-95191559D02*
X137297619Y-94824892D01*
X137297619Y-94641559D02*
X137321428Y-94667750D01*
X137297619Y-94693940D01*
X137273809Y-94667750D01*
X137297619Y-94641559D01*
X137297619Y-94693940D01*
X136988095Y-95191559D02*
X137035714Y-95165369D01*
X137059523Y-95139178D01*
X137083333Y-95086797D01*
X137083333Y-94929654D01*
X137059523Y-94877273D01*
X137035714Y-94851083D01*
X136988095Y-94824892D01*
X136916666Y-94824892D01*
X136869047Y-94851083D01*
X136845238Y-94877273D01*
X136821428Y-94929654D01*
X136821428Y-95086797D01*
X136845238Y-95139178D01*
X136869047Y-95165369D01*
X136916666Y-95191559D01*
X136988095Y-95191559D01*
X147154761Y-96077059D02*
X147154761Y-95527059D01*
X146940476Y-96077059D02*
X146940476Y-95788964D01*
X146964285Y-95736583D01*
X147011904Y-95710392D01*
X147083333Y-95710392D01*
X147130952Y-95736583D01*
X147154761Y-95762773D01*
X146773809Y-95710392D02*
X146583333Y-95710392D01*
X146702380Y-95527059D02*
X146702380Y-95998488D01*
X146678571Y-96050869D01*
X146630952Y-96077059D01*
X146583333Y-96077059D01*
X146488095Y-95710392D02*
X146297619Y-95710392D01*
X146416666Y-95527059D02*
X146416666Y-95998488D01*
X146392857Y-96050869D01*
X146345238Y-96077059D01*
X146297619Y-96077059D01*
X146130952Y-95710392D02*
X146130952Y-96260392D01*
X146130952Y-95736583D02*
X146083333Y-95710392D01*
X145988095Y-95710392D01*
X145940476Y-95736583D01*
X145916666Y-95762773D01*
X145892857Y-95815154D01*
X145892857Y-95972297D01*
X145916666Y-96024678D01*
X145940476Y-96050869D01*
X145988095Y-96077059D01*
X146083333Y-96077059D01*
X146130952Y-96050869D01*
X145702380Y-96050869D02*
X145654761Y-96077059D01*
X145559523Y-96077059D01*
X145511904Y-96050869D01*
X145488095Y-95998488D01*
X145488095Y-95972297D01*
X145511904Y-95919916D01*
X145559523Y-95893726D01*
X145630952Y-95893726D01*
X145678571Y-95867535D01*
X145702380Y-95815154D01*
X145702380Y-95788964D01*
X145678571Y-95736583D01*
X145630952Y-95710392D01*
X145559523Y-95710392D01*
X145511904Y-95736583D01*
X145273809Y-96024678D02*
X145250000Y-96050869D01*
X145273809Y-96077059D01*
X145297619Y-96050869D01*
X145273809Y-96024678D01*
X145273809Y-96077059D01*
X145273809Y-95736583D02*
X145250000Y-95762773D01*
X145273809Y-95788964D01*
X145297619Y-95762773D01*
X145273809Y-95736583D01*
X145273809Y-95788964D01*
X144678571Y-95500869D02*
X145107142Y-96208011D01*
X144154761Y-95500869D02*
X144583333Y-96208011D01*
X143773809Y-95710392D02*
X143773809Y-96155630D01*
X143797619Y-96208011D01*
X143821428Y-96234202D01*
X143869047Y-96260392D01*
X143940476Y-96260392D01*
X143988095Y-96234202D01*
X143773809Y-96050869D02*
X143821428Y-96077059D01*
X143916666Y-96077059D01*
X143964285Y-96050869D01*
X143988095Y-96024678D01*
X144011904Y-95972297D01*
X144011904Y-95815154D01*
X143988095Y-95762773D01*
X143964285Y-95736583D01*
X143916666Y-95710392D01*
X143821428Y-95710392D01*
X143773809Y-95736583D01*
X143535714Y-96077059D02*
X143535714Y-95710392D01*
X143535714Y-95527059D02*
X143559523Y-95553250D01*
X143535714Y-95579440D01*
X143511904Y-95553250D01*
X143535714Y-95527059D01*
X143535714Y-95579440D01*
X143369047Y-95710392D02*
X143178571Y-95710392D01*
X143297619Y-95527059D02*
X143297619Y-95998488D01*
X143273809Y-96050869D01*
X143226190Y-96077059D01*
X143178571Y-96077059D01*
X143011904Y-96077059D02*
X143011904Y-95527059D01*
X142797619Y-96077059D02*
X142797619Y-95788964D01*
X142821428Y-95736583D01*
X142869047Y-95710392D01*
X142940476Y-95710392D01*
X142988095Y-95736583D01*
X143011904Y-95762773D01*
X142345238Y-95710392D02*
X142345238Y-96077059D01*
X142559523Y-95710392D02*
X142559523Y-95998488D01*
X142535714Y-96050869D01*
X142488095Y-96077059D01*
X142416666Y-96077059D01*
X142369047Y-96050869D01*
X142345238Y-96024678D01*
X142107142Y-96077059D02*
X142107142Y-95527059D01*
X142107142Y-95736583D02*
X142059523Y-95710392D01*
X141964285Y-95710392D01*
X141916666Y-95736583D01*
X141892857Y-95762773D01*
X141869047Y-95815154D01*
X141869047Y-95972297D01*
X141892857Y-96024678D01*
X141916666Y-96050869D01*
X141964285Y-96077059D01*
X142059523Y-96077059D01*
X142107142Y-96050869D01*
X141654761Y-96024678D02*
X141630952Y-96050869D01*
X141654761Y-96077059D01*
X141678571Y-96050869D01*
X141654761Y-96024678D01*
X141654761Y-96077059D01*
X141202380Y-96050869D02*
X141250000Y-96077059D01*
X141345238Y-96077059D01*
X141392857Y-96050869D01*
X141416666Y-96024678D01*
X141440476Y-95972297D01*
X141440476Y-95815154D01*
X141416666Y-95762773D01*
X141392857Y-95736583D01*
X141345238Y-95710392D01*
X141250000Y-95710392D01*
X141202380Y-95736583D01*
X140916666Y-96077059D02*
X140964285Y-96050869D01*
X140988095Y-96024678D01*
X141011904Y-95972297D01*
X141011904Y-95815154D01*
X140988095Y-95762773D01*
X140964285Y-95736583D01*
X140916666Y-95710392D01*
X140845238Y-95710392D01*
X140797619Y-95736583D01*
X140773809Y-95762773D01*
X140750000Y-95815154D01*
X140750000Y-95972297D01*
X140773809Y-96024678D01*
X140797619Y-96050869D01*
X140845238Y-96077059D01*
X140916666Y-96077059D01*
X140535714Y-96077059D02*
X140535714Y-95710392D01*
X140535714Y-95762773D02*
X140511904Y-95736583D01*
X140464285Y-95710392D01*
X140392857Y-95710392D01*
X140345238Y-95736583D01*
X140321428Y-95788964D01*
X140321428Y-96077059D01*
X140321428Y-95788964D02*
X140297619Y-95736583D01*
X140250000Y-95710392D01*
X140178571Y-95710392D01*
X140130952Y-95736583D01*
X140107142Y-95788964D01*
X140107142Y-96077059D01*
X139511904Y-95500869D02*
X139940476Y-96208011D01*
X139345238Y-96077059D02*
X139345238Y-95527059D01*
X139345238Y-95736583D02*
X139297619Y-95710392D01*
X139202380Y-95710392D01*
X139154761Y-95736583D01*
X139130952Y-95762773D01*
X139107142Y-95815154D01*
X139107142Y-95972297D01*
X139130952Y-96024678D01*
X139154761Y-96050869D01*
X139202380Y-96077059D01*
X139297619Y-96077059D01*
X139345238Y-96050869D01*
X138892857Y-96077059D02*
X138892857Y-95710392D01*
X138892857Y-95527059D02*
X138916666Y-95553250D01*
X138892857Y-95579440D01*
X138869047Y-95553250D01*
X138892857Y-95527059D01*
X138892857Y-95579440D01*
X138702380Y-95710392D02*
X138583333Y-96077059D01*
X138464285Y-95710392D02*
X138583333Y-96077059D01*
X138630952Y-96208011D01*
X138654761Y-96234202D01*
X138702380Y-96260392D01*
X138273809Y-96077059D02*
X138273809Y-95710392D01*
X138273809Y-95762773D02*
X138250000Y-95736583D01*
X138202380Y-95710392D01*
X138130952Y-95710392D01*
X138083333Y-95736583D01*
X138059523Y-95788964D01*
X138059523Y-96077059D01*
X138059523Y-95788964D02*
X138035714Y-95736583D01*
X137988095Y-95710392D01*
X137916666Y-95710392D01*
X137869047Y-95736583D01*
X137845238Y-95788964D01*
X137845238Y-96077059D01*
X137250000Y-95500869D02*
X137678571Y-96208011D01*
X137083333Y-96077059D02*
X137083333Y-95527059D01*
X137083333Y-95736583D02*
X137035714Y-95710392D01*
X136940476Y-95710392D01*
X136892857Y-95736583D01*
X136869047Y-95762773D01*
X136845238Y-95815154D01*
X136845238Y-95972297D01*
X136869047Y-96024678D01*
X136892857Y-96050869D01*
X136940476Y-96077059D01*
X137035714Y-96077059D01*
X137083333Y-96050869D01*
X136630952Y-96077059D02*
X136630952Y-95710392D01*
X136630952Y-95527059D02*
X136654761Y-95553250D01*
X136630952Y-95579440D01*
X136607142Y-95553250D01*
X136630952Y-95527059D01*
X136630952Y-95579440D01*
X136440476Y-95710392D02*
X136321428Y-96077059D01*
X136202380Y-95710392D02*
X136321428Y-96077059D01*
X136369047Y-96208011D01*
X136392857Y-96234202D01*
X136440476Y-96260392D01*
X136011904Y-96077059D02*
X136011904Y-95710392D01*
X136011904Y-95762773D02*
X135988095Y-95736583D01*
X135940476Y-95710392D01*
X135869047Y-95710392D01*
X135821428Y-95736583D01*
X135797619Y-95788964D01*
X135797619Y-96077059D01*
X135797619Y-95788964D02*
X135773809Y-95736583D01*
X135726190Y-95710392D01*
X135654761Y-95710392D01*
X135607142Y-95736583D01*
X135583333Y-95788964D01*
X135583333Y-96077059D01*
X135345238Y-95867535D02*
X134964285Y-95867535D01*
X134726190Y-96077059D02*
X134726190Y-95527059D01*
X134726190Y-95736583D02*
X134678571Y-95710392D01*
X134583333Y-95710392D01*
X134535714Y-95736583D01*
X134511904Y-95762773D01*
X134488095Y-95815154D01*
X134488095Y-95972297D01*
X134511904Y-96024678D01*
X134535714Y-96050869D01*
X134583333Y-96077059D01*
X134678571Y-96077059D01*
X134726190Y-96050869D01*
X134202380Y-96077059D02*
X134250000Y-96050869D01*
X134273809Y-96024678D01*
X134297619Y-95972297D01*
X134297619Y-95815154D01*
X134273809Y-95762773D01*
X134250000Y-95736583D01*
X134202380Y-95710392D01*
X134130952Y-95710392D01*
X134083333Y-95736583D01*
X134059523Y-95762773D01*
X134035714Y-95815154D01*
X134035714Y-95972297D01*
X134059523Y-96024678D01*
X134083333Y-96050869D01*
X134130952Y-96077059D01*
X134202380Y-96077059D01*
X133607142Y-96077059D02*
X133607142Y-95788964D01*
X133630952Y-95736583D01*
X133678571Y-95710392D01*
X133773809Y-95710392D01*
X133821428Y-95736583D01*
X133607142Y-96050869D02*
X133654761Y-96077059D01*
X133773809Y-96077059D01*
X133821428Y-96050869D01*
X133845238Y-95998488D01*
X133845238Y-95946107D01*
X133821428Y-95893726D01*
X133773809Y-95867535D01*
X133654761Y-95867535D01*
X133607142Y-95841345D01*
X133369047Y-96077059D02*
X133369047Y-95710392D01*
X133369047Y-95815154D02*
X133345238Y-95762773D01*
X133321428Y-95736583D01*
X133273809Y-95710392D01*
X133226190Y-95710392D01*
X132845238Y-96077059D02*
X132845238Y-95527059D01*
X132845238Y-96050869D02*
X132892857Y-96077059D01*
X132988095Y-96077059D01*
X133035714Y-96050869D01*
X133059523Y-96024678D01*
X133083333Y-95972297D01*
X133083333Y-95815154D01*
X133059523Y-95762773D01*
X133035714Y-95736583D01*
X132988095Y-95710392D01*
X132892857Y-95710392D01*
X132845238Y-95736583D01*
D12*
X143095238Y-85299880D02*
X143023809Y-85323690D01*
X142904761Y-85323690D01*
X142857142Y-85299880D01*
X142833333Y-85276071D01*
X142809523Y-85228452D01*
X142809523Y-85180833D01*
X142833333Y-85133214D01*
X142857142Y-85109404D01*
X142904761Y-85085595D01*
X143000000Y-85061785D01*
X143047619Y-85037976D01*
X143071428Y-85014166D01*
X143095238Y-84966547D01*
X143095238Y-84918928D01*
X143071428Y-84871309D01*
X143047619Y-84847500D01*
X143000000Y-84823690D01*
X142880952Y-84823690D01*
X142809523Y-84847500D01*
X142595238Y-85061785D02*
X142428571Y-85061785D01*
X142357142Y-85323690D02*
X142595238Y-85323690D01*
X142595238Y-84823690D01*
X142357142Y-84823690D01*
X141857142Y-85323690D02*
X142023809Y-85085595D01*
X142142857Y-85323690D02*
X142142857Y-84823690D01*
X141952380Y-84823690D01*
X141904761Y-84847500D01*
X141880952Y-84871309D01*
X141857142Y-84918928D01*
X141857142Y-84990357D01*
X141880952Y-85037976D01*
X141904761Y-85061785D01*
X141952380Y-85085595D01*
X142142857Y-85085595D01*
X141714285Y-84823690D02*
X141547619Y-85323690D01*
X141380952Y-84823690D01*
X141119047Y-84823690D02*
X141023809Y-84823690D01*
X140976190Y-84847500D01*
X140928571Y-84895119D01*
X140904761Y-84990357D01*
X140904761Y-85157023D01*
X140928571Y-85252261D01*
X140976190Y-85299880D01*
X141023809Y-85323690D01*
X141119047Y-85323690D01*
X141166666Y-85299880D01*
X141214285Y-85252261D01*
X141238095Y-85157023D01*
X141238095Y-84990357D01*
X141214285Y-84895119D01*
X141166666Y-84847500D01*
X141119047Y-84823690D01*
X141857142Y-86128690D02*
X142142857Y-86128690D01*
X142000000Y-86128690D02*
X142000000Y-85628690D01*
X142047619Y-85700119D01*
X142095238Y-85747738D01*
X142142857Y-85771547D01*
X150500000Y-114250000D02*
X150547619Y-114226190D01*
X150619047Y-114226190D01*
X150690476Y-114250000D01*
X150738095Y-114297619D01*
X150761904Y-114345238D01*
X150785714Y-114440476D01*
X150785714Y-114511904D01*
X150761904Y-114607142D01*
X150738095Y-114654761D01*
X150690476Y-114702380D01*
X150619047Y-114726190D01*
X150571428Y-114726190D01*
X150500000Y-114702380D01*
X150476190Y-114678571D01*
X150476190Y-114511904D01*
X150571428Y-114511904D01*
X150261904Y-114726190D02*
X150261904Y-114226190D01*
X150071428Y-114226190D01*
X150023809Y-114250000D01*
X150000000Y-114273809D01*
X149976190Y-114321428D01*
X149976190Y-114392857D01*
X150000000Y-114440476D01*
X150023809Y-114464285D01*
X150071428Y-114488095D01*
X150261904Y-114488095D01*
X149761904Y-114726190D02*
X149761904Y-114226190D01*
X149428571Y-114226190D02*
X149333333Y-114226190D01*
X149285714Y-114250000D01*
X149238095Y-114297619D01*
X149214285Y-114392857D01*
X149214285Y-114559523D01*
X149238095Y-114654761D01*
X149285714Y-114702380D01*
X149333333Y-114726190D01*
X149428571Y-114726190D01*
X149476190Y-114702380D01*
X149523809Y-114654761D01*
X149547619Y-114559523D01*
X149547619Y-114392857D01*
X149523809Y-114297619D01*
X149476190Y-114250000D01*
X149428571Y-114226190D01*
X141607142Y-98214285D02*
X141440476Y-98214285D01*
X141369047Y-98476190D02*
X141607142Y-98476190D01*
X141607142Y-97976190D01*
X141369047Y-97976190D01*
X141154761Y-98476190D02*
X141154761Y-97976190D01*
X140869047Y-98476190D01*
X140869047Y-97976190D01*
X140345238Y-98428571D02*
X140369047Y-98452380D01*
X140440476Y-98476190D01*
X140488095Y-98476190D01*
X140559523Y-98452380D01*
X140607142Y-98404761D01*
X140630952Y-98357142D01*
X140654761Y-98261904D01*
X140654761Y-98190476D01*
X140630952Y-98095238D01*
X140607142Y-98047619D01*
X140559523Y-98000000D01*
X140488095Y-97976190D01*
X140440476Y-97976190D01*
X140369047Y-98000000D01*
X140345238Y-98023809D01*
X140035714Y-97976190D02*
X139940476Y-97976190D01*
X139892857Y-98000000D01*
X139845238Y-98047619D01*
X139821428Y-98142857D01*
X139821428Y-98309523D01*
X139845238Y-98404761D01*
X139892857Y-98452380D01*
X139940476Y-98476190D01*
X140035714Y-98476190D01*
X140083333Y-98452380D01*
X140130952Y-98404761D01*
X140154761Y-98309523D01*
X140154761Y-98142857D01*
X140130952Y-98047619D01*
X140083333Y-98000000D01*
X140035714Y-97976190D01*
X139607142Y-98476190D02*
X139607142Y-97976190D01*
X139488095Y-97976190D01*
X139416666Y-98000000D01*
X139369047Y-98047619D01*
X139345238Y-98095238D01*
X139321428Y-98190476D01*
X139321428Y-98261904D01*
X139345238Y-98357142D01*
X139369047Y-98404761D01*
X139416666Y-98452380D01*
X139488095Y-98476190D01*
X139607142Y-98476190D01*
X139107142Y-98214285D02*
X138940476Y-98214285D01*
X138869047Y-98476190D02*
X139107142Y-98476190D01*
X139107142Y-97976190D01*
X138869047Y-97976190D01*
X138369047Y-98476190D02*
X138535714Y-98238095D01*
X138654761Y-98476190D02*
X138654761Y-97976190D01*
X138464285Y-97976190D01*
X138416666Y-98000000D01*
X138392857Y-98023809D01*
X138369047Y-98071428D01*
X138369047Y-98142857D01*
X138392857Y-98190476D01*
X138416666Y-98214285D01*
X138464285Y-98238095D01*
X138654761Y-98238095D01*
%LPC*%
D14*
%TO.C,FW1*%
X162860000Y-91110000D03*
D15*
X117140000Y-91110000D03*
D14*
X162860000Y-108890000D03*
D15*
X117140000Y-108890000D03*
%TD*%
M02*
