%TF.GenerationSoftware,KiCad,Pcbnew,6.0.9*%
%TF.CreationDate,2022-11-20T22:09:46-05:00*%
%TF.ProjectId,biym-board,6269796d-2d62-46f6-9172-642e6b696361,1.2*%
%TF.SameCoordinates,Original*%
%TF.FileFunction,Legend,Top*%
%TF.FilePolarity,Positive*%
%FSLAX46Y46*%
G04 Gerber Fmt 4.6, Leading zero omitted, Abs format (unit mm)*
G04 Created by KiCad (PCBNEW 6.0.9) date 2022-11-20 22:09:46*
%MOMM*%
%LPD*%
G01*
G04 APERTURE LIST*
G04 Aperture macros list*
%AMRoundRect*
0 Rectangle with rounded corners*
0 $1 Rounding radius*
0 $2 $3 $4 $5 $6 $7 $8 $9 X,Y pos of 4 corners*
0 Add a 4 corners polygon primitive as box body*
4,1,4,$2,$3,$4,$5,$6,$7,$8,$9,$2,$3,0*
0 Add four circle primitives for the rounded corners*
1,1,$1+$1,$2,$3*
1,1,$1+$1,$4,$5*
1,1,$1+$1,$6,$7*
1,1,$1+$1,$8,$9*
0 Add four rect primitives between the rounded corners*
20,1,$1+$1,$2,$3,$4,$5,0*
20,1,$1+$1,$4,$5,$6,$7,0*
20,1,$1+$1,$6,$7,$8,$9,0*
20,1,$1+$1,$8,$9,$2,$3,0*%
G04 Aperture macros list end*
%ADD10C,0.150000*%
%ADD11C,0.125000*%
%ADD12C,0.100000*%
%ADD13C,0.120000*%
%ADD14C,0.212500*%
%ADD15C,0.262500*%
%ADD16RoundRect,0.520700X0.520700X0.520700X-0.520700X0.520700X-0.520700X-0.520700X0.520700X-0.520700X0*%
%ADD17C,2.082800*%
%ADD18RoundRect,0.520700X-0.520700X-0.520700X0.520700X-0.520700X0.520700X0.520700X-0.520700X0.520700X0*%
%ADD19C,1.000000*%
%ADD20R,0.889000X0.609600*%
%ADD21R,0.700000X0.600000*%
%ADD22R,1.500000X2.300000*%
%ADD23R,0.700000X3.200000*%
%ADD24R,0.609600X0.889000*%
%ADD25RoundRect,0.150000X0.512500X0.150000X-0.512500X0.150000X-0.512500X-0.150000X0.512500X-0.150000X0*%
%ADD26R,0.600000X0.700000*%
%ADD27C,3.175000*%
%ADD28C,3.276600*%
%ADD29RoundRect,0.150000X0.150000X-0.512500X0.150000X0.512500X-0.150000X0.512500X-0.150000X-0.512500X0*%
%ADD30R,0.300000X0.800000*%
%ADD31R,1.000000X3.400000*%
%ADD32RoundRect,0.050000X-0.185000X-0.050000X0.185000X-0.050000X0.185000X0.050000X-0.185000X0.050000X0*%
%ADD33RoundRect,0.050000X-0.050000X-0.185000X0.050000X-0.185000X0.050000X0.185000X-0.050000X0.185000X0*%
%ADD34RoundRect,0.050000X-0.900000X-0.900000X0.900000X-0.900000X0.900000X0.900000X-0.900000X0.900000X0*%
%ADD35R,3.400000X1.000000*%
%ADD36RoundRect,0.100000X0.637500X0.100000X-0.637500X0.100000X-0.637500X-0.100000X0.637500X-0.100000X0*%
G04 APERTURE END LIST*
D10*
X154250000Y-92250000D02*
X156500000Y-92250000D01*
X154250000Y-100750000D02*
X153500000Y-100750000D01*
X153500000Y-100750000D02*
X153500000Y-106250000D01*
X134250000Y-96000000D02*
X144000000Y-96000000D01*
X144000000Y-96000000D02*
X144000000Y-104000000D01*
X144000000Y-104000000D02*
X134250000Y-104000000D01*
X134250000Y-104000000D02*
X134250000Y-96000000D01*
X144750000Y-92250000D02*
X154250000Y-92250000D01*
X117000000Y-93000000D02*
X127000000Y-93000000D01*
X127000000Y-93000000D02*
X127000000Y-107000000D01*
X127000000Y-107000000D02*
X117000000Y-107000000D01*
X117000000Y-107000000D02*
X117000000Y-93000000D01*
X153500000Y-106250000D02*
X165000000Y-106250000D01*
X144750000Y-106250000D02*
X144750000Y-92250000D01*
X153500000Y-106250000D02*
X144750000Y-106250000D01*
X165000000Y-106250000D02*
X165000000Y-92250000D01*
X154250000Y-92250000D02*
X154250000Y-100750000D01*
D11*
X146178571Y-104823690D02*
X145940476Y-104823690D01*
X145940476Y-104323690D01*
X146345238Y-104561785D02*
X146511904Y-104561785D01*
X146583333Y-104823690D02*
X146345238Y-104823690D01*
X146345238Y-104323690D01*
X146583333Y-104323690D01*
X146797619Y-104823690D02*
X146797619Y-104323690D01*
X146916666Y-104323690D01*
X146988095Y-104347500D01*
X147035714Y-104395119D01*
X147059523Y-104442738D01*
X147083333Y-104537976D01*
X147083333Y-104609404D01*
X147059523Y-104704642D01*
X147035714Y-104752261D01*
X146988095Y-104799880D01*
X146916666Y-104823690D01*
X146797619Y-104823690D01*
X145345238Y-105628690D02*
X145345238Y-105128690D01*
X145535714Y-105128690D01*
X145583333Y-105152500D01*
X145607142Y-105176309D01*
X145630952Y-105223928D01*
X145630952Y-105295357D01*
X145607142Y-105342976D01*
X145583333Y-105366785D01*
X145535714Y-105390595D01*
X145345238Y-105390595D01*
X145940476Y-105128690D02*
X146035714Y-105128690D01*
X146083333Y-105152500D01*
X146130952Y-105200119D01*
X146154761Y-105295357D01*
X146154761Y-105462023D01*
X146130952Y-105557261D01*
X146083333Y-105604880D01*
X146035714Y-105628690D01*
X145940476Y-105628690D01*
X145892857Y-105604880D01*
X145845238Y-105557261D01*
X145821428Y-105462023D01*
X145821428Y-105295357D01*
X145845238Y-105200119D01*
X145892857Y-105152500D01*
X145940476Y-105128690D01*
X146321428Y-105128690D02*
X146440476Y-105628690D01*
X146535714Y-105271547D01*
X146630952Y-105628690D01*
X146750000Y-105128690D01*
X146940476Y-105366785D02*
X147107142Y-105366785D01*
X147178571Y-105628690D02*
X146940476Y-105628690D01*
X146940476Y-105128690D01*
X147178571Y-105128690D01*
X147678571Y-105628690D02*
X147511904Y-105390595D01*
X147392857Y-105628690D02*
X147392857Y-105128690D01*
X147583333Y-105128690D01*
X147630952Y-105152500D01*
X147654761Y-105176309D01*
X147678571Y-105223928D01*
X147678571Y-105295357D01*
X147654761Y-105342976D01*
X147630952Y-105366785D01*
X147583333Y-105390595D01*
X147392857Y-105390595D01*
X161654761Y-95299880D02*
X161726190Y-95323690D01*
X161845238Y-95323690D01*
X161892857Y-95299880D01*
X161916666Y-95276071D01*
X161940476Y-95228452D01*
X161940476Y-95180833D01*
X161916666Y-95133214D01*
X161892857Y-95109404D01*
X161845238Y-95085595D01*
X161750000Y-95061785D01*
X161702380Y-95037976D01*
X161678571Y-95014166D01*
X161654761Y-94966547D01*
X161654761Y-94918928D01*
X161678571Y-94871309D01*
X161702380Y-94847500D01*
X161750000Y-94823690D01*
X161869047Y-94823690D01*
X161940476Y-94847500D01*
X162154761Y-95061785D02*
X162321428Y-95061785D01*
X162392857Y-95323690D02*
X162154761Y-95323690D01*
X162154761Y-94823690D01*
X162392857Y-94823690D01*
X162892857Y-95323690D02*
X162726190Y-95085595D01*
X162607142Y-95323690D02*
X162607142Y-94823690D01*
X162797619Y-94823690D01*
X162845238Y-94847500D01*
X162869047Y-94871309D01*
X162892857Y-94918928D01*
X162892857Y-94990357D01*
X162869047Y-95037976D01*
X162845238Y-95061785D01*
X162797619Y-95085595D01*
X162607142Y-95085595D01*
X163035714Y-94823690D02*
X163202380Y-95323690D01*
X163369047Y-94823690D01*
X163630952Y-94823690D02*
X163726190Y-94823690D01*
X163773809Y-94847500D01*
X163821428Y-94895119D01*
X163845238Y-94990357D01*
X163845238Y-95157023D01*
X163821428Y-95252261D01*
X163773809Y-95299880D01*
X163726190Y-95323690D01*
X163630952Y-95323690D01*
X163583333Y-95299880D01*
X163535714Y-95252261D01*
X163511904Y-95157023D01*
X163511904Y-94990357D01*
X163535714Y-94895119D01*
X163583333Y-94847500D01*
X163630952Y-94823690D01*
X161595238Y-96128690D02*
X161595238Y-95628690D01*
X161785714Y-95628690D01*
X161833333Y-95652500D01*
X161857142Y-95676309D01*
X161880952Y-95723928D01*
X161880952Y-95795357D01*
X161857142Y-95842976D01*
X161833333Y-95866785D01*
X161785714Y-95890595D01*
X161595238Y-95890595D01*
X162190476Y-95628690D02*
X162285714Y-95628690D01*
X162333333Y-95652500D01*
X162380952Y-95700119D01*
X162404761Y-95795357D01*
X162404761Y-95962023D01*
X162380952Y-96057261D01*
X162333333Y-96104880D01*
X162285714Y-96128690D01*
X162190476Y-96128690D01*
X162142857Y-96104880D01*
X162095238Y-96057261D01*
X162071428Y-95962023D01*
X162071428Y-95795357D01*
X162095238Y-95700119D01*
X162142857Y-95652500D01*
X162190476Y-95628690D01*
X162571428Y-95628690D02*
X162690476Y-96128690D01*
X162785714Y-95771547D01*
X162880952Y-96128690D01*
X163000000Y-95628690D01*
X163190476Y-95866785D02*
X163357142Y-95866785D01*
X163428571Y-96128690D02*
X163190476Y-96128690D01*
X163190476Y-95628690D01*
X163428571Y-95628690D01*
X163928571Y-96128690D02*
X163761904Y-95890595D01*
X163642857Y-96128690D02*
X163642857Y-95628690D01*
X163833333Y-95628690D01*
X163880952Y-95652500D01*
X163904761Y-95676309D01*
X163928571Y-95723928D01*
X163928571Y-95795357D01*
X163904761Y-95842976D01*
X163880952Y-95866785D01*
X163833333Y-95890595D01*
X163642857Y-95890595D01*
X129285714Y-112964285D02*
X129357142Y-112988095D01*
X129380952Y-113011904D01*
X129404761Y-113059523D01*
X129404761Y-113130952D01*
X129380952Y-113178571D01*
X129357142Y-113202380D01*
X129309523Y-113226190D01*
X129119047Y-113226190D01*
X129119047Y-112726190D01*
X129285714Y-112726190D01*
X129333333Y-112750000D01*
X129357142Y-112773809D01*
X129380952Y-112821428D01*
X129380952Y-112869047D01*
X129357142Y-112916666D01*
X129333333Y-112940476D01*
X129285714Y-112964285D01*
X129119047Y-112964285D01*
X149380952Y-112750000D02*
X149333333Y-112726190D01*
X149261904Y-112726190D01*
X149190476Y-112750000D01*
X149142857Y-112797619D01*
X149119047Y-112845238D01*
X149095238Y-112940476D01*
X149095238Y-113011904D01*
X149119047Y-113107142D01*
X149142857Y-113154761D01*
X149190476Y-113202380D01*
X149261904Y-113226190D01*
X149309523Y-113226190D01*
X149380952Y-113202380D01*
X149404761Y-113178571D01*
X149404761Y-113011904D01*
X149309523Y-113011904D01*
X139869047Y-113226190D02*
X139869047Y-112726190D01*
X139988095Y-112726190D01*
X140059523Y-112750000D01*
X140107142Y-112797619D01*
X140130952Y-112845238D01*
X140154761Y-112940476D01*
X140154761Y-113011904D01*
X140130952Y-113107142D01*
X140107142Y-113154761D01*
X140059523Y-113202380D01*
X139988095Y-113226190D01*
X139869047Y-113226190D01*
X135178571Y-112726190D02*
X134940476Y-112726190D01*
X134940476Y-112226190D01*
X135345238Y-112464285D02*
X135511904Y-112464285D01*
X135583333Y-112726190D02*
X135345238Y-112726190D01*
X135345238Y-112226190D01*
X135583333Y-112226190D01*
X135797619Y-112726190D02*
X135797619Y-112226190D01*
X135916666Y-112226190D01*
X135988095Y-112250000D01*
X136035714Y-112297619D01*
X136059523Y-112345238D01*
X136083333Y-112440476D01*
X136083333Y-112511904D01*
X136059523Y-112607142D01*
X136035714Y-112654761D01*
X135988095Y-112702380D01*
X135916666Y-112726190D01*
X135797619Y-112726190D01*
X122934523Y-105941190D02*
X122934523Y-105441190D01*
X123053571Y-105441190D01*
X123125000Y-105465000D01*
X123172619Y-105512619D01*
X123196428Y-105560238D01*
X123220238Y-105655476D01*
X123220238Y-105726904D01*
X123196428Y-105822142D01*
X123172619Y-105869761D01*
X123125000Y-105917380D01*
X123053571Y-105941190D01*
X122934523Y-105941190D01*
X123720238Y-105941190D02*
X123553571Y-105703095D01*
X123434523Y-105941190D02*
X123434523Y-105441190D01*
X123625000Y-105441190D01*
X123672619Y-105465000D01*
X123696428Y-105488809D01*
X123720238Y-105536428D01*
X123720238Y-105607857D01*
X123696428Y-105655476D01*
X123672619Y-105679285D01*
X123625000Y-105703095D01*
X123434523Y-105703095D01*
X123934523Y-105941190D02*
X123934523Y-105441190D01*
X124101190Y-105441190D02*
X124267857Y-105941190D01*
X124434523Y-105441190D01*
X124601190Y-105679285D02*
X124767857Y-105679285D01*
X124839285Y-105941190D02*
X124601190Y-105941190D01*
X124601190Y-105441190D01*
X124839285Y-105441190D01*
X125339285Y-105941190D02*
X125172619Y-105703095D01*
X125053571Y-105941190D02*
X125053571Y-105441190D01*
X125244047Y-105441190D01*
X125291666Y-105465000D01*
X125315476Y-105488809D01*
X125339285Y-105536428D01*
X125339285Y-105607857D01*
X125315476Y-105655476D01*
X125291666Y-105679285D01*
X125244047Y-105703095D01*
X125053571Y-105703095D01*
X144654761Y-87299880D02*
X144726190Y-87323690D01*
X144845238Y-87323690D01*
X144892857Y-87299880D01*
X144916666Y-87276071D01*
X144940476Y-87228452D01*
X144940476Y-87180833D01*
X144916666Y-87133214D01*
X144892857Y-87109404D01*
X144845238Y-87085595D01*
X144750000Y-87061785D01*
X144702380Y-87037976D01*
X144678571Y-87014166D01*
X144654761Y-86966547D01*
X144654761Y-86918928D01*
X144678571Y-86871309D01*
X144702380Y-86847500D01*
X144750000Y-86823690D01*
X144869047Y-86823690D01*
X144940476Y-86847500D01*
X145154761Y-87061785D02*
X145321428Y-87061785D01*
X145392857Y-87323690D02*
X145154761Y-87323690D01*
X145154761Y-86823690D01*
X145392857Y-86823690D01*
X145892857Y-87323690D02*
X145726190Y-87085595D01*
X145607142Y-87323690D02*
X145607142Y-86823690D01*
X145797619Y-86823690D01*
X145845238Y-86847500D01*
X145869047Y-86871309D01*
X145892857Y-86918928D01*
X145892857Y-86990357D01*
X145869047Y-87037976D01*
X145845238Y-87061785D01*
X145797619Y-87085595D01*
X145607142Y-87085595D01*
X146035714Y-86823690D02*
X146202380Y-87323690D01*
X146369047Y-86823690D01*
X146630952Y-86823690D02*
X146726190Y-86823690D01*
X146773809Y-86847500D01*
X146821428Y-86895119D01*
X146845238Y-86990357D01*
X146845238Y-87157023D01*
X146821428Y-87252261D01*
X146773809Y-87299880D01*
X146726190Y-87323690D01*
X146630952Y-87323690D01*
X146583333Y-87299880D01*
X146535714Y-87252261D01*
X146511904Y-87157023D01*
X146511904Y-86990357D01*
X146535714Y-86895119D01*
X146583333Y-86847500D01*
X146630952Y-86823690D01*
X145892857Y-88128690D02*
X145607142Y-88128690D01*
X145750000Y-88128690D02*
X145750000Y-87628690D01*
X145702380Y-87700119D01*
X145654761Y-87747738D01*
X145607142Y-87771547D01*
D12*
X121380952Y-85670559D02*
X121380952Y-85120559D01*
X121380952Y-85330083D02*
X121428571Y-85303892D01*
X121523809Y-85303892D01*
X121571428Y-85330083D01*
X121595238Y-85356273D01*
X121619047Y-85408654D01*
X121619047Y-85565797D01*
X121595238Y-85618178D01*
X121571428Y-85644369D01*
X121523809Y-85670559D01*
X121428571Y-85670559D01*
X121380952Y-85644369D01*
X121833333Y-85670559D02*
X121833333Y-85303892D01*
X121833333Y-85120559D02*
X121809523Y-85146750D01*
X121833333Y-85172940D01*
X121857142Y-85146750D01*
X121833333Y-85120559D01*
X121833333Y-85172940D01*
X122023809Y-85303892D02*
X122142857Y-85670559D01*
X122261904Y-85303892D02*
X122142857Y-85670559D01*
X122095238Y-85801511D01*
X122071428Y-85827702D01*
X122023809Y-85853892D01*
X122452380Y-85670559D02*
X122452380Y-85303892D01*
X122452380Y-85356273D02*
X122476190Y-85330083D01*
X122523809Y-85303892D01*
X122595238Y-85303892D01*
X122642857Y-85330083D01*
X122666666Y-85382464D01*
X122666666Y-85670559D01*
X122666666Y-85382464D02*
X122690476Y-85330083D01*
X122738095Y-85303892D01*
X122809523Y-85303892D01*
X122857142Y-85330083D01*
X122880952Y-85382464D01*
X122880952Y-85670559D01*
X123119047Y-85461035D02*
X123500000Y-85461035D01*
X123738095Y-85670559D02*
X123738095Y-85120559D01*
X123738095Y-85330083D02*
X123785714Y-85303892D01*
X123880952Y-85303892D01*
X123928571Y-85330083D01*
X123952380Y-85356273D01*
X123976190Y-85408654D01*
X123976190Y-85565797D01*
X123952380Y-85618178D01*
X123928571Y-85644369D01*
X123880952Y-85670559D01*
X123785714Y-85670559D01*
X123738095Y-85644369D01*
X124261904Y-85670559D02*
X124214285Y-85644369D01*
X124190476Y-85618178D01*
X124166666Y-85565797D01*
X124166666Y-85408654D01*
X124190476Y-85356273D01*
X124214285Y-85330083D01*
X124261904Y-85303892D01*
X124333333Y-85303892D01*
X124380952Y-85330083D01*
X124404761Y-85356273D01*
X124428571Y-85408654D01*
X124428571Y-85565797D01*
X124404761Y-85618178D01*
X124380952Y-85644369D01*
X124333333Y-85670559D01*
X124261904Y-85670559D01*
X124857142Y-85670559D02*
X124857142Y-85382464D01*
X124833333Y-85330083D01*
X124785714Y-85303892D01*
X124690476Y-85303892D01*
X124642857Y-85330083D01*
X124857142Y-85644369D02*
X124809523Y-85670559D01*
X124690476Y-85670559D01*
X124642857Y-85644369D01*
X124619047Y-85591988D01*
X124619047Y-85539607D01*
X124642857Y-85487226D01*
X124690476Y-85461035D01*
X124809523Y-85461035D01*
X124857142Y-85434845D01*
X125095238Y-85670559D02*
X125095238Y-85303892D01*
X125095238Y-85408654D02*
X125119047Y-85356273D01*
X125142857Y-85330083D01*
X125190476Y-85303892D01*
X125238095Y-85303892D01*
X125619047Y-85670559D02*
X125619047Y-85120559D01*
X125619047Y-85644369D02*
X125571428Y-85670559D01*
X125476190Y-85670559D01*
X125428571Y-85644369D01*
X125404761Y-85618178D01*
X125380952Y-85565797D01*
X125380952Y-85408654D01*
X125404761Y-85356273D01*
X125428571Y-85330083D01*
X125476190Y-85303892D01*
X125571428Y-85303892D01*
X125619047Y-85330083D01*
X121380952Y-86189392D02*
X121500000Y-86556059D01*
X121619047Y-86189392D01*
X122071428Y-86556059D02*
X121785714Y-86556059D01*
X121928571Y-86556059D02*
X121928571Y-86006059D01*
X121880952Y-86084630D01*
X121833333Y-86137011D01*
X121785714Y-86163202D01*
X122285714Y-86503678D02*
X122309523Y-86529869D01*
X122285714Y-86556059D01*
X122261904Y-86529869D01*
X122285714Y-86503678D01*
X122285714Y-86556059D01*
X122500000Y-86058440D02*
X122523809Y-86032250D01*
X122571428Y-86006059D01*
X122690476Y-86006059D01*
X122738095Y-86032250D01*
X122761904Y-86058440D01*
X122785714Y-86110821D01*
X122785714Y-86163202D01*
X122761904Y-86241773D01*
X122476190Y-86556059D01*
X122785714Y-86556059D01*
X123642857Y-86556059D02*
X123357142Y-86556059D01*
X123500000Y-86556059D02*
X123500000Y-86006059D01*
X123452380Y-86084630D01*
X123404761Y-86137011D01*
X123357142Y-86163202D01*
X124119047Y-86556059D02*
X123833333Y-86556059D01*
X123976190Y-86556059D02*
X123976190Y-86006059D01*
X123928571Y-86084630D01*
X123880952Y-86137011D01*
X123833333Y-86163202D01*
X124690476Y-85979869D02*
X124261904Y-86687011D01*
X124833333Y-86058440D02*
X124857142Y-86032250D01*
X124904761Y-86006059D01*
X125023809Y-86006059D01*
X125071428Y-86032250D01*
X125095238Y-86058440D01*
X125119047Y-86110821D01*
X125119047Y-86163202D01*
X125095238Y-86241773D01*
X124809523Y-86556059D01*
X125119047Y-86556059D01*
X125309523Y-86058440D02*
X125333333Y-86032250D01*
X125380952Y-86006059D01*
X125500000Y-86006059D01*
X125547619Y-86032250D01*
X125571428Y-86058440D01*
X125595238Y-86110821D01*
X125595238Y-86163202D01*
X125571428Y-86241773D01*
X125285714Y-86556059D01*
X125595238Y-86556059D01*
X120345238Y-87074892D02*
X120345238Y-87624892D01*
X120345238Y-87101083D02*
X120392857Y-87074892D01*
X120488095Y-87074892D01*
X120535714Y-87101083D01*
X120559523Y-87127273D01*
X120583333Y-87179654D01*
X120583333Y-87336797D01*
X120559523Y-87389178D01*
X120535714Y-87415369D01*
X120488095Y-87441559D01*
X120392857Y-87441559D01*
X120345238Y-87415369D01*
X120988095Y-87415369D02*
X120940476Y-87441559D01*
X120845238Y-87441559D01*
X120797619Y-87415369D01*
X120773809Y-87362988D01*
X120773809Y-87153464D01*
X120797619Y-87101083D01*
X120845238Y-87074892D01*
X120940476Y-87074892D01*
X120988095Y-87101083D01*
X121011904Y-87153464D01*
X121011904Y-87205845D01*
X120773809Y-87258226D01*
X121154761Y-87074892D02*
X121345238Y-87074892D01*
X121226190Y-86891559D02*
X121226190Y-87362988D01*
X121250000Y-87415369D01*
X121297619Y-87441559D01*
X121345238Y-87441559D01*
X121702380Y-87415369D02*
X121654761Y-87441559D01*
X121559523Y-87441559D01*
X121511904Y-87415369D01*
X121488095Y-87362988D01*
X121488095Y-87153464D01*
X121511904Y-87101083D01*
X121559523Y-87074892D01*
X121654761Y-87074892D01*
X121702380Y-87101083D01*
X121726190Y-87153464D01*
X121726190Y-87205845D01*
X121488095Y-87258226D01*
X121940476Y-87441559D02*
X121940476Y-87074892D01*
X121940476Y-87179654D02*
X121964285Y-87127273D01*
X121988095Y-87101083D01*
X122035714Y-87074892D01*
X122083333Y-87074892D01*
X122559523Y-87179654D02*
X122535714Y-87153464D01*
X122488095Y-87127273D01*
X122440476Y-87127273D01*
X122392857Y-87153464D01*
X122369047Y-87179654D01*
X122345238Y-87232035D01*
X122345238Y-87284416D01*
X122369047Y-87336797D01*
X122392857Y-87362988D01*
X122440476Y-87389178D01*
X122488095Y-87389178D01*
X122535714Y-87362988D01*
X122559523Y-87336797D01*
X122559523Y-87127273D02*
X122559523Y-87336797D01*
X122583333Y-87362988D01*
X122607142Y-87362988D01*
X122654761Y-87336797D01*
X122678571Y-87284416D01*
X122678571Y-87153464D01*
X122630952Y-87074892D01*
X122559523Y-87022511D01*
X122464285Y-86996321D01*
X122369047Y-87022511D01*
X122297619Y-87074892D01*
X122250000Y-87153464D01*
X122226190Y-87258226D01*
X122250000Y-87362988D01*
X122297619Y-87441559D01*
X122369047Y-87493940D01*
X122464285Y-87520130D01*
X122559523Y-87493940D01*
X122630952Y-87441559D01*
X122892857Y-87074892D02*
X122892857Y-87624892D01*
X122892857Y-87101083D02*
X122940476Y-87074892D01*
X123035714Y-87074892D01*
X123083333Y-87101083D01*
X123107142Y-87127273D01*
X123130952Y-87179654D01*
X123130952Y-87336797D01*
X123107142Y-87389178D01*
X123083333Y-87415369D01*
X123035714Y-87441559D01*
X122940476Y-87441559D01*
X122892857Y-87415369D01*
X123416666Y-87441559D02*
X123369047Y-87415369D01*
X123345238Y-87389178D01*
X123321428Y-87336797D01*
X123321428Y-87179654D01*
X123345238Y-87127273D01*
X123369047Y-87101083D01*
X123416666Y-87074892D01*
X123488095Y-87074892D01*
X123535714Y-87101083D01*
X123559523Y-87127273D01*
X123583333Y-87179654D01*
X123583333Y-87336797D01*
X123559523Y-87389178D01*
X123535714Y-87415369D01*
X123488095Y-87441559D01*
X123416666Y-87441559D01*
X123869047Y-87441559D02*
X123821428Y-87415369D01*
X123797619Y-87362988D01*
X123797619Y-86891559D01*
X124059523Y-87441559D02*
X124059523Y-87074892D01*
X124059523Y-86891559D02*
X124035714Y-86917750D01*
X124059523Y-86943940D01*
X124083333Y-86917750D01*
X124059523Y-86891559D01*
X124059523Y-86943940D01*
X124511904Y-87441559D02*
X124511904Y-86891559D01*
X124511904Y-87415369D02*
X124464285Y-87441559D01*
X124369047Y-87441559D01*
X124321428Y-87415369D01*
X124297619Y-87389178D01*
X124273809Y-87336797D01*
X124273809Y-87179654D01*
X124297619Y-87127273D01*
X124321428Y-87101083D01*
X124369047Y-87074892D01*
X124464285Y-87074892D01*
X124511904Y-87101083D01*
X124821428Y-87441559D02*
X124773809Y-87415369D01*
X124750000Y-87389178D01*
X124726190Y-87336797D01*
X124726190Y-87179654D01*
X124750000Y-87127273D01*
X124773809Y-87101083D01*
X124821428Y-87074892D01*
X124892857Y-87074892D01*
X124940476Y-87101083D01*
X124964285Y-87127273D01*
X124988095Y-87179654D01*
X124988095Y-87336797D01*
X124964285Y-87389178D01*
X124940476Y-87415369D01*
X124892857Y-87441559D01*
X124821428Y-87441559D01*
X125202380Y-87441559D02*
X125202380Y-87074892D01*
X125202380Y-87179654D02*
X125226190Y-87127273D01*
X125250000Y-87101083D01*
X125297619Y-87074892D01*
X125345238Y-87074892D01*
X125583333Y-87441559D02*
X125535714Y-87415369D01*
X125511904Y-87389178D01*
X125488095Y-87336797D01*
X125488095Y-87179654D01*
X125511904Y-87127273D01*
X125535714Y-87101083D01*
X125583333Y-87074892D01*
X125654761Y-87074892D01*
X125702380Y-87101083D01*
X125726190Y-87127273D01*
X125750000Y-87179654D01*
X125750000Y-87336797D01*
X125726190Y-87389178D01*
X125702380Y-87415369D01*
X125654761Y-87441559D01*
X125583333Y-87441559D01*
X125964285Y-87389178D02*
X125988095Y-87415369D01*
X125964285Y-87441559D01*
X125940476Y-87415369D01*
X125964285Y-87389178D01*
X125964285Y-87441559D01*
X126202380Y-87441559D02*
X126202380Y-87074892D01*
X126202380Y-86891559D02*
X126178571Y-86917750D01*
X126202380Y-86943940D01*
X126226190Y-86917750D01*
X126202380Y-86891559D01*
X126202380Y-86943940D01*
X126511904Y-87441559D02*
X126464285Y-87415369D01*
X126440476Y-87389178D01*
X126416666Y-87336797D01*
X126416666Y-87179654D01*
X126440476Y-87127273D01*
X126464285Y-87101083D01*
X126511904Y-87074892D01*
X126583333Y-87074892D01*
X126630952Y-87101083D01*
X126654761Y-87127273D01*
X126678571Y-87179654D01*
X126678571Y-87336797D01*
X126654761Y-87389178D01*
X126630952Y-87415369D01*
X126583333Y-87441559D01*
X126511904Y-87441559D01*
X116345238Y-88327059D02*
X116345238Y-87777059D01*
X116559523Y-88327059D02*
X116559523Y-88038964D01*
X116535714Y-87986583D01*
X116488095Y-87960392D01*
X116416666Y-87960392D01*
X116369047Y-87986583D01*
X116345238Y-88012773D01*
X116726190Y-87960392D02*
X116916666Y-87960392D01*
X116797619Y-87777059D02*
X116797619Y-88248488D01*
X116821428Y-88300869D01*
X116869047Y-88327059D01*
X116916666Y-88327059D01*
X117011904Y-87960392D02*
X117202380Y-87960392D01*
X117083333Y-87777059D02*
X117083333Y-88248488D01*
X117107142Y-88300869D01*
X117154761Y-88327059D01*
X117202380Y-88327059D01*
X117369047Y-87960392D02*
X117369047Y-88510392D01*
X117369047Y-87986583D02*
X117416666Y-87960392D01*
X117511904Y-87960392D01*
X117559523Y-87986583D01*
X117583333Y-88012773D01*
X117607142Y-88065154D01*
X117607142Y-88222297D01*
X117583333Y-88274678D01*
X117559523Y-88300869D01*
X117511904Y-88327059D01*
X117416666Y-88327059D01*
X117369047Y-88300869D01*
X117797619Y-88300869D02*
X117845238Y-88327059D01*
X117940476Y-88327059D01*
X117988095Y-88300869D01*
X118011904Y-88248488D01*
X118011904Y-88222297D01*
X117988095Y-88169916D01*
X117940476Y-88143726D01*
X117869047Y-88143726D01*
X117821428Y-88117535D01*
X117797619Y-88065154D01*
X117797619Y-88038964D01*
X117821428Y-87986583D01*
X117869047Y-87960392D01*
X117940476Y-87960392D01*
X117988095Y-87986583D01*
X118226190Y-88274678D02*
X118250000Y-88300869D01*
X118226190Y-88327059D01*
X118202380Y-88300869D01*
X118226190Y-88274678D01*
X118226190Y-88327059D01*
X118226190Y-87986583D02*
X118250000Y-88012773D01*
X118226190Y-88038964D01*
X118202380Y-88012773D01*
X118226190Y-87986583D01*
X118226190Y-88038964D01*
X118821428Y-87750869D02*
X118392857Y-88458011D01*
X119345238Y-87750869D02*
X118916666Y-88458011D01*
X119726190Y-87960392D02*
X119726190Y-88405630D01*
X119702380Y-88458011D01*
X119678571Y-88484202D01*
X119630952Y-88510392D01*
X119559523Y-88510392D01*
X119511904Y-88484202D01*
X119726190Y-88300869D02*
X119678571Y-88327059D01*
X119583333Y-88327059D01*
X119535714Y-88300869D01*
X119511904Y-88274678D01*
X119488095Y-88222297D01*
X119488095Y-88065154D01*
X119511904Y-88012773D01*
X119535714Y-87986583D01*
X119583333Y-87960392D01*
X119678571Y-87960392D01*
X119726190Y-87986583D01*
X119964285Y-88327059D02*
X119964285Y-87960392D01*
X119964285Y-87777059D02*
X119940476Y-87803250D01*
X119964285Y-87829440D01*
X119988095Y-87803250D01*
X119964285Y-87777059D01*
X119964285Y-87829440D01*
X120130952Y-87960392D02*
X120321428Y-87960392D01*
X120202380Y-87777059D02*
X120202380Y-88248488D01*
X120226190Y-88300869D01*
X120273809Y-88327059D01*
X120321428Y-88327059D01*
X120488095Y-88327059D02*
X120488095Y-87777059D01*
X120702380Y-88327059D02*
X120702380Y-88038964D01*
X120678571Y-87986583D01*
X120630952Y-87960392D01*
X120559523Y-87960392D01*
X120511904Y-87986583D01*
X120488095Y-88012773D01*
X121154761Y-87960392D02*
X121154761Y-88327059D01*
X120940476Y-87960392D02*
X120940476Y-88248488D01*
X120964285Y-88300869D01*
X121011904Y-88327059D01*
X121083333Y-88327059D01*
X121130952Y-88300869D01*
X121154761Y-88274678D01*
X121392857Y-88327059D02*
X121392857Y-87777059D01*
X121392857Y-87986583D02*
X121440476Y-87960392D01*
X121535714Y-87960392D01*
X121583333Y-87986583D01*
X121607142Y-88012773D01*
X121630952Y-88065154D01*
X121630952Y-88222297D01*
X121607142Y-88274678D01*
X121583333Y-88300869D01*
X121535714Y-88327059D01*
X121440476Y-88327059D01*
X121392857Y-88300869D01*
X121845238Y-88274678D02*
X121869047Y-88300869D01*
X121845238Y-88327059D01*
X121821428Y-88300869D01*
X121845238Y-88274678D01*
X121845238Y-88327059D01*
X122297619Y-88300869D02*
X122250000Y-88327059D01*
X122154761Y-88327059D01*
X122107142Y-88300869D01*
X122083333Y-88274678D01*
X122059523Y-88222297D01*
X122059523Y-88065154D01*
X122083333Y-88012773D01*
X122107142Y-87986583D01*
X122154761Y-87960392D01*
X122250000Y-87960392D01*
X122297619Y-87986583D01*
X122583333Y-88327059D02*
X122535714Y-88300869D01*
X122511904Y-88274678D01*
X122488095Y-88222297D01*
X122488095Y-88065154D01*
X122511904Y-88012773D01*
X122535714Y-87986583D01*
X122583333Y-87960392D01*
X122654761Y-87960392D01*
X122702380Y-87986583D01*
X122726190Y-88012773D01*
X122750000Y-88065154D01*
X122750000Y-88222297D01*
X122726190Y-88274678D01*
X122702380Y-88300869D01*
X122654761Y-88327059D01*
X122583333Y-88327059D01*
X122964285Y-88327059D02*
X122964285Y-87960392D01*
X122964285Y-88012773D02*
X122988095Y-87986583D01*
X123035714Y-87960392D01*
X123107142Y-87960392D01*
X123154761Y-87986583D01*
X123178571Y-88038964D01*
X123178571Y-88327059D01*
X123178571Y-88038964D02*
X123202380Y-87986583D01*
X123250000Y-87960392D01*
X123321428Y-87960392D01*
X123369047Y-87986583D01*
X123392857Y-88038964D01*
X123392857Y-88327059D01*
X123988095Y-87750869D02*
X123559523Y-88458011D01*
X124154761Y-88327059D02*
X124154761Y-87777059D01*
X124154761Y-87986583D02*
X124202380Y-87960392D01*
X124297619Y-87960392D01*
X124345238Y-87986583D01*
X124369047Y-88012773D01*
X124392857Y-88065154D01*
X124392857Y-88222297D01*
X124369047Y-88274678D01*
X124345238Y-88300869D01*
X124297619Y-88327059D01*
X124202380Y-88327059D01*
X124154761Y-88300869D01*
X124607142Y-88327059D02*
X124607142Y-87960392D01*
X124607142Y-87777059D02*
X124583333Y-87803250D01*
X124607142Y-87829440D01*
X124630952Y-87803250D01*
X124607142Y-87777059D01*
X124607142Y-87829440D01*
X124797619Y-87960392D02*
X124916666Y-88327059D01*
X125035714Y-87960392D02*
X124916666Y-88327059D01*
X124869047Y-88458011D01*
X124845238Y-88484202D01*
X124797619Y-88510392D01*
X125226190Y-88327059D02*
X125226190Y-87960392D01*
X125226190Y-88012773D02*
X125250000Y-87986583D01*
X125297619Y-87960392D01*
X125369047Y-87960392D01*
X125416666Y-87986583D01*
X125440476Y-88038964D01*
X125440476Y-88327059D01*
X125440476Y-88038964D02*
X125464285Y-87986583D01*
X125511904Y-87960392D01*
X125583333Y-87960392D01*
X125630952Y-87986583D01*
X125654761Y-88038964D01*
X125654761Y-88327059D01*
X126250000Y-87750869D02*
X125821428Y-88458011D01*
X126416666Y-88327059D02*
X126416666Y-87777059D01*
X126416666Y-87986583D02*
X126464285Y-87960392D01*
X126559523Y-87960392D01*
X126607142Y-87986583D01*
X126630952Y-88012773D01*
X126654761Y-88065154D01*
X126654761Y-88222297D01*
X126630952Y-88274678D01*
X126607142Y-88300869D01*
X126559523Y-88327059D01*
X126464285Y-88327059D01*
X126416666Y-88300869D01*
X126869047Y-88327059D02*
X126869047Y-87960392D01*
X126869047Y-87777059D02*
X126845238Y-87803250D01*
X126869047Y-87829440D01*
X126892857Y-87803250D01*
X126869047Y-87777059D01*
X126869047Y-87829440D01*
X127059523Y-87960392D02*
X127178571Y-88327059D01*
X127297619Y-87960392D02*
X127178571Y-88327059D01*
X127130952Y-88458011D01*
X127107142Y-88484202D01*
X127059523Y-88510392D01*
X127488095Y-88327059D02*
X127488095Y-87960392D01*
X127488095Y-88012773D02*
X127511904Y-87986583D01*
X127559523Y-87960392D01*
X127630952Y-87960392D01*
X127678571Y-87986583D01*
X127702380Y-88038964D01*
X127702380Y-88327059D01*
X127702380Y-88038964D02*
X127726190Y-87986583D01*
X127773809Y-87960392D01*
X127845238Y-87960392D01*
X127892857Y-87986583D01*
X127916666Y-88038964D01*
X127916666Y-88327059D01*
X128154761Y-88117535D02*
X128535714Y-88117535D01*
X128773809Y-88327059D02*
X128773809Y-87777059D01*
X128773809Y-87986583D02*
X128821428Y-87960392D01*
X128916666Y-87960392D01*
X128964285Y-87986583D01*
X128988095Y-88012773D01*
X129011904Y-88065154D01*
X129011904Y-88222297D01*
X128988095Y-88274678D01*
X128964285Y-88300869D01*
X128916666Y-88327059D01*
X128821428Y-88327059D01*
X128773809Y-88300869D01*
X129297619Y-88327059D02*
X129250000Y-88300869D01*
X129226190Y-88274678D01*
X129202380Y-88222297D01*
X129202380Y-88065154D01*
X129226190Y-88012773D01*
X129250000Y-87986583D01*
X129297619Y-87960392D01*
X129369047Y-87960392D01*
X129416666Y-87986583D01*
X129440476Y-88012773D01*
X129464285Y-88065154D01*
X129464285Y-88222297D01*
X129440476Y-88274678D01*
X129416666Y-88300869D01*
X129369047Y-88327059D01*
X129297619Y-88327059D01*
X129892857Y-88327059D02*
X129892857Y-88038964D01*
X129869047Y-87986583D01*
X129821428Y-87960392D01*
X129726190Y-87960392D01*
X129678571Y-87986583D01*
X129892857Y-88300869D02*
X129845238Y-88327059D01*
X129726190Y-88327059D01*
X129678571Y-88300869D01*
X129654761Y-88248488D01*
X129654761Y-88196107D01*
X129678571Y-88143726D01*
X129726190Y-88117535D01*
X129845238Y-88117535D01*
X129892857Y-88091345D01*
X130130952Y-88327059D02*
X130130952Y-87960392D01*
X130130952Y-88065154D02*
X130154761Y-88012773D01*
X130178571Y-87986583D01*
X130226190Y-87960392D01*
X130273809Y-87960392D01*
X130654761Y-88327059D02*
X130654761Y-87777059D01*
X130654761Y-88300869D02*
X130607142Y-88327059D01*
X130511904Y-88327059D01*
X130464285Y-88300869D01*
X130440476Y-88274678D01*
X130416666Y-88222297D01*
X130416666Y-88065154D01*
X130440476Y-88012773D01*
X130464285Y-87986583D01*
X130511904Y-87960392D01*
X130607142Y-87960392D01*
X130654761Y-87986583D01*
D11*
X130630952Y-86750000D02*
X130583333Y-86726190D01*
X130511904Y-86726190D01*
X130440476Y-86750000D01*
X130392857Y-86797619D01*
X130369047Y-86845238D01*
X130345238Y-86940476D01*
X130345238Y-87011904D01*
X130369047Y-87107142D01*
X130392857Y-87154761D01*
X130440476Y-87202380D01*
X130511904Y-87226190D01*
X130559523Y-87226190D01*
X130630952Y-87202380D01*
X130654761Y-87178571D01*
X130654761Y-87011904D01*
X130559523Y-87011904D01*
X131857142Y-87202380D02*
X131928571Y-87226190D01*
X132047619Y-87226190D01*
X132095238Y-87202380D01*
X132119047Y-87178571D01*
X132142857Y-87130952D01*
X132142857Y-87083333D01*
X132119047Y-87035714D01*
X132095238Y-87011904D01*
X132047619Y-86988095D01*
X131952380Y-86964285D01*
X131904761Y-86940476D01*
X131880952Y-86916666D01*
X131857142Y-86869047D01*
X131857142Y-86821428D01*
X131880952Y-86773809D01*
X131904761Y-86750000D01*
X131952380Y-86726190D01*
X132071428Y-86726190D01*
X132142857Y-86750000D01*
X127869047Y-113083333D02*
X127630952Y-113083333D01*
X127916666Y-113226190D02*
X127750000Y-112726190D01*
X127583333Y-113226190D01*
X150726190Y-112726190D02*
X150773809Y-112726190D01*
X150821428Y-112750000D01*
X150845238Y-112773809D01*
X150869047Y-112821428D01*
X150892857Y-112916666D01*
X150892857Y-113035714D01*
X150869047Y-113130952D01*
X150845238Y-113178571D01*
X150821428Y-113202380D01*
X150773809Y-113226190D01*
X150726190Y-113226190D01*
X150678571Y-113202380D01*
X150654761Y-113178571D01*
X150630952Y-113130952D01*
X150607142Y-113035714D01*
X150607142Y-112916666D01*
X150630952Y-112821428D01*
X150654761Y-112773809D01*
X150678571Y-112750000D01*
X150726190Y-112726190D01*
X137166666Y-112726190D02*
X137000000Y-113226190D01*
X136833333Y-112726190D01*
X149607142Y-87202380D02*
X149678571Y-87226190D01*
X149797619Y-87226190D01*
X149845238Y-87202380D01*
X149869047Y-87178571D01*
X149892857Y-87130952D01*
X149892857Y-87083333D01*
X149869047Y-87035714D01*
X149845238Y-87011904D01*
X149797619Y-86988095D01*
X149702380Y-86964285D01*
X149654761Y-86940476D01*
X149630952Y-86916666D01*
X149607142Y-86869047D01*
X149607142Y-86821428D01*
X149630952Y-86773809D01*
X149654761Y-86750000D01*
X149702380Y-86726190D01*
X149821428Y-86726190D01*
X149892857Y-86750000D01*
X138392857Y-96964285D02*
X138559523Y-96964285D01*
X138630952Y-97226190D02*
X138392857Y-97226190D01*
X138392857Y-96726190D01*
X138630952Y-96726190D01*
X138845238Y-97226190D02*
X138845238Y-96726190D01*
X139130952Y-97226190D01*
X139130952Y-96726190D01*
X139654761Y-97178571D02*
X139630952Y-97202380D01*
X139559523Y-97226190D01*
X139511904Y-97226190D01*
X139440476Y-97202380D01*
X139392857Y-97154761D01*
X139369047Y-97107142D01*
X139345238Y-97011904D01*
X139345238Y-96940476D01*
X139369047Y-96845238D01*
X139392857Y-96797619D01*
X139440476Y-96750000D01*
X139511904Y-96726190D01*
X139559523Y-96726190D01*
X139630952Y-96750000D01*
X139654761Y-96773809D01*
X139964285Y-96726190D02*
X140059523Y-96726190D01*
X140107142Y-96750000D01*
X140154761Y-96797619D01*
X140178571Y-96892857D01*
X140178571Y-97059523D01*
X140154761Y-97154761D01*
X140107142Y-97202380D01*
X140059523Y-97226190D01*
X139964285Y-97226190D01*
X139916666Y-97202380D01*
X139869047Y-97154761D01*
X139845238Y-97059523D01*
X139845238Y-96892857D01*
X139869047Y-96797619D01*
X139916666Y-96750000D01*
X139964285Y-96726190D01*
X140392857Y-97226190D02*
X140392857Y-96726190D01*
X140511904Y-96726190D01*
X140583333Y-96750000D01*
X140630952Y-96797619D01*
X140654761Y-96845238D01*
X140678571Y-96940476D01*
X140678571Y-97011904D01*
X140654761Y-97107142D01*
X140630952Y-97154761D01*
X140583333Y-97202380D01*
X140511904Y-97226190D01*
X140392857Y-97226190D01*
X140892857Y-96964285D02*
X141059523Y-96964285D01*
X141130952Y-97226190D02*
X140892857Y-97226190D01*
X140892857Y-96726190D01*
X141130952Y-96726190D01*
X141630952Y-97226190D02*
X141464285Y-96988095D01*
X141345238Y-97226190D02*
X141345238Y-96726190D01*
X141535714Y-96726190D01*
X141583333Y-96750000D01*
X141607142Y-96773809D01*
X141630952Y-96821428D01*
X141630952Y-96892857D01*
X141607142Y-96940476D01*
X141583333Y-96964285D01*
X141535714Y-96988095D01*
X141345238Y-96988095D01*
X154654761Y-87299880D02*
X154726190Y-87323690D01*
X154845238Y-87323690D01*
X154892857Y-87299880D01*
X154916666Y-87276071D01*
X154940476Y-87228452D01*
X154940476Y-87180833D01*
X154916666Y-87133214D01*
X154892857Y-87109404D01*
X154845238Y-87085595D01*
X154750000Y-87061785D01*
X154702380Y-87037976D01*
X154678571Y-87014166D01*
X154654761Y-86966547D01*
X154654761Y-86918928D01*
X154678571Y-86871309D01*
X154702380Y-86847500D01*
X154750000Y-86823690D01*
X154869047Y-86823690D01*
X154940476Y-86847500D01*
X155154761Y-87061785D02*
X155321428Y-87061785D01*
X155392857Y-87323690D02*
X155154761Y-87323690D01*
X155154761Y-86823690D01*
X155392857Y-86823690D01*
X155892857Y-87323690D02*
X155726190Y-87085595D01*
X155607142Y-87323690D02*
X155607142Y-86823690D01*
X155797619Y-86823690D01*
X155845238Y-86847500D01*
X155869047Y-86871309D01*
X155892857Y-86918928D01*
X155892857Y-86990357D01*
X155869047Y-87037976D01*
X155845238Y-87061785D01*
X155797619Y-87085595D01*
X155607142Y-87085595D01*
X156035714Y-86823690D02*
X156202380Y-87323690D01*
X156369047Y-86823690D01*
X156630952Y-86823690D02*
X156726190Y-86823690D01*
X156773809Y-86847500D01*
X156821428Y-86895119D01*
X156845238Y-86990357D01*
X156845238Y-87157023D01*
X156821428Y-87252261D01*
X156773809Y-87299880D01*
X156726190Y-87323690D01*
X156630952Y-87323690D01*
X156583333Y-87299880D01*
X156535714Y-87252261D01*
X156511904Y-87157023D01*
X156511904Y-86990357D01*
X156535714Y-86895119D01*
X156583333Y-86847500D01*
X156630952Y-86823690D01*
X155726190Y-87628690D02*
X155773809Y-87628690D01*
X155821428Y-87652500D01*
X155845238Y-87676309D01*
X155869047Y-87723928D01*
X155892857Y-87819166D01*
X155892857Y-87938214D01*
X155869047Y-88033452D01*
X155845238Y-88081071D01*
X155821428Y-88104880D01*
X155773809Y-88128690D01*
X155726190Y-88128690D01*
X155678571Y-88104880D01*
X155654761Y-88081071D01*
X155630952Y-88033452D01*
X155607142Y-87938214D01*
X155607142Y-87819166D01*
X155630952Y-87723928D01*
X155654761Y-87676309D01*
X155678571Y-87652500D01*
X155726190Y-87628690D01*
X152880952Y-86750000D02*
X152833333Y-86726190D01*
X152761904Y-86726190D01*
X152690476Y-86750000D01*
X152642857Y-86797619D01*
X152619047Y-86845238D01*
X152595238Y-86940476D01*
X152595238Y-87011904D01*
X152619047Y-87107142D01*
X152642857Y-87154761D01*
X152690476Y-87202380D01*
X152761904Y-87226190D01*
X152809523Y-87226190D01*
X152880952Y-87202380D01*
X152904761Y-87178571D01*
X152904761Y-87011904D01*
X152809523Y-87011904D01*
X139607142Y-87202380D02*
X139678571Y-87226190D01*
X139797619Y-87226190D01*
X139845238Y-87202380D01*
X139869047Y-87178571D01*
X139892857Y-87130952D01*
X139892857Y-87083333D01*
X139869047Y-87035714D01*
X139845238Y-87011904D01*
X139797619Y-86988095D01*
X139702380Y-86964285D01*
X139654761Y-86940476D01*
X139630952Y-86916666D01*
X139607142Y-86869047D01*
X139607142Y-86821428D01*
X139630952Y-86773809D01*
X139654761Y-86750000D01*
X139702380Y-86726190D01*
X139821428Y-86726190D01*
X139892857Y-86750000D01*
X138654761Y-113178571D02*
X138630952Y-113202380D01*
X138559523Y-113226190D01*
X138511904Y-113226190D01*
X138440476Y-113202380D01*
X138392857Y-113154761D01*
X138369047Y-113107142D01*
X138345238Y-113011904D01*
X138345238Y-112940476D01*
X138369047Y-112845238D01*
X138392857Y-112797619D01*
X138440476Y-112750000D01*
X138511904Y-112726190D01*
X138559523Y-112726190D01*
X138630952Y-112750000D01*
X138654761Y-112773809D01*
X125059523Y-112726190D02*
X125059523Y-112226190D01*
X125178571Y-112226190D01*
X125250000Y-112250000D01*
X125297619Y-112297619D01*
X125321428Y-112345238D01*
X125345238Y-112440476D01*
X125345238Y-112511904D01*
X125321428Y-112607142D01*
X125297619Y-112654761D01*
X125250000Y-112702380D01*
X125178571Y-112726190D01*
X125059523Y-112726190D01*
X125845238Y-112726190D02*
X125678571Y-112488095D01*
X125559523Y-112726190D02*
X125559523Y-112226190D01*
X125750000Y-112226190D01*
X125797619Y-112250000D01*
X125821428Y-112273809D01*
X125845238Y-112321428D01*
X125845238Y-112392857D01*
X125821428Y-112440476D01*
X125797619Y-112464285D01*
X125750000Y-112488095D01*
X125559523Y-112488095D01*
X126059523Y-112726190D02*
X126059523Y-112226190D01*
X126226190Y-112226190D02*
X126392857Y-112726190D01*
X126559523Y-112226190D01*
X126726190Y-112464285D02*
X126892857Y-112464285D01*
X126964285Y-112726190D02*
X126726190Y-112726190D01*
X126726190Y-112226190D01*
X126964285Y-112226190D01*
X127464285Y-112726190D02*
X127297619Y-112488095D01*
X127178571Y-112726190D02*
X127178571Y-112226190D01*
X127369047Y-112226190D01*
X127416666Y-112250000D01*
X127440476Y-112273809D01*
X127464285Y-112321428D01*
X127464285Y-112392857D01*
X127440476Y-112440476D01*
X127416666Y-112464285D01*
X127369047Y-112488095D01*
X127178571Y-112488095D01*
X142880952Y-86750000D02*
X142833333Y-86726190D01*
X142761904Y-86726190D01*
X142690476Y-86750000D01*
X142642857Y-86797619D01*
X142619047Y-86845238D01*
X142595238Y-86940476D01*
X142595238Y-87011904D01*
X142619047Y-87107142D01*
X142642857Y-87154761D01*
X142690476Y-87202380D01*
X142761904Y-87226190D01*
X142809523Y-87226190D01*
X142880952Y-87202380D01*
X142904761Y-87178571D01*
X142904761Y-87011904D01*
X142809523Y-87011904D01*
X141083333Y-86726190D02*
X141250000Y-87226190D01*
X141416666Y-86726190D01*
X151083333Y-86726190D02*
X151250000Y-87226190D01*
X151416666Y-86726190D01*
X147892857Y-113226190D02*
X147607142Y-113226190D01*
X147750000Y-113226190D02*
X147750000Y-112726190D01*
X147702380Y-112797619D01*
X147654761Y-112845238D01*
X147607142Y-112869047D01*
X130904761Y-113178571D02*
X130880952Y-113202380D01*
X130809523Y-113226190D01*
X130761904Y-113226190D01*
X130690476Y-113202380D01*
X130642857Y-113154761D01*
X130619047Y-113107142D01*
X130595238Y-113011904D01*
X130595238Y-112940476D01*
X130619047Y-112845238D01*
X130642857Y-112797619D01*
X130690476Y-112750000D01*
X130761904Y-112726190D01*
X130809523Y-112726190D01*
X130880952Y-112750000D01*
X130904761Y-112773809D01*
X133845238Y-87323690D02*
X133845238Y-86823690D01*
X134035714Y-86823690D01*
X134083333Y-86847500D01*
X134107142Y-86871309D01*
X134130952Y-86918928D01*
X134130952Y-86990357D01*
X134107142Y-87037976D01*
X134083333Y-87061785D01*
X134035714Y-87085595D01*
X133845238Y-87085595D01*
X134440476Y-86823690D02*
X134535714Y-86823690D01*
X134583333Y-86847500D01*
X134630952Y-86895119D01*
X134654761Y-86990357D01*
X134654761Y-87157023D01*
X134630952Y-87252261D01*
X134583333Y-87299880D01*
X134535714Y-87323690D01*
X134440476Y-87323690D01*
X134392857Y-87299880D01*
X134345238Y-87252261D01*
X134321428Y-87157023D01*
X134321428Y-86990357D01*
X134345238Y-86895119D01*
X134392857Y-86847500D01*
X134440476Y-86823690D01*
X134821428Y-86823690D02*
X134940476Y-87323690D01*
X135035714Y-86966547D01*
X135130952Y-87323690D01*
X135250000Y-86823690D01*
X135440476Y-87061785D02*
X135607142Y-87061785D01*
X135678571Y-87323690D02*
X135440476Y-87323690D01*
X135440476Y-86823690D01*
X135678571Y-86823690D01*
X136178571Y-87323690D02*
X136011904Y-87085595D01*
X135892857Y-87323690D02*
X135892857Y-86823690D01*
X136083333Y-86823690D01*
X136130952Y-86847500D01*
X136154761Y-86871309D01*
X136178571Y-86918928D01*
X136178571Y-86990357D01*
X136154761Y-87037976D01*
X136130952Y-87061785D01*
X136083333Y-87085595D01*
X135892857Y-87085595D01*
X133750000Y-88104880D02*
X133821428Y-88128690D01*
X133940476Y-88128690D01*
X133988095Y-88104880D01*
X134011904Y-88081071D01*
X134035714Y-88033452D01*
X134035714Y-87985833D01*
X134011904Y-87938214D01*
X133988095Y-87914404D01*
X133940476Y-87890595D01*
X133845238Y-87866785D01*
X133797619Y-87842976D01*
X133773809Y-87819166D01*
X133750000Y-87771547D01*
X133750000Y-87723928D01*
X133773809Y-87676309D01*
X133797619Y-87652500D01*
X133845238Y-87628690D01*
X133964285Y-87628690D01*
X134035714Y-87652500D01*
X134202380Y-87628690D02*
X134321428Y-88128690D01*
X134416666Y-87771547D01*
X134511904Y-88128690D01*
X134630952Y-87628690D01*
X134821428Y-88128690D02*
X134821428Y-87628690D01*
X134988095Y-87628690D02*
X135273809Y-87628690D01*
X135130952Y-88128690D02*
X135130952Y-87628690D01*
X135726190Y-88081071D02*
X135702380Y-88104880D01*
X135630952Y-88128690D01*
X135583333Y-88128690D01*
X135511904Y-88104880D01*
X135464285Y-88057261D01*
X135440476Y-88009642D01*
X135416666Y-87914404D01*
X135416666Y-87842976D01*
X135440476Y-87747738D01*
X135464285Y-87700119D01*
X135511904Y-87652500D01*
X135583333Y-87628690D01*
X135630952Y-87628690D01*
X135702380Y-87652500D01*
X135726190Y-87676309D01*
X135940476Y-88128690D02*
X135940476Y-87628690D01*
X135940476Y-87866785D02*
X136226190Y-87866785D01*
X136226190Y-88128690D02*
X136226190Y-87628690D01*
X146000000Y-112250000D02*
X145952380Y-112226190D01*
X145880952Y-112226190D01*
X145809523Y-112250000D01*
X145761904Y-112297619D01*
X145738095Y-112345238D01*
X145714285Y-112440476D01*
X145714285Y-112511904D01*
X145738095Y-112607142D01*
X145761904Y-112654761D01*
X145809523Y-112702380D01*
X145880952Y-112726190D01*
X145928571Y-112726190D01*
X146000000Y-112702380D01*
X146023809Y-112678571D01*
X146023809Y-112511904D01*
X145928571Y-112511904D01*
X146238095Y-112726190D02*
X146238095Y-112226190D01*
X146428571Y-112226190D01*
X146476190Y-112250000D01*
X146500000Y-112273809D01*
X146523809Y-112321428D01*
X146523809Y-112392857D01*
X146500000Y-112440476D01*
X146476190Y-112464285D01*
X146428571Y-112488095D01*
X146238095Y-112488095D01*
X146738095Y-112726190D02*
X146738095Y-112226190D01*
X147071428Y-112226190D02*
X147166666Y-112226190D01*
X147214285Y-112250000D01*
X147261904Y-112297619D01*
X147285714Y-112392857D01*
X147285714Y-112559523D01*
X147261904Y-112654761D01*
X147214285Y-112702380D01*
X147166666Y-112726190D01*
X147071428Y-112726190D01*
X147023809Y-112702380D01*
X146976190Y-112654761D01*
X146952380Y-112559523D01*
X146952380Y-112392857D01*
X146976190Y-112297619D01*
X147023809Y-112250000D01*
X147071428Y-112226190D01*
X141630952Y-112750000D02*
X141583333Y-112726190D01*
X141511904Y-112726190D01*
X141440476Y-112750000D01*
X141392857Y-112797619D01*
X141369047Y-112845238D01*
X141345238Y-112940476D01*
X141345238Y-113011904D01*
X141369047Y-113107142D01*
X141392857Y-113154761D01*
X141440476Y-113202380D01*
X141511904Y-113226190D01*
X141559523Y-113226190D01*
X141630952Y-113202380D01*
X141654761Y-113178571D01*
X141654761Y-113011904D01*
X141559523Y-113011904D01*
%TO.C,P7*%
X134550952Y-91816190D02*
X134550952Y-91316190D01*
X134741428Y-91316190D01*
X134789047Y-91340000D01*
X134812857Y-91363809D01*
X134836666Y-91411428D01*
X134836666Y-91482857D01*
X134812857Y-91530476D01*
X134789047Y-91554285D01*
X134741428Y-91578095D01*
X134550952Y-91578095D01*
X135003333Y-91316190D02*
X135336666Y-91316190D01*
X135122380Y-91816190D01*
%TO.C,P6*%
X144710952Y-91816190D02*
X144710952Y-91316190D01*
X144901428Y-91316190D01*
X144949047Y-91340000D01*
X144972857Y-91363809D01*
X144996666Y-91411428D01*
X144996666Y-91482857D01*
X144972857Y-91530476D01*
X144949047Y-91554285D01*
X144901428Y-91578095D01*
X144710952Y-91578095D01*
X145425238Y-91316190D02*
X145330000Y-91316190D01*
X145282380Y-91340000D01*
X145258571Y-91363809D01*
X145210952Y-91435238D01*
X145187142Y-91530476D01*
X145187142Y-91720952D01*
X145210952Y-91768571D01*
X145234761Y-91792380D01*
X145282380Y-91816190D01*
X145377619Y-91816190D01*
X145425238Y-91792380D01*
X145449047Y-91768571D01*
X145472857Y-91720952D01*
X145472857Y-91601904D01*
X145449047Y-91554285D01*
X145425238Y-91530476D01*
X145377619Y-91506666D01*
X145282380Y-91506666D01*
X145234761Y-91530476D01*
X145210952Y-91554285D01*
X145187142Y-91601904D01*
%TO.C,P5*%
X154870952Y-91816190D02*
X154870952Y-91316190D01*
X155061428Y-91316190D01*
X155109047Y-91340000D01*
X155132857Y-91363809D01*
X155156666Y-91411428D01*
X155156666Y-91482857D01*
X155132857Y-91530476D01*
X155109047Y-91554285D01*
X155061428Y-91578095D01*
X154870952Y-91578095D01*
X155609047Y-91316190D02*
X155370952Y-91316190D01*
X155347142Y-91554285D01*
X155370952Y-91530476D01*
X155418571Y-91506666D01*
X155537619Y-91506666D01*
X155585238Y-91530476D01*
X155609047Y-91554285D01*
X155632857Y-91601904D01*
X155632857Y-91720952D01*
X155609047Y-91768571D01*
X155585238Y-91792380D01*
X155537619Y-91816190D01*
X155418571Y-91816190D01*
X155370952Y-91792380D01*
X155347142Y-91768571D01*
%TO.C,P4*%
X154870952Y-108636190D02*
X154870952Y-108136190D01*
X155061428Y-108136190D01*
X155109047Y-108160000D01*
X155132857Y-108183809D01*
X155156666Y-108231428D01*
X155156666Y-108302857D01*
X155132857Y-108350476D01*
X155109047Y-108374285D01*
X155061428Y-108398095D01*
X154870952Y-108398095D01*
X155585238Y-108302857D02*
X155585238Y-108636190D01*
X155466190Y-108112380D02*
X155347142Y-108469523D01*
X155656666Y-108469523D01*
%TO.C,P3*%
X144710952Y-108636190D02*
X144710952Y-108136190D01*
X144901428Y-108136190D01*
X144949047Y-108160000D01*
X144972857Y-108183809D01*
X144996666Y-108231428D01*
X144996666Y-108302857D01*
X144972857Y-108350476D01*
X144949047Y-108374285D01*
X144901428Y-108398095D01*
X144710952Y-108398095D01*
X145163333Y-108136190D02*
X145472857Y-108136190D01*
X145306190Y-108326666D01*
X145377619Y-108326666D01*
X145425238Y-108350476D01*
X145449047Y-108374285D01*
X145472857Y-108421904D01*
X145472857Y-108540952D01*
X145449047Y-108588571D01*
X145425238Y-108612380D01*
X145377619Y-108636190D01*
X145234761Y-108636190D01*
X145187142Y-108612380D01*
X145163333Y-108588571D01*
%TO.C,P2*%
X134550952Y-108636190D02*
X134550952Y-108136190D01*
X134741428Y-108136190D01*
X134789047Y-108160000D01*
X134812857Y-108183809D01*
X134836666Y-108231428D01*
X134836666Y-108302857D01*
X134812857Y-108350476D01*
X134789047Y-108374285D01*
X134741428Y-108398095D01*
X134550952Y-108398095D01*
X135027142Y-108183809D02*
X135050952Y-108160000D01*
X135098571Y-108136190D01*
X135217619Y-108136190D01*
X135265238Y-108160000D01*
X135289047Y-108183809D01*
X135312857Y-108231428D01*
X135312857Y-108279047D01*
X135289047Y-108350476D01*
X135003333Y-108636190D01*
X135312857Y-108636190D01*
%TO.C,P1*%
X124390952Y-108636190D02*
X124390952Y-108136190D01*
X124581428Y-108136190D01*
X124629047Y-108160000D01*
X124652857Y-108183809D01*
X124676666Y-108231428D01*
X124676666Y-108302857D01*
X124652857Y-108350476D01*
X124629047Y-108374285D01*
X124581428Y-108398095D01*
X124390952Y-108398095D01*
X125152857Y-108636190D02*
X124867142Y-108636190D01*
X125010000Y-108636190D02*
X125010000Y-108136190D01*
X124962380Y-108207619D01*
X124914761Y-108255238D01*
X124867142Y-108279047D01*
%TO.C,C13*%
X146028571Y-100178571D02*
X146004761Y-100202380D01*
X145933333Y-100226190D01*
X145885714Y-100226190D01*
X145814285Y-100202380D01*
X145766666Y-100154761D01*
X145742857Y-100107142D01*
X145719047Y-100011904D01*
X145719047Y-99940476D01*
X145742857Y-99845238D01*
X145766666Y-99797619D01*
X145814285Y-99750000D01*
X145885714Y-99726190D01*
X145933333Y-99726190D01*
X146004761Y-99750000D01*
X146028571Y-99773809D01*
X146504761Y-100226190D02*
X146219047Y-100226190D01*
X146361904Y-100226190D02*
X146361904Y-99726190D01*
X146314285Y-99797619D01*
X146266666Y-99845238D01*
X146219047Y-99869047D01*
X146671428Y-99726190D02*
X146980952Y-99726190D01*
X146814285Y-99916666D01*
X146885714Y-99916666D01*
X146933333Y-99940476D01*
X146957142Y-99964285D01*
X146980952Y-100011904D01*
X146980952Y-100130952D01*
X146957142Y-100178571D01*
X146933333Y-100202380D01*
X146885714Y-100226190D01*
X146742857Y-100226190D01*
X146695238Y-100202380D01*
X146671428Y-100178571D01*
X146576190Y-96471714D02*
X146576190Y-96757428D01*
X146576190Y-96614571D02*
X146076190Y-96614571D01*
X146147619Y-96662190D01*
X146195238Y-96709809D01*
X146219047Y-96757428D01*
X146076190Y-96162190D02*
X146076190Y-96114571D01*
X146100000Y-96066952D01*
X146123809Y-96043142D01*
X146171428Y-96019333D01*
X146266666Y-95995523D01*
X146385714Y-95995523D01*
X146480952Y-96019333D01*
X146528571Y-96043142D01*
X146552380Y-96066952D01*
X146576190Y-96114571D01*
X146576190Y-96162190D01*
X146552380Y-96209809D01*
X146528571Y-96233619D01*
X146480952Y-96257428D01*
X146385714Y-96281238D01*
X146266666Y-96281238D01*
X146171428Y-96257428D01*
X146123809Y-96233619D01*
X146100000Y-96209809D01*
X146076190Y-96162190D01*
X146242857Y-95566952D02*
X146576190Y-95566952D01*
X146242857Y-95781238D02*
X146504761Y-95781238D01*
X146552380Y-95757428D01*
X146576190Y-95709809D01*
X146576190Y-95638380D01*
X146552380Y-95590761D01*
X146528571Y-95566952D01*
X146314285Y-95162190D02*
X146314285Y-95328857D01*
X146576190Y-95328857D02*
X146076190Y-95328857D01*
X146076190Y-95090761D01*
%TO.C,C4*%
X121509571Y-96908333D02*
X121533380Y-96932142D01*
X121557190Y-97003571D01*
X121557190Y-97051190D01*
X121533380Y-97122619D01*
X121485761Y-97170238D01*
X121438142Y-97194047D01*
X121342904Y-97217857D01*
X121271476Y-97217857D01*
X121176238Y-97194047D01*
X121128619Y-97170238D01*
X121081000Y-97122619D01*
X121057190Y-97051190D01*
X121057190Y-97003571D01*
X121081000Y-96932142D01*
X121104809Y-96908333D01*
X121223857Y-96479761D02*
X121557190Y-96479761D01*
X121033380Y-96598809D02*
X121390523Y-96717857D01*
X121390523Y-96408333D01*
X122446190Y-95455714D02*
X122446190Y-95741428D01*
X122446190Y-95598571D02*
X121946190Y-95598571D01*
X122017619Y-95646190D01*
X122065238Y-95693809D01*
X122089047Y-95741428D01*
X121946190Y-95146190D02*
X121946190Y-95098571D01*
X121970000Y-95050952D01*
X121993809Y-95027142D01*
X122041428Y-95003333D01*
X122136666Y-94979523D01*
X122255714Y-94979523D01*
X122350952Y-95003333D01*
X122398571Y-95027142D01*
X122422380Y-95050952D01*
X122446190Y-95098571D01*
X122446190Y-95146190D01*
X122422380Y-95193809D01*
X122398571Y-95217619D01*
X122350952Y-95241428D01*
X122255714Y-95265238D01*
X122136666Y-95265238D01*
X122041428Y-95241428D01*
X121993809Y-95217619D01*
X121970000Y-95193809D01*
X121946190Y-95146190D01*
X122112857Y-94550952D02*
X122446190Y-94550952D01*
X122112857Y-94765238D02*
X122374761Y-94765238D01*
X122422380Y-94741428D01*
X122446190Y-94693809D01*
X122446190Y-94622380D01*
X122422380Y-94574761D01*
X122398571Y-94550952D01*
X122184285Y-94146190D02*
X122184285Y-94312857D01*
X122446190Y-94312857D02*
X121946190Y-94312857D01*
X121946190Y-94074761D01*
%TO.C,J1*%
X128833333Y-86726190D02*
X128833333Y-87083333D01*
X128809523Y-87154761D01*
X128761904Y-87202380D01*
X128690476Y-87226190D01*
X128642857Y-87226190D01*
X129333333Y-87226190D02*
X129047619Y-87226190D01*
X129190476Y-87226190D02*
X129190476Y-86726190D01*
X129142857Y-86797619D01*
X129095238Y-86845238D01*
X129047619Y-86869047D01*
%TO.C,J5*%
X138083333Y-86726190D02*
X138083333Y-87083333D01*
X138059523Y-87154761D01*
X138011904Y-87202380D01*
X137940476Y-87226190D01*
X137892857Y-87226190D01*
X138559523Y-86726190D02*
X138321428Y-86726190D01*
X138297619Y-86964285D01*
X138321428Y-86940476D01*
X138369047Y-86916666D01*
X138488095Y-86916666D01*
X138535714Y-86940476D01*
X138559523Y-86964285D01*
X138583333Y-87011904D01*
X138583333Y-87130952D01*
X138559523Y-87178571D01*
X138535714Y-87202380D01*
X138488095Y-87226190D01*
X138369047Y-87226190D01*
X138321428Y-87202380D01*
X138297619Y-87178571D01*
%TO.C,R1*%
X120160190Y-96908333D02*
X119922095Y-97075000D01*
X120160190Y-97194047D02*
X119660190Y-97194047D01*
X119660190Y-97003571D01*
X119684000Y-96955952D01*
X119707809Y-96932142D01*
X119755428Y-96908333D01*
X119826857Y-96908333D01*
X119874476Y-96932142D01*
X119898285Y-96955952D01*
X119922095Y-97003571D01*
X119922095Y-97194047D01*
X120160190Y-96432142D02*
X120160190Y-96717857D01*
X120160190Y-96575000D02*
X119660190Y-96575000D01*
X119731619Y-96622619D01*
X119779238Y-96670238D01*
X119803047Y-96717857D01*
X117882190Y-97265476D02*
X117882190Y-97503571D01*
X118120285Y-97527380D01*
X118096476Y-97503571D01*
X118072666Y-97455952D01*
X118072666Y-97336904D01*
X118096476Y-97289285D01*
X118120285Y-97265476D01*
X118167904Y-97241666D01*
X118286952Y-97241666D01*
X118334571Y-97265476D01*
X118358380Y-97289285D01*
X118382190Y-97336904D01*
X118382190Y-97455952D01*
X118358380Y-97503571D01*
X118334571Y-97527380D01*
X118334571Y-97027380D02*
X118358380Y-97003571D01*
X118382190Y-97027380D01*
X118358380Y-97051190D01*
X118334571Y-97027380D01*
X118382190Y-97027380D01*
X118382190Y-96527380D02*
X118382190Y-96813095D01*
X118382190Y-96670238D02*
X117882190Y-96670238D01*
X117953619Y-96717857D01*
X118001238Y-96765476D01*
X118025047Y-96813095D01*
X118382190Y-96313095D02*
X117882190Y-96313095D01*
X118191714Y-96265476D02*
X118382190Y-96122619D01*
X118048857Y-96122619D02*
X118239333Y-96313095D01*
%TO.C,C14*%
X162538571Y-101067571D02*
X162514761Y-101091380D01*
X162443333Y-101115190D01*
X162395714Y-101115190D01*
X162324285Y-101091380D01*
X162276666Y-101043761D01*
X162252857Y-100996142D01*
X162229047Y-100900904D01*
X162229047Y-100829476D01*
X162252857Y-100734238D01*
X162276666Y-100686619D01*
X162324285Y-100639000D01*
X162395714Y-100615190D01*
X162443333Y-100615190D01*
X162514761Y-100639000D01*
X162538571Y-100662809D01*
X163014761Y-101115190D02*
X162729047Y-101115190D01*
X162871904Y-101115190D02*
X162871904Y-100615190D01*
X162824285Y-100686619D01*
X162776666Y-100734238D01*
X162729047Y-100758047D01*
X163443333Y-100781857D02*
X163443333Y-101115190D01*
X163324285Y-100591380D02*
X163205238Y-100948523D01*
X163514761Y-100948523D01*
X162324285Y-103147190D02*
X162038571Y-103147190D01*
X162181428Y-103147190D02*
X162181428Y-102647190D01*
X162133809Y-102718619D01*
X162086190Y-102766238D01*
X162038571Y-102790047D01*
X162633809Y-102647190D02*
X162681428Y-102647190D01*
X162729047Y-102671000D01*
X162752857Y-102694809D01*
X162776666Y-102742428D01*
X162800476Y-102837666D01*
X162800476Y-102956714D01*
X162776666Y-103051952D01*
X162752857Y-103099571D01*
X162729047Y-103123380D01*
X162681428Y-103147190D01*
X162633809Y-103147190D01*
X162586190Y-103123380D01*
X162562380Y-103099571D01*
X162538571Y-103051952D01*
X162514761Y-102956714D01*
X162514761Y-102837666D01*
X162538571Y-102742428D01*
X162562380Y-102694809D01*
X162586190Y-102671000D01*
X162633809Y-102647190D01*
X163229047Y-102813857D02*
X163229047Y-103147190D01*
X163014761Y-102813857D02*
X163014761Y-103075761D01*
X163038571Y-103123380D01*
X163086190Y-103147190D01*
X163157619Y-103147190D01*
X163205238Y-103123380D01*
X163229047Y-103099571D01*
X163633809Y-102885285D02*
X163467142Y-102885285D01*
X163467142Y-103147190D02*
X163467142Y-102647190D01*
X163705238Y-102647190D01*
%TO.C,J2*%
X133583333Y-112726190D02*
X133583333Y-113083333D01*
X133559523Y-113154761D01*
X133511904Y-113202380D01*
X133440476Y-113226190D01*
X133392857Y-113226190D01*
X133797619Y-112773809D02*
X133821428Y-112750000D01*
X133869047Y-112726190D01*
X133988095Y-112726190D01*
X134035714Y-112750000D01*
X134059523Y-112773809D01*
X134083333Y-112821428D01*
X134083333Y-112869047D01*
X134059523Y-112940476D01*
X133773809Y-113226190D01*
X134083333Y-113226190D01*
%TO.C,U4*%
X153442190Y-98475952D02*
X153846952Y-98475952D01*
X153894571Y-98452142D01*
X153918380Y-98428333D01*
X153942190Y-98380714D01*
X153942190Y-98285476D01*
X153918380Y-98237857D01*
X153894571Y-98214047D01*
X153846952Y-98190238D01*
X153442190Y-98190238D01*
X153608857Y-97737857D02*
X153942190Y-97737857D01*
X153418380Y-97856904D02*
X153775523Y-97975952D01*
X153775523Y-97666428D01*
%TO.C,C1*%
X120866666Y-102464571D02*
X120842857Y-102488380D01*
X120771428Y-102512190D01*
X120723809Y-102512190D01*
X120652380Y-102488380D01*
X120604761Y-102440761D01*
X120580952Y-102393142D01*
X120557142Y-102297904D01*
X120557142Y-102226476D01*
X120580952Y-102131238D01*
X120604761Y-102083619D01*
X120652380Y-102036000D01*
X120723809Y-102012190D01*
X120771428Y-102012190D01*
X120842857Y-102036000D01*
X120866666Y-102059809D01*
X121342857Y-102512190D02*
X121057142Y-102512190D01*
X121200000Y-102512190D02*
X121200000Y-102012190D01*
X121152380Y-102083619D01*
X121104761Y-102131238D01*
X121057142Y-102155047D01*
X118096571Y-102901190D02*
X118144190Y-102901190D01*
X118191809Y-102925000D01*
X118215619Y-102948809D01*
X118239428Y-102996428D01*
X118263238Y-103091666D01*
X118263238Y-103210714D01*
X118239428Y-103305952D01*
X118215619Y-103353571D01*
X118191809Y-103377380D01*
X118144190Y-103401190D01*
X118096571Y-103401190D01*
X118048952Y-103377380D01*
X118025142Y-103353571D01*
X118001333Y-103305952D01*
X117977523Y-103210714D01*
X117977523Y-103091666D01*
X118001333Y-102996428D01*
X118025142Y-102948809D01*
X118048952Y-102925000D01*
X118096571Y-102901190D01*
X118477523Y-103353571D02*
X118501333Y-103377380D01*
X118477523Y-103401190D01*
X118453714Y-103377380D01*
X118477523Y-103353571D01*
X118477523Y-103401190D01*
X118977523Y-103401190D02*
X118691809Y-103401190D01*
X118834666Y-103401190D02*
X118834666Y-102901190D01*
X118787047Y-102972619D01*
X118739428Y-103020238D01*
X118691809Y-103044047D01*
X119406095Y-103067857D02*
X119406095Y-103401190D01*
X119191809Y-103067857D02*
X119191809Y-103329761D01*
X119215619Y-103377380D01*
X119263238Y-103401190D01*
X119334666Y-103401190D01*
X119382285Y-103377380D01*
X119406095Y-103353571D01*
X119810857Y-103139285D02*
X119644190Y-103139285D01*
X119644190Y-103401190D02*
X119644190Y-102901190D01*
X119882285Y-102901190D01*
%TO.C,C15*%
X157331571Y-100178571D02*
X157307761Y-100202380D01*
X157236333Y-100226190D01*
X157188714Y-100226190D01*
X157117285Y-100202380D01*
X157069666Y-100154761D01*
X157045857Y-100107142D01*
X157022047Y-100011904D01*
X157022047Y-99940476D01*
X157045857Y-99845238D01*
X157069666Y-99797619D01*
X157117285Y-99750000D01*
X157188714Y-99726190D01*
X157236333Y-99726190D01*
X157307761Y-99750000D01*
X157331571Y-99773809D01*
X157807761Y-100226190D02*
X157522047Y-100226190D01*
X157664904Y-100226190D02*
X157664904Y-99726190D01*
X157617285Y-99797619D01*
X157569666Y-99845238D01*
X157522047Y-99869047D01*
X158260142Y-99726190D02*
X158022047Y-99726190D01*
X157998238Y-99964285D01*
X158022047Y-99940476D01*
X158069666Y-99916666D01*
X158188714Y-99916666D01*
X158236333Y-99940476D01*
X158260142Y-99964285D01*
X158283952Y-100011904D01*
X158283952Y-100130952D01*
X158260142Y-100178571D01*
X158236333Y-100202380D01*
X158188714Y-100226190D01*
X158069666Y-100226190D01*
X158022047Y-100202380D01*
X157998238Y-100178571D01*
X161308285Y-100226190D02*
X161022571Y-100226190D01*
X161165428Y-100226190D02*
X161165428Y-99726190D01*
X161117809Y-99797619D01*
X161070190Y-99845238D01*
X161022571Y-99869047D01*
X161617809Y-99726190D02*
X161665428Y-99726190D01*
X161713047Y-99750000D01*
X161736857Y-99773809D01*
X161760666Y-99821428D01*
X161784476Y-99916666D01*
X161784476Y-100035714D01*
X161760666Y-100130952D01*
X161736857Y-100178571D01*
X161713047Y-100202380D01*
X161665428Y-100226190D01*
X161617809Y-100226190D01*
X161570190Y-100202380D01*
X161546380Y-100178571D01*
X161522571Y-100130952D01*
X161498761Y-100035714D01*
X161498761Y-99916666D01*
X161522571Y-99821428D01*
X161546380Y-99773809D01*
X161570190Y-99750000D01*
X161617809Y-99726190D01*
X162213047Y-99892857D02*
X162213047Y-100226190D01*
X161998761Y-99892857D02*
X161998761Y-100154761D01*
X162022571Y-100202380D01*
X162070190Y-100226190D01*
X162141619Y-100226190D01*
X162189238Y-100202380D01*
X162213047Y-100178571D01*
X162617809Y-99964285D02*
X162451142Y-99964285D01*
X162451142Y-100226190D02*
X162451142Y-99726190D01*
X162689238Y-99726190D01*
%TO.C,C2*%
X124557571Y-96400333D02*
X124581380Y-96424142D01*
X124605190Y-96495571D01*
X124605190Y-96543190D01*
X124581380Y-96614619D01*
X124533761Y-96662238D01*
X124486142Y-96686047D01*
X124390904Y-96709857D01*
X124319476Y-96709857D01*
X124224238Y-96686047D01*
X124176619Y-96662238D01*
X124129000Y-96614619D01*
X124105190Y-96543190D01*
X124105190Y-96495571D01*
X124129000Y-96424142D01*
X124152809Y-96400333D01*
X124152809Y-96209857D02*
X124129000Y-96186047D01*
X124105190Y-96138428D01*
X124105190Y-96019380D01*
X124129000Y-95971761D01*
X124152809Y-95947952D01*
X124200428Y-95924142D01*
X124248047Y-95924142D01*
X124319476Y-95947952D01*
X124605190Y-96233666D01*
X124605190Y-95924142D01*
X123216190Y-95614428D02*
X123216190Y-95566809D01*
X123240000Y-95519190D01*
X123263809Y-95495380D01*
X123311428Y-95471571D01*
X123406666Y-95447761D01*
X123525714Y-95447761D01*
X123620952Y-95471571D01*
X123668571Y-95495380D01*
X123692380Y-95519190D01*
X123716190Y-95566809D01*
X123716190Y-95614428D01*
X123692380Y-95662047D01*
X123668571Y-95685857D01*
X123620952Y-95709666D01*
X123525714Y-95733476D01*
X123406666Y-95733476D01*
X123311428Y-95709666D01*
X123263809Y-95685857D01*
X123240000Y-95662047D01*
X123216190Y-95614428D01*
X123668571Y-95233476D02*
X123692380Y-95209666D01*
X123716190Y-95233476D01*
X123692380Y-95257285D01*
X123668571Y-95233476D01*
X123716190Y-95233476D01*
X123716190Y-94733476D02*
X123716190Y-95019190D01*
X123716190Y-94876333D02*
X123216190Y-94876333D01*
X123287619Y-94923952D01*
X123335238Y-94971571D01*
X123359047Y-95019190D01*
X123382857Y-94304904D02*
X123716190Y-94304904D01*
X123382857Y-94519190D02*
X123644761Y-94519190D01*
X123692380Y-94495380D01*
X123716190Y-94447761D01*
X123716190Y-94376333D01*
X123692380Y-94328714D01*
X123668571Y-94304904D01*
X123454285Y-93900142D02*
X123454285Y-94066809D01*
X123716190Y-94066809D02*
X123216190Y-94066809D01*
X123216190Y-93828714D01*
%TO.C,C11*%
X149322571Y-95241428D02*
X149346380Y-95265238D01*
X149370190Y-95336666D01*
X149370190Y-95384285D01*
X149346380Y-95455714D01*
X149298761Y-95503333D01*
X149251142Y-95527142D01*
X149155904Y-95550952D01*
X149084476Y-95550952D01*
X148989238Y-95527142D01*
X148941619Y-95503333D01*
X148894000Y-95455714D01*
X148870190Y-95384285D01*
X148870190Y-95336666D01*
X148894000Y-95265238D01*
X148917809Y-95241428D01*
X149370190Y-94765238D02*
X149370190Y-95050952D01*
X149370190Y-94908095D02*
X148870190Y-94908095D01*
X148941619Y-94955714D01*
X148989238Y-95003333D01*
X149013047Y-95050952D01*
X149370190Y-94289047D02*
X149370190Y-94574761D01*
X149370190Y-94431904D02*
X148870190Y-94431904D01*
X148941619Y-94479523D01*
X148989238Y-94527142D01*
X149013047Y-94574761D01*
X149714285Y-93476190D02*
X149428571Y-93476190D01*
X149571428Y-93476190D02*
X149571428Y-92976190D01*
X149523809Y-93047619D01*
X149476190Y-93095238D01*
X149428571Y-93119047D01*
X150023809Y-92976190D02*
X150071428Y-92976190D01*
X150119047Y-93000000D01*
X150142857Y-93023809D01*
X150166666Y-93071428D01*
X150190476Y-93166666D01*
X150190476Y-93285714D01*
X150166666Y-93380952D01*
X150142857Y-93428571D01*
X150119047Y-93452380D01*
X150071428Y-93476190D01*
X150023809Y-93476190D01*
X149976190Y-93452380D01*
X149952380Y-93428571D01*
X149928571Y-93380952D01*
X149904761Y-93285714D01*
X149904761Y-93166666D01*
X149928571Y-93071428D01*
X149952380Y-93023809D01*
X149976190Y-93000000D01*
X150023809Y-92976190D01*
X150619047Y-93142857D02*
X150619047Y-93476190D01*
X150404761Y-93142857D02*
X150404761Y-93404761D01*
X150428571Y-93452380D01*
X150476190Y-93476190D01*
X150547619Y-93476190D01*
X150595238Y-93452380D01*
X150619047Y-93428571D01*
X151023809Y-93214285D02*
X150857142Y-93214285D01*
X150857142Y-93476190D02*
X150857142Y-92976190D01*
X151095238Y-92976190D01*
%TO.C,C5*%
X118339571Y-101283333D02*
X118363380Y-101307142D01*
X118387190Y-101378571D01*
X118387190Y-101426190D01*
X118363380Y-101497619D01*
X118315761Y-101545238D01*
X118268142Y-101569047D01*
X118172904Y-101592857D01*
X118101476Y-101592857D01*
X118006238Y-101569047D01*
X117958619Y-101545238D01*
X117911000Y-101497619D01*
X117887190Y-101426190D01*
X117887190Y-101378571D01*
X117911000Y-101307142D01*
X117934809Y-101283333D01*
X117887190Y-100830952D02*
X117887190Y-101069047D01*
X118125285Y-101092857D01*
X118101476Y-101069047D01*
X118077666Y-101021428D01*
X118077666Y-100902380D01*
X118101476Y-100854761D01*
X118125285Y-100830952D01*
X118172904Y-100807142D01*
X118291952Y-100807142D01*
X118339571Y-100830952D01*
X118363380Y-100854761D01*
X118387190Y-100902380D01*
X118387190Y-101021428D01*
X118363380Y-101069047D01*
X118339571Y-101092857D01*
X119665190Y-102021428D02*
X119665190Y-101973809D01*
X119689000Y-101926190D01*
X119712809Y-101902380D01*
X119760428Y-101878571D01*
X119855666Y-101854761D01*
X119974714Y-101854761D01*
X120069952Y-101878571D01*
X120117571Y-101902380D01*
X120141380Y-101926190D01*
X120165190Y-101973809D01*
X120165190Y-102021428D01*
X120141380Y-102069047D01*
X120117571Y-102092857D01*
X120069952Y-102116666D01*
X119974714Y-102140476D01*
X119855666Y-102140476D01*
X119760428Y-102116666D01*
X119712809Y-102092857D01*
X119689000Y-102069047D01*
X119665190Y-102021428D01*
X120117571Y-101640476D02*
X120141380Y-101616666D01*
X120165190Y-101640476D01*
X120141380Y-101664285D01*
X120117571Y-101640476D01*
X120165190Y-101640476D01*
X120165190Y-101140476D02*
X120165190Y-101426190D01*
X120165190Y-101283333D02*
X119665190Y-101283333D01*
X119736619Y-101330952D01*
X119784238Y-101378571D01*
X119808047Y-101426190D01*
X119831857Y-100711904D02*
X120165190Y-100711904D01*
X119831857Y-100926190D02*
X120093761Y-100926190D01*
X120141380Y-100902380D01*
X120165190Y-100854761D01*
X120165190Y-100783333D01*
X120141380Y-100735714D01*
X120117571Y-100711904D01*
X119903285Y-100307142D02*
X119903285Y-100473809D01*
X120165190Y-100473809D02*
X119665190Y-100473809D01*
X119665190Y-100235714D01*
%TO.C,C7*%
X117953571Y-99448333D02*
X117977380Y-99472142D01*
X118001190Y-99543571D01*
X118001190Y-99591190D01*
X117977380Y-99662619D01*
X117929761Y-99710238D01*
X117882142Y-99734047D01*
X117786904Y-99757857D01*
X117715476Y-99757857D01*
X117620238Y-99734047D01*
X117572619Y-99710238D01*
X117525000Y-99662619D01*
X117501190Y-99591190D01*
X117501190Y-99543571D01*
X117525000Y-99472142D01*
X117548809Y-99448333D01*
X117501190Y-99281666D02*
X117501190Y-98948333D01*
X118001190Y-99162619D01*
X118223571Y-98202190D02*
X118271190Y-98202190D01*
X118318809Y-98226000D01*
X118342619Y-98249809D01*
X118366428Y-98297428D01*
X118390238Y-98392666D01*
X118390238Y-98511714D01*
X118366428Y-98606952D01*
X118342619Y-98654571D01*
X118318809Y-98678380D01*
X118271190Y-98702190D01*
X118223571Y-98702190D01*
X118175952Y-98678380D01*
X118152142Y-98654571D01*
X118128333Y-98606952D01*
X118104523Y-98511714D01*
X118104523Y-98392666D01*
X118128333Y-98297428D01*
X118152142Y-98249809D01*
X118175952Y-98226000D01*
X118223571Y-98202190D01*
X118604523Y-98654571D02*
X118628333Y-98678380D01*
X118604523Y-98702190D01*
X118580714Y-98678380D01*
X118604523Y-98654571D01*
X118604523Y-98702190D01*
X119104523Y-98702190D02*
X118818809Y-98702190D01*
X118961666Y-98702190D02*
X118961666Y-98202190D01*
X118914047Y-98273619D01*
X118866428Y-98321238D01*
X118818809Y-98345047D01*
X119533095Y-98368857D02*
X119533095Y-98702190D01*
X119318809Y-98368857D02*
X119318809Y-98630761D01*
X119342619Y-98678380D01*
X119390238Y-98702190D01*
X119461666Y-98702190D01*
X119509285Y-98678380D01*
X119533095Y-98654571D01*
X119937857Y-98440285D02*
X119771190Y-98440285D01*
X119771190Y-98702190D02*
X119771190Y-98202190D01*
X120009285Y-98202190D01*
%TO.C,C16*%
X157331571Y-98273571D02*
X157307761Y-98297380D01*
X157236333Y-98321190D01*
X157188714Y-98321190D01*
X157117285Y-98297380D01*
X157069666Y-98249761D01*
X157045857Y-98202142D01*
X157022047Y-98106904D01*
X157022047Y-98035476D01*
X157045857Y-97940238D01*
X157069666Y-97892619D01*
X157117285Y-97845000D01*
X157188714Y-97821190D01*
X157236333Y-97821190D01*
X157307761Y-97845000D01*
X157331571Y-97868809D01*
X157807761Y-98321190D02*
X157522047Y-98321190D01*
X157664904Y-98321190D02*
X157664904Y-97821190D01*
X157617285Y-97892619D01*
X157569666Y-97940238D01*
X157522047Y-97964047D01*
X158236333Y-97821190D02*
X158141095Y-97821190D01*
X158093476Y-97845000D01*
X158069666Y-97868809D01*
X158022047Y-97940238D01*
X157998238Y-98035476D01*
X157998238Y-98225952D01*
X158022047Y-98273571D01*
X158045857Y-98297380D01*
X158093476Y-98321190D01*
X158188714Y-98321190D01*
X158236333Y-98297380D01*
X158260142Y-98273571D01*
X158283952Y-98225952D01*
X158283952Y-98106904D01*
X158260142Y-98059285D01*
X158236333Y-98035476D01*
X158188714Y-98011666D01*
X158093476Y-98011666D01*
X158045857Y-98035476D01*
X158022047Y-98059285D01*
X157998238Y-98106904D01*
X161308285Y-98321190D02*
X161022571Y-98321190D01*
X161165428Y-98321190D02*
X161165428Y-97821190D01*
X161117809Y-97892619D01*
X161070190Y-97940238D01*
X161022571Y-97964047D01*
X161617809Y-97821190D02*
X161665428Y-97821190D01*
X161713047Y-97845000D01*
X161736857Y-97868809D01*
X161760666Y-97916428D01*
X161784476Y-98011666D01*
X161784476Y-98130714D01*
X161760666Y-98225952D01*
X161736857Y-98273571D01*
X161713047Y-98297380D01*
X161665428Y-98321190D01*
X161617809Y-98321190D01*
X161570190Y-98297380D01*
X161546380Y-98273571D01*
X161522571Y-98225952D01*
X161498761Y-98130714D01*
X161498761Y-98011666D01*
X161522571Y-97916428D01*
X161546380Y-97868809D01*
X161570190Y-97845000D01*
X161617809Y-97821190D01*
X162213047Y-97987857D02*
X162213047Y-98321190D01*
X161998761Y-97987857D02*
X161998761Y-98249761D01*
X162022571Y-98297380D01*
X162070190Y-98321190D01*
X162141619Y-98321190D01*
X162189238Y-98297380D01*
X162213047Y-98273571D01*
X162617809Y-98059285D02*
X162451142Y-98059285D01*
X162451142Y-98321190D02*
X162451142Y-97821190D01*
X162689238Y-97821190D01*
%TO.C,J6*%
X153583333Y-112726190D02*
X153583333Y-113083333D01*
X153559523Y-113154761D01*
X153511904Y-113202380D01*
X153440476Y-113226190D01*
X153392857Y-113226190D01*
X154035714Y-112726190D02*
X153940476Y-112726190D01*
X153892857Y-112750000D01*
X153869047Y-112773809D01*
X153821428Y-112845238D01*
X153797619Y-112940476D01*
X153797619Y-113130952D01*
X153821428Y-113178571D01*
X153845238Y-113202380D01*
X153892857Y-113226190D01*
X153988095Y-113226190D01*
X154035714Y-113202380D01*
X154059523Y-113178571D01*
X154083333Y-113130952D01*
X154083333Y-113011904D01*
X154059523Y-112964285D01*
X154035714Y-112940476D01*
X153988095Y-112916666D01*
X153892857Y-112916666D01*
X153845238Y-112940476D01*
X153821428Y-112964285D01*
X153797619Y-113011904D01*
%TO.C,R3*%
X164300666Y-104671190D02*
X164134000Y-104433095D01*
X164014952Y-104671190D02*
X164014952Y-104171190D01*
X164205428Y-104171190D01*
X164253047Y-104195000D01*
X164276857Y-104218809D01*
X164300666Y-104266428D01*
X164300666Y-104337857D01*
X164276857Y-104385476D01*
X164253047Y-104409285D01*
X164205428Y-104433095D01*
X164014952Y-104433095D01*
X164467333Y-104171190D02*
X164776857Y-104171190D01*
X164610190Y-104361666D01*
X164681619Y-104361666D01*
X164729238Y-104385476D01*
X164753047Y-104409285D01*
X164776857Y-104456904D01*
X164776857Y-104575952D01*
X164753047Y-104623571D01*
X164729238Y-104647380D01*
X164681619Y-104671190D01*
X164538761Y-104671190D01*
X164491142Y-104647380D01*
X164467333Y-104623571D01*
X162419523Y-105060190D02*
X162181428Y-105060190D01*
X162157619Y-105298285D01*
X162181428Y-105274476D01*
X162229047Y-105250666D01*
X162348095Y-105250666D01*
X162395714Y-105274476D01*
X162419523Y-105298285D01*
X162443333Y-105345904D01*
X162443333Y-105464952D01*
X162419523Y-105512571D01*
X162395714Y-105536380D01*
X162348095Y-105560190D01*
X162229047Y-105560190D01*
X162181428Y-105536380D01*
X162157619Y-105512571D01*
X162657619Y-105512571D02*
X162681428Y-105536380D01*
X162657619Y-105560190D01*
X162633809Y-105536380D01*
X162657619Y-105512571D01*
X162657619Y-105560190D01*
X163157619Y-105560190D02*
X162871904Y-105560190D01*
X163014761Y-105560190D02*
X163014761Y-105060190D01*
X162967142Y-105131619D01*
X162919523Y-105179238D01*
X162871904Y-105203047D01*
X163371904Y-105560190D02*
X163371904Y-105060190D01*
X163419523Y-105369714D02*
X163562380Y-105560190D01*
X163562380Y-105226857D02*
X163371904Y-105417333D01*
%TO.C,U5*%
X159304047Y-105187190D02*
X159304047Y-105591952D01*
X159327857Y-105639571D01*
X159351666Y-105663380D01*
X159399285Y-105687190D01*
X159494523Y-105687190D01*
X159542142Y-105663380D01*
X159565952Y-105639571D01*
X159589761Y-105591952D01*
X159589761Y-105187190D01*
X160065952Y-105187190D02*
X159827857Y-105187190D01*
X159804047Y-105425285D01*
X159827857Y-105401476D01*
X159875476Y-105377666D01*
X159994523Y-105377666D01*
X160042142Y-105401476D01*
X160065952Y-105425285D01*
X160089761Y-105472904D01*
X160089761Y-105591952D01*
X160065952Y-105639571D01*
X160042142Y-105663380D01*
X159994523Y-105687190D01*
X159875476Y-105687190D01*
X159827857Y-105663380D01*
X159804047Y-105639571D01*
%TO.C,U3*%
X156637047Y-96424190D02*
X156637047Y-96828952D01*
X156660857Y-96876571D01*
X156684666Y-96900380D01*
X156732285Y-96924190D01*
X156827523Y-96924190D01*
X156875142Y-96900380D01*
X156898952Y-96876571D01*
X156922761Y-96828952D01*
X156922761Y-96424190D01*
X157113238Y-96424190D02*
X157422761Y-96424190D01*
X157256095Y-96614666D01*
X157327523Y-96614666D01*
X157375142Y-96638476D01*
X157398952Y-96662285D01*
X157422761Y-96709904D01*
X157422761Y-96828952D01*
X157398952Y-96876571D01*
X157375142Y-96900380D01*
X157327523Y-96924190D01*
X157184666Y-96924190D01*
X157137047Y-96900380D01*
X157113238Y-96876571D01*
%TO.C,L1*%
X149497190Y-101988333D02*
X149497190Y-102226428D01*
X148997190Y-102226428D01*
X149497190Y-101559761D02*
X149497190Y-101845476D01*
X149497190Y-101702619D02*
X148997190Y-101702619D01*
X149068619Y-101750238D01*
X149116238Y-101797857D01*
X149140047Y-101845476D01*
X150441904Y-103837809D02*
X150465714Y-103814000D01*
X150513333Y-103790190D01*
X150632380Y-103790190D01*
X150680000Y-103814000D01*
X150703809Y-103837809D01*
X150727619Y-103885428D01*
X150727619Y-103933047D01*
X150703809Y-104004476D01*
X150418095Y-104290190D01*
X150727619Y-104290190D01*
X150941904Y-104242571D02*
X150965714Y-104266380D01*
X150941904Y-104290190D01*
X150918095Y-104266380D01*
X150941904Y-104242571D01*
X150941904Y-104290190D01*
X151156190Y-103837809D02*
X151180000Y-103814000D01*
X151227619Y-103790190D01*
X151346666Y-103790190D01*
X151394285Y-103814000D01*
X151418095Y-103837809D01*
X151441904Y-103885428D01*
X151441904Y-103933047D01*
X151418095Y-104004476D01*
X151132380Y-104290190D01*
X151441904Y-104290190D01*
X151870476Y-103956857D02*
X151870476Y-104290190D01*
X151656190Y-103956857D02*
X151656190Y-104218761D01*
X151680000Y-104266380D01*
X151727619Y-104290190D01*
X151799047Y-104290190D01*
X151846666Y-104266380D01*
X151870476Y-104242571D01*
X152108571Y-104290190D02*
X152108571Y-103790190D01*
X152108571Y-104028285D02*
X152394285Y-104028285D01*
X152394285Y-104290190D02*
X152394285Y-103790190D01*
%TO.C,C10*%
X159863571Y-96511428D02*
X159887380Y-96535238D01*
X159911190Y-96606666D01*
X159911190Y-96654285D01*
X159887380Y-96725714D01*
X159839761Y-96773333D01*
X159792142Y-96797142D01*
X159696904Y-96820952D01*
X159625476Y-96820952D01*
X159530238Y-96797142D01*
X159482619Y-96773333D01*
X159435000Y-96725714D01*
X159411190Y-96654285D01*
X159411190Y-96606666D01*
X159435000Y-96535238D01*
X159458809Y-96511428D01*
X159911190Y-96035238D02*
X159911190Y-96320952D01*
X159911190Y-96178095D02*
X159411190Y-96178095D01*
X159482619Y-96225714D01*
X159530238Y-96273333D01*
X159554047Y-96320952D01*
X159411190Y-95725714D02*
X159411190Y-95678095D01*
X159435000Y-95630476D01*
X159458809Y-95606666D01*
X159506428Y-95582857D01*
X159601666Y-95559047D01*
X159720714Y-95559047D01*
X159815952Y-95582857D01*
X159863571Y-95606666D01*
X159887380Y-95630476D01*
X159911190Y-95678095D01*
X159911190Y-95725714D01*
X159887380Y-95773333D01*
X159863571Y-95797142D01*
X159815952Y-95820952D01*
X159720714Y-95844761D01*
X159601666Y-95844761D01*
X159506428Y-95820952D01*
X159458809Y-95797142D01*
X159435000Y-95773333D01*
X159411190Y-95725714D01*
X159411190Y-93074428D02*
X159411190Y-93026809D01*
X159435000Y-92979190D01*
X159458809Y-92955380D01*
X159506428Y-92931571D01*
X159601666Y-92907761D01*
X159720714Y-92907761D01*
X159815952Y-92931571D01*
X159863571Y-92955380D01*
X159887380Y-92979190D01*
X159911190Y-93026809D01*
X159911190Y-93074428D01*
X159887380Y-93122047D01*
X159863571Y-93145857D01*
X159815952Y-93169666D01*
X159720714Y-93193476D01*
X159601666Y-93193476D01*
X159506428Y-93169666D01*
X159458809Y-93145857D01*
X159435000Y-93122047D01*
X159411190Y-93074428D01*
X159863571Y-92693476D02*
X159887380Y-92669666D01*
X159911190Y-92693476D01*
X159887380Y-92717285D01*
X159863571Y-92693476D01*
X159911190Y-92693476D01*
X159911190Y-92193476D02*
X159911190Y-92479190D01*
X159911190Y-92336333D02*
X159411190Y-92336333D01*
X159482619Y-92383952D01*
X159530238Y-92431571D01*
X159554047Y-92479190D01*
X159577857Y-91764904D02*
X159911190Y-91764904D01*
X159577857Y-91979190D02*
X159839761Y-91979190D01*
X159887380Y-91955380D01*
X159911190Y-91907761D01*
X159911190Y-91836333D01*
X159887380Y-91788714D01*
X159863571Y-91764904D01*
X159649285Y-91360142D02*
X159649285Y-91526809D01*
X159911190Y-91526809D02*
X159411190Y-91526809D01*
X159411190Y-91288714D01*
%TO.C,C12*%
X147933571Y-100178571D02*
X147909761Y-100202380D01*
X147838333Y-100226190D01*
X147790714Y-100226190D01*
X147719285Y-100202380D01*
X147671666Y-100154761D01*
X147647857Y-100107142D01*
X147624047Y-100011904D01*
X147624047Y-99940476D01*
X147647857Y-99845238D01*
X147671666Y-99797619D01*
X147719285Y-99750000D01*
X147790714Y-99726190D01*
X147838333Y-99726190D01*
X147909761Y-99750000D01*
X147933571Y-99773809D01*
X148409761Y-100226190D02*
X148124047Y-100226190D01*
X148266904Y-100226190D02*
X148266904Y-99726190D01*
X148219285Y-99797619D01*
X148171666Y-99845238D01*
X148124047Y-99869047D01*
X148600238Y-99773809D02*
X148624047Y-99750000D01*
X148671666Y-99726190D01*
X148790714Y-99726190D01*
X148838333Y-99750000D01*
X148862142Y-99773809D01*
X148885952Y-99821428D01*
X148885952Y-99869047D01*
X148862142Y-99940476D01*
X148576428Y-100226190D01*
X148885952Y-100226190D01*
X148481190Y-96471714D02*
X148481190Y-96757428D01*
X148481190Y-96614571D02*
X147981190Y-96614571D01*
X148052619Y-96662190D01*
X148100238Y-96709809D01*
X148124047Y-96757428D01*
X147981190Y-96162190D02*
X147981190Y-96114571D01*
X148005000Y-96066952D01*
X148028809Y-96043142D01*
X148076428Y-96019333D01*
X148171666Y-95995523D01*
X148290714Y-95995523D01*
X148385952Y-96019333D01*
X148433571Y-96043142D01*
X148457380Y-96066952D01*
X148481190Y-96114571D01*
X148481190Y-96162190D01*
X148457380Y-96209809D01*
X148433571Y-96233619D01*
X148385952Y-96257428D01*
X148290714Y-96281238D01*
X148171666Y-96281238D01*
X148076428Y-96257428D01*
X148028809Y-96233619D01*
X148005000Y-96209809D01*
X147981190Y-96162190D01*
X148147857Y-95566952D02*
X148481190Y-95566952D01*
X148147857Y-95781238D02*
X148409761Y-95781238D01*
X148457380Y-95757428D01*
X148481190Y-95709809D01*
X148481190Y-95638380D01*
X148457380Y-95590761D01*
X148433571Y-95566952D01*
X148219285Y-95162190D02*
X148219285Y-95328857D01*
X148481190Y-95328857D02*
X147981190Y-95328857D01*
X147981190Y-95090761D01*
%TO.C,C9*%
X155164571Y-94368333D02*
X155188380Y-94392142D01*
X155212190Y-94463571D01*
X155212190Y-94511190D01*
X155188380Y-94582619D01*
X155140761Y-94630238D01*
X155093142Y-94654047D01*
X154997904Y-94677857D01*
X154926476Y-94677857D01*
X154831238Y-94654047D01*
X154783619Y-94630238D01*
X154736000Y-94582619D01*
X154712190Y-94511190D01*
X154712190Y-94463571D01*
X154736000Y-94392142D01*
X154759809Y-94368333D01*
X155212190Y-94130238D02*
X155212190Y-94035000D01*
X155188380Y-93987380D01*
X155164571Y-93963571D01*
X155093142Y-93915952D01*
X154997904Y-93892142D01*
X154807428Y-93892142D01*
X154759809Y-93915952D01*
X154736000Y-93939761D01*
X154712190Y-93987380D01*
X154712190Y-94082619D01*
X154736000Y-94130238D01*
X154759809Y-94154047D01*
X154807428Y-94177857D01*
X154926476Y-94177857D01*
X154974095Y-94154047D01*
X154997904Y-94130238D01*
X155021714Y-94082619D01*
X155021714Y-93987380D01*
X154997904Y-93939761D01*
X154974095Y-93915952D01*
X154926476Y-93892142D01*
X155601190Y-97138428D02*
X155601190Y-97090809D01*
X155625000Y-97043190D01*
X155648809Y-97019380D01*
X155696428Y-96995571D01*
X155791666Y-96971761D01*
X155910714Y-96971761D01*
X156005952Y-96995571D01*
X156053571Y-97019380D01*
X156077380Y-97043190D01*
X156101190Y-97090809D01*
X156101190Y-97138428D01*
X156077380Y-97186047D01*
X156053571Y-97209857D01*
X156005952Y-97233666D01*
X155910714Y-97257476D01*
X155791666Y-97257476D01*
X155696428Y-97233666D01*
X155648809Y-97209857D01*
X155625000Y-97186047D01*
X155601190Y-97138428D01*
X156053571Y-96757476D02*
X156077380Y-96733666D01*
X156101190Y-96757476D01*
X156077380Y-96781285D01*
X156053571Y-96757476D01*
X156101190Y-96757476D01*
X156101190Y-96257476D02*
X156101190Y-96543190D01*
X156101190Y-96400333D02*
X155601190Y-96400333D01*
X155672619Y-96447952D01*
X155720238Y-96495571D01*
X155744047Y-96543190D01*
X155767857Y-95828904D02*
X156101190Y-95828904D01*
X155767857Y-96043190D02*
X156029761Y-96043190D01*
X156077380Y-96019380D01*
X156101190Y-95971761D01*
X156101190Y-95900333D01*
X156077380Y-95852714D01*
X156053571Y-95828904D01*
X155839285Y-95424142D02*
X155839285Y-95590809D01*
X156101190Y-95590809D02*
X155601190Y-95590809D01*
X155601190Y-95352714D01*
%TO.C,C8*%
X135471666Y-102845571D02*
X135447857Y-102869380D01*
X135376428Y-102893190D01*
X135328809Y-102893190D01*
X135257380Y-102869380D01*
X135209761Y-102821761D01*
X135185952Y-102774142D01*
X135162142Y-102678904D01*
X135162142Y-102607476D01*
X135185952Y-102512238D01*
X135209761Y-102464619D01*
X135257380Y-102417000D01*
X135328809Y-102393190D01*
X135376428Y-102393190D01*
X135447857Y-102417000D01*
X135471666Y-102440809D01*
X135757380Y-102607476D02*
X135709761Y-102583666D01*
X135685952Y-102559857D01*
X135662142Y-102512238D01*
X135662142Y-102488428D01*
X135685952Y-102440809D01*
X135709761Y-102417000D01*
X135757380Y-102393190D01*
X135852619Y-102393190D01*
X135900238Y-102417000D01*
X135924047Y-102440809D01*
X135947857Y-102488428D01*
X135947857Y-102512238D01*
X135924047Y-102559857D01*
X135900238Y-102583666D01*
X135852619Y-102607476D01*
X135757380Y-102607476D01*
X135709761Y-102631285D01*
X135685952Y-102655095D01*
X135662142Y-102702714D01*
X135662142Y-102797952D01*
X135685952Y-102845571D01*
X135709761Y-102869380D01*
X135757380Y-102893190D01*
X135852619Y-102893190D01*
X135900238Y-102869380D01*
X135924047Y-102845571D01*
X135947857Y-102797952D01*
X135947857Y-102702714D01*
X135924047Y-102655095D01*
X135900238Y-102631285D01*
X135852619Y-102607476D01*
X134392190Y-102091428D02*
X134392190Y-102043809D01*
X134416000Y-101996190D01*
X134439809Y-101972380D01*
X134487428Y-101948571D01*
X134582666Y-101924761D01*
X134701714Y-101924761D01*
X134796952Y-101948571D01*
X134844571Y-101972380D01*
X134868380Y-101996190D01*
X134892190Y-102043809D01*
X134892190Y-102091428D01*
X134868380Y-102139047D01*
X134844571Y-102162857D01*
X134796952Y-102186666D01*
X134701714Y-102210476D01*
X134582666Y-102210476D01*
X134487428Y-102186666D01*
X134439809Y-102162857D01*
X134416000Y-102139047D01*
X134392190Y-102091428D01*
X134844571Y-101710476D02*
X134868380Y-101686666D01*
X134892190Y-101710476D01*
X134868380Y-101734285D01*
X134844571Y-101710476D01*
X134892190Y-101710476D01*
X134892190Y-101210476D02*
X134892190Y-101496190D01*
X134892190Y-101353333D02*
X134392190Y-101353333D01*
X134463619Y-101400952D01*
X134511238Y-101448571D01*
X134535047Y-101496190D01*
X134558857Y-100781904D02*
X134892190Y-100781904D01*
X134558857Y-100996190D02*
X134820761Y-100996190D01*
X134868380Y-100972380D01*
X134892190Y-100924761D01*
X134892190Y-100853333D01*
X134868380Y-100805714D01*
X134844571Y-100781904D01*
X134630285Y-100377142D02*
X134630285Y-100543809D01*
X134892190Y-100543809D02*
X134392190Y-100543809D01*
X134392190Y-100305714D01*
%TO.C,R2*%
X152037190Y-95003333D02*
X151799095Y-95170000D01*
X152037190Y-95289047D02*
X151537190Y-95289047D01*
X151537190Y-95098571D01*
X151561000Y-95050952D01*
X151584809Y-95027142D01*
X151632428Y-95003333D01*
X151703857Y-95003333D01*
X151751476Y-95027142D01*
X151775285Y-95050952D01*
X151799095Y-95098571D01*
X151799095Y-95289047D01*
X151584809Y-94812857D02*
X151561000Y-94789047D01*
X151537190Y-94741428D01*
X151537190Y-94622380D01*
X151561000Y-94574761D01*
X151584809Y-94550952D01*
X151632428Y-94527142D01*
X151680047Y-94527142D01*
X151751476Y-94550952D01*
X152037190Y-94836666D01*
X152037190Y-94527142D01*
X152309523Y-93226190D02*
X152071428Y-93226190D01*
X152047619Y-93464285D01*
X152071428Y-93440476D01*
X152119047Y-93416666D01*
X152238095Y-93416666D01*
X152285714Y-93440476D01*
X152309523Y-93464285D01*
X152333333Y-93511904D01*
X152333333Y-93630952D01*
X152309523Y-93678571D01*
X152285714Y-93702380D01*
X152238095Y-93726190D01*
X152119047Y-93726190D01*
X152071428Y-93702380D01*
X152047619Y-93678571D01*
X152547619Y-93678571D02*
X152571428Y-93702380D01*
X152547619Y-93726190D01*
X152523809Y-93702380D01*
X152547619Y-93678571D01*
X152547619Y-93726190D01*
X153047619Y-93726190D02*
X152761904Y-93726190D01*
X152904761Y-93726190D02*
X152904761Y-93226190D01*
X152857142Y-93297619D01*
X152809523Y-93345238D01*
X152761904Y-93369047D01*
X153261904Y-93726190D02*
X153261904Y-93226190D01*
X153309523Y-93535714D02*
X153452380Y-93726190D01*
X153452380Y-93392857D02*
X153261904Y-93583333D01*
%TO.C,U1*%
X122869047Y-101976190D02*
X122869047Y-102380952D01*
X122892857Y-102428571D01*
X122916666Y-102452380D01*
X122964285Y-102476190D01*
X123059523Y-102476190D01*
X123107142Y-102452380D01*
X123130952Y-102428571D01*
X123154761Y-102380952D01*
X123154761Y-101976190D01*
X123654761Y-102476190D02*
X123369047Y-102476190D01*
X123511904Y-102476190D02*
X123511904Y-101976190D01*
X123464285Y-102047619D01*
X123416666Y-102095238D01*
X123369047Y-102119047D01*
%TO.C,C3*%
X120866666Y-105512571D02*
X120842857Y-105536380D01*
X120771428Y-105560190D01*
X120723809Y-105560190D01*
X120652380Y-105536380D01*
X120604761Y-105488761D01*
X120580952Y-105441142D01*
X120557142Y-105345904D01*
X120557142Y-105274476D01*
X120580952Y-105179238D01*
X120604761Y-105131619D01*
X120652380Y-105084000D01*
X120723809Y-105060190D01*
X120771428Y-105060190D01*
X120842857Y-105084000D01*
X120866666Y-105107809D01*
X121033333Y-105060190D02*
X121342857Y-105060190D01*
X121176190Y-105250666D01*
X121247619Y-105250666D01*
X121295238Y-105274476D01*
X121319047Y-105298285D01*
X121342857Y-105345904D01*
X121342857Y-105464952D01*
X121319047Y-105512571D01*
X121295238Y-105536380D01*
X121247619Y-105560190D01*
X121104761Y-105560190D01*
X121057142Y-105536380D01*
X121033333Y-105512571D01*
X122319285Y-104671190D02*
X122033571Y-104671190D01*
X122176428Y-104671190D02*
X122176428Y-104171190D01*
X122128809Y-104242619D01*
X122081190Y-104290238D01*
X122033571Y-104314047D01*
X122628809Y-104171190D02*
X122676428Y-104171190D01*
X122724047Y-104195000D01*
X122747857Y-104218809D01*
X122771666Y-104266428D01*
X122795476Y-104361666D01*
X122795476Y-104480714D01*
X122771666Y-104575952D01*
X122747857Y-104623571D01*
X122724047Y-104647380D01*
X122676428Y-104671190D01*
X122628809Y-104671190D01*
X122581190Y-104647380D01*
X122557380Y-104623571D01*
X122533571Y-104575952D01*
X122509761Y-104480714D01*
X122509761Y-104361666D01*
X122533571Y-104266428D01*
X122557380Y-104218809D01*
X122581190Y-104195000D01*
X122628809Y-104171190D01*
X123224047Y-104337857D02*
X123224047Y-104671190D01*
X123009761Y-104337857D02*
X123009761Y-104599761D01*
X123033571Y-104647380D01*
X123081190Y-104671190D01*
X123152619Y-104671190D01*
X123200238Y-104647380D01*
X123224047Y-104623571D01*
X123628809Y-104409285D02*
X123462142Y-104409285D01*
X123462142Y-104671190D02*
X123462142Y-104171190D01*
X123700238Y-104171190D01*
%TO.C,J3*%
X144333333Y-112726190D02*
X144333333Y-113083333D01*
X144309523Y-113154761D01*
X144261904Y-113202380D01*
X144190476Y-113226190D01*
X144142857Y-113226190D01*
X144523809Y-112726190D02*
X144833333Y-112726190D01*
X144666666Y-112916666D01*
X144738095Y-112916666D01*
X144785714Y-112940476D01*
X144809523Y-112964285D01*
X144833333Y-113011904D01*
X144833333Y-113130952D01*
X144809523Y-113178571D01*
X144785714Y-113202380D01*
X144738095Y-113226190D01*
X144595238Y-113226190D01*
X144547619Y-113202380D01*
X144523809Y-113178571D01*
%TO.C,J4*%
X148083333Y-86726190D02*
X148083333Y-87083333D01*
X148059523Y-87154761D01*
X148011904Y-87202380D01*
X147940476Y-87226190D01*
X147892857Y-87226190D01*
X148535714Y-86892857D02*
X148535714Y-87226190D01*
X148416666Y-86702380D02*
X148297619Y-87059523D01*
X148607142Y-87059523D01*
%TO.C,L2*%
X155791666Y-101242190D02*
X155553571Y-101242190D01*
X155553571Y-100742190D01*
X155934523Y-100789809D02*
X155958333Y-100766000D01*
X156005952Y-100742190D01*
X156125000Y-100742190D01*
X156172619Y-100766000D01*
X156196428Y-100789809D01*
X156220238Y-100837428D01*
X156220238Y-100885047D01*
X156196428Y-100956476D01*
X155910714Y-101242190D01*
X156220238Y-101242190D01*
X154886904Y-105107809D02*
X154910714Y-105084000D01*
X154958333Y-105060190D01*
X155077380Y-105060190D01*
X155125000Y-105084000D01*
X155148809Y-105107809D01*
X155172619Y-105155428D01*
X155172619Y-105203047D01*
X155148809Y-105274476D01*
X154863095Y-105560190D01*
X155172619Y-105560190D01*
X155386904Y-105512571D02*
X155410714Y-105536380D01*
X155386904Y-105560190D01*
X155363095Y-105536380D01*
X155386904Y-105512571D01*
X155386904Y-105560190D01*
X155601190Y-105107809D02*
X155625000Y-105084000D01*
X155672619Y-105060190D01*
X155791666Y-105060190D01*
X155839285Y-105084000D01*
X155863095Y-105107809D01*
X155886904Y-105155428D01*
X155886904Y-105203047D01*
X155863095Y-105274476D01*
X155577380Y-105560190D01*
X155886904Y-105560190D01*
X156315476Y-105226857D02*
X156315476Y-105560190D01*
X156101190Y-105226857D02*
X156101190Y-105488761D01*
X156125000Y-105536380D01*
X156172619Y-105560190D01*
X156244047Y-105560190D01*
X156291666Y-105536380D01*
X156315476Y-105512571D01*
X156553571Y-105560190D02*
X156553571Y-105060190D01*
X156553571Y-105298285D02*
X156839285Y-105298285D01*
X156839285Y-105560190D02*
X156839285Y-105060190D01*
%TO.C,C6*%
X126567571Y-98583333D02*
X126591380Y-98607142D01*
X126615190Y-98678571D01*
X126615190Y-98726190D01*
X126591380Y-98797619D01*
X126543761Y-98845238D01*
X126496142Y-98869047D01*
X126400904Y-98892857D01*
X126329476Y-98892857D01*
X126234238Y-98869047D01*
X126186619Y-98845238D01*
X126139000Y-98797619D01*
X126115190Y-98726190D01*
X126115190Y-98678571D01*
X126139000Y-98607142D01*
X126162809Y-98583333D01*
X126115190Y-98154761D02*
X126115190Y-98250000D01*
X126139000Y-98297619D01*
X126162809Y-98321428D01*
X126234238Y-98369047D01*
X126329476Y-98392857D01*
X126519952Y-98392857D01*
X126567571Y-98369047D01*
X126591380Y-98345238D01*
X126615190Y-98297619D01*
X126615190Y-98202380D01*
X126591380Y-98154761D01*
X126567571Y-98130952D01*
X126519952Y-98107142D01*
X126400904Y-98107142D01*
X126353285Y-98130952D01*
X126329476Y-98154761D01*
X126305666Y-98202380D01*
X126305666Y-98297619D01*
X126329476Y-98345238D01*
X126353285Y-98369047D01*
X126400904Y-98392857D01*
X124837190Y-98797619D02*
X124837190Y-99083333D01*
X124837190Y-98940476D02*
X124337190Y-98940476D01*
X124408619Y-98988095D01*
X124456238Y-99035714D01*
X124480047Y-99083333D01*
X124503857Y-98369047D02*
X124837190Y-98369047D01*
X124503857Y-98583333D02*
X124765761Y-98583333D01*
X124813380Y-98559523D01*
X124837190Y-98511904D01*
X124837190Y-98440476D01*
X124813380Y-98392857D01*
X124789571Y-98369047D01*
X124575285Y-97964285D02*
X124575285Y-98130952D01*
X124837190Y-98130952D02*
X124337190Y-98130952D01*
X124337190Y-97892857D01*
%TO.C,U2*%
X139619047Y-102774190D02*
X139619047Y-103178952D01*
X139642857Y-103226571D01*
X139666666Y-103250380D01*
X139714285Y-103274190D01*
X139809523Y-103274190D01*
X139857142Y-103250380D01*
X139880952Y-103226571D01*
X139904761Y-103178952D01*
X139904761Y-102774190D01*
X140119047Y-102821809D02*
X140142857Y-102798000D01*
X140190476Y-102774190D01*
X140309523Y-102774190D01*
X140357142Y-102798000D01*
X140380952Y-102821809D01*
X140404761Y-102869428D01*
X140404761Y-102917047D01*
X140380952Y-102988476D01*
X140095238Y-103274190D01*
X140404761Y-103274190D01*
%TO.C,P7*%
X131110000Y-91110000D02*
X138730000Y-91110000D01*
X131110000Y-88570000D02*
X138730000Y-88570000D01*
%TO.C,P6*%
X141270000Y-91110000D02*
X148890000Y-91110000D01*
X141270000Y-88570000D02*
X148890000Y-88570000D01*
%TO.C,P5*%
X151430000Y-91110000D02*
X159050000Y-91110000D01*
X151430000Y-88570000D02*
X159050000Y-88570000D01*
%TO.C,P4*%
X159050000Y-108890000D02*
X151430000Y-108890000D01*
X159050000Y-111430000D02*
X151430000Y-111430000D01*
%TO.C,P3*%
X148890000Y-108890000D02*
X141270000Y-108890000D01*
X148890000Y-111430000D02*
X141270000Y-111430000D01*
%TO.C,P2*%
X138730000Y-108890000D02*
X131110000Y-108890000D01*
X138730000Y-111430000D02*
X131110000Y-111430000D01*
%TO.C,P1*%
X128570000Y-108890000D02*
X120950000Y-108890000D01*
X128570000Y-111430000D02*
X120950000Y-111430000D01*
%TO.C,C13*%
X146900000Y-98545000D02*
X146900000Y-99245000D01*
X146900000Y-96945000D02*
X145800000Y-96945000D01*
X146900000Y-99245000D02*
X145800000Y-99245000D01*
X145800000Y-96945000D02*
X145800000Y-97645000D01*
X146900000Y-97645000D02*
X146900000Y-96945000D01*
X145800000Y-99245000D02*
X145800000Y-98545000D01*
%TO.C,C4*%
X122670000Y-97925000D02*
X121770000Y-97925000D01*
X122670000Y-96625000D02*
X122670000Y-95925000D01*
X121770000Y-97725000D02*
X121770000Y-97025000D01*
X122670000Y-95925000D02*
X121770000Y-95925000D01*
X122670000Y-97725000D02*
X121770000Y-97725000D01*
X122670000Y-97025000D02*
X122670000Y-97725000D01*
X121770000Y-95925000D02*
X121770000Y-96625000D01*
D13*
%TO.C,J1*%
X129000000Y-86000000D02*
X129000000Y-86500000D01*
X129000000Y-86500000D02*
X130750000Y-86500000D01*
X135000000Y-86500000D02*
X135000000Y-86000000D01*
X133250000Y-86500000D02*
X135000000Y-86500000D01*
%TO.C,J5*%
X144000000Y-86500000D02*
X145750000Y-86500000D01*
X138250000Y-86500000D02*
X140000000Y-86500000D01*
X138250000Y-86000000D02*
X138250000Y-86500000D01*
X145750000Y-86000000D02*
X145750000Y-86500000D01*
D11*
%TO.C,R1*%
X119495000Y-95925000D02*
X119495000Y-96625000D01*
X118595000Y-97025000D02*
X118595000Y-97725000D01*
X118595000Y-97725000D02*
X119495000Y-97725000D01*
X118595000Y-95925000D02*
X119495000Y-95925000D01*
X118595000Y-96625000D02*
X118595000Y-95925000D01*
X119495000Y-97725000D02*
X119495000Y-97025000D01*
%TO.C,C14*%
X164010000Y-102455000D02*
X164010000Y-101355000D01*
X162410000Y-102455000D02*
X161710000Y-102455000D01*
X164010000Y-101355000D02*
X163310000Y-101355000D01*
X161710000Y-102455000D02*
X161710000Y-101355000D01*
X161710000Y-101355000D02*
X162410000Y-101355000D01*
X163310000Y-102455000D02*
X164010000Y-102455000D01*
D13*
%TO.C,J2*%
X126250000Y-114000000D02*
X126250000Y-113500000D01*
X133750000Y-113500000D02*
X132000000Y-113500000D01*
X133750000Y-114000000D02*
X133750000Y-113500000D01*
X128000000Y-113500000D02*
X126250000Y-113500000D01*
%TO.C,U4*%
X150630000Y-98645000D02*
X150630000Y-97545000D01*
X150630000Y-96645000D02*
X152230000Y-96645000D01*
X151830000Y-99545000D02*
X151930000Y-99445000D01*
X150630000Y-96745000D02*
X150630000Y-96645000D01*
X152230000Y-96645000D02*
X152230000Y-96745000D01*
X150630000Y-99545000D02*
X151830000Y-99545000D01*
X150630000Y-99545000D02*
X150630000Y-99445000D01*
X152230000Y-98495000D02*
X152230000Y-98645000D01*
X152230000Y-97545000D02*
X152230000Y-97695000D01*
D11*
%TO.C,C1*%
X121150000Y-103625000D02*
X121850000Y-103625000D01*
X121850000Y-102725000D02*
X121150000Y-102725000D01*
X120750000Y-103625000D02*
X120050000Y-103625000D01*
X121850000Y-103625000D02*
X121850000Y-102725000D01*
X120050000Y-103625000D02*
X120050000Y-102725000D01*
X120050000Y-102725000D02*
X120750000Y-102725000D01*
%TO.C,C15*%
X160835000Y-100550000D02*
X160835000Y-99450000D01*
X160835000Y-99450000D02*
X160135000Y-99450000D01*
X158535000Y-99450000D02*
X159235000Y-99450000D01*
X158535000Y-100550000D02*
X158535000Y-99450000D01*
X160135000Y-100550000D02*
X160835000Y-100550000D01*
X159235000Y-100550000D02*
X158535000Y-100550000D01*
%TO.C,C2*%
X123040000Y-95925000D02*
X123040000Y-96625000D01*
X123940000Y-97725000D02*
X123040000Y-97725000D01*
X123940000Y-97025000D02*
X123940000Y-97725000D01*
X123940000Y-96625000D02*
X123940000Y-95925000D01*
X123040000Y-97725000D02*
X123040000Y-97025000D01*
X123940000Y-95925000D02*
X123040000Y-95925000D01*
%TO.C,C11*%
X149610000Y-93770000D02*
X149610000Y-94470000D01*
X150710000Y-94470000D02*
X150710000Y-93770000D01*
X150710000Y-96070000D02*
X149610000Y-96070000D01*
X150710000Y-95370000D02*
X150710000Y-96070000D01*
X149610000Y-96070000D02*
X149610000Y-95370000D01*
X150710000Y-93770000D02*
X149610000Y-93770000D01*
%TO.C,C5*%
X119500000Y-100300000D02*
X118600000Y-100300000D01*
X119500000Y-101400000D02*
X119500000Y-102100000D01*
X119500000Y-101000000D02*
X119500000Y-100300000D01*
X119500000Y-102100000D02*
X118600000Y-102100000D01*
X118600000Y-100300000D02*
X118600000Y-101000000D01*
X118600000Y-102100000D02*
X118600000Y-101400000D01*
%TO.C,C7*%
X118845000Y-98915000D02*
X118145000Y-98915000D01*
X119945000Y-98915000D02*
X119945000Y-99815000D01*
X118145000Y-98915000D02*
X118145000Y-99815000D01*
X119945000Y-99815000D02*
X119245000Y-99815000D01*
X118145000Y-99815000D02*
X118845000Y-99815000D01*
X119245000Y-98915000D02*
X119945000Y-98915000D01*
%TO.C,C16*%
X158535000Y-97545000D02*
X159235000Y-97545000D01*
X160835000Y-97545000D02*
X160135000Y-97545000D01*
X158535000Y-98645000D02*
X158535000Y-97545000D01*
X160835000Y-98645000D02*
X160835000Y-97545000D01*
X160135000Y-98645000D02*
X160835000Y-98645000D01*
X159235000Y-98645000D02*
X158535000Y-98645000D01*
D13*
%TO.C,J6*%
X153750000Y-114000000D02*
X153750000Y-113500000D01*
X153750000Y-113500000D02*
X152000000Y-113500000D01*
X148000000Y-113500000D02*
X146250000Y-113500000D01*
X146250000Y-114000000D02*
X146250000Y-113500000D01*
D11*
%TO.C,R3*%
X162660000Y-104895000D02*
X161960000Y-104895000D01*
X163760000Y-103995000D02*
X163060000Y-103995000D01*
X163760000Y-104895000D02*
X163760000Y-103995000D01*
X161960000Y-104895000D02*
X161960000Y-103995000D01*
X163060000Y-104895000D02*
X163760000Y-104895000D01*
X161960000Y-103995000D02*
X162660000Y-103995000D01*
D13*
%TO.C,U5*%
X159135000Y-102375000D02*
X160235000Y-102375000D01*
X161135000Y-102375000D02*
X161135000Y-103975000D01*
X161135000Y-103975000D02*
X161035000Y-103975000D01*
X161035000Y-102375000D02*
X161135000Y-102375000D01*
X158235000Y-103575000D02*
X158335000Y-103675000D01*
X158235000Y-102375000D02*
X158235000Y-103575000D01*
X159285000Y-103975000D02*
X159135000Y-103975000D01*
X158235000Y-102375000D02*
X158335000Y-102375000D01*
X160235000Y-103975000D02*
X160085000Y-103975000D01*
%TO.C,U3*%
X158880000Y-92985000D02*
X158880000Y-92585000D01*
X158980000Y-95585000D02*
X158980000Y-92985000D01*
X158780000Y-95585000D02*
X158980000Y-95585000D01*
X156580000Y-95585000D02*
X156780000Y-95585000D01*
X158980000Y-92985000D02*
X158880000Y-92985000D01*
X156580000Y-92985000D02*
X156580000Y-95585000D01*
X156580000Y-92985000D02*
X156780000Y-92985000D01*
D11*
%TO.C,L1*%
X150980000Y-103405000D02*
X151880000Y-103405000D01*
X149780000Y-101705000D02*
X149780000Y-102105000D01*
X150980000Y-100405000D02*
X151880000Y-100405000D01*
%TO.C,C10*%
X160135000Y-93385000D02*
X159235000Y-93385000D01*
X159235000Y-93385000D02*
X159235000Y-94085000D01*
X160135000Y-94485000D02*
X160135000Y-95185000D01*
X159235000Y-95185000D02*
X159235000Y-94485000D01*
X160135000Y-94085000D02*
X160135000Y-93385000D01*
X160135000Y-95185000D02*
X159235000Y-95185000D01*
%TO.C,C12*%
X148805000Y-96945000D02*
X147705000Y-96945000D01*
X147705000Y-96945000D02*
X147705000Y-97645000D01*
X148805000Y-98545000D02*
X148805000Y-99245000D01*
X147705000Y-99245000D02*
X147705000Y-98545000D01*
X148805000Y-99245000D02*
X147705000Y-99245000D01*
X148805000Y-97645000D02*
X148805000Y-96945000D01*
%TO.C,C9*%
X156325000Y-93385000D02*
X155425000Y-93385000D01*
X156325000Y-94085000D02*
X156325000Y-93385000D01*
X155425000Y-93385000D02*
X155425000Y-94085000D01*
X156325000Y-95185000D02*
X155425000Y-95185000D01*
X156325000Y-94485000D02*
X156325000Y-95185000D01*
X155425000Y-95185000D02*
X155425000Y-94485000D01*
%TO.C,C8*%
X135105000Y-100370000D02*
X136005000Y-100370000D01*
X136005000Y-100370000D02*
X136005000Y-101070000D01*
X135105000Y-102170000D02*
X136005000Y-102170000D01*
X136005000Y-102170000D02*
X136005000Y-101470000D01*
X135105000Y-101470000D02*
X135105000Y-102170000D01*
X135105000Y-101070000D02*
X135105000Y-100370000D01*
%TO.C,R2*%
X153150000Y-95820000D02*
X152250000Y-95820000D01*
X153150000Y-95120000D02*
X153150000Y-95820000D01*
X153150000Y-94020000D02*
X152250000Y-94020000D01*
X152250000Y-95820000D02*
X152250000Y-95120000D01*
X152250000Y-94020000D02*
X152250000Y-94720000D01*
X153150000Y-94720000D02*
X153150000Y-94020000D01*
%TO.C,U1*%
X120720000Y-101500000D02*
X121220000Y-101500000D01*
X123470000Y-98500000D02*
X123720000Y-98500000D01*
X123720000Y-101500000D02*
X123470000Y-101500000D01*
D14*
X120826250Y-98400000D02*
G75*
G03*
X120826250Y-98400000I-106250J0D01*
G01*
D11*
%TO.C,C3*%
X120750000Y-104895000D02*
X120050000Y-104895000D01*
X120050000Y-103995000D02*
X120750000Y-103995000D01*
X121850000Y-104895000D02*
X121850000Y-103995000D01*
X120050000Y-104895000D02*
X120050000Y-103995000D01*
X121850000Y-103995000D02*
X121150000Y-103995000D01*
X119850000Y-104895000D02*
X119850000Y-103995000D01*
X121150000Y-104895000D02*
X121850000Y-104895000D01*
D13*
%TO.C,J3*%
X137250000Y-113500000D02*
X135500000Y-113500000D01*
X144500000Y-113500000D02*
X144500000Y-114000000D01*
X144500000Y-113500000D02*
X142750000Y-113500000D01*
X135500000Y-114000000D02*
X135500000Y-113500000D01*
%TO.C,J4*%
X155750000Y-86000000D02*
X155750000Y-86500000D01*
X148250000Y-86000000D02*
X148250000Y-86500000D01*
X148250000Y-86500000D02*
X150000000Y-86500000D01*
X154000000Y-86500000D02*
X155750000Y-86500000D01*
D11*
%TO.C,L2*%
X157375000Y-102725000D02*
X157375000Y-103625000D01*
X154375000Y-102725000D02*
X154375000Y-103625000D01*
X156075000Y-101525000D02*
X155675000Y-101525000D01*
%TO.C,C6*%
X125950000Y-97600000D02*
X125950000Y-98300000D01*
X125950000Y-99400000D02*
X125950000Y-98700000D01*
X125050000Y-98700000D02*
X125050000Y-99400000D01*
X125050000Y-98300000D02*
X125050000Y-97600000D01*
X125050000Y-97600000D02*
X125950000Y-97600000D01*
X125050000Y-99400000D02*
X125950000Y-99400000D01*
X125050000Y-97400000D02*
X125950000Y-97400000D01*
%TO.C,U2*%
X142000000Y-97500000D02*
X142000000Y-101500000D01*
X138000000Y-97500000D02*
X142000000Y-97500000D01*
X142000000Y-101500000D02*
X141000000Y-102500000D01*
X141000000Y-102500000D02*
X138000000Y-102500000D01*
X138000000Y-102500000D02*
X138000000Y-97500000D01*
D15*
X143031250Y-102500000D02*
G75*
G03*
X143031250Y-102500000I-131250J0D01*
G01*
%TD*%
%LPC*%
D16*
%TO.C,P7*%
X138730000Y-89840000D03*
D17*
X136190000Y-89840000D03*
X133650000Y-89840000D03*
X131110000Y-89840000D03*
%TD*%
D16*
%TO.C,P6*%
X148890000Y-89840000D03*
D17*
X146350000Y-89840000D03*
X143810000Y-89840000D03*
X141270000Y-89840000D03*
%TD*%
D16*
%TO.C,P5*%
X159050000Y-89840000D03*
D17*
X156510000Y-89840000D03*
X153970000Y-89840000D03*
X151430000Y-89840000D03*
%TD*%
D18*
%TO.C,P4*%
X151430000Y-110160000D03*
D17*
X153970000Y-110160000D03*
X156510000Y-110160000D03*
X159050000Y-110160000D03*
%TD*%
D18*
%TO.C,P3*%
X141270000Y-110160000D03*
D17*
X143810000Y-110160000D03*
X146350000Y-110160000D03*
X148890000Y-110160000D03*
%TD*%
D18*
%TO.C,P2*%
X131110000Y-110160000D03*
D17*
X133650000Y-110160000D03*
X136190000Y-110160000D03*
X138730000Y-110160000D03*
%TD*%
D18*
%TO.C,P1*%
X120950000Y-110160000D03*
D17*
X123490000Y-110160000D03*
X126030000Y-110160000D03*
X128570000Y-110160000D03*
%TD*%
D19*
%TO.C,FID4*%
X120000000Y-114000000D03*
%TD*%
%TO.C,FID3*%
X160000000Y-114000000D03*
%TD*%
%TO.C,FID2*%
X160000000Y-86000000D03*
%TD*%
%TO.C,FID1*%
X120000000Y-86000000D03*
%TD*%
D20*
%TO.C,C13*%
X146350000Y-98831600D03*
X146350000Y-97358400D03*
%TD*%
D21*
%TO.C,C4*%
X122220000Y-97325000D03*
X122220000Y-96325000D03*
%TD*%
D22*
%TO.C,J1*%
X129200000Y-84550000D03*
X134800000Y-84550000D03*
D23*
X131250000Y-86400000D03*
X132750000Y-86400000D03*
%TD*%
D22*
%TO.C,J5*%
X145550000Y-84550000D03*
X138450000Y-84550000D03*
D23*
X140500000Y-86400000D03*
X142000000Y-86400000D03*
X143500000Y-86400000D03*
%TD*%
D21*
%TO.C,R1*%
X119045000Y-96325000D03*
X119045000Y-97325000D03*
%TD*%
D24*
%TO.C,C14*%
X162123400Y-101905000D03*
X163596600Y-101905000D03*
%TD*%
D22*
%TO.C,J2*%
X126450000Y-115450000D03*
X133550000Y-115450000D03*
D23*
X131500000Y-113600000D03*
X130000000Y-113600000D03*
X128500000Y-113600000D03*
%TD*%
D25*
%TO.C,U4*%
X152567500Y-99045000D03*
X152567500Y-98095000D03*
X152567500Y-97145000D03*
X150292500Y-97145000D03*
X150292500Y-99045000D03*
%TD*%
D26*
%TO.C,C1*%
X120450000Y-103175000D03*
X121450000Y-103175000D03*
%TD*%
D27*
%TO.C,FW1*%
X162860000Y-91110000D03*
D28*
X117140000Y-91110000D03*
D27*
X162860000Y-108890000D03*
D28*
X117140000Y-108890000D03*
%TD*%
D24*
%TO.C,C15*%
X158948400Y-100000000D03*
X160421600Y-100000000D03*
%TD*%
D21*
%TO.C,C2*%
X123490000Y-97325000D03*
X123490000Y-96325000D03*
%TD*%
D20*
%TO.C,C11*%
X150160000Y-95656600D03*
X150160000Y-94183400D03*
%TD*%
D21*
%TO.C,C5*%
X119050000Y-101700000D03*
X119050000Y-100700000D03*
%TD*%
D26*
%TO.C,C7*%
X119545000Y-99365000D03*
X118545000Y-99365000D03*
%TD*%
D24*
%TO.C,C16*%
X158948400Y-98095000D03*
X160421600Y-98095000D03*
%TD*%
D22*
%TO.C,J6*%
X153550000Y-115450000D03*
X146450000Y-115450000D03*
D23*
X151500000Y-113600000D03*
X150000000Y-113600000D03*
X148500000Y-113600000D03*
%TD*%
D26*
%TO.C,R3*%
X162360000Y-104445000D03*
X163360000Y-104445000D03*
%TD*%
D29*
%TO.C,U5*%
X158735000Y-104312500D03*
X159685000Y-104312500D03*
X160635000Y-104312500D03*
X160635000Y-102037500D03*
X158735000Y-102037500D03*
%TD*%
D30*
%TO.C,U3*%
X158530000Y-92735000D03*
X158030000Y-92735000D03*
X157530000Y-92735000D03*
X157030000Y-92735000D03*
X157030000Y-95835000D03*
X157530000Y-95835000D03*
X158030000Y-95835000D03*
X158530000Y-95835000D03*
%TD*%
D31*
%TO.C,L1*%
X150380000Y-101905000D03*
X152480000Y-101905000D03*
%TD*%
D21*
%TO.C,C10*%
X159685000Y-94785000D03*
X159685000Y-93785000D03*
%TD*%
D20*
%TO.C,C12*%
X148255000Y-98831600D03*
X148255000Y-97358400D03*
%TD*%
D21*
%TO.C,C9*%
X155875000Y-94785000D03*
X155875000Y-93785000D03*
%TD*%
%TO.C,C8*%
X135555000Y-100770000D03*
X135555000Y-101770000D03*
%TD*%
%TO.C,R2*%
X152700000Y-95420000D03*
X152700000Y-94420000D03*
%TD*%
D32*
%TO.C,U1*%
X120755000Y-98800000D03*
X120755000Y-99200000D03*
X120755000Y-99600000D03*
X120755000Y-100000000D03*
X120755000Y-100400000D03*
X120755000Y-100800000D03*
X120755000Y-101200000D03*
D33*
X121550000Y-101465000D03*
X121950000Y-101465000D03*
X122350000Y-101465000D03*
X122750000Y-101465000D03*
X123150000Y-101465000D03*
D32*
X123685000Y-101200000D03*
X123685000Y-100800000D03*
X123685000Y-100400000D03*
X123685000Y-100000000D03*
X123685000Y-99600000D03*
X123685000Y-99200000D03*
X123685000Y-98800000D03*
D33*
X123150000Y-98535000D03*
X122750000Y-98535000D03*
X122350000Y-98535000D03*
X121950000Y-98535000D03*
X121550000Y-98535000D03*
D34*
X122220000Y-100000000D03*
%TD*%
D26*
%TO.C,C3*%
X120450000Y-104445000D03*
X121450000Y-104445000D03*
%TD*%
D22*
%TO.C,J3*%
X135700000Y-115450000D03*
X144300000Y-115450000D03*
D23*
X142250000Y-113600000D03*
X140750000Y-113600000D03*
X139250000Y-113600000D03*
X137750000Y-113600000D03*
%TD*%
D22*
%TO.C,J4*%
X155550000Y-84550000D03*
X148450000Y-84550000D03*
D23*
X150500000Y-86400000D03*
X152000000Y-86400000D03*
X153500000Y-86400000D03*
%TD*%
D35*
%TO.C,L2*%
X155875000Y-102125000D03*
X155875000Y-104225000D03*
%TD*%
D21*
%TO.C,C6*%
X125500000Y-98000000D03*
X125500000Y-99000000D03*
%TD*%
D36*
%TO.C,U2*%
X142862500Y-101950000D03*
X142862500Y-101300000D03*
X142862500Y-100650000D03*
X142862500Y-100000000D03*
X142862500Y-99350000D03*
X142862500Y-98700000D03*
X142862500Y-98050000D03*
X137137500Y-98050000D03*
X137137500Y-98700000D03*
X137137500Y-99350000D03*
X137137500Y-100000000D03*
X137137500Y-100650000D03*
X137137500Y-101300000D03*
X137137500Y-101950000D03*
%TD*%
M02*
